%TF.GenerationSoftware,KiCad,Pcbnew,9.0.3*%
%TF.CreationDate,2026-02-26T20:24:48-03:00*%
%TF.ProjectId,EEGFrontier,45454746-726f-46e7-9469-65722e6b6963,rev?*%
%TF.SameCoordinates,Original*%
%TF.FileFunction,Drillmap*%
%TF.FilePolarity,Positive*%
%FSLAX45Y45*%
G04 Gerber Fmt 4.5, Leading zero omitted, Abs format (unit mm)*
G04 Created by KiCad (PCBNEW 9.0.3) date 2026-02-26 20:24:48*
%MOMM*%
%LPD*%
G01*
G04 APERTURE LIST*
%ADD10C,0.050000*%
%ADD11C,0.200000*%
%ADD12C,0.100000*%
G04 APERTURE END LIST*
D10*
X10700000Y-6101250D02*
X16202500Y-6101250D01*
X16202500Y-10253750D01*
X10700000Y-10253750D01*
X10700000Y-6101250D01*
D11*
D12*
X11325000Y-8357500D02*
X11355000Y-8387500D01*
X11355000Y-8357500D02*
X11325000Y-8387500D01*
X11340000Y-7635000D02*
X11370000Y-7665000D01*
X11370000Y-7635000D02*
X11340000Y-7665000D01*
X11412500Y-7982500D02*
X11442500Y-8012500D01*
X11442500Y-7982500D02*
X11412500Y-8012500D01*
X11570000Y-7375000D02*
X11600000Y-7405000D01*
X11600000Y-7375000D02*
X11570000Y-7405000D01*
X11702500Y-8002500D02*
X11732500Y-8032500D01*
X11732500Y-8002500D02*
X11702500Y-8032500D01*
X11789926Y-8005073D02*
X11819926Y-8035073D01*
X11819926Y-8005073D02*
X11789926Y-8035073D01*
X11820000Y-8267500D02*
X11850000Y-8297500D01*
X11850000Y-8267500D02*
X11820000Y-8297500D01*
X11907500Y-8135900D02*
X11937500Y-8165900D01*
X11937500Y-8135900D02*
X11907500Y-8165900D01*
X11922500Y-7292500D02*
X11952500Y-7322500D01*
X11952500Y-7292500D02*
X11922500Y-7322500D01*
X11935000Y-8647500D02*
X11965000Y-8677500D01*
X11965000Y-8647500D02*
X11935000Y-8677500D01*
X11987500Y-8777500D02*
X12017500Y-8807500D01*
X12017500Y-8777500D02*
X11987500Y-8807500D01*
X12040000Y-8572500D02*
X12070000Y-8602500D01*
X12070000Y-8572500D02*
X12040000Y-8602500D01*
X12412500Y-10062500D02*
X12442500Y-10092500D01*
X12442500Y-10062500D02*
X12412500Y-10092500D01*
X12762750Y-7742500D02*
X12792750Y-7772500D01*
X12792750Y-7742500D02*
X12762750Y-7772500D01*
X12885000Y-8875000D02*
X12915000Y-8905000D01*
X12915000Y-8875000D02*
X12885000Y-8905000D01*
X12965000Y-8725000D02*
X12995000Y-8755000D01*
X12995000Y-8725000D02*
X12965000Y-8755000D01*
X12970000Y-9515000D02*
X13000000Y-9545000D01*
X13000000Y-9515000D02*
X12970000Y-9545000D01*
X12982500Y-7732500D02*
X13012500Y-7762500D01*
X13012500Y-7732500D02*
X12982500Y-7762500D01*
X12982500Y-8287500D02*
X13012500Y-8317500D01*
X13012500Y-8287500D02*
X12982500Y-8317500D01*
X13030000Y-8910000D02*
X13060000Y-8940000D01*
X13060000Y-8910000D02*
X13030000Y-8940000D01*
X13072500Y-7145000D02*
X13102500Y-7175000D01*
X13102500Y-7145000D02*
X13072500Y-7175000D01*
X13335319Y-8944681D02*
X13365319Y-8974681D01*
X13365319Y-8944681D02*
X13335319Y-8974681D01*
X13438006Y-8944494D02*
X13468006Y-8974494D01*
X13468006Y-8944494D02*
X13438006Y-8974494D01*
X13542500Y-8377500D02*
X13572500Y-8407500D01*
X13572500Y-8377500D02*
X13542500Y-8407500D01*
X13560000Y-8542500D02*
X13590000Y-8572500D01*
X13590000Y-8542500D02*
X13560000Y-8572500D01*
X13620000Y-8127100D02*
X13650000Y-8157100D01*
X13650000Y-8127100D02*
X13620000Y-8157100D01*
X13667500Y-7867500D02*
X13697500Y-7897500D01*
X13697500Y-7867500D02*
X13667500Y-7897500D01*
X14030000Y-8382500D02*
X14060000Y-8412500D01*
X14060000Y-8382500D02*
X14030000Y-8412500D01*
X14662500Y-7952500D02*
X14692500Y-7982500D01*
X14692500Y-7952500D02*
X14662500Y-7982500D01*
X14877500Y-8870000D02*
X14907500Y-8900000D01*
X14907500Y-8870000D02*
X14877500Y-8900000D01*
X15290000Y-8547500D02*
X15320000Y-8577500D01*
X15320000Y-8547500D02*
X15290000Y-8577500D01*
X15737500Y-6797500D02*
X15767500Y-6827500D01*
X15767500Y-6797500D02*
X15737500Y-6827500D01*
X11060000Y-6955500D02*
G75*
G02*
X10960000Y-6955500I-50000J0D01*
G01*
X10960000Y-6955500D02*
G75*
G02*
X11060000Y-6955500I50000J0D01*
G01*
X11060000Y-7209500D02*
G75*
G02*
X10960000Y-7209500I-50000J0D01*
G01*
X10960000Y-7209500D02*
G75*
G02*
X11060000Y-7209500I50000J0D01*
G01*
X11060000Y-7463500D02*
G75*
G02*
X10960000Y-7463500I-50000J0D01*
G01*
X10960000Y-7463500D02*
G75*
G02*
X11060000Y-7463500I50000J0D01*
G01*
X11060000Y-7717500D02*
G75*
G02*
X10960000Y-7717500I-50000J0D01*
G01*
X10960000Y-7717500D02*
G75*
G02*
X11060000Y-7717500I50000J0D01*
G01*
X11060000Y-7971500D02*
G75*
G02*
X10960000Y-7971500I-50000J0D01*
G01*
X10960000Y-7971500D02*
G75*
G02*
X11060000Y-7971500I50000J0D01*
G01*
X11060000Y-8225500D02*
G75*
G02*
X10960000Y-8225500I-50000J0D01*
G01*
X10960000Y-8225500D02*
G75*
G02*
X11060000Y-8225500I50000J0D01*
G01*
X11060000Y-8479500D02*
G75*
G02*
X10960000Y-8479500I-50000J0D01*
G01*
X10960000Y-8479500D02*
G75*
G02*
X11060000Y-8479500I50000J0D01*
G01*
X11060000Y-8733500D02*
G75*
G02*
X10960000Y-8733500I-50000J0D01*
G01*
X10960000Y-8733500D02*
G75*
G02*
X11060000Y-8733500I50000J0D01*
G01*
D11*
X10958277Y-10567734D02*
X10958277Y-10367734D01*
X10958277Y-10367734D02*
X11005896Y-10367734D01*
X11005896Y-10367734D02*
X11034467Y-10377258D01*
X11034467Y-10377258D02*
X11053515Y-10396305D01*
X11053515Y-10396305D02*
X11063039Y-10415353D01*
X11063039Y-10415353D02*
X11072563Y-10453448D01*
X11072563Y-10453448D02*
X11072563Y-10482020D01*
X11072563Y-10482020D02*
X11063039Y-10520115D01*
X11063039Y-10520115D02*
X11053515Y-10539162D01*
X11053515Y-10539162D02*
X11034467Y-10558210D01*
X11034467Y-10558210D02*
X11005896Y-10567734D01*
X11005896Y-10567734D02*
X10958277Y-10567734D01*
X11158277Y-10567734D02*
X11158277Y-10434400D01*
X11158277Y-10472496D02*
X11167801Y-10453448D01*
X11167801Y-10453448D02*
X11177324Y-10443924D01*
X11177324Y-10443924D02*
X11196372Y-10434400D01*
X11196372Y-10434400D02*
X11215420Y-10434400D01*
X11282086Y-10567734D02*
X11282086Y-10434400D01*
X11282086Y-10367734D02*
X11272562Y-10377258D01*
X11272562Y-10377258D02*
X11282086Y-10386781D01*
X11282086Y-10386781D02*
X11291610Y-10377258D01*
X11291610Y-10377258D02*
X11282086Y-10367734D01*
X11282086Y-10367734D02*
X11282086Y-10386781D01*
X11405896Y-10567734D02*
X11386848Y-10558210D01*
X11386848Y-10558210D02*
X11377324Y-10539162D01*
X11377324Y-10539162D02*
X11377324Y-10367734D01*
X11510658Y-10567734D02*
X11491610Y-10558210D01*
X11491610Y-10558210D02*
X11482086Y-10539162D01*
X11482086Y-10539162D02*
X11482086Y-10367734D01*
X11739229Y-10567734D02*
X11739229Y-10367734D01*
X11739229Y-10367734D02*
X11805896Y-10510591D01*
X11805896Y-10510591D02*
X11872562Y-10367734D01*
X11872562Y-10367734D02*
X11872562Y-10567734D01*
X12053515Y-10567734D02*
X12053515Y-10462972D01*
X12053515Y-10462972D02*
X12043991Y-10443924D01*
X12043991Y-10443924D02*
X12024943Y-10434400D01*
X12024943Y-10434400D02*
X11986848Y-10434400D01*
X11986848Y-10434400D02*
X11967801Y-10443924D01*
X12053515Y-10558210D02*
X12034467Y-10567734D01*
X12034467Y-10567734D02*
X11986848Y-10567734D01*
X11986848Y-10567734D02*
X11967801Y-10558210D01*
X11967801Y-10558210D02*
X11958277Y-10539162D01*
X11958277Y-10539162D02*
X11958277Y-10520115D01*
X11958277Y-10520115D02*
X11967801Y-10501067D01*
X11967801Y-10501067D02*
X11986848Y-10491543D01*
X11986848Y-10491543D02*
X12034467Y-10491543D01*
X12034467Y-10491543D02*
X12053515Y-10482020D01*
X12148753Y-10434400D02*
X12148753Y-10634400D01*
X12148753Y-10443924D02*
X12167801Y-10434400D01*
X12167801Y-10434400D02*
X12205896Y-10434400D01*
X12205896Y-10434400D02*
X12224943Y-10443924D01*
X12224943Y-10443924D02*
X12234467Y-10453448D01*
X12234467Y-10453448D02*
X12243991Y-10472496D01*
X12243991Y-10472496D02*
X12243991Y-10529639D01*
X12243991Y-10529639D02*
X12234467Y-10548686D01*
X12234467Y-10548686D02*
X12224943Y-10558210D01*
X12224943Y-10558210D02*
X12205896Y-10567734D01*
X12205896Y-10567734D02*
X12167801Y-10567734D01*
X12167801Y-10567734D02*
X12148753Y-10558210D01*
X12329705Y-10548686D02*
X12339229Y-10558210D01*
X12339229Y-10558210D02*
X12329705Y-10567734D01*
X12329705Y-10567734D02*
X12320182Y-10558210D01*
X12320182Y-10558210D02*
X12329705Y-10548686D01*
X12329705Y-10548686D02*
X12329705Y-10567734D01*
X12329705Y-10443924D02*
X12339229Y-10453448D01*
X12339229Y-10453448D02*
X12329705Y-10462972D01*
X12329705Y-10462972D02*
X12320182Y-10453448D01*
X12320182Y-10453448D02*
X12329705Y-10443924D01*
X12329705Y-10443924D02*
X12329705Y-10462972D01*
D12*
X10667500Y-10881250D02*
X10697500Y-10911250D01*
X10697500Y-10881250D02*
X10667500Y-10911250D01*
D11*
X10996372Y-10787734D02*
X11015420Y-10787734D01*
X11015420Y-10787734D02*
X11034467Y-10797258D01*
X11034467Y-10797258D02*
X11043991Y-10806781D01*
X11043991Y-10806781D02*
X11053515Y-10825829D01*
X11053515Y-10825829D02*
X11063039Y-10863924D01*
X11063039Y-10863924D02*
X11063039Y-10911543D01*
X11063039Y-10911543D02*
X11053515Y-10949639D01*
X11053515Y-10949639D02*
X11043991Y-10968686D01*
X11043991Y-10968686D02*
X11034467Y-10978210D01*
X11034467Y-10978210D02*
X11015420Y-10987734D01*
X11015420Y-10987734D02*
X10996372Y-10987734D01*
X10996372Y-10987734D02*
X10977324Y-10978210D01*
X10977324Y-10978210D02*
X10967801Y-10968686D01*
X10967801Y-10968686D02*
X10958277Y-10949639D01*
X10958277Y-10949639D02*
X10948753Y-10911543D01*
X10948753Y-10911543D02*
X10948753Y-10863924D01*
X10948753Y-10863924D02*
X10958277Y-10825829D01*
X10958277Y-10825829D02*
X10967801Y-10806781D01*
X10967801Y-10806781D02*
X10977324Y-10797258D01*
X10977324Y-10797258D02*
X10996372Y-10787734D01*
X11148753Y-10968686D02*
X11158277Y-10978210D01*
X11158277Y-10978210D02*
X11148753Y-10987734D01*
X11148753Y-10987734D02*
X11139229Y-10978210D01*
X11139229Y-10978210D02*
X11148753Y-10968686D01*
X11148753Y-10968686D02*
X11148753Y-10987734D01*
X11224943Y-10787734D02*
X11348753Y-10787734D01*
X11348753Y-10787734D02*
X11282086Y-10863924D01*
X11282086Y-10863924D02*
X11310658Y-10863924D01*
X11310658Y-10863924D02*
X11329705Y-10873448D01*
X11329705Y-10873448D02*
X11339229Y-10882972D01*
X11339229Y-10882972D02*
X11348753Y-10902020D01*
X11348753Y-10902020D02*
X11348753Y-10949639D01*
X11348753Y-10949639D02*
X11339229Y-10968686D01*
X11339229Y-10968686D02*
X11329705Y-10978210D01*
X11329705Y-10978210D02*
X11310658Y-10987734D01*
X11310658Y-10987734D02*
X11253515Y-10987734D01*
X11253515Y-10987734D02*
X11234467Y-10978210D01*
X11234467Y-10978210D02*
X11224943Y-10968686D01*
X11472562Y-10787734D02*
X11491610Y-10787734D01*
X11491610Y-10787734D02*
X11510658Y-10797258D01*
X11510658Y-10797258D02*
X11520182Y-10806781D01*
X11520182Y-10806781D02*
X11529705Y-10825829D01*
X11529705Y-10825829D02*
X11539229Y-10863924D01*
X11539229Y-10863924D02*
X11539229Y-10911543D01*
X11539229Y-10911543D02*
X11529705Y-10949639D01*
X11529705Y-10949639D02*
X11520182Y-10968686D01*
X11520182Y-10968686D02*
X11510658Y-10978210D01*
X11510658Y-10978210D02*
X11491610Y-10987734D01*
X11491610Y-10987734D02*
X11472562Y-10987734D01*
X11472562Y-10987734D02*
X11453515Y-10978210D01*
X11453515Y-10978210D02*
X11443991Y-10968686D01*
X11443991Y-10968686D02*
X11434467Y-10949639D01*
X11434467Y-10949639D02*
X11424943Y-10911543D01*
X11424943Y-10911543D02*
X11424943Y-10863924D01*
X11424943Y-10863924D02*
X11434467Y-10825829D01*
X11434467Y-10825829D02*
X11443991Y-10806781D01*
X11443991Y-10806781D02*
X11453515Y-10797258D01*
X11453515Y-10797258D02*
X11472562Y-10787734D01*
X11663039Y-10787734D02*
X11682086Y-10787734D01*
X11682086Y-10787734D02*
X11701134Y-10797258D01*
X11701134Y-10797258D02*
X11710658Y-10806781D01*
X11710658Y-10806781D02*
X11720182Y-10825829D01*
X11720182Y-10825829D02*
X11729705Y-10863924D01*
X11729705Y-10863924D02*
X11729705Y-10911543D01*
X11729705Y-10911543D02*
X11720182Y-10949639D01*
X11720182Y-10949639D02*
X11710658Y-10968686D01*
X11710658Y-10968686D02*
X11701134Y-10978210D01*
X11701134Y-10978210D02*
X11682086Y-10987734D01*
X11682086Y-10987734D02*
X11663039Y-10987734D01*
X11663039Y-10987734D02*
X11643991Y-10978210D01*
X11643991Y-10978210D02*
X11634467Y-10968686D01*
X11634467Y-10968686D02*
X11624943Y-10949639D01*
X11624943Y-10949639D02*
X11615420Y-10911543D01*
X11615420Y-10911543D02*
X11615420Y-10863924D01*
X11615420Y-10863924D02*
X11624943Y-10825829D01*
X11624943Y-10825829D02*
X11634467Y-10806781D01*
X11634467Y-10806781D02*
X11643991Y-10797258D01*
X11643991Y-10797258D02*
X11663039Y-10787734D01*
X11815420Y-10987734D02*
X11815420Y-10854400D01*
X11815420Y-10873448D02*
X11824943Y-10863924D01*
X11824943Y-10863924D02*
X11843991Y-10854400D01*
X11843991Y-10854400D02*
X11872563Y-10854400D01*
X11872563Y-10854400D02*
X11891610Y-10863924D01*
X11891610Y-10863924D02*
X11901134Y-10882972D01*
X11901134Y-10882972D02*
X11901134Y-10987734D01*
X11901134Y-10882972D02*
X11910658Y-10863924D01*
X11910658Y-10863924D02*
X11929705Y-10854400D01*
X11929705Y-10854400D02*
X11958277Y-10854400D01*
X11958277Y-10854400D02*
X11977324Y-10863924D01*
X11977324Y-10863924D02*
X11986848Y-10882972D01*
X11986848Y-10882972D02*
X11986848Y-10987734D01*
X12082086Y-10987734D02*
X12082086Y-10854400D01*
X12082086Y-10873448D02*
X12091610Y-10863924D01*
X12091610Y-10863924D02*
X12110658Y-10854400D01*
X12110658Y-10854400D02*
X12139229Y-10854400D01*
X12139229Y-10854400D02*
X12158277Y-10863924D01*
X12158277Y-10863924D02*
X12167801Y-10882972D01*
X12167801Y-10882972D02*
X12167801Y-10987734D01*
X12167801Y-10882972D02*
X12177324Y-10863924D01*
X12177324Y-10863924D02*
X12196372Y-10854400D01*
X12196372Y-10854400D02*
X12224943Y-10854400D01*
X12224943Y-10854400D02*
X12243991Y-10863924D01*
X12243991Y-10863924D02*
X12253515Y-10882972D01*
X12253515Y-10882972D02*
X12253515Y-10987734D01*
X12643991Y-10778210D02*
X12472563Y-11035353D01*
X12901134Y-10787734D02*
X12920182Y-10787734D01*
X12920182Y-10787734D02*
X12939229Y-10797258D01*
X12939229Y-10797258D02*
X12948753Y-10806781D01*
X12948753Y-10806781D02*
X12958277Y-10825829D01*
X12958277Y-10825829D02*
X12967801Y-10863924D01*
X12967801Y-10863924D02*
X12967801Y-10911543D01*
X12967801Y-10911543D02*
X12958277Y-10949639D01*
X12958277Y-10949639D02*
X12948753Y-10968686D01*
X12948753Y-10968686D02*
X12939229Y-10978210D01*
X12939229Y-10978210D02*
X12920182Y-10987734D01*
X12920182Y-10987734D02*
X12901134Y-10987734D01*
X12901134Y-10987734D02*
X12882086Y-10978210D01*
X12882086Y-10978210D02*
X12872563Y-10968686D01*
X12872563Y-10968686D02*
X12863039Y-10949639D01*
X12863039Y-10949639D02*
X12853515Y-10911543D01*
X12853515Y-10911543D02*
X12853515Y-10863924D01*
X12853515Y-10863924D02*
X12863039Y-10825829D01*
X12863039Y-10825829D02*
X12872563Y-10806781D01*
X12872563Y-10806781D02*
X12882086Y-10797258D01*
X12882086Y-10797258D02*
X12901134Y-10787734D01*
X13053515Y-10968686D02*
X13063039Y-10978210D01*
X13063039Y-10978210D02*
X13053515Y-10987734D01*
X13053515Y-10987734D02*
X13043991Y-10978210D01*
X13043991Y-10978210D02*
X13053515Y-10968686D01*
X13053515Y-10968686D02*
X13053515Y-10987734D01*
X13186848Y-10787734D02*
X13205896Y-10787734D01*
X13205896Y-10787734D02*
X13224944Y-10797258D01*
X13224944Y-10797258D02*
X13234467Y-10806781D01*
X13234467Y-10806781D02*
X13243991Y-10825829D01*
X13243991Y-10825829D02*
X13253515Y-10863924D01*
X13253515Y-10863924D02*
X13253515Y-10911543D01*
X13253515Y-10911543D02*
X13243991Y-10949639D01*
X13243991Y-10949639D02*
X13234467Y-10968686D01*
X13234467Y-10968686D02*
X13224944Y-10978210D01*
X13224944Y-10978210D02*
X13205896Y-10987734D01*
X13205896Y-10987734D02*
X13186848Y-10987734D01*
X13186848Y-10987734D02*
X13167801Y-10978210D01*
X13167801Y-10978210D02*
X13158277Y-10968686D01*
X13158277Y-10968686D02*
X13148753Y-10949639D01*
X13148753Y-10949639D02*
X13139229Y-10911543D01*
X13139229Y-10911543D02*
X13139229Y-10863924D01*
X13139229Y-10863924D02*
X13148753Y-10825829D01*
X13148753Y-10825829D02*
X13158277Y-10806781D01*
X13158277Y-10806781D02*
X13167801Y-10797258D01*
X13167801Y-10797258D02*
X13186848Y-10787734D01*
X13443991Y-10987734D02*
X13329706Y-10987734D01*
X13386848Y-10987734D02*
X13386848Y-10787734D01*
X13386848Y-10787734D02*
X13367801Y-10816305D01*
X13367801Y-10816305D02*
X13348753Y-10835353D01*
X13348753Y-10835353D02*
X13329706Y-10844877D01*
X13634467Y-10987734D02*
X13520182Y-10987734D01*
X13577325Y-10987734D02*
X13577325Y-10787734D01*
X13577325Y-10787734D02*
X13558277Y-10816305D01*
X13558277Y-10816305D02*
X13539229Y-10835353D01*
X13539229Y-10835353D02*
X13520182Y-10844877D01*
X13748753Y-10873448D02*
X13729706Y-10863924D01*
X13729706Y-10863924D02*
X13720182Y-10854400D01*
X13720182Y-10854400D02*
X13710658Y-10835353D01*
X13710658Y-10835353D02*
X13710658Y-10825829D01*
X13710658Y-10825829D02*
X13720182Y-10806781D01*
X13720182Y-10806781D02*
X13729706Y-10797258D01*
X13729706Y-10797258D02*
X13748753Y-10787734D01*
X13748753Y-10787734D02*
X13786848Y-10787734D01*
X13786848Y-10787734D02*
X13805896Y-10797258D01*
X13805896Y-10797258D02*
X13815420Y-10806781D01*
X13815420Y-10806781D02*
X13824944Y-10825829D01*
X13824944Y-10825829D02*
X13824944Y-10835353D01*
X13824944Y-10835353D02*
X13815420Y-10854400D01*
X13815420Y-10854400D02*
X13805896Y-10863924D01*
X13805896Y-10863924D02*
X13786848Y-10873448D01*
X13786848Y-10873448D02*
X13748753Y-10873448D01*
X13748753Y-10873448D02*
X13729706Y-10882972D01*
X13729706Y-10882972D02*
X13720182Y-10892496D01*
X13720182Y-10892496D02*
X13710658Y-10911543D01*
X13710658Y-10911543D02*
X13710658Y-10949639D01*
X13710658Y-10949639D02*
X13720182Y-10968686D01*
X13720182Y-10968686D02*
X13729706Y-10978210D01*
X13729706Y-10978210D02*
X13748753Y-10987734D01*
X13748753Y-10987734D02*
X13786848Y-10987734D01*
X13786848Y-10987734D02*
X13805896Y-10978210D01*
X13805896Y-10978210D02*
X13815420Y-10968686D01*
X13815420Y-10968686D02*
X13824944Y-10949639D01*
X13824944Y-10949639D02*
X13824944Y-10911543D01*
X13824944Y-10911543D02*
X13815420Y-10892496D01*
X13815420Y-10892496D02*
X13805896Y-10882972D01*
X13805896Y-10882972D02*
X13786848Y-10873448D01*
X13901134Y-10787734D02*
X13901134Y-10825829D01*
X13977325Y-10787734D02*
X13977325Y-10825829D01*
X14272563Y-11063924D02*
X14263039Y-11054400D01*
X14263039Y-11054400D02*
X14243991Y-11025829D01*
X14243991Y-11025829D02*
X14234468Y-11006781D01*
X14234468Y-11006781D02*
X14224944Y-10978210D01*
X14224944Y-10978210D02*
X14215420Y-10930591D01*
X14215420Y-10930591D02*
X14215420Y-10892496D01*
X14215420Y-10892496D02*
X14224944Y-10844877D01*
X14224944Y-10844877D02*
X14234468Y-10816305D01*
X14234468Y-10816305D02*
X14243991Y-10797258D01*
X14243991Y-10797258D02*
X14263039Y-10768686D01*
X14263039Y-10768686D02*
X14272563Y-10759162D01*
X14329706Y-10787734D02*
X14453515Y-10787734D01*
X14453515Y-10787734D02*
X14386848Y-10863924D01*
X14386848Y-10863924D02*
X14415420Y-10863924D01*
X14415420Y-10863924D02*
X14434468Y-10873448D01*
X14434468Y-10873448D02*
X14443991Y-10882972D01*
X14443991Y-10882972D02*
X14453515Y-10902020D01*
X14453515Y-10902020D02*
X14453515Y-10949639D01*
X14453515Y-10949639D02*
X14443991Y-10968686D01*
X14443991Y-10968686D02*
X14434468Y-10978210D01*
X14434468Y-10978210D02*
X14415420Y-10987734D01*
X14415420Y-10987734D02*
X14358277Y-10987734D01*
X14358277Y-10987734D02*
X14339229Y-10978210D01*
X14339229Y-10978210D02*
X14329706Y-10968686D01*
X14529706Y-10806781D02*
X14539229Y-10797258D01*
X14539229Y-10797258D02*
X14558277Y-10787734D01*
X14558277Y-10787734D02*
X14605896Y-10787734D01*
X14605896Y-10787734D02*
X14624944Y-10797258D01*
X14624944Y-10797258D02*
X14634468Y-10806781D01*
X14634468Y-10806781D02*
X14643991Y-10825829D01*
X14643991Y-10825829D02*
X14643991Y-10844877D01*
X14643991Y-10844877D02*
X14634468Y-10873448D01*
X14634468Y-10873448D02*
X14520182Y-10987734D01*
X14520182Y-10987734D02*
X14643991Y-10987734D01*
X14882087Y-10987734D02*
X14882087Y-10787734D01*
X14967801Y-10987734D02*
X14967801Y-10882972D01*
X14967801Y-10882972D02*
X14958277Y-10863924D01*
X14958277Y-10863924D02*
X14939230Y-10854400D01*
X14939230Y-10854400D02*
X14910658Y-10854400D01*
X14910658Y-10854400D02*
X14891610Y-10863924D01*
X14891610Y-10863924D02*
X14882087Y-10873448D01*
X15091610Y-10987734D02*
X15072563Y-10978210D01*
X15072563Y-10978210D02*
X15063039Y-10968686D01*
X15063039Y-10968686D02*
X15053515Y-10949639D01*
X15053515Y-10949639D02*
X15053515Y-10892496D01*
X15053515Y-10892496D02*
X15063039Y-10873448D01*
X15063039Y-10873448D02*
X15072563Y-10863924D01*
X15072563Y-10863924D02*
X15091610Y-10854400D01*
X15091610Y-10854400D02*
X15120182Y-10854400D01*
X15120182Y-10854400D02*
X15139230Y-10863924D01*
X15139230Y-10863924D02*
X15148753Y-10873448D01*
X15148753Y-10873448D02*
X15158277Y-10892496D01*
X15158277Y-10892496D02*
X15158277Y-10949639D01*
X15158277Y-10949639D02*
X15148753Y-10968686D01*
X15148753Y-10968686D02*
X15139230Y-10978210D01*
X15139230Y-10978210D02*
X15120182Y-10987734D01*
X15120182Y-10987734D02*
X15091610Y-10987734D01*
X15272563Y-10987734D02*
X15253515Y-10978210D01*
X15253515Y-10978210D02*
X15243991Y-10959162D01*
X15243991Y-10959162D02*
X15243991Y-10787734D01*
X15424944Y-10978210D02*
X15405896Y-10987734D01*
X15405896Y-10987734D02*
X15367801Y-10987734D01*
X15367801Y-10987734D02*
X15348753Y-10978210D01*
X15348753Y-10978210D02*
X15339230Y-10959162D01*
X15339230Y-10959162D02*
X15339230Y-10882972D01*
X15339230Y-10882972D02*
X15348753Y-10863924D01*
X15348753Y-10863924D02*
X15367801Y-10854400D01*
X15367801Y-10854400D02*
X15405896Y-10854400D01*
X15405896Y-10854400D02*
X15424944Y-10863924D01*
X15424944Y-10863924D02*
X15434468Y-10882972D01*
X15434468Y-10882972D02*
X15434468Y-10902020D01*
X15434468Y-10902020D02*
X15339230Y-10921067D01*
X15510658Y-10978210D02*
X15529706Y-10987734D01*
X15529706Y-10987734D02*
X15567801Y-10987734D01*
X15567801Y-10987734D02*
X15586849Y-10978210D01*
X15586849Y-10978210D02*
X15596372Y-10959162D01*
X15596372Y-10959162D02*
X15596372Y-10949639D01*
X15596372Y-10949639D02*
X15586849Y-10930591D01*
X15586849Y-10930591D02*
X15567801Y-10921067D01*
X15567801Y-10921067D02*
X15539230Y-10921067D01*
X15539230Y-10921067D02*
X15520182Y-10911543D01*
X15520182Y-10911543D02*
X15510658Y-10892496D01*
X15510658Y-10892496D02*
X15510658Y-10882972D01*
X15510658Y-10882972D02*
X15520182Y-10863924D01*
X15520182Y-10863924D02*
X15539230Y-10854400D01*
X15539230Y-10854400D02*
X15567801Y-10854400D01*
X15567801Y-10854400D02*
X15586849Y-10863924D01*
X15663039Y-11063924D02*
X15672563Y-11054400D01*
X15672563Y-11054400D02*
X15691611Y-11025829D01*
X15691611Y-11025829D02*
X15701134Y-11006781D01*
X15701134Y-11006781D02*
X15710658Y-10978210D01*
X15710658Y-10978210D02*
X15720182Y-10930591D01*
X15720182Y-10930591D02*
X15720182Y-10892496D01*
X15720182Y-10892496D02*
X15710658Y-10844877D01*
X15710658Y-10844877D02*
X15701134Y-10816305D01*
X15701134Y-10816305D02*
X15691611Y-10797258D01*
X15691611Y-10797258D02*
X15672563Y-10768686D01*
X15672563Y-10768686D02*
X15663039Y-10759162D01*
D12*
X10697500Y-11160250D02*
G75*
G02*
X10597500Y-11160250I-50000J0D01*
G01*
X10597500Y-11160250D02*
G75*
G02*
X10697500Y-11160250I50000J0D01*
G01*
D11*
X11063039Y-11251734D02*
X10948753Y-11251734D01*
X11005896Y-11251734D02*
X11005896Y-11051734D01*
X11005896Y-11051734D02*
X10986848Y-11080305D01*
X10986848Y-11080305D02*
X10967801Y-11099353D01*
X10967801Y-11099353D02*
X10948753Y-11108877D01*
X11148753Y-11232686D02*
X11158277Y-11242210D01*
X11158277Y-11242210D02*
X11148753Y-11251734D01*
X11148753Y-11251734D02*
X11139229Y-11242210D01*
X11139229Y-11242210D02*
X11148753Y-11232686D01*
X11148753Y-11232686D02*
X11148753Y-11251734D01*
X11282086Y-11051734D02*
X11301134Y-11051734D01*
X11301134Y-11051734D02*
X11320182Y-11061258D01*
X11320182Y-11061258D02*
X11329705Y-11070781D01*
X11329705Y-11070781D02*
X11339229Y-11089829D01*
X11339229Y-11089829D02*
X11348753Y-11127924D01*
X11348753Y-11127924D02*
X11348753Y-11175543D01*
X11348753Y-11175543D02*
X11339229Y-11213638D01*
X11339229Y-11213638D02*
X11329705Y-11232686D01*
X11329705Y-11232686D02*
X11320182Y-11242210D01*
X11320182Y-11242210D02*
X11301134Y-11251734D01*
X11301134Y-11251734D02*
X11282086Y-11251734D01*
X11282086Y-11251734D02*
X11263039Y-11242210D01*
X11263039Y-11242210D02*
X11253515Y-11232686D01*
X11253515Y-11232686D02*
X11243991Y-11213638D01*
X11243991Y-11213638D02*
X11234467Y-11175543D01*
X11234467Y-11175543D02*
X11234467Y-11127924D01*
X11234467Y-11127924D02*
X11243991Y-11089829D01*
X11243991Y-11089829D02*
X11253515Y-11070781D01*
X11253515Y-11070781D02*
X11263039Y-11061258D01*
X11263039Y-11061258D02*
X11282086Y-11051734D01*
X11472562Y-11051734D02*
X11491610Y-11051734D01*
X11491610Y-11051734D02*
X11510658Y-11061258D01*
X11510658Y-11061258D02*
X11520182Y-11070781D01*
X11520182Y-11070781D02*
X11529705Y-11089829D01*
X11529705Y-11089829D02*
X11539229Y-11127924D01*
X11539229Y-11127924D02*
X11539229Y-11175543D01*
X11539229Y-11175543D02*
X11529705Y-11213638D01*
X11529705Y-11213638D02*
X11520182Y-11232686D01*
X11520182Y-11232686D02*
X11510658Y-11242210D01*
X11510658Y-11242210D02*
X11491610Y-11251734D01*
X11491610Y-11251734D02*
X11472562Y-11251734D01*
X11472562Y-11251734D02*
X11453515Y-11242210D01*
X11453515Y-11242210D02*
X11443991Y-11232686D01*
X11443991Y-11232686D02*
X11434467Y-11213638D01*
X11434467Y-11213638D02*
X11424943Y-11175543D01*
X11424943Y-11175543D02*
X11424943Y-11127924D01*
X11424943Y-11127924D02*
X11434467Y-11089829D01*
X11434467Y-11089829D02*
X11443991Y-11070781D01*
X11443991Y-11070781D02*
X11453515Y-11061258D01*
X11453515Y-11061258D02*
X11472562Y-11051734D01*
X11663039Y-11051734D02*
X11682086Y-11051734D01*
X11682086Y-11051734D02*
X11701134Y-11061258D01*
X11701134Y-11061258D02*
X11710658Y-11070781D01*
X11710658Y-11070781D02*
X11720182Y-11089829D01*
X11720182Y-11089829D02*
X11729705Y-11127924D01*
X11729705Y-11127924D02*
X11729705Y-11175543D01*
X11729705Y-11175543D02*
X11720182Y-11213638D01*
X11720182Y-11213638D02*
X11710658Y-11232686D01*
X11710658Y-11232686D02*
X11701134Y-11242210D01*
X11701134Y-11242210D02*
X11682086Y-11251734D01*
X11682086Y-11251734D02*
X11663039Y-11251734D01*
X11663039Y-11251734D02*
X11643991Y-11242210D01*
X11643991Y-11242210D02*
X11634467Y-11232686D01*
X11634467Y-11232686D02*
X11624943Y-11213638D01*
X11624943Y-11213638D02*
X11615420Y-11175543D01*
X11615420Y-11175543D02*
X11615420Y-11127924D01*
X11615420Y-11127924D02*
X11624943Y-11089829D01*
X11624943Y-11089829D02*
X11634467Y-11070781D01*
X11634467Y-11070781D02*
X11643991Y-11061258D01*
X11643991Y-11061258D02*
X11663039Y-11051734D01*
X11815420Y-11251734D02*
X11815420Y-11118400D01*
X11815420Y-11137448D02*
X11824943Y-11127924D01*
X11824943Y-11127924D02*
X11843991Y-11118400D01*
X11843991Y-11118400D02*
X11872563Y-11118400D01*
X11872563Y-11118400D02*
X11891610Y-11127924D01*
X11891610Y-11127924D02*
X11901134Y-11146972D01*
X11901134Y-11146972D02*
X11901134Y-11251734D01*
X11901134Y-11146972D02*
X11910658Y-11127924D01*
X11910658Y-11127924D02*
X11929705Y-11118400D01*
X11929705Y-11118400D02*
X11958277Y-11118400D01*
X11958277Y-11118400D02*
X11977324Y-11127924D01*
X11977324Y-11127924D02*
X11986848Y-11146972D01*
X11986848Y-11146972D02*
X11986848Y-11251734D01*
X12082086Y-11251734D02*
X12082086Y-11118400D01*
X12082086Y-11137448D02*
X12091610Y-11127924D01*
X12091610Y-11127924D02*
X12110658Y-11118400D01*
X12110658Y-11118400D02*
X12139229Y-11118400D01*
X12139229Y-11118400D02*
X12158277Y-11127924D01*
X12158277Y-11127924D02*
X12167801Y-11146972D01*
X12167801Y-11146972D02*
X12167801Y-11251734D01*
X12167801Y-11146972D02*
X12177324Y-11127924D01*
X12177324Y-11127924D02*
X12196372Y-11118400D01*
X12196372Y-11118400D02*
X12224943Y-11118400D01*
X12224943Y-11118400D02*
X12243991Y-11127924D01*
X12243991Y-11127924D02*
X12253515Y-11146972D01*
X12253515Y-11146972D02*
X12253515Y-11251734D01*
X12643991Y-11042210D02*
X12472563Y-11299353D01*
X12901134Y-11051734D02*
X12920182Y-11051734D01*
X12920182Y-11051734D02*
X12939229Y-11061258D01*
X12939229Y-11061258D02*
X12948753Y-11070781D01*
X12948753Y-11070781D02*
X12958277Y-11089829D01*
X12958277Y-11089829D02*
X12967801Y-11127924D01*
X12967801Y-11127924D02*
X12967801Y-11175543D01*
X12967801Y-11175543D02*
X12958277Y-11213638D01*
X12958277Y-11213638D02*
X12948753Y-11232686D01*
X12948753Y-11232686D02*
X12939229Y-11242210D01*
X12939229Y-11242210D02*
X12920182Y-11251734D01*
X12920182Y-11251734D02*
X12901134Y-11251734D01*
X12901134Y-11251734D02*
X12882086Y-11242210D01*
X12882086Y-11242210D02*
X12872563Y-11232686D01*
X12872563Y-11232686D02*
X12863039Y-11213638D01*
X12863039Y-11213638D02*
X12853515Y-11175543D01*
X12853515Y-11175543D02*
X12853515Y-11127924D01*
X12853515Y-11127924D02*
X12863039Y-11089829D01*
X12863039Y-11089829D02*
X12872563Y-11070781D01*
X12872563Y-11070781D02*
X12882086Y-11061258D01*
X12882086Y-11061258D02*
X12901134Y-11051734D01*
X13053515Y-11232686D02*
X13063039Y-11242210D01*
X13063039Y-11242210D02*
X13053515Y-11251734D01*
X13053515Y-11251734D02*
X13043991Y-11242210D01*
X13043991Y-11242210D02*
X13053515Y-11232686D01*
X13053515Y-11232686D02*
X13053515Y-11251734D01*
X13186848Y-11051734D02*
X13205896Y-11051734D01*
X13205896Y-11051734D02*
X13224944Y-11061258D01*
X13224944Y-11061258D02*
X13234467Y-11070781D01*
X13234467Y-11070781D02*
X13243991Y-11089829D01*
X13243991Y-11089829D02*
X13253515Y-11127924D01*
X13253515Y-11127924D02*
X13253515Y-11175543D01*
X13253515Y-11175543D02*
X13243991Y-11213638D01*
X13243991Y-11213638D02*
X13234467Y-11232686D01*
X13234467Y-11232686D02*
X13224944Y-11242210D01*
X13224944Y-11242210D02*
X13205896Y-11251734D01*
X13205896Y-11251734D02*
X13186848Y-11251734D01*
X13186848Y-11251734D02*
X13167801Y-11242210D01*
X13167801Y-11242210D02*
X13158277Y-11232686D01*
X13158277Y-11232686D02*
X13148753Y-11213638D01*
X13148753Y-11213638D02*
X13139229Y-11175543D01*
X13139229Y-11175543D02*
X13139229Y-11127924D01*
X13139229Y-11127924D02*
X13148753Y-11089829D01*
X13148753Y-11089829D02*
X13158277Y-11070781D01*
X13158277Y-11070781D02*
X13167801Y-11061258D01*
X13167801Y-11061258D02*
X13186848Y-11051734D01*
X13320182Y-11051734D02*
X13443991Y-11051734D01*
X13443991Y-11051734D02*
X13377325Y-11127924D01*
X13377325Y-11127924D02*
X13405896Y-11127924D01*
X13405896Y-11127924D02*
X13424944Y-11137448D01*
X13424944Y-11137448D02*
X13434467Y-11146972D01*
X13434467Y-11146972D02*
X13443991Y-11166020D01*
X13443991Y-11166020D02*
X13443991Y-11213638D01*
X13443991Y-11213638D02*
X13434467Y-11232686D01*
X13434467Y-11232686D02*
X13424944Y-11242210D01*
X13424944Y-11242210D02*
X13405896Y-11251734D01*
X13405896Y-11251734D02*
X13348753Y-11251734D01*
X13348753Y-11251734D02*
X13329706Y-11242210D01*
X13329706Y-11242210D02*
X13320182Y-11232686D01*
X13539229Y-11251734D02*
X13577325Y-11251734D01*
X13577325Y-11251734D02*
X13596372Y-11242210D01*
X13596372Y-11242210D02*
X13605896Y-11232686D01*
X13605896Y-11232686D02*
X13624944Y-11204115D01*
X13624944Y-11204115D02*
X13634467Y-11166020D01*
X13634467Y-11166020D02*
X13634467Y-11089829D01*
X13634467Y-11089829D02*
X13624944Y-11070781D01*
X13624944Y-11070781D02*
X13615420Y-11061258D01*
X13615420Y-11061258D02*
X13596372Y-11051734D01*
X13596372Y-11051734D02*
X13558277Y-11051734D01*
X13558277Y-11051734D02*
X13539229Y-11061258D01*
X13539229Y-11061258D02*
X13529706Y-11070781D01*
X13529706Y-11070781D02*
X13520182Y-11089829D01*
X13520182Y-11089829D02*
X13520182Y-11137448D01*
X13520182Y-11137448D02*
X13529706Y-11156496D01*
X13529706Y-11156496D02*
X13539229Y-11166020D01*
X13539229Y-11166020D02*
X13558277Y-11175543D01*
X13558277Y-11175543D02*
X13596372Y-11175543D01*
X13596372Y-11175543D02*
X13615420Y-11166020D01*
X13615420Y-11166020D02*
X13624944Y-11156496D01*
X13624944Y-11156496D02*
X13634467Y-11137448D01*
X13805896Y-11118400D02*
X13805896Y-11251734D01*
X13758277Y-11042210D02*
X13710658Y-11185067D01*
X13710658Y-11185067D02*
X13834467Y-11185067D01*
X13901134Y-11051734D02*
X13901134Y-11089829D01*
X13977325Y-11051734D02*
X13977325Y-11089829D01*
X14272563Y-11327924D02*
X14263039Y-11318400D01*
X14263039Y-11318400D02*
X14243991Y-11289829D01*
X14243991Y-11289829D02*
X14234468Y-11270781D01*
X14234468Y-11270781D02*
X14224944Y-11242210D01*
X14224944Y-11242210D02*
X14215420Y-11194591D01*
X14215420Y-11194591D02*
X14215420Y-11156496D01*
X14215420Y-11156496D02*
X14224944Y-11108877D01*
X14224944Y-11108877D02*
X14234468Y-11080305D01*
X14234468Y-11080305D02*
X14243991Y-11061258D01*
X14243991Y-11061258D02*
X14263039Y-11032686D01*
X14263039Y-11032686D02*
X14272563Y-11023162D01*
X14377325Y-11137448D02*
X14358277Y-11127924D01*
X14358277Y-11127924D02*
X14348753Y-11118400D01*
X14348753Y-11118400D02*
X14339229Y-11099353D01*
X14339229Y-11099353D02*
X14339229Y-11089829D01*
X14339229Y-11089829D02*
X14348753Y-11070781D01*
X14348753Y-11070781D02*
X14358277Y-11061258D01*
X14358277Y-11061258D02*
X14377325Y-11051734D01*
X14377325Y-11051734D02*
X14415420Y-11051734D01*
X14415420Y-11051734D02*
X14434468Y-11061258D01*
X14434468Y-11061258D02*
X14443991Y-11070781D01*
X14443991Y-11070781D02*
X14453515Y-11089829D01*
X14453515Y-11089829D02*
X14453515Y-11099353D01*
X14453515Y-11099353D02*
X14443991Y-11118400D01*
X14443991Y-11118400D02*
X14434468Y-11127924D01*
X14434468Y-11127924D02*
X14415420Y-11137448D01*
X14415420Y-11137448D02*
X14377325Y-11137448D01*
X14377325Y-11137448D02*
X14358277Y-11146972D01*
X14358277Y-11146972D02*
X14348753Y-11156496D01*
X14348753Y-11156496D02*
X14339229Y-11175543D01*
X14339229Y-11175543D02*
X14339229Y-11213638D01*
X14339229Y-11213638D02*
X14348753Y-11232686D01*
X14348753Y-11232686D02*
X14358277Y-11242210D01*
X14358277Y-11242210D02*
X14377325Y-11251734D01*
X14377325Y-11251734D02*
X14415420Y-11251734D01*
X14415420Y-11251734D02*
X14434468Y-11242210D01*
X14434468Y-11242210D02*
X14443991Y-11232686D01*
X14443991Y-11232686D02*
X14453515Y-11213638D01*
X14453515Y-11213638D02*
X14453515Y-11175543D01*
X14453515Y-11175543D02*
X14443991Y-11156496D01*
X14443991Y-11156496D02*
X14434468Y-11146972D01*
X14434468Y-11146972D02*
X14415420Y-11137448D01*
X14691610Y-11251734D02*
X14691610Y-11051734D01*
X14777325Y-11251734D02*
X14777325Y-11146972D01*
X14777325Y-11146972D02*
X14767801Y-11127924D01*
X14767801Y-11127924D02*
X14748753Y-11118400D01*
X14748753Y-11118400D02*
X14720182Y-11118400D01*
X14720182Y-11118400D02*
X14701134Y-11127924D01*
X14701134Y-11127924D02*
X14691610Y-11137448D01*
X14901134Y-11251734D02*
X14882087Y-11242210D01*
X14882087Y-11242210D02*
X14872563Y-11232686D01*
X14872563Y-11232686D02*
X14863039Y-11213638D01*
X14863039Y-11213638D02*
X14863039Y-11156496D01*
X14863039Y-11156496D02*
X14872563Y-11137448D01*
X14872563Y-11137448D02*
X14882087Y-11127924D01*
X14882087Y-11127924D02*
X14901134Y-11118400D01*
X14901134Y-11118400D02*
X14929706Y-11118400D01*
X14929706Y-11118400D02*
X14948753Y-11127924D01*
X14948753Y-11127924D02*
X14958277Y-11137448D01*
X14958277Y-11137448D02*
X14967801Y-11156496D01*
X14967801Y-11156496D02*
X14967801Y-11213638D01*
X14967801Y-11213638D02*
X14958277Y-11232686D01*
X14958277Y-11232686D02*
X14948753Y-11242210D01*
X14948753Y-11242210D02*
X14929706Y-11251734D01*
X14929706Y-11251734D02*
X14901134Y-11251734D01*
X15082087Y-11251734D02*
X15063039Y-11242210D01*
X15063039Y-11242210D02*
X15053515Y-11223162D01*
X15053515Y-11223162D02*
X15053515Y-11051734D01*
X15234468Y-11242210D02*
X15215420Y-11251734D01*
X15215420Y-11251734D02*
X15177325Y-11251734D01*
X15177325Y-11251734D02*
X15158277Y-11242210D01*
X15158277Y-11242210D02*
X15148753Y-11223162D01*
X15148753Y-11223162D02*
X15148753Y-11146972D01*
X15148753Y-11146972D02*
X15158277Y-11127924D01*
X15158277Y-11127924D02*
X15177325Y-11118400D01*
X15177325Y-11118400D02*
X15215420Y-11118400D01*
X15215420Y-11118400D02*
X15234468Y-11127924D01*
X15234468Y-11127924D02*
X15243991Y-11146972D01*
X15243991Y-11146972D02*
X15243991Y-11166020D01*
X15243991Y-11166020D02*
X15148753Y-11185067D01*
X15320182Y-11242210D02*
X15339230Y-11251734D01*
X15339230Y-11251734D02*
X15377325Y-11251734D01*
X15377325Y-11251734D02*
X15396372Y-11242210D01*
X15396372Y-11242210D02*
X15405896Y-11223162D01*
X15405896Y-11223162D02*
X15405896Y-11213638D01*
X15405896Y-11213638D02*
X15396372Y-11194591D01*
X15396372Y-11194591D02*
X15377325Y-11185067D01*
X15377325Y-11185067D02*
X15348753Y-11185067D01*
X15348753Y-11185067D02*
X15329706Y-11175543D01*
X15329706Y-11175543D02*
X15320182Y-11156496D01*
X15320182Y-11156496D02*
X15320182Y-11146972D01*
X15320182Y-11146972D02*
X15329706Y-11127924D01*
X15329706Y-11127924D02*
X15348753Y-11118400D01*
X15348753Y-11118400D02*
X15377325Y-11118400D01*
X15377325Y-11118400D02*
X15396372Y-11127924D01*
X15472563Y-11327924D02*
X15482087Y-11318400D01*
X15482087Y-11318400D02*
X15501134Y-11289829D01*
X15501134Y-11289829D02*
X15510658Y-11270781D01*
X15510658Y-11270781D02*
X15520182Y-11242210D01*
X15520182Y-11242210D02*
X15529706Y-11194591D01*
X15529706Y-11194591D02*
X15529706Y-11156496D01*
X15529706Y-11156496D02*
X15520182Y-11108877D01*
X15520182Y-11108877D02*
X15510658Y-11080305D01*
X15510658Y-11080305D02*
X15501134Y-11061258D01*
X15501134Y-11061258D02*
X15482087Y-11032686D01*
X15482087Y-11032686D02*
X15472563Y-11023162D01*
M02*
