%TF.GenerationSoftware,KiCad,Pcbnew,9.0.3*%
%TF.CreationDate,2026-02-26T20:24:48-03:00*%
%TF.ProjectId,EEGFrontier,45454746-726f-46e7-9469-65722e6b6963,rev?*%
%TF.SameCoordinates,Original*%
%TF.FileFunction,Drillmap*%
%TF.FilePolarity,Positive*%
%FSLAX45Y45*%
G04 Gerber Fmt 4.5, Leading zero omitted, Abs format (unit mm)*
G04 Created by KiCad (PCBNEW 9.0.3) date 2026-02-26 20:24:48*
%MOMM*%
%LPD*%
G01*
G04 APERTURE LIST*
%ADD10C,0.050000*%
%ADD11C,0.200000*%
G04 APERTURE END LIST*
D10*
X10700000Y-6101250D02*
X16202500Y-6101250D01*
X16202500Y-10253750D01*
X10700000Y-10253750D01*
X10700000Y-6101250D01*
D11*
X10958277Y-10567734D02*
X10958277Y-10367734D01*
X10958277Y-10367734D02*
X11005896Y-10367734D01*
X11005896Y-10367734D02*
X11034467Y-10377258D01*
X11034467Y-10377258D02*
X11053515Y-10396305D01*
X11053515Y-10396305D02*
X11063039Y-10415353D01*
X11063039Y-10415353D02*
X11072563Y-10453448D01*
X11072563Y-10453448D02*
X11072563Y-10482020D01*
X11072563Y-10482020D02*
X11063039Y-10520115D01*
X11063039Y-10520115D02*
X11053515Y-10539162D01*
X11053515Y-10539162D02*
X11034467Y-10558210D01*
X11034467Y-10558210D02*
X11005896Y-10567734D01*
X11005896Y-10567734D02*
X10958277Y-10567734D01*
X11158277Y-10567734D02*
X11158277Y-10434400D01*
X11158277Y-10472496D02*
X11167801Y-10453448D01*
X11167801Y-10453448D02*
X11177324Y-10443924D01*
X11177324Y-10443924D02*
X11196372Y-10434400D01*
X11196372Y-10434400D02*
X11215420Y-10434400D01*
X11282086Y-10567734D02*
X11282086Y-10434400D01*
X11282086Y-10367734D02*
X11272562Y-10377258D01*
X11272562Y-10377258D02*
X11282086Y-10386781D01*
X11282086Y-10386781D02*
X11291610Y-10377258D01*
X11291610Y-10377258D02*
X11282086Y-10367734D01*
X11282086Y-10367734D02*
X11282086Y-10386781D01*
X11405896Y-10567734D02*
X11386848Y-10558210D01*
X11386848Y-10558210D02*
X11377324Y-10539162D01*
X11377324Y-10539162D02*
X11377324Y-10367734D01*
X11510658Y-10567734D02*
X11491610Y-10558210D01*
X11491610Y-10558210D02*
X11482086Y-10539162D01*
X11482086Y-10539162D02*
X11482086Y-10367734D01*
X11739229Y-10567734D02*
X11739229Y-10367734D01*
X11739229Y-10367734D02*
X11805896Y-10510591D01*
X11805896Y-10510591D02*
X11872562Y-10367734D01*
X11872562Y-10367734D02*
X11872562Y-10567734D01*
X12053515Y-10567734D02*
X12053515Y-10462972D01*
X12053515Y-10462972D02*
X12043991Y-10443924D01*
X12043991Y-10443924D02*
X12024943Y-10434400D01*
X12024943Y-10434400D02*
X11986848Y-10434400D01*
X11986848Y-10434400D02*
X11967801Y-10443924D01*
X12053515Y-10558210D02*
X12034467Y-10567734D01*
X12034467Y-10567734D02*
X11986848Y-10567734D01*
X11986848Y-10567734D02*
X11967801Y-10558210D01*
X11967801Y-10558210D02*
X11958277Y-10539162D01*
X11958277Y-10539162D02*
X11958277Y-10520115D01*
X11958277Y-10520115D02*
X11967801Y-10501067D01*
X11967801Y-10501067D02*
X11986848Y-10491543D01*
X11986848Y-10491543D02*
X12034467Y-10491543D01*
X12034467Y-10491543D02*
X12053515Y-10482020D01*
X12148753Y-10434400D02*
X12148753Y-10634400D01*
X12148753Y-10443924D02*
X12167801Y-10434400D01*
X12167801Y-10434400D02*
X12205896Y-10434400D01*
X12205896Y-10434400D02*
X12224943Y-10443924D01*
X12224943Y-10443924D02*
X12234467Y-10453448D01*
X12234467Y-10453448D02*
X12243991Y-10472496D01*
X12243991Y-10472496D02*
X12243991Y-10529639D01*
X12243991Y-10529639D02*
X12234467Y-10548686D01*
X12234467Y-10548686D02*
X12224943Y-10558210D01*
X12224943Y-10558210D02*
X12205896Y-10567734D01*
X12205896Y-10567734D02*
X12167801Y-10567734D01*
X12167801Y-10567734D02*
X12148753Y-10558210D01*
X12329705Y-10548686D02*
X12339229Y-10558210D01*
X12339229Y-10558210D02*
X12329705Y-10567734D01*
X12329705Y-10567734D02*
X12320182Y-10558210D01*
X12320182Y-10558210D02*
X12329705Y-10548686D01*
X12329705Y-10548686D02*
X12329705Y-10567734D01*
X12329705Y-10443924D02*
X12339229Y-10453448D01*
X12339229Y-10453448D02*
X12329705Y-10462972D01*
X12329705Y-10462972D02*
X12320182Y-10453448D01*
X12320182Y-10453448D02*
X12329705Y-10443924D01*
X12329705Y-10443924D02*
X12329705Y-10462972D01*
M02*
