%TF.GenerationSoftware,KiCad,Pcbnew,9.0.3*%
%TF.CreationDate,2026-02-26T20:24:48-03:00*%
%TF.ProjectId,EEGFrontier,45454746-726f-46e7-9469-65722e6b6963,rev?*%
%TF.SameCoordinates,Original*%
%TF.FileFunction,Plated,1,2,PTH,Drill*%
%TF.FilePolarity,Positive*%
%FSLAX46Y46*%
G04 Gerber Fmt 4.6, Leading zero omitted, Abs format (unit mm)*
G04 Created by KiCad (PCBNEW 9.0.3) date 2026-02-26 20:24:48*
%MOMM*%
%LPD*%
G01*
G04 APERTURE LIST*
%TA.AperFunction,ViaDrill*%
%ADD10C,0.300000*%
%TD*%
%TA.AperFunction,ComponentDrill*%
%ADD11C,1.000000*%
%TD*%
G04 APERTURE END LIST*
D10*
X113400000Y-83725000D03*
X113550000Y-76500000D03*
X114275000Y-79975000D03*
X115850000Y-73900000D03*
X117175000Y-80175000D03*
X118049265Y-80200735D03*
X118350000Y-82825000D03*
X119225000Y-81509000D03*
X119375000Y-73075000D03*
X119500000Y-86625000D03*
X120025000Y-87925000D03*
X120550000Y-85875000D03*
X124275000Y-100775000D03*
X127777500Y-77575000D03*
X129000000Y-88900000D03*
X129800000Y-87400000D03*
X129850000Y-95300000D03*
X129975000Y-77475000D03*
X129975000Y-83025000D03*
X130450000Y-89250000D03*
X130875000Y-71600000D03*
X133503188Y-89596812D03*
X134530058Y-89594942D03*
X135575000Y-83925000D03*
X135750000Y-85575000D03*
X136350000Y-81421000D03*
X136825000Y-78825000D03*
X140450000Y-83975000D03*
X146775000Y-79675000D03*
X148925000Y-88850000D03*
X153050000Y-85625000D03*
X157525000Y-68125000D03*
D11*
%TO.C,J1*%
X110100000Y-69555000D03*
X110100000Y-72095000D03*
X110100000Y-74635000D03*
X110100000Y-77175000D03*
X110100000Y-79715000D03*
X110100000Y-82255000D03*
X110100000Y-84795000D03*
X110100000Y-87335000D03*
M02*
