%TF.GenerationSoftware,KiCad,Pcbnew,9.0.8*%
%TF.CreationDate,2026-03-19T21:35:43-03:00*%
%TF.ProjectId,EEGFrontier,45454746-726f-46e7-9469-65722e6b6963,rev?*%
%TF.SameCoordinates,Original*%
%TF.FileFunction,Plated,1,2,PTH,Drill*%
%TF.FilePolarity,Positive*%
%FSLAX46Y46*%
G04 Gerber Fmt 4.6, Leading zero omitted, Abs format (unit mm)*
G04 Created by KiCad (PCBNEW 9.0.8) date 2026-03-19 21:35:43*
%MOMM*%
%LPD*%
G01*
G04 APERTURE LIST*
%TA.AperFunction,ViaDrill*%
%ADD10C,0.300000*%
%TD*%
%TA.AperFunction,ComponentDrill*%
%ADD11C,1.000000*%
%TD*%
G04 APERTURE END LIST*
D10*
X136297300Y-109703100D03*
X138286900Y-111167700D03*
X138666900Y-100589000D03*
X139498100Y-107786600D03*
X140590300Y-95631000D03*
X140673200Y-103215600D03*
X143207400Y-97375000D03*
X143688700Y-100075700D03*
X144068300Y-91551300D03*
X145102600Y-102786000D03*
X145297000Y-107081200D03*
X147177700Y-90605700D03*
X147904500Y-94018700D03*
X148722400Y-100269200D03*
X149020200Y-97970400D03*
X149030600Y-93041000D03*
X149264900Y-101373000D03*
X149931600Y-98048600D03*
X150004700Y-103383900D03*
X150441500Y-100186400D03*
X150507400Y-101601200D03*
X151780000Y-108250000D03*
X152132726Y-94581800D03*
X152294900Y-91560000D03*
X152894900Y-97786200D03*
X153810200Y-97453100D03*
X154410200Y-92993998D03*
X154640000Y-95578000D03*
X155229900Y-97825300D03*
X155452900Y-89812900D03*
X155619800Y-97126744D03*
X155619801Y-90595299D03*
X155785100Y-100548300D03*
X155785100Y-103310400D03*
X156219800Y-99572700D03*
X157180000Y-107240000D03*
X157760000Y-96236577D03*
X158340500Y-105148000D03*
X159289000Y-108299400D03*
X160101500Y-103006400D03*
X161024700Y-103008000D03*
X161135000Y-100548300D03*
X161550500Y-98136900D03*
X162593400Y-94774500D03*
X163494200Y-102414200D03*
X163766900Y-89812900D03*
X167345900Y-109052700D03*
X167896900Y-104036500D03*
X167925000Y-106726200D03*
X167931000Y-102350700D03*
X168034000Y-97786200D03*
X168131000Y-103213400D03*
X170376200Y-99586000D03*
D11*
%TO.C,J1*%
X128110000Y-88180000D03*
X128110000Y-90720000D03*
X128110000Y-93260000D03*
X128110000Y-95800000D03*
X128110000Y-98340000D03*
X128110000Y-100880000D03*
X128110000Y-103420000D03*
X128110000Y-105960000D03*
X128110000Y-108500000D03*
X128110000Y-111040000D03*
X128110000Y-113580000D03*
X128110000Y-116120000D03*
%TO.C,J2*%
X149540000Y-86820000D03*
X152080000Y-86820000D03*
X154620000Y-86820000D03*
X157160000Y-86820000D03*
M02*
