%TF.GenerationSoftware,KiCad,Pcbnew,9.0.8*%
%TF.CreationDate,2026-03-19T21:35:27-03:00*%
%TF.ProjectId,EEGFrontier,45454746-726f-46e7-9469-65722e6b6963,rev?*%
%TF.SameCoordinates,Original*%
%TF.FileFunction,Copper,L2,Bot*%
%TF.FilePolarity,Positive*%
%FSLAX46Y46*%
G04 Gerber Fmt 4.6, Leading zero omitted, Abs format (unit mm)*
G04 Created by KiCad (PCBNEW 9.0.8) date 2026-03-19 21:35:27*
%MOMM*%
%LPD*%
G01*
G04 APERTURE LIST*
%TA.AperFunction,ComponentPad*%
%ADD10R,1.700000X1.700000*%
%TD*%
%TA.AperFunction,ComponentPad*%
%ADD11C,1.700000*%
%TD*%
%TA.AperFunction,ViaPad*%
%ADD12C,0.600000*%
%TD*%
%TA.AperFunction,Conductor*%
%ADD13C,0.200000*%
%TD*%
G04 APERTURE END LIST*
D10*
%TO.P,J1,1,Pin_1*%
%TO.N,EEG_CH1*%
X128110000Y-116120000D03*
D11*
%TO.P,J1,2,Pin_2*%
%TO.N,EEG_CH2*%
X128110000Y-113580000D03*
%TO.P,J1,3,Pin_3*%
%TO.N,EEG_CH3*%
X128110000Y-111040000D03*
%TO.P,J1,4,Pin_4*%
%TO.N,EEG_CH4*%
X128110000Y-108500000D03*
%TO.P,J1,5,Pin_5*%
%TO.N,EEG_CH5*%
X128110000Y-105960000D03*
%TO.P,J1,6,Pin_6*%
%TO.N,EEG_CH6*%
X128110000Y-103420000D03*
%TO.P,J1,7,Pin_7*%
%TO.N,EEG_CH7*%
X128110000Y-100880000D03*
%TO.P,J1,8,Pin_8*%
%TO.N,EEG_CH8*%
X128110000Y-98340000D03*
%TO.P,J1,9,Pin_9*%
%TO.N,EEG_REF*%
X128110000Y-95800000D03*
%TO.P,J1,10,Pin_10*%
%TO.N,EEG_BIAS*%
X128110000Y-93260000D03*
%TO.P,J1,11,Pin_11*%
%TO.N,GND*%
X128110000Y-90720000D03*
%TO.P,J1,12,Pin_12*%
%TO.N,3V3_D*%
X128110000Y-88180000D03*
%TD*%
D10*
%TO.P,J2,1,Pin_1*%
%TO.N,/ADS_GPIO1*%
X157160000Y-86820000D03*
D11*
%TO.P,J2,2,Pin_2*%
%TO.N,/ADS_GPIO2*%
X154620000Y-86820000D03*
%TO.P,J2,3,Pin_3*%
%TO.N,/ADS_GPIO3*%
X152080000Y-86820000D03*
%TO.P,J2,4,Pin_4*%
%TO.N,/ADS_GPIO4*%
X149540000Y-86820000D03*
%TD*%
D12*
%TO.N,GND*%
X155619801Y-90595299D03*
X155619800Y-97126744D03*
X151780000Y-108250000D03*
X157180000Y-107240000D03*
X158340500Y-105148000D03*
X157760000Y-96236577D03*
X154410200Y-92993998D03*
X154640000Y-95578000D03*
X152294900Y-91560000D03*
X152132726Y-94581800D03*
%TO.N,Net-(U1-IN8N)*%
X149020200Y-97970400D03*
X147904500Y-94018700D03*
%TO.N,Net-(U1-IN7P)*%
X149264900Y-101373000D03*
X138666900Y-100589000D03*
%TO.N,Net-(U1-IN7N)*%
X149030600Y-93041000D03*
X149931600Y-98048600D03*
%TO.N,Net-(U1-IN6P)*%
X148722400Y-100269200D03*
X143688700Y-100075700D03*
%TO.N,Net-(U1-IN5P)*%
X150004700Y-103383900D03*
X136297300Y-109703100D03*
%TO.N,Net-(U1-IN5N)*%
X150507400Y-101601200D03*
X147177700Y-90605700D03*
%TO.N,Net-(U1-IN3P)*%
X145297000Y-107081200D03*
X138286900Y-111167700D03*
%TO.N,Net-(U1-IN3N)*%
X143207400Y-97375000D03*
X145102600Y-102786000D03*
%TO.N,Net-(U1-VCAP3)*%
X153810200Y-97453100D03*
X155452900Y-89812900D03*
%TO.N,Net-(U1-BIASREF)*%
X150441500Y-100186400D03*
X144068300Y-91551300D03*
%TO.N,/ADS_GPIO3*%
X152894900Y-97786200D03*
%TO.N,/ADS_GPIO1*%
X155785100Y-100548300D03*
%TO.N,/ADS_GPIO4*%
X155229900Y-97825300D03*
%TO.N,/ADS_GPIO2*%
X156219800Y-99572700D03*
%TO.N,BTN_START*%
X167345900Y-109052700D03*
X167896900Y-104036500D03*
%TO.N,EEG_REF*%
X139498100Y-107786600D03*
X140673200Y-103215600D03*
X140590300Y-95631000D03*
%TO.N,3V3_D*%
X161550500Y-98136900D03*
X161024700Y-103008000D03*
%TO.N,SPI_MISO*%
X168034000Y-97786200D03*
X161135000Y-100548300D03*
%TO.N,SPI_CS*%
X163494200Y-102414200D03*
X168131000Y-103213400D03*
%TO.N,EEG_START*%
X155785100Y-103310400D03*
X162593400Y-94774500D03*
%TO.N,EEG_RESET*%
X160101500Y-103006400D03*
X163766900Y-89812900D03*
%TO.N,SPI_MOSI*%
X170376200Y-99586000D03*
X167925000Y-106726200D03*
%TO.N,SPI_SCK*%
X159289000Y-108299400D03*
X167931000Y-102350700D03*
%TD*%
D13*
%TO.N,GND*%
X163193400Y-94774500D02*
G75*
G03*
X163017664Y-94350235I-600000J0D01*
G01*
X154210200Y-94844285D02*
G75*
G03*
X154425096Y-95363104I733700J-15D01*
G01*
X154310200Y-93093998D02*
G75*
G03*
X154210207Y-93335419I241400J-241402D01*
G01*
X163193400Y-94774500D02*
G75*
G02*
X163017663Y-95198765I-600000J0D01*
G01*
X158340500Y-102129892D02*
G75*
G02*
X159934306Y-98282150I5441500J-8D01*
G01*
X152213813Y-94500713D02*
G75*
G03*
X152294921Y-94304951I-195813J195813D01*
G01*
X161280185Y-94174500D02*
G75*
G03*
X158791043Y-95205543I15J-3520200D01*
G01*
X156675000Y-107745000D02*
G75*
G02*
X155455822Y-108250009I-1219200J1219200D01*
G01*
X162593401Y-94174500D02*
G75*
G02*
X163017664Y-94350235I-1J-600000D01*
G01*
X155619800Y-97126744D02*
X155619801Y-90595299D01*
X157180000Y-107240000D02*
X156675000Y-107745000D01*
X151780000Y-108250000D02*
X155455822Y-108250000D01*
X159934292Y-98282136D02*
X163017663Y-95198765D01*
X158340500Y-102129892D02*
X158340500Y-105148000D01*
X162593401Y-94174500D02*
X161280185Y-94174500D01*
X157760000Y-96236577D02*
X158791038Y-95205538D01*
X154310200Y-93093998D02*
X154410200Y-92993998D01*
X154210200Y-94844285D02*
X154210200Y-93335419D01*
X154425100Y-95363100D02*
X154640000Y-95578000D01*
X152294900Y-91560000D02*
X152294900Y-94304951D01*
X152213813Y-94500713D02*
X152132726Y-94581800D01*
%TO.N,Net-(U1-IN8N)*%
X147904500Y-96065780D02*
G75*
G03*
X148462344Y-97412556I1904600J-20D01*
G01*
%TO.N,Net-(U1-IN7P)*%
X138666900Y-97792905D02*
G75*
G02*
X139476398Y-95838598I2763800J5D01*
G01*
X147116404Y-101934195D02*
G75*
G02*
X148471250Y-101373023I1354796J-1354805D01*
G01*
X140599900Y-95029100D02*
G75*
G02*
X141135939Y-95251123I0J-758100D01*
G01*
X141775900Y-96500626D02*
G75*
G03*
X141344908Y-95460092I-1471500J26D01*
G01*
X145232400Y-103413900D02*
G75*
G03*
X145922590Y-103128023I0J976100D01*
G01*
X140599900Y-95029100D02*
G75*
G03*
X140063861Y-95251124I0J-758100D01*
G01*
X144542216Y-103128016D02*
G75*
G03*
X145232400Y-103413890I690184J690216D01*
G01*
X141775900Y-98203468D02*
G75*
G03*
X143301991Y-101887809I5210400J-32D01*
G01*
%TO.N,Net-(U1-IN7N)*%
X149925342Y-98024642D02*
G75*
G02*
X149931625Y-98039750I-15142J-15158D01*
G01*
X149030600Y-96492796D02*
G75*
G03*
X149481099Y-97580401I1538100J-4D01*
G01*
%TO.N,Net-(U1-IN6P)*%
X143785450Y-100172450D02*
G75*
G03*
X144019025Y-100269190I233550J233550D01*
G01*
%TO.N,Net-(U1-IN5P)*%
X144948636Y-104704563D02*
G75*
G02*
X148137000Y-103383891I3188364J-3188337D01*
G01*
X138123700Y-109703100D02*
G75*
G03*
X141241555Y-108411636I0J4409300D01*
G01*
%TO.N,Net-(U1-IN5N)*%
X144332799Y-94736499D02*
G75*
G02*
X143436400Y-92572400I2164101J2164099D01*
G01*
X149832187Y-100925987D02*
G75*
G02*
X149588158Y-100336950I589013J589087D01*
G01*
X149344212Y-99747912D02*
G75*
G02*
X149588242Y-100336950I-589012J-589088D01*
G01*
X144629667Y-90605700D02*
G75*
G03*
X143785909Y-90955209I33J-1193300D01*
G01*
X143436400Y-91798967D02*
G75*
G02*
X143785909Y-90955209I1193300J-33D01*
G01*
%TO.N,Net-(U1-IN3P)*%
X139748700Y-111167700D02*
G75*
G03*
X142244149Y-110134052I0J3529100D01*
G01*
%TO.N,Net-(U1-IN3N)*%
X144094800Y-101778200D02*
G75*
G02*
X143087018Y-99345155I2433000J2433000D01*
G01*
X143087000Y-97580535D02*
G75*
G02*
X143147190Y-97435190I205500J35D01*
G01*
%TO.N,Net-(U1-VCAP3)*%
X154631550Y-90634250D02*
G75*
G03*
X153810185Y-92617164I1982950J-1982950D01*
G01*
%TO.N,Net-(U1-BIASREF)*%
X150396100Y-100186400D02*
G75*
G02*
X150318598Y-100154296I0J109600D01*
G01*
X144068300Y-92727650D02*
G75*
G03*
X144900122Y-94735788I2840000J50D01*
G01*
%TO.N,/ADS_GPIO3*%
X152487450Y-87227450D02*
G75*
G02*
X152894891Y-88211121I-983650J-983650D01*
G01*
%TO.N,/ADS_GPIO1*%
X156204701Y-100438698D02*
G75*
G02*
X155940100Y-100548300I-264601J264598D01*
G01*
X156627550Y-100015850D02*
G75*
G03*
X157160001Y-98730401I-1285450J1285450D01*
G01*
%TO.N,/ADS_GPIO4*%
X151113650Y-96906650D02*
G75*
G02*
X149632319Y-93330354I3576250J3576250D01*
G01*
X154269311Y-98388000D02*
G75*
G03*
X154948547Y-98106647I-11J960600D01*
G01*
X149632300Y-86977565D02*
G75*
G03*
X149586140Y-86866160I-157600J-35D01*
G01*
X151862366Y-97655366D02*
G75*
G03*
X153631100Y-98387990I1768734J1768766D01*
G01*
%TO.N,/ADS_GPIO2*%
X155419900Y-87619900D02*
G75*
G02*
X156219788Y-89551029I-1931100J-1931100D01*
G01*
%TO.N,BTN_START*%
X167266800Y-105112147D02*
G75*
G02*
X167581836Y-104351536I1075600J47D01*
G01*
X167266800Y-108917667D02*
G75*
G03*
X167306341Y-109013159I135000J-33D01*
G01*
%TO.N,EEG_REF*%
X140043599Y-103845199D02*
G75*
G02*
X138723749Y-104391948I-1319899J1319799D01*
G01*
X139496900Y-105165050D02*
G75*
G03*
X138723749Y-104391900I-773200J-50D01*
G01*
X140043599Y-103845199D02*
G75*
G03*
X139496920Y-105165050I1319801J-1319801D01*
G01*
X140560990Y-103327809D02*
G75*
G03*
X140590326Y-103257050I-70790J70809D01*
G01*
X135713718Y-103403718D02*
G75*
G03*
X138099400Y-104391889I2385682J2385718D01*
G01*
X140631750Y-103215600D02*
G75*
G03*
X140590300Y-103257050I-50J-41400D01*
G01*
X140590300Y-103174150D02*
G75*
G03*
X140631750Y-103215600I41500J50D01*
G01*
X139496900Y-107784551D02*
G75*
G03*
X139497485Y-107786015I2000J-49D01*
G01*
X140590300Y-103174150D02*
X140590300Y-103257050D01*
%TO.N,3V3_D*%
X159673250Y-103434750D02*
G75*
G03*
X160091995Y-103608202I418750J418750D01*
G01*
X159673250Y-103434750D02*
G75*
G02*
X159499798Y-103016004I418750J418750D01*
G01*
X160628783Y-103403916D02*
G75*
G02*
X160135600Y-103608189I-493183J493216D01*
G01*
X159499800Y-101637663D02*
G75*
G02*
X160525161Y-99162261I3500800J-37D01*
G01*
%TO.N,SPI_MISO*%
X162516050Y-99167250D02*
G75*
G02*
X165850199Y-97786200I3334150J-3334150D01*
G01*
%TO.N,SPI_CS*%
X163893800Y-102813800D02*
G75*
G03*
X164858519Y-103213392I964700J964700D01*
G01*
%TO.N,EEG_START*%
X156395898Y-100972001D02*
G75*
G03*
X155785100Y-102446600I1474602J-1474599D01*
G01*
%TO.N,EEG_RESET*%
X160995388Y-99584210D02*
G75*
G03*
X160101526Y-101742250I2158012J-2157990D01*
G01*
X163766900Y-94558736D02*
G75*
G02*
X162173100Y-98406485I-5441600J36D01*
G01*
%TO.N,SPI_MOSI*%
X170376200Y-102541739D02*
G75*
G02*
X169150588Y-105500588I-4184500J39D01*
G01*
%TO.N,SPI_SCK*%
X165292700Y-101799900D02*
G75*
G03*
X161729108Y-103275979I0J-5039700D01*
G01*
X166990725Y-101799900D02*
G75*
G02*
X167655593Y-102075307I-25J-940300D01*
G01*
X159289000Y-107007750D02*
G75*
G02*
X160202313Y-104802744I3118300J50D01*
G01*
%TO.N,Net-(U1-IN8N)*%
X147904500Y-96065780D02*
X147904500Y-94018700D01*
X149020200Y-97970400D02*
X148462350Y-97412550D01*
%TO.N,Net-(U1-IN7P)*%
X138666900Y-97792905D02*
X138666900Y-100589000D01*
X139476399Y-95838599D02*
X140063868Y-95251131D01*
X141135931Y-95251131D02*
X141344900Y-95460100D01*
X141775900Y-96500626D02*
X141775900Y-98203468D01*
X144542216Y-103128016D02*
X143302000Y-101887800D01*
X147116404Y-101934195D02*
X145922583Y-103128016D01*
X149264900Y-101373000D02*
X148471250Y-101373000D01*
%TO.N,Net-(U1-IN7N)*%
X149030600Y-93041000D02*
X149030600Y-96492796D01*
X149481100Y-97580400D02*
X149925342Y-98024642D01*
X149931600Y-98039750D02*
X149931600Y-98048600D01*
%TO.N,Net-(U1-IN6P)*%
X143785450Y-100172450D02*
X143688700Y-100075700D01*
X148722400Y-100269200D02*
X144019025Y-100269200D01*
%TO.N,Net-(U1-IN5P)*%
X138123700Y-109703100D02*
X136297300Y-109703100D01*
X144948636Y-104704563D02*
X141241559Y-108411640D01*
X150004700Y-103383900D02*
X148137000Y-103383900D01*
%TO.N,Net-(U1-IN5N)*%
X144629667Y-90605700D02*
X147177700Y-90605700D01*
X143436400Y-91798967D02*
X143436400Y-92572400D01*
X144332799Y-94736499D02*
X149344212Y-99747912D01*
X150507400Y-101601200D02*
X149832187Y-100925987D01*
%TO.N,Net-(U1-IN3P)*%
X139748700Y-111167700D02*
X138286900Y-111167700D01*
X142244148Y-110134051D02*
X145297000Y-107081200D01*
%TO.N,Net-(U1-IN3N)*%
X144094800Y-101778200D02*
X145102600Y-102786000D01*
X143087000Y-99345155D02*
X143087000Y-97580535D01*
X143207400Y-97375000D02*
X143147200Y-97435200D01*
%TO.N,Net-(U1-VCAP3)*%
X154631550Y-90634250D02*
X155452900Y-89812900D01*
X153810200Y-92617164D02*
X153810200Y-97453100D01*
%TO.N,Net-(U1-BIASREF)*%
X144068300Y-92727650D02*
X144068300Y-91551300D01*
X144900105Y-94735805D02*
X150318597Y-100154297D01*
X150396100Y-100186400D02*
X150441500Y-100186400D01*
%TO.N,/ADS_GPIO3*%
X152894900Y-88211121D02*
X152894900Y-97786200D01*
X152487450Y-87227450D02*
X152080000Y-86820000D01*
%TO.N,/ADS_GPIO1*%
X157160000Y-98730401D02*
X157160000Y-86820000D01*
X156204701Y-100438698D02*
X156627550Y-100015850D01*
X155940100Y-100548300D02*
X155785100Y-100548300D01*
%TO.N,/ADS_GPIO4*%
X149586150Y-86866150D02*
X149540000Y-86820000D01*
X149632300Y-86977565D02*
X149632300Y-93330354D01*
X151113650Y-96906650D02*
X151862366Y-97655366D01*
X154269311Y-98388000D02*
X153631100Y-98388000D01*
X154948550Y-98106650D02*
X155229900Y-97825300D01*
%TO.N,/ADS_GPIO2*%
X156219800Y-99572700D02*
X156219800Y-89551029D01*
X155419900Y-87619900D02*
X154620000Y-86820000D01*
%TO.N,BTN_START*%
X167581850Y-104351550D02*
X167896900Y-104036500D01*
X167266800Y-105112147D02*
X167266800Y-108917667D01*
X167345900Y-109052700D02*
X167306350Y-109013150D01*
%TO.N,EEG_REF*%
X135713718Y-103403718D02*
X128110000Y-95800000D01*
X138099400Y-104391900D02*
X138723749Y-104391900D01*
X139496900Y-105165050D02*
X139496900Y-107784551D01*
X139498100Y-107786600D02*
X139497500Y-107786000D01*
X140673200Y-103215600D02*
X140631750Y-103215600D01*
X140043599Y-103845199D02*
X140560990Y-103327809D01*
X140590300Y-95631000D02*
X140590300Y-103174150D01*
%TO.N,3V3_D*%
X160628783Y-103403916D02*
X161024700Y-103008000D01*
X160091995Y-103608200D02*
X160135600Y-103608200D01*
X159499800Y-103016004D02*
X159499800Y-101637663D01*
X160525150Y-99162250D02*
X161550500Y-98136900D01*
%TO.N,SPI_MISO*%
X161135000Y-100548300D02*
X162516050Y-99167250D01*
X168034000Y-97786200D02*
X165850199Y-97786200D01*
%TO.N,SPI_CS*%
X164858519Y-103213400D02*
X168131000Y-103213400D01*
X163893800Y-102813800D02*
X163494200Y-102414200D01*
%TO.N,EEG_START*%
X155785100Y-103310400D02*
X155785100Y-102446600D01*
X162593400Y-94774500D02*
X156395898Y-100972001D01*
%TO.N,EEG_RESET*%
X163766900Y-89812900D02*
X163766900Y-94558736D01*
X160995388Y-99584210D02*
X162173107Y-98406492D01*
X160101500Y-101742250D02*
X160101500Y-103006400D01*
%TO.N,SPI_MOSI*%
X169150600Y-105500600D02*
X167925000Y-106726200D01*
X170376200Y-102541739D02*
X170376200Y-99586000D01*
%TO.N,SPI_SCK*%
X167931000Y-102350700D02*
X167655600Y-102075300D01*
X166990725Y-101799900D02*
X165292700Y-101799900D01*
X161729114Y-103275985D02*
X160202334Y-104802765D01*
X159289000Y-107007750D02*
X159289000Y-108299400D01*
%TD*%
%TA.AperFunction,Conductor*%
%TO.N,GND*%
G36*
X148629662Y-85977685D02*
G01*
X148675417Y-86030489D01*
X148685361Y-86099647D01*
X148662941Y-86154886D01*
X148598768Y-86243211D01*
X148520128Y-86397552D01*
X148466597Y-86562302D01*
X148439500Y-86733389D01*
X148439500Y-86906611D01*
X148466598Y-87077701D01*
X148520127Y-87242445D01*
X148598768Y-87396788D01*
X148700586Y-87536928D01*
X148823072Y-87659414D01*
X148928177Y-87735777D01*
X148963213Y-87761233D01*
X149110929Y-87836497D01*
X149117555Y-87839873D01*
X149143602Y-87848336D01*
X149196117Y-87865399D01*
X149253793Y-87904835D01*
X149280992Y-87969194D01*
X149281800Y-87983330D01*
X149281800Y-92376789D01*
X149262115Y-92443828D01*
X149209311Y-92489583D01*
X149140153Y-92499527D01*
X149125709Y-92496564D01*
X149103079Y-92490500D01*
X149103075Y-92490500D01*
X148958125Y-92490500D01*
X148829593Y-92524940D01*
X148818111Y-92528017D01*
X148692588Y-92600488D01*
X148692582Y-92600493D01*
X148590093Y-92702982D01*
X148590088Y-92702988D01*
X148517617Y-92828511D01*
X148515194Y-92837555D01*
X148480100Y-92968525D01*
X148480100Y-93113475D01*
X148517616Y-93253485D01*
X148517617Y-93253488D01*
X148590088Y-93379011D01*
X148590093Y-93379017D01*
X148643781Y-93432705D01*
X148677266Y-93494028D01*
X148680100Y-93520386D01*
X148680100Y-93844438D01*
X148660415Y-93911477D01*
X148607611Y-93957232D01*
X148538453Y-93967176D01*
X148474897Y-93938151D01*
X148437123Y-93879373D01*
X148436338Y-93876578D01*
X148417484Y-93806215D01*
X148369392Y-93722918D01*
X148345011Y-93680688D01*
X148345006Y-93680682D01*
X148242517Y-93578193D01*
X148242511Y-93578188D01*
X148116988Y-93505717D01*
X148116989Y-93505717D01*
X148073365Y-93494028D01*
X147976975Y-93468200D01*
X147832025Y-93468200D01*
X147735635Y-93494028D01*
X147692011Y-93505717D01*
X147566488Y-93578188D01*
X147566482Y-93578193D01*
X147463993Y-93680682D01*
X147463988Y-93680688D01*
X147391517Y-93806211D01*
X147391516Y-93806215D01*
X147354000Y-93946225D01*
X147354000Y-94091175D01*
X147380483Y-94190010D01*
X147391517Y-94231188D01*
X147463988Y-94356711D01*
X147463993Y-94356717D01*
X147517681Y-94410405D01*
X147551166Y-94471728D01*
X147554000Y-94498086D01*
X147554000Y-96192429D01*
X147582358Y-96444109D01*
X147582360Y-96444126D01*
X147628025Y-96644198D01*
X147623752Y-96713937D01*
X147582453Y-96770294D01*
X147517241Y-96795377D01*
X147448820Y-96781222D01*
X147419453Y-96759471D01*
X145150414Y-94490432D01*
X145145635Y-94485378D01*
X145101944Y-94436488D01*
X144966551Y-94284983D01*
X144957892Y-94274123D01*
X144804401Y-94057798D01*
X144797014Y-94046043D01*
X144668697Y-93813872D01*
X144662668Y-93801350D01*
X144561166Y-93556301D01*
X144556573Y-93543177D01*
X144483143Y-93288296D01*
X144480049Y-93274739D01*
X144452649Y-93113475D01*
X144435617Y-93013236D01*
X144434063Y-92999437D01*
X144418995Y-92731121D01*
X144418800Y-92724169D01*
X144418800Y-92030686D01*
X144438485Y-91963647D01*
X144455119Y-91943005D01*
X144508809Y-91889315D01*
X144581284Y-91763785D01*
X144618800Y-91623775D01*
X144618800Y-91478825D01*
X144581284Y-91338815D01*
X144565619Y-91311683D01*
X144508811Y-91213288D01*
X144508806Y-91213282D01*
X144469494Y-91173970D01*
X144461158Y-91158704D01*
X144448770Y-91146492D01*
X144444760Y-91128674D01*
X144436009Y-91112647D01*
X144437249Y-91095296D01*
X144433431Y-91078326D01*
X144439690Y-91061171D01*
X144440993Y-91042955D01*
X144451417Y-91029029D01*
X144457380Y-91012689D01*
X144471921Y-91001640D01*
X144482865Y-90987022D01*
X144499336Y-90980811D01*
X144513013Y-90970420D01*
X144547446Y-90962671D01*
X144624813Y-90956582D01*
X144634542Y-90956200D01*
X144685180Y-90956200D01*
X146698314Y-90956200D01*
X146765353Y-90975885D01*
X146785995Y-90992519D01*
X146839685Y-91046209D01*
X146839686Y-91046210D01*
X146839688Y-91046211D01*
X146965211Y-91118682D01*
X146965212Y-91118682D01*
X146965215Y-91118684D01*
X147105225Y-91156200D01*
X147105228Y-91156200D01*
X147250172Y-91156200D01*
X147250175Y-91156200D01*
X147390185Y-91118684D01*
X147515715Y-91046209D01*
X147618209Y-90943715D01*
X147690684Y-90818185D01*
X147728200Y-90678175D01*
X147728200Y-90533225D01*
X147690684Y-90393215D01*
X147681230Y-90376841D01*
X147618211Y-90267688D01*
X147618206Y-90267682D01*
X147515717Y-90165193D01*
X147515711Y-90165188D01*
X147390188Y-90092717D01*
X147390189Y-90092717D01*
X147378706Y-90089640D01*
X147250175Y-90055200D01*
X147105225Y-90055200D01*
X146976693Y-90089640D01*
X146965211Y-90092717D01*
X146839688Y-90165188D01*
X146839682Y-90165193D01*
X146785995Y-90218881D01*
X146724672Y-90252366D01*
X146698314Y-90255200D01*
X144528483Y-90255200D01*
X144327850Y-90281613D01*
X144132374Y-90333991D01*
X143945419Y-90411429D01*
X143945403Y-90411437D01*
X143770163Y-90512613D01*
X143770147Y-90512624D01*
X143609608Y-90635810D01*
X143609602Y-90635815D01*
X143577315Y-90668104D01*
X143577314Y-90668105D01*
X143538060Y-90707359D01*
X143509819Y-90735600D01*
X143466509Y-90778909D01*
X143343324Y-90939447D01*
X143343313Y-90939463D01*
X143242137Y-91114703D01*
X143242129Y-91114719D01*
X143164691Y-91301674D01*
X143112313Y-91497150D01*
X143085900Y-91697783D01*
X143085900Y-92739967D01*
X143118748Y-93073500D01*
X143184126Y-93402184D01*
X143184129Y-93402195D01*
X143281419Y-93722918D01*
X143409674Y-94032551D01*
X143409676Y-94032556D01*
X143567651Y-94328107D01*
X143567662Y-94328125D01*
X143753848Y-94606771D01*
X143753858Y-94606785D01*
X143903814Y-94789507D01*
X143966467Y-94865849D01*
X144052329Y-94951711D01*
X146436619Y-97336001D01*
X148631654Y-99531035D01*
X148665139Y-99592358D01*
X148660155Y-99662050D01*
X148618283Y-99717983D01*
X148576069Y-99738489D01*
X148517201Y-99754263D01*
X148509911Y-99756217D01*
X148384388Y-99828688D01*
X148384382Y-99828693D01*
X148330695Y-99882381D01*
X148269372Y-99915866D01*
X148243014Y-99918700D01*
X144305310Y-99918700D01*
X144238271Y-99899015D01*
X144197923Y-99856700D01*
X144129211Y-99737688D01*
X144129206Y-99737682D01*
X144026717Y-99635193D01*
X144026711Y-99635188D01*
X143901188Y-99562717D01*
X143901189Y-99562717D01*
X143889706Y-99559640D01*
X143761175Y-99525200D01*
X143616225Y-99525200D01*
X143601962Y-99529022D01*
X143596957Y-99530363D01*
X143574908Y-99529838D01*
X143553260Y-99534044D01*
X143540663Y-99529022D01*
X143527107Y-99528700D01*
X143508842Y-99516337D01*
X143488357Y-99508172D01*
X143480475Y-99497138D01*
X143469244Y-99489537D01*
X143460562Y-99469262D01*
X143447744Y-99451318D01*
X143443479Y-99429368D01*
X143441741Y-99425308D01*
X143441013Y-99416672D01*
X143440935Y-99415091D01*
X143437649Y-99348187D01*
X143437500Y-99342103D01*
X143437500Y-97949404D01*
X143457185Y-97882365D01*
X143499500Y-97842017D01*
X143545415Y-97815509D01*
X143647909Y-97713015D01*
X143720384Y-97587485D01*
X143757900Y-97447475D01*
X143757900Y-97302525D01*
X143720384Y-97162515D01*
X143717975Y-97158343D01*
X143647911Y-97036988D01*
X143647906Y-97036982D01*
X143545417Y-96934493D01*
X143545411Y-96934488D01*
X143419888Y-96862017D01*
X143419889Y-96862017D01*
X143400057Y-96856703D01*
X143279875Y-96824500D01*
X143134925Y-96824500D01*
X143014743Y-96856703D01*
X142994911Y-96862017D01*
X142869388Y-96934488D01*
X142869382Y-96934493D01*
X142766893Y-97036982D01*
X142766888Y-97036988D01*
X142694417Y-97162511D01*
X142694416Y-97162515D01*
X142656900Y-97302525D01*
X142656900Y-97447475D01*
X142694416Y-97587485D01*
X142719887Y-97631601D01*
X142736500Y-97693602D01*
X142736500Y-99510691D01*
X142765354Y-99840498D01*
X142765354Y-99840502D01*
X142822840Y-100166517D01*
X142822845Y-100166542D01*
X142833657Y-100206893D01*
X142833067Y-100231673D01*
X142836682Y-100256195D01*
X142832249Y-100265992D01*
X142831994Y-100276743D01*
X142818100Y-100297270D01*
X142807884Y-100319854D01*
X142798858Y-100325700D01*
X142792831Y-100334605D01*
X142770047Y-100344361D01*
X142749241Y-100357838D01*
X142738486Y-100357876D01*
X142728602Y-100362109D01*
X142704159Y-100357998D01*
X142679372Y-100358087D01*
X142670304Y-100352305D01*
X142659700Y-100350522D01*
X142641359Y-100333849D01*
X142620460Y-100320523D01*
X142611522Y-100306725D01*
X142608000Y-100303523D01*
X142601272Y-100290900D01*
X142585273Y-100256195D01*
X142498372Y-100067693D01*
X142494657Y-100058722D01*
X142365945Y-99709832D01*
X142362938Y-99700576D01*
X142351064Y-99658475D01*
X142262001Y-99342681D01*
X142259729Y-99333217D01*
X142252343Y-99296087D01*
X142187183Y-98968501D01*
X142185661Y-98958890D01*
X142141951Y-98589594D01*
X142141190Y-98579924D01*
X142126496Y-98205911D01*
X142126400Y-98201043D01*
X142126400Y-96440049D01*
X142126399Y-96440039D01*
X142126399Y-96381210D01*
X142126399Y-96381204D01*
X142095224Y-96144404D01*
X142033406Y-95913699D01*
X142022186Y-95886611D01*
X141942010Y-95693047D01*
X141942003Y-95693032D01*
X141822583Y-95486191D01*
X141677186Y-95296705D01*
X141677181Y-95296699D01*
X141632441Y-95251960D01*
X141632438Y-95251956D01*
X141322082Y-94941600D01*
X141180914Y-94839034D01*
X141025442Y-94759817D01*
X141025441Y-94759816D01*
X141025440Y-94759816D01*
X140859488Y-94705895D01*
X140687149Y-94678599D01*
X140687144Y-94678599D01*
X140599900Y-94678599D01*
X140512656Y-94678599D01*
X140512651Y-94678599D01*
X140340311Y-94705895D01*
X140340308Y-94705895D01*
X140174361Y-94759814D01*
X140174358Y-94759815D01*
X140018884Y-94839034D01*
X139877716Y-94941600D01*
X139877715Y-94941601D01*
X139861142Y-94958175D01*
X139848656Y-94970661D01*
X139267814Y-95551502D01*
X139267812Y-95551504D01*
X139228558Y-95590758D01*
X139174465Y-95644850D01*
X139120373Y-95698942D01*
X138926258Y-95935471D01*
X138926241Y-95935494D01*
X138756264Y-96189884D01*
X138756247Y-96189912D01*
X138612013Y-96459754D01*
X138612011Y-96459759D01*
X138494912Y-96742460D01*
X138406085Y-97035283D01*
X138346390Y-97335401D01*
X138324762Y-97555004D01*
X138317219Y-97631601D01*
X138316400Y-97639913D01*
X138316400Y-100109614D01*
X138296715Y-100176653D01*
X138280081Y-100197295D01*
X138226393Y-100250982D01*
X138226388Y-100250988D01*
X138153917Y-100376511D01*
X138153916Y-100376515D01*
X138116400Y-100516525D01*
X138116400Y-100661475D01*
X138153916Y-100801485D01*
X138153917Y-100801488D01*
X138226388Y-100927011D01*
X138226390Y-100927013D01*
X138226391Y-100927015D01*
X138328885Y-101029509D01*
X138328886Y-101029510D01*
X138328888Y-101029511D01*
X138454411Y-101101982D01*
X138454412Y-101101982D01*
X138454415Y-101101984D01*
X138594425Y-101139500D01*
X138594428Y-101139500D01*
X138739372Y-101139500D01*
X138739375Y-101139500D01*
X138879385Y-101101984D01*
X139004915Y-101029509D01*
X139107409Y-100927015D01*
X139179884Y-100801485D01*
X139217400Y-100661475D01*
X139217400Y-100516525D01*
X139179884Y-100376515D01*
X139165906Y-100352305D01*
X139107411Y-100250988D01*
X139107406Y-100250982D01*
X139053719Y-100197295D01*
X139020234Y-100135972D01*
X139017400Y-100109614D01*
X139017400Y-97796384D01*
X139017595Y-97789432D01*
X139021846Y-97713727D01*
X139032184Y-97529641D01*
X139033738Y-97515845D01*
X139076740Y-97262755D01*
X139079833Y-97249203D01*
X139082308Y-97240615D01*
X139150900Y-97002523D01*
X139155493Y-96989401D01*
X139157107Y-96985504D01*
X139253726Y-96752243D01*
X139259757Y-96739719D01*
X139383934Y-96515038D01*
X139391329Y-96503270D01*
X139395318Y-96497648D01*
X139539888Y-96293894D01*
X139548539Y-96283047D01*
X139721937Y-96089016D01*
X139726662Y-96084017D01*
X139763494Y-96047186D01*
X139763493Y-96047186D01*
X139922742Y-95887936D01*
X139984063Y-95854453D01*
X140053755Y-95859437D01*
X140109688Y-95901309D01*
X140117808Y-95913619D01*
X140149791Y-95969015D01*
X140149793Y-95969017D01*
X140203481Y-96022705D01*
X140236966Y-96084028D01*
X140239800Y-96110386D01*
X140239800Y-102832046D01*
X140223187Y-102894046D01*
X140160217Y-103003111D01*
X140160216Y-103003115D01*
X140122700Y-103143125D01*
X140122700Y-103143127D01*
X140122700Y-103219054D01*
X140103015Y-103286093D01*
X140086381Y-103306735D01*
X139835011Y-103558105D01*
X139798630Y-103594485D01*
X139792709Y-103600031D01*
X139652771Y-103722754D01*
X139639902Y-103732628D01*
X139488530Y-103833771D01*
X139474484Y-103841881D01*
X139311204Y-103922402D01*
X139296219Y-103928609D01*
X139123826Y-103987129D01*
X139108159Y-103991327D01*
X138929611Y-104026843D01*
X138913529Y-104028960D01*
X138727792Y-104041134D01*
X138719682Y-104041400D01*
X138102452Y-104041400D01*
X138096367Y-104041251D01*
X137809140Y-104027139D01*
X137797030Y-104025946D01*
X137515597Y-103984199D01*
X137503663Y-103981825D01*
X137227666Y-103912692D01*
X137216021Y-103909159D01*
X136948153Y-103813314D01*
X136936910Y-103808658D01*
X136781291Y-103735056D01*
X136679693Y-103687004D01*
X136668970Y-103681271D01*
X136452310Y-103551411D01*
X136424938Y-103535005D01*
X136414820Y-103528245D01*
X136186286Y-103358752D01*
X136176880Y-103351032D01*
X135963811Y-103157918D01*
X135959403Y-103153721D01*
X129158652Y-96352970D01*
X129125167Y-96291647D01*
X129128402Y-96226971D01*
X129129873Y-96222445D01*
X129183402Y-96057701D01*
X129210500Y-95886611D01*
X129210500Y-95713389D01*
X129183402Y-95542299D01*
X129129873Y-95377555D01*
X129051232Y-95223212D01*
X128949414Y-95083072D01*
X128826928Y-94960586D01*
X128686788Y-94858768D01*
X128541895Y-94784942D01*
X128532447Y-94780128D01*
X128532446Y-94780127D01*
X128532445Y-94780127D01*
X128367701Y-94726598D01*
X128367699Y-94726597D01*
X128367698Y-94726597D01*
X128236271Y-94705781D01*
X128196611Y-94699500D01*
X128023389Y-94699500D01*
X127983728Y-94705781D01*
X127852302Y-94726597D01*
X127852299Y-94726598D01*
X127750072Y-94759814D01*
X127687552Y-94780128D01*
X127533211Y-94858768D01*
X127453256Y-94916859D01*
X127393072Y-94960586D01*
X127393070Y-94960588D01*
X127393069Y-94960588D01*
X127270588Y-95083069D01*
X127270588Y-95083070D01*
X127270586Y-95083072D01*
X127249193Y-95112517D01*
X127168768Y-95223211D01*
X127090128Y-95377552D01*
X127036597Y-95542302D01*
X127028049Y-95596274D01*
X127009500Y-95713389D01*
X127009500Y-95886611D01*
X127011828Y-95901309D01*
X127034932Y-96047186D01*
X127036598Y-96057701D01*
X127090127Y-96222445D01*
X127168768Y-96376788D01*
X127270586Y-96516928D01*
X127393072Y-96639414D01*
X127533212Y-96741232D01*
X127687555Y-96819873D01*
X127852299Y-96873402D01*
X128023389Y-96900500D01*
X128023390Y-96900500D01*
X128196610Y-96900500D01*
X128196611Y-96900500D01*
X128367701Y-96873402D01*
X128532445Y-96819873D01*
X128532447Y-96819871D01*
X128536971Y-96818402D01*
X128606812Y-96816407D01*
X128662970Y-96848652D01*
X135580840Y-103766522D01*
X135580851Y-103766532D01*
X135580860Y-103766541D01*
X135670647Y-103841881D01*
X135829989Y-103975586D01*
X136096377Y-104162113D01*
X136096384Y-104162117D01*
X136096395Y-104162125D01*
X136298553Y-104278841D01*
X136378035Y-104324730D01*
X136378050Y-104324738D01*
X136672794Y-104462179D01*
X136833031Y-104520500D01*
X136978395Y-104573408D01*
X136978396Y-104573408D01*
X136978401Y-104573410D01*
X137075368Y-104599392D01*
X137292532Y-104657581D01*
X137612810Y-104714055D01*
X137936788Y-104742399D01*
X137936789Y-104742400D01*
X137936790Y-104742400D01*
X138053256Y-104742400D01*
X138668235Y-104742400D01*
X138668236Y-104742400D01*
X138715623Y-104742400D01*
X138731807Y-104743461D01*
X138779274Y-104749709D01*
X138816954Y-104754670D01*
X138848220Y-104763047D01*
X138919990Y-104792775D01*
X138948024Y-104808961D01*
X139009658Y-104856255D01*
X139032547Y-104879144D01*
X139079836Y-104940773D01*
X139096021Y-104968806D01*
X139125750Y-105040578D01*
X139134128Y-105071844D01*
X139145339Y-105156990D01*
X139146400Y-105173177D01*
X139146400Y-107308414D01*
X139126715Y-107375453D01*
X139110081Y-107396095D01*
X139057593Y-107448582D01*
X139057588Y-107448588D01*
X138985117Y-107574111D01*
X138985116Y-107574115D01*
X138947600Y-107714125D01*
X138947600Y-107859075D01*
X138975015Y-107961388D01*
X138985117Y-107999088D01*
X139057588Y-108124611D01*
X139057590Y-108124613D01*
X139057591Y-108124615D01*
X139160085Y-108227109D01*
X139160086Y-108227110D01*
X139160088Y-108227111D01*
X139285611Y-108299582D01*
X139285612Y-108299582D01*
X139285615Y-108299584D01*
X139425625Y-108337100D01*
X139425628Y-108337100D01*
X139570572Y-108337100D01*
X139570575Y-108337100D01*
X139710585Y-108299584D01*
X139836115Y-108227109D01*
X139938609Y-108124615D01*
X140011084Y-107999085D01*
X140048600Y-107859075D01*
X140048600Y-107714125D01*
X140011084Y-107574115D01*
X140002223Y-107558768D01*
X139938611Y-107448588D01*
X139938606Y-107448582D01*
X139883719Y-107393695D01*
X139850234Y-107332372D01*
X139847400Y-107306014D01*
X139847400Y-105169116D01*
X139847665Y-105161007D01*
X139853509Y-105071844D01*
X139859839Y-104975256D01*
X139861954Y-104959200D01*
X139897474Y-104780627D01*
X139901667Y-104764980D01*
X139960192Y-104592567D01*
X139966389Y-104577607D01*
X140046921Y-104414303D01*
X140055025Y-104400268D01*
X140156171Y-104248892D01*
X140166037Y-104236033D01*
X140288781Y-104096071D01*
X140294299Y-104090180D01*
X140330694Y-104053786D01*
X140330695Y-104053785D01*
X140455871Y-103928609D01*
X140582062Y-103802419D01*
X140643385Y-103768934D01*
X140669743Y-103766100D01*
X140745672Y-103766100D01*
X140745675Y-103766100D01*
X140885685Y-103728584D01*
X141011215Y-103656109D01*
X141113709Y-103553615D01*
X141186184Y-103428085D01*
X141223700Y-103288075D01*
X141223700Y-103143125D01*
X141186184Y-103003115D01*
X141182700Y-102997081D01*
X141113711Y-102877588D01*
X141113710Y-102877587D01*
X141113709Y-102877585D01*
X141011215Y-102775091D01*
X141011214Y-102775090D01*
X141011213Y-102775089D01*
X141002797Y-102770230D01*
X140954583Y-102719662D01*
X140940800Y-102662845D01*
X140940800Y-96110386D01*
X140945388Y-96094761D01*
X140944975Y-96078480D01*
X140955563Y-96060106D01*
X140960485Y-96043347D01*
X140970199Y-96034710D01*
X140977119Y-96022705D01*
X140999117Y-96000707D01*
X141030809Y-95969015D01*
X141052002Y-95932306D01*
X141102566Y-95884093D01*
X141171173Y-95870869D01*
X141236038Y-95896836D01*
X141265116Y-95929519D01*
X141298116Y-95983371D01*
X141306949Y-96000707D01*
X141366798Y-96145193D01*
X141372811Y-96163699D01*
X141409319Y-96315768D01*
X141412363Y-96334985D01*
X141425018Y-96495770D01*
X141425400Y-96505500D01*
X141425400Y-98421963D01*
X141459684Y-98857590D01*
X141459684Y-98857591D01*
X141528042Y-99289186D01*
X141602943Y-99601169D01*
X141630054Y-99714095D01*
X141667289Y-99828693D01*
X141765085Y-100129681D01*
X141857299Y-100352305D01*
X141932312Y-100533403D01*
X142129960Y-100921307D01*
X142130700Y-100922759D01*
X142130706Y-100922770D01*
X142276506Y-101160693D01*
X142359018Y-101295341D01*
X142426858Y-101388715D01*
X142615862Y-101648856D01*
X142615873Y-101648870D01*
X142756638Y-101813685D01*
X142899663Y-101981146D01*
X143021530Y-102103012D01*
X143638180Y-102719662D01*
X144248050Y-103329531D01*
X144248054Y-103329536D01*
X144294373Y-103375856D01*
X144294374Y-103375856D01*
X144294375Y-103375857D01*
X144355857Y-103437338D01*
X144493817Y-103543199D01*
X144493824Y-103543203D01*
X144644407Y-103630143D01*
X144644423Y-103630151D01*
X144716581Y-103660039D01*
X144805074Y-103696694D01*
X144973044Y-103741702D01*
X145145452Y-103764400D01*
X145145459Y-103764400D01*
X145170275Y-103764400D01*
X145237314Y-103784085D01*
X145283069Y-103836889D01*
X145293013Y-103906047D01*
X145263988Y-103969603D01*
X145243161Y-103988718D01*
X145126175Y-104073713D01*
X144835804Y-104321713D01*
X144835802Y-104321715D01*
X144715983Y-104441533D01*
X144715981Y-104441535D01*
X141032972Y-108124545D01*
X141032971Y-108124546D01*
X140995629Y-108161887D01*
X140991722Y-108165627D01*
X140736652Y-108399355D01*
X140728366Y-108406309D01*
X140456042Y-108615271D01*
X140447180Y-108621476D01*
X140157669Y-108805915D01*
X140148301Y-108811323D01*
X139843836Y-108969818D01*
X139834032Y-108974390D01*
X139516898Y-109105751D01*
X139506733Y-109109451D01*
X139179365Y-109212670D01*
X139168915Y-109215470D01*
X138833786Y-109289766D01*
X138823133Y-109291644D01*
X138482818Y-109336448D01*
X138472042Y-109337391D01*
X138126403Y-109352482D01*
X138120994Y-109352600D01*
X136776686Y-109352600D01*
X136709647Y-109332915D01*
X136689005Y-109316281D01*
X136635317Y-109262593D01*
X136635311Y-109262588D01*
X136509788Y-109190117D01*
X136509789Y-109190117D01*
X136498306Y-109187040D01*
X136369775Y-109152600D01*
X136224825Y-109152600D01*
X136096293Y-109187040D01*
X136084811Y-109190117D01*
X135959288Y-109262588D01*
X135959282Y-109262593D01*
X135856793Y-109365082D01*
X135856788Y-109365088D01*
X135784317Y-109490611D01*
X135784316Y-109490615D01*
X135746800Y-109630625D01*
X135746800Y-109775575D01*
X135776445Y-109886210D01*
X135784317Y-109915588D01*
X135856788Y-110041111D01*
X135856790Y-110041113D01*
X135856791Y-110041115D01*
X135959285Y-110143609D01*
X135959286Y-110143610D01*
X135959288Y-110143611D01*
X136084811Y-110216082D01*
X136084812Y-110216082D01*
X136084815Y-110216084D01*
X136224825Y-110253600D01*
X136224828Y-110253600D01*
X136369772Y-110253600D01*
X136369775Y-110253600D01*
X136509785Y-110216084D01*
X136635315Y-110143609D01*
X136689005Y-110089919D01*
X136750328Y-110056434D01*
X136776686Y-110053600D01*
X138221198Y-110053600D01*
X138221207Y-110053599D01*
X138310706Y-110053599D01*
X138310714Y-110053599D01*
X138683588Y-110024253D01*
X139053011Y-109965742D01*
X139416704Y-109878427D01*
X139772425Y-109762846D01*
X140117982Y-109619712D01*
X140451243Y-109449907D01*
X140770153Y-109254478D01*
X141072748Y-109034631D01*
X141357161Y-108791719D01*
X141489400Y-108659481D01*
X141528654Y-108620227D01*
X145194587Y-104954293D01*
X145198449Y-104950596D01*
X145459964Y-104710961D01*
X145468233Y-104704023D01*
X145747478Y-104489751D01*
X145756318Y-104483561D01*
X146053186Y-104294435D01*
X146062531Y-104289040D01*
X146374742Y-104126513D01*
X146384519Y-104121954D01*
X146709699Y-103987261D01*
X146719849Y-103983566D01*
X147055545Y-103877721D01*
X147065965Y-103874929D01*
X147409607Y-103798745D01*
X147420241Y-103796870D01*
X147769214Y-103750927D01*
X147779943Y-103749988D01*
X148123167Y-103735003D01*
X148134298Y-103734518D01*
X148139706Y-103734400D01*
X148192514Y-103734400D01*
X149525314Y-103734400D01*
X149592353Y-103754085D01*
X149612995Y-103770719D01*
X149666685Y-103824409D01*
X149666686Y-103824410D01*
X149666688Y-103824411D01*
X149792211Y-103896882D01*
X149792212Y-103896882D01*
X149792215Y-103896884D01*
X149932225Y-103934400D01*
X149932228Y-103934400D01*
X150077172Y-103934400D01*
X150077175Y-103934400D01*
X150217185Y-103896884D01*
X150342715Y-103824409D01*
X150445209Y-103721915D01*
X150517684Y-103596385D01*
X150555200Y-103456375D01*
X150555200Y-103311425D01*
X150517684Y-103171415D01*
X150509891Y-103157918D01*
X150445211Y-103045888D01*
X150445206Y-103045882D01*
X150342717Y-102943393D01*
X150342711Y-102943388D01*
X150217188Y-102870917D01*
X150217189Y-102870917D01*
X150187269Y-102862900D01*
X150077175Y-102833400D01*
X149932225Y-102833400D01*
X149822131Y-102862900D01*
X149792211Y-102870917D01*
X149666688Y-102943388D01*
X149666682Y-102943393D01*
X149612995Y-102997081D01*
X149551672Y-103030566D01*
X149525314Y-103033400D01*
X147946063Y-103033400D01*
X147565392Y-103063360D01*
X147565373Y-103063362D01*
X147188227Y-103123096D01*
X147188224Y-103123096D01*
X147188222Y-103123097D01*
X147104791Y-103143127D01*
X146816921Y-103212238D01*
X146816915Y-103212239D01*
X146816910Y-103212241D01*
X146816897Y-103212244D01*
X146816891Y-103212247D01*
X146592848Y-103285042D01*
X146523007Y-103287037D01*
X146463175Y-103250956D01*
X146432347Y-103188255D01*
X146440312Y-103118841D01*
X146466848Y-103079432D01*
X147361392Y-102184887D01*
X147367285Y-102179367D01*
X147512110Y-102052361D01*
X147524954Y-102042505D01*
X147681727Y-101937753D01*
X147695762Y-101929650D01*
X147864866Y-101846257D01*
X147879831Y-101840059D01*
X148055243Y-101780515D01*
X148058363Y-101779456D01*
X148074024Y-101775259D01*
X148258944Y-101738476D01*
X148274994Y-101736362D01*
X148451530Y-101724792D01*
X148467207Y-101723765D01*
X148475316Y-101723500D01*
X148526763Y-101723500D01*
X148785514Y-101723500D01*
X148852553Y-101743185D01*
X148873195Y-101759819D01*
X148926885Y-101813509D01*
X148926886Y-101813510D01*
X148926888Y-101813511D01*
X149052411Y-101885982D01*
X149052412Y-101885982D01*
X149052415Y-101885984D01*
X149192425Y-101923500D01*
X149192428Y-101923500D01*
X149337372Y-101923500D01*
X149337375Y-101923500D01*
X149477385Y-101885984D01*
X149602915Y-101813509D01*
X149705409Y-101711015D01*
X149734334Y-101660914D01*
X149784899Y-101612701D01*
X149853506Y-101599477D01*
X149918371Y-101625445D01*
X149958900Y-101682359D01*
X149961491Y-101690811D01*
X149994416Y-101813685D01*
X149994417Y-101813688D01*
X150066888Y-101939211D01*
X150066890Y-101939213D01*
X150066891Y-101939215D01*
X150169385Y-102041709D01*
X150169386Y-102041710D01*
X150169388Y-102041711D01*
X150294911Y-102114182D01*
X150294912Y-102114182D01*
X150294915Y-102114184D01*
X150434925Y-102151700D01*
X150434928Y-102151700D01*
X150579872Y-102151700D01*
X150579875Y-102151700D01*
X150719885Y-102114184D01*
X150845415Y-102041709D01*
X150947909Y-101939215D01*
X151020384Y-101813685D01*
X151057900Y-101673675D01*
X151057900Y-101528725D01*
X151020384Y-101388715D01*
X151003656Y-101359742D01*
X150947911Y-101263188D01*
X150947906Y-101263182D01*
X150845417Y-101160693D01*
X150845411Y-101160688D01*
X150719888Y-101088217D01*
X150719889Y-101088217D01*
X150706629Y-101084664D01*
X150579875Y-101050700D01*
X150579872Y-101050700D01*
X150503943Y-101050700D01*
X150474502Y-101042055D01*
X150444516Y-101035532D01*
X150439500Y-101031777D01*
X150436904Y-101031015D01*
X150416262Y-101014381D01*
X150350462Y-100948581D01*
X150316977Y-100887258D01*
X150321961Y-100817566D01*
X150363833Y-100761633D01*
X150429297Y-100737216D01*
X150438143Y-100736900D01*
X150513972Y-100736900D01*
X150513975Y-100736900D01*
X150653985Y-100699384D01*
X150779515Y-100626909D01*
X150882009Y-100524415D01*
X150954484Y-100398885D01*
X150992000Y-100258875D01*
X150992000Y-100113925D01*
X150954484Y-99973915D01*
X150925675Y-99924017D01*
X150882011Y-99848388D01*
X150882006Y-99848382D01*
X150779517Y-99745893D01*
X150779511Y-99745888D01*
X150653988Y-99673417D01*
X150653989Y-99673417D01*
X150642506Y-99670340D01*
X150513975Y-99635900D01*
X150369025Y-99635900D01*
X150369024Y-99635900D01*
X150365012Y-99636428D01*
X150361627Y-99635900D01*
X150360898Y-99635900D01*
X150360898Y-99635786D01*
X150295977Y-99625659D01*
X150261151Y-99601169D01*
X149290327Y-98630345D01*
X149278976Y-98609558D01*
X149263930Y-98591266D01*
X149262540Y-98579457D01*
X149256842Y-98569022D01*
X149258531Y-98545397D01*
X149255763Y-98521875D01*
X149260977Y-98511190D01*
X149261826Y-98499330D01*
X149276019Y-98480369D01*
X149286408Y-98459085D01*
X149300346Y-98447873D01*
X149303698Y-98443397D01*
X149313666Y-98436664D01*
X149314831Y-98435956D01*
X149358215Y-98410909D01*
X149361487Y-98407636D01*
X149372017Y-98401245D01*
X149399503Y-98393934D01*
X149426038Y-98383675D01*
X149432835Y-98385068D01*
X149439539Y-98383286D01*
X149466613Y-98391995D01*
X149494483Y-98397711D01*
X149502265Y-98403464D01*
X149506052Y-98404683D01*
X149509371Y-98408719D01*
X149524040Y-98419564D01*
X149593585Y-98489109D01*
X149593586Y-98489110D01*
X149593588Y-98489111D01*
X149719111Y-98561582D01*
X149719112Y-98561582D01*
X149719115Y-98561584D01*
X149859125Y-98599100D01*
X149859128Y-98599100D01*
X150004072Y-98599100D01*
X150004075Y-98599100D01*
X150144085Y-98561584D01*
X150269615Y-98489109D01*
X150372109Y-98386615D01*
X150444584Y-98261085D01*
X150482100Y-98121075D01*
X150482100Y-97976125D01*
X150444584Y-97836115D01*
X150435839Y-97820969D01*
X150372111Y-97710588D01*
X150372106Y-97710582D01*
X150269617Y-97608093D01*
X150269611Y-97608088D01*
X150144088Y-97535617D01*
X150144089Y-97535617D01*
X150121827Y-97529652D01*
X150004075Y-97498100D01*
X150004072Y-97498100D01*
X149945844Y-97498100D01*
X149916403Y-97489455D01*
X149886417Y-97482932D01*
X149881401Y-97479177D01*
X149878805Y-97478415D01*
X149858163Y-97461781D01*
X149732383Y-97336001D01*
X149725774Y-97328851D01*
X149614251Y-97198274D01*
X149602820Y-97182542D01*
X149515636Y-97040271D01*
X149506807Y-97022942D01*
X149470168Y-96934488D01*
X149442956Y-96868795D01*
X149436948Y-96850303D01*
X149397998Y-96688063D01*
X149394955Y-96668849D01*
X149394299Y-96660516D01*
X149381482Y-96497648D01*
X149381100Y-96487920D01*
X149381100Y-95269224D01*
X149400785Y-95202185D01*
X149453589Y-95156430D01*
X149522747Y-95146486D01*
X149586303Y-95175511D01*
X149619660Y-95221770D01*
X149774785Y-95596274D01*
X149967719Y-95974928D01*
X149967722Y-95974933D01*
X149967728Y-95974944D01*
X150189760Y-96337267D01*
X150189765Y-96337274D01*
X150189767Y-96337277D01*
X150278961Y-96460042D01*
X150439554Y-96681080D01*
X150439565Y-96681094D01*
X150637987Y-96913416D01*
X150715558Y-97004240D01*
X150833180Y-97121862D01*
X151203473Y-97492155D01*
X151568200Y-97856881D01*
X151568203Y-97856885D01*
X151575271Y-97863953D01*
X151614525Y-97903207D01*
X151713594Y-98002275D01*
X151930196Y-98180036D01*
X152163179Y-98335710D01*
X152163188Y-98335715D01*
X152163190Y-98335716D01*
X152410291Y-98467794D01*
X152410293Y-98467794D01*
X152410299Y-98467798D01*
X152536690Y-98520151D01*
X152669170Y-98575027D01*
X152669174Y-98575028D01*
X152669176Y-98575029D01*
X152937317Y-98656368D01*
X153212139Y-98711034D01*
X153490996Y-98738500D01*
X153491000Y-98738500D01*
X154372496Y-98738500D01*
X154372497Y-98738500D01*
X154576325Y-98706216D01*
X154772594Y-98642444D01*
X154956471Y-98548755D01*
X155123427Y-98427454D01*
X155128923Y-98421958D01*
X155138763Y-98412119D01*
X155200086Y-98378634D01*
X155226444Y-98375800D01*
X155302372Y-98375800D01*
X155302375Y-98375800D01*
X155442385Y-98338284D01*
X155567915Y-98265809D01*
X155657619Y-98176105D01*
X155718942Y-98142620D01*
X155788634Y-98147604D01*
X155844567Y-98189476D01*
X155868984Y-98254940D01*
X155869300Y-98263786D01*
X155869300Y-99093314D01*
X155849615Y-99160353D01*
X155832981Y-99180995D01*
X155779293Y-99234682D01*
X155779288Y-99234688D01*
X155706817Y-99360211D01*
X155706816Y-99360215D01*
X155669300Y-99500225D01*
X155669300Y-99645175D01*
X155696287Y-99745891D01*
X155706817Y-99785188D01*
X155733101Y-99830713D01*
X155749574Y-99898613D01*
X155726721Y-99964640D01*
X155671800Y-100007831D01*
X155657809Y-100012487D01*
X155572616Y-100035315D01*
X155572611Y-100035317D01*
X155447088Y-100107788D01*
X155447082Y-100107793D01*
X155344593Y-100210282D01*
X155344588Y-100210288D01*
X155272117Y-100335811D01*
X155272116Y-100335815D01*
X155234600Y-100475825D01*
X155234600Y-100620775D01*
X155272116Y-100760785D01*
X155272117Y-100760788D01*
X155344588Y-100886311D01*
X155344590Y-100886313D01*
X155344591Y-100886315D01*
X155447085Y-100988809D01*
X155572615Y-101061284D01*
X155659874Y-101084665D01*
X155719533Y-101121029D01*
X155750062Y-101183876D01*
X155741767Y-101253252D01*
X155736307Y-101264419D01*
X155735185Y-101266448D01*
X155616475Y-101512952D01*
X155526113Y-101771193D01*
X155526112Y-101771195D01*
X155465233Y-102037925D01*
X155465231Y-102037941D01*
X155434600Y-102309798D01*
X155434600Y-102831014D01*
X155414915Y-102898053D01*
X155398281Y-102918695D01*
X155344593Y-102972382D01*
X155344588Y-102972388D01*
X155272117Y-103097911D01*
X155272116Y-103097915D01*
X155234600Y-103237925D01*
X155234600Y-103382875D01*
X155268686Y-103510083D01*
X155272117Y-103522888D01*
X155344588Y-103648411D01*
X155344590Y-103648413D01*
X155344591Y-103648415D01*
X155447085Y-103750909D01*
X155447086Y-103750910D01*
X155447088Y-103750911D01*
X155572611Y-103823382D01*
X155572612Y-103823382D01*
X155572615Y-103823384D01*
X155712625Y-103860900D01*
X155712628Y-103860900D01*
X155857572Y-103860900D01*
X155857575Y-103860900D01*
X155997585Y-103823384D01*
X156123115Y-103750909D01*
X156225609Y-103648415D01*
X156298084Y-103522885D01*
X156335600Y-103382875D01*
X156335600Y-103237925D01*
X156298084Y-103097915D01*
X156293630Y-103090201D01*
X156225611Y-102972388D01*
X156225606Y-102972382D01*
X156171919Y-102918695D01*
X156138434Y-102857372D01*
X156135600Y-102831014D01*
X156135600Y-102450666D01*
X156135865Y-102442557D01*
X156137135Y-102423175D01*
X156149911Y-102228241D01*
X156152026Y-102212185D01*
X156193131Y-102005535D01*
X156197324Y-101989888D01*
X156265052Y-101790365D01*
X156271247Y-101775410D01*
X156364440Y-101586430D01*
X156372540Y-101572402D01*
X156489602Y-101397206D01*
X156499459Y-101384361D01*
X156641080Y-101222873D01*
X156646581Y-101216999D01*
X156682993Y-101180588D01*
X156682992Y-101180588D01*
X162502263Y-95361319D01*
X162563586Y-95327834D01*
X162589944Y-95325000D01*
X162665872Y-95325000D01*
X162665875Y-95325000D01*
X162805885Y-95287484D01*
X162931415Y-95215009D01*
X163033909Y-95112515D01*
X163106384Y-94986985D01*
X163143900Y-94846975D01*
X163143900Y-94702025D01*
X163106384Y-94562015D01*
X163105901Y-94561179D01*
X163033911Y-94436488D01*
X163033906Y-94436482D01*
X162931417Y-94333993D01*
X162931411Y-94333988D01*
X162805888Y-94261517D01*
X162805889Y-94261517D01*
X162794406Y-94258440D01*
X162665875Y-94224000D01*
X162520925Y-94224000D01*
X162392393Y-94258440D01*
X162380911Y-94261517D01*
X162255388Y-94333988D01*
X162255382Y-94333993D01*
X162152893Y-94436482D01*
X162152888Y-94436488D01*
X162080417Y-94562011D01*
X162080416Y-94562015D01*
X162042900Y-94702025D01*
X162042900Y-94702027D01*
X162042900Y-94777954D01*
X162023215Y-94844993D01*
X162006581Y-94865635D01*
X157696376Y-99175839D01*
X157635053Y-99209324D01*
X157565361Y-99204340D01*
X157509428Y-99162468D01*
X157485011Y-99097004D01*
X157485475Y-99074274D01*
X157485617Y-99073016D01*
X157510500Y-98852176D01*
X157510500Y-98730402D01*
X157510500Y-98674888D01*
X157510500Y-98674887D01*
X157510500Y-88044500D01*
X157530185Y-87977461D01*
X157582989Y-87931706D01*
X157634500Y-87920500D01*
X158034676Y-87920500D01*
X158034677Y-87920499D01*
X158107740Y-87905966D01*
X158190601Y-87850601D01*
X158245966Y-87767740D01*
X158260500Y-87694674D01*
X158260500Y-86082000D01*
X158280185Y-86014961D01*
X158332989Y-85969206D01*
X158384500Y-85958000D01*
X188298000Y-85958000D01*
X188365039Y-85977685D01*
X188410794Y-86030489D01*
X188422000Y-86082000D01*
X188422000Y-117778000D01*
X188402315Y-117845039D01*
X188349511Y-117890794D01*
X188298000Y-117902000D01*
X126162000Y-117902000D01*
X126094961Y-117882315D01*
X126049206Y-117829511D01*
X126038000Y-117778000D01*
X126038000Y-115245321D01*
X127009500Y-115245321D01*
X127009500Y-116994678D01*
X127024032Y-117067735D01*
X127024033Y-117067739D01*
X127024034Y-117067740D01*
X127079399Y-117150601D01*
X127162260Y-117205966D01*
X127162264Y-117205967D01*
X127235321Y-117220499D01*
X127235324Y-117220500D01*
X127235326Y-117220500D01*
X128984676Y-117220500D01*
X128984677Y-117220499D01*
X129057740Y-117205966D01*
X129140601Y-117150601D01*
X129195966Y-117067740D01*
X129210500Y-116994674D01*
X129210500Y-115245326D01*
X129210500Y-115245323D01*
X129210499Y-115245321D01*
X129195967Y-115172264D01*
X129195966Y-115172260D01*
X129140601Y-115089399D01*
X129057740Y-115034034D01*
X129057739Y-115034033D01*
X129057735Y-115034032D01*
X128984677Y-115019500D01*
X128984674Y-115019500D01*
X127235326Y-115019500D01*
X127235323Y-115019500D01*
X127162264Y-115034032D01*
X127162260Y-115034033D01*
X127079399Y-115089399D01*
X127024033Y-115172260D01*
X127024032Y-115172264D01*
X127009500Y-115245321D01*
X126038000Y-115245321D01*
X126038000Y-113493389D01*
X127009500Y-113493389D01*
X127009500Y-113666611D01*
X127036598Y-113837701D01*
X127090127Y-114002445D01*
X127168768Y-114156788D01*
X127270586Y-114296928D01*
X127393072Y-114419414D01*
X127533212Y-114521232D01*
X127687555Y-114599873D01*
X127852299Y-114653402D01*
X128023389Y-114680500D01*
X128023390Y-114680500D01*
X128196610Y-114680500D01*
X128196611Y-114680500D01*
X128367701Y-114653402D01*
X128532445Y-114599873D01*
X128686788Y-114521232D01*
X128826928Y-114419414D01*
X128949414Y-114296928D01*
X129051232Y-114156788D01*
X129129873Y-114002445D01*
X129183402Y-113837701D01*
X129210500Y-113666611D01*
X129210500Y-113493389D01*
X129183402Y-113322299D01*
X129129873Y-113157555D01*
X129051232Y-113003212D01*
X128949414Y-112863072D01*
X128826928Y-112740586D01*
X128686788Y-112638768D01*
X128532445Y-112560127D01*
X128367701Y-112506598D01*
X128367699Y-112506597D01*
X128367698Y-112506597D01*
X128236271Y-112485781D01*
X128196611Y-112479500D01*
X128023389Y-112479500D01*
X127983728Y-112485781D01*
X127852302Y-112506597D01*
X127687552Y-112560128D01*
X127533211Y-112638768D01*
X127453256Y-112696859D01*
X127393072Y-112740586D01*
X127393070Y-112740588D01*
X127393069Y-112740588D01*
X127270588Y-112863069D01*
X127270588Y-112863070D01*
X127270586Y-112863072D01*
X127226859Y-112923256D01*
X127168768Y-113003211D01*
X127090128Y-113157552D01*
X127036597Y-113322302D01*
X127009500Y-113493389D01*
X126038000Y-113493389D01*
X126038000Y-110953389D01*
X127009500Y-110953389D01*
X127009500Y-111126611D01*
X127036598Y-111297701D01*
X127090127Y-111462445D01*
X127168768Y-111616788D01*
X127270586Y-111756928D01*
X127393072Y-111879414D01*
X127533212Y-111981232D01*
X127687555Y-112059873D01*
X127852299Y-112113402D01*
X128023389Y-112140500D01*
X128023390Y-112140500D01*
X128196610Y-112140500D01*
X128196611Y-112140500D01*
X128367701Y-112113402D01*
X128532445Y-112059873D01*
X128686788Y-111981232D01*
X128826928Y-111879414D01*
X128949414Y-111756928D01*
X129051232Y-111616788D01*
X129129873Y-111462445D01*
X129183402Y-111297701D01*
X129210500Y-111126611D01*
X129210500Y-111095225D01*
X137736400Y-111095225D01*
X137736400Y-111240175D01*
X137773916Y-111380185D01*
X137773917Y-111380188D01*
X137846388Y-111505711D01*
X137846390Y-111505713D01*
X137846391Y-111505715D01*
X137948885Y-111608209D01*
X137948886Y-111608210D01*
X137948888Y-111608211D01*
X138074411Y-111680682D01*
X138074412Y-111680682D01*
X138074415Y-111680684D01*
X138214425Y-111718200D01*
X138214428Y-111718200D01*
X138359372Y-111718200D01*
X138359375Y-111718200D01*
X138499385Y-111680684D01*
X138624915Y-111608209D01*
X138678605Y-111554519D01*
X138739928Y-111521034D01*
X138766286Y-111518200D01*
X139918088Y-111518200D01*
X139918088Y-111518199D01*
X140255572Y-111488673D01*
X140589198Y-111429846D01*
X140916429Y-111342165D01*
X141234772Y-111226297D01*
X141541805Y-111083125D01*
X141835191Y-110913738D01*
X142112698Y-110719426D01*
X142372214Y-110501667D01*
X142491989Y-110381892D01*
X142531243Y-110342638D01*
X142531242Y-110342638D01*
X144646957Y-108226925D01*
X158738500Y-108226925D01*
X158738500Y-108371875D01*
X158747727Y-108406309D01*
X158776017Y-108511888D01*
X158848488Y-108637411D01*
X158848490Y-108637413D01*
X158848491Y-108637415D01*
X158950985Y-108739909D01*
X158950986Y-108739910D01*
X158950988Y-108739911D01*
X159076511Y-108812382D01*
X159076512Y-108812382D01*
X159076515Y-108812384D01*
X159216525Y-108849900D01*
X159216528Y-108849900D01*
X159361472Y-108849900D01*
X159361475Y-108849900D01*
X159501485Y-108812384D01*
X159627015Y-108739909D01*
X159729509Y-108637415D01*
X159801984Y-108511885D01*
X159839500Y-108371875D01*
X159839500Y-108226925D01*
X159801984Y-108086915D01*
X159796578Y-108077552D01*
X159729511Y-107961388D01*
X159729506Y-107961382D01*
X159675819Y-107907695D01*
X159642334Y-107846372D01*
X159639500Y-107820014D01*
X159639500Y-107010799D01*
X159639649Y-107004715D01*
X159641767Y-106961606D01*
X159652528Y-106742533D01*
X159653721Y-106730428D01*
X159683348Y-106530700D01*
X159691789Y-106473790D01*
X159694159Y-106461875D01*
X159757202Y-106210193D01*
X159760733Y-106198555D01*
X159761687Y-106195891D01*
X159848134Y-105954287D01*
X159852789Y-105943050D01*
X159885736Y-105873389D01*
X159963722Y-105708498D01*
X159969441Y-105697799D01*
X160102834Y-105475248D01*
X160109577Y-105465155D01*
X160264147Y-105256741D01*
X160271850Y-105247356D01*
X160448152Y-105052837D01*
X160452310Y-105048470D01*
X160489429Y-105011352D01*
X161975256Y-103525525D01*
X161978714Y-103522199D01*
X162243765Y-103277189D01*
X162251132Y-103270897D01*
X162532662Y-103048955D01*
X162540509Y-103043254D01*
X162838587Y-102844084D01*
X162846829Y-102839033D01*
X162953188Y-102779468D01*
X163021294Y-102763888D01*
X163087016Y-102787603D01*
X163101454Y-102799978D01*
X163156185Y-102854709D01*
X163156187Y-102854710D01*
X163156188Y-102854711D01*
X163281711Y-102927182D01*
X163281712Y-102927182D01*
X163281715Y-102927184D01*
X163421725Y-102964700D01*
X163497656Y-102964700D01*
X163527096Y-102973344D01*
X163557083Y-102979868D01*
X163562098Y-102983622D01*
X163564695Y-102984385D01*
X163585337Y-103001019D01*
X163606706Y-103022388D01*
X163645958Y-103061641D01*
X163725433Y-103141114D01*
X163725440Y-103141121D01*
X163851601Y-103237927D01*
X163903773Y-103277960D01*
X164098447Y-103390355D01*
X164306126Y-103476378D01*
X164523257Y-103534559D01*
X164746124Y-103563900D01*
X164812375Y-103563900D01*
X167319319Y-103563900D01*
X167386358Y-103583585D01*
X167432113Y-103636389D01*
X167442057Y-103705547D01*
X167426706Y-103749900D01*
X167383917Y-103824011D01*
X167383916Y-103824015D01*
X167346400Y-103964025D01*
X167346400Y-103964027D01*
X167346400Y-104039955D01*
X167326715Y-104106994D01*
X167310081Y-104127636D01*
X167267913Y-104169804D01*
X167154112Y-104318110D01*
X167154100Y-104318128D01*
X167060633Y-104480016D01*
X167060628Y-104480027D01*
X166989086Y-104652744D01*
X166940700Y-104833325D01*
X166916300Y-105018672D01*
X166916300Y-108662564D01*
X166899687Y-108724564D01*
X166832917Y-108840211D01*
X166832916Y-108840215D01*
X166795400Y-108980225D01*
X166795400Y-109125175D01*
X166832916Y-109265185D01*
X166832917Y-109265188D01*
X166905388Y-109390711D01*
X166905390Y-109390713D01*
X166905391Y-109390715D01*
X167007885Y-109493209D01*
X167007886Y-109493210D01*
X167007888Y-109493211D01*
X167133411Y-109565682D01*
X167133412Y-109565682D01*
X167133415Y-109565684D01*
X167273425Y-109603200D01*
X167273428Y-109603200D01*
X167418372Y-109603200D01*
X167418375Y-109603200D01*
X167558385Y-109565684D01*
X167683915Y-109493209D01*
X167786409Y-109390715D01*
X167858884Y-109265185D01*
X167896400Y-109125175D01*
X167896400Y-108980225D01*
X167858884Y-108840215D01*
X167811244Y-108757701D01*
X167786411Y-108714688D01*
X167786410Y-108714687D01*
X167786409Y-108714685D01*
X167683915Y-108612191D01*
X167683914Y-108612190D01*
X167679296Y-108609524D01*
X167631082Y-108558955D01*
X167617300Y-108502139D01*
X167617300Y-107375271D01*
X167636985Y-107308232D01*
X167689789Y-107262477D01*
X167758947Y-107252533D01*
X167773383Y-107255493D01*
X167852525Y-107276700D01*
X167852528Y-107276700D01*
X167997472Y-107276700D01*
X167997475Y-107276700D01*
X168137485Y-107239184D01*
X168263015Y-107166709D01*
X168365509Y-107064215D01*
X168437984Y-106938685D01*
X168475500Y-106798675D01*
X168475500Y-106722744D01*
X168495185Y-106655705D01*
X168511819Y-106635063D01*
X168978602Y-106168280D01*
X169431070Y-105715812D01*
X169431070Y-105715811D01*
X169538448Y-105608433D01*
X169792993Y-105305078D01*
X170020129Y-104980693D01*
X170218130Y-104637745D01*
X170385487Y-104278846D01*
X170396355Y-104248988D01*
X170440929Y-104126520D01*
X170520927Y-103906727D01*
X170523565Y-103896884D01*
X170539640Y-103836889D01*
X170623420Y-103524219D01*
X170692185Y-103134234D01*
X170726699Y-102739740D01*
X170726700Y-102541739D01*
X170726700Y-102486226D01*
X170726700Y-102486225D01*
X170726700Y-100065386D01*
X170746385Y-99998347D01*
X170763019Y-99977705D01*
X170776084Y-99964640D01*
X170816709Y-99924015D01*
X170889184Y-99798485D01*
X170926700Y-99658475D01*
X170926700Y-99513525D01*
X170889184Y-99373515D01*
X170881505Y-99360215D01*
X170816711Y-99247988D01*
X170816706Y-99247982D01*
X170714217Y-99145493D01*
X170714211Y-99145488D01*
X170588688Y-99073017D01*
X170588689Y-99073017D01*
X170577206Y-99069940D01*
X170448675Y-99035500D01*
X170303725Y-99035500D01*
X170175193Y-99069940D01*
X170163711Y-99073017D01*
X170038188Y-99145488D01*
X170038182Y-99145493D01*
X169935693Y-99247982D01*
X169935688Y-99247988D01*
X169863217Y-99373511D01*
X169863216Y-99373515D01*
X169825700Y-99513525D01*
X169825700Y-99658475D01*
X169858129Y-99779500D01*
X169863217Y-99798488D01*
X169935688Y-99924011D01*
X169935693Y-99924017D01*
X169989381Y-99977705D01*
X170022866Y-100039028D01*
X170025700Y-100065386D01*
X170025700Y-102539032D01*
X170025582Y-102544441D01*
X170011346Y-102870483D01*
X170010403Y-102881259D01*
X169968160Y-103202124D01*
X169966282Y-103212778D01*
X169896230Y-103528760D01*
X169893430Y-103539208D01*
X169796111Y-103847866D01*
X169792411Y-103858032D01*
X169668557Y-104157042D01*
X169663985Y-104166846D01*
X169514548Y-104453911D01*
X169509140Y-104463279D01*
X169335241Y-104736246D01*
X169329036Y-104745107D01*
X169132016Y-105001869D01*
X169125063Y-105010156D01*
X168904588Y-105250763D01*
X168900846Y-105254671D01*
X168016137Y-106139381D01*
X167996293Y-106150216D01*
X167979090Y-106164891D01*
X167963211Y-106168280D01*
X167954814Y-106172866D01*
X167945150Y-106174571D01*
X167936840Y-106175700D01*
X167852525Y-106175700D01*
X167765797Y-106198938D01*
X167757994Y-106199999D01*
X167730921Y-106195891D01*
X167703543Y-106195240D01*
X167696874Y-106190726D01*
X167688915Y-106189519D01*
X167668358Y-106171426D01*
X167645681Y-106156077D01*
X167642512Y-106148676D01*
X167636467Y-106143356D01*
X167628955Y-106117017D01*
X167618177Y-106091848D01*
X167617300Y-106077128D01*
X167617300Y-105118238D01*
X167617897Y-105106085D01*
X167621269Y-105071844D01*
X167630036Y-104982825D01*
X167634778Y-104958990D01*
X167668954Y-104846328D01*
X167678251Y-104823881D01*
X167733754Y-104720042D01*
X167747256Y-104699837D01*
X167767292Y-104675424D01*
X167802654Y-104632334D01*
X167860400Y-104593001D01*
X167898507Y-104587000D01*
X167969372Y-104587000D01*
X167969375Y-104587000D01*
X168109385Y-104549484D01*
X168234915Y-104477009D01*
X168337409Y-104374515D01*
X168409884Y-104248985D01*
X168447400Y-104108975D01*
X168447400Y-103964025D01*
X168409884Y-103824015D01*
X168409882Y-103824011D01*
X168409882Y-103824010D01*
X168406772Y-103816501D01*
X168409591Y-103815333D01*
X168396536Y-103761540D01*
X168419381Y-103695511D01*
X168458397Y-103660039D01*
X168469015Y-103653909D01*
X168571509Y-103551415D01*
X168643984Y-103425885D01*
X168681500Y-103285875D01*
X168681500Y-103140925D01*
X168643984Y-103000915D01*
X168642042Y-102997552D01*
X168571511Y-102875388D01*
X168571506Y-102875382D01*
X168469017Y-102772893D01*
X168469011Y-102772888D01*
X168466819Y-102771623D01*
X168465339Y-102770071D01*
X168462566Y-102767943D01*
X168462897Y-102767510D01*
X168418605Y-102721054D01*
X168405385Y-102652446D01*
X168421435Y-102602239D01*
X168443984Y-102563185D01*
X168481500Y-102423175D01*
X168481500Y-102278225D01*
X168443984Y-102138215D01*
X168441001Y-102133049D01*
X168371511Y-102012688D01*
X168371506Y-102012682D01*
X168269017Y-101910193D01*
X168269011Y-101910188D01*
X168143488Y-101837717D01*
X168143489Y-101837717D01*
X168132006Y-101834640D01*
X168003475Y-101800200D01*
X168003472Y-101800200D01*
X167927543Y-101800200D01*
X167860504Y-101780515D01*
X167839862Y-101763881D01*
X167831610Y-101755629D01*
X167831608Y-101755627D01*
X167667238Y-101636205D01*
X167486210Y-101543967D01*
X167486207Y-101543965D01*
X167292983Y-101481184D01*
X167192646Y-101465292D01*
X167092311Y-101449400D01*
X167036869Y-101449400D01*
X165348214Y-101449400D01*
X165292700Y-101449400D01*
X165080920Y-101449400D01*
X165080914Y-101449400D01*
X164658664Y-101482631D01*
X164658663Y-101482631D01*
X164240323Y-101548890D01*
X164240320Y-101548890D01*
X164240318Y-101548891D01*
X163876628Y-101636205D01*
X163828448Y-101647772D01*
X163425635Y-101778653D01*
X163034324Y-101940740D01*
X163034311Y-101940746D01*
X162656915Y-102133039D01*
X162656911Y-102133041D01*
X162656902Y-102133046D01*
X162656896Y-102133049D01*
X162295779Y-102354342D01*
X162295768Y-102354350D01*
X161953109Y-102603306D01*
X161953082Y-102603327D01*
X161713928Y-102807584D01*
X161650167Y-102836155D01*
X161581081Y-102825718D01*
X161528605Y-102779587D01*
X161526010Y-102775295D01*
X161512791Y-102752400D01*
X161465209Y-102669985D01*
X161362715Y-102567491D01*
X161362713Y-102567490D01*
X161362711Y-102567488D01*
X161237188Y-102495017D01*
X161237189Y-102495017D01*
X161225706Y-102491940D01*
X161097175Y-102457500D01*
X160952225Y-102457500D01*
X160823693Y-102491940D01*
X160812211Y-102495017D01*
X160686688Y-102567488D01*
X160663680Y-102590496D01*
X160602356Y-102623980D01*
X160532664Y-102618994D01*
X160476732Y-102577122D01*
X160452316Y-102511657D01*
X160452000Y-102502813D01*
X160452000Y-101745729D01*
X160452195Y-101738777D01*
X160455851Y-101673672D01*
X160468596Y-101446726D01*
X160470150Y-101432930D01*
X160518565Y-101147979D01*
X160521654Y-101134444D01*
X160557614Y-101009623D01*
X160595087Y-100950656D01*
X160658494Y-100921307D01*
X160727702Y-100930897D01*
X160764448Y-100956272D01*
X160796985Y-100988809D01*
X160796986Y-100988810D01*
X160796988Y-100988811D01*
X160922511Y-101061282D01*
X160922512Y-101061282D01*
X160922515Y-101061284D01*
X161062525Y-101098800D01*
X161062528Y-101098800D01*
X161207472Y-101098800D01*
X161207475Y-101098800D01*
X161347485Y-101061284D01*
X161473015Y-100988809D01*
X161575509Y-100886315D01*
X161647984Y-100760785D01*
X161685500Y-100620775D01*
X161685500Y-100544844D01*
X161705185Y-100477805D01*
X161721819Y-100457163D01*
X162240214Y-99938768D01*
X162762001Y-99416980D01*
X162765863Y-99413283D01*
X163040639Y-99161497D01*
X163048908Y-99154559D01*
X163342428Y-98929332D01*
X163351271Y-98923141D01*
X163663302Y-98724355D01*
X163672623Y-98718973D01*
X164000806Y-98548131D01*
X164010580Y-98543573D01*
X164352399Y-98401987D01*
X164362531Y-98398299D01*
X164715373Y-98287049D01*
X164725802Y-98284254D01*
X165087009Y-98204176D01*
X165097639Y-98202303D01*
X165464443Y-98154012D01*
X165475173Y-98153073D01*
X165836954Y-98137278D01*
X165847497Y-98136818D01*
X165852905Y-98136700D01*
X165905713Y-98136700D01*
X167554614Y-98136700D01*
X167621653Y-98156385D01*
X167642295Y-98173019D01*
X167695985Y-98226709D01*
X167695986Y-98226710D01*
X167695988Y-98226711D01*
X167821511Y-98299182D01*
X167821512Y-98299182D01*
X167821515Y-98299184D01*
X167961525Y-98336700D01*
X167961528Y-98336700D01*
X168106472Y-98336700D01*
X168106475Y-98336700D01*
X168246485Y-98299184D01*
X168372015Y-98226709D01*
X168474509Y-98124215D01*
X168546984Y-97998685D01*
X168584500Y-97858675D01*
X168584500Y-97713725D01*
X168546984Y-97573715D01*
X168535365Y-97553591D01*
X168474511Y-97448188D01*
X168474506Y-97448182D01*
X168372017Y-97345693D01*
X168372011Y-97345688D01*
X168246488Y-97273217D01*
X168246489Y-97273217D01*
X168235006Y-97270140D01*
X168106475Y-97235700D01*
X167961525Y-97235700D01*
X167832993Y-97270140D01*
X167821511Y-97273217D01*
X167695988Y-97345688D01*
X167695982Y-97345693D01*
X167642295Y-97399381D01*
X167580972Y-97432866D01*
X167554614Y-97435700D01*
X165651161Y-97435700D01*
X165254340Y-97466931D01*
X165254321Y-97466933D01*
X164861173Y-97529202D01*
X164861170Y-97529202D01*
X164861168Y-97529203D01*
X164512899Y-97612815D01*
X164474091Y-97622132D01*
X164095526Y-97745134D01*
X163727772Y-97897464D01*
X163727759Y-97897470D01*
X163373067Y-98078194D01*
X163373061Y-98078197D01*
X163101767Y-98244448D01*
X163034321Y-98262693D01*
X162967719Y-98241577D01*
X162923105Y-98187805D01*
X162914645Y-98118449D01*
X162936659Y-98065836D01*
X162964894Y-98026974D01*
X163144979Y-97779108D01*
X163320824Y-97492155D01*
X163382778Y-97391056D01*
X163382781Y-97391050D01*
X163382780Y-97391050D01*
X163382789Y-97391037D01*
X163589418Y-96985504D01*
X163763593Y-96565009D01*
X163904239Y-96132145D01*
X164010490Y-95689581D01*
X164081690Y-95240044D01*
X164117400Y-94786306D01*
X164117400Y-94558736D01*
X164117400Y-94503223D01*
X164117400Y-94503222D01*
X164117400Y-90292286D01*
X164137085Y-90225247D01*
X164153719Y-90204605D01*
X164207409Y-90150915D01*
X164279884Y-90025385D01*
X164317400Y-89885375D01*
X164317400Y-89740425D01*
X164279884Y-89600415D01*
X164207409Y-89474885D01*
X164104915Y-89372391D01*
X164104913Y-89372390D01*
X164104911Y-89372388D01*
X163979388Y-89299917D01*
X163979389Y-89299917D01*
X163967906Y-89296840D01*
X163839375Y-89262400D01*
X163694425Y-89262400D01*
X163565893Y-89296840D01*
X163554411Y-89299917D01*
X163428888Y-89372388D01*
X163428882Y-89372393D01*
X163326393Y-89474882D01*
X163326388Y-89474888D01*
X163253917Y-89600411D01*
X163253916Y-89600415D01*
X163216400Y-89740425D01*
X163216400Y-89885375D01*
X163221401Y-89904037D01*
X163253917Y-90025388D01*
X163326388Y-90150911D01*
X163326393Y-90150917D01*
X163380081Y-90204605D01*
X163413566Y-90265928D01*
X163416400Y-90292286D01*
X163416400Y-94556311D01*
X163416304Y-94561179D01*
X163400897Y-94953306D01*
X163400133Y-94963013D01*
X163354292Y-95350312D01*
X163352769Y-95359928D01*
X163276683Y-95742441D01*
X163274411Y-95751902D01*
X163207657Y-95988598D01*
X163168552Y-96127254D01*
X163165544Y-96136514D01*
X163030551Y-96502426D01*
X163026825Y-96511421D01*
X162863548Y-96865597D01*
X162859127Y-96874272D01*
X162668559Y-97214554D01*
X162663472Y-97222856D01*
X162446801Y-97547128D01*
X162441078Y-97555004D01*
X162213278Y-97843968D01*
X162156316Y-97884429D01*
X162086522Y-97887671D01*
X162026054Y-97852664D01*
X162008512Y-97829201D01*
X162000607Y-97815509D01*
X161991009Y-97798885D01*
X161888515Y-97696391D01*
X161888513Y-97696390D01*
X161888511Y-97696388D01*
X161762988Y-97623917D01*
X161762989Y-97623917D01*
X161751506Y-97620840D01*
X161622975Y-97586400D01*
X161478025Y-97586400D01*
X161349493Y-97620840D01*
X161338011Y-97623917D01*
X161212488Y-97696388D01*
X161212482Y-97696393D01*
X161109993Y-97798882D01*
X161109988Y-97798888D01*
X161037517Y-97924411D01*
X161037516Y-97924415D01*
X161000000Y-98064425D01*
X161000000Y-98064427D01*
X161000000Y-98140356D01*
X160980315Y-98207395D01*
X160963681Y-98228037D01*
X160158411Y-99033306D01*
X159942244Y-99290922D01*
X159749350Y-99566402D01*
X159749341Y-99566417D01*
X159581199Y-99857646D01*
X159581186Y-99857670D01*
X159439075Y-100162430D01*
X159324044Y-100478472D01*
X159237010Y-100803295D01*
X159237007Y-100803308D01*
X159178610Y-101134491D01*
X159149300Y-101469510D01*
X159149300Y-103090201D01*
X159172512Y-103236753D01*
X159218363Y-103377871D01*
X159285729Y-103510083D01*
X159372947Y-103630129D01*
X159477874Y-103735056D01*
X159526961Y-103770719D01*
X159597916Y-103822270D01*
X159730126Y-103889634D01*
X159871246Y-103935487D01*
X160017802Y-103958700D01*
X160017803Y-103958700D01*
X160218072Y-103958700D01*
X160218078Y-103958700D01*
X160236383Y-103955800D01*
X160305672Y-103964753D01*
X160359125Y-104009747D01*
X160379767Y-104076498D01*
X160361044Y-104143813D01*
X160343461Y-104165954D01*
X159959933Y-104549484D01*
X159833998Y-104675418D01*
X159617781Y-104938878D01*
X159617771Y-104938892D01*
X159428429Y-105222262D01*
X159428418Y-105222280D01*
X159267764Y-105522842D01*
X159267762Y-105522847D01*
X159137333Y-105837729D01*
X159038395Y-106163888D01*
X159038392Y-106163899D01*
X158971905Y-106498155D01*
X158948436Y-106736456D01*
X158942236Y-106799411D01*
X158938500Y-106837341D01*
X158938500Y-107820014D01*
X158918815Y-107887053D01*
X158902181Y-107907695D01*
X158848493Y-107961382D01*
X158848488Y-107961388D01*
X158776017Y-108086911D01*
X158776016Y-108086915D01*
X158738500Y-108226925D01*
X144646957Y-108226925D01*
X145205863Y-107668019D01*
X145267186Y-107634534D01*
X145293544Y-107631700D01*
X145369472Y-107631700D01*
X145369475Y-107631700D01*
X145509485Y-107594184D01*
X145635015Y-107521709D01*
X145737509Y-107419215D01*
X145809984Y-107293685D01*
X145847500Y-107153675D01*
X145847500Y-107008725D01*
X145809984Y-106868715D01*
X145791868Y-106837338D01*
X145737511Y-106743188D01*
X145737506Y-106743182D01*
X145635017Y-106640693D01*
X145635011Y-106640688D01*
X145509488Y-106568217D01*
X145509489Y-106568217D01*
X145498006Y-106565140D01*
X145369475Y-106530700D01*
X145224525Y-106530700D01*
X145095993Y-106565140D01*
X145084511Y-106568217D01*
X144958988Y-106640688D01*
X144958982Y-106640693D01*
X144856493Y-106743182D01*
X144856488Y-106743188D01*
X144784017Y-106868711D01*
X144784016Y-106868715D01*
X144746500Y-107008725D01*
X144746500Y-107008727D01*
X144746500Y-107084654D01*
X144726815Y-107151693D01*
X144710181Y-107172335D01*
X141998462Y-109884054D01*
X141994054Y-109888251D01*
X141769697Y-110091596D01*
X141760291Y-110099316D01*
X141519521Y-110277883D01*
X141509403Y-110284643D01*
X141252309Y-110438740D01*
X141241577Y-110444477D01*
X140970594Y-110572642D01*
X140959351Y-110577298D01*
X140677140Y-110678275D01*
X140665495Y-110681808D01*
X140374720Y-110754643D01*
X140362786Y-110757017D01*
X140066284Y-110800999D01*
X140054174Y-110802192D01*
X139769535Y-110816176D01*
X139751731Y-110817051D01*
X139745649Y-110817200D01*
X138766286Y-110817200D01*
X138699247Y-110797515D01*
X138678605Y-110780881D01*
X138624917Y-110727193D01*
X138624911Y-110727188D01*
X138499388Y-110654717D01*
X138499389Y-110654717D01*
X138487906Y-110651640D01*
X138359375Y-110617200D01*
X138214425Y-110617200D01*
X138085893Y-110651640D01*
X138074411Y-110654717D01*
X137948888Y-110727188D01*
X137948882Y-110727193D01*
X137846393Y-110829682D01*
X137846388Y-110829688D01*
X137773917Y-110955211D01*
X137773916Y-110955215D01*
X137736400Y-111095225D01*
X129210500Y-111095225D01*
X129210500Y-110953389D01*
X129183402Y-110782299D01*
X129129873Y-110617555D01*
X129051232Y-110463212D01*
X128949414Y-110323072D01*
X128826928Y-110200586D01*
X128686788Y-110098768D01*
X128532445Y-110020127D01*
X128367701Y-109966598D01*
X128367699Y-109966597D01*
X128367698Y-109966597D01*
X128236271Y-109945781D01*
X128196611Y-109939500D01*
X128023389Y-109939500D01*
X127983728Y-109945781D01*
X127852302Y-109966597D01*
X127687552Y-110020128D01*
X127533211Y-110098768D01*
X127471498Y-110143606D01*
X127393072Y-110200586D01*
X127393070Y-110200588D01*
X127393069Y-110200588D01*
X127270588Y-110323069D01*
X127270588Y-110323070D01*
X127270586Y-110323072D01*
X127227851Y-110381891D01*
X127168768Y-110463211D01*
X127090128Y-110617552D01*
X127036597Y-110782302D01*
X127029092Y-110829688D01*
X127009500Y-110953389D01*
X126038000Y-110953389D01*
X126038000Y-108413389D01*
X127009500Y-108413389D01*
X127009500Y-108586611D01*
X127014039Y-108615271D01*
X127033779Y-108739906D01*
X127036598Y-108757701D01*
X127090127Y-108922445D01*
X127168768Y-109076788D01*
X127270586Y-109216928D01*
X127393072Y-109339414D01*
X127533212Y-109441232D01*
X127687555Y-109519873D01*
X127852299Y-109573402D01*
X128023389Y-109600500D01*
X128023390Y-109600500D01*
X128196610Y-109600500D01*
X128196611Y-109600500D01*
X128367701Y-109573402D01*
X128532445Y-109519873D01*
X128686788Y-109441232D01*
X128826928Y-109339414D01*
X128949414Y-109216928D01*
X129051232Y-109076788D01*
X129129873Y-108922445D01*
X129183402Y-108757701D01*
X129210500Y-108586611D01*
X129210500Y-108413389D01*
X129183402Y-108242299D01*
X129129873Y-108077555D01*
X129051232Y-107923212D01*
X128949414Y-107783072D01*
X128826928Y-107660586D01*
X128686788Y-107558768D01*
X128532445Y-107480127D01*
X128367701Y-107426598D01*
X128367699Y-107426597D01*
X128367698Y-107426597D01*
X128236271Y-107405781D01*
X128196611Y-107399500D01*
X128023389Y-107399500D01*
X127983728Y-107405781D01*
X127852302Y-107426597D01*
X127687552Y-107480128D01*
X127533211Y-107558768D01*
X127484469Y-107594182D01*
X127393072Y-107660586D01*
X127393070Y-107660588D01*
X127393069Y-107660588D01*
X127270588Y-107783069D01*
X127270588Y-107783070D01*
X127270586Y-107783072D01*
X127243746Y-107820014D01*
X127168768Y-107923211D01*
X127090128Y-108077552D01*
X127036597Y-108242302D01*
X127027525Y-108299582D01*
X127009500Y-108413389D01*
X126038000Y-108413389D01*
X126038000Y-105873389D01*
X127009500Y-105873389D01*
X127009500Y-106046610D01*
X127035887Y-106213216D01*
X127036598Y-106217701D01*
X127090127Y-106382445D01*
X127168768Y-106536788D01*
X127270586Y-106676928D01*
X127393072Y-106799414D01*
X127533212Y-106901232D01*
X127687555Y-106979873D01*
X127852299Y-107033402D01*
X128023389Y-107060500D01*
X128023390Y-107060500D01*
X128196610Y-107060500D01*
X128196611Y-107060500D01*
X128367701Y-107033402D01*
X128532445Y-106979873D01*
X128686788Y-106901232D01*
X128826928Y-106799414D01*
X128949414Y-106676928D01*
X129051232Y-106536788D01*
X129129873Y-106382445D01*
X129183402Y-106217701D01*
X129210500Y-106046611D01*
X129210500Y-105873389D01*
X129183402Y-105702299D01*
X129129873Y-105537555D01*
X129051232Y-105383212D01*
X128949414Y-105243072D01*
X128826928Y-105120586D01*
X128686788Y-105018768D01*
X128532445Y-104940127D01*
X128367701Y-104886598D01*
X128367699Y-104886597D01*
X128367698Y-104886597D01*
X128236271Y-104865781D01*
X128196611Y-104859500D01*
X128023389Y-104859500D01*
X127983728Y-104865781D01*
X127852302Y-104886597D01*
X127687552Y-104940128D01*
X127533211Y-105018768D01*
X127468199Y-105066003D01*
X127393072Y-105120586D01*
X127393070Y-105120588D01*
X127393069Y-105120588D01*
X127270588Y-105243069D01*
X127270588Y-105243070D01*
X127270586Y-105243072D01*
X127263548Y-105252759D01*
X127168768Y-105383211D01*
X127090128Y-105537552D01*
X127036597Y-105702302D01*
X127009500Y-105873389D01*
X126038000Y-105873389D01*
X126038000Y-103333389D01*
X127009500Y-103333389D01*
X127009500Y-103506611D01*
X127013927Y-103534559D01*
X127034676Y-103665571D01*
X127036598Y-103677701D01*
X127090127Y-103842445D01*
X127168768Y-103996788D01*
X127270586Y-104136928D01*
X127393072Y-104259414D01*
X127533212Y-104361232D01*
X127687555Y-104439873D01*
X127852299Y-104493402D01*
X128023389Y-104520500D01*
X128023390Y-104520500D01*
X128196610Y-104520500D01*
X128196611Y-104520500D01*
X128367701Y-104493402D01*
X128532445Y-104439873D01*
X128686788Y-104361232D01*
X128826928Y-104259414D01*
X128949414Y-104136928D01*
X129051232Y-103996788D01*
X129129873Y-103842445D01*
X129183402Y-103677701D01*
X129210500Y-103506611D01*
X129210500Y-103333389D01*
X129183402Y-103162299D01*
X129129873Y-102997555D01*
X129051232Y-102843212D01*
X128949414Y-102703072D01*
X128826928Y-102580586D01*
X128686788Y-102478768D01*
X128532445Y-102400127D01*
X128367701Y-102346598D01*
X128367699Y-102346597D01*
X128367698Y-102346597D01*
X128236271Y-102325781D01*
X128196611Y-102319500D01*
X128023389Y-102319500D01*
X127983728Y-102325781D01*
X127852302Y-102346597D01*
X127687552Y-102400128D01*
X127533211Y-102478768D01*
X127453256Y-102536859D01*
X127393072Y-102580586D01*
X127393070Y-102580588D01*
X127393069Y-102580588D01*
X127270588Y-102703069D01*
X127270588Y-102703070D01*
X127270586Y-102703072D01*
X127234747Y-102752400D01*
X127168768Y-102843211D01*
X127090128Y-102997552D01*
X127036597Y-103162302D01*
X127012979Y-103311425D01*
X127009500Y-103333389D01*
X126038000Y-103333389D01*
X126038000Y-100793389D01*
X127009500Y-100793389D01*
X127009500Y-100966610D01*
X127036089Y-101134491D01*
X127036598Y-101137701D01*
X127063287Y-101219842D01*
X127090128Y-101302447D01*
X127094061Y-101310166D01*
X127168768Y-101456788D01*
X127270586Y-101596928D01*
X127393072Y-101719414D01*
X127533212Y-101821232D01*
X127687555Y-101899873D01*
X127852299Y-101953402D01*
X128023389Y-101980500D01*
X128023390Y-101980500D01*
X128196610Y-101980500D01*
X128196611Y-101980500D01*
X128367701Y-101953402D01*
X128532445Y-101899873D01*
X128686788Y-101821232D01*
X128826928Y-101719414D01*
X128949414Y-101596928D01*
X129051232Y-101456788D01*
X129129873Y-101302445D01*
X129183402Y-101137701D01*
X129210500Y-100966611D01*
X129210500Y-100793389D01*
X129183402Y-100622299D01*
X129129873Y-100457555D01*
X129051232Y-100303212D01*
X128949414Y-100163072D01*
X128826928Y-100040586D01*
X128686788Y-99938768D01*
X128532445Y-99860127D01*
X128367701Y-99806598D01*
X128367699Y-99806597D01*
X128367698Y-99806597D01*
X128232505Y-99785185D01*
X128196611Y-99779500D01*
X128023389Y-99779500D01*
X127987495Y-99785185D01*
X127852302Y-99806597D01*
X127687552Y-99860128D01*
X127533211Y-99938768D01*
X127497602Y-99964640D01*
X127393072Y-100040586D01*
X127393070Y-100040588D01*
X127393069Y-100040588D01*
X127270588Y-100163069D01*
X127270588Y-100163070D01*
X127270586Y-100163072D01*
X127226859Y-100223256D01*
X127168768Y-100303211D01*
X127090128Y-100457552D01*
X127036597Y-100622302D01*
X127009500Y-100793389D01*
X126038000Y-100793389D01*
X126038000Y-98253389D01*
X127009500Y-98253389D01*
X127009500Y-98426610D01*
X127035578Y-98591266D01*
X127036598Y-98597701D01*
X127077755Y-98724369D01*
X127090128Y-98762447D01*
X127135847Y-98852176D01*
X127168768Y-98916788D01*
X127270586Y-99056928D01*
X127393072Y-99179414D01*
X127533212Y-99281232D01*
X127687555Y-99359873D01*
X127852299Y-99413402D01*
X128023389Y-99440500D01*
X128023390Y-99440500D01*
X128196610Y-99440500D01*
X128196611Y-99440500D01*
X128367701Y-99413402D01*
X128532445Y-99359873D01*
X128686788Y-99281232D01*
X128826928Y-99179414D01*
X128949414Y-99056928D01*
X129051232Y-98916788D01*
X129129873Y-98762445D01*
X129183402Y-98597701D01*
X129210500Y-98426611D01*
X129210500Y-98253389D01*
X129183402Y-98082299D01*
X129129873Y-97917555D01*
X129051232Y-97763212D01*
X128949414Y-97623072D01*
X128826928Y-97500586D01*
X128686788Y-97398768D01*
X128532445Y-97320127D01*
X128367701Y-97266598D01*
X128367699Y-97266597D01*
X128367698Y-97266597D01*
X128236271Y-97245781D01*
X128196611Y-97239500D01*
X128023389Y-97239500D01*
X127983728Y-97245781D01*
X127852302Y-97266597D01*
X127687552Y-97320128D01*
X127533211Y-97398768D01*
X127465191Y-97448188D01*
X127393072Y-97500586D01*
X127393070Y-97500588D01*
X127393069Y-97500588D01*
X127270588Y-97623069D01*
X127270588Y-97623070D01*
X127270586Y-97623072D01*
X127239696Y-97665588D01*
X127168768Y-97763211D01*
X127090128Y-97917552D01*
X127036597Y-98082302D01*
X127009500Y-98253389D01*
X126038000Y-98253389D01*
X126038000Y-93173389D01*
X127009500Y-93173389D01*
X127009500Y-93346610D01*
X127034699Y-93505716D01*
X127036598Y-93517701D01*
X127090127Y-93682445D01*
X127168768Y-93836788D01*
X127270586Y-93976928D01*
X127393072Y-94099414D01*
X127533212Y-94201232D01*
X127687555Y-94279873D01*
X127852299Y-94333402D01*
X128023389Y-94360500D01*
X128023390Y-94360500D01*
X128196610Y-94360500D01*
X128196611Y-94360500D01*
X128367701Y-94333402D01*
X128532445Y-94279873D01*
X128686788Y-94201232D01*
X128826928Y-94099414D01*
X128949414Y-93976928D01*
X129051232Y-93836788D01*
X129129873Y-93682445D01*
X129183402Y-93517701D01*
X129210500Y-93346611D01*
X129210500Y-93173389D01*
X129183402Y-93002299D01*
X129129873Y-92837555D01*
X129051232Y-92683212D01*
X128949414Y-92543072D01*
X128826928Y-92420586D01*
X128686788Y-92318768D01*
X128532445Y-92240127D01*
X128367701Y-92186598D01*
X128367699Y-92186597D01*
X128367698Y-92186597D01*
X128236271Y-92165781D01*
X128196611Y-92159500D01*
X128023389Y-92159500D01*
X127983728Y-92165781D01*
X127852302Y-92186597D01*
X127687552Y-92240128D01*
X127533211Y-92318768D01*
X127453353Y-92376789D01*
X127393072Y-92420586D01*
X127393070Y-92420588D01*
X127393069Y-92420588D01*
X127270588Y-92543069D01*
X127270588Y-92543070D01*
X127270586Y-92543072D01*
X127250281Y-92571020D01*
X127168768Y-92683211D01*
X127090128Y-92837552D01*
X127036597Y-93002302D01*
X127009500Y-93173389D01*
X126038000Y-93173389D01*
X126038000Y-90633428D01*
X127010000Y-90633428D01*
X127010000Y-90806571D01*
X127037085Y-90977584D01*
X127090591Y-91142257D01*
X127169194Y-91296521D01*
X127248097Y-91405124D01*
X127679269Y-90973952D01*
X127709901Y-91027007D01*
X127802993Y-91120099D01*
X127856046Y-91150729D01*
X127424874Y-91581901D01*
X127533478Y-91660805D01*
X127687742Y-91739408D01*
X127852415Y-91792914D01*
X128023429Y-91820000D01*
X128196571Y-91820000D01*
X128367584Y-91792914D01*
X128532257Y-91739408D01*
X128686528Y-91660801D01*
X128795124Y-91581902D01*
X128795125Y-91581901D01*
X128363953Y-91150729D01*
X128417007Y-91120099D01*
X128510099Y-91027007D01*
X128540729Y-90973953D01*
X128971901Y-91405125D01*
X128971902Y-91405124D01*
X129050801Y-91296528D01*
X129129408Y-91142257D01*
X129182914Y-90977584D01*
X129210000Y-90806571D01*
X129210000Y-90633428D01*
X129182914Y-90462415D01*
X129129408Y-90297742D01*
X129050805Y-90143478D01*
X128971901Y-90034874D01*
X128540729Y-90466046D01*
X128510099Y-90412993D01*
X128417007Y-90319901D01*
X128363952Y-90289270D01*
X128795124Y-89858097D01*
X128686521Y-89779194D01*
X128532257Y-89700591D01*
X128367584Y-89647085D01*
X128196571Y-89620000D01*
X128023429Y-89620000D01*
X127852415Y-89647085D01*
X127687742Y-89700591D01*
X127533476Y-89779195D01*
X127533474Y-89779196D01*
X127424874Y-89858096D01*
X127424874Y-89858097D01*
X127856047Y-90289270D01*
X127802993Y-90319901D01*
X127709901Y-90412993D01*
X127679270Y-90466047D01*
X127248097Y-90034874D01*
X127248096Y-90034874D01*
X127169196Y-90143474D01*
X127169195Y-90143476D01*
X127090591Y-90297742D01*
X127037085Y-90462415D01*
X127010000Y-90633428D01*
X126038000Y-90633428D01*
X126038000Y-88093389D01*
X127009500Y-88093389D01*
X127009500Y-88266611D01*
X127036598Y-88437701D01*
X127090127Y-88602445D01*
X127168768Y-88756788D01*
X127270586Y-88896928D01*
X127393072Y-89019414D01*
X127533212Y-89121232D01*
X127687555Y-89199873D01*
X127852299Y-89253402D01*
X128023389Y-89280500D01*
X128023390Y-89280500D01*
X128196610Y-89280500D01*
X128196611Y-89280500D01*
X128367701Y-89253402D01*
X128532445Y-89199873D01*
X128686788Y-89121232D01*
X128826928Y-89019414D01*
X128949414Y-88896928D01*
X129051232Y-88756788D01*
X129129873Y-88602445D01*
X129183402Y-88437701D01*
X129210500Y-88266611D01*
X129210500Y-88093389D01*
X129183402Y-87922299D01*
X129129873Y-87757555D01*
X129051232Y-87603212D01*
X128949414Y-87463072D01*
X128826928Y-87340586D01*
X128686788Y-87238768D01*
X128532445Y-87160127D01*
X128367701Y-87106598D01*
X128367699Y-87106597D01*
X128367698Y-87106597D01*
X128236271Y-87085781D01*
X128196611Y-87079500D01*
X128023389Y-87079500D01*
X127983728Y-87085781D01*
X127852302Y-87106597D01*
X127687552Y-87160128D01*
X127533211Y-87238768D01*
X127453256Y-87296859D01*
X127393072Y-87340586D01*
X127393070Y-87340588D01*
X127393069Y-87340588D01*
X127270588Y-87463069D01*
X127270588Y-87463070D01*
X127270586Y-87463072D01*
X127226859Y-87523256D01*
X127168768Y-87603211D01*
X127090128Y-87757552D01*
X127036597Y-87922302D01*
X127018819Y-88034551D01*
X127009500Y-88093389D01*
X126038000Y-88093389D01*
X126038000Y-86082000D01*
X126057685Y-86014961D01*
X126110489Y-85969206D01*
X126162000Y-85958000D01*
X148562623Y-85958000D01*
X148629662Y-85977685D01*
G37*
%TD.AperFunction*%
%TA.AperFunction,Conductor*%
G36*
X155817226Y-90321920D02*
G01*
X155860417Y-90376841D01*
X155869300Y-90422928D01*
X155869300Y-97386814D01*
X155849615Y-97453853D01*
X155796811Y-97499608D01*
X155727653Y-97509552D01*
X155664097Y-97480527D01*
X155657619Y-97474495D01*
X155567917Y-97384793D01*
X155567911Y-97384788D01*
X155442388Y-97312317D01*
X155442389Y-97312317D01*
X155405852Y-97302527D01*
X155302375Y-97274800D01*
X155157425Y-97274800D01*
X155053948Y-97302527D01*
X155017411Y-97312317D01*
X154891888Y-97384788D01*
X154891882Y-97384793D01*
X154789393Y-97487282D01*
X154789388Y-97487288D01*
X154716917Y-97612811D01*
X154713941Y-97623916D01*
X154679400Y-97752825D01*
X154679400Y-97752827D01*
X154679400Y-97817648D01*
X154678914Y-97819301D01*
X154679356Y-97820969D01*
X154669101Y-97852721D01*
X154659715Y-97884687D01*
X154658243Y-97886339D01*
X154657883Y-97887457D01*
X154634064Y-97913502D01*
X154617698Y-97926933D01*
X154597487Y-97940437D01*
X154513552Y-97985301D01*
X154491094Y-97994604D01*
X154400016Y-98022232D01*
X154376175Y-98026974D01*
X154320261Y-98032481D01*
X154251615Y-98019462D01*
X154200905Y-97971397D01*
X154184230Y-97903546D01*
X154206886Y-97837452D01*
X154220421Y-97821402D01*
X154250709Y-97791115D01*
X154323184Y-97665585D01*
X154360700Y-97525575D01*
X154360700Y-97380625D01*
X154323184Y-97240615D01*
X154322540Y-97239500D01*
X154250711Y-97115088D01*
X154250706Y-97115082D01*
X154197019Y-97061395D01*
X154163534Y-97000072D01*
X154160700Y-96973714D01*
X154160700Y-92620642D01*
X154160895Y-92613690D01*
X154164451Y-92550368D01*
X154175738Y-92349372D01*
X154177292Y-92335573D01*
X154221053Y-92078012D01*
X154224147Y-92064460D01*
X154248675Y-91979324D01*
X154296470Y-91813421D01*
X154301062Y-91800301D01*
X154320728Y-91752823D01*
X154401035Y-91558941D01*
X154407061Y-91546428D01*
X154533434Y-91317777D01*
X154540831Y-91306004D01*
X154543903Y-91301675D01*
X154692009Y-91092937D01*
X154700665Y-91082083D01*
X154877086Y-90884667D01*
X154881831Y-90879649D01*
X155361762Y-90399719D01*
X155423085Y-90366234D01*
X155449443Y-90363400D01*
X155525372Y-90363400D01*
X155525375Y-90363400D01*
X155665385Y-90325884D01*
X155665387Y-90325882D01*
X155665389Y-90325882D01*
X155665390Y-90325881D01*
X155683299Y-90315542D01*
X155751199Y-90299068D01*
X155817226Y-90321920D01*
G37*
%TD.AperFunction*%
%TA.AperFunction,Conductor*%
G36*
X151169662Y-85977685D02*
G01*
X151215417Y-86030489D01*
X151225361Y-86099647D01*
X151202941Y-86154886D01*
X151138768Y-86243211D01*
X151060128Y-86397552D01*
X151006597Y-86562302D01*
X150979500Y-86733389D01*
X150979500Y-86906611D01*
X151006598Y-87077701D01*
X151060127Y-87242445D01*
X151138768Y-87396788D01*
X151240586Y-87536928D01*
X151363072Y-87659414D01*
X151503212Y-87761232D01*
X151657555Y-87839873D01*
X151822299Y-87893402D01*
X151993389Y-87920500D01*
X151993390Y-87920500D01*
X152166610Y-87920500D01*
X152166611Y-87920500D01*
X152337701Y-87893402D01*
X152355474Y-87887626D01*
X152369374Y-87887229D01*
X152382300Y-87882090D01*
X152403607Y-87886249D01*
X152425311Y-87885628D01*
X152437224Y-87892811D01*
X152450876Y-87895476D01*
X152466553Y-87910495D01*
X152485146Y-87921706D01*
X152492316Y-87935177D01*
X152501328Y-87943811D01*
X152514368Y-87976608D01*
X152529309Y-88038840D01*
X152532353Y-88058058D01*
X152544018Y-88206266D01*
X152544400Y-88215996D01*
X152544400Y-97306814D01*
X152524715Y-97373853D01*
X152508081Y-97394495D01*
X152454393Y-97448182D01*
X152454389Y-97448188D01*
X152429004Y-97492155D01*
X152378436Y-97540370D01*
X152309829Y-97553591D01*
X152244965Y-97527622D01*
X152238991Y-97522613D01*
X152112792Y-97409835D01*
X152107739Y-97405057D01*
X152087470Y-97384788D01*
X152070953Y-97368271D01*
X152070951Y-97368270D01*
X151363215Y-96660533D01*
X151359840Y-96657023D01*
X151274783Y-96565009D01*
X151113907Y-96390974D01*
X151107589Y-96383577D01*
X151105718Y-96381204D01*
X150884798Y-96100968D01*
X150879078Y-96093094D01*
X150863539Y-96069838D01*
X150679141Y-95793868D01*
X150674076Y-95785603D01*
X150498220Y-95471590D01*
X150493812Y-95462938D01*
X150373603Y-95202185D01*
X150343147Y-95136119D01*
X150339422Y-95127126D01*
X150334032Y-95112517D01*
X150214867Y-94789504D01*
X150211860Y-94780248D01*
X150189799Y-94702027D01*
X150114180Y-94433900D01*
X150111908Y-94424436D01*
X150109117Y-94410405D01*
X150041702Y-94071485D01*
X150040180Y-94061875D01*
X150036710Y-94032556D01*
X149997881Y-93704492D01*
X149997120Y-93694822D01*
X149982896Y-93332797D01*
X149982800Y-93327929D01*
X149982800Y-87905488D01*
X150002485Y-87838449D01*
X150050503Y-87795004D01*
X150116788Y-87761232D01*
X150256928Y-87659414D01*
X150379414Y-87536928D01*
X150481232Y-87396788D01*
X150559873Y-87242445D01*
X150613402Y-87077701D01*
X150640500Y-86906611D01*
X150640500Y-86733389D01*
X150613402Y-86562299D01*
X150559873Y-86397555D01*
X150481232Y-86243212D01*
X150417058Y-86154885D01*
X150393579Y-86089079D01*
X150409404Y-86021025D01*
X150459510Y-85972330D01*
X150517377Y-85958000D01*
X151102623Y-85958000D01*
X151169662Y-85977685D01*
G37*
%TD.AperFunction*%
%TD*%
M02*
