%TF.GenerationSoftware,KiCad,Pcbnew,9.0.8*%
%TF.CreationDate,2026-03-19T21:35:27-03:00*%
%TF.ProjectId,EEGFrontier,45454746-726f-46e7-9469-65722e6b6963,rev?*%
%TF.SameCoordinates,Original*%
%TF.FileFunction,Legend,Bot*%
%TF.FilePolarity,Positive*%
%FSLAX46Y46*%
G04 Gerber Fmt 4.6, Leading zero omitted, Abs format (unit mm)*
G04 Created by KiCad (PCBNEW 9.0.8) date 2026-03-19 21:35:27*
%MOMM*%
%LPD*%
G01*
G04 APERTURE LIST*
%ADD10C,0.150000*%
%ADD11C,0.000000*%
%ADD12C,0.120000*%
G04 APERTURE END LIST*
D10*
X158884819Y-82101666D02*
X159599104Y-82101666D01*
X159599104Y-82101666D02*
X159741961Y-82054047D01*
X159741961Y-82054047D02*
X159837200Y-81958809D01*
X159837200Y-81958809D02*
X159884819Y-81815952D01*
X159884819Y-81815952D02*
X159884819Y-81720714D01*
X158980057Y-82530238D02*
X158932438Y-82577857D01*
X158932438Y-82577857D02*
X158884819Y-82673095D01*
X158884819Y-82673095D02*
X158884819Y-82911190D01*
X158884819Y-82911190D02*
X158932438Y-83006428D01*
X158932438Y-83006428D02*
X158980057Y-83054047D01*
X158980057Y-83054047D02*
X159075295Y-83101666D01*
X159075295Y-83101666D02*
X159170533Y-83101666D01*
X159170533Y-83101666D02*
X159313390Y-83054047D01*
X159313390Y-83054047D02*
X159884819Y-82482619D01*
X159884819Y-82482619D02*
X159884819Y-83101666D01*
D11*
%TO.C,G2*%
G36*
X162443333Y-113753333D02*
G01*
X162866667Y-113753333D01*
X162866667Y-114600000D01*
X162866667Y-115446667D01*
X162020000Y-115446667D01*
X161173333Y-115446667D01*
X161173333Y-115023333D01*
X161173333Y-114600000D01*
X161596667Y-114600000D01*
X162020000Y-114600000D01*
X162020000Y-114176667D01*
X162020000Y-113753333D01*
X162443333Y-113753333D01*
G37*
G36*
X169640000Y-110366667D02*
G01*
X169216667Y-110366667D01*
X168793333Y-110366667D01*
X168793333Y-111636667D01*
X168793333Y-112906667D01*
X168370000Y-112906667D01*
X167946667Y-112906667D01*
X167946667Y-112483333D01*
X167946667Y-112060000D01*
X167100000Y-112060000D01*
X166253333Y-112060000D01*
X166253333Y-112906667D01*
X166253333Y-113753333D01*
X165830000Y-113753333D01*
X165406667Y-113753333D01*
X165406667Y-114176667D01*
X165406667Y-114600000D01*
X165830000Y-114600000D01*
X166253333Y-114600000D01*
X166253333Y-115023333D01*
X166253333Y-115446667D01*
X165406667Y-115446667D01*
X164560000Y-115446667D01*
X164560000Y-114600000D01*
X164560000Y-113753333D01*
X164136667Y-113753333D01*
X163713333Y-113753333D01*
X163713333Y-113330000D01*
X163713333Y-112906667D01*
X162866667Y-112906667D01*
X162020000Y-112906667D01*
X162020000Y-113330000D01*
X162020000Y-113753333D01*
X161596667Y-113753333D01*
X161173333Y-113753333D01*
X161173333Y-111213333D01*
X161173333Y-110366667D01*
X162020000Y-110366667D01*
X162020000Y-110790000D01*
X162020000Y-111213333D01*
X162443333Y-111213333D01*
X162866667Y-111213333D01*
X162866667Y-111636667D01*
X162866667Y-112060000D01*
X163290000Y-112060000D01*
X163713333Y-112060000D01*
X163713333Y-112483333D01*
X163713333Y-112906667D01*
X164136667Y-112906667D01*
X164560000Y-112906667D01*
X164560000Y-112060000D01*
X164560000Y-111213333D01*
X164136667Y-111213333D01*
X163713333Y-111213333D01*
X163713333Y-110366667D01*
X163713333Y-109520000D01*
X163290000Y-109520000D01*
X162866667Y-109520000D01*
X162866667Y-109943333D01*
X162866667Y-110366667D01*
X162443333Y-110366667D01*
X162020000Y-110366667D01*
X161173333Y-110366667D01*
X161173333Y-108673333D01*
X162443333Y-108673333D01*
X163713333Y-108673333D01*
X163713333Y-109096667D01*
X163713333Y-109520000D01*
X164136667Y-109520000D01*
X164560000Y-109520000D01*
X164560000Y-108673333D01*
X165406667Y-108673333D01*
X165406667Y-109943333D01*
X165406667Y-111213333D01*
X166676667Y-111213333D01*
X167946667Y-111213333D01*
X167946667Y-109943333D01*
X167946667Y-108673333D01*
X166676667Y-108673333D01*
X165406667Y-108673333D01*
X164560000Y-108673333D01*
X164560000Y-107826667D01*
X164136667Y-107826667D01*
X163713333Y-107826667D01*
X163713333Y-107403333D01*
X163713333Y-106980000D01*
X164136667Y-106980000D01*
X164560000Y-106980000D01*
X164560000Y-106556667D01*
X166253333Y-106556667D01*
X166253333Y-106980000D01*
X166676667Y-106980000D01*
X167100000Y-106980000D01*
X167100000Y-106556667D01*
X167100000Y-106133333D01*
X166676667Y-106133333D01*
X166253333Y-106133333D01*
X166253333Y-106556667D01*
X164560000Y-106556667D01*
X164560000Y-106133333D01*
X165406667Y-106133333D01*
X166253333Y-106133333D01*
X166253333Y-105710000D01*
X166253333Y-105286667D01*
X165830000Y-105286667D01*
X165406667Y-105286667D01*
X165406667Y-104863333D01*
X165406667Y-104440000D01*
X165830000Y-104440000D01*
X166253333Y-104440000D01*
X166253333Y-102746667D01*
X166253333Y-101053333D01*
X167100000Y-101053333D01*
X167946667Y-101053333D01*
X167946667Y-101476667D01*
X167946667Y-101900000D01*
X168793333Y-101900000D01*
X169640000Y-101900000D01*
X169640000Y-102323333D01*
X169640000Y-102746667D01*
X168370000Y-102746667D01*
X167100000Y-102746667D01*
X167100000Y-103170000D01*
X167100000Y-103593333D01*
X167946667Y-103593333D01*
X168793333Y-103593333D01*
X168793333Y-104016667D01*
X168793333Y-104440000D01*
X169216667Y-104440000D01*
X169640000Y-104440000D01*
X169640000Y-104863333D01*
X169640000Y-105286667D01*
X168793333Y-105286667D01*
X167946667Y-105286667D01*
X167946667Y-104863333D01*
X167946667Y-104440000D01*
X167523333Y-104440000D01*
X167100000Y-104440000D01*
X167100000Y-104863333D01*
X167100000Y-105286667D01*
X167523333Y-105286667D01*
X167946667Y-105286667D01*
X167946667Y-106133333D01*
X167946667Y-106980000D01*
X168793333Y-106980000D01*
X169640000Y-106980000D01*
X169640000Y-107403333D01*
X169640000Y-107826667D01*
X170063333Y-107826667D01*
X170486667Y-107826667D01*
X170486667Y-106980000D01*
X170486667Y-106133333D01*
X170910000Y-106133333D01*
X171333333Y-106133333D01*
X171333333Y-105710000D01*
X171333333Y-105286667D01*
X171756667Y-105286667D01*
X172180000Y-105286667D01*
X172180000Y-106980000D01*
X172180000Y-108673333D01*
X172603333Y-108673333D01*
X173026667Y-108673333D01*
X173026667Y-107403333D01*
X173026667Y-106133333D01*
X173450000Y-106133333D01*
X173873333Y-106133333D01*
X173873333Y-106556667D01*
X173873333Y-106980000D01*
X175143333Y-106980000D01*
X176413333Y-106980000D01*
X176413333Y-106556667D01*
X176413333Y-106133333D01*
X175143333Y-106133333D01*
X173873333Y-106133333D01*
X173873333Y-105710000D01*
X173873333Y-105286667D01*
X174296667Y-105286667D01*
X174720000Y-105286667D01*
X174720000Y-104863333D01*
X174720000Y-104440000D01*
X175143333Y-104440000D01*
X175566667Y-104440000D01*
X175566667Y-104863333D01*
X175566667Y-105286667D01*
X176413333Y-105286667D01*
X177260000Y-105286667D01*
X177260000Y-106980000D01*
X177260000Y-108673333D01*
X176413333Y-108673333D01*
X175566667Y-108673333D01*
X175566667Y-108250000D01*
X175566667Y-107826667D01*
X174720000Y-107826667D01*
X173873333Y-107826667D01*
X173873333Y-108673333D01*
X173873333Y-109520000D01*
X172603333Y-109520000D01*
X171333333Y-109520000D01*
X171333333Y-109096667D01*
X171333333Y-108673333D01*
X170486667Y-108673333D01*
X169640000Y-108673333D01*
X169640000Y-109520000D01*
X169640000Y-109943333D01*
X169640000Y-110366667D01*
G37*
G36*
X178106667Y-110366667D02*
G01*
X178106667Y-111213333D01*
X177683333Y-111213333D01*
X177260000Y-111213333D01*
X177260000Y-111636667D01*
X177260000Y-112060000D01*
X177683333Y-112060000D01*
X178106667Y-112060000D01*
X178106667Y-111636667D01*
X178106667Y-111213333D01*
X178530000Y-111213333D01*
X178953333Y-111213333D01*
X178953333Y-111636667D01*
X178953333Y-112060000D01*
X178530000Y-112060000D01*
X178106667Y-112060000D01*
X178106667Y-112483333D01*
X178106667Y-112906667D01*
X177683333Y-112906667D01*
X177260000Y-112906667D01*
X177260000Y-113753333D01*
X177260000Y-114600000D01*
X176836667Y-114600000D01*
X176413333Y-114600000D01*
X176413333Y-115023333D01*
X176413333Y-115446667D01*
X175566667Y-115446667D01*
X174720000Y-115446667D01*
X174720000Y-115023333D01*
X174720000Y-114600000D01*
X173450000Y-114600000D01*
X172180000Y-114600000D01*
X172180000Y-115023333D01*
X172180000Y-115446667D01*
X171756667Y-115446667D01*
X171333333Y-115446667D01*
X171333333Y-115023333D01*
X171333333Y-114600000D01*
X170486667Y-114600000D01*
X169640000Y-114600000D01*
X169640000Y-115023333D01*
X169640000Y-115446667D01*
X168370000Y-115446667D01*
X167100000Y-115446667D01*
X167100000Y-114600000D01*
X167100000Y-113753333D01*
X167946667Y-113753333D01*
X168793333Y-113753333D01*
X168793333Y-113330000D01*
X168793333Y-112906667D01*
X169216667Y-112906667D01*
X169640000Y-112906667D01*
X169640000Y-113330000D01*
X169640000Y-113753333D01*
X171333333Y-113753333D01*
X173026667Y-113753333D01*
X173026667Y-113330000D01*
X173026667Y-112906667D01*
X173450000Y-112906667D01*
X173873333Y-112906667D01*
X173873333Y-113330000D01*
X173873333Y-113753333D01*
X174720000Y-113753333D01*
X175566667Y-113753333D01*
X175566667Y-114176667D01*
X175566667Y-114600000D01*
X175990000Y-114600000D01*
X176413333Y-114600000D01*
X176413333Y-113330000D01*
X176413333Y-112060000D01*
X175990000Y-112060000D01*
X175566667Y-112060000D01*
X175566667Y-111213333D01*
X175566667Y-110366667D01*
X175990000Y-110366667D01*
X176413333Y-110366667D01*
X176413333Y-110790000D01*
X176413333Y-111213333D01*
X176836667Y-111213333D01*
X177260000Y-111213333D01*
X177260000Y-110366667D01*
X177260000Y-109520000D01*
X177683333Y-109520000D01*
X178106667Y-109520000D01*
X178106667Y-110366667D01*
G37*
G36*
X178106667Y-114600000D02*
G01*
X178953333Y-114600000D01*
X178953333Y-115023333D01*
X178953333Y-115446667D01*
X178106667Y-115446667D01*
X177260000Y-115446667D01*
X177260000Y-115023333D01*
X177260000Y-114600000D01*
X178106667Y-114600000D01*
G37*
G36*
X178530000Y-112906667D02*
G01*
X178953333Y-112906667D01*
X178953333Y-113330000D01*
X178953333Y-113753333D01*
X178530000Y-113753333D01*
X178106667Y-113753333D01*
X178106667Y-113330000D01*
X178106667Y-112906667D01*
X178530000Y-112906667D01*
G37*
G36*
X183186667Y-103593333D02*
G01*
X183186667Y-104440000D01*
X182340000Y-104440000D01*
X181493333Y-104440000D01*
X181493333Y-104016667D01*
X181493333Y-103593333D01*
X180646667Y-103593333D01*
X179800000Y-103593333D01*
X179800000Y-104016667D01*
X179800000Y-104440000D01*
X180646667Y-104440000D01*
X181493333Y-104440000D01*
X181493333Y-104863333D01*
X181493333Y-105286667D01*
X181916667Y-105286667D01*
X182340000Y-105286667D01*
X182340000Y-105710000D01*
X182340000Y-106133333D01*
X181916667Y-106133333D01*
X181493333Y-106133333D01*
X181493333Y-106556667D01*
X181493333Y-106980000D01*
X182340000Y-106980000D01*
X183186667Y-106980000D01*
X183186667Y-106556667D01*
X183186667Y-106133333D01*
X183610000Y-106133333D01*
X184033333Y-106133333D01*
X184033333Y-106556667D01*
X184033333Y-106980000D01*
X184456667Y-106980000D01*
X184880000Y-106980000D01*
X184880000Y-106556667D01*
X184880000Y-106133333D01*
X185303333Y-106133333D01*
X185726667Y-106133333D01*
X185726667Y-106556667D01*
X185726667Y-106980000D01*
X185303333Y-106980000D01*
X184880000Y-106980000D01*
X184880000Y-107403333D01*
X184880000Y-107826667D01*
X184456667Y-107826667D01*
X184033333Y-107826667D01*
X184033333Y-107403333D01*
X184033333Y-106980000D01*
X183610000Y-106980000D01*
X183186667Y-106980000D01*
X183186667Y-107403333D01*
X183186667Y-107826667D01*
X182763333Y-107826667D01*
X182340000Y-107826667D01*
X182340000Y-108250000D01*
X182340000Y-108673333D01*
X181916667Y-108673333D01*
X181493333Y-108673333D01*
X181493333Y-107826667D01*
X181493333Y-106980000D01*
X180223333Y-106980000D01*
X178953333Y-106980000D01*
X178953333Y-107403333D01*
X178953333Y-107826667D01*
X179800000Y-107826667D01*
X180646667Y-107826667D01*
X180646667Y-108250000D01*
X180646667Y-108673333D01*
X179800000Y-108673333D01*
X178953333Y-108673333D01*
X178953333Y-109096667D01*
X178953333Y-109520000D01*
X178530000Y-109520000D01*
X178106667Y-109520000D01*
X178106667Y-107826667D01*
X178106667Y-106133333D01*
X179376667Y-106133333D01*
X180646667Y-106133333D01*
X180646667Y-105710000D01*
X180646667Y-105286667D01*
X179376667Y-105286667D01*
X178106667Y-105286667D01*
X178106667Y-104440000D01*
X178106667Y-103593333D01*
X178530000Y-103593333D01*
X178953333Y-103593333D01*
X178953333Y-103170000D01*
X178953333Y-102746667D01*
X181070000Y-102746667D01*
X183186667Y-102746667D01*
X183186667Y-103593333D01*
G37*
G36*
X185303333Y-107826667D02*
G01*
X185726667Y-107826667D01*
X185726667Y-108250000D01*
X185726667Y-108673333D01*
X185303333Y-108673333D01*
X184880000Y-108673333D01*
X184880000Y-108250000D01*
X184880000Y-107826667D01*
X185303333Y-107826667D01*
G37*
G36*
X164560000Y-106133333D02*
G01*
X163713333Y-106133333D01*
X162866667Y-106133333D01*
X162866667Y-106980000D01*
X162866667Y-107826667D01*
X162443333Y-107826667D01*
X162020000Y-107826667D01*
X162020000Y-107403333D01*
X162020000Y-106980000D01*
X161596667Y-106980000D01*
X161173333Y-106980000D01*
X161173333Y-105710000D01*
X161173333Y-105286667D01*
X162020000Y-105286667D01*
X162020000Y-105710000D01*
X162020000Y-106133333D01*
X162443333Y-106133333D01*
X162866667Y-106133333D01*
X162866667Y-105710000D01*
X162866667Y-105286667D01*
X162443333Y-105286667D01*
X162020000Y-105286667D01*
X161173333Y-105286667D01*
X161173333Y-104440000D01*
X161596667Y-104440000D01*
X162020000Y-104440000D01*
X162020000Y-104016667D01*
X162020000Y-103593333D01*
X161596667Y-103593333D01*
X161173333Y-103593333D01*
X161173333Y-102323333D01*
X161173333Y-101053333D01*
X161596667Y-101053333D01*
X162020000Y-101053333D01*
X162020000Y-100630000D01*
X162020000Y-100206667D01*
X161596667Y-100206667D01*
X161173333Y-100206667D01*
X161173333Y-99360000D01*
X161173333Y-98513333D01*
X161596667Y-98513333D01*
X162020000Y-98513333D01*
X162020000Y-98936667D01*
X162020000Y-99360000D01*
X162866667Y-99360000D01*
X163713333Y-99360000D01*
X163713333Y-98936667D01*
X163713333Y-98513333D01*
X164136667Y-98513333D01*
X164560000Y-98513333D01*
X164560000Y-98936667D01*
X164560000Y-99360000D01*
X164136667Y-99360000D01*
X163713333Y-99360000D01*
X163713333Y-99783333D01*
X163713333Y-100206667D01*
X163290000Y-100206667D01*
X162866667Y-100206667D01*
X162866667Y-101053333D01*
X162866667Y-101900000D01*
X162443333Y-101900000D01*
X162020000Y-101900000D01*
X162020000Y-102323333D01*
X162020000Y-102746667D01*
X162443333Y-102746667D01*
X162866667Y-102746667D01*
X162866667Y-104016667D01*
X162866667Y-105286667D01*
X163290000Y-105286667D01*
X163713333Y-105286667D01*
X163713333Y-103170000D01*
X163713333Y-101053333D01*
X164136667Y-101053333D01*
X164560000Y-101053333D01*
X164560000Y-101900000D01*
X164560000Y-102746667D01*
X164983333Y-102746667D01*
X165406667Y-102746667D01*
X165406667Y-103170000D01*
X165406667Y-103593333D01*
X164983333Y-103593333D01*
X164560000Y-103593333D01*
X164560000Y-104863333D01*
X164560000Y-105710000D01*
X164560000Y-106133333D01*
G37*
G36*
X184456667Y-102746667D02*
G01*
X184880000Y-102746667D01*
X184880000Y-103170000D01*
X184880000Y-103593333D01*
X185303333Y-103593333D01*
X185726667Y-103593333D01*
X185726667Y-104016667D01*
X185726667Y-104440000D01*
X185303333Y-104440000D01*
X184880000Y-104440000D01*
X184880000Y-105286667D01*
X184880000Y-106133333D01*
X184456667Y-106133333D01*
X184033333Y-106133333D01*
X184033333Y-104440000D01*
X184033333Y-102746667D01*
X184456667Y-102746667D01*
G37*
G36*
X175566667Y-97666667D02*
G01*
X175143333Y-97666667D01*
X174720000Y-97666667D01*
X174720000Y-98090000D01*
X174720000Y-98513333D01*
X176836667Y-98513333D01*
X178953333Y-98513333D01*
X178953333Y-98936667D01*
X178953333Y-99360000D01*
X180223333Y-99360000D01*
X181493333Y-99360000D01*
X182340000Y-99360000D01*
X182340000Y-99783333D01*
X182340000Y-100206667D01*
X183186667Y-100206667D01*
X184033333Y-100206667D01*
X184033333Y-99360000D01*
X184033333Y-98513333D01*
X183610000Y-98513333D01*
X183186667Y-98513333D01*
X183186667Y-98936667D01*
X183186667Y-99360000D01*
X182763333Y-99360000D01*
X182340000Y-99360000D01*
X181493333Y-99360000D01*
X181493333Y-98513333D01*
X181493333Y-97666667D01*
X181916667Y-97666667D01*
X182340000Y-97666667D01*
X182340000Y-98090000D01*
X182340000Y-98513333D01*
X182763333Y-98513333D01*
X183186667Y-98513333D01*
X183186667Y-98090000D01*
X183186667Y-97666667D01*
X183610000Y-97666667D01*
X184033333Y-97666667D01*
X184033333Y-98090000D01*
X184033333Y-98513333D01*
X184456667Y-98513333D01*
X184880000Y-98513333D01*
X184880000Y-98090000D01*
X184880000Y-97666667D01*
X185303333Y-97666667D01*
X185726667Y-97666667D01*
X185726667Y-98090000D01*
X185726667Y-98513333D01*
X185303333Y-98513333D01*
X184880000Y-98513333D01*
X184880000Y-99360000D01*
X184880000Y-100206667D01*
X184456667Y-100206667D01*
X184033333Y-100206667D01*
X184033333Y-101476667D01*
X184033333Y-102746667D01*
X183610000Y-102746667D01*
X183186667Y-102746667D01*
X183186667Y-101900000D01*
X183186667Y-101053333D01*
X182763333Y-101053333D01*
X182340000Y-101053333D01*
X182340000Y-101476667D01*
X182340000Y-101900000D01*
X181916667Y-101900000D01*
X181493333Y-101900000D01*
X181493333Y-101053333D01*
X181493333Y-100206667D01*
X180223333Y-100206667D01*
X178953333Y-100206667D01*
X178953333Y-100630000D01*
X178953333Y-101053333D01*
X179800000Y-101053333D01*
X180646667Y-101053333D01*
X180646667Y-101476667D01*
X180646667Y-101900000D01*
X179376667Y-101900000D01*
X178106667Y-101900000D01*
X178106667Y-102323333D01*
X178106667Y-102746667D01*
X177683333Y-102746667D01*
X177260000Y-102746667D01*
X177260000Y-102323333D01*
X177260000Y-101900000D01*
X176836667Y-101900000D01*
X176413333Y-101900000D01*
X176413333Y-101476667D01*
X176413333Y-101053333D01*
X177260000Y-101053333D01*
X178106667Y-101053333D01*
X178106667Y-100206667D01*
X178106667Y-99360000D01*
X177683333Y-99360000D01*
X177260000Y-99360000D01*
X177260000Y-99783333D01*
X177260000Y-100206667D01*
X176836667Y-100206667D01*
X176413333Y-100206667D01*
X176413333Y-99783333D01*
X176413333Y-99360000D01*
X175566667Y-99360000D01*
X174720000Y-99360000D01*
X174720000Y-100206667D01*
X174720000Y-101053333D01*
X174296667Y-101053333D01*
X173873333Y-101053333D01*
X173873333Y-100630000D01*
X173873333Y-100206667D01*
X173450000Y-100206667D01*
X173026667Y-100206667D01*
X173026667Y-99360000D01*
X173026667Y-98513333D01*
X172603333Y-98513333D01*
X172180000Y-98513333D01*
X172180000Y-98936667D01*
X172180000Y-99360000D01*
X171756667Y-99360000D01*
X171333333Y-99360000D01*
X171333333Y-98513333D01*
X171333333Y-98090000D01*
X173026667Y-98090000D01*
X173026667Y-98513333D01*
X173450000Y-98513333D01*
X173873333Y-98513333D01*
X173873333Y-98090000D01*
X173873333Y-97666667D01*
X173450000Y-97666667D01*
X173026667Y-97666667D01*
X173026667Y-98090000D01*
X171333333Y-98090000D01*
X171333333Y-97666667D01*
X170486667Y-97666667D01*
X169640000Y-97666667D01*
X169640000Y-98090000D01*
X169640000Y-98513333D01*
X169216667Y-98513333D01*
X168793333Y-98513333D01*
X168793333Y-99360000D01*
X168793333Y-100206667D01*
X169216667Y-100206667D01*
X169640000Y-100206667D01*
X169640000Y-100630000D01*
X169640000Y-101053333D01*
X168793333Y-101053333D01*
X167946667Y-101053333D01*
X167946667Y-100630000D01*
X167946667Y-100206667D01*
X167100000Y-100206667D01*
X166253333Y-100206667D01*
X166253333Y-100630000D01*
X166253333Y-101053333D01*
X165406667Y-101053333D01*
X164560000Y-101053333D01*
X164560000Y-100206667D01*
X164560000Y-99360000D01*
X164983333Y-99360000D01*
X165406667Y-99360000D01*
X165406667Y-99783333D01*
X165406667Y-100206667D01*
X165830000Y-100206667D01*
X166253333Y-100206667D01*
X166253333Y-99360000D01*
X166253333Y-98513333D01*
X166676667Y-98513333D01*
X167100000Y-98513333D01*
X167100000Y-98936667D01*
X167100000Y-99360000D01*
X167523333Y-99360000D01*
X167946667Y-99360000D01*
X167946667Y-98513333D01*
X167946667Y-97666667D01*
X168370000Y-97666667D01*
X168793333Y-97666667D01*
X168793333Y-97243333D01*
X168793333Y-96820000D01*
X168370000Y-96820000D01*
X167946667Y-96820000D01*
X167946667Y-96396667D01*
X167946667Y-95973333D01*
X168370000Y-95973333D01*
X168793333Y-95973333D01*
X168793333Y-96396667D01*
X168793333Y-96820000D01*
X169216667Y-96820000D01*
X169640000Y-96820000D01*
X169640000Y-96396667D01*
X169640000Y-95973333D01*
X170063333Y-95973333D01*
X170486667Y-95973333D01*
X170486667Y-96396667D01*
X170486667Y-96820000D01*
X170910000Y-96820000D01*
X171333333Y-96820000D01*
X171333333Y-96396667D01*
X171333333Y-95973333D01*
X171756667Y-95973333D01*
X172180000Y-95973333D01*
X172180000Y-96820000D01*
X172180000Y-97666667D01*
X172603333Y-97666667D01*
X173026667Y-97666667D01*
X173026667Y-96820000D01*
X173026667Y-95973333D01*
X173873333Y-95973333D01*
X173873333Y-96396667D01*
X173873333Y-96820000D01*
X174296667Y-96820000D01*
X174720000Y-96820000D01*
X174720000Y-96396667D01*
X174720000Y-95973333D01*
X174296667Y-95973333D01*
X173873333Y-95973333D01*
X173026667Y-95973333D01*
X172603333Y-95973333D01*
X172180000Y-95973333D01*
X172180000Y-95126667D01*
X172180000Y-94280000D01*
X171756667Y-94280000D01*
X171333333Y-94280000D01*
X171333333Y-93856667D01*
X171333333Y-93433333D01*
X172603333Y-93433333D01*
X173873333Y-93433333D01*
X173873333Y-94280000D01*
X173873333Y-95126667D01*
X174296667Y-95126667D01*
X174720000Y-95126667D01*
X174720000Y-94280000D01*
X174720000Y-93433333D01*
X175143333Y-93433333D01*
X175566667Y-93433333D01*
X175566667Y-93856667D01*
X175566667Y-94280000D01*
X175990000Y-94280000D01*
X176413333Y-94280000D01*
X176413333Y-93433333D01*
X176413333Y-92586667D01*
X175990000Y-92586667D01*
X175566667Y-92586667D01*
X175566667Y-92163333D01*
X175566667Y-91740000D01*
X175143333Y-91740000D01*
X174720000Y-91740000D01*
X174720000Y-92163333D01*
X174720000Y-92586667D01*
X174296667Y-92586667D01*
X173873333Y-92586667D01*
X173873333Y-92163333D01*
X173873333Y-91740000D01*
X173450000Y-91740000D01*
X173026667Y-91740000D01*
X173026667Y-92163333D01*
X173026667Y-92586667D01*
X172603333Y-92586667D01*
X172180000Y-92586667D01*
X172180000Y-91740000D01*
X172180000Y-90893333D01*
X174296667Y-90893333D01*
X176413333Y-90893333D01*
X176413333Y-91316667D01*
X176413333Y-91740000D01*
X177683333Y-91740000D01*
X178953333Y-91740000D01*
X178953333Y-92163333D01*
X178953333Y-92586667D01*
X178530000Y-92586667D01*
X178106667Y-92586667D01*
X178106667Y-93433333D01*
X178106667Y-94280000D01*
X177683333Y-94280000D01*
X177260000Y-94280000D01*
X177260000Y-94703333D01*
X177260000Y-95126667D01*
X177683333Y-95126667D01*
X178106667Y-95126667D01*
X178106667Y-94703333D01*
X178106667Y-94280000D01*
X178530000Y-94280000D01*
X178953333Y-94280000D01*
X178953333Y-94703333D01*
X178953333Y-95126667D01*
X178530000Y-95126667D01*
X178106667Y-95126667D01*
X178106667Y-95550000D01*
X178106667Y-95973333D01*
X177683333Y-95973333D01*
X177260000Y-95973333D01*
X177260000Y-95550000D01*
X177260000Y-95126667D01*
X176413333Y-95126667D01*
X175566667Y-95126667D01*
X175566667Y-96396667D01*
X175566667Y-97666667D01*
G37*
G36*
X185303333Y-100206667D02*
G01*
X185726667Y-100206667D01*
X185726667Y-100630000D01*
X185726667Y-101053333D01*
X185303333Y-101053333D01*
X184880000Y-101053333D01*
X184880000Y-100630000D01*
X184880000Y-100206667D01*
X185303333Y-100206667D01*
G37*
G36*
X178530000Y-95973333D02*
G01*
X178953333Y-95973333D01*
X178953333Y-96396667D01*
X178953333Y-96820000D01*
X178530000Y-96820000D01*
X178106667Y-96820000D01*
X178106667Y-96396667D01*
X178106667Y-95973333D01*
X178530000Y-95973333D01*
G37*
G36*
X170486667Y-93856667D02*
G01*
X170486667Y-94280000D01*
X170063333Y-94280000D01*
X169640000Y-94280000D01*
X169640000Y-95126667D01*
X169640000Y-95973333D01*
X169216667Y-95973333D01*
X168793333Y-95973333D01*
X168793333Y-94703333D01*
X168793333Y-93433333D01*
X169640000Y-93433333D01*
X170486667Y-93433333D01*
X170486667Y-93856667D01*
G37*
G36*
X171333333Y-109943333D02*
G01*
X171333333Y-110366667D01*
X171756667Y-110366667D01*
X172180000Y-110366667D01*
X172180000Y-111213333D01*
X172180000Y-112060000D01*
X172603333Y-112060000D01*
X173026667Y-112060000D01*
X173026667Y-112483333D01*
X173026667Y-112906667D01*
X171756667Y-112906667D01*
X170486667Y-112906667D01*
X170486667Y-112483333D01*
X170486667Y-112060000D01*
X170910000Y-112060000D01*
X171333333Y-112060000D01*
X171333333Y-111636667D01*
X171333333Y-111213333D01*
X170486667Y-111213333D01*
X169640000Y-111213333D01*
X169640000Y-110790000D01*
X169640000Y-110366667D01*
X170063333Y-110366667D01*
X170486667Y-110366667D01*
X170486667Y-109943333D01*
X170486667Y-109520000D01*
X170910000Y-109520000D01*
X171333333Y-109520000D01*
X171333333Y-109943333D01*
G37*
G36*
X171333333Y-100206667D02*
G01*
X172180000Y-100206667D01*
X172180000Y-100630000D01*
X172180000Y-101053333D01*
X173026667Y-101053333D01*
X173873333Y-101053333D01*
X173873333Y-101476667D01*
X173873333Y-101900000D01*
X173026667Y-101900000D01*
X172180000Y-101900000D01*
X172180000Y-102746667D01*
X172180000Y-103593333D01*
X171756667Y-103593333D01*
X171333333Y-103593333D01*
X171333333Y-103170000D01*
X171333333Y-102746667D01*
X170910000Y-102746667D01*
X170486667Y-102746667D01*
X170486667Y-101476667D01*
X170486667Y-100206667D01*
X171333333Y-100206667D01*
G37*
G36*
X170486667Y-99783333D02*
G01*
X170486667Y-100206667D01*
X170063333Y-100206667D01*
X169640000Y-100206667D01*
X169640000Y-99783333D01*
X169640000Y-99360000D01*
X170063333Y-99360000D01*
X170486667Y-99360000D01*
X170486667Y-99783333D01*
G37*
G36*
X185726667Y-115446667D02*
G01*
X182763333Y-115446667D01*
X179800000Y-115446667D01*
X179800000Y-112483333D01*
X179800000Y-110366667D01*
X180646667Y-110366667D01*
X180646667Y-112483333D01*
X180646667Y-114600000D01*
X182763333Y-114600000D01*
X184880000Y-114600000D01*
X184880000Y-112483333D01*
X184880000Y-110366667D01*
X182763333Y-110366667D01*
X180646667Y-110366667D01*
X179800000Y-110366667D01*
X179800000Y-109520000D01*
X182763333Y-109520000D01*
X185726667Y-109520000D01*
X185726667Y-112483333D01*
X185726667Y-115446667D01*
G37*
G36*
X185726667Y-96820000D02*
G01*
X182763333Y-96820000D01*
X179800000Y-96820000D01*
X179800000Y-93856667D01*
X179800000Y-91740000D01*
X180646667Y-91740000D01*
X180646667Y-93856667D01*
X180646667Y-95973333D01*
X182763333Y-95973333D01*
X184880000Y-95973333D01*
X184880000Y-93856667D01*
X184880000Y-91740000D01*
X182763333Y-91740000D01*
X180646667Y-91740000D01*
X179800000Y-91740000D01*
X179800000Y-90893333D01*
X182763333Y-90893333D01*
X185726667Y-90893333D01*
X185726667Y-93856667D01*
X185726667Y-96820000D01*
G37*
G36*
X167100000Y-96820000D02*
G01*
X164136667Y-96820000D01*
X161173333Y-96820000D01*
X161173333Y-93856667D01*
X161173333Y-91740000D01*
X162020000Y-91740000D01*
X162020000Y-93856667D01*
X162020000Y-95973333D01*
X164136667Y-95973333D01*
X166253333Y-95973333D01*
X166253333Y-93856667D01*
X166253333Y-91740000D01*
X164136667Y-91740000D01*
X162020000Y-91740000D01*
X161173333Y-91740000D01*
X161173333Y-90893333D01*
X164136667Y-90893333D01*
X167100000Y-90893333D01*
X167100000Y-93856667D01*
X167100000Y-96820000D01*
G37*
G36*
X175990000Y-102746667D02*
G01*
X176413333Y-102746667D01*
X176413333Y-103170000D01*
X176413333Y-103593333D01*
X175990000Y-103593333D01*
X175566667Y-103593333D01*
X175566667Y-103170000D01*
X175566667Y-102746667D01*
X175990000Y-102746667D01*
G37*
G36*
X175566667Y-102323333D02*
G01*
X175566667Y-102746667D01*
X175143333Y-102746667D01*
X174720000Y-102746667D01*
X174720000Y-102323333D01*
X174720000Y-101900000D01*
X175143333Y-101900000D01*
X175566667Y-101900000D01*
X175566667Y-102323333D01*
G37*
G36*
X169640000Y-91316667D02*
G01*
X169640000Y-91740000D01*
X170486667Y-91740000D01*
X171333333Y-91740000D01*
X171333333Y-92163333D01*
X171333333Y-92586667D01*
X169640000Y-92586667D01*
X167946667Y-92586667D01*
X167946667Y-92163333D01*
X167946667Y-91740000D01*
X168370000Y-91740000D01*
X168793333Y-91740000D01*
X168793333Y-91316667D01*
X168793333Y-90893333D01*
X169216667Y-90893333D01*
X169640000Y-90893333D01*
X169640000Y-91316667D01*
G37*
G36*
X171333333Y-104440000D02*
G01*
X171333333Y-105286667D01*
X170910000Y-105286667D01*
X170486667Y-105286667D01*
X170486667Y-104863333D01*
X170486667Y-104440000D01*
X170063333Y-104440000D01*
X169640000Y-104440000D01*
X169640000Y-104016667D01*
X169640000Y-103593333D01*
X170486667Y-103593333D01*
X171333333Y-103593333D01*
X171333333Y-104440000D01*
G37*
G36*
X184033333Y-112483333D02*
G01*
X184033333Y-113753333D01*
X182763333Y-113753333D01*
X181493333Y-113753333D01*
X181493333Y-112483333D01*
X181493333Y-111213333D01*
X182763333Y-111213333D01*
X184033333Y-111213333D01*
X184033333Y-112483333D01*
G37*
G36*
X184033333Y-93856667D02*
G01*
X184033333Y-95126667D01*
X182763333Y-95126667D01*
X181493333Y-95126667D01*
X181493333Y-93856667D01*
X181493333Y-92586667D01*
X182763333Y-92586667D01*
X184033333Y-92586667D01*
X184033333Y-93856667D01*
G37*
G36*
X180646667Y-98090000D02*
G01*
X180646667Y-98513333D01*
X180223333Y-98513333D01*
X179800000Y-98513333D01*
X179800000Y-98090000D01*
X179800000Y-97666667D01*
X180223333Y-97666667D01*
X180646667Y-97666667D01*
X180646667Y-98090000D01*
G37*
G36*
X177260000Y-96396667D02*
G01*
X177260000Y-96820000D01*
X176836667Y-96820000D01*
X176413333Y-96820000D01*
X176413333Y-96396667D01*
X176413333Y-95973333D01*
X176836667Y-95973333D01*
X177260000Y-95973333D01*
X177260000Y-96396667D01*
G37*
G36*
X176413333Y-100630000D02*
G01*
X176413333Y-101053333D01*
X175990000Y-101053333D01*
X175566667Y-101053333D01*
X175566667Y-100630000D01*
X175566667Y-100206667D01*
X175990000Y-100206667D01*
X176413333Y-100206667D01*
X176413333Y-100630000D01*
G37*
G36*
X174720000Y-112483333D02*
G01*
X174720000Y-112906667D01*
X174296667Y-112906667D01*
X173873333Y-112906667D01*
X173873333Y-112483333D01*
X173873333Y-112060000D01*
X174296667Y-112060000D01*
X174720000Y-112060000D01*
X174720000Y-112483333D01*
G37*
G36*
X174720000Y-109943333D02*
G01*
X174720000Y-110366667D01*
X174296667Y-110366667D01*
X173873333Y-110366667D01*
X173873333Y-109943333D01*
X173873333Y-109520000D01*
X174296667Y-109520000D01*
X174720000Y-109520000D01*
X174720000Y-109943333D01*
G37*
G36*
X174720000Y-103170000D02*
G01*
X174720000Y-103593333D01*
X174296667Y-103593333D01*
X173873333Y-103593333D01*
X173873333Y-103170000D01*
X173873333Y-102746667D01*
X174296667Y-102746667D01*
X174720000Y-102746667D01*
X174720000Y-103170000D01*
G37*
G36*
X167100000Y-109943333D02*
G01*
X167100000Y-110366667D01*
X166676667Y-110366667D01*
X166253333Y-110366667D01*
X166253333Y-109943333D01*
X166253333Y-109520000D01*
X166676667Y-109520000D01*
X167100000Y-109520000D01*
X167100000Y-109943333D01*
G37*
G36*
X165406667Y-98090000D02*
G01*
X165406667Y-98513333D01*
X164983333Y-98513333D01*
X164560000Y-98513333D01*
X164560000Y-98090000D01*
X164560000Y-97666667D01*
X164983333Y-97666667D01*
X165406667Y-97666667D01*
X165406667Y-98090000D01*
G37*
G36*
X165406667Y-93856667D02*
G01*
X165406667Y-95126667D01*
X164136667Y-95126667D01*
X162866667Y-95126667D01*
X162866667Y-93856667D01*
X162866667Y-92586667D01*
X164136667Y-92586667D01*
X165406667Y-92586667D01*
X165406667Y-93856667D01*
G37*
G36*
X162866667Y-98090000D02*
G01*
X162866667Y-98513333D01*
X162443333Y-98513333D01*
X162020000Y-98513333D01*
X162020000Y-98090000D01*
X162020000Y-97666667D01*
X162443333Y-97666667D01*
X162866667Y-97666667D01*
X162866667Y-98090000D01*
G37*
%TO.C,G3*%
G36*
X149337109Y-102961666D02*
G01*
X149336485Y-103042326D01*
X149291868Y-103767294D01*
X149253116Y-103970611D01*
X149188567Y-104309277D01*
X149179153Y-104358666D01*
X149130225Y-104515196D01*
X148972171Y-104935908D01*
X148839387Y-105247666D01*
X148757576Y-105439745D01*
X148614282Y-105751012D01*
X148505886Y-105986471D01*
X148236548Y-106535849D01*
X147969010Y-107047643D01*
X147722717Y-107481616D01*
X147517117Y-107797531D01*
X147461260Y-107872635D01*
X147116393Y-108302408D01*
X146747102Y-108714576D01*
X146383504Y-109078674D01*
X146055713Y-109364237D01*
X145793846Y-109540802D01*
X145640031Y-109611365D01*
X145237742Y-109711285D01*
X144907763Y-109671154D01*
X144666881Y-109507167D01*
X144531883Y-109235521D01*
X144526877Y-109088066D01*
X144640124Y-109088066D01*
X144775301Y-109419827D01*
X144898959Y-109540828D01*
X145153420Y-109614368D01*
X145471105Y-109557943D01*
X145836195Y-109379999D01*
X146232873Y-109088979D01*
X146645320Y-108693326D01*
X147057717Y-108201485D01*
X147134468Y-108099679D01*
X147465287Y-107642056D01*
X147696312Y-107281866D01*
X147840694Y-106996991D01*
X147911582Y-106765313D01*
X147956950Y-106582997D01*
X148034198Y-106383134D01*
X148077472Y-106246334D01*
X148107072Y-106008818D01*
X148111433Y-105751012D01*
X148090025Y-105535411D01*
X148042318Y-105424509D01*
X148002918Y-105428085D01*
X147876079Y-105521583D01*
X147713980Y-105698028D01*
X147625700Y-105800073D01*
X147362777Y-106060366D01*
X147087996Y-106289282D01*
X146989828Y-106361690D01*
X146708703Y-106569189D01*
X146369774Y-106819481D01*
X146026124Y-107073373D01*
X145604975Y-107410368D01*
X145147924Y-107863637D01*
X144831434Y-108300594D01*
X144660501Y-108711863D01*
X144640124Y-109088066D01*
X144526877Y-109088066D01*
X144519555Y-108872411D01*
X144646684Y-108434032D01*
X144668757Y-108385406D01*
X144926651Y-107982942D01*
X145334450Y-107535582D01*
X145883090Y-107052271D01*
X146563508Y-106541957D01*
X147195786Y-106036189D01*
X147727865Y-105447344D01*
X147846344Y-105247666D01*
X148030167Y-105247666D01*
X148072500Y-105290000D01*
X148114834Y-105247666D01*
X148072500Y-105205333D01*
X148030167Y-105247666D01*
X147846344Y-105247666D01*
X148115797Y-104793547D01*
X148284130Y-104307085D01*
X148974803Y-104307085D01*
X148995014Y-104420402D01*
X149023916Y-104419091D01*
X149039483Y-104309277D01*
X149025925Y-104226054D01*
X149019346Y-104231666D01*
X148988330Y-104258125D01*
X148974803Y-104307085D01*
X148284130Y-104307085D01*
X148310228Y-104231666D01*
X148453500Y-104231666D01*
X148495834Y-104274000D01*
X148538167Y-104231666D01*
X148495834Y-104189333D01*
X148453500Y-104231666D01*
X148310228Y-104231666D01*
X148371700Y-104054019D01*
X148383973Y-103977666D01*
X148538167Y-103977666D01*
X148580500Y-104020000D01*
X148622834Y-103977666D01*
X148613587Y-103968419D01*
X149059470Y-103968419D01*
X149061119Y-103977666D01*
X149079681Y-104081736D01*
X149108583Y-104080425D01*
X149124150Y-103970611D01*
X149110592Y-103887388D01*
X149072997Y-103919458D01*
X149059470Y-103968419D01*
X148613587Y-103968419D01*
X148580500Y-103935333D01*
X148538167Y-103977666D01*
X148383973Y-103977666D01*
X148507689Y-103207985D01*
X148512247Y-103150738D01*
X148507286Y-102636262D01*
X148423136Y-102181703D01*
X148269258Y-101820933D01*
X148055116Y-101587823D01*
X147961378Y-101530625D01*
X147932582Y-101522333D01*
X148199500Y-101522333D01*
X148241834Y-101564666D01*
X148284167Y-101522333D01*
X148241834Y-101480000D01*
X148199500Y-101522333D01*
X147932582Y-101522333D01*
X147840682Y-101495870D01*
X147696287Y-101532637D01*
X147466517Y-101647142D01*
X147317939Y-101731432D01*
X147123736Y-101867753D01*
X146945682Y-102036540D01*
X146772973Y-102255804D01*
X146594804Y-102543556D01*
X146400373Y-102917807D01*
X146178874Y-103396568D01*
X145919505Y-103997851D01*
X145611460Y-104739666D01*
X145566317Y-104848704D01*
X145357408Y-105335153D01*
X145141046Y-105814322D01*
X144940301Y-106236080D01*
X144778242Y-106550297D01*
X144477529Y-107019381D01*
X144077457Y-107517809D01*
X143632775Y-107975589D01*
X143180840Y-108354499D01*
X142759009Y-108616317D01*
X142756147Y-108617699D01*
X142570781Y-108703319D01*
X142439732Y-108772224D01*
X142366801Y-108848050D01*
X142355787Y-108954437D01*
X142410490Y-109115020D01*
X142534712Y-109353439D01*
X142732251Y-109693331D01*
X143006907Y-110158333D01*
X143157941Y-110424072D01*
X143389956Y-110861314D01*
X143595496Y-111280724D01*
X143742897Y-111619439D01*
X143763175Y-111670756D01*
X143896853Y-111973519D01*
X144024887Y-112212261D01*
X144122054Y-112339106D01*
X144188147Y-112401775D01*
X144343288Y-112589567D01*
X144531222Y-112846409D01*
X144724747Y-113131642D01*
X144896660Y-113404610D01*
X145019756Y-113624657D01*
X145066834Y-113751126D01*
X145036364Y-113858797D01*
X144926712Y-114025166D01*
X144872536Y-114074510D01*
X144619847Y-114168199D01*
X144290841Y-114144905D01*
X143920569Y-114005319D01*
X143899486Y-113994603D01*
X143623428Y-113887196D01*
X143313100Y-113810395D01*
X143016894Y-113770905D01*
X142783202Y-113775432D01*
X142660416Y-113830683D01*
X142642372Y-113849322D01*
X142492638Y-113904004D01*
X142263989Y-113926000D01*
X142256300Y-113925974D01*
X141911592Y-113860158D01*
X141676660Y-113689175D01*
X141566046Y-113444724D01*
X141594294Y-113158502D01*
X141775945Y-112862209D01*
X141878946Y-112689285D01*
X141934167Y-112443509D01*
X141985355Y-112223801D01*
X142157090Y-111966917D01*
X142236497Y-111881137D01*
X142324445Y-111745180D01*
X142334947Y-111591426D01*
X142282657Y-111347601D01*
X142281689Y-111343795D01*
X142185171Y-111072501D01*
X142027844Y-110734546D01*
X141843276Y-110402163D01*
X141804435Y-110338146D01*
X141655880Y-110080936D01*
X141559206Y-109892844D01*
X141533766Y-109810845D01*
X141563523Y-109834773D01*
X141665081Y-109973617D01*
X141818491Y-110209400D01*
X142004224Y-110512973D01*
X142237235Y-110931982D01*
X142394980Y-111305067D01*
X142444320Y-111592534D01*
X142388435Y-111815177D01*
X142230500Y-111993793D01*
X142201265Y-112019458D01*
X142087947Y-112183116D01*
X142020136Y-112381449D01*
X142003441Y-112567012D01*
X142043471Y-112692361D01*
X142145834Y-112710048D01*
X142210773Y-112696739D01*
X142272834Y-112743323D01*
X142228939Y-112795044D01*
X142078101Y-112825333D01*
X141861061Y-112873542D01*
X141723790Y-113043210D01*
X141680167Y-113347287D01*
X141680393Y-113374245D01*
X141721261Y-113620358D01*
X141843934Y-113753687D01*
X142098751Y-113829497D01*
X142402031Y-113823194D01*
X142648512Y-113728694D01*
X142710488Y-113692725D01*
X142913589Y-113654612D01*
X143228040Y-113683316D01*
X143381891Y-113704083D01*
X143606267Y-113719442D01*
X143725179Y-113706291D01*
X143750647Y-113696719D01*
X143796834Y-113755990D01*
X143804534Y-113781443D01*
X143916644Y-113879389D01*
X144117120Y-113981855D01*
X144347686Y-114062588D01*
X144550067Y-114095333D01*
X144743572Y-114035220D01*
X144910968Y-113892999D01*
X144982167Y-113727639D01*
X144958886Y-113663249D01*
X144854624Y-113483687D01*
X144691880Y-113237493D01*
X144498507Y-112963750D01*
X144302360Y-112701538D01*
X144131293Y-112489939D01*
X144013158Y-112368034D01*
X143978753Y-112328294D01*
X143874390Y-112149101D01*
X143741224Y-111872312D01*
X143599691Y-111538904D01*
X143566602Y-111457886D01*
X143363188Y-111005667D01*
X143121829Y-110522327D01*
X142887874Y-110099571D01*
X142737737Y-109847568D01*
X142483824Y-109420466D01*
X142297982Y-109095807D01*
X142169797Y-108843341D01*
X142088859Y-108632819D01*
X142044757Y-108433989D01*
X142027077Y-108216602D01*
X142025409Y-107950407D01*
X142029342Y-107605154D01*
X142030138Y-107239334D01*
X142017904Y-106755687D01*
X141982989Y-106373200D01*
X141918594Y-106049912D01*
X141828765Y-105776833D01*
X141966967Y-105776833D01*
X142068154Y-106147883D01*
X142150401Y-106592279D01*
X142178726Y-107045904D01*
X142161511Y-107586746D01*
X142149621Y-107814980D01*
X142139903Y-108157221D01*
X142142752Y-108417212D01*
X142158313Y-108551656D01*
X142162009Y-108560921D01*
X142247323Y-108657188D01*
X142400848Y-108648189D01*
X142653834Y-108532731D01*
X143121488Y-108244679D01*
X143584058Y-107869207D01*
X144010846Y-107412141D01*
X144414181Y-106856330D01*
X144806392Y-106184623D01*
X145199808Y-105379870D01*
X145606757Y-104424920D01*
X145654314Y-104307426D01*
X145842856Y-103848438D01*
X146025212Y-103414040D01*
X146182636Y-103048504D01*
X146296385Y-102796103D01*
X146405289Y-102588008D01*
X146770296Y-102086088D01*
X147215009Y-101694523D01*
X147709230Y-101442248D01*
X148171706Y-101285047D01*
X148432774Y-101478063D01*
X148470677Y-101507535D01*
X148484478Y-101522333D01*
X148616138Y-101663501D01*
X148649279Y-101787206D01*
X148639996Y-101842871D01*
X148702762Y-101903333D01*
X148713184Y-101904561D01*
X148813444Y-101998861D01*
X148928425Y-102216406D01*
X149041125Y-102519163D01*
X149134541Y-102869101D01*
X149141919Y-102902742D01*
X149174970Y-103029727D01*
X149191571Y-103025243D01*
X149193791Y-102876771D01*
X149183699Y-102571795D01*
X149181979Y-102533118D01*
X149098228Y-101913241D01*
X148914893Y-101427271D01*
X148633306Y-101076900D01*
X148254800Y-100863821D01*
X147780706Y-100789726D01*
X147740838Y-100789727D01*
X147363324Y-100826158D01*
X147008673Y-100937922D01*
X146661226Y-101138080D01*
X146305328Y-101439690D01*
X145925321Y-101855814D01*
X145505547Y-102399510D01*
X145030350Y-103083839D01*
X144917997Y-103250264D01*
X144544717Y-103782626D01*
X144204992Y-104235844D01*
X143916074Y-104587544D01*
X143695219Y-104815349D01*
X143532406Y-104949340D01*
X143155544Y-105211674D01*
X142769234Y-105427838D01*
X142417773Y-105574585D01*
X142145458Y-105628666D01*
X142101930Y-105629518D01*
X141971907Y-105666216D01*
X141966967Y-105776833D01*
X141828765Y-105776833D01*
X141817919Y-105743861D01*
X141674166Y-105413083D01*
X141460565Y-105047372D01*
X141151263Y-104640160D01*
X140792886Y-104247601D01*
X140427130Y-103915246D01*
X140095694Y-103688650D01*
X140005601Y-103639244D01*
X139869175Y-103551989D01*
X139849034Y-103515741D01*
X139875232Y-103498791D01*
X139841011Y-103406166D01*
X139823397Y-103382427D01*
X139729566Y-103211854D01*
X139691549Y-103065879D01*
X139726313Y-103004000D01*
X139787376Y-103056236D01*
X139851813Y-103213850D01*
X139920253Y-103340822D01*
X140103536Y-103544812D01*
X140357265Y-103758192D01*
X140764755Y-104096738D01*
X141249342Y-104608573D01*
X141624331Y-105140378D01*
X141670777Y-105216694D01*
X141806459Y-105402863D01*
X141910200Y-105496479D01*
X142059971Y-105506142D01*
X142333309Y-105442446D01*
X142667595Y-105312213D01*
X143020423Y-105132426D01*
X143349388Y-104920069D01*
X143437327Y-104854002D01*
X143660026Y-104669712D01*
X143870659Y-104462184D01*
X144089137Y-104207071D01*
X144335368Y-103880021D01*
X144629263Y-103456686D01*
X144990732Y-102912716D01*
X145127728Y-102712582D01*
X145451372Y-102281394D01*
X145799094Y-101860206D01*
X146116034Y-101517059D01*
X146119025Y-101514088D01*
X146438956Y-101210225D01*
X146696299Y-101005398D01*
X146936189Y-100868552D01*
X147203761Y-100768631D01*
X147604114Y-100678767D01*
X148081396Y-100688170D01*
X148489430Y-100850801D01*
X148834033Y-101169322D01*
X149121020Y-101646397D01*
X149176535Y-101769747D01*
X149261143Y-102001516D01*
X149310242Y-102241727D01*
X149332632Y-102543927D01*
X149336199Y-102876771D01*
X149337109Y-102961666D01*
G37*
G36*
X140484482Y-108501287D02*
G01*
X140565060Y-108549666D01*
X140627805Y-108587338D01*
X140694614Y-108634333D01*
X140814979Y-108719000D01*
X140917482Y-108791103D01*
X141033249Y-108910424D01*
X141120339Y-109000188D01*
X141287705Y-109263287D01*
X141381947Y-109443676D01*
X141463568Y-109626041D01*
X141472469Y-109688846D01*
X141409586Y-109620537D01*
X141275854Y-109409556D01*
X141266849Y-109394317D01*
X141182044Y-109264319D01*
X141088842Y-109182098D01*
X140947091Y-109133095D01*
X140716636Y-109102749D01*
X140357324Y-109076502D01*
X140290314Y-109071536D01*
X139852756Y-109020193D01*
X139412481Y-108942320D01*
X139055500Y-108852704D01*
X138768989Y-108765924D01*
X138536218Y-108702411D01*
X138413524Y-108677758D01*
X138377184Y-108701309D01*
X138301648Y-108845943D01*
X138233134Y-109078833D01*
X138144386Y-109481000D01*
X138184898Y-109015333D01*
X138202184Y-108761459D01*
X138184742Y-108596695D01*
X138109534Y-108492408D01*
X137955924Y-108392461D01*
X137684674Y-108199457D01*
X137352467Y-107898750D01*
X137029483Y-107552471D01*
X136759248Y-107207657D01*
X136585291Y-106911345D01*
X136479385Y-106602409D01*
X136390977Y-106010826D01*
X136416582Y-105462403D01*
X136521529Y-105462403D01*
X136531608Y-105840333D01*
X136556476Y-106227397D01*
X136628004Y-106646667D01*
X136764089Y-106991303D01*
X136987869Y-107314858D01*
X137322480Y-107670885D01*
X137574866Y-107907619D01*
X137997908Y-108239827D01*
X138429521Y-108481069D01*
X138928500Y-108667846D01*
X139148905Y-108729608D01*
X139548245Y-108819179D01*
X139902167Y-108875136D01*
X140131224Y-108898414D01*
X140243207Y-108904444D01*
X140206250Y-108885951D01*
X140181573Y-108879513D01*
X140687098Y-108879513D01*
X140688229Y-108904444D01*
X140688409Y-108908415D01*
X140798223Y-108923982D01*
X140881446Y-108910424D01*
X140849375Y-108872829D01*
X140800415Y-108859302D01*
X140687098Y-108879513D01*
X140181573Y-108879513D01*
X140030630Y-108840134D01*
X139962604Y-108821915D01*
X139741332Y-108745459D01*
X139693341Y-108719000D01*
X140494834Y-108719000D01*
X140537167Y-108761333D01*
X140579500Y-108719000D01*
X140537167Y-108676666D01*
X140494834Y-108719000D01*
X139693341Y-108719000D01*
X139611530Y-108673895D01*
X139592445Y-108659781D01*
X139507635Y-108634333D01*
X140325500Y-108634333D01*
X140367834Y-108676666D01*
X140410167Y-108634333D01*
X140367834Y-108592000D01*
X140325500Y-108634333D01*
X139507635Y-108634333D01*
X139431533Y-108611498D01*
X139197534Y-108592000D01*
X139002613Y-108584196D01*
X138928632Y-108549666D01*
X140156167Y-108549666D01*
X140198500Y-108592000D01*
X140240834Y-108549666D01*
X140198500Y-108507333D01*
X140156167Y-108549666D01*
X138928632Y-108549666D01*
X138927057Y-108548931D01*
X138965566Y-108471347D01*
X138968935Y-108465000D01*
X139986834Y-108465000D01*
X140029167Y-108507333D01*
X140071500Y-108465000D01*
X140029167Y-108422666D01*
X139986834Y-108465000D01*
X138968935Y-108465000D01*
X139039230Y-108332581D01*
X139097099Y-108111513D01*
X139120272Y-107938556D01*
X139134334Y-107840799D01*
X139160724Y-107841803D01*
X139266235Y-107913892D01*
X139327627Y-107988080D01*
X139337820Y-108106675D01*
X139322836Y-108140218D01*
X139371492Y-108140347D01*
X139439288Y-108131677D01*
X139564274Y-108211932D01*
X139632745Y-108280082D01*
X139743445Y-108338000D01*
X139746772Y-108314717D01*
X139662234Y-108208785D01*
X139495002Y-108046200D01*
X139481423Y-108033831D01*
X139140072Y-107639403D01*
X138865151Y-107137875D01*
X138651863Y-106515371D01*
X138495414Y-105758013D01*
X138391005Y-104851924D01*
X138380762Y-104734137D01*
X138331717Y-104351884D01*
X138264820Y-104098520D01*
X138172314Y-103941757D01*
X138117693Y-103888806D01*
X137868986Y-103775291D01*
X137583015Y-103802470D01*
X137284192Y-103958852D01*
X136996927Y-104232947D01*
X136745632Y-104613267D01*
X136660833Y-104780708D01*
X136576350Y-104988728D01*
X136533179Y-105197247D01*
X136521529Y-105462403D01*
X136416582Y-105462403D01*
X136419948Y-105390296D01*
X136566818Y-104800059D01*
X136672252Y-104533387D01*
X136834204Y-104191940D01*
X136978053Y-103971316D01*
X137091374Y-103893000D01*
X137125281Y-103886140D01*
X137284574Y-103829142D01*
X137510255Y-103733247D01*
X137628804Y-103680973D01*
X137807936Y-103621295D01*
X137936230Y-103633813D01*
X138082791Y-103716508D01*
X138262676Y-103878778D01*
X138414160Y-104190535D01*
X138462834Y-104623175D01*
X138465019Y-104703705D01*
X138490724Y-104870990D01*
X138536072Y-104916063D01*
X138555619Y-104929331D01*
X138592554Y-105065947D01*
X138626860Y-105318289D01*
X138653056Y-105651899D01*
X138693032Y-106093232D01*
X138830631Y-106748823D01*
X139064263Y-107301045D01*
X139404186Y-107778953D01*
X139569086Y-107955843D01*
X139734757Y-108109527D01*
X139831091Y-108168666D01*
X139842807Y-108170444D01*
X139975886Y-108225856D01*
X140203693Y-108343220D01*
X140420022Y-108465000D01*
X140484482Y-108501287D01*
G37*
G36*
X137188287Y-103682999D02*
G01*
X137092895Y-103714228D01*
X137025729Y-103721235D01*
X136869267Y-103831064D01*
X136663774Y-104030966D01*
X136436037Y-104291813D01*
X136212842Y-104584476D01*
X136020978Y-104879829D01*
X135914856Y-105056053D01*
X135799257Y-105224245D01*
X135759634Y-105245659D01*
X135801225Y-105121770D01*
X135929271Y-104854048D01*
X136020723Y-104708387D01*
X136223799Y-104443872D01*
X136489770Y-104134211D01*
X136784828Y-103820255D01*
X136841979Y-103761789D01*
X136951604Y-103639000D01*
X137108167Y-103639000D01*
X137150500Y-103681333D01*
X137192834Y-103639000D01*
X137150500Y-103596666D01*
X137108167Y-103639000D01*
X136951604Y-103639000D01*
X137275922Y-103275738D01*
X137598996Y-102831581D01*
X137800609Y-102445767D01*
X137870167Y-102134747D01*
X137869679Y-102096569D01*
X137841970Y-101923609D01*
X137756990Y-101843817D01*
X137594266Y-101858020D01*
X137333324Y-101967042D01*
X136953690Y-102171710D01*
X136927480Y-102186646D01*
X136257618Y-102635600D01*
X135711768Y-103154239D01*
X135248609Y-103781574D01*
X134999947Y-104178149D01*
X135201744Y-104475514D01*
X135255883Y-104558806D01*
X135345109Y-104748133D01*
X135373587Y-104959222D01*
X135355381Y-105264272D01*
X135327848Y-105477590D01*
X135277178Y-105723359D01*
X135223661Y-105861500D01*
X135136539Y-105931786D01*
X134923632Y-105971002D01*
X134694793Y-105908894D01*
X134518048Y-105755666D01*
X134440441Y-105622440D01*
X134430310Y-105493588D01*
X134522530Y-105325493D01*
X134609534Y-105137836D01*
X134619591Y-104986826D01*
X134607587Y-104928181D01*
X134655491Y-104866666D01*
X134701147Y-104870260D01*
X134733520Y-104909004D01*
X134750820Y-105027495D01*
X134765184Y-105270400D01*
X134768675Y-105425847D01*
X134744115Y-105478728D01*
X134674000Y-105402385D01*
X134633018Y-105348134D01*
X134578597Y-105313477D01*
X134568167Y-105436226D01*
X134580827Y-105606200D01*
X134673083Y-105814134D01*
X134856626Y-105882666D01*
X134968367Y-105872304D01*
X135131329Y-105778723D01*
X135219207Y-105568814D01*
X135245500Y-105219560D01*
X135207921Y-104822933D01*
X135070974Y-104477264D01*
X134896448Y-104194875D01*
X135127522Y-103800576D01*
X135186353Y-103703396D01*
X135677083Y-103058490D01*
X136279180Y-102497516D01*
X136948773Y-102062347D01*
X137012393Y-102028803D01*
X137332854Y-101842274D01*
X137541596Y-101687740D01*
X137616167Y-101581382D01*
X137617311Y-101547137D01*
X137647381Y-101509719D01*
X137737467Y-101611984D01*
X137757443Y-101638257D01*
X137863260Y-101723908D01*
X137966067Y-101670500D01*
X137995905Y-101644968D01*
X138212565Y-101570443D01*
X138463368Y-101600716D01*
X138670220Y-101729270D01*
X138802539Y-101839405D01*
X139000842Y-101929406D01*
X139091500Y-101947652D01*
X139130289Y-101965304D01*
X139005123Y-101976469D01*
X138853404Y-101943312D01*
X138674500Y-101818666D01*
X138523678Y-101710728D01*
X138291199Y-101649333D01*
X138266296Y-101649558D01*
X138128065Y-101675857D01*
X138053270Y-101778507D01*
X138004460Y-102003805D01*
X138000589Y-102026591D01*
X137925426Y-102310951D01*
X137802498Y-102636419D01*
X137649564Y-102969677D01*
X137484379Y-103277405D01*
X137324701Y-103526286D01*
X137226587Y-103639000D01*
X137188287Y-103682999D01*
G37*
G36*
X134157669Y-103963432D02*
G01*
X134046892Y-104100269D01*
X133826748Y-104352340D01*
X133498289Y-104717543D01*
X133398608Y-104829814D01*
X133108276Y-105207246D01*
X132953553Y-105520377D01*
X132927504Y-105788369D01*
X133023194Y-106030384D01*
X133136044Y-106156623D01*
X133268229Y-106221333D01*
X133291450Y-106219562D01*
X133409352Y-106139933D01*
X133449891Y-106000840D01*
X133384852Y-105883913D01*
X133380335Y-105881033D01*
X133319874Y-105775146D01*
X133359810Y-105574958D01*
X133442093Y-105332333D01*
X133506907Y-105628666D01*
X133507537Y-105631537D01*
X133596260Y-105914760D01*
X133703786Y-106074885D01*
X133814791Y-106089003D01*
X133847098Y-106085538D01*
X133838472Y-106174602D01*
X133842946Y-106262948D01*
X133942505Y-106307010D01*
X134089837Y-106280809D01*
X134226129Y-106183062D01*
X134269869Y-106097252D01*
X134278566Y-105927735D01*
X134223235Y-105783922D01*
X134120518Y-105736219D01*
X134112436Y-105737535D01*
X134020915Y-105686282D01*
X133997089Y-105533390D01*
X134039011Y-105328389D01*
X134144730Y-105120812D01*
X134171783Y-105083931D01*
X134306803Y-104929373D01*
X134400556Y-104866666D01*
X134410565Y-104870246D01*
X134383764Y-104946473D01*
X134267791Y-105090696D01*
X134218192Y-105145802D01*
X134085693Y-105344001D01*
X134090459Y-105503960D01*
X134229500Y-105671000D01*
X134325452Y-105774623D01*
X134392724Y-105978204D01*
X134311188Y-106226899D01*
X134217036Y-106324800D01*
X134013559Y-106389056D01*
X133797886Y-106362219D01*
X133646314Y-106242500D01*
X133645326Y-106240753D01*
X133557645Y-106144950D01*
X133455840Y-106200166D01*
X133429729Y-106224109D01*
X133244043Y-106300707D01*
X133068078Y-106240705D01*
X132926605Y-106071813D01*
X132844395Y-105821741D01*
X132846218Y-105518200D01*
X132854091Y-105478267D01*
X132921540Y-105303667D01*
X133059404Y-105094530D01*
X133286685Y-104825194D01*
X133622387Y-104469998D01*
X133823253Y-104265354D01*
X134046904Y-104043872D01*
X134158024Y-103943932D01*
X134157669Y-103963432D01*
G37*
G36*
X138276441Y-109765341D02*
G01*
X138361453Y-109989000D01*
X138452747Y-110211229D01*
X138628904Y-110560416D01*
X138824356Y-110886763D01*
X138935414Y-111057354D01*
X139077346Y-111312855D01*
X139124276Y-111500906D01*
X139082245Y-111665256D01*
X138957292Y-111849652D01*
X138860905Y-111961752D01*
X138744563Y-112036046D01*
X138577416Y-112053355D01*
X138301125Y-112029682D01*
X138243642Y-112023343D01*
X138046308Y-112007010D01*
X137885165Y-112017124D01*
X137725510Y-112068208D01*
X137532638Y-112174786D01*
X137271844Y-112351381D01*
X136908422Y-112612518D01*
X136751396Y-112723279D01*
X136571467Y-112827101D01*
X136391899Y-112880710D01*
X136156168Y-112898634D01*
X135807756Y-112895398D01*
X135118500Y-112880797D01*
X135838167Y-112831849D01*
X136187396Y-112804487D01*
X136435328Y-112764173D01*
X136635467Y-112688386D01*
X136848176Y-112554141D01*
X137133818Y-112338450D01*
X137237798Y-112259207D01*
X137494479Y-112072529D01*
X137690511Y-111942686D01*
X137789984Y-111894000D01*
X137797800Y-111892655D01*
X137849159Y-111801396D01*
X137870167Y-111610788D01*
X137899081Y-111408049D01*
X138060667Y-111166288D01*
X138187826Y-111060408D01*
X138200512Y-111062680D01*
X138103000Y-111181000D01*
X138054541Y-111246541D01*
X137970288Y-111501840D01*
X138025948Y-111737851D01*
X138201258Y-111911240D01*
X138475956Y-111978666D01*
X138561617Y-111970434D01*
X138799226Y-111870616D01*
X138981813Y-111695168D01*
X139052808Y-111491833D01*
X139052123Y-111476699D01*
X138990615Y-111284528D01*
X138865891Y-111118223D01*
X138728667Y-111047333D01*
X138692889Y-111039760D01*
X138631813Y-110941500D01*
X138614981Y-110867477D01*
X138538120Y-110669699D01*
X138420146Y-110419150D01*
X138343971Y-110253789D01*
X138247958Y-109983447D01*
X138211598Y-109784150D01*
X138211754Y-109775274D01*
X138228603Y-109696917D01*
X138276441Y-109765341D01*
G37*
G36*
X145541286Y-99737302D02*
G01*
X145763856Y-99886072D01*
X145931776Y-100117317D01*
X145998167Y-100379527D01*
X145961663Y-100559087D01*
X145819138Y-100798848D01*
X145614186Y-100983044D01*
X145395744Y-101056666D01*
X145342246Y-101050147D01*
X145138161Y-100986057D01*
X144894121Y-100875664D01*
X144546861Y-100694662D01*
X144150681Y-100872202D01*
X144013972Y-100931327D01*
X143760366Y-101030618D01*
X143585167Y-101085716D01*
X143465882Y-101109315D01*
X143296784Y-101118702D01*
X143144398Y-101064930D01*
X142931980Y-100929666D01*
X142887092Y-100900082D01*
X142600095Y-100757312D01*
X142370894Y-100722968D01*
X142230500Y-100802666D01*
X142163124Y-100851549D01*
X141992670Y-100880649D01*
X141894948Y-100874229D01*
X141885311Y-100850696D01*
X142028500Y-100792760D01*
X142193130Y-100695607D01*
X142340270Y-100524277D01*
X142403332Y-100425312D01*
X142436437Y-100442833D01*
X142444035Y-100481282D01*
X142522472Y-100548666D01*
X142535425Y-100550608D01*
X142660469Y-100620733D01*
X142831168Y-100760333D01*
X142956211Y-100852865D01*
X143290152Y-100963886D01*
X143665411Y-100947634D01*
X144031714Y-100802350D01*
X144061438Y-100784907D01*
X144305774Y-100677303D01*
X144518547Y-100633333D01*
X144576166Y-100631061D01*
X144700575Y-100573401D01*
X144739697Y-100400500D01*
X144748248Y-100257047D01*
X144761416Y-100238403D01*
X144789453Y-100379333D01*
X144816430Y-100477176D01*
X144953660Y-100716318D01*
X145148901Y-100899139D01*
X145351302Y-100972000D01*
X145453202Y-100955144D01*
X145671986Y-100824818D01*
X145843888Y-100613932D01*
X145913500Y-100380757D01*
X145890587Y-100198227D01*
X145739088Y-99947970D01*
X145447736Y-99792256D01*
X145317542Y-99750542D01*
X145278905Y-99720785D01*
X145388182Y-99709277D01*
X145541286Y-99737302D01*
G37*
G36*
X144077953Y-97547127D02*
G01*
X144356288Y-97671617D01*
X144573995Y-97885573D01*
X144695173Y-98153027D01*
X144683924Y-98438016D01*
X144634030Y-98535465D01*
X144480502Y-98737928D01*
X144274071Y-98954299D01*
X143923834Y-99282748D01*
X144200336Y-99534707D01*
X144282156Y-99614148D01*
X144379351Y-99736837D01*
X144369670Y-99783991D01*
X144353557Y-99781842D01*
X144209279Y-99711477D01*
X144026139Y-99573350D01*
X143906450Y-99457493D01*
X143841336Y-99329954D01*
X143880951Y-99195026D01*
X143923737Y-99085550D01*
X143905646Y-99021352D01*
X143898612Y-99019447D01*
X143948738Y-98978238D01*
X144107943Y-98901126D01*
X144319822Y-98781614D01*
X144538715Y-98542758D01*
X144609897Y-98268787D01*
X144528846Y-97988606D01*
X144291038Y-97731120D01*
X144032870Y-97617250D01*
X143739538Y-97649498D01*
X143456014Y-97841486D01*
X143360453Y-97987289D01*
X143297192Y-98212334D01*
X143298911Y-98425776D01*
X143373500Y-98559000D01*
X143396688Y-98577299D01*
X143455474Y-98712163D01*
X143418849Y-98735142D01*
X143324241Y-98643666D01*
X143229626Y-98533953D01*
X143155507Y-98540954D01*
X143042684Y-98676390D01*
X142899471Y-98805761D01*
X142640921Y-98898016D01*
X142432219Y-98924486D01*
X142184337Y-98976671D01*
X142137898Y-98989383D01*
X142046998Y-99001756D01*
X142101769Y-98949704D01*
X142114456Y-98941648D01*
X142293760Y-98869511D01*
X142534361Y-98811728D01*
X142700875Y-98757834D01*
X142946469Y-98592965D01*
X143131240Y-98373737D01*
X143204167Y-98150513D01*
X143227304Y-98043836D01*
X143361108Y-97835027D01*
X143567284Y-97649831D01*
X143791686Y-97544130D01*
X144077953Y-97547127D01*
G37*
G36*
X135691660Y-105502543D02*
G01*
X135701947Y-105675667D01*
X135690760Y-105978236D01*
X135687113Y-106041133D01*
X135683323Y-106430575D01*
X135727646Y-106747795D01*
X135830543Y-107074848D01*
X135850567Y-107126174D01*
X136128226Y-107665282D01*
X136514977Y-108204310D01*
X136968243Y-108683072D01*
X137293985Y-108978633D01*
X137306909Y-109790977D01*
X137319834Y-110603322D01*
X136712434Y-111206327D01*
X136105035Y-111809333D01*
X135611768Y-111796885D01*
X135118500Y-111784437D01*
X135591965Y-111733385D01*
X135898411Y-111680772D01*
X136170215Y-111567551D01*
X136459323Y-111359554D01*
X136612198Y-111221376D01*
X136878018Y-110930656D01*
X137080479Y-110648980D01*
X137146793Y-110533806D01*
X137233305Y-110353184D01*
X137268635Y-110183334D01*
X137260862Y-109964940D01*
X137218063Y-109638687D01*
X137172772Y-109353555D01*
X137114172Y-109128607D01*
X137019257Y-108940485D01*
X136860795Y-108736434D01*
X136611555Y-108463698D01*
X136556303Y-108404321D01*
X136244793Y-108048747D01*
X136021512Y-107739332D01*
X135850934Y-107420633D01*
X135697535Y-107037207D01*
X135683218Y-106994093D01*
X135621883Y-106702550D01*
X135586946Y-106348833D01*
X135579941Y-105990031D01*
X135602402Y-105683231D01*
X135655860Y-105485523D01*
X135661189Y-105477113D01*
X135691660Y-105502543D01*
G37*
G36*
X141250150Y-100432258D02*
G01*
X141316008Y-100588215D01*
X141532000Y-100747830D01*
X141625264Y-100796438D01*
X141710753Y-100863488D01*
X141644501Y-100885405D01*
X141518545Y-100859998D01*
X141332758Y-100752421D01*
X141291202Y-100716489D01*
X141204546Y-100678195D01*
X141125370Y-100745765D01*
X141013980Y-100942921D01*
X140887475Y-101152189D01*
X140682335Y-101444648D01*
X140455871Y-101734000D01*
X140252379Y-101994270D01*
X140052975Y-102281456D01*
X139921315Y-102508104D01*
X139883823Y-102583157D01*
X139796130Y-102723444D01*
X139748510Y-102745631D01*
X139750961Y-102653029D01*
X139845372Y-102449558D01*
X140049301Y-102146334D01*
X140368484Y-101734000D01*
X140402477Y-101691547D01*
X140672934Y-101332985D01*
X140890253Y-101008333D01*
X141034940Y-100748733D01*
X141087500Y-100585329D01*
X141053600Y-100560425D01*
X140918251Y-100573176D01*
X140811094Y-100584521D01*
X140701588Y-100540718D01*
X140699950Y-100537768D01*
X140744746Y-100485568D01*
X140906115Y-100464000D01*
X141094209Y-100433759D01*
X141200761Y-100358166D01*
X141229832Y-100332549D01*
X141250150Y-100432258D01*
G37*
G36*
X136995744Y-97183432D02*
G01*
X137068629Y-97356144D01*
X137076633Y-97377426D01*
X137214902Y-97674755D01*
X137378396Y-97946791D01*
X137415931Y-98005443D01*
X137541691Y-98292107D01*
X137614400Y-98599314D01*
X137630651Y-98727075D01*
X137679030Y-98907108D01*
X137782309Y-99000358D01*
X137985511Y-99063088D01*
X138097113Y-99087301D01*
X138335643Y-99093034D01*
X138557011Y-99003526D01*
X138585982Y-98987502D01*
X138739096Y-98927694D01*
X138801500Y-98948934D01*
X138814172Y-98982330D01*
X138907334Y-98974909D01*
X138963610Y-98950222D01*
X138928500Y-99005076D01*
X138828053Y-99070937D01*
X138632167Y-99137016D01*
X138437376Y-99159640D01*
X138125496Y-99151769D01*
X137841478Y-99103116D01*
X137655180Y-99021910D01*
X137639750Y-99006645D01*
X137562786Y-98838687D01*
X137531500Y-98602384D01*
X137494526Y-98346587D01*
X137359915Y-98067366D01*
X137226342Y-97866864D01*
X137084339Y-97592241D01*
X136980957Y-97329919D01*
X136944800Y-97143552D01*
X136950824Y-97126200D01*
X136995744Y-97183432D01*
G37*
G36*
X135000716Y-111740218D02*
G01*
X134990390Y-111769025D01*
X134822167Y-111824601D01*
X134563778Y-111916610D01*
X134373243Y-112051440D01*
X134315464Y-112221866D01*
X134317177Y-112261396D01*
X134403862Y-112476949D01*
X134631667Y-112607960D01*
X134753915Y-112630790D01*
X134810471Y-112567301D01*
X134822167Y-112374430D01*
X134854647Y-112147376D01*
X134970334Y-112025042D01*
X134985262Y-112019436D01*
X135068557Y-112002207D01*
X135012667Y-112075250D01*
X134945514Y-112193217D01*
X134906834Y-112402000D01*
X134930781Y-112566872D01*
X135012667Y-112736194D01*
X135029869Y-112755071D01*
X135065918Y-112819191D01*
X134962468Y-112795100D01*
X134829517Y-112752246D01*
X134600402Y-112688233D01*
X134481361Y-112640481D01*
X134296704Y-112445923D01*
X134229500Y-112155740D01*
X134271134Y-112037167D01*
X134434473Y-111883889D01*
X134670441Y-111771036D01*
X134923796Y-111732302D01*
X135000716Y-111740218D01*
G37*
G36*
X137382427Y-94356114D02*
G01*
X137340418Y-94393732D01*
X137260374Y-94488255D01*
X137229235Y-94605969D01*
X137241083Y-94794624D01*
X137290001Y-95101972D01*
X137329487Y-95367029D01*
X137345425Y-95660721D01*
X137317044Y-95960169D01*
X137241283Y-96343318D01*
X137218844Y-96441968D01*
X137148784Y-96723574D01*
X137092276Y-96912654D01*
X137059876Y-96972597D01*
X137057284Y-96966650D01*
X137063277Y-96848060D01*
X137098653Y-96615163D01*
X137157085Y-96311016D01*
X137171145Y-96242248D01*
X137233476Y-95849184D01*
X137241452Y-95518728D01*
X137198084Y-95166802D01*
X137195636Y-95152748D01*
X137140201Y-94823123D01*
X137119926Y-94617587D01*
X137141906Y-94494627D01*
X137213233Y-94412729D01*
X137341000Y-94330379D01*
X137573834Y-94188616D01*
X137382427Y-94356114D01*
G37*
G36*
X140354865Y-98328189D02*
G01*
X140357754Y-98336804D01*
X140429237Y-98520091D01*
X140529457Y-98749500D01*
X140557889Y-98811624D01*
X140613282Y-98960663D01*
X140575541Y-99013330D01*
X140427247Y-99014845D01*
X140403952Y-99013705D01*
X140293492Y-98996126D01*
X140350187Y-98965625D01*
X140389462Y-98949349D01*
X140456031Y-98827807D01*
X140416444Y-98641767D01*
X140277191Y-98438134D01*
X140221341Y-98385856D01*
X140156800Y-98376692D01*
X140104648Y-98482166D01*
X140043946Y-98728333D01*
X140036170Y-98758766D01*
X140011157Y-98771903D01*
X139996655Y-98625478D01*
X139999353Y-98549979D01*
X140056621Y-98363739D01*
X140159032Y-98244718D01*
X140270481Y-98222880D01*
X140354865Y-98328189D01*
G37*
G36*
X141181265Y-97465296D02*
G01*
X141111193Y-97583176D01*
X140967676Y-97748711D01*
X140950059Y-97763887D01*
X140894391Y-97848359D01*
X140923685Y-97964692D01*
X141047720Y-98163569D01*
X141101346Y-98245395D01*
X141212440Y-98439464D01*
X141256517Y-98557487D01*
X141251900Y-98569833D01*
X141192543Y-98520179D01*
X141086699Y-98365656D01*
X140893090Y-98116595D01*
X140706816Y-98027978D01*
X140514922Y-98094425D01*
X140482348Y-98115184D01*
X140499812Y-98084319D01*
X140621834Y-97966849D01*
X140643936Y-97946479D01*
X140871058Y-97724599D01*
X141070810Y-97511785D01*
X141160048Y-97413730D01*
X141213924Y-97376030D01*
X141181265Y-97465296D01*
G37*
G36*
X139452461Y-97250480D02*
G01*
X139478185Y-97457422D01*
X139422389Y-97613555D01*
X139274831Y-97678673D01*
X139122236Y-97614319D01*
X139029138Y-97437166D01*
X139018855Y-97286068D01*
X139057996Y-97162000D01*
X139224834Y-97162000D01*
X139228279Y-97185206D01*
X139314497Y-97246666D01*
X139345121Y-97240018D01*
X139351834Y-97162000D01*
X139334456Y-97136662D01*
X139262170Y-97077333D01*
X139253721Y-97079534D01*
X139224834Y-97162000D01*
X139057996Y-97162000D01*
X139076110Y-97104584D01*
X139195958Y-97022110D01*
X139347585Y-97073806D01*
X139357696Y-97082767D01*
X139402466Y-97162000D01*
X139452461Y-97250480D01*
G37*
G36*
X137594017Y-100575476D02*
G01*
X137596983Y-100672885D01*
X137574435Y-100800381D01*
X137531419Y-100860176D01*
X137527564Y-100859991D01*
X137431701Y-100914753D01*
X137248779Y-101051678D01*
X137014656Y-101244124D01*
X137011864Y-101246504D01*
X136748810Y-101457885D01*
X136507768Y-101629928D01*
X136340600Y-101725590D01*
X136254188Y-101759264D01*
X136108491Y-101805377D01*
X136099126Y-101780075D01*
X136229388Y-101678697D01*
X136502576Y-101496582D01*
X136665839Y-101381340D01*
X136985500Y-101118900D01*
X137263362Y-100850532D01*
X137431357Y-100672631D01*
X137546526Y-100571281D01*
X137594017Y-100575476D01*
G37*
G36*
X135964731Y-101820133D02*
G01*
X135949354Y-101868640D01*
X135820847Y-101967279D01*
X135704549Y-102066883D01*
X135500612Y-102282063D01*
X135253157Y-102570581D01*
X134992675Y-102898166D01*
X134764424Y-103192283D01*
X134560755Y-103446232D01*
X134415203Y-103618121D01*
X134349622Y-103681333D01*
X134341370Y-103680301D01*
X134334983Y-103653392D01*
X134376384Y-103574512D01*
X134479352Y-103423036D01*
X134657665Y-103178336D01*
X134925103Y-102819783D01*
X135211858Y-102454508D01*
X135524824Y-102106472D01*
X135775462Y-101891969D01*
X135955419Y-101819112D01*
X135964731Y-101820133D01*
G37*
G36*
X141317851Y-98884677D02*
G01*
X141327951Y-99088166D01*
X141328230Y-99095721D01*
X141324564Y-99320920D01*
X141278926Y-99423602D01*
X141172167Y-99448000D01*
X141073318Y-99424750D01*
X141002834Y-99325207D01*
X140977707Y-99242368D01*
X140854667Y-99116115D01*
X140783469Y-99062009D01*
X140801967Y-99027241D01*
X140870003Y-99045942D01*
X141002834Y-99151666D01*
X141010863Y-99161226D01*
X141142020Y-99267902D01*
X141228813Y-99216930D01*
X141280253Y-99003500D01*
X141286997Y-98950529D01*
X141305847Y-98841722D01*
X141317851Y-98884677D01*
G37*
G36*
X137982370Y-94516896D02*
G01*
X138162564Y-94755455D01*
X138408418Y-94895379D01*
X138673630Y-94876330D01*
X138848509Y-94821283D01*
X138997512Y-94797774D01*
X139012367Y-94802049D01*
X138965015Y-94845333D01*
X138801500Y-94918333D01*
X138757833Y-94934933D01*
X138554224Y-95006500D01*
X138435154Y-95038892D01*
X138373231Y-95017766D01*
X138225741Y-94902676D01*
X138060831Y-94733042D01*
X137927105Y-94560831D01*
X137873167Y-94438012D01*
X137905237Y-94413962D01*
X137982370Y-94516896D01*
G37*
G36*
X139422995Y-98702489D02*
G01*
X139383166Y-98768683D01*
X139287749Y-98971982D01*
X139183272Y-99232986D01*
X139151997Y-99316000D01*
X139068876Y-99505327D01*
X139012986Y-99556115D01*
X138968587Y-99486986D01*
X138949933Y-99375256D01*
X139033724Y-99291892D01*
X139115798Y-99220090D01*
X139111260Y-99028297D01*
X139099057Y-98952293D01*
X139128382Y-98798685D01*
X139285847Y-98692894D01*
X139375877Y-98653728D01*
X139456345Y-98636544D01*
X139422995Y-98702489D01*
G37*
G36*
X138490802Y-99290939D02*
G01*
X138424157Y-99380062D01*
X138270444Y-99527098D01*
X138224499Y-99569352D01*
X138000446Y-99818910D01*
X137826711Y-100074089D01*
X137826116Y-100075194D01*
X137710034Y-100262911D01*
X137637502Y-100335622D01*
X137628744Y-100287174D01*
X137703984Y-100111418D01*
X137716661Y-100088150D01*
X137842083Y-99907983D01*
X138020449Y-99695233D01*
X138212733Y-99491619D01*
X138379912Y-99338857D01*
X138482963Y-99278666D01*
X138490802Y-99290939D01*
G37*
G36*
X140282406Y-93892656D02*
G01*
X140327089Y-93893848D01*
X140567052Y-93914267D01*
X140688205Y-93967738D01*
X140734513Y-94071666D01*
X140745373Y-94139769D01*
X140734372Y-94191010D01*
X140650607Y-94097152D01*
X140626357Y-94072156D01*
X140444598Y-93975228D01*
X140198500Y-93918143D01*
X140118729Y-93909587D01*
X140012826Y-93894532D01*
X140065638Y-93889420D01*
X140282406Y-93892656D01*
G37*
G36*
X140797192Y-95494895D02*
G01*
X140896887Y-95613945D01*
X141022883Y-95801280D01*
X141147054Y-96019000D01*
X141164715Y-96053627D01*
X141229194Y-96194543D01*
X141230117Y-96228459D01*
X141156940Y-96141459D01*
X141031637Y-95964196D01*
X140898623Y-95759148D01*
X140793414Y-95581409D01*
X140751527Y-95486073D01*
X140751929Y-95482030D01*
X140797192Y-95494895D01*
G37*
G36*
X142013003Y-99565321D02*
G01*
X142211211Y-99690597D01*
X142373649Y-99865263D01*
X142439167Y-100034258D01*
X142438845Y-100042384D01*
X142404786Y-100077459D01*
X142319312Y-99956533D01*
X142178815Y-99788497D01*
X141962479Y-99642852D01*
X141879237Y-99605310D01*
X141807804Y-99553595D01*
X141886377Y-99536485D01*
X142013003Y-99565321D01*
G37*
G36*
X141903148Y-99029799D02*
G01*
X141865462Y-99086522D01*
X141722500Y-99194000D01*
X141688742Y-99216102D01*
X141517922Y-99319530D01*
X141426167Y-99360892D01*
X141424550Y-99338743D01*
X141510766Y-99258829D01*
X141651982Y-99155454D01*
X141796302Y-99065814D01*
X141891834Y-99027107D01*
X141903148Y-99029799D01*
G37*
G36*
X141326239Y-96410966D02*
G01*
X141369220Y-96542459D01*
X141408066Y-96790051D01*
X141392832Y-97029292D01*
X141351015Y-97175495D01*
X141318721Y-97246583D01*
X141309836Y-97198084D01*
X141300375Y-97021361D01*
X141295109Y-96759750D01*
X141294880Y-96539034D01*
X141303249Y-96404573D01*
X141326239Y-96410966D01*
G37*
G36*
X140544733Y-94749000D02*
G01*
X140596700Y-94930544D01*
X140671377Y-95170400D01*
X140688837Y-95226200D01*
X140711946Y-95349826D01*
X140663394Y-95332426D01*
X140647900Y-95312823D01*
X140582080Y-95147386D01*
X140536750Y-94911026D01*
X140528215Y-94824120D01*
X140525305Y-94714339D01*
X140544733Y-94749000D01*
G37*
G36*
X138849552Y-97425450D02*
G01*
X138805386Y-97531000D01*
X138703482Y-97715948D01*
X138658320Y-97789027D01*
X138548712Y-97935860D01*
X138485435Y-97974823D01*
X138488575Y-97933316D01*
X138555151Y-97796689D01*
X138662814Y-97625061D01*
X138772899Y-97478231D01*
X138846744Y-97416000D01*
X138849552Y-97425450D01*
G37*
G36*
X144793811Y-99810330D02*
G01*
X144873953Y-99818154D01*
X144987727Y-99857435D01*
X144963525Y-99935877D01*
X144869624Y-99999845D01*
X144738100Y-99938668D01*
X144654981Y-99876096D01*
X144568387Y-99813121D01*
X144567090Y-99812094D01*
X144624791Y-99803411D01*
X144793811Y-99810330D01*
G37*
G36*
X140690605Y-99340149D02*
G01*
X140579500Y-99440434D01*
X140573907Y-99444986D01*
X140402572Y-99564382D01*
X140283167Y-99614154D01*
X140275360Y-99613868D01*
X140273266Y-99574555D01*
X140396879Y-99481985D01*
X140621834Y-99354815D01*
X140662255Y-99335232D01*
X140690605Y-99340149D01*
G37*
G36*
X139814175Y-93962466D02*
G01*
X139754000Y-94000739D01*
X139681255Y-94086365D01*
X139638346Y-94269222D01*
X139636954Y-94296927D01*
X139619536Y-94403270D01*
X139588852Y-94341887D01*
X139573598Y-94184301D01*
X139629061Y-94014590D01*
X139751343Y-93951350D01*
X139814175Y-93962466D01*
G37*
G36*
X139562204Y-94673759D02*
G01*
X139558125Y-94744431D01*
X139498953Y-94818884D01*
X139330667Y-94804964D01*
X139231919Y-94782797D01*
X139174150Y-94752102D01*
X139267167Y-94722244D01*
X139369952Y-94687279D01*
X139498704Y-94591038D01*
X139540276Y-94566583D01*
X139562204Y-94673759D01*
G37*
G36*
X139950893Y-100238091D02*
G01*
X139917733Y-100384366D01*
X139889481Y-100619091D01*
X139876796Y-100845000D01*
X139841733Y-100614325D01*
X139842086Y-100429313D01*
X139903145Y-100233325D01*
X139943910Y-100170606D01*
X139980248Y-100131276D01*
X139950893Y-100238091D01*
G37*
G36*
X140029388Y-99027578D02*
G01*
X140020188Y-99082267D01*
X139902167Y-99194000D01*
X139819699Y-99257154D01*
X139682106Y-99348496D01*
X139666481Y-99327444D01*
X139775167Y-99194000D01*
X139899977Y-99082382D01*
X140021123Y-99026549D01*
X140029388Y-99027578D01*
G37*
G36*
X139601964Y-103433856D02*
G01*
X139605834Y-103512000D01*
X139588532Y-103534880D01*
X139468840Y-103596666D01*
X139440371Y-103590143D01*
X139436500Y-103512000D01*
X139453803Y-103489119D01*
X139573494Y-103427333D01*
X139601964Y-103433856D01*
G37*
G36*
X137748060Y-94117809D02*
G01*
X137827834Y-94198666D01*
X137843604Y-94228643D01*
X137837827Y-94283333D01*
X137822941Y-94279523D01*
X137743167Y-94198666D01*
X137727397Y-94168690D01*
X137733174Y-94114000D01*
X137748060Y-94117809D01*
G37*
G36*
X143665436Y-98823028D02*
G01*
X143730421Y-98852348D01*
X143796834Y-98906725D01*
X143773368Y-98938267D01*
X143676323Y-98926488D01*
X143585767Y-98856303D01*
X143578037Y-98817110D01*
X143665436Y-98823028D01*
G37*
G36*
X140147667Y-99846316D02*
G01*
X140062067Y-99960873D01*
X139995079Y-99992466D01*
X140006251Y-99929684D01*
X140107169Y-99805817D01*
X140192797Y-99725770D01*
X140219968Y-99719267D01*
X140147667Y-99846316D01*
G37*
G36*
X139854390Y-101166151D02*
G01*
X139812167Y-101245165D01*
X139749185Y-101270573D01*
X139740118Y-101229763D01*
X139806994Y-101118755D01*
X139818145Y-101107816D01*
X139880168Y-101067236D01*
X139854390Y-101166151D01*
G37*
G36*
X139529212Y-101628166D02*
G01*
X139407857Y-101761569D01*
X139338712Y-101818666D01*
X139316924Y-101814454D01*
X139340020Y-101749072D01*
X139500000Y-101598955D01*
X139690500Y-101437666D01*
X139529212Y-101628166D01*
G37*
G36*
X133624007Y-105088887D02*
G01*
X133597982Y-105199700D01*
X133558162Y-105255493D01*
X133501286Y-105278648D01*
X133522951Y-105159348D01*
X133554746Y-105097617D01*
X133613438Y-105069048D01*
X133624007Y-105088887D01*
G37*
G36*
X142498612Y-112853555D02*
G01*
X142511857Y-112879021D01*
X142442167Y-112910000D01*
X142397345Y-112903889D01*
X142385723Y-112853555D01*
X142398132Y-112843422D01*
X142498612Y-112853555D01*
G37*
G36*
X142357500Y-112486666D02*
G01*
X142351390Y-112531488D01*
X142301056Y-112543111D01*
X142290923Y-112530701D01*
X142301056Y-112430222D01*
X142326522Y-112416976D01*
X142357500Y-112486666D01*
G37*
G36*
X141256834Y-100125333D02*
G01*
X141250724Y-100170155D01*
X141200389Y-100181777D01*
X141190256Y-100169368D01*
X141200389Y-100068888D01*
X141225856Y-100055643D01*
X141256834Y-100125333D01*
G37*
G36*
X140657483Y-94403277D02*
G01*
X140651496Y-94489151D01*
X140613014Y-94514402D01*
X140596237Y-94484448D01*
X140606330Y-94352125D01*
X140636806Y-94312935D01*
X140657483Y-94403277D01*
G37*
G36*
X139550132Y-99024666D02*
G01*
X139538330Y-99141136D01*
X139507427Y-99130500D01*
X139496245Y-99092175D01*
X139507427Y-98918833D01*
X139536827Y-98904471D01*
X139550132Y-99024666D01*
G37*
G36*
X139365945Y-97782888D02*
G01*
X139379191Y-97808355D01*
X139309500Y-97839333D01*
X139264678Y-97833223D01*
X139253056Y-97782888D01*
X139265465Y-97772755D01*
X139365945Y-97782888D01*
G37*
G36*
X138773278Y-99306888D02*
G01*
X138786524Y-99332355D01*
X138716834Y-99363333D01*
X138672012Y-99357223D01*
X138660389Y-99306888D01*
X138672799Y-99296755D01*
X138773278Y-99306888D01*
G37*
G36*
X138625483Y-101091944D02*
G01*
X138619496Y-101177818D01*
X138581014Y-101203069D01*
X138564237Y-101173115D01*
X138574330Y-101040791D01*
X138604806Y-101001602D01*
X138625483Y-101091944D01*
G37*
G36*
X137602799Y-101226000D02*
G01*
X137590997Y-101342469D01*
X137560094Y-101331833D01*
X137548911Y-101293508D01*
X137560094Y-101120166D01*
X137589493Y-101105804D01*
X137602799Y-101226000D01*
G37*
G36*
X142442167Y-99405666D02*
G01*
X142399834Y-99448000D01*
X142357500Y-99405666D01*
X142399834Y-99363333D01*
X142442167Y-99405666D01*
G37*
G36*
X139902167Y-100929666D02*
G01*
X139859834Y-100972000D01*
X139817500Y-100929666D01*
X139859834Y-100887333D01*
X139902167Y-100929666D01*
G37*
G36*
X139478834Y-96781000D02*
G01*
X139436500Y-96823333D01*
X139394167Y-96781000D01*
X139436500Y-96738666D01*
X139478834Y-96781000D01*
G37*
G36*
X139394167Y-97966333D02*
G01*
X139351834Y-98008666D01*
X139309500Y-97966333D01*
X139351834Y-97924000D01*
X139394167Y-97966333D01*
G37*
G36*
X139394167Y-95341666D02*
G01*
X139351834Y-95384000D01*
X139309500Y-95341666D01*
X139351834Y-95299333D01*
X139394167Y-95341666D01*
G37*
G36*
X138801500Y-99913666D02*
G01*
X138759167Y-99956000D01*
X138716834Y-99913666D01*
X138759167Y-99871333D01*
X138801500Y-99913666D01*
G37*
G36*
X138716834Y-104739666D02*
G01*
X138674500Y-104782000D01*
X138632167Y-104739666D01*
X138674500Y-104697333D01*
X138716834Y-104739666D01*
G37*
G36*
X137616167Y-108803666D02*
G01*
X137573834Y-108846000D01*
X137531500Y-108803666D01*
X137573834Y-108761333D01*
X137616167Y-108803666D01*
G37*
G36*
X135838167Y-112105666D02*
G01*
X135795834Y-112148000D01*
X135753500Y-112105666D01*
X135795834Y-112063333D01*
X135838167Y-112105666D01*
G37*
G36*
X135584167Y-112021000D02*
G01*
X135541834Y-112063333D01*
X135499500Y-112021000D01*
X135541834Y-111978666D01*
X135584167Y-112021000D01*
G37*
D12*
%TO.C,J2*%
X158430000Y-88090000D02*
X158430000Y-86820000D01*
X157160000Y-88090000D02*
X158430000Y-88090000D01*
X155050000Y-85742642D02*
X155050000Y-85430000D01*
X154190000Y-85742642D02*
X154190000Y-85430000D01*
X152510000Y-85742642D02*
X152510000Y-85430000D01*
X151650000Y-85742642D02*
X151650000Y-85430000D01*
X149970000Y-85742642D02*
X149970000Y-85430000D01*
X149110000Y-85742642D02*
X149110000Y-85430000D01*
X157590000Y-85660000D02*
X157590000Y-85430000D01*
X156730000Y-85660000D02*
X156730000Y-85430000D01*
X155890000Y-85430000D02*
X155890000Y-82670000D01*
X153350000Y-85430000D02*
X153350000Y-82670000D01*
X150810000Y-85430000D02*
X150810000Y-82670000D01*
X155050000Y-82670000D02*
X155050000Y-76670000D01*
X152510000Y-82670000D02*
X152510000Y-76670000D01*
X149970000Y-82670000D02*
X149970000Y-76670000D01*
X155050000Y-76670000D02*
X154190000Y-76670000D01*
X154190000Y-76670000D02*
X154190000Y-82670000D01*
X152510000Y-76670000D02*
X151650000Y-76670000D01*
X151650000Y-76670000D02*
X151650000Y-82670000D01*
X149970000Y-76670000D02*
X149110000Y-76670000D01*
X149110000Y-76670000D02*
X149110000Y-82670000D01*
X158540000Y-85430000D02*
X148160000Y-85430000D01*
X148160000Y-82670000D01*
X158540000Y-82670000D01*
X158540000Y-85430000D01*
X157590000Y-82670000D02*
X156730000Y-82670000D01*
X156730000Y-76670000D01*
X157590000Y-76670000D01*
X157590000Y-82670000D01*
G36*
X157590000Y-82670000D02*
G01*
X156730000Y-82670000D01*
X156730000Y-76670000D01*
X157590000Y-76670000D01*
X157590000Y-82670000D01*
G37*
%TD*%
M02*
