%TF.GenerationSoftware,KiCad,Pcbnew,9.0.3*%
%TF.CreationDate,2026-02-26T20:24:34-03:00*%
%TF.ProjectId,EEGFrontier,45454746-726f-46e7-9469-65722e6b6963,rev?*%
%TF.SameCoordinates,Original*%
%TF.FileFunction,Copper,L2,Bot*%
%TF.FilePolarity,Positive*%
%FSLAX46Y46*%
G04 Gerber Fmt 4.6, Leading zero omitted, Abs format (unit mm)*
G04 Created by KiCad (PCBNEW 9.0.3) date 2026-02-26 20:24:34*
%MOMM*%
%LPD*%
G01*
G04 APERTURE LIST*
%TA.AperFunction,ComponentPad*%
%ADD10R,1.700000X1.700000*%
%TD*%
%TA.AperFunction,ComponentPad*%
%ADD11C,1.700000*%
%TD*%
%TA.AperFunction,ViaPad*%
%ADD12C,0.600000*%
%TD*%
%TA.AperFunction,Conductor*%
%ADD13C,0.200000*%
%TD*%
G04 APERTURE END LIST*
D10*
%TO.P,J1,1,Pin_1*%
%TO.N,EEG_CH1*%
X110100000Y-87335000D03*
D11*
%TO.P,J1,2,Pin_2*%
%TO.N,EEG_CH2*%
X110100000Y-84795000D03*
%TO.P,J1,3,Pin_3*%
%TO.N,EEG_CH3*%
X110100000Y-82255000D03*
%TO.P,J1,4,Pin_4*%
%TO.N,EEG_CH4*%
X110100000Y-79715000D03*
%TO.P,J1,5,Pin_5*%
%TO.N,EEG_REF*%
X110100000Y-77175000D03*
%TO.P,J1,6,Pin_6*%
%TO.N,EEG_BIAS*%
X110100000Y-74635000D03*
%TO.P,J1,7,Pin_7*%
%TO.N,GND*%
X110100000Y-72095000D03*
%TO.P,J1,8,Pin_8*%
%TO.N,unconnected-(J1-Pin_8-Pad8)*%
X110100000Y-69555000D03*
%TD*%
D12*
%TO.N,3V3_A*%
X129800000Y-87400000D03*
X134530058Y-89594942D03*
%TO.N,GND*%
X127777500Y-77575000D03*
X129975000Y-77475000D03*
%TO.N,Net-(U2-VCAP2)*%
X130450000Y-89250000D03*
X133503188Y-89596812D03*
%TO.N,3V3_D*%
X140450000Y-83975000D03*
X136350000Y-81421000D03*
%TO.N,SPI_CS*%
X135750000Y-85575000D03*
X153050000Y-85625000D03*
%TO.N,Net-(U2-VCAP4)*%
X129000000Y-88900000D03*
X129850000Y-95300000D03*
%TO.N,3V3_D*%
X124275000Y-100775000D03*
X129975000Y-83025000D03*
%TO.N,SPI_MISO*%
X135575000Y-83925000D03*
X146775000Y-79675000D03*
%TO.N,GND*%
X157525000Y-68125000D03*
X148925000Y-88850000D03*
%TO.N,BTN_START*%
X136825000Y-78825000D03*
X130875000Y-71600000D03*
%TO.N,Net-(U2-IN4N)*%
X115850000Y-73900000D03*
X119225000Y-81509000D03*
%TO.N,EEG_REF*%
X118049265Y-80200735D03*
X118350000Y-82825000D03*
%TO.N,Net-(U2-IN2P)*%
X120025000Y-87925000D03*
X113400000Y-83725000D03*
%TO.N,Net-(U2-IN3N)*%
X114275000Y-79975000D03*
X117175000Y-80175000D03*
%TO.N,Net-(U2-IN4P)*%
X120550000Y-85875000D03*
X119375000Y-73075000D03*
%TO.N,Net-(U2-IN3P)*%
X113550000Y-76500000D03*
X119500000Y-86625000D03*
%TD*%
D13*
%TO.N,3V3_A*%
X132335116Y-87400000D02*
X129800000Y-87400000D01*
X134530058Y-89594942D02*
X132335116Y-87400000D01*
%TO.N,GND*%
X127777500Y-77575000D02*
X127877500Y-77475000D01*
X127877500Y-77475000D02*
X129975000Y-77475000D01*
%TO.N,Net-(U2-VCAP2)*%
X130796812Y-89596812D02*
X130450000Y-89250000D01*
X133503188Y-89596812D02*
X130796812Y-89596812D01*
%TO.N,3V3_D*%
X139899000Y-84526000D02*
X140450000Y-83975000D01*
X135326057Y-84526000D02*
X139899000Y-84526000D01*
X134974000Y-84173943D02*
X135326057Y-84526000D01*
X134974000Y-82797000D02*
X134974000Y-84173943D01*
X136350000Y-81421000D02*
X134974000Y-82797000D01*
%TO.N,SPI_CS*%
X139626000Y-89451000D02*
X135750000Y-85575000D01*
X149224000Y-89451000D02*
X139626000Y-89451000D01*
X153050000Y-85625000D02*
X149224000Y-89451000D01*
%TO.N,Net-(U2-VCAP4)*%
X129850000Y-95300000D02*
X129000000Y-94450000D01*
X129000000Y-94450000D02*
X129000000Y-88900000D01*
%TO.N,3V3_D*%
X123400000Y-99900000D02*
X124275000Y-100775000D01*
X123400000Y-89600000D02*
X123400000Y-99900000D01*
X129975000Y-83025000D02*
X123400000Y-89600000D01*
%TO.N,SPI_MISO*%
X146775000Y-79675000D02*
X139825000Y-79675000D01*
X139825000Y-79675000D02*
X135575000Y-83925000D01*
%TO.N,GND*%
X157900000Y-68500000D02*
X157525000Y-68125000D01*
X157900000Y-84650000D02*
X157900000Y-68500000D01*
X147700000Y-85600000D02*
X148650000Y-84650000D01*
X148650000Y-84650000D02*
X157900000Y-84650000D01*
X147700000Y-87625000D02*
X147700000Y-85600000D01*
X148925000Y-88850000D02*
X147700000Y-87625000D01*
%TO.N,BTN_START*%
X130875000Y-71600000D02*
X130875000Y-72875000D01*
X130875000Y-72875000D02*
X136825000Y-78825000D01*
%TO.N,Net-(U2-IN4N)*%
X119225000Y-77275000D02*
X115850000Y-73900000D01*
X119225000Y-81509000D02*
X119225000Y-77275000D01*
%TO.N,EEG_REF*%
X118350000Y-80501470D02*
X118049265Y-80200735D01*
X118350000Y-82825000D02*
X118350000Y-80501470D01*
%TO.N,Net-(U2-IN2P)*%
X117600000Y-87925000D02*
X120025000Y-87925000D01*
X113400000Y-83725000D02*
X117600000Y-87925000D01*
%TO.N,Net-(U2-IN3N)*%
X114275000Y-80000000D02*
X114275000Y-79975000D01*
X114450000Y-80175000D02*
X114275000Y-80000000D01*
X117175000Y-80175000D02*
X114450000Y-80175000D01*
%TO.N,Net-(U2-IN4P)*%
X120525000Y-85900000D02*
X120550000Y-85875000D01*
X120175000Y-85900000D02*
X120525000Y-85900000D01*
X119375000Y-73075000D02*
X120175000Y-73875000D01*
X120175000Y-73875000D02*
X120175000Y-85900000D01*
%TO.N,Net-(U2-IN3P)*%
X113550000Y-80675000D02*
X119500000Y-86625000D01*
X113550000Y-76500000D02*
X113550000Y-80675000D01*
%TD*%
%TA.AperFunction,Conductor*%
%TO.N,GND*%
G36*
X161467539Y-61532685D02*
G01*
X161513294Y-61585489D01*
X161524500Y-61637000D01*
X161524500Y-101913000D01*
X161504815Y-101980039D01*
X161452011Y-102025794D01*
X161400500Y-102037000D01*
X107624500Y-102037000D01*
X107557461Y-102017315D01*
X107511706Y-101964511D01*
X107500500Y-101913000D01*
X107500500Y-89553856D01*
X123049500Y-89553856D01*
X123049500Y-89565265D01*
X123049500Y-99946143D01*
X123073386Y-100035287D01*
X123073387Y-100035290D01*
X123119527Y-100115208D01*
X123119531Y-100115213D01*
X123688181Y-100683863D01*
X123721666Y-100745186D01*
X123724500Y-100771544D01*
X123724500Y-100847475D01*
X123762016Y-100987485D01*
X123762017Y-100987488D01*
X123834488Y-101113011D01*
X123834490Y-101113013D01*
X123834491Y-101113015D01*
X123936985Y-101215509D01*
X123936986Y-101215510D01*
X123936988Y-101215511D01*
X124062511Y-101287982D01*
X124062512Y-101287982D01*
X124062515Y-101287984D01*
X124202525Y-101325500D01*
X124202528Y-101325500D01*
X124347472Y-101325500D01*
X124347475Y-101325500D01*
X124487485Y-101287984D01*
X124613015Y-101215509D01*
X124715509Y-101113015D01*
X124787984Y-100987485D01*
X124825500Y-100847475D01*
X124825500Y-100702525D01*
X124787984Y-100562515D01*
X124715509Y-100436985D01*
X124613015Y-100334491D01*
X124613013Y-100334490D01*
X124613011Y-100334488D01*
X124487488Y-100262017D01*
X124487489Y-100262017D01*
X124476006Y-100258940D01*
X124347475Y-100224500D01*
X124347472Y-100224500D01*
X124271544Y-100224500D01*
X124204505Y-100204815D01*
X124183863Y-100188181D01*
X123786819Y-99791137D01*
X123753334Y-99729814D01*
X123750500Y-99703456D01*
X123750500Y-89796544D01*
X123770185Y-89729505D01*
X123786819Y-89708863D01*
X124668157Y-88827525D01*
X128449500Y-88827525D01*
X128449500Y-88972475D01*
X128483045Y-89097666D01*
X128487017Y-89112488D01*
X128559488Y-89238011D01*
X128559493Y-89238017D01*
X128613181Y-89291705D01*
X128646666Y-89353028D01*
X128649500Y-89379386D01*
X128649500Y-94496143D01*
X128673386Y-94585287D01*
X128673387Y-94585290D01*
X128719527Y-94665208D01*
X128719531Y-94665213D01*
X129263181Y-95208863D01*
X129296666Y-95270186D01*
X129299500Y-95296544D01*
X129299500Y-95372475D01*
X129337016Y-95512485D01*
X129337017Y-95512488D01*
X129409488Y-95638011D01*
X129409490Y-95638013D01*
X129409491Y-95638015D01*
X129511985Y-95740509D01*
X129511986Y-95740510D01*
X129511988Y-95740511D01*
X129637511Y-95812982D01*
X129637512Y-95812982D01*
X129637515Y-95812984D01*
X129777525Y-95850500D01*
X129777528Y-95850500D01*
X129922472Y-95850500D01*
X129922475Y-95850500D01*
X130062485Y-95812984D01*
X130188015Y-95740509D01*
X130290509Y-95638015D01*
X130362984Y-95512485D01*
X130400500Y-95372475D01*
X130400500Y-95227525D01*
X130362984Y-95087515D01*
X130290509Y-94961985D01*
X130188015Y-94859491D01*
X130188013Y-94859490D01*
X130188011Y-94859488D01*
X130062488Y-94787017D01*
X130062489Y-94787017D01*
X130051006Y-94783940D01*
X129922475Y-94749500D01*
X129922472Y-94749500D01*
X129846544Y-94749500D01*
X129779505Y-94729815D01*
X129758863Y-94713181D01*
X129386819Y-94341137D01*
X129353334Y-94279814D01*
X129350500Y-94253456D01*
X129350500Y-89379386D01*
X129370185Y-89312347D01*
X129386819Y-89291705D01*
X129440509Y-89238015D01*
X129512984Y-89112485D01*
X129550500Y-88972475D01*
X129550500Y-88827525D01*
X129512984Y-88687515D01*
X129440509Y-88561985D01*
X129338015Y-88459491D01*
X129338013Y-88459490D01*
X129338011Y-88459488D01*
X129212488Y-88387017D01*
X129212489Y-88387017D01*
X129201006Y-88383940D01*
X129072475Y-88349500D01*
X128927525Y-88349500D01*
X128798993Y-88383940D01*
X128787511Y-88387017D01*
X128661988Y-88459488D01*
X128661982Y-88459493D01*
X128559493Y-88561982D01*
X128559488Y-88561988D01*
X128487017Y-88687511D01*
X128487016Y-88687515D01*
X128449500Y-88827525D01*
X124668157Y-88827525D01*
X126168157Y-87327525D01*
X129249500Y-87327525D01*
X129249500Y-87472475D01*
X129280184Y-87586988D01*
X129287017Y-87612488D01*
X129359488Y-87738011D01*
X129359490Y-87738013D01*
X129359491Y-87738015D01*
X129461985Y-87840509D01*
X129461986Y-87840510D01*
X129461988Y-87840511D01*
X129587511Y-87912982D01*
X129587512Y-87912982D01*
X129587515Y-87912984D01*
X129727525Y-87950500D01*
X129727528Y-87950500D01*
X129872472Y-87950500D01*
X129872475Y-87950500D01*
X130012485Y-87912984D01*
X130138015Y-87840509D01*
X130191705Y-87786819D01*
X130253028Y-87753334D01*
X130279386Y-87750500D01*
X132138572Y-87750500D01*
X132205611Y-87770185D01*
X132226253Y-87786819D01*
X133323922Y-88884488D01*
X133357407Y-88945811D01*
X133352423Y-89015503D01*
X133310551Y-89071436D01*
X133297297Y-89078996D01*
X133297741Y-89079764D01*
X133165176Y-89156300D01*
X133165170Y-89156305D01*
X133111483Y-89209993D01*
X133050160Y-89243478D01*
X133023802Y-89246312D01*
X131114080Y-89246312D01*
X131047041Y-89226627D01*
X131001286Y-89173823D01*
X130994305Y-89154406D01*
X130983072Y-89112485D01*
X130962984Y-89037515D01*
X130950275Y-89015503D01*
X130890511Y-88911988D01*
X130890506Y-88911982D01*
X130788017Y-88809493D01*
X130788011Y-88809488D01*
X130662488Y-88737017D01*
X130662489Y-88737017D01*
X130651006Y-88733940D01*
X130522475Y-88699500D01*
X130377525Y-88699500D01*
X130248993Y-88733940D01*
X130237511Y-88737017D01*
X130111988Y-88809488D01*
X130111982Y-88809493D01*
X130009493Y-88911982D01*
X130009488Y-88911988D01*
X129937017Y-89037511D01*
X129937016Y-89037515D01*
X129899500Y-89177525D01*
X129899500Y-89322475D01*
X129937016Y-89462485D01*
X129937017Y-89462488D01*
X130009488Y-89588011D01*
X130009490Y-89588013D01*
X130009491Y-89588015D01*
X130111985Y-89690509D01*
X130111986Y-89690510D01*
X130111988Y-89690511D01*
X130237511Y-89762982D01*
X130237512Y-89762982D01*
X130237515Y-89762984D01*
X130377525Y-89800500D01*
X130453457Y-89800500D01*
X130520496Y-89820185D01*
X130541138Y-89836819D01*
X130581600Y-89877281D01*
X130581603Y-89877282D01*
X130581606Y-89877285D01*
X130661518Y-89923423D01*
X130661519Y-89923423D01*
X130661524Y-89923426D01*
X130750668Y-89947312D01*
X133023802Y-89947312D01*
X133090841Y-89966997D01*
X133111483Y-89983631D01*
X133165173Y-90037321D01*
X133165174Y-90037322D01*
X133165176Y-90037323D01*
X133290699Y-90109794D01*
X133290700Y-90109794D01*
X133290703Y-90109796D01*
X133430713Y-90147312D01*
X133430716Y-90147312D01*
X133575660Y-90147312D01*
X133575663Y-90147312D01*
X133715673Y-90109796D01*
X133841203Y-90037321D01*
X133929877Y-89948647D01*
X133991200Y-89915162D01*
X134060892Y-89920146D01*
X134105239Y-89948647D01*
X134192043Y-90035451D01*
X134192044Y-90035452D01*
X134192046Y-90035453D01*
X134317569Y-90107924D01*
X134317570Y-90107924D01*
X134317573Y-90107926D01*
X134457583Y-90145442D01*
X134457586Y-90145442D01*
X134602530Y-90145442D01*
X134602533Y-90145442D01*
X134742543Y-90107926D01*
X134868073Y-90035451D01*
X134970567Y-89932957D01*
X135043042Y-89807427D01*
X135080558Y-89667417D01*
X135080558Y-89522467D01*
X135043042Y-89382457D01*
X135008411Y-89322475D01*
X134970569Y-89256930D01*
X134970564Y-89256924D01*
X134868075Y-89154435D01*
X134868069Y-89154430D01*
X134742546Y-89081959D01*
X134742547Y-89081959D01*
X134731064Y-89078882D01*
X134602533Y-89044442D01*
X134602530Y-89044442D01*
X134526602Y-89044442D01*
X134459563Y-89024757D01*
X134438921Y-89008123D01*
X132550329Y-87119531D01*
X132550324Y-87119527D01*
X132470406Y-87073387D01*
X132470405Y-87073386D01*
X132470404Y-87073386D01*
X132381260Y-87049500D01*
X132381259Y-87049500D01*
X130279386Y-87049500D01*
X130212347Y-87029815D01*
X130191705Y-87013181D01*
X130138017Y-86959493D01*
X130138011Y-86959488D01*
X130012488Y-86887017D01*
X130012489Y-86887017D01*
X130001006Y-86883940D01*
X129872475Y-86849500D01*
X129727525Y-86849500D01*
X129598993Y-86883940D01*
X129587511Y-86887017D01*
X129461988Y-86959488D01*
X129461982Y-86959493D01*
X129359493Y-87061982D01*
X129359488Y-87061988D01*
X129287017Y-87187511D01*
X129287016Y-87187515D01*
X129249500Y-87327525D01*
X126168157Y-87327525D01*
X129883863Y-83611819D01*
X129945186Y-83578334D01*
X129971544Y-83575500D01*
X130047472Y-83575500D01*
X130047475Y-83575500D01*
X130187485Y-83537984D01*
X130313015Y-83465509D01*
X130415509Y-83363015D01*
X130487984Y-83237485D01*
X130525500Y-83097475D01*
X130525500Y-82952525D01*
X130487984Y-82812515D01*
X130452385Y-82750856D01*
X134623500Y-82750856D01*
X134623500Y-82761058D01*
X134623500Y-84220088D01*
X134644431Y-84298205D01*
X134647385Y-84309229D01*
X134647387Y-84309234D01*
X134693527Y-84389151D01*
X134693529Y-84389154D01*
X134693530Y-84389155D01*
X135110845Y-84806470D01*
X135190769Y-84852614D01*
X135279913Y-84876500D01*
X135279915Y-84876500D01*
X135396064Y-84876500D01*
X135463103Y-84896185D01*
X135508858Y-84948989D01*
X135518802Y-85018147D01*
X135489777Y-85081703D01*
X135458064Y-85107887D01*
X135411988Y-85134488D01*
X135411982Y-85134493D01*
X135309493Y-85236982D01*
X135309488Y-85236988D01*
X135237017Y-85362511D01*
X135237016Y-85362515D01*
X135199500Y-85502525D01*
X135199500Y-85647475D01*
X135223283Y-85736232D01*
X135237017Y-85787488D01*
X135309488Y-85913011D01*
X135309490Y-85913013D01*
X135309491Y-85913015D01*
X135411985Y-86015509D01*
X135411986Y-86015510D01*
X135411988Y-86015511D01*
X135537511Y-86087982D01*
X135537512Y-86087982D01*
X135537515Y-86087984D01*
X135677525Y-86125500D01*
X135753456Y-86125500D01*
X135820495Y-86145185D01*
X135841137Y-86161819D01*
X139410788Y-89731470D01*
X139490712Y-89777614D01*
X139579856Y-89801500D01*
X139579858Y-89801500D01*
X149270142Y-89801500D01*
X149270144Y-89801500D01*
X149359288Y-89777614D01*
X149439212Y-89731470D01*
X152958863Y-86211819D01*
X153020186Y-86178334D01*
X153046544Y-86175500D01*
X153122472Y-86175500D01*
X153122475Y-86175500D01*
X153262485Y-86137984D01*
X153388015Y-86065509D01*
X153490509Y-85963015D01*
X153562984Y-85837485D01*
X153600500Y-85697475D01*
X153600500Y-85552525D01*
X153562984Y-85412515D01*
X153534116Y-85362515D01*
X153490511Y-85286988D01*
X153490506Y-85286982D01*
X153388017Y-85184493D01*
X153388011Y-85184488D01*
X153262488Y-85112017D01*
X153262489Y-85112017D01*
X153251006Y-85108940D01*
X153122475Y-85074500D01*
X152977525Y-85074500D01*
X152848993Y-85108940D01*
X152837511Y-85112017D01*
X152711988Y-85184488D01*
X152711982Y-85184493D01*
X152609493Y-85286982D01*
X152609488Y-85286988D01*
X152537017Y-85412511D01*
X152537016Y-85412515D01*
X152499500Y-85552525D01*
X152499500Y-85552527D01*
X152499500Y-85628456D01*
X152479815Y-85695495D01*
X152463181Y-85716137D01*
X149115137Y-89064181D01*
X149053814Y-89097666D01*
X149027456Y-89100500D01*
X139822544Y-89100500D01*
X139755505Y-89080815D01*
X139734863Y-89064181D01*
X136336819Y-85666137D01*
X136303334Y-85604814D01*
X136300500Y-85578456D01*
X136300500Y-85502527D01*
X136300500Y-85502525D01*
X136262984Y-85362515D01*
X136262696Y-85362017D01*
X136190511Y-85236988D01*
X136190506Y-85236982D01*
X136088017Y-85134493D01*
X136088011Y-85134488D01*
X136041936Y-85107887D01*
X135993720Y-85057320D01*
X135980498Y-84988713D01*
X136006466Y-84923848D01*
X136063380Y-84883320D01*
X136103936Y-84876500D01*
X139945142Y-84876500D01*
X139945144Y-84876500D01*
X140034288Y-84852614D01*
X140114212Y-84806470D01*
X140358863Y-84561819D01*
X140420186Y-84528334D01*
X140446544Y-84525500D01*
X140522472Y-84525500D01*
X140522475Y-84525500D01*
X140662485Y-84487984D01*
X140788015Y-84415509D01*
X140890509Y-84313015D01*
X140962984Y-84187485D01*
X141000500Y-84047475D01*
X141000500Y-83902525D01*
X140962984Y-83762515D01*
X140939360Y-83721598D01*
X140890511Y-83636988D01*
X140890506Y-83636982D01*
X140788017Y-83534493D01*
X140788011Y-83534488D01*
X140662488Y-83462017D01*
X140662489Y-83462017D01*
X140651006Y-83458940D01*
X140522475Y-83424500D01*
X140377525Y-83424500D01*
X140248993Y-83458940D01*
X140237511Y-83462017D01*
X140111988Y-83534488D01*
X140111982Y-83534493D01*
X140009493Y-83636982D01*
X140009488Y-83636988D01*
X139937017Y-83762511D01*
X139937016Y-83762515D01*
X139899500Y-83902525D01*
X139899500Y-83902527D01*
X139899500Y-83978456D01*
X139890855Y-84007896D01*
X139884332Y-84037883D01*
X139880577Y-84042898D01*
X139879815Y-84045495D01*
X139863181Y-84066137D01*
X139790137Y-84139181D01*
X139728814Y-84172666D01*
X139702456Y-84175500D01*
X136239398Y-84175500D01*
X136172359Y-84155815D01*
X136126604Y-84103011D01*
X136116660Y-84033853D01*
X136119623Y-84019407D01*
X136125500Y-83997475D01*
X136125500Y-83921544D01*
X136145185Y-83854505D01*
X136161819Y-83833863D01*
X139933863Y-80061819D01*
X139995186Y-80028334D01*
X140021544Y-80025500D01*
X146295614Y-80025500D01*
X146362653Y-80045185D01*
X146383295Y-80061819D01*
X146436985Y-80115509D01*
X146436986Y-80115510D01*
X146436988Y-80115511D01*
X146562511Y-80187982D01*
X146562512Y-80187982D01*
X146562515Y-80187984D01*
X146702525Y-80225500D01*
X146702528Y-80225500D01*
X146847472Y-80225500D01*
X146847475Y-80225500D01*
X146987485Y-80187984D01*
X147113015Y-80115509D01*
X147215509Y-80013015D01*
X147287984Y-79887485D01*
X147325500Y-79747475D01*
X147325500Y-79602525D01*
X147287984Y-79462515D01*
X147287696Y-79462017D01*
X147215511Y-79336988D01*
X147215506Y-79336982D01*
X147113017Y-79234493D01*
X147113011Y-79234488D01*
X146987488Y-79162017D01*
X146987489Y-79162017D01*
X146976006Y-79158940D01*
X146847475Y-79124500D01*
X146702525Y-79124500D01*
X146573993Y-79158940D01*
X146562511Y-79162017D01*
X146436988Y-79234488D01*
X146436982Y-79234493D01*
X146383295Y-79288181D01*
X146321972Y-79321666D01*
X146295614Y-79324500D01*
X139778854Y-79324500D01*
X139728531Y-79337984D01*
X139728530Y-79337983D01*
X139689716Y-79348384D01*
X139689709Y-79348387D01*
X139609791Y-79394527D01*
X139609786Y-79394531D01*
X135666137Y-83338181D01*
X135643271Y-83350666D01*
X135622507Y-83366412D01*
X135610347Y-83368644D01*
X135604814Y-83371666D01*
X135588066Y-83374127D01*
X135583268Y-83374500D01*
X135502525Y-83374500D01*
X135469528Y-83383341D01*
X135458110Y-83384229D01*
X135434682Y-83379283D01*
X135410743Y-83378714D01*
X135401117Y-83372199D01*
X135389747Y-83369799D01*
X135372711Y-83352973D01*
X135352881Y-83339551D01*
X135348306Y-83328867D01*
X135340037Y-83320700D01*
X135334802Y-83297334D01*
X135325377Y-83275323D01*
X135324500Y-83260602D01*
X135324500Y-82993544D01*
X135344185Y-82926505D01*
X135360819Y-82905863D01*
X136258863Y-82007819D01*
X136320186Y-81974334D01*
X136346544Y-81971500D01*
X136422472Y-81971500D01*
X136422475Y-81971500D01*
X136562485Y-81933984D01*
X136688015Y-81861509D01*
X136790509Y-81759015D01*
X136862984Y-81633485D01*
X136900500Y-81493475D01*
X136900500Y-81348525D01*
X136862984Y-81208515D01*
X136847443Y-81181598D01*
X136790511Y-81082988D01*
X136790506Y-81082982D01*
X136688017Y-80980493D01*
X136688011Y-80980488D01*
X136562488Y-80908017D01*
X136562489Y-80908017D01*
X136551006Y-80904940D01*
X136422475Y-80870500D01*
X136277525Y-80870500D01*
X136148993Y-80904940D01*
X136137511Y-80908017D01*
X136011988Y-80980488D01*
X136011982Y-80980493D01*
X135909493Y-81082982D01*
X135909488Y-81082988D01*
X135837017Y-81208511D01*
X135837016Y-81208515D01*
X135799500Y-81348525D01*
X135799500Y-81348527D01*
X135799500Y-81424456D01*
X135779815Y-81491495D01*
X135763181Y-81512137D01*
X134693531Y-82581786D01*
X134693529Y-82581789D01*
X134660276Y-82639385D01*
X134660275Y-82639387D01*
X134653113Y-82651793D01*
X134647386Y-82661712D01*
X134623500Y-82750856D01*
X130452385Y-82750856D01*
X130415509Y-82686985D01*
X130313015Y-82584491D01*
X130313013Y-82584490D01*
X130313011Y-82584488D01*
X130187488Y-82512017D01*
X130187489Y-82512017D01*
X130176006Y-82508940D01*
X130047475Y-82474500D01*
X129902525Y-82474500D01*
X129773993Y-82508940D01*
X129762511Y-82512017D01*
X129636988Y-82584488D01*
X129636982Y-82584493D01*
X129534493Y-82686982D01*
X129534488Y-82686988D01*
X129462017Y-82812511D01*
X129462016Y-82812515D01*
X129424500Y-82952525D01*
X129424500Y-82952527D01*
X129424500Y-83028456D01*
X129404815Y-83095495D01*
X129388181Y-83116137D01*
X123119531Y-89384786D01*
X123119530Y-89384788D01*
X123086369Y-89442225D01*
X123073386Y-89464712D01*
X123049500Y-89553856D01*
X107500500Y-89553856D01*
X107500500Y-86460321D01*
X108999500Y-86460321D01*
X108999500Y-88209678D01*
X109014032Y-88282735D01*
X109014033Y-88282739D01*
X109014034Y-88282740D01*
X109069399Y-88365601D01*
X109152260Y-88420966D01*
X109152264Y-88420967D01*
X109225321Y-88435499D01*
X109225324Y-88435500D01*
X109225326Y-88435500D01*
X110974676Y-88435500D01*
X110974677Y-88435499D01*
X111047740Y-88420966D01*
X111130601Y-88365601D01*
X111185966Y-88282740D01*
X111200500Y-88209674D01*
X111200500Y-86460326D01*
X111200500Y-86460323D01*
X111200499Y-86460321D01*
X111185967Y-86387264D01*
X111185966Y-86387260D01*
X111181882Y-86381148D01*
X111130601Y-86304399D01*
X111075235Y-86267405D01*
X111047739Y-86249033D01*
X111047735Y-86249032D01*
X110974677Y-86234500D01*
X110974674Y-86234500D01*
X109225326Y-86234500D01*
X109225323Y-86234500D01*
X109152264Y-86249032D01*
X109152260Y-86249033D01*
X109069399Y-86304399D01*
X109014033Y-86387260D01*
X109014032Y-86387264D01*
X108999500Y-86460321D01*
X107500500Y-86460321D01*
X107500500Y-84708389D01*
X108999500Y-84708389D01*
X108999500Y-84881611D01*
X109026598Y-85052701D01*
X109069420Y-85184493D01*
X109080128Y-85217447D01*
X109090083Y-85236985D01*
X109158768Y-85371788D01*
X109260586Y-85511928D01*
X109383072Y-85634414D01*
X109523212Y-85736232D01*
X109677555Y-85814873D01*
X109842299Y-85868402D01*
X110013389Y-85895500D01*
X110013390Y-85895500D01*
X110186610Y-85895500D01*
X110186611Y-85895500D01*
X110357701Y-85868402D01*
X110522445Y-85814873D01*
X110676788Y-85736232D01*
X110816928Y-85634414D01*
X110939414Y-85511928D01*
X111041232Y-85371788D01*
X111119873Y-85217445D01*
X111173402Y-85052701D01*
X111200500Y-84881611D01*
X111200500Y-84708389D01*
X111173402Y-84537299D01*
X111119873Y-84372555D01*
X111041232Y-84218212D01*
X110939414Y-84078072D01*
X110816928Y-83955586D01*
X110676788Y-83853768D01*
X110522445Y-83775127D01*
X110357701Y-83721598D01*
X110357699Y-83721597D01*
X110357698Y-83721597D01*
X110226271Y-83700781D01*
X110186611Y-83694500D01*
X110013389Y-83694500D01*
X109973728Y-83700781D01*
X109842302Y-83721597D01*
X109842299Y-83721598D01*
X109740072Y-83754814D01*
X109677552Y-83775128D01*
X109523211Y-83853768D01*
X109456104Y-83902525D01*
X109383072Y-83955586D01*
X109383070Y-83955588D01*
X109383069Y-83955588D01*
X109260588Y-84078069D01*
X109260588Y-84078070D01*
X109260586Y-84078072D01*
X109242467Y-84103011D01*
X109158768Y-84218211D01*
X109080128Y-84372552D01*
X109026597Y-84537302D01*
X109022714Y-84561819D01*
X108999500Y-84708389D01*
X107500500Y-84708389D01*
X107500500Y-83652525D01*
X112849500Y-83652525D01*
X112849500Y-83797475D01*
X112877649Y-83902527D01*
X112887017Y-83937488D01*
X112959488Y-84063011D01*
X112959490Y-84063013D01*
X112959491Y-84063015D01*
X113061985Y-84165509D01*
X113061986Y-84165510D01*
X113061988Y-84165511D01*
X113187511Y-84237982D01*
X113187512Y-84237982D01*
X113187515Y-84237984D01*
X113327525Y-84275500D01*
X113403456Y-84275500D01*
X113470495Y-84295185D01*
X113491137Y-84311819D01*
X117384788Y-88205470D01*
X117384789Y-88205471D01*
X117384791Y-88205472D01*
X117404161Y-88216655D01*
X117454085Y-88245478D01*
X117454087Y-88245480D01*
X117461342Y-88249668D01*
X117464712Y-88251614D01*
X117553856Y-88275500D01*
X119545614Y-88275500D01*
X119612653Y-88295185D01*
X119633295Y-88311819D01*
X119686985Y-88365509D01*
X119686986Y-88365510D01*
X119686988Y-88365511D01*
X119812511Y-88437982D01*
X119812512Y-88437982D01*
X119812515Y-88437984D01*
X119952525Y-88475500D01*
X119952528Y-88475500D01*
X120097472Y-88475500D01*
X120097475Y-88475500D01*
X120237485Y-88437984D01*
X120363015Y-88365509D01*
X120465509Y-88263015D01*
X120537984Y-88137485D01*
X120575500Y-87997475D01*
X120575500Y-87852525D01*
X120537984Y-87712515D01*
X120480231Y-87612485D01*
X120465511Y-87586988D01*
X120465506Y-87586982D01*
X120363017Y-87484493D01*
X120363011Y-87484488D01*
X120237488Y-87412017D01*
X120237489Y-87412017D01*
X120226006Y-87408940D01*
X120097475Y-87374500D01*
X119952525Y-87374500D01*
X119823993Y-87408940D01*
X119812511Y-87412017D01*
X119686988Y-87484488D01*
X119686982Y-87484493D01*
X119633295Y-87538181D01*
X119571972Y-87571666D01*
X119545614Y-87574500D01*
X117796544Y-87574500D01*
X117729505Y-87554815D01*
X117708863Y-87538181D01*
X113986819Y-83816137D01*
X113953334Y-83754814D01*
X113950500Y-83728456D01*
X113950500Y-83652527D01*
X113950500Y-83652525D01*
X113912984Y-83512515D01*
X113885843Y-83465506D01*
X113840511Y-83386988D01*
X113840506Y-83386982D01*
X113738017Y-83284493D01*
X113738011Y-83284488D01*
X113612488Y-83212017D01*
X113612489Y-83212017D01*
X113601006Y-83208940D01*
X113472475Y-83174500D01*
X113327525Y-83174500D01*
X113198993Y-83208940D01*
X113187511Y-83212017D01*
X113061988Y-83284488D01*
X113061982Y-83284493D01*
X112959493Y-83386982D01*
X112959488Y-83386988D01*
X112887017Y-83512511D01*
X112887016Y-83512515D01*
X112849500Y-83652525D01*
X107500500Y-83652525D01*
X107500500Y-82168389D01*
X108999500Y-82168389D01*
X108999500Y-82341610D01*
X109026489Y-82512017D01*
X109026598Y-82512701D01*
X109080127Y-82677445D01*
X109158768Y-82831788D01*
X109260586Y-82971928D01*
X109383072Y-83094414D01*
X109523212Y-83196232D01*
X109677555Y-83274873D01*
X109842299Y-83328402D01*
X110013389Y-83355500D01*
X110013390Y-83355500D01*
X110186610Y-83355500D01*
X110186611Y-83355500D01*
X110357701Y-83328402D01*
X110522445Y-83274873D01*
X110676788Y-83196232D01*
X110816928Y-83094414D01*
X110939414Y-82971928D01*
X111041232Y-82831788D01*
X111119873Y-82677445D01*
X111173402Y-82512701D01*
X111200500Y-82341611D01*
X111200500Y-82168389D01*
X111173402Y-81997299D01*
X111119873Y-81832555D01*
X111041232Y-81678212D01*
X110939414Y-81538072D01*
X110816928Y-81415586D01*
X110676788Y-81313768D01*
X110522445Y-81235127D01*
X110357701Y-81181598D01*
X110357699Y-81181597D01*
X110357698Y-81181597D01*
X110226271Y-81160781D01*
X110186611Y-81154500D01*
X110013389Y-81154500D01*
X109973728Y-81160781D01*
X109842302Y-81181597D01*
X109677552Y-81235128D01*
X109523211Y-81313768D01*
X109487806Y-81339492D01*
X109383072Y-81415586D01*
X109383070Y-81415588D01*
X109383069Y-81415588D01*
X109260588Y-81538069D01*
X109260588Y-81538070D01*
X109260586Y-81538072D01*
X109229052Y-81581475D01*
X109158768Y-81678211D01*
X109080128Y-81832552D01*
X109080127Y-81832554D01*
X109080127Y-81832555D01*
X109067569Y-81871204D01*
X109026597Y-81997302D01*
X108999500Y-82168389D01*
X107500500Y-82168389D01*
X107500500Y-79628389D01*
X108999500Y-79628389D01*
X108999500Y-79801611D01*
X109002676Y-79821666D01*
X109013101Y-79887488D01*
X109026598Y-79972701D01*
X109080127Y-80137445D01*
X109158768Y-80291788D01*
X109260586Y-80431928D01*
X109383072Y-80554414D01*
X109523212Y-80656232D01*
X109677555Y-80734873D01*
X109842299Y-80788402D01*
X110013389Y-80815500D01*
X110013390Y-80815500D01*
X110186610Y-80815500D01*
X110186611Y-80815500D01*
X110357701Y-80788402D01*
X110522445Y-80734873D01*
X110676788Y-80656232D01*
X110816928Y-80554414D01*
X110939414Y-80431928D01*
X111041232Y-80291788D01*
X111119873Y-80137445D01*
X111173402Y-79972701D01*
X111200500Y-79801611D01*
X111200500Y-79628389D01*
X111173402Y-79457299D01*
X111119873Y-79292555D01*
X111041232Y-79138212D01*
X110939414Y-78998072D01*
X110816928Y-78875586D01*
X110676788Y-78773768D01*
X110522445Y-78695127D01*
X110357701Y-78641598D01*
X110357699Y-78641597D01*
X110357698Y-78641597D01*
X110226271Y-78620781D01*
X110186611Y-78614500D01*
X110013389Y-78614500D01*
X109973728Y-78620781D01*
X109842302Y-78641597D01*
X109677552Y-78695128D01*
X109523211Y-78773768D01*
X109457454Y-78821544D01*
X109383072Y-78875586D01*
X109383070Y-78875588D01*
X109383069Y-78875588D01*
X109260588Y-78998069D01*
X109260588Y-78998070D01*
X109260586Y-78998072D01*
X109231951Y-79037485D01*
X109158768Y-79138211D01*
X109080128Y-79292552D01*
X109026597Y-79457302D01*
X109008593Y-79570976D01*
X108999500Y-79628389D01*
X107500500Y-79628389D01*
X107500500Y-77088389D01*
X108999500Y-77088389D01*
X108999500Y-77261611D01*
X109026598Y-77432701D01*
X109080127Y-77597445D01*
X109158768Y-77751788D01*
X109260586Y-77891928D01*
X109383072Y-78014414D01*
X109523212Y-78116232D01*
X109677555Y-78194873D01*
X109842299Y-78248402D01*
X110013389Y-78275500D01*
X110013390Y-78275500D01*
X110186610Y-78275500D01*
X110186611Y-78275500D01*
X110357701Y-78248402D01*
X110522445Y-78194873D01*
X110676788Y-78116232D01*
X110816928Y-78014414D01*
X110939414Y-77891928D01*
X111041232Y-77751788D01*
X111119873Y-77597445D01*
X111173402Y-77432701D01*
X111200500Y-77261611D01*
X111200500Y-77088389D01*
X111173402Y-76917299D01*
X111119873Y-76752555D01*
X111041232Y-76598212D01*
X110939414Y-76458072D01*
X110908867Y-76427525D01*
X112999500Y-76427525D01*
X112999500Y-76572475D01*
X113037016Y-76712485D01*
X113037017Y-76712488D01*
X113109488Y-76838011D01*
X113109493Y-76838017D01*
X113163181Y-76891705D01*
X113196666Y-76953028D01*
X113199500Y-76979386D01*
X113199500Y-80721143D01*
X113217507Y-80788347D01*
X113217523Y-80788404D01*
X113223386Y-80810289D01*
X113269527Y-80890208D01*
X113269531Y-80890213D01*
X118913181Y-86533863D01*
X118946666Y-86595186D01*
X118949500Y-86621544D01*
X118949500Y-86697475D01*
X118987016Y-86837485D01*
X118987017Y-86837488D01*
X119059488Y-86963011D01*
X119059490Y-86963013D01*
X119059491Y-86963015D01*
X119161985Y-87065509D01*
X119161986Y-87065510D01*
X119161988Y-87065511D01*
X119287511Y-87137982D01*
X119287512Y-87137982D01*
X119287515Y-87137984D01*
X119427525Y-87175500D01*
X119427528Y-87175500D01*
X119572472Y-87175500D01*
X119572475Y-87175500D01*
X119712485Y-87137984D01*
X119838015Y-87065509D01*
X119940509Y-86963015D01*
X120012984Y-86837485D01*
X120050500Y-86697475D01*
X120050500Y-86552525D01*
X120023294Y-86450992D01*
X120024957Y-86381148D01*
X120064119Y-86323285D01*
X120128347Y-86295780D01*
X120197249Y-86307366D01*
X120205070Y-86311516D01*
X120211983Y-86315507D01*
X120211985Y-86315509D01*
X120337515Y-86387984D01*
X120477525Y-86425500D01*
X120477528Y-86425500D01*
X120622472Y-86425500D01*
X120622475Y-86425500D01*
X120762485Y-86387984D01*
X120888015Y-86315509D01*
X120990509Y-86213015D01*
X121062984Y-86087485D01*
X121100500Y-85947475D01*
X121100500Y-85802525D01*
X121062984Y-85662515D01*
X121044106Y-85629818D01*
X120990511Y-85536988D01*
X120990506Y-85536982D01*
X120888017Y-85434493D01*
X120888011Y-85434488D01*
X120762488Y-85362017D01*
X120762489Y-85362017D01*
X120730130Y-85353346D01*
X120622475Y-85324500D01*
X120622474Y-85324500D01*
X120617406Y-85323142D01*
X120557746Y-85286776D01*
X120527217Y-85223929D01*
X120525500Y-85203367D01*
X120525500Y-73828858D01*
X120525500Y-73828856D01*
X120501614Y-73739712D01*
X120475088Y-73693768D01*
X120455470Y-73659788D01*
X119961819Y-73166137D01*
X119928334Y-73104814D01*
X119925500Y-73078456D01*
X119925500Y-73002526D01*
X119913275Y-72956902D01*
X119887984Y-72862515D01*
X119840415Y-72780124D01*
X119815511Y-72736988D01*
X119815506Y-72736982D01*
X119713017Y-72634493D01*
X119713011Y-72634488D01*
X119587488Y-72562017D01*
X119587489Y-72562017D01*
X119576006Y-72558940D01*
X119447475Y-72524500D01*
X119302525Y-72524500D01*
X119173993Y-72558940D01*
X119162511Y-72562017D01*
X119036988Y-72634488D01*
X119036982Y-72634493D01*
X118934493Y-72736982D01*
X118934488Y-72736988D01*
X118862017Y-72862511D01*
X118862016Y-72862515D01*
X118824500Y-73002525D01*
X118824500Y-73147475D01*
X118862016Y-73287485D01*
X118862017Y-73287488D01*
X118934488Y-73413011D01*
X118934490Y-73413013D01*
X118934491Y-73413015D01*
X119036985Y-73515509D01*
X119036986Y-73515510D01*
X119036988Y-73515511D01*
X119162511Y-73587982D01*
X119162512Y-73587982D01*
X119162515Y-73587984D01*
X119302525Y-73625500D01*
X119378456Y-73625500D01*
X119445495Y-73645185D01*
X119466137Y-73661819D01*
X119788181Y-73983863D01*
X119821666Y-74045186D01*
X119824500Y-74071544D01*
X119824500Y-81030614D01*
X119818261Y-81051859D01*
X119816682Y-81073948D01*
X119808609Y-81084731D01*
X119804815Y-81097653D01*
X119788081Y-81112152D01*
X119774810Y-81129881D01*
X119762189Y-81134588D01*
X119752011Y-81143408D01*
X119730093Y-81146559D01*
X119709346Y-81154298D01*
X119696185Y-81151435D01*
X119682853Y-81153352D01*
X119662709Y-81144152D01*
X119641073Y-81139446D01*
X119623347Y-81126177D01*
X119619297Y-81124327D01*
X119612819Y-81118295D01*
X119611819Y-81117295D01*
X119578334Y-81055972D01*
X119575500Y-81029614D01*
X119575500Y-77228858D01*
X119575500Y-77228856D01*
X119551614Y-77139712D01*
X119529311Y-77101082D01*
X119505470Y-77059788D01*
X116436819Y-73991137D01*
X116403334Y-73929814D01*
X116400500Y-73903456D01*
X116400500Y-73827527D01*
X116400500Y-73827525D01*
X116362984Y-73687515D01*
X116348148Y-73661819D01*
X116290511Y-73561988D01*
X116290506Y-73561982D01*
X116188017Y-73459493D01*
X116188011Y-73459488D01*
X116062488Y-73387017D01*
X116062489Y-73387017D01*
X116051006Y-73383940D01*
X115922475Y-73349500D01*
X115777525Y-73349500D01*
X115648993Y-73383940D01*
X115637511Y-73387017D01*
X115511988Y-73459488D01*
X115511982Y-73459493D01*
X115409493Y-73561982D01*
X115409488Y-73561988D01*
X115337017Y-73687511D01*
X115337016Y-73687515D01*
X115299500Y-73827525D01*
X115299500Y-73972475D01*
X115326046Y-74071544D01*
X115337017Y-74112488D01*
X115409488Y-74238011D01*
X115409490Y-74238013D01*
X115409491Y-74238015D01*
X115511985Y-74340509D01*
X115511986Y-74340510D01*
X115511988Y-74340511D01*
X115637511Y-74412982D01*
X115637512Y-74412982D01*
X115637515Y-74412984D01*
X115777525Y-74450500D01*
X115853456Y-74450500D01*
X115920495Y-74470185D01*
X115941137Y-74486819D01*
X118838181Y-77383863D01*
X118871666Y-77445186D01*
X118874500Y-77471544D01*
X118874500Y-80246156D01*
X118874427Y-80246401D01*
X118874499Y-80246647D01*
X118864577Y-80279946D01*
X118854815Y-80313195D01*
X118854622Y-80313361D01*
X118854549Y-80313608D01*
X118828115Y-80336330D01*
X118802011Y-80358950D01*
X118801759Y-80358986D01*
X118801564Y-80359154D01*
X118767107Y-80363968D01*
X118732853Y-80368894D01*
X118732620Y-80368787D01*
X118732367Y-80368823D01*
X118700863Y-80354285D01*
X118669297Y-80339869D01*
X118669080Y-80339617D01*
X118668927Y-80339547D01*
X118667067Y-80337285D01*
X118645920Y-80312782D01*
X118644464Y-80310498D01*
X118630470Y-80286258D01*
X118626480Y-80282268D01*
X118619185Y-80270817D01*
X118613096Y-80249773D01*
X118602599Y-80230549D01*
X118599765Y-80204191D01*
X118599765Y-80128262D01*
X118599765Y-80128260D01*
X118562249Y-79988250D01*
X118553269Y-79972697D01*
X118489776Y-79862723D01*
X118489771Y-79862717D01*
X118387282Y-79760228D01*
X118387276Y-79760223D01*
X118261753Y-79687752D01*
X118261754Y-79687752D01*
X118250271Y-79684675D01*
X118121740Y-79650235D01*
X117976790Y-79650235D01*
X117836780Y-79687751D01*
X117836778Y-79687751D01*
X117836778Y-79687752D01*
X117711243Y-79760230D01*
X117704800Y-79765175D01*
X117703680Y-79763715D01*
X117651329Y-79792285D01*
X117581639Y-79787285D01*
X117537318Y-79758794D01*
X117513017Y-79734493D01*
X117513011Y-79734488D01*
X117387488Y-79662017D01*
X117387489Y-79662017D01*
X117376006Y-79658940D01*
X117247475Y-79624500D01*
X117102525Y-79624500D01*
X116973993Y-79658940D01*
X116962511Y-79662017D01*
X116836988Y-79734488D01*
X116836982Y-79734493D01*
X116783295Y-79788181D01*
X116721972Y-79821666D01*
X116695614Y-79824500D01*
X114895363Y-79824500D01*
X114828324Y-79804815D01*
X114787976Y-79762501D01*
X114771804Y-79734491D01*
X114715509Y-79636985D01*
X114613015Y-79534491D01*
X114613013Y-79534490D01*
X114613011Y-79534488D01*
X114487488Y-79462017D01*
X114487489Y-79462017D01*
X114469881Y-79457299D01*
X114347475Y-79424500D01*
X114202525Y-79424500D01*
X114062515Y-79462016D01*
X114062513Y-79462016D01*
X114056594Y-79463603D01*
X113986744Y-79461940D01*
X113928881Y-79422778D01*
X113901377Y-79358549D01*
X113900500Y-79343828D01*
X113900500Y-76979386D01*
X113920185Y-76912347D01*
X113936819Y-76891705D01*
X113990509Y-76838015D01*
X114062984Y-76712485D01*
X114100500Y-76572475D01*
X114100500Y-76427525D01*
X114062984Y-76287515D01*
X113990509Y-76161985D01*
X113888015Y-76059491D01*
X113888013Y-76059490D01*
X113888011Y-76059488D01*
X113762488Y-75987017D01*
X113762489Y-75987017D01*
X113751006Y-75983940D01*
X113622475Y-75949500D01*
X113477525Y-75949500D01*
X113348993Y-75983940D01*
X113337511Y-75987017D01*
X113211988Y-76059488D01*
X113211982Y-76059493D01*
X113109493Y-76161982D01*
X113109488Y-76161988D01*
X113037017Y-76287511D01*
X113037016Y-76287515D01*
X112999500Y-76427525D01*
X110908867Y-76427525D01*
X110816928Y-76335586D01*
X110676788Y-76233768D01*
X110522445Y-76155127D01*
X110357701Y-76101598D01*
X110357699Y-76101597D01*
X110357698Y-76101597D01*
X110226271Y-76080781D01*
X110186611Y-76074500D01*
X110013389Y-76074500D01*
X109973728Y-76080781D01*
X109842302Y-76101597D01*
X109677552Y-76155128D01*
X109523211Y-76233768D01*
X109449241Y-76287511D01*
X109383072Y-76335586D01*
X109383070Y-76335588D01*
X109383069Y-76335588D01*
X109260588Y-76458069D01*
X109260588Y-76458070D01*
X109260586Y-76458072D01*
X109216859Y-76518256D01*
X109158768Y-76598211D01*
X109080128Y-76752552D01*
X109026597Y-76917302D01*
X109024899Y-76928024D01*
X108999500Y-77088389D01*
X107500500Y-77088389D01*
X107500500Y-74548389D01*
X108999500Y-74548389D01*
X108999500Y-74721611D01*
X109026598Y-74892701D01*
X109080127Y-75057445D01*
X109158768Y-75211788D01*
X109260586Y-75351928D01*
X109383072Y-75474414D01*
X109523212Y-75576232D01*
X109677555Y-75654873D01*
X109842299Y-75708402D01*
X110013389Y-75735500D01*
X110013390Y-75735500D01*
X110186610Y-75735500D01*
X110186611Y-75735500D01*
X110357701Y-75708402D01*
X110522445Y-75654873D01*
X110676788Y-75576232D01*
X110816928Y-75474414D01*
X110939414Y-75351928D01*
X111041232Y-75211788D01*
X111119873Y-75057445D01*
X111173402Y-74892701D01*
X111200500Y-74721611D01*
X111200500Y-74548389D01*
X111173402Y-74377299D01*
X111119873Y-74212555D01*
X111041232Y-74058212D01*
X110939414Y-73918072D01*
X110816928Y-73795586D01*
X110676788Y-73693768D01*
X110522445Y-73615127D01*
X110357701Y-73561598D01*
X110357699Y-73561597D01*
X110357698Y-73561597D01*
X110226271Y-73540781D01*
X110186611Y-73534500D01*
X110013389Y-73534500D01*
X109973728Y-73540781D01*
X109842302Y-73561597D01*
X109677552Y-73615128D01*
X109523211Y-73693768D01*
X109459984Y-73739706D01*
X109383072Y-73795586D01*
X109383070Y-73795588D01*
X109383069Y-73795588D01*
X109260588Y-73918069D01*
X109260588Y-73918070D01*
X109260586Y-73918072D01*
X109221062Y-73972472D01*
X109158768Y-74058211D01*
X109080128Y-74212552D01*
X109026597Y-74377302D01*
X109020946Y-74412982D01*
X108999500Y-74548389D01*
X107500500Y-74548389D01*
X107500500Y-72008428D01*
X109000000Y-72008428D01*
X109000000Y-72181571D01*
X109027085Y-72352584D01*
X109080591Y-72517257D01*
X109159194Y-72671521D01*
X109238097Y-72780124D01*
X109669269Y-72348952D01*
X109699901Y-72402007D01*
X109792993Y-72495099D01*
X109846046Y-72525729D01*
X109414874Y-72956901D01*
X109523478Y-73035805D01*
X109677742Y-73114408D01*
X109842415Y-73167914D01*
X110013429Y-73195000D01*
X110186571Y-73195000D01*
X110357584Y-73167914D01*
X110522257Y-73114408D01*
X110676528Y-73035801D01*
X110785124Y-72956902D01*
X110785125Y-72956901D01*
X110353953Y-72525729D01*
X110407007Y-72495099D01*
X110500099Y-72402007D01*
X110530729Y-72348953D01*
X110961901Y-72780125D01*
X110961902Y-72780124D01*
X111040801Y-72671528D01*
X111119408Y-72517257D01*
X111172914Y-72352584D01*
X111200000Y-72181571D01*
X111200000Y-72008428D01*
X111172914Y-71837415D01*
X111119408Y-71672742D01*
X111069958Y-71575693D01*
X111045415Y-71527525D01*
X130324500Y-71527525D01*
X130324500Y-71672475D01*
X130362016Y-71812485D01*
X130362017Y-71812488D01*
X130434488Y-71938011D01*
X130434493Y-71938017D01*
X130488181Y-71991705D01*
X130521666Y-72053028D01*
X130524500Y-72079386D01*
X130524500Y-72921143D01*
X130546296Y-73002492D01*
X130546307Y-73002528D01*
X130548386Y-73010288D01*
X130594527Y-73090208D01*
X130594531Y-73090213D01*
X136238181Y-78733863D01*
X136271666Y-78795186D01*
X136274500Y-78821544D01*
X136274500Y-78897475D01*
X136312016Y-79037485D01*
X136312017Y-79037488D01*
X136384488Y-79163011D01*
X136384490Y-79163013D01*
X136384491Y-79163015D01*
X136486985Y-79265509D01*
X136486986Y-79265510D01*
X136486988Y-79265511D01*
X136612511Y-79337982D01*
X136612512Y-79337982D01*
X136612515Y-79337984D01*
X136752525Y-79375500D01*
X136752528Y-79375500D01*
X136897472Y-79375500D01*
X136897475Y-79375500D01*
X137037485Y-79337984D01*
X137163015Y-79265509D01*
X137265509Y-79163015D01*
X137337984Y-79037485D01*
X137375500Y-78897475D01*
X137375500Y-78752525D01*
X137337984Y-78612515D01*
X137265509Y-78486985D01*
X137163015Y-78384491D01*
X137163013Y-78384490D01*
X137163011Y-78384488D01*
X137037488Y-78312017D01*
X137037489Y-78312017D01*
X137026006Y-78308940D01*
X136897475Y-78274500D01*
X136897472Y-78274500D01*
X136821544Y-78274500D01*
X136754505Y-78254815D01*
X136733863Y-78238181D01*
X131261819Y-72766137D01*
X131228334Y-72704814D01*
X131225500Y-72678456D01*
X131225500Y-72079386D01*
X131245185Y-72012347D01*
X131261819Y-71991705D01*
X131315509Y-71938015D01*
X131387984Y-71812485D01*
X131425500Y-71672475D01*
X131425500Y-71527525D01*
X131387984Y-71387515D01*
X131315509Y-71261985D01*
X131213015Y-71159491D01*
X131213013Y-71159490D01*
X131213011Y-71159488D01*
X131087488Y-71087017D01*
X131087489Y-71087017D01*
X131076006Y-71083940D01*
X130947475Y-71049500D01*
X130802525Y-71049500D01*
X130673993Y-71083940D01*
X130662511Y-71087017D01*
X130536988Y-71159488D01*
X130536982Y-71159493D01*
X130434493Y-71261982D01*
X130434488Y-71261988D01*
X130362017Y-71387511D01*
X130362016Y-71387515D01*
X130324500Y-71527525D01*
X111045415Y-71527525D01*
X111040805Y-71518478D01*
X110961901Y-71409874D01*
X110530729Y-71841046D01*
X110500099Y-71787993D01*
X110407007Y-71694901D01*
X110353952Y-71664270D01*
X110785124Y-71233097D01*
X110676521Y-71154194D01*
X110522257Y-71075591D01*
X110357584Y-71022085D01*
X110186571Y-70995000D01*
X110013429Y-70995000D01*
X109842415Y-71022085D01*
X109677742Y-71075591D01*
X109523476Y-71154195D01*
X109523474Y-71154196D01*
X109414874Y-71233096D01*
X109414874Y-71233097D01*
X109846047Y-71664270D01*
X109792993Y-71694901D01*
X109699901Y-71787993D01*
X109669270Y-71841047D01*
X109238097Y-71409874D01*
X109238096Y-71409874D01*
X109159196Y-71518474D01*
X109159195Y-71518476D01*
X109080591Y-71672742D01*
X109027085Y-71837415D01*
X109000000Y-72008428D01*
X107500500Y-72008428D01*
X107500500Y-69468389D01*
X108999500Y-69468389D01*
X108999500Y-69641611D01*
X109026598Y-69812701D01*
X109080127Y-69977445D01*
X109158768Y-70131788D01*
X109260586Y-70271928D01*
X109383072Y-70394414D01*
X109523212Y-70496232D01*
X109677555Y-70574873D01*
X109842299Y-70628402D01*
X110013389Y-70655500D01*
X110013390Y-70655500D01*
X110186610Y-70655500D01*
X110186611Y-70655500D01*
X110357701Y-70628402D01*
X110522445Y-70574873D01*
X110676788Y-70496232D01*
X110816928Y-70394414D01*
X110939414Y-70271928D01*
X111041232Y-70131788D01*
X111119873Y-69977445D01*
X111173402Y-69812701D01*
X111200500Y-69641611D01*
X111200500Y-69468389D01*
X111173402Y-69297299D01*
X111119873Y-69132555D01*
X111041232Y-68978212D01*
X110939414Y-68838072D01*
X110816928Y-68715586D01*
X110676788Y-68613768D01*
X110522445Y-68535127D01*
X110357701Y-68481598D01*
X110357699Y-68481597D01*
X110357698Y-68481597D01*
X110226271Y-68460781D01*
X110186611Y-68454500D01*
X110013389Y-68454500D01*
X109973728Y-68460781D01*
X109842302Y-68481597D01*
X109677552Y-68535128D01*
X109523211Y-68613768D01*
X109443256Y-68671859D01*
X109383072Y-68715586D01*
X109383070Y-68715588D01*
X109383069Y-68715588D01*
X109260588Y-68838069D01*
X109260588Y-68838070D01*
X109260586Y-68838072D01*
X109216859Y-68898256D01*
X109158768Y-68978211D01*
X109080128Y-69132552D01*
X109026597Y-69297302D01*
X108999500Y-69468389D01*
X107500500Y-69468389D01*
X107500500Y-61637000D01*
X107520185Y-61569961D01*
X107572989Y-61524206D01*
X107624500Y-61513000D01*
X161400500Y-61513000D01*
X161467539Y-61532685D01*
G37*
%TD.AperFunction*%
%TD*%
M02*
