%TF.GenerationSoftware,KiCad,Pcbnew,9.0.8*%
%TF.CreationDate,2026-03-19T21:35:27-03:00*%
%TF.ProjectId,EEGFrontier,45454746-726f-46e7-9469-65722e6b6963,rev?*%
%TF.SameCoordinates,Original*%
%TF.FileFunction,Legend,Top*%
%TF.FilePolarity,Positive*%
%FSLAX46Y46*%
G04 Gerber Fmt 4.6, Leading zero omitted, Abs format (unit mm)*
G04 Created by KiCad (PCBNEW 9.0.8) date 2026-03-19 21:35:27*
%MOMM*%
%LPD*%
G01*
G04 APERTURE LIST*
%ADD10C,0.080000*%
%ADD11C,0.250000*%
%ADD12C,0.200000*%
%ADD13C,0.100000*%
%ADD14C,0.150000*%
%ADD15C,0.120000*%
%ADD16C,0.127000*%
%ADD17C,0.000000*%
G04 APERTURE END LIST*
D10*
X145551905Y-86920959D02*
X145504286Y-86897149D01*
X145504286Y-86897149D02*
X145432857Y-86897149D01*
X145432857Y-86897149D02*
X145361429Y-86920959D01*
X145361429Y-86920959D02*
X145313810Y-86968578D01*
X145313810Y-86968578D02*
X145290000Y-87016197D01*
X145290000Y-87016197D02*
X145266191Y-87111435D01*
X145266191Y-87111435D02*
X145266191Y-87182863D01*
X145266191Y-87182863D02*
X145290000Y-87278101D01*
X145290000Y-87278101D02*
X145313810Y-87325720D01*
X145313810Y-87325720D02*
X145361429Y-87373340D01*
X145361429Y-87373340D02*
X145432857Y-87397149D01*
X145432857Y-87397149D02*
X145480476Y-87397149D01*
X145480476Y-87397149D02*
X145551905Y-87373340D01*
X145551905Y-87373340D02*
X145575714Y-87349530D01*
X145575714Y-87349530D02*
X145575714Y-87182863D01*
X145575714Y-87182863D02*
X145480476Y-87182863D01*
X145790000Y-87397149D02*
X145790000Y-86897149D01*
X145790000Y-86897149D02*
X145980476Y-86897149D01*
X145980476Y-86897149D02*
X146028095Y-86920959D01*
X146028095Y-86920959D02*
X146051905Y-86944768D01*
X146051905Y-86944768D02*
X146075714Y-86992387D01*
X146075714Y-86992387D02*
X146075714Y-87063816D01*
X146075714Y-87063816D02*
X146051905Y-87111435D01*
X146051905Y-87111435D02*
X146028095Y-87135244D01*
X146028095Y-87135244D02*
X145980476Y-87159054D01*
X145980476Y-87159054D02*
X145790000Y-87159054D01*
X146290000Y-87397149D02*
X146290000Y-86897149D01*
X146623333Y-86897149D02*
X146718571Y-86897149D01*
X146718571Y-86897149D02*
X146766190Y-86920959D01*
X146766190Y-86920959D02*
X146813809Y-86968578D01*
X146813809Y-86968578D02*
X146837619Y-87063816D01*
X146837619Y-87063816D02*
X146837619Y-87230482D01*
X146837619Y-87230482D02*
X146813809Y-87325720D01*
X146813809Y-87325720D02*
X146766190Y-87373340D01*
X146766190Y-87373340D02*
X146718571Y-87397149D01*
X146718571Y-87397149D02*
X146623333Y-87397149D01*
X146623333Y-87397149D02*
X146575714Y-87373340D01*
X146575714Y-87373340D02*
X146528095Y-87325720D01*
X146528095Y-87325720D02*
X146504286Y-87230482D01*
X146504286Y-87230482D02*
X146504286Y-87063816D01*
X146504286Y-87063816D02*
X146528095Y-86968578D01*
X146528095Y-86968578D02*
X146575714Y-86920959D01*
X146575714Y-86920959D02*
X146623333Y-86897149D01*
X147266191Y-87063816D02*
X147266191Y-87397149D01*
X147147143Y-86873340D02*
X147028096Y-87230482D01*
X147028096Y-87230482D02*
X147337619Y-87230482D01*
X159531905Y-86920959D02*
X159484286Y-86897149D01*
X159484286Y-86897149D02*
X159412857Y-86897149D01*
X159412857Y-86897149D02*
X159341429Y-86920959D01*
X159341429Y-86920959D02*
X159293810Y-86968578D01*
X159293810Y-86968578D02*
X159270000Y-87016197D01*
X159270000Y-87016197D02*
X159246191Y-87111435D01*
X159246191Y-87111435D02*
X159246191Y-87182863D01*
X159246191Y-87182863D02*
X159270000Y-87278101D01*
X159270000Y-87278101D02*
X159293810Y-87325720D01*
X159293810Y-87325720D02*
X159341429Y-87373340D01*
X159341429Y-87373340D02*
X159412857Y-87397149D01*
X159412857Y-87397149D02*
X159460476Y-87397149D01*
X159460476Y-87397149D02*
X159531905Y-87373340D01*
X159531905Y-87373340D02*
X159555714Y-87349530D01*
X159555714Y-87349530D02*
X159555714Y-87182863D01*
X159555714Y-87182863D02*
X159460476Y-87182863D01*
X159770000Y-87397149D02*
X159770000Y-86897149D01*
X159770000Y-86897149D02*
X159960476Y-86897149D01*
X159960476Y-86897149D02*
X160008095Y-86920959D01*
X160008095Y-86920959D02*
X160031905Y-86944768D01*
X160031905Y-86944768D02*
X160055714Y-86992387D01*
X160055714Y-86992387D02*
X160055714Y-87063816D01*
X160055714Y-87063816D02*
X160031905Y-87111435D01*
X160031905Y-87111435D02*
X160008095Y-87135244D01*
X160008095Y-87135244D02*
X159960476Y-87159054D01*
X159960476Y-87159054D02*
X159770000Y-87159054D01*
X160270000Y-87397149D02*
X160270000Y-86897149D01*
X160603333Y-86897149D02*
X160698571Y-86897149D01*
X160698571Y-86897149D02*
X160746190Y-86920959D01*
X160746190Y-86920959D02*
X160793809Y-86968578D01*
X160793809Y-86968578D02*
X160817619Y-87063816D01*
X160817619Y-87063816D02*
X160817619Y-87230482D01*
X160817619Y-87230482D02*
X160793809Y-87325720D01*
X160793809Y-87325720D02*
X160746190Y-87373340D01*
X160746190Y-87373340D02*
X160698571Y-87397149D01*
X160698571Y-87397149D02*
X160603333Y-87397149D01*
X160603333Y-87397149D02*
X160555714Y-87373340D01*
X160555714Y-87373340D02*
X160508095Y-87325720D01*
X160508095Y-87325720D02*
X160484286Y-87230482D01*
X160484286Y-87230482D02*
X160484286Y-87063816D01*
X160484286Y-87063816D02*
X160508095Y-86968578D01*
X160508095Y-86968578D02*
X160555714Y-86920959D01*
X160555714Y-86920959D02*
X160603333Y-86897149D01*
X161293810Y-87397149D02*
X161008096Y-87397149D01*
X161150953Y-87397149D02*
X161150953Y-86897149D01*
X161150953Y-86897149D02*
X161103334Y-86968578D01*
X161103334Y-86968578D02*
X161055715Y-87016197D01*
X161055715Y-87016197D02*
X161008096Y-87040006D01*
D11*
X131293996Y-98629380D02*
X131246377Y-98677000D01*
X131246377Y-98677000D02*
X131103520Y-98724619D01*
X131103520Y-98724619D02*
X131008282Y-98724619D01*
X131008282Y-98724619D02*
X130865425Y-98677000D01*
X130865425Y-98677000D02*
X130770187Y-98581761D01*
X130770187Y-98581761D02*
X130722568Y-98486523D01*
X130722568Y-98486523D02*
X130674949Y-98296047D01*
X130674949Y-98296047D02*
X130674949Y-98153190D01*
X130674949Y-98153190D02*
X130722568Y-97962714D01*
X130722568Y-97962714D02*
X130770187Y-97867476D01*
X130770187Y-97867476D02*
X130865425Y-97772238D01*
X130865425Y-97772238D02*
X131008282Y-97724619D01*
X131008282Y-97724619D02*
X131103520Y-97724619D01*
X131103520Y-97724619D02*
X131246377Y-97772238D01*
X131246377Y-97772238D02*
X131293996Y-97819857D01*
X131722568Y-98724619D02*
X131722568Y-97724619D01*
X131722568Y-98200809D02*
X132293996Y-98200809D01*
X132293996Y-98724619D02*
X132293996Y-97724619D01*
X132913044Y-98153190D02*
X132817806Y-98105571D01*
X132817806Y-98105571D02*
X132770187Y-98057952D01*
X132770187Y-98057952D02*
X132722568Y-97962714D01*
X132722568Y-97962714D02*
X132722568Y-97915095D01*
X132722568Y-97915095D02*
X132770187Y-97819857D01*
X132770187Y-97819857D02*
X132817806Y-97772238D01*
X132817806Y-97772238D02*
X132913044Y-97724619D01*
X132913044Y-97724619D02*
X133103520Y-97724619D01*
X133103520Y-97724619D02*
X133198758Y-97772238D01*
X133198758Y-97772238D02*
X133246377Y-97819857D01*
X133246377Y-97819857D02*
X133293996Y-97915095D01*
X133293996Y-97915095D02*
X133293996Y-97962714D01*
X133293996Y-97962714D02*
X133246377Y-98057952D01*
X133246377Y-98057952D02*
X133198758Y-98105571D01*
X133198758Y-98105571D02*
X133103520Y-98153190D01*
X133103520Y-98153190D02*
X132913044Y-98153190D01*
X132913044Y-98153190D02*
X132817806Y-98200809D01*
X132817806Y-98200809D02*
X132770187Y-98248428D01*
X132770187Y-98248428D02*
X132722568Y-98343666D01*
X132722568Y-98343666D02*
X132722568Y-98534142D01*
X132722568Y-98534142D02*
X132770187Y-98629380D01*
X132770187Y-98629380D02*
X132817806Y-98677000D01*
X132817806Y-98677000D02*
X132913044Y-98724619D01*
X132913044Y-98724619D02*
X133103520Y-98724619D01*
X133103520Y-98724619D02*
X133198758Y-98677000D01*
X133198758Y-98677000D02*
X133246377Y-98629380D01*
X133246377Y-98629380D02*
X133293996Y-98534142D01*
X133293996Y-98534142D02*
X133293996Y-98343666D01*
X133293996Y-98343666D02*
X133246377Y-98248428D01*
X133246377Y-98248428D02*
X133198758Y-98200809D01*
X133198758Y-98200809D02*
X133103520Y-98153190D01*
X131293996Y-101239380D02*
X131246377Y-101287000D01*
X131246377Y-101287000D02*
X131103520Y-101334619D01*
X131103520Y-101334619D02*
X131008282Y-101334619D01*
X131008282Y-101334619D02*
X130865425Y-101287000D01*
X130865425Y-101287000D02*
X130770187Y-101191761D01*
X130770187Y-101191761D02*
X130722568Y-101096523D01*
X130722568Y-101096523D02*
X130674949Y-100906047D01*
X130674949Y-100906047D02*
X130674949Y-100763190D01*
X130674949Y-100763190D02*
X130722568Y-100572714D01*
X130722568Y-100572714D02*
X130770187Y-100477476D01*
X130770187Y-100477476D02*
X130865425Y-100382238D01*
X130865425Y-100382238D02*
X131008282Y-100334619D01*
X131008282Y-100334619D02*
X131103520Y-100334619D01*
X131103520Y-100334619D02*
X131246377Y-100382238D01*
X131246377Y-100382238D02*
X131293996Y-100429857D01*
X131722568Y-101334619D02*
X131722568Y-100334619D01*
X131722568Y-100810809D02*
X132293996Y-100810809D01*
X132293996Y-101334619D02*
X132293996Y-100334619D01*
X132674949Y-100334619D02*
X133341615Y-100334619D01*
X133341615Y-100334619D02*
X132913044Y-101334619D01*
X131293996Y-103709380D02*
X131246377Y-103757000D01*
X131246377Y-103757000D02*
X131103520Y-103804619D01*
X131103520Y-103804619D02*
X131008282Y-103804619D01*
X131008282Y-103804619D02*
X130865425Y-103757000D01*
X130865425Y-103757000D02*
X130770187Y-103661761D01*
X130770187Y-103661761D02*
X130722568Y-103566523D01*
X130722568Y-103566523D02*
X130674949Y-103376047D01*
X130674949Y-103376047D02*
X130674949Y-103233190D01*
X130674949Y-103233190D02*
X130722568Y-103042714D01*
X130722568Y-103042714D02*
X130770187Y-102947476D01*
X130770187Y-102947476D02*
X130865425Y-102852238D01*
X130865425Y-102852238D02*
X131008282Y-102804619D01*
X131008282Y-102804619D02*
X131103520Y-102804619D01*
X131103520Y-102804619D02*
X131246377Y-102852238D01*
X131246377Y-102852238D02*
X131293996Y-102899857D01*
X131722568Y-103804619D02*
X131722568Y-102804619D01*
X131722568Y-103280809D02*
X132293996Y-103280809D01*
X132293996Y-103804619D02*
X132293996Y-102804619D01*
X133198758Y-102804619D02*
X133008282Y-102804619D01*
X133008282Y-102804619D02*
X132913044Y-102852238D01*
X132913044Y-102852238D02*
X132865425Y-102899857D01*
X132865425Y-102899857D02*
X132770187Y-103042714D01*
X132770187Y-103042714D02*
X132722568Y-103233190D01*
X132722568Y-103233190D02*
X132722568Y-103614142D01*
X132722568Y-103614142D02*
X132770187Y-103709380D01*
X132770187Y-103709380D02*
X132817806Y-103757000D01*
X132817806Y-103757000D02*
X132913044Y-103804619D01*
X132913044Y-103804619D02*
X133103520Y-103804619D01*
X133103520Y-103804619D02*
X133198758Y-103757000D01*
X133198758Y-103757000D02*
X133246377Y-103709380D01*
X133246377Y-103709380D02*
X133293996Y-103614142D01*
X133293996Y-103614142D02*
X133293996Y-103376047D01*
X133293996Y-103376047D02*
X133246377Y-103280809D01*
X133246377Y-103280809D02*
X133198758Y-103233190D01*
X133198758Y-103233190D02*
X133103520Y-103185571D01*
X133103520Y-103185571D02*
X132913044Y-103185571D01*
X132913044Y-103185571D02*
X132817806Y-103233190D01*
X132817806Y-103233190D02*
X132770187Y-103280809D01*
X132770187Y-103280809D02*
X132722568Y-103376047D01*
X131293996Y-106359380D02*
X131246377Y-106407000D01*
X131246377Y-106407000D02*
X131103520Y-106454619D01*
X131103520Y-106454619D02*
X131008282Y-106454619D01*
X131008282Y-106454619D02*
X130865425Y-106407000D01*
X130865425Y-106407000D02*
X130770187Y-106311761D01*
X130770187Y-106311761D02*
X130722568Y-106216523D01*
X130722568Y-106216523D02*
X130674949Y-106026047D01*
X130674949Y-106026047D02*
X130674949Y-105883190D01*
X130674949Y-105883190D02*
X130722568Y-105692714D01*
X130722568Y-105692714D02*
X130770187Y-105597476D01*
X130770187Y-105597476D02*
X130865425Y-105502238D01*
X130865425Y-105502238D02*
X131008282Y-105454619D01*
X131008282Y-105454619D02*
X131103520Y-105454619D01*
X131103520Y-105454619D02*
X131246377Y-105502238D01*
X131246377Y-105502238D02*
X131293996Y-105549857D01*
X131722568Y-106454619D02*
X131722568Y-105454619D01*
X131722568Y-105930809D02*
X132293996Y-105930809D01*
X132293996Y-106454619D02*
X132293996Y-105454619D01*
X133246377Y-105454619D02*
X132770187Y-105454619D01*
X132770187Y-105454619D02*
X132722568Y-105930809D01*
X132722568Y-105930809D02*
X132770187Y-105883190D01*
X132770187Y-105883190D02*
X132865425Y-105835571D01*
X132865425Y-105835571D02*
X133103520Y-105835571D01*
X133103520Y-105835571D02*
X133198758Y-105883190D01*
X133198758Y-105883190D02*
X133246377Y-105930809D01*
X133246377Y-105930809D02*
X133293996Y-106026047D01*
X133293996Y-106026047D02*
X133293996Y-106264142D01*
X133293996Y-106264142D02*
X133246377Y-106359380D01*
X133246377Y-106359380D02*
X133198758Y-106407000D01*
X133198758Y-106407000D02*
X133103520Y-106454619D01*
X133103520Y-106454619D02*
X132865425Y-106454619D01*
X132865425Y-106454619D02*
X132770187Y-106407000D01*
X132770187Y-106407000D02*
X132722568Y-106359380D01*
X131293996Y-96474619D02*
X130960663Y-95998428D01*
X130722568Y-96474619D02*
X130722568Y-95474619D01*
X130722568Y-95474619D02*
X131103520Y-95474619D01*
X131103520Y-95474619D02*
X131198758Y-95522238D01*
X131198758Y-95522238D02*
X131246377Y-95569857D01*
X131246377Y-95569857D02*
X131293996Y-95665095D01*
X131293996Y-95665095D02*
X131293996Y-95807952D01*
X131293996Y-95807952D02*
X131246377Y-95903190D01*
X131246377Y-95903190D02*
X131198758Y-95950809D01*
X131198758Y-95950809D02*
X131103520Y-95998428D01*
X131103520Y-95998428D02*
X130722568Y-95998428D01*
X131722568Y-95950809D02*
X132055901Y-95950809D01*
X132198758Y-96474619D02*
X131722568Y-96474619D01*
X131722568Y-96474619D02*
X131722568Y-95474619D01*
X131722568Y-95474619D02*
X132198758Y-95474619D01*
X132960663Y-95950809D02*
X132627330Y-95950809D01*
X132627330Y-96474619D02*
X132627330Y-95474619D01*
X132627330Y-95474619D02*
X133103520Y-95474619D01*
D10*
X183771906Y-113523340D02*
X183843334Y-113547149D01*
X183843334Y-113547149D02*
X183962382Y-113547149D01*
X183962382Y-113547149D02*
X184010001Y-113523340D01*
X184010001Y-113523340D02*
X184033810Y-113499530D01*
X184033810Y-113499530D02*
X184057620Y-113451911D01*
X184057620Y-113451911D02*
X184057620Y-113404292D01*
X184057620Y-113404292D02*
X184033810Y-113356673D01*
X184033810Y-113356673D02*
X184010001Y-113332863D01*
X184010001Y-113332863D02*
X183962382Y-113309054D01*
X183962382Y-113309054D02*
X183867144Y-113285244D01*
X183867144Y-113285244D02*
X183819525Y-113261435D01*
X183819525Y-113261435D02*
X183795715Y-113237625D01*
X183795715Y-113237625D02*
X183771906Y-113190006D01*
X183771906Y-113190006D02*
X183771906Y-113142387D01*
X183771906Y-113142387D02*
X183795715Y-113094768D01*
X183795715Y-113094768D02*
X183819525Y-113070959D01*
X183819525Y-113070959D02*
X183867144Y-113047149D01*
X183867144Y-113047149D02*
X183986191Y-113047149D01*
X183986191Y-113047149D02*
X184057620Y-113070959D01*
X184200477Y-113047149D02*
X184486191Y-113047149D01*
X184343334Y-113547149D02*
X184343334Y-113047149D01*
X184629048Y-113404292D02*
X184867143Y-113404292D01*
X184581429Y-113547149D02*
X184748095Y-113047149D01*
X184748095Y-113047149D02*
X184914762Y-113547149D01*
X185367142Y-113547149D02*
X185200476Y-113309054D01*
X185081428Y-113547149D02*
X185081428Y-113047149D01*
X185081428Y-113047149D02*
X185271904Y-113047149D01*
X185271904Y-113047149D02*
X185319523Y-113070959D01*
X185319523Y-113070959D02*
X185343333Y-113094768D01*
X185343333Y-113094768D02*
X185367142Y-113142387D01*
X185367142Y-113142387D02*
X185367142Y-113213816D01*
X185367142Y-113213816D02*
X185343333Y-113261435D01*
X185343333Y-113261435D02*
X185319523Y-113285244D01*
X185319523Y-113285244D02*
X185271904Y-113309054D01*
X185271904Y-113309054D02*
X185081428Y-113309054D01*
X185510000Y-113047149D02*
X185795714Y-113047149D01*
X185652857Y-113547149D02*
X185652857Y-113047149D01*
D11*
X131293996Y-116569380D02*
X131246377Y-116617000D01*
X131246377Y-116617000D02*
X131103520Y-116664619D01*
X131103520Y-116664619D02*
X131008282Y-116664619D01*
X131008282Y-116664619D02*
X130865425Y-116617000D01*
X130865425Y-116617000D02*
X130770187Y-116521761D01*
X130770187Y-116521761D02*
X130722568Y-116426523D01*
X130722568Y-116426523D02*
X130674949Y-116236047D01*
X130674949Y-116236047D02*
X130674949Y-116093190D01*
X130674949Y-116093190D02*
X130722568Y-115902714D01*
X130722568Y-115902714D02*
X130770187Y-115807476D01*
X130770187Y-115807476D02*
X130865425Y-115712238D01*
X130865425Y-115712238D02*
X131008282Y-115664619D01*
X131008282Y-115664619D02*
X131103520Y-115664619D01*
X131103520Y-115664619D02*
X131246377Y-115712238D01*
X131246377Y-115712238D02*
X131293996Y-115759857D01*
X131722568Y-116664619D02*
X131722568Y-115664619D01*
X131722568Y-116140809D02*
X132293996Y-116140809D01*
X132293996Y-116664619D02*
X132293996Y-115664619D01*
X133293996Y-116664619D02*
X132722568Y-116664619D01*
X133008282Y-116664619D02*
X133008282Y-115664619D01*
X133008282Y-115664619D02*
X132913044Y-115807476D01*
X132913044Y-115807476D02*
X132817806Y-115902714D01*
X132817806Y-115902714D02*
X132722568Y-115950333D01*
X131055901Y-93270809D02*
X131198758Y-93318428D01*
X131198758Y-93318428D02*
X131246377Y-93366047D01*
X131246377Y-93366047D02*
X131293996Y-93461285D01*
X131293996Y-93461285D02*
X131293996Y-93604142D01*
X131293996Y-93604142D02*
X131246377Y-93699380D01*
X131246377Y-93699380D02*
X131198758Y-93747000D01*
X131198758Y-93747000D02*
X131103520Y-93794619D01*
X131103520Y-93794619D02*
X130722568Y-93794619D01*
X130722568Y-93794619D02*
X130722568Y-92794619D01*
X130722568Y-92794619D02*
X131055901Y-92794619D01*
X131055901Y-92794619D02*
X131151139Y-92842238D01*
X131151139Y-92842238D02*
X131198758Y-92889857D01*
X131198758Y-92889857D02*
X131246377Y-92985095D01*
X131246377Y-92985095D02*
X131246377Y-93080333D01*
X131246377Y-93080333D02*
X131198758Y-93175571D01*
X131198758Y-93175571D02*
X131151139Y-93223190D01*
X131151139Y-93223190D02*
X131055901Y-93270809D01*
X131055901Y-93270809D02*
X130722568Y-93270809D01*
X131722568Y-93794619D02*
X131722568Y-92794619D01*
X132151139Y-93508904D02*
X132627329Y-93508904D01*
X132055901Y-93794619D02*
X132389234Y-92794619D01*
X132389234Y-92794619D02*
X132722567Y-93794619D01*
X133008282Y-93747000D02*
X133151139Y-93794619D01*
X133151139Y-93794619D02*
X133389234Y-93794619D01*
X133389234Y-93794619D02*
X133484472Y-93747000D01*
X133484472Y-93747000D02*
X133532091Y-93699380D01*
X133532091Y-93699380D02*
X133579710Y-93604142D01*
X133579710Y-93604142D02*
X133579710Y-93508904D01*
X133579710Y-93508904D02*
X133532091Y-93413666D01*
X133532091Y-93413666D02*
X133484472Y-93366047D01*
X133484472Y-93366047D02*
X133389234Y-93318428D01*
X133389234Y-93318428D02*
X133198758Y-93270809D01*
X133198758Y-93270809D02*
X133103520Y-93223190D01*
X133103520Y-93223190D02*
X133055901Y-93175571D01*
X133055901Y-93175571D02*
X133008282Y-93080333D01*
X133008282Y-93080333D02*
X133008282Y-92985095D01*
X133008282Y-92985095D02*
X133055901Y-92889857D01*
X133055901Y-92889857D02*
X133103520Y-92842238D01*
X133103520Y-92842238D02*
X133198758Y-92794619D01*
X133198758Y-92794619D02*
X133436853Y-92794619D01*
X133436853Y-92794619D02*
X133579710Y-92842238D01*
D12*
X129789673Y-87233409D02*
X130123006Y-87233409D01*
X130265863Y-87757219D02*
X129789673Y-87757219D01*
X129789673Y-87757219D02*
X129789673Y-86757219D01*
X129789673Y-86757219D02*
X130265863Y-86757219D01*
X130694435Y-87233409D02*
X131027768Y-87233409D01*
X131170625Y-87757219D02*
X130694435Y-87757219D01*
X130694435Y-87757219D02*
X130694435Y-86757219D01*
X130694435Y-86757219D02*
X131170625Y-86757219D01*
X132123006Y-86804838D02*
X132027768Y-86757219D01*
X132027768Y-86757219D02*
X131884911Y-86757219D01*
X131884911Y-86757219D02*
X131742054Y-86804838D01*
X131742054Y-86804838D02*
X131646816Y-86900076D01*
X131646816Y-86900076D02*
X131599197Y-86995314D01*
X131599197Y-86995314D02*
X131551578Y-87185790D01*
X131551578Y-87185790D02*
X131551578Y-87328647D01*
X131551578Y-87328647D02*
X131599197Y-87519123D01*
X131599197Y-87519123D02*
X131646816Y-87614361D01*
X131646816Y-87614361D02*
X131742054Y-87709600D01*
X131742054Y-87709600D02*
X131884911Y-87757219D01*
X131884911Y-87757219D02*
X131980149Y-87757219D01*
X131980149Y-87757219D02*
X132123006Y-87709600D01*
X132123006Y-87709600D02*
X132170625Y-87661980D01*
X132170625Y-87661980D02*
X132170625Y-87328647D01*
X132170625Y-87328647D02*
X131980149Y-87328647D01*
X132932530Y-87233409D02*
X132599197Y-87233409D01*
X132599197Y-87757219D02*
X132599197Y-86757219D01*
X132599197Y-86757219D02*
X133075387Y-86757219D01*
X133456340Y-87757219D02*
X133456340Y-87090552D01*
X133456340Y-87281028D02*
X133503959Y-87185790D01*
X133503959Y-87185790D02*
X133551578Y-87138171D01*
X133551578Y-87138171D02*
X133646816Y-87090552D01*
X133646816Y-87090552D02*
X133742054Y-87090552D01*
X134218245Y-87757219D02*
X134123007Y-87709600D01*
X134123007Y-87709600D02*
X134075388Y-87661980D01*
X134075388Y-87661980D02*
X134027769Y-87566742D01*
X134027769Y-87566742D02*
X134027769Y-87281028D01*
X134027769Y-87281028D02*
X134075388Y-87185790D01*
X134075388Y-87185790D02*
X134123007Y-87138171D01*
X134123007Y-87138171D02*
X134218245Y-87090552D01*
X134218245Y-87090552D02*
X134361102Y-87090552D01*
X134361102Y-87090552D02*
X134456340Y-87138171D01*
X134456340Y-87138171D02*
X134503959Y-87185790D01*
X134503959Y-87185790D02*
X134551578Y-87281028D01*
X134551578Y-87281028D02*
X134551578Y-87566742D01*
X134551578Y-87566742D02*
X134503959Y-87661980D01*
X134503959Y-87661980D02*
X134456340Y-87709600D01*
X134456340Y-87709600D02*
X134361102Y-87757219D01*
X134361102Y-87757219D02*
X134218245Y-87757219D01*
X134980150Y-87090552D02*
X134980150Y-87757219D01*
X134980150Y-87185790D02*
X135027769Y-87138171D01*
X135027769Y-87138171D02*
X135123007Y-87090552D01*
X135123007Y-87090552D02*
X135265864Y-87090552D01*
X135265864Y-87090552D02*
X135361102Y-87138171D01*
X135361102Y-87138171D02*
X135408721Y-87233409D01*
X135408721Y-87233409D02*
X135408721Y-87757219D01*
X135742055Y-87090552D02*
X136123007Y-87090552D01*
X135884912Y-86757219D02*
X135884912Y-87614361D01*
X135884912Y-87614361D02*
X135932531Y-87709600D01*
X135932531Y-87709600D02*
X136027769Y-87757219D01*
X136027769Y-87757219D02*
X136123007Y-87757219D01*
X136456341Y-87757219D02*
X136456341Y-87090552D01*
X136456341Y-86757219D02*
X136408722Y-86804838D01*
X136408722Y-86804838D02*
X136456341Y-86852457D01*
X136456341Y-86852457D02*
X136503960Y-86804838D01*
X136503960Y-86804838D02*
X136456341Y-86757219D01*
X136456341Y-86757219D02*
X136456341Y-86852457D01*
X137313483Y-87709600D02*
X137218245Y-87757219D01*
X137218245Y-87757219D02*
X137027769Y-87757219D01*
X137027769Y-87757219D02*
X136932531Y-87709600D01*
X136932531Y-87709600D02*
X136884912Y-87614361D01*
X136884912Y-87614361D02*
X136884912Y-87233409D01*
X136884912Y-87233409D02*
X136932531Y-87138171D01*
X136932531Y-87138171D02*
X137027769Y-87090552D01*
X137027769Y-87090552D02*
X137218245Y-87090552D01*
X137218245Y-87090552D02*
X137313483Y-87138171D01*
X137313483Y-87138171D02*
X137361102Y-87233409D01*
X137361102Y-87233409D02*
X137361102Y-87328647D01*
X137361102Y-87328647D02*
X136884912Y-87423885D01*
X137789674Y-87757219D02*
X137789674Y-87090552D01*
X137789674Y-87281028D02*
X137837293Y-87185790D01*
X137837293Y-87185790D02*
X137884912Y-87138171D01*
X137884912Y-87138171D02*
X137980150Y-87090552D01*
X137980150Y-87090552D02*
X138075388Y-87090552D01*
X139027770Y-86757219D02*
X139361103Y-87757219D01*
X139361103Y-87757219D02*
X139694436Y-86757219D01*
X139980151Y-86852457D02*
X140027770Y-86804838D01*
X140027770Y-86804838D02*
X140123008Y-86757219D01*
X140123008Y-86757219D02*
X140361103Y-86757219D01*
X140361103Y-86757219D02*
X140456341Y-86804838D01*
X140456341Y-86804838D02*
X140503960Y-86852457D01*
X140503960Y-86852457D02*
X140551579Y-86947695D01*
X140551579Y-86947695D02*
X140551579Y-87042933D01*
X140551579Y-87042933D02*
X140503960Y-87185790D01*
X140503960Y-87185790D02*
X139932532Y-87757219D01*
X139932532Y-87757219D02*
X140551579Y-87757219D01*
D10*
X184940476Y-88945244D02*
X185107143Y-88945244D01*
X185178571Y-89207149D02*
X184940476Y-89207149D01*
X184940476Y-89207149D02*
X184940476Y-88707149D01*
X184940476Y-88707149D02*
X185178571Y-88707149D01*
X185392857Y-89207149D02*
X185392857Y-88707149D01*
X185392857Y-88707149D02*
X185678571Y-89207149D01*
X185678571Y-89207149D02*
X185678571Y-88707149D01*
X185916667Y-88945244D02*
X186083334Y-88945244D01*
X186154762Y-89207149D02*
X185916667Y-89207149D01*
X185916667Y-89207149D02*
X185916667Y-88707149D01*
X185916667Y-88707149D02*
X186154762Y-88707149D01*
X186654762Y-89207149D02*
X186488096Y-88969054D01*
X186369048Y-89207149D02*
X186369048Y-88707149D01*
X186369048Y-88707149D02*
X186559524Y-88707149D01*
X186559524Y-88707149D02*
X186607143Y-88730959D01*
X186607143Y-88730959D02*
X186630953Y-88754768D01*
X186630953Y-88754768D02*
X186654762Y-88802387D01*
X186654762Y-88802387D02*
X186654762Y-88873816D01*
X186654762Y-88873816D02*
X186630953Y-88921435D01*
X186630953Y-88921435D02*
X186607143Y-88945244D01*
X186607143Y-88945244D02*
X186559524Y-88969054D01*
X186559524Y-88969054D02*
X186369048Y-88969054D01*
X187130953Y-88730959D02*
X187083334Y-88707149D01*
X187083334Y-88707149D02*
X187011905Y-88707149D01*
X187011905Y-88707149D02*
X186940477Y-88730959D01*
X186940477Y-88730959D02*
X186892858Y-88778578D01*
X186892858Y-88778578D02*
X186869048Y-88826197D01*
X186869048Y-88826197D02*
X186845239Y-88921435D01*
X186845239Y-88921435D02*
X186845239Y-88992863D01*
X186845239Y-88992863D02*
X186869048Y-89088101D01*
X186869048Y-89088101D02*
X186892858Y-89135720D01*
X186892858Y-89135720D02*
X186940477Y-89183340D01*
X186940477Y-89183340D02*
X187011905Y-89207149D01*
X187011905Y-89207149D02*
X187059524Y-89207149D01*
X187059524Y-89207149D02*
X187130953Y-89183340D01*
X187130953Y-89183340D02*
X187154762Y-89159530D01*
X187154762Y-89159530D02*
X187154762Y-88992863D01*
X187154762Y-88992863D02*
X187059524Y-88992863D01*
X187464286Y-88969054D02*
X187464286Y-89207149D01*
X187297620Y-88707149D02*
X187464286Y-88969054D01*
X187464286Y-88969054D02*
X187630953Y-88707149D01*
D11*
X131293996Y-113939380D02*
X131246377Y-113987000D01*
X131246377Y-113987000D02*
X131103520Y-114034619D01*
X131103520Y-114034619D02*
X131008282Y-114034619D01*
X131008282Y-114034619D02*
X130865425Y-113987000D01*
X130865425Y-113987000D02*
X130770187Y-113891761D01*
X130770187Y-113891761D02*
X130722568Y-113796523D01*
X130722568Y-113796523D02*
X130674949Y-113606047D01*
X130674949Y-113606047D02*
X130674949Y-113463190D01*
X130674949Y-113463190D02*
X130722568Y-113272714D01*
X130722568Y-113272714D02*
X130770187Y-113177476D01*
X130770187Y-113177476D02*
X130865425Y-113082238D01*
X130865425Y-113082238D02*
X131008282Y-113034619D01*
X131008282Y-113034619D02*
X131103520Y-113034619D01*
X131103520Y-113034619D02*
X131246377Y-113082238D01*
X131246377Y-113082238D02*
X131293996Y-113129857D01*
X131722568Y-114034619D02*
X131722568Y-113034619D01*
X131722568Y-113510809D02*
X132293996Y-113510809D01*
X132293996Y-114034619D02*
X132293996Y-113034619D01*
X132722568Y-113129857D02*
X132770187Y-113082238D01*
X132770187Y-113082238D02*
X132865425Y-113034619D01*
X132865425Y-113034619D02*
X133103520Y-113034619D01*
X133103520Y-113034619D02*
X133198758Y-113082238D01*
X133198758Y-113082238D02*
X133246377Y-113129857D01*
X133246377Y-113129857D02*
X133293996Y-113225095D01*
X133293996Y-113225095D02*
X133293996Y-113320333D01*
X133293996Y-113320333D02*
X133246377Y-113463190D01*
X133246377Y-113463190D02*
X132674949Y-114034619D01*
X132674949Y-114034619D02*
X133293996Y-114034619D01*
X131293996Y-111069380D02*
X131246377Y-111117000D01*
X131246377Y-111117000D02*
X131103520Y-111164619D01*
X131103520Y-111164619D02*
X131008282Y-111164619D01*
X131008282Y-111164619D02*
X130865425Y-111117000D01*
X130865425Y-111117000D02*
X130770187Y-111021761D01*
X130770187Y-111021761D02*
X130722568Y-110926523D01*
X130722568Y-110926523D02*
X130674949Y-110736047D01*
X130674949Y-110736047D02*
X130674949Y-110593190D01*
X130674949Y-110593190D02*
X130722568Y-110402714D01*
X130722568Y-110402714D02*
X130770187Y-110307476D01*
X130770187Y-110307476D02*
X130865425Y-110212238D01*
X130865425Y-110212238D02*
X131008282Y-110164619D01*
X131008282Y-110164619D02*
X131103520Y-110164619D01*
X131103520Y-110164619D02*
X131246377Y-110212238D01*
X131246377Y-110212238D02*
X131293996Y-110259857D01*
X131722568Y-111164619D02*
X131722568Y-110164619D01*
X131722568Y-110640809D02*
X132293996Y-110640809D01*
X132293996Y-111164619D02*
X132293996Y-110164619D01*
X132674949Y-110164619D02*
X133293996Y-110164619D01*
X133293996Y-110164619D02*
X132960663Y-110545571D01*
X132960663Y-110545571D02*
X133103520Y-110545571D01*
X133103520Y-110545571D02*
X133198758Y-110593190D01*
X133198758Y-110593190D02*
X133246377Y-110640809D01*
X133246377Y-110640809D02*
X133293996Y-110736047D01*
X133293996Y-110736047D02*
X133293996Y-110974142D01*
X133293996Y-110974142D02*
X133246377Y-111069380D01*
X133246377Y-111069380D02*
X133198758Y-111117000D01*
X133198758Y-111117000D02*
X133103520Y-111164619D01*
X133103520Y-111164619D02*
X132817806Y-111164619D01*
X132817806Y-111164619D02*
X132722568Y-111117000D01*
X132722568Y-111117000D02*
X132674949Y-111069380D01*
X131293996Y-108549380D02*
X131246377Y-108597000D01*
X131246377Y-108597000D02*
X131103520Y-108644619D01*
X131103520Y-108644619D02*
X131008282Y-108644619D01*
X131008282Y-108644619D02*
X130865425Y-108597000D01*
X130865425Y-108597000D02*
X130770187Y-108501761D01*
X130770187Y-108501761D02*
X130722568Y-108406523D01*
X130722568Y-108406523D02*
X130674949Y-108216047D01*
X130674949Y-108216047D02*
X130674949Y-108073190D01*
X130674949Y-108073190D02*
X130722568Y-107882714D01*
X130722568Y-107882714D02*
X130770187Y-107787476D01*
X130770187Y-107787476D02*
X130865425Y-107692238D01*
X130865425Y-107692238D02*
X131008282Y-107644619D01*
X131008282Y-107644619D02*
X131103520Y-107644619D01*
X131103520Y-107644619D02*
X131246377Y-107692238D01*
X131246377Y-107692238D02*
X131293996Y-107739857D01*
X131722568Y-108644619D02*
X131722568Y-107644619D01*
X131722568Y-108120809D02*
X132293996Y-108120809D01*
X132293996Y-108644619D02*
X132293996Y-107644619D01*
X133198758Y-107977952D02*
X133198758Y-108644619D01*
X132960663Y-107597000D02*
X132722568Y-108311285D01*
X132722568Y-108311285D02*
X133341615Y-108311285D01*
D13*
X129481027Y-88895752D02*
X129861979Y-88895752D01*
X129623884Y-88562419D02*
X129623884Y-89419561D01*
X129623884Y-89419561D02*
X129671503Y-89514800D01*
X129671503Y-89514800D02*
X129766741Y-89562419D01*
X129766741Y-89562419D02*
X129861979Y-89562419D01*
X130195313Y-89562419D02*
X130195313Y-88562419D01*
X130623884Y-89562419D02*
X130623884Y-89038609D01*
X130623884Y-89038609D02*
X130576265Y-88943371D01*
X130576265Y-88943371D02*
X130481027Y-88895752D01*
X130481027Y-88895752D02*
X130338170Y-88895752D01*
X130338170Y-88895752D02*
X130242932Y-88943371D01*
X130242932Y-88943371D02*
X130195313Y-88990990D01*
X131481027Y-89514800D02*
X131385789Y-89562419D01*
X131385789Y-89562419D02*
X131195313Y-89562419D01*
X131195313Y-89562419D02*
X131100075Y-89514800D01*
X131100075Y-89514800D02*
X131052456Y-89419561D01*
X131052456Y-89419561D02*
X131052456Y-89038609D01*
X131052456Y-89038609D02*
X131100075Y-88943371D01*
X131100075Y-88943371D02*
X131195313Y-88895752D01*
X131195313Y-88895752D02*
X131385789Y-88895752D01*
X131385789Y-88895752D02*
X131481027Y-88943371D01*
X131481027Y-88943371D02*
X131528646Y-89038609D01*
X131528646Y-89038609D02*
X131528646Y-89133847D01*
X131528646Y-89133847D02*
X131052456Y-89229085D01*
X132385789Y-88895752D02*
X132385789Y-89562419D01*
X131957218Y-88895752D02*
X131957218Y-89419561D01*
X131957218Y-89419561D02*
X132004837Y-89514800D01*
X132004837Y-89514800D02*
X132100075Y-89562419D01*
X132100075Y-89562419D02*
X132242932Y-89562419D01*
X132242932Y-89562419D02*
X132338170Y-89514800D01*
X132338170Y-89514800D02*
X132385789Y-89467180D01*
X132814361Y-89514800D02*
X132909599Y-89562419D01*
X132909599Y-89562419D02*
X133100075Y-89562419D01*
X133100075Y-89562419D02*
X133195313Y-89514800D01*
X133195313Y-89514800D02*
X133242932Y-89419561D01*
X133242932Y-89419561D02*
X133242932Y-89371942D01*
X133242932Y-89371942D02*
X133195313Y-89276704D01*
X133195313Y-89276704D02*
X133100075Y-89229085D01*
X133100075Y-89229085D02*
X132957218Y-89229085D01*
X132957218Y-89229085D02*
X132861980Y-89181466D01*
X132861980Y-89181466D02*
X132814361Y-89086228D01*
X132814361Y-89086228D02*
X132814361Y-89038609D01*
X132814361Y-89038609D02*
X132861980Y-88943371D01*
X132861980Y-88943371D02*
X132957218Y-88895752D01*
X132957218Y-88895752D02*
X133100075Y-88895752D01*
X133100075Y-88895752D02*
X133195313Y-88943371D01*
X133671504Y-89562419D02*
X133671504Y-88562419D01*
X134100075Y-89562419D02*
X134100075Y-89038609D01*
X134100075Y-89038609D02*
X134052456Y-88943371D01*
X134052456Y-88943371D02*
X133957218Y-88895752D01*
X133957218Y-88895752D02*
X133814361Y-88895752D01*
X133814361Y-88895752D02*
X133719123Y-88943371D01*
X133719123Y-88943371D02*
X133671504Y-88990990D01*
X134957218Y-89514800D02*
X134861980Y-89562419D01*
X134861980Y-89562419D02*
X134671504Y-89562419D01*
X134671504Y-89562419D02*
X134576266Y-89514800D01*
X134576266Y-89514800D02*
X134528647Y-89419561D01*
X134528647Y-89419561D02*
X134528647Y-89038609D01*
X134528647Y-89038609D02*
X134576266Y-88943371D01*
X134576266Y-88943371D02*
X134671504Y-88895752D01*
X134671504Y-88895752D02*
X134861980Y-88895752D01*
X134861980Y-88895752D02*
X134957218Y-88943371D01*
X134957218Y-88943371D02*
X135004837Y-89038609D01*
X135004837Y-89038609D02*
X135004837Y-89133847D01*
X135004837Y-89133847D02*
X134528647Y-89229085D01*
X135433409Y-88895752D02*
X135433409Y-89562419D01*
X135433409Y-88990990D02*
X135481028Y-88943371D01*
X135481028Y-88943371D02*
X135576266Y-88895752D01*
X135576266Y-88895752D02*
X135719123Y-88895752D01*
X135719123Y-88895752D02*
X135814361Y-88943371D01*
X135814361Y-88943371D02*
X135861980Y-89038609D01*
X135861980Y-89038609D02*
X135861980Y-89562419D01*
X136338171Y-89467180D02*
X136385790Y-89514800D01*
X136385790Y-89514800D02*
X136338171Y-89562419D01*
X136338171Y-89562419D02*
X136290552Y-89514800D01*
X136290552Y-89514800D02*
X136338171Y-89467180D01*
X136338171Y-89467180D02*
X136338171Y-89562419D01*
X136814361Y-89562419D02*
X136814361Y-88895752D01*
X136814361Y-88990990D02*
X136861980Y-88943371D01*
X136861980Y-88943371D02*
X136957218Y-88895752D01*
X136957218Y-88895752D02*
X137100075Y-88895752D01*
X137100075Y-88895752D02*
X137195313Y-88943371D01*
X137195313Y-88943371D02*
X137242932Y-89038609D01*
X137242932Y-89038609D02*
X137242932Y-89562419D01*
X137242932Y-89038609D02*
X137290551Y-88943371D01*
X137290551Y-88943371D02*
X137385789Y-88895752D01*
X137385789Y-88895752D02*
X137528646Y-88895752D01*
X137528646Y-88895752D02*
X137623885Y-88943371D01*
X137623885Y-88943371D02*
X137671504Y-89038609D01*
X137671504Y-89038609D02*
X137671504Y-89562419D01*
X138528646Y-89514800D02*
X138433408Y-89562419D01*
X138433408Y-89562419D02*
X138242932Y-89562419D01*
X138242932Y-89562419D02*
X138147694Y-89514800D01*
X138147694Y-89514800D02*
X138100075Y-89419561D01*
X138100075Y-89419561D02*
X138100075Y-89038609D01*
X138100075Y-89038609D02*
X138147694Y-88943371D01*
X138147694Y-88943371D02*
X138242932Y-88895752D01*
X138242932Y-88895752D02*
X138433408Y-88895752D01*
X138433408Y-88895752D02*
X138528646Y-88943371D01*
X138528646Y-88943371D02*
X138576265Y-89038609D01*
X138576265Y-89038609D02*
X138576265Y-89133847D01*
X138576265Y-89133847D02*
X138100075Y-89229085D01*
D10*
X159820477Y-89343340D02*
X159891905Y-89367149D01*
X159891905Y-89367149D02*
X160010953Y-89367149D01*
X160010953Y-89367149D02*
X160058572Y-89343340D01*
X160058572Y-89343340D02*
X160082381Y-89319530D01*
X160082381Y-89319530D02*
X160106191Y-89271911D01*
X160106191Y-89271911D02*
X160106191Y-89224292D01*
X160106191Y-89224292D02*
X160082381Y-89176673D01*
X160082381Y-89176673D02*
X160058572Y-89152863D01*
X160058572Y-89152863D02*
X160010953Y-89129054D01*
X160010953Y-89129054D02*
X159915715Y-89105244D01*
X159915715Y-89105244D02*
X159868096Y-89081435D01*
X159868096Y-89081435D02*
X159844286Y-89057625D01*
X159844286Y-89057625D02*
X159820477Y-89010006D01*
X159820477Y-89010006D02*
X159820477Y-88962387D01*
X159820477Y-88962387D02*
X159844286Y-88914768D01*
X159844286Y-88914768D02*
X159868096Y-88890959D01*
X159868096Y-88890959D02*
X159915715Y-88867149D01*
X159915715Y-88867149D02*
X160034762Y-88867149D01*
X160034762Y-88867149D02*
X160106191Y-88890959D01*
X160249048Y-88867149D02*
X160534762Y-88867149D01*
X160391905Y-89367149D02*
X160391905Y-88867149D01*
X160987142Y-89367149D02*
X160820476Y-89129054D01*
X160701428Y-89367149D02*
X160701428Y-88867149D01*
X160701428Y-88867149D02*
X160891904Y-88867149D01*
X160891904Y-88867149D02*
X160939523Y-88890959D01*
X160939523Y-88890959D02*
X160963333Y-88914768D01*
X160963333Y-88914768D02*
X160987142Y-88962387D01*
X160987142Y-88962387D02*
X160987142Y-89033816D01*
X160987142Y-89033816D02*
X160963333Y-89081435D01*
X160963333Y-89081435D02*
X160939523Y-89105244D01*
X160939523Y-89105244D02*
X160891904Y-89129054D01*
X160891904Y-89129054D02*
X160701428Y-89129054D01*
X161201428Y-89105244D02*
X161368095Y-89105244D01*
X161439523Y-89367149D02*
X161201428Y-89367149D01*
X161201428Y-89367149D02*
X161201428Y-88867149D01*
X161201428Y-88867149D02*
X161439523Y-88867149D01*
X161630000Y-89224292D02*
X161868095Y-89224292D01*
X161582381Y-89367149D02*
X161749047Y-88867149D01*
X161749047Y-88867149D02*
X161915714Y-89367149D01*
X162082380Y-89367149D02*
X162082380Y-88867149D01*
X162082380Y-88867149D02*
X162249047Y-89224292D01*
X162249047Y-89224292D02*
X162415713Y-88867149D01*
X162415713Y-88867149D02*
X162415713Y-89367149D01*
D14*
X148185142Y-90542819D02*
X147851809Y-90066628D01*
X147613714Y-90542819D02*
X147613714Y-89542819D01*
X147613714Y-89542819D02*
X147994666Y-89542819D01*
X147994666Y-89542819D02*
X148089904Y-89590438D01*
X148089904Y-89590438D02*
X148137523Y-89638057D01*
X148137523Y-89638057D02*
X148185142Y-89733295D01*
X148185142Y-89733295D02*
X148185142Y-89876152D01*
X148185142Y-89876152D02*
X148137523Y-89971390D01*
X148137523Y-89971390D02*
X148089904Y-90019009D01*
X148089904Y-90019009D02*
X147994666Y-90066628D01*
X147994666Y-90066628D02*
X147613714Y-90066628D01*
X149137523Y-90542819D02*
X148566095Y-90542819D01*
X148851809Y-90542819D02*
X148851809Y-89542819D01*
X148851809Y-89542819D02*
X148756571Y-89685676D01*
X148756571Y-89685676D02*
X148661333Y-89780914D01*
X148661333Y-89780914D02*
X148566095Y-89828533D01*
X149708952Y-89971390D02*
X149613714Y-89923771D01*
X149613714Y-89923771D02*
X149566095Y-89876152D01*
X149566095Y-89876152D02*
X149518476Y-89780914D01*
X149518476Y-89780914D02*
X149518476Y-89733295D01*
X149518476Y-89733295D02*
X149566095Y-89638057D01*
X149566095Y-89638057D02*
X149613714Y-89590438D01*
X149613714Y-89590438D02*
X149708952Y-89542819D01*
X149708952Y-89542819D02*
X149899428Y-89542819D01*
X149899428Y-89542819D02*
X149994666Y-89590438D01*
X149994666Y-89590438D02*
X150042285Y-89638057D01*
X150042285Y-89638057D02*
X150089904Y-89733295D01*
X150089904Y-89733295D02*
X150089904Y-89780914D01*
X150089904Y-89780914D02*
X150042285Y-89876152D01*
X150042285Y-89876152D02*
X149994666Y-89923771D01*
X149994666Y-89923771D02*
X149899428Y-89971390D01*
X149899428Y-89971390D02*
X149708952Y-89971390D01*
X149708952Y-89971390D02*
X149613714Y-90019009D01*
X149613714Y-90019009D02*
X149566095Y-90066628D01*
X149566095Y-90066628D02*
X149518476Y-90161866D01*
X149518476Y-90161866D02*
X149518476Y-90352342D01*
X149518476Y-90352342D02*
X149566095Y-90447580D01*
X149566095Y-90447580D02*
X149613714Y-90495200D01*
X149613714Y-90495200D02*
X149708952Y-90542819D01*
X149708952Y-90542819D02*
X149899428Y-90542819D01*
X149899428Y-90542819D02*
X149994666Y-90495200D01*
X149994666Y-90495200D02*
X150042285Y-90447580D01*
X150042285Y-90447580D02*
X150089904Y-90352342D01*
X150089904Y-90352342D02*
X150089904Y-90161866D01*
X150089904Y-90161866D02*
X150042285Y-90066628D01*
X150042285Y-90066628D02*
X149994666Y-90019009D01*
X149994666Y-90019009D02*
X149899428Y-89971390D01*
X143465319Y-100663357D02*
X142989128Y-100996690D01*
X143465319Y-101234785D02*
X142465319Y-101234785D01*
X142465319Y-101234785D02*
X142465319Y-100853833D01*
X142465319Y-100853833D02*
X142512938Y-100758595D01*
X142512938Y-100758595D02*
X142560557Y-100710976D01*
X142560557Y-100710976D02*
X142655795Y-100663357D01*
X142655795Y-100663357D02*
X142798652Y-100663357D01*
X142798652Y-100663357D02*
X142893890Y-100710976D01*
X142893890Y-100710976D02*
X142941509Y-100758595D01*
X142941509Y-100758595D02*
X142989128Y-100853833D01*
X142989128Y-100853833D02*
X142989128Y-101234785D01*
X143465319Y-99710976D02*
X143465319Y-100282404D01*
X143465319Y-99996690D02*
X142465319Y-99996690D01*
X142465319Y-99996690D02*
X142608176Y-100091928D01*
X142608176Y-100091928D02*
X142703414Y-100187166D01*
X142703414Y-100187166D02*
X142751033Y-100282404D01*
X142560557Y-99330023D02*
X142512938Y-99282404D01*
X142512938Y-99282404D02*
X142465319Y-99187166D01*
X142465319Y-99187166D02*
X142465319Y-98949071D01*
X142465319Y-98949071D02*
X142512938Y-98853833D01*
X142512938Y-98853833D02*
X142560557Y-98806214D01*
X142560557Y-98806214D02*
X142655795Y-98758595D01*
X142655795Y-98758595D02*
X142751033Y-98758595D01*
X142751033Y-98758595D02*
X142893890Y-98806214D01*
X142893890Y-98806214D02*
X143465319Y-99377642D01*
X143465319Y-99377642D02*
X143465319Y-98758595D01*
X144394819Y-103134166D02*
X143918628Y-103467499D01*
X144394819Y-103705594D02*
X143394819Y-103705594D01*
X143394819Y-103705594D02*
X143394819Y-103324642D01*
X143394819Y-103324642D02*
X143442438Y-103229404D01*
X143442438Y-103229404D02*
X143490057Y-103181785D01*
X143490057Y-103181785D02*
X143585295Y-103134166D01*
X143585295Y-103134166D02*
X143728152Y-103134166D01*
X143728152Y-103134166D02*
X143823390Y-103181785D01*
X143823390Y-103181785D02*
X143871009Y-103229404D01*
X143871009Y-103229404D02*
X143918628Y-103324642D01*
X143918628Y-103324642D02*
X143918628Y-103705594D01*
X143823390Y-102562737D02*
X143775771Y-102657975D01*
X143775771Y-102657975D02*
X143728152Y-102705594D01*
X143728152Y-102705594D02*
X143632914Y-102753213D01*
X143632914Y-102753213D02*
X143585295Y-102753213D01*
X143585295Y-102753213D02*
X143490057Y-102705594D01*
X143490057Y-102705594D02*
X143442438Y-102657975D01*
X143442438Y-102657975D02*
X143394819Y-102562737D01*
X143394819Y-102562737D02*
X143394819Y-102372261D01*
X143394819Y-102372261D02*
X143442438Y-102277023D01*
X143442438Y-102277023D02*
X143490057Y-102229404D01*
X143490057Y-102229404D02*
X143585295Y-102181785D01*
X143585295Y-102181785D02*
X143632914Y-102181785D01*
X143632914Y-102181785D02*
X143728152Y-102229404D01*
X143728152Y-102229404D02*
X143775771Y-102277023D01*
X143775771Y-102277023D02*
X143823390Y-102372261D01*
X143823390Y-102372261D02*
X143823390Y-102562737D01*
X143823390Y-102562737D02*
X143871009Y-102657975D01*
X143871009Y-102657975D02*
X143918628Y-102705594D01*
X143918628Y-102705594D02*
X144013866Y-102753213D01*
X144013866Y-102753213D02*
X144204342Y-102753213D01*
X144204342Y-102753213D02*
X144299580Y-102705594D01*
X144299580Y-102705594D02*
X144347200Y-102657975D01*
X144347200Y-102657975D02*
X144394819Y-102562737D01*
X144394819Y-102562737D02*
X144394819Y-102372261D01*
X144394819Y-102372261D02*
X144347200Y-102277023D01*
X144347200Y-102277023D02*
X144299580Y-102229404D01*
X144299580Y-102229404D02*
X144204342Y-102181785D01*
X144204342Y-102181785D02*
X144013866Y-102181785D01*
X144013866Y-102181785D02*
X143918628Y-102229404D01*
X143918628Y-102229404D02*
X143871009Y-102277023D01*
X143871009Y-102277023D02*
X143823390Y-102372261D01*
X142390833Y-108814819D02*
X142057500Y-108338628D01*
X141819405Y-108814819D02*
X141819405Y-107814819D01*
X141819405Y-107814819D02*
X142200357Y-107814819D01*
X142200357Y-107814819D02*
X142295595Y-107862438D01*
X142295595Y-107862438D02*
X142343214Y-107910057D01*
X142343214Y-107910057D02*
X142390833Y-108005295D01*
X142390833Y-108005295D02*
X142390833Y-108148152D01*
X142390833Y-108148152D02*
X142343214Y-108243390D01*
X142343214Y-108243390D02*
X142295595Y-108291009D01*
X142295595Y-108291009D02*
X142200357Y-108338628D01*
X142200357Y-108338628D02*
X141819405Y-108338628D01*
X143247976Y-108148152D02*
X143247976Y-108814819D01*
X143009881Y-107767200D02*
X142771786Y-108481485D01*
X142771786Y-108481485D02*
X143390833Y-108481485D01*
X146380319Y-90340357D02*
X145904128Y-90673690D01*
X146380319Y-90911785D02*
X145380319Y-90911785D01*
X145380319Y-90911785D02*
X145380319Y-90530833D01*
X145380319Y-90530833D02*
X145427938Y-90435595D01*
X145427938Y-90435595D02*
X145475557Y-90387976D01*
X145475557Y-90387976D02*
X145570795Y-90340357D01*
X145570795Y-90340357D02*
X145713652Y-90340357D01*
X145713652Y-90340357D02*
X145808890Y-90387976D01*
X145808890Y-90387976D02*
X145856509Y-90435595D01*
X145856509Y-90435595D02*
X145904128Y-90530833D01*
X145904128Y-90530833D02*
X145904128Y-90911785D01*
X146380319Y-89387976D02*
X146380319Y-89959404D01*
X146380319Y-89673690D02*
X145380319Y-89673690D01*
X145380319Y-89673690D02*
X145523176Y-89768928D01*
X145523176Y-89768928D02*
X145618414Y-89864166D01*
X145618414Y-89864166D02*
X145666033Y-89959404D01*
X145713652Y-88530833D02*
X146380319Y-88530833D01*
X145332700Y-88768928D02*
X146046985Y-89007023D01*
X146046985Y-89007023D02*
X146046985Y-88387976D01*
X147913595Y-92867819D02*
X147913595Y-93677342D01*
X147913595Y-93677342D02*
X147961214Y-93772580D01*
X147961214Y-93772580D02*
X148008833Y-93820200D01*
X148008833Y-93820200D02*
X148104071Y-93867819D01*
X148104071Y-93867819D02*
X148294547Y-93867819D01*
X148294547Y-93867819D02*
X148389785Y-93820200D01*
X148389785Y-93820200D02*
X148437404Y-93772580D01*
X148437404Y-93772580D02*
X148485023Y-93677342D01*
X148485023Y-93677342D02*
X148485023Y-92867819D01*
X149485023Y-93867819D02*
X148913595Y-93867819D01*
X149199309Y-93867819D02*
X149199309Y-92867819D01*
X149199309Y-92867819D02*
X149104071Y-93010676D01*
X149104071Y-93010676D02*
X149008833Y-93105914D01*
X149008833Y-93105914D02*
X148913595Y-93153533D01*
X173050976Y-96450295D02*
X173050976Y-97097914D01*
X173050976Y-97097914D02*
X173089071Y-97174104D01*
X173089071Y-97174104D02*
X173127166Y-97212200D01*
X173127166Y-97212200D02*
X173203357Y-97250295D01*
X173203357Y-97250295D02*
X173355738Y-97250295D01*
X173355738Y-97250295D02*
X173431928Y-97212200D01*
X173431928Y-97212200D02*
X173470023Y-97174104D01*
X173470023Y-97174104D02*
X173508119Y-97097914D01*
X173508119Y-97097914D02*
X173508119Y-96450295D01*
X173850975Y-96526485D02*
X173889071Y-96488390D01*
X173889071Y-96488390D02*
X173965261Y-96450295D01*
X173965261Y-96450295D02*
X174155737Y-96450295D01*
X174155737Y-96450295D02*
X174231928Y-96488390D01*
X174231928Y-96488390D02*
X174270023Y-96526485D01*
X174270023Y-96526485D02*
X174308118Y-96602676D01*
X174308118Y-96602676D02*
X174308118Y-96678866D01*
X174308118Y-96678866D02*
X174270023Y-96793152D01*
X174270023Y-96793152D02*
X173812880Y-97250295D01*
X173812880Y-97250295D02*
X174308118Y-97250295D01*
X181116667Y-117587200D02*
X181259524Y-117634819D01*
X181259524Y-117634819D02*
X181497619Y-117634819D01*
X181497619Y-117634819D02*
X181592857Y-117587200D01*
X181592857Y-117587200D02*
X181640476Y-117539580D01*
X181640476Y-117539580D02*
X181688095Y-117444342D01*
X181688095Y-117444342D02*
X181688095Y-117349104D01*
X181688095Y-117349104D02*
X181640476Y-117253866D01*
X181640476Y-117253866D02*
X181592857Y-117206247D01*
X181592857Y-117206247D02*
X181497619Y-117158628D01*
X181497619Y-117158628D02*
X181307143Y-117111009D01*
X181307143Y-117111009D02*
X181211905Y-117063390D01*
X181211905Y-117063390D02*
X181164286Y-117015771D01*
X181164286Y-117015771D02*
X181116667Y-116920533D01*
X181116667Y-116920533D02*
X181116667Y-116825295D01*
X181116667Y-116825295D02*
X181164286Y-116730057D01*
X181164286Y-116730057D02*
X181211905Y-116682438D01*
X181211905Y-116682438D02*
X181307143Y-116634819D01*
X181307143Y-116634819D02*
X181545238Y-116634819D01*
X181545238Y-116634819D02*
X181688095Y-116682438D01*
X182021429Y-116634819D02*
X182259524Y-117634819D01*
X182259524Y-117634819D02*
X182450000Y-116920533D01*
X182450000Y-116920533D02*
X182640476Y-117634819D01*
X182640476Y-117634819D02*
X182878572Y-116634819D01*
X183783333Y-117634819D02*
X183211905Y-117634819D01*
X183497619Y-117634819D02*
X183497619Y-116634819D01*
X183497619Y-116634819D02*
X183402381Y-116777676D01*
X183402381Y-116777676D02*
X183307143Y-116872914D01*
X183307143Y-116872914D02*
X183211905Y-116920533D01*
X141343333Y-89414819D02*
X141010000Y-88938628D01*
X140771905Y-89414819D02*
X140771905Y-88414819D01*
X140771905Y-88414819D02*
X141152857Y-88414819D01*
X141152857Y-88414819D02*
X141248095Y-88462438D01*
X141248095Y-88462438D02*
X141295714Y-88510057D01*
X141295714Y-88510057D02*
X141343333Y-88605295D01*
X141343333Y-88605295D02*
X141343333Y-88748152D01*
X141343333Y-88748152D02*
X141295714Y-88843390D01*
X141295714Y-88843390D02*
X141248095Y-88891009D01*
X141248095Y-88891009D02*
X141152857Y-88938628D01*
X141152857Y-88938628D02*
X140771905Y-88938628D01*
X141724286Y-88510057D02*
X141771905Y-88462438D01*
X141771905Y-88462438D02*
X141867143Y-88414819D01*
X141867143Y-88414819D02*
X142105238Y-88414819D01*
X142105238Y-88414819D02*
X142200476Y-88462438D01*
X142200476Y-88462438D02*
X142248095Y-88510057D01*
X142248095Y-88510057D02*
X142295714Y-88605295D01*
X142295714Y-88605295D02*
X142295714Y-88700533D01*
X142295714Y-88700533D02*
X142248095Y-88843390D01*
X142248095Y-88843390D02*
X141676667Y-89414819D01*
X141676667Y-89414819D02*
X142295714Y-89414819D01*
X152515833Y-91744819D02*
X152182500Y-91268628D01*
X151944405Y-91744819D02*
X151944405Y-90744819D01*
X151944405Y-90744819D02*
X152325357Y-90744819D01*
X152325357Y-90744819D02*
X152420595Y-90792438D01*
X152420595Y-90792438D02*
X152468214Y-90840057D01*
X152468214Y-90840057D02*
X152515833Y-90935295D01*
X152515833Y-90935295D02*
X152515833Y-91078152D01*
X152515833Y-91078152D02*
X152468214Y-91173390D01*
X152468214Y-91173390D02*
X152420595Y-91221009D01*
X152420595Y-91221009D02*
X152325357Y-91268628D01*
X152325357Y-91268628D02*
X151944405Y-91268628D01*
X152849167Y-90744819D02*
X153468214Y-90744819D01*
X153468214Y-90744819D02*
X153134881Y-91125771D01*
X153134881Y-91125771D02*
X153277738Y-91125771D01*
X153277738Y-91125771D02*
X153372976Y-91173390D01*
X153372976Y-91173390D02*
X153420595Y-91221009D01*
X153420595Y-91221009D02*
X153468214Y-91316247D01*
X153468214Y-91316247D02*
X153468214Y-91554342D01*
X153468214Y-91554342D02*
X153420595Y-91649580D01*
X153420595Y-91649580D02*
X153372976Y-91697200D01*
X153372976Y-91697200D02*
X153277738Y-91744819D01*
X153277738Y-91744819D02*
X152992024Y-91744819D01*
X152992024Y-91744819D02*
X152896786Y-91697200D01*
X152896786Y-91697200D02*
X152849167Y-91649580D01*
X138543333Y-97504819D02*
X138210000Y-97028628D01*
X137971905Y-97504819D02*
X137971905Y-96504819D01*
X137971905Y-96504819D02*
X138352857Y-96504819D01*
X138352857Y-96504819D02*
X138448095Y-96552438D01*
X138448095Y-96552438D02*
X138495714Y-96600057D01*
X138495714Y-96600057D02*
X138543333Y-96695295D01*
X138543333Y-96695295D02*
X138543333Y-96838152D01*
X138543333Y-96838152D02*
X138495714Y-96933390D01*
X138495714Y-96933390D02*
X138448095Y-96981009D01*
X138448095Y-96981009D02*
X138352857Y-97028628D01*
X138352857Y-97028628D02*
X137971905Y-97028628D01*
X138924286Y-96600057D02*
X138971905Y-96552438D01*
X138971905Y-96552438D02*
X139067143Y-96504819D01*
X139067143Y-96504819D02*
X139305238Y-96504819D01*
X139305238Y-96504819D02*
X139400476Y-96552438D01*
X139400476Y-96552438D02*
X139448095Y-96600057D01*
X139448095Y-96600057D02*
X139495714Y-96695295D01*
X139495714Y-96695295D02*
X139495714Y-96790533D01*
X139495714Y-96790533D02*
X139448095Y-96933390D01*
X139448095Y-96933390D02*
X138876667Y-97504819D01*
X138876667Y-97504819D02*
X139495714Y-97504819D01*
X140448095Y-97504819D02*
X139876667Y-97504819D01*
X140162381Y-97504819D02*
X140162381Y-96504819D01*
X140162381Y-96504819D02*
X140067143Y-96647676D01*
X140067143Y-96647676D02*
X139971905Y-96742914D01*
X139971905Y-96742914D02*
X139876667Y-96790533D01*
X143545142Y-92322819D02*
X143211809Y-91846628D01*
X142973714Y-92322819D02*
X142973714Y-91322819D01*
X142973714Y-91322819D02*
X143354666Y-91322819D01*
X143354666Y-91322819D02*
X143449904Y-91370438D01*
X143449904Y-91370438D02*
X143497523Y-91418057D01*
X143497523Y-91418057D02*
X143545142Y-91513295D01*
X143545142Y-91513295D02*
X143545142Y-91656152D01*
X143545142Y-91656152D02*
X143497523Y-91751390D01*
X143497523Y-91751390D02*
X143449904Y-91799009D01*
X143449904Y-91799009D02*
X143354666Y-91846628D01*
X143354666Y-91846628D02*
X142973714Y-91846628D01*
X143926095Y-91418057D02*
X143973714Y-91370438D01*
X143973714Y-91370438D02*
X144068952Y-91322819D01*
X144068952Y-91322819D02*
X144307047Y-91322819D01*
X144307047Y-91322819D02*
X144402285Y-91370438D01*
X144402285Y-91370438D02*
X144449904Y-91418057D01*
X144449904Y-91418057D02*
X144497523Y-91513295D01*
X144497523Y-91513295D02*
X144497523Y-91608533D01*
X144497523Y-91608533D02*
X144449904Y-91751390D01*
X144449904Y-91751390D02*
X143878476Y-92322819D01*
X143878476Y-92322819D02*
X144497523Y-92322819D01*
X145116571Y-91322819D02*
X145211809Y-91322819D01*
X145211809Y-91322819D02*
X145307047Y-91370438D01*
X145307047Y-91370438D02*
X145354666Y-91418057D01*
X145354666Y-91418057D02*
X145402285Y-91513295D01*
X145402285Y-91513295D02*
X145449904Y-91703771D01*
X145449904Y-91703771D02*
X145449904Y-91941866D01*
X145449904Y-91941866D02*
X145402285Y-92132342D01*
X145402285Y-92132342D02*
X145354666Y-92227580D01*
X145354666Y-92227580D02*
X145307047Y-92275200D01*
X145307047Y-92275200D02*
X145211809Y-92322819D01*
X145211809Y-92322819D02*
X145116571Y-92322819D01*
X145116571Y-92322819D02*
X145021333Y-92275200D01*
X145021333Y-92275200D02*
X144973714Y-92227580D01*
X144973714Y-92227580D02*
X144926095Y-92132342D01*
X144926095Y-92132342D02*
X144878476Y-91941866D01*
X144878476Y-91941866D02*
X144878476Y-91703771D01*
X144878476Y-91703771D02*
X144926095Y-91513295D01*
X144926095Y-91513295D02*
X144973714Y-91418057D01*
X144973714Y-91418057D02*
X145021333Y-91370438D01*
X145021333Y-91370438D02*
X145116571Y-91322819D01*
X138543333Y-100364819D02*
X138210000Y-99888628D01*
X137971905Y-100364819D02*
X137971905Y-99364819D01*
X137971905Y-99364819D02*
X138352857Y-99364819D01*
X138352857Y-99364819D02*
X138448095Y-99412438D01*
X138448095Y-99412438D02*
X138495714Y-99460057D01*
X138495714Y-99460057D02*
X138543333Y-99555295D01*
X138543333Y-99555295D02*
X138543333Y-99698152D01*
X138543333Y-99698152D02*
X138495714Y-99793390D01*
X138495714Y-99793390D02*
X138448095Y-99841009D01*
X138448095Y-99841009D02*
X138352857Y-99888628D01*
X138352857Y-99888628D02*
X137971905Y-99888628D01*
X139495714Y-100364819D02*
X138924286Y-100364819D01*
X139210000Y-100364819D02*
X139210000Y-99364819D01*
X139210000Y-99364819D02*
X139114762Y-99507676D01*
X139114762Y-99507676D02*
X139019524Y-99602914D01*
X139019524Y-99602914D02*
X138924286Y-99650533D01*
X139971905Y-100364819D02*
X140162381Y-100364819D01*
X140162381Y-100364819D02*
X140257619Y-100317200D01*
X140257619Y-100317200D02*
X140305238Y-100269580D01*
X140305238Y-100269580D02*
X140400476Y-100126723D01*
X140400476Y-100126723D02*
X140448095Y-99936247D01*
X140448095Y-99936247D02*
X140448095Y-99555295D01*
X140448095Y-99555295D02*
X140400476Y-99460057D01*
X140400476Y-99460057D02*
X140352857Y-99412438D01*
X140352857Y-99412438D02*
X140257619Y-99364819D01*
X140257619Y-99364819D02*
X140067143Y-99364819D01*
X140067143Y-99364819D02*
X139971905Y-99412438D01*
X139971905Y-99412438D02*
X139924286Y-99460057D01*
X139924286Y-99460057D02*
X139876667Y-99555295D01*
X139876667Y-99555295D02*
X139876667Y-99793390D01*
X139876667Y-99793390D02*
X139924286Y-99888628D01*
X139924286Y-99888628D02*
X139971905Y-99936247D01*
X139971905Y-99936247D02*
X140067143Y-99983866D01*
X140067143Y-99983866D02*
X140257619Y-99983866D01*
X140257619Y-99983866D02*
X140352857Y-99936247D01*
X140352857Y-99936247D02*
X140400476Y-99888628D01*
X140400476Y-99888628D02*
X140448095Y-99793390D01*
X138543333Y-102524819D02*
X138210000Y-102048628D01*
X137971905Y-102524819D02*
X137971905Y-101524819D01*
X137971905Y-101524819D02*
X138352857Y-101524819D01*
X138352857Y-101524819D02*
X138448095Y-101572438D01*
X138448095Y-101572438D02*
X138495714Y-101620057D01*
X138495714Y-101620057D02*
X138543333Y-101715295D01*
X138543333Y-101715295D02*
X138543333Y-101858152D01*
X138543333Y-101858152D02*
X138495714Y-101953390D01*
X138495714Y-101953390D02*
X138448095Y-102001009D01*
X138448095Y-102001009D02*
X138352857Y-102048628D01*
X138352857Y-102048628D02*
X137971905Y-102048628D01*
X139495714Y-102524819D02*
X138924286Y-102524819D01*
X139210000Y-102524819D02*
X139210000Y-101524819D01*
X139210000Y-101524819D02*
X139114762Y-101667676D01*
X139114762Y-101667676D02*
X139019524Y-101762914D01*
X139019524Y-101762914D02*
X138924286Y-101810533D01*
X139829048Y-101524819D02*
X140495714Y-101524819D01*
X140495714Y-101524819D02*
X140067143Y-102524819D01*
X144084819Y-96945357D02*
X143608628Y-97278690D01*
X144084819Y-97516785D02*
X143084819Y-97516785D01*
X143084819Y-97516785D02*
X143084819Y-97135833D01*
X143084819Y-97135833D02*
X143132438Y-97040595D01*
X143132438Y-97040595D02*
X143180057Y-96992976D01*
X143180057Y-96992976D02*
X143275295Y-96945357D01*
X143275295Y-96945357D02*
X143418152Y-96945357D01*
X143418152Y-96945357D02*
X143513390Y-96992976D01*
X143513390Y-96992976D02*
X143561009Y-97040595D01*
X143561009Y-97040595D02*
X143608628Y-97135833D01*
X143608628Y-97135833D02*
X143608628Y-97516785D01*
X144084819Y-95992976D02*
X144084819Y-96564404D01*
X144084819Y-96278690D02*
X143084819Y-96278690D01*
X143084819Y-96278690D02*
X143227676Y-96373928D01*
X143227676Y-96373928D02*
X143322914Y-96469166D01*
X143322914Y-96469166D02*
X143370533Y-96564404D01*
X143084819Y-95135833D02*
X143084819Y-95326309D01*
X143084819Y-95326309D02*
X143132438Y-95421547D01*
X143132438Y-95421547D02*
X143180057Y-95469166D01*
X143180057Y-95469166D02*
X143322914Y-95564404D01*
X143322914Y-95564404D02*
X143513390Y-95612023D01*
X143513390Y-95612023D02*
X143894342Y-95612023D01*
X143894342Y-95612023D02*
X143989580Y-95564404D01*
X143989580Y-95564404D02*
X144037200Y-95516785D01*
X144037200Y-95516785D02*
X144084819Y-95421547D01*
X144084819Y-95421547D02*
X144084819Y-95231071D01*
X144084819Y-95231071D02*
X144037200Y-95135833D01*
X144037200Y-95135833D02*
X143989580Y-95088214D01*
X143989580Y-95088214D02*
X143894342Y-95040595D01*
X143894342Y-95040595D02*
X143656247Y-95040595D01*
X143656247Y-95040595D02*
X143561009Y-95088214D01*
X143561009Y-95088214D02*
X143513390Y-95135833D01*
X143513390Y-95135833D02*
X143465771Y-95231071D01*
X143465771Y-95231071D02*
X143465771Y-95421547D01*
X143465771Y-95421547D02*
X143513390Y-95516785D01*
X143513390Y-95516785D02*
X143561009Y-95564404D01*
X143561009Y-95564404D02*
X143656247Y-95612023D01*
X138543333Y-105814819D02*
X138210000Y-105338628D01*
X137971905Y-105814819D02*
X137971905Y-104814819D01*
X137971905Y-104814819D02*
X138352857Y-104814819D01*
X138352857Y-104814819D02*
X138448095Y-104862438D01*
X138448095Y-104862438D02*
X138495714Y-104910057D01*
X138495714Y-104910057D02*
X138543333Y-105005295D01*
X138543333Y-105005295D02*
X138543333Y-105148152D01*
X138543333Y-105148152D02*
X138495714Y-105243390D01*
X138495714Y-105243390D02*
X138448095Y-105291009D01*
X138448095Y-105291009D02*
X138352857Y-105338628D01*
X138352857Y-105338628D02*
X137971905Y-105338628D01*
X139495714Y-105814819D02*
X138924286Y-105814819D01*
X139210000Y-105814819D02*
X139210000Y-104814819D01*
X139210000Y-104814819D02*
X139114762Y-104957676D01*
X139114762Y-104957676D02*
X139019524Y-105052914D01*
X139019524Y-105052914D02*
X138924286Y-105100533D01*
X140400476Y-104814819D02*
X139924286Y-104814819D01*
X139924286Y-104814819D02*
X139876667Y-105291009D01*
X139876667Y-105291009D02*
X139924286Y-105243390D01*
X139924286Y-105243390D02*
X140019524Y-105195771D01*
X140019524Y-105195771D02*
X140257619Y-105195771D01*
X140257619Y-105195771D02*
X140352857Y-105243390D01*
X140352857Y-105243390D02*
X140400476Y-105291009D01*
X140400476Y-105291009D02*
X140448095Y-105386247D01*
X140448095Y-105386247D02*
X140448095Y-105624342D01*
X140448095Y-105624342D02*
X140400476Y-105719580D01*
X140400476Y-105719580D02*
X140352857Y-105767200D01*
X140352857Y-105767200D02*
X140257619Y-105814819D01*
X140257619Y-105814819D02*
X140019524Y-105814819D01*
X140019524Y-105814819D02*
X139924286Y-105767200D01*
X139924286Y-105767200D02*
X139876667Y-105719580D01*
X138543333Y-108044819D02*
X138210000Y-107568628D01*
X137971905Y-108044819D02*
X137971905Y-107044819D01*
X137971905Y-107044819D02*
X138352857Y-107044819D01*
X138352857Y-107044819D02*
X138448095Y-107092438D01*
X138448095Y-107092438D02*
X138495714Y-107140057D01*
X138495714Y-107140057D02*
X138543333Y-107235295D01*
X138543333Y-107235295D02*
X138543333Y-107378152D01*
X138543333Y-107378152D02*
X138495714Y-107473390D01*
X138495714Y-107473390D02*
X138448095Y-107521009D01*
X138448095Y-107521009D02*
X138352857Y-107568628D01*
X138352857Y-107568628D02*
X137971905Y-107568628D01*
X139495714Y-108044819D02*
X138924286Y-108044819D01*
X139210000Y-108044819D02*
X139210000Y-107044819D01*
X139210000Y-107044819D02*
X139114762Y-107187676D01*
X139114762Y-107187676D02*
X139019524Y-107282914D01*
X139019524Y-107282914D02*
X138924286Y-107330533D01*
X139829048Y-107044819D02*
X140448095Y-107044819D01*
X140448095Y-107044819D02*
X140114762Y-107425771D01*
X140114762Y-107425771D02*
X140257619Y-107425771D01*
X140257619Y-107425771D02*
X140352857Y-107473390D01*
X140352857Y-107473390D02*
X140400476Y-107521009D01*
X140400476Y-107521009D02*
X140448095Y-107616247D01*
X140448095Y-107616247D02*
X140448095Y-107854342D01*
X140448095Y-107854342D02*
X140400476Y-107949580D01*
X140400476Y-107949580D02*
X140352857Y-107997200D01*
X140352857Y-107997200D02*
X140257619Y-108044819D01*
X140257619Y-108044819D02*
X139971905Y-108044819D01*
X139971905Y-108044819D02*
X139876667Y-107997200D01*
X139876667Y-107997200D02*
X139829048Y-107949580D01*
X138543333Y-110594819D02*
X138210000Y-110118628D01*
X137971905Y-110594819D02*
X137971905Y-109594819D01*
X137971905Y-109594819D02*
X138352857Y-109594819D01*
X138352857Y-109594819D02*
X138448095Y-109642438D01*
X138448095Y-109642438D02*
X138495714Y-109690057D01*
X138495714Y-109690057D02*
X138543333Y-109785295D01*
X138543333Y-109785295D02*
X138543333Y-109928152D01*
X138543333Y-109928152D02*
X138495714Y-110023390D01*
X138495714Y-110023390D02*
X138448095Y-110071009D01*
X138448095Y-110071009D02*
X138352857Y-110118628D01*
X138352857Y-110118628D02*
X137971905Y-110118628D01*
X139495714Y-110594819D02*
X138924286Y-110594819D01*
X139210000Y-110594819D02*
X139210000Y-109594819D01*
X139210000Y-109594819D02*
X139114762Y-109737676D01*
X139114762Y-109737676D02*
X139019524Y-109832914D01*
X139019524Y-109832914D02*
X138924286Y-109880533D01*
X140448095Y-110594819D02*
X139876667Y-110594819D01*
X140162381Y-110594819D02*
X140162381Y-109594819D01*
X140162381Y-109594819D02*
X140067143Y-109737676D01*
X140067143Y-109737676D02*
X139971905Y-109832914D01*
X139971905Y-109832914D02*
X139876667Y-109880533D01*
X138543333Y-95014819D02*
X138210000Y-94538628D01*
X137971905Y-95014819D02*
X137971905Y-94014819D01*
X137971905Y-94014819D02*
X138352857Y-94014819D01*
X138352857Y-94014819D02*
X138448095Y-94062438D01*
X138448095Y-94062438D02*
X138495714Y-94110057D01*
X138495714Y-94110057D02*
X138543333Y-94205295D01*
X138543333Y-94205295D02*
X138543333Y-94348152D01*
X138543333Y-94348152D02*
X138495714Y-94443390D01*
X138495714Y-94443390D02*
X138448095Y-94491009D01*
X138448095Y-94491009D02*
X138352857Y-94538628D01*
X138352857Y-94538628D02*
X137971905Y-94538628D01*
X139495714Y-95014819D02*
X138924286Y-95014819D01*
X139210000Y-95014819D02*
X139210000Y-94014819D01*
X139210000Y-94014819D02*
X139114762Y-94157676D01*
X139114762Y-94157676D02*
X139019524Y-94252914D01*
X139019524Y-94252914D02*
X138924286Y-94300533D01*
X140114762Y-94014819D02*
X140210000Y-94014819D01*
X140210000Y-94014819D02*
X140305238Y-94062438D01*
X140305238Y-94062438D02*
X140352857Y-94110057D01*
X140352857Y-94110057D02*
X140400476Y-94205295D01*
X140400476Y-94205295D02*
X140448095Y-94395771D01*
X140448095Y-94395771D02*
X140448095Y-94633866D01*
X140448095Y-94633866D02*
X140400476Y-94824342D01*
X140400476Y-94824342D02*
X140352857Y-94919580D01*
X140352857Y-94919580D02*
X140305238Y-94967200D01*
X140305238Y-94967200D02*
X140210000Y-95014819D01*
X140210000Y-95014819D02*
X140114762Y-95014819D01*
X140114762Y-95014819D02*
X140019524Y-94967200D01*
X140019524Y-94967200D02*
X139971905Y-94919580D01*
X139971905Y-94919580D02*
X139924286Y-94824342D01*
X139924286Y-94824342D02*
X139876667Y-94633866D01*
X139876667Y-94633866D02*
X139876667Y-94395771D01*
X139876667Y-94395771D02*
X139924286Y-94205295D01*
X139924286Y-94205295D02*
X139971905Y-94110057D01*
X139971905Y-94110057D02*
X140019524Y-94062438D01*
X140019524Y-94062438D02*
X140114762Y-94014819D01*
X138543333Y-113174819D02*
X138210000Y-112698628D01*
X137971905Y-113174819D02*
X137971905Y-112174819D01*
X137971905Y-112174819D02*
X138352857Y-112174819D01*
X138352857Y-112174819D02*
X138448095Y-112222438D01*
X138448095Y-112222438D02*
X138495714Y-112270057D01*
X138495714Y-112270057D02*
X138543333Y-112365295D01*
X138543333Y-112365295D02*
X138543333Y-112508152D01*
X138543333Y-112508152D02*
X138495714Y-112603390D01*
X138495714Y-112603390D02*
X138448095Y-112651009D01*
X138448095Y-112651009D02*
X138352857Y-112698628D01*
X138352857Y-112698628D02*
X137971905Y-112698628D01*
X139019524Y-113174819D02*
X139210000Y-113174819D01*
X139210000Y-113174819D02*
X139305238Y-113127200D01*
X139305238Y-113127200D02*
X139352857Y-113079580D01*
X139352857Y-113079580D02*
X139448095Y-112936723D01*
X139448095Y-112936723D02*
X139495714Y-112746247D01*
X139495714Y-112746247D02*
X139495714Y-112365295D01*
X139495714Y-112365295D02*
X139448095Y-112270057D01*
X139448095Y-112270057D02*
X139400476Y-112222438D01*
X139400476Y-112222438D02*
X139305238Y-112174819D01*
X139305238Y-112174819D02*
X139114762Y-112174819D01*
X139114762Y-112174819D02*
X139019524Y-112222438D01*
X139019524Y-112222438D02*
X138971905Y-112270057D01*
X138971905Y-112270057D02*
X138924286Y-112365295D01*
X138924286Y-112365295D02*
X138924286Y-112603390D01*
X138924286Y-112603390D02*
X138971905Y-112698628D01*
X138971905Y-112698628D02*
X139019524Y-112746247D01*
X139019524Y-112746247D02*
X139114762Y-112793866D01*
X139114762Y-112793866D02*
X139305238Y-112793866D01*
X139305238Y-112793866D02*
X139400476Y-112746247D01*
X139400476Y-112746247D02*
X139448095Y-112698628D01*
X139448095Y-112698628D02*
X139495714Y-112603390D01*
X138543333Y-115624819D02*
X138210000Y-115148628D01*
X137971905Y-115624819D02*
X137971905Y-114624819D01*
X137971905Y-114624819D02*
X138352857Y-114624819D01*
X138352857Y-114624819D02*
X138448095Y-114672438D01*
X138448095Y-114672438D02*
X138495714Y-114720057D01*
X138495714Y-114720057D02*
X138543333Y-114815295D01*
X138543333Y-114815295D02*
X138543333Y-114958152D01*
X138543333Y-114958152D02*
X138495714Y-115053390D01*
X138495714Y-115053390D02*
X138448095Y-115101009D01*
X138448095Y-115101009D02*
X138352857Y-115148628D01*
X138352857Y-115148628D02*
X137971905Y-115148628D01*
X138876667Y-114624819D02*
X139543333Y-114624819D01*
X139543333Y-114624819D02*
X139114762Y-115624819D01*
X186150833Y-93554819D02*
X185817500Y-93078628D01*
X185579405Y-93554819D02*
X185579405Y-92554819D01*
X185579405Y-92554819D02*
X185960357Y-92554819D01*
X185960357Y-92554819D02*
X186055595Y-92602438D01*
X186055595Y-92602438D02*
X186103214Y-92650057D01*
X186103214Y-92650057D02*
X186150833Y-92745295D01*
X186150833Y-92745295D02*
X186150833Y-92888152D01*
X186150833Y-92888152D02*
X186103214Y-92983390D01*
X186103214Y-92983390D02*
X186055595Y-93031009D01*
X186055595Y-93031009D02*
X185960357Y-93078628D01*
X185960357Y-93078628D02*
X185579405Y-93078628D01*
X187007976Y-92554819D02*
X186817500Y-92554819D01*
X186817500Y-92554819D02*
X186722262Y-92602438D01*
X186722262Y-92602438D02*
X186674643Y-92650057D01*
X186674643Y-92650057D02*
X186579405Y-92792914D01*
X186579405Y-92792914D02*
X186531786Y-92983390D01*
X186531786Y-92983390D02*
X186531786Y-93364342D01*
X186531786Y-93364342D02*
X186579405Y-93459580D01*
X186579405Y-93459580D02*
X186627024Y-93507200D01*
X186627024Y-93507200D02*
X186722262Y-93554819D01*
X186722262Y-93554819D02*
X186912738Y-93554819D01*
X186912738Y-93554819D02*
X187007976Y-93507200D01*
X187007976Y-93507200D02*
X187055595Y-93459580D01*
X187055595Y-93459580D02*
X187103214Y-93364342D01*
X187103214Y-93364342D02*
X187103214Y-93126247D01*
X187103214Y-93126247D02*
X187055595Y-93031009D01*
X187055595Y-93031009D02*
X187007976Y-92983390D01*
X187007976Y-92983390D02*
X186912738Y-92935771D01*
X186912738Y-92935771D02*
X186722262Y-92935771D01*
X186722262Y-92935771D02*
X186627024Y-92983390D01*
X186627024Y-92983390D02*
X186579405Y-93031009D01*
X186579405Y-93031009D02*
X186531786Y-93126247D01*
X161655319Y-99434666D02*
X161179128Y-99767999D01*
X161655319Y-100006094D02*
X160655319Y-100006094D01*
X160655319Y-100006094D02*
X160655319Y-99625142D01*
X160655319Y-99625142D02*
X160702938Y-99529904D01*
X160702938Y-99529904D02*
X160750557Y-99482285D01*
X160750557Y-99482285D02*
X160845795Y-99434666D01*
X160845795Y-99434666D02*
X160988652Y-99434666D01*
X160988652Y-99434666D02*
X161083890Y-99482285D01*
X161083890Y-99482285D02*
X161131509Y-99529904D01*
X161131509Y-99529904D02*
X161179128Y-99625142D01*
X161179128Y-99625142D02*
X161179128Y-100006094D01*
X160655319Y-98529904D02*
X160655319Y-99006094D01*
X160655319Y-99006094D02*
X161131509Y-99053713D01*
X161131509Y-99053713D02*
X161083890Y-99006094D01*
X161083890Y-99006094D02*
X161036271Y-98910856D01*
X161036271Y-98910856D02*
X161036271Y-98672761D01*
X161036271Y-98672761D02*
X161083890Y-98577523D01*
X161083890Y-98577523D02*
X161131509Y-98529904D01*
X161131509Y-98529904D02*
X161226747Y-98482285D01*
X161226747Y-98482285D02*
X161464842Y-98482285D01*
X161464842Y-98482285D02*
X161560080Y-98529904D01*
X161560080Y-98529904D02*
X161607700Y-98577523D01*
X161607700Y-98577523D02*
X161655319Y-98672761D01*
X161655319Y-98672761D02*
X161655319Y-98910856D01*
X161655319Y-98910856D02*
X161607700Y-99006094D01*
X161607700Y-99006094D02*
X161560080Y-99053713D01*
X164455319Y-104354666D02*
X163979128Y-104687999D01*
X164455319Y-104926094D02*
X163455319Y-104926094D01*
X163455319Y-104926094D02*
X163455319Y-104545142D01*
X163455319Y-104545142D02*
X163502938Y-104449904D01*
X163502938Y-104449904D02*
X163550557Y-104402285D01*
X163550557Y-104402285D02*
X163645795Y-104354666D01*
X163645795Y-104354666D02*
X163788652Y-104354666D01*
X163788652Y-104354666D02*
X163883890Y-104402285D01*
X163883890Y-104402285D02*
X163931509Y-104449904D01*
X163931509Y-104449904D02*
X163979128Y-104545142D01*
X163979128Y-104545142D02*
X163979128Y-104926094D01*
X164455319Y-103402285D02*
X164455319Y-103973713D01*
X164455319Y-103687999D02*
X163455319Y-103687999D01*
X163455319Y-103687999D02*
X163598176Y-103783237D01*
X163598176Y-103783237D02*
X163693414Y-103878475D01*
X163693414Y-103878475D02*
X163741033Y-103973713D01*
X127586666Y-117024819D02*
X127586666Y-117739104D01*
X127586666Y-117739104D02*
X127539047Y-117881961D01*
X127539047Y-117881961D02*
X127443809Y-117977200D01*
X127443809Y-117977200D02*
X127300952Y-118024819D01*
X127300952Y-118024819D02*
X127205714Y-118024819D01*
X128586666Y-118024819D02*
X128015238Y-118024819D01*
X128300952Y-118024819D02*
X128300952Y-117024819D01*
X128300952Y-117024819D02*
X128205714Y-117167676D01*
X128205714Y-117167676D02*
X128110476Y-117262914D01*
X128110476Y-117262914D02*
X128015238Y-117310533D01*
X184251509Y-103438833D02*
X184251509Y-103772166D01*
X184775319Y-103772166D02*
X183775319Y-103772166D01*
X183775319Y-103772166D02*
X183775319Y-103295976D01*
X184251509Y-102581690D02*
X184299128Y-102438833D01*
X184299128Y-102438833D02*
X184346747Y-102391214D01*
X184346747Y-102391214D02*
X184441985Y-102343595D01*
X184441985Y-102343595D02*
X184584842Y-102343595D01*
X184584842Y-102343595D02*
X184680080Y-102391214D01*
X184680080Y-102391214D02*
X184727700Y-102438833D01*
X184727700Y-102438833D02*
X184775319Y-102534071D01*
X184775319Y-102534071D02*
X184775319Y-102915023D01*
X184775319Y-102915023D02*
X183775319Y-102915023D01*
X183775319Y-102915023D02*
X183775319Y-102581690D01*
X183775319Y-102581690D02*
X183822938Y-102486452D01*
X183822938Y-102486452D02*
X183870557Y-102438833D01*
X183870557Y-102438833D02*
X183965795Y-102391214D01*
X183965795Y-102391214D02*
X184061033Y-102391214D01*
X184061033Y-102391214D02*
X184156271Y-102438833D01*
X184156271Y-102438833D02*
X184203890Y-102486452D01*
X184203890Y-102486452D02*
X184251509Y-102581690D01*
X184251509Y-102581690D02*
X184251509Y-102915023D01*
X184775319Y-101391214D02*
X184775319Y-101962642D01*
X184775319Y-101676928D02*
X183775319Y-101676928D01*
X183775319Y-101676928D02*
X183918176Y-101772166D01*
X183918176Y-101772166D02*
X184013414Y-101867404D01*
X184013414Y-101867404D02*
X184061033Y-101962642D01*
X160312405Y-92652819D02*
X160312405Y-91652819D01*
X160312405Y-91652819D02*
X160550500Y-91652819D01*
X160550500Y-91652819D02*
X160693357Y-91700438D01*
X160693357Y-91700438D02*
X160788595Y-91795676D01*
X160788595Y-91795676D02*
X160836214Y-91890914D01*
X160836214Y-91890914D02*
X160883833Y-92081390D01*
X160883833Y-92081390D02*
X160883833Y-92224247D01*
X160883833Y-92224247D02*
X160836214Y-92414723D01*
X160836214Y-92414723D02*
X160788595Y-92509961D01*
X160788595Y-92509961D02*
X160693357Y-92605200D01*
X160693357Y-92605200D02*
X160550500Y-92652819D01*
X160550500Y-92652819D02*
X160312405Y-92652819D01*
X161836214Y-92652819D02*
X161264786Y-92652819D01*
X161550500Y-92652819D02*
X161550500Y-91652819D01*
X161550500Y-91652819D02*
X161455262Y-91795676D01*
X161455262Y-91795676D02*
X161360024Y-91890914D01*
X161360024Y-91890914D02*
X161264786Y-91938533D01*
X185482405Y-92042819D02*
X185482405Y-91042819D01*
X185482405Y-91042819D02*
X185720500Y-91042819D01*
X185720500Y-91042819D02*
X185863357Y-91090438D01*
X185863357Y-91090438D02*
X185958595Y-91185676D01*
X185958595Y-91185676D02*
X186006214Y-91280914D01*
X186006214Y-91280914D02*
X186053833Y-91471390D01*
X186053833Y-91471390D02*
X186053833Y-91614247D01*
X186053833Y-91614247D02*
X186006214Y-91804723D01*
X186006214Y-91804723D02*
X185958595Y-91899961D01*
X185958595Y-91899961D02*
X185863357Y-91995200D01*
X185863357Y-91995200D02*
X185720500Y-92042819D01*
X185720500Y-92042819D02*
X185482405Y-92042819D01*
X186434786Y-91138057D02*
X186482405Y-91090438D01*
X186482405Y-91090438D02*
X186577643Y-91042819D01*
X186577643Y-91042819D02*
X186815738Y-91042819D01*
X186815738Y-91042819D02*
X186910976Y-91090438D01*
X186910976Y-91090438D02*
X186958595Y-91138057D01*
X186958595Y-91138057D02*
X187006214Y-91233295D01*
X187006214Y-91233295D02*
X187006214Y-91328533D01*
X187006214Y-91328533D02*
X186958595Y-91471390D01*
X186958595Y-91471390D02*
X186387167Y-92042819D01*
X186387167Y-92042819D02*
X187006214Y-92042819D01*
X158498333Y-92229580D02*
X158450714Y-92277200D01*
X158450714Y-92277200D02*
X158307857Y-92324819D01*
X158307857Y-92324819D02*
X158212619Y-92324819D01*
X158212619Y-92324819D02*
X158069762Y-92277200D01*
X158069762Y-92277200D02*
X157974524Y-92181961D01*
X157974524Y-92181961D02*
X157926905Y-92086723D01*
X157926905Y-92086723D02*
X157879286Y-91896247D01*
X157879286Y-91896247D02*
X157879286Y-91753390D01*
X157879286Y-91753390D02*
X157926905Y-91562914D01*
X157926905Y-91562914D02*
X157974524Y-91467676D01*
X157974524Y-91467676D02*
X158069762Y-91372438D01*
X158069762Y-91372438D02*
X158212619Y-91324819D01*
X158212619Y-91324819D02*
X158307857Y-91324819D01*
X158307857Y-91324819D02*
X158450714Y-91372438D01*
X158450714Y-91372438D02*
X158498333Y-91420057D01*
X158831667Y-91324819D02*
X159498333Y-91324819D01*
X159498333Y-91324819D02*
X159069762Y-92324819D01*
X142619580Y-111937857D02*
X142667200Y-111985476D01*
X142667200Y-111985476D02*
X142714819Y-112128333D01*
X142714819Y-112128333D02*
X142714819Y-112223571D01*
X142714819Y-112223571D02*
X142667200Y-112366428D01*
X142667200Y-112366428D02*
X142571961Y-112461666D01*
X142571961Y-112461666D02*
X142476723Y-112509285D01*
X142476723Y-112509285D02*
X142286247Y-112556904D01*
X142286247Y-112556904D02*
X142143390Y-112556904D01*
X142143390Y-112556904D02*
X141952914Y-112509285D01*
X141952914Y-112509285D02*
X141857676Y-112461666D01*
X141857676Y-112461666D02*
X141762438Y-112366428D01*
X141762438Y-112366428D02*
X141714819Y-112223571D01*
X141714819Y-112223571D02*
X141714819Y-112128333D01*
X141714819Y-112128333D02*
X141762438Y-111985476D01*
X141762438Y-111985476D02*
X141810057Y-111937857D01*
X142714819Y-110985476D02*
X142714819Y-111556904D01*
X142714819Y-111271190D02*
X141714819Y-111271190D01*
X141714819Y-111271190D02*
X141857676Y-111366428D01*
X141857676Y-111366428D02*
X141952914Y-111461666D01*
X141952914Y-111461666D02*
X142000533Y-111556904D01*
X141810057Y-110604523D02*
X141762438Y-110556904D01*
X141762438Y-110556904D02*
X141714819Y-110461666D01*
X141714819Y-110461666D02*
X141714819Y-110223571D01*
X141714819Y-110223571D02*
X141762438Y-110128333D01*
X141762438Y-110128333D02*
X141810057Y-110080714D01*
X141810057Y-110080714D02*
X141905295Y-110033095D01*
X141905295Y-110033095D02*
X142000533Y-110033095D01*
X142000533Y-110033095D02*
X142143390Y-110080714D01*
X142143390Y-110080714D02*
X142714819Y-110652142D01*
X142714819Y-110652142D02*
X142714819Y-110033095D01*
X155042142Y-89019580D02*
X154994523Y-89067200D01*
X154994523Y-89067200D02*
X154851666Y-89114819D01*
X154851666Y-89114819D02*
X154756428Y-89114819D01*
X154756428Y-89114819D02*
X154613571Y-89067200D01*
X154613571Y-89067200D02*
X154518333Y-88971961D01*
X154518333Y-88971961D02*
X154470714Y-88876723D01*
X154470714Y-88876723D02*
X154423095Y-88686247D01*
X154423095Y-88686247D02*
X154423095Y-88543390D01*
X154423095Y-88543390D02*
X154470714Y-88352914D01*
X154470714Y-88352914D02*
X154518333Y-88257676D01*
X154518333Y-88257676D02*
X154613571Y-88162438D01*
X154613571Y-88162438D02*
X154756428Y-88114819D01*
X154756428Y-88114819D02*
X154851666Y-88114819D01*
X154851666Y-88114819D02*
X154994523Y-88162438D01*
X154994523Y-88162438D02*
X155042142Y-88210057D01*
X155994523Y-89114819D02*
X155423095Y-89114819D01*
X155708809Y-89114819D02*
X155708809Y-88114819D01*
X155708809Y-88114819D02*
X155613571Y-88257676D01*
X155613571Y-88257676D02*
X155518333Y-88352914D01*
X155518333Y-88352914D02*
X155423095Y-88400533D01*
X156613571Y-88114819D02*
X156708809Y-88114819D01*
X156708809Y-88114819D02*
X156804047Y-88162438D01*
X156804047Y-88162438D02*
X156851666Y-88210057D01*
X156851666Y-88210057D02*
X156899285Y-88305295D01*
X156899285Y-88305295D02*
X156946904Y-88495771D01*
X156946904Y-88495771D02*
X156946904Y-88733866D01*
X156946904Y-88733866D02*
X156899285Y-88924342D01*
X156899285Y-88924342D02*
X156851666Y-89019580D01*
X156851666Y-89019580D02*
X156804047Y-89067200D01*
X156804047Y-89067200D02*
X156708809Y-89114819D01*
X156708809Y-89114819D02*
X156613571Y-89114819D01*
X156613571Y-89114819D02*
X156518333Y-89067200D01*
X156518333Y-89067200D02*
X156470714Y-89019580D01*
X156470714Y-89019580D02*
X156423095Y-88924342D01*
X156423095Y-88924342D02*
X156375476Y-88733866D01*
X156375476Y-88733866D02*
X156375476Y-88495771D01*
X156375476Y-88495771D02*
X156423095Y-88305295D01*
X156423095Y-88305295D02*
X156470714Y-88210057D01*
X156470714Y-88210057D02*
X156518333Y-88162438D01*
X156518333Y-88162438D02*
X156613571Y-88114819D01*
X159612142Y-113629580D02*
X159564523Y-113677200D01*
X159564523Y-113677200D02*
X159421666Y-113724819D01*
X159421666Y-113724819D02*
X159326428Y-113724819D01*
X159326428Y-113724819D02*
X159183571Y-113677200D01*
X159183571Y-113677200D02*
X159088333Y-113581961D01*
X159088333Y-113581961D02*
X159040714Y-113486723D01*
X159040714Y-113486723D02*
X158993095Y-113296247D01*
X158993095Y-113296247D02*
X158993095Y-113153390D01*
X158993095Y-113153390D02*
X159040714Y-112962914D01*
X159040714Y-112962914D02*
X159088333Y-112867676D01*
X159088333Y-112867676D02*
X159183571Y-112772438D01*
X159183571Y-112772438D02*
X159326428Y-112724819D01*
X159326428Y-112724819D02*
X159421666Y-112724819D01*
X159421666Y-112724819D02*
X159564523Y-112772438D01*
X159564523Y-112772438D02*
X159612142Y-112820057D01*
X160564523Y-113724819D02*
X159993095Y-113724819D01*
X160278809Y-113724819D02*
X160278809Y-112724819D01*
X160278809Y-112724819D02*
X160183571Y-112867676D01*
X160183571Y-112867676D02*
X160088333Y-112962914D01*
X160088333Y-112962914D02*
X159993095Y-113010533D01*
X161516904Y-113724819D02*
X160945476Y-113724819D01*
X161231190Y-113724819D02*
X161231190Y-112724819D01*
X161231190Y-112724819D02*
X161135952Y-112867676D01*
X161135952Y-112867676D02*
X161040714Y-112962914D01*
X161040714Y-112962914D02*
X160945476Y-113010533D01*
X160422142Y-108269580D02*
X160374523Y-108317200D01*
X160374523Y-108317200D02*
X160231666Y-108364819D01*
X160231666Y-108364819D02*
X160136428Y-108364819D01*
X160136428Y-108364819D02*
X159993571Y-108317200D01*
X159993571Y-108317200D02*
X159898333Y-108221961D01*
X159898333Y-108221961D02*
X159850714Y-108126723D01*
X159850714Y-108126723D02*
X159803095Y-107936247D01*
X159803095Y-107936247D02*
X159803095Y-107793390D01*
X159803095Y-107793390D02*
X159850714Y-107602914D01*
X159850714Y-107602914D02*
X159898333Y-107507676D01*
X159898333Y-107507676D02*
X159993571Y-107412438D01*
X159993571Y-107412438D02*
X160136428Y-107364819D01*
X160136428Y-107364819D02*
X160231666Y-107364819D01*
X160231666Y-107364819D02*
X160374523Y-107412438D01*
X160374523Y-107412438D02*
X160422142Y-107460057D01*
X161374523Y-108364819D02*
X160803095Y-108364819D01*
X161088809Y-108364819D02*
X161088809Y-107364819D01*
X161088809Y-107364819D02*
X160993571Y-107507676D01*
X160993571Y-107507676D02*
X160898333Y-107602914D01*
X160898333Y-107602914D02*
X160803095Y-107650533D01*
X161707857Y-107364819D02*
X162326904Y-107364819D01*
X162326904Y-107364819D02*
X161993571Y-107745771D01*
X161993571Y-107745771D02*
X162136428Y-107745771D01*
X162136428Y-107745771D02*
X162231666Y-107793390D01*
X162231666Y-107793390D02*
X162279285Y-107841009D01*
X162279285Y-107841009D02*
X162326904Y-107936247D01*
X162326904Y-107936247D02*
X162326904Y-108174342D01*
X162326904Y-108174342D02*
X162279285Y-108269580D01*
X162279285Y-108269580D02*
X162231666Y-108317200D01*
X162231666Y-108317200D02*
X162136428Y-108364819D01*
X162136428Y-108364819D02*
X161850714Y-108364819D01*
X161850714Y-108364819D02*
X161755476Y-108317200D01*
X161755476Y-108317200D02*
X161707857Y-108269580D01*
X154178333Y-115009580D02*
X154130714Y-115057200D01*
X154130714Y-115057200D02*
X153987857Y-115104819D01*
X153987857Y-115104819D02*
X153892619Y-115104819D01*
X153892619Y-115104819D02*
X153749762Y-115057200D01*
X153749762Y-115057200D02*
X153654524Y-114961961D01*
X153654524Y-114961961D02*
X153606905Y-114866723D01*
X153606905Y-114866723D02*
X153559286Y-114676247D01*
X153559286Y-114676247D02*
X153559286Y-114533390D01*
X153559286Y-114533390D02*
X153606905Y-114342914D01*
X153606905Y-114342914D02*
X153654524Y-114247676D01*
X153654524Y-114247676D02*
X153749762Y-114152438D01*
X153749762Y-114152438D02*
X153892619Y-114104819D01*
X153892619Y-114104819D02*
X153987857Y-114104819D01*
X153987857Y-114104819D02*
X154130714Y-114152438D01*
X154130714Y-114152438D02*
X154178333Y-114200057D01*
X154749762Y-114533390D02*
X154654524Y-114485771D01*
X154654524Y-114485771D02*
X154606905Y-114438152D01*
X154606905Y-114438152D02*
X154559286Y-114342914D01*
X154559286Y-114342914D02*
X154559286Y-114295295D01*
X154559286Y-114295295D02*
X154606905Y-114200057D01*
X154606905Y-114200057D02*
X154654524Y-114152438D01*
X154654524Y-114152438D02*
X154749762Y-114104819D01*
X154749762Y-114104819D02*
X154940238Y-114104819D01*
X154940238Y-114104819D02*
X155035476Y-114152438D01*
X155035476Y-114152438D02*
X155083095Y-114200057D01*
X155083095Y-114200057D02*
X155130714Y-114295295D01*
X155130714Y-114295295D02*
X155130714Y-114342914D01*
X155130714Y-114342914D02*
X155083095Y-114438152D01*
X155083095Y-114438152D02*
X155035476Y-114485771D01*
X155035476Y-114485771D02*
X154940238Y-114533390D01*
X154940238Y-114533390D02*
X154749762Y-114533390D01*
X154749762Y-114533390D02*
X154654524Y-114581009D01*
X154654524Y-114581009D02*
X154606905Y-114628628D01*
X154606905Y-114628628D02*
X154559286Y-114723866D01*
X154559286Y-114723866D02*
X154559286Y-114914342D01*
X154559286Y-114914342D02*
X154606905Y-115009580D01*
X154606905Y-115009580D02*
X154654524Y-115057200D01*
X154654524Y-115057200D02*
X154749762Y-115104819D01*
X154749762Y-115104819D02*
X154940238Y-115104819D01*
X154940238Y-115104819D02*
X155035476Y-115057200D01*
X155035476Y-115057200D02*
X155083095Y-115009580D01*
X155083095Y-115009580D02*
X155130714Y-114914342D01*
X155130714Y-114914342D02*
X155130714Y-114723866D01*
X155130714Y-114723866D02*
X155083095Y-114628628D01*
X155083095Y-114628628D02*
X155035476Y-114581009D01*
X155035476Y-114581009D02*
X154940238Y-114533390D01*
X154258333Y-111259580D02*
X154210714Y-111307200D01*
X154210714Y-111307200D02*
X154067857Y-111354819D01*
X154067857Y-111354819D02*
X153972619Y-111354819D01*
X153972619Y-111354819D02*
X153829762Y-111307200D01*
X153829762Y-111307200D02*
X153734524Y-111211961D01*
X153734524Y-111211961D02*
X153686905Y-111116723D01*
X153686905Y-111116723D02*
X153639286Y-110926247D01*
X153639286Y-110926247D02*
X153639286Y-110783390D01*
X153639286Y-110783390D02*
X153686905Y-110592914D01*
X153686905Y-110592914D02*
X153734524Y-110497676D01*
X153734524Y-110497676D02*
X153829762Y-110402438D01*
X153829762Y-110402438D02*
X153972619Y-110354819D01*
X153972619Y-110354819D02*
X154067857Y-110354819D01*
X154067857Y-110354819D02*
X154210714Y-110402438D01*
X154210714Y-110402438D02*
X154258333Y-110450057D01*
X154734524Y-111354819D02*
X154925000Y-111354819D01*
X154925000Y-111354819D02*
X155020238Y-111307200D01*
X155020238Y-111307200D02*
X155067857Y-111259580D01*
X155067857Y-111259580D02*
X155163095Y-111116723D01*
X155163095Y-111116723D02*
X155210714Y-110926247D01*
X155210714Y-110926247D02*
X155210714Y-110545295D01*
X155210714Y-110545295D02*
X155163095Y-110450057D01*
X155163095Y-110450057D02*
X155115476Y-110402438D01*
X155115476Y-110402438D02*
X155020238Y-110354819D01*
X155020238Y-110354819D02*
X154829762Y-110354819D01*
X154829762Y-110354819D02*
X154734524Y-110402438D01*
X154734524Y-110402438D02*
X154686905Y-110450057D01*
X154686905Y-110450057D02*
X154639286Y-110545295D01*
X154639286Y-110545295D02*
X154639286Y-110783390D01*
X154639286Y-110783390D02*
X154686905Y-110878628D01*
X154686905Y-110878628D02*
X154734524Y-110926247D01*
X154734524Y-110926247D02*
X154829762Y-110973866D01*
X154829762Y-110973866D02*
X155020238Y-110973866D01*
X155020238Y-110973866D02*
X155115476Y-110926247D01*
X155115476Y-110926247D02*
X155163095Y-110878628D01*
X155163095Y-110878628D02*
X155210714Y-110783390D01*
X148798333Y-112829580D02*
X148750714Y-112877200D01*
X148750714Y-112877200D02*
X148607857Y-112924819D01*
X148607857Y-112924819D02*
X148512619Y-112924819D01*
X148512619Y-112924819D02*
X148369762Y-112877200D01*
X148369762Y-112877200D02*
X148274524Y-112781961D01*
X148274524Y-112781961D02*
X148226905Y-112686723D01*
X148226905Y-112686723D02*
X148179286Y-112496247D01*
X148179286Y-112496247D02*
X148179286Y-112353390D01*
X148179286Y-112353390D02*
X148226905Y-112162914D01*
X148226905Y-112162914D02*
X148274524Y-112067676D01*
X148274524Y-112067676D02*
X148369762Y-111972438D01*
X148369762Y-111972438D02*
X148512619Y-111924819D01*
X148512619Y-111924819D02*
X148607857Y-111924819D01*
X148607857Y-111924819D02*
X148750714Y-111972438D01*
X148750714Y-111972438D02*
X148798333Y-112020057D01*
X149750714Y-112924819D02*
X149179286Y-112924819D01*
X149465000Y-112924819D02*
X149465000Y-111924819D01*
X149465000Y-111924819D02*
X149369762Y-112067676D01*
X149369762Y-112067676D02*
X149274524Y-112162914D01*
X149274524Y-112162914D02*
X149179286Y-112210533D01*
X185259580Y-98776666D02*
X185307200Y-98824285D01*
X185307200Y-98824285D02*
X185354819Y-98967142D01*
X185354819Y-98967142D02*
X185354819Y-99062380D01*
X185354819Y-99062380D02*
X185307200Y-99205237D01*
X185307200Y-99205237D02*
X185211961Y-99300475D01*
X185211961Y-99300475D02*
X185116723Y-99348094D01*
X185116723Y-99348094D02*
X184926247Y-99395713D01*
X184926247Y-99395713D02*
X184783390Y-99395713D01*
X184783390Y-99395713D02*
X184592914Y-99348094D01*
X184592914Y-99348094D02*
X184497676Y-99300475D01*
X184497676Y-99300475D02*
X184402438Y-99205237D01*
X184402438Y-99205237D02*
X184354819Y-99062380D01*
X184354819Y-99062380D02*
X184354819Y-98967142D01*
X184354819Y-98967142D02*
X184402438Y-98824285D01*
X184402438Y-98824285D02*
X184450057Y-98776666D01*
X184354819Y-98443332D02*
X184354819Y-97824285D01*
X184354819Y-97824285D02*
X184735771Y-98157618D01*
X184735771Y-98157618D02*
X184735771Y-98014761D01*
X184735771Y-98014761D02*
X184783390Y-97919523D01*
X184783390Y-97919523D02*
X184831009Y-97871904D01*
X184831009Y-97871904D02*
X184926247Y-97824285D01*
X184926247Y-97824285D02*
X185164342Y-97824285D01*
X185164342Y-97824285D02*
X185259580Y-97871904D01*
X185259580Y-97871904D02*
X185307200Y-97919523D01*
X185307200Y-97919523D02*
X185354819Y-98014761D01*
X185354819Y-98014761D02*
X185354819Y-98300475D01*
X185354819Y-98300475D02*
X185307200Y-98395713D01*
X185307200Y-98395713D02*
X185259580Y-98443332D01*
X184798833Y-109537580D02*
X184751214Y-109585200D01*
X184751214Y-109585200D02*
X184608357Y-109632819D01*
X184608357Y-109632819D02*
X184513119Y-109632819D01*
X184513119Y-109632819D02*
X184370262Y-109585200D01*
X184370262Y-109585200D02*
X184275024Y-109489961D01*
X184275024Y-109489961D02*
X184227405Y-109394723D01*
X184227405Y-109394723D02*
X184179786Y-109204247D01*
X184179786Y-109204247D02*
X184179786Y-109061390D01*
X184179786Y-109061390D02*
X184227405Y-108870914D01*
X184227405Y-108870914D02*
X184275024Y-108775676D01*
X184275024Y-108775676D02*
X184370262Y-108680438D01*
X184370262Y-108680438D02*
X184513119Y-108632819D01*
X184513119Y-108632819D02*
X184608357Y-108632819D01*
X184608357Y-108632819D02*
X184751214Y-108680438D01*
X184751214Y-108680438D02*
X184798833Y-108728057D01*
X185655976Y-108632819D02*
X185465500Y-108632819D01*
X185465500Y-108632819D02*
X185370262Y-108680438D01*
X185370262Y-108680438D02*
X185322643Y-108728057D01*
X185322643Y-108728057D02*
X185227405Y-108870914D01*
X185227405Y-108870914D02*
X185179786Y-109061390D01*
X185179786Y-109061390D02*
X185179786Y-109442342D01*
X185179786Y-109442342D02*
X185227405Y-109537580D01*
X185227405Y-109537580D02*
X185275024Y-109585200D01*
X185275024Y-109585200D02*
X185370262Y-109632819D01*
X185370262Y-109632819D02*
X185560738Y-109632819D01*
X185560738Y-109632819D02*
X185655976Y-109585200D01*
X185655976Y-109585200D02*
X185703595Y-109537580D01*
X185703595Y-109537580D02*
X185751214Y-109442342D01*
X185751214Y-109442342D02*
X185751214Y-109204247D01*
X185751214Y-109204247D02*
X185703595Y-109109009D01*
X185703595Y-109109009D02*
X185655976Y-109061390D01*
X185655976Y-109061390D02*
X185560738Y-109013771D01*
X185560738Y-109013771D02*
X185370262Y-109013771D01*
X185370262Y-109013771D02*
X185275024Y-109061390D01*
X185275024Y-109061390D02*
X185227405Y-109109009D01*
X185227405Y-109109009D02*
X185179786Y-109204247D01*
X172798833Y-109807580D02*
X172751214Y-109855200D01*
X172751214Y-109855200D02*
X172608357Y-109902819D01*
X172608357Y-109902819D02*
X172513119Y-109902819D01*
X172513119Y-109902819D02*
X172370262Y-109855200D01*
X172370262Y-109855200D02*
X172275024Y-109759961D01*
X172275024Y-109759961D02*
X172227405Y-109664723D01*
X172227405Y-109664723D02*
X172179786Y-109474247D01*
X172179786Y-109474247D02*
X172179786Y-109331390D01*
X172179786Y-109331390D02*
X172227405Y-109140914D01*
X172227405Y-109140914D02*
X172275024Y-109045676D01*
X172275024Y-109045676D02*
X172370262Y-108950438D01*
X172370262Y-108950438D02*
X172513119Y-108902819D01*
X172513119Y-108902819D02*
X172608357Y-108902819D01*
X172608357Y-108902819D02*
X172751214Y-108950438D01*
X172751214Y-108950438D02*
X172798833Y-108998057D01*
X173703595Y-108902819D02*
X173227405Y-108902819D01*
X173227405Y-108902819D02*
X173179786Y-109379009D01*
X173179786Y-109379009D02*
X173227405Y-109331390D01*
X173227405Y-109331390D02*
X173322643Y-109283771D01*
X173322643Y-109283771D02*
X173560738Y-109283771D01*
X173560738Y-109283771D02*
X173655976Y-109331390D01*
X173655976Y-109331390D02*
X173703595Y-109379009D01*
X173703595Y-109379009D02*
X173751214Y-109474247D01*
X173751214Y-109474247D02*
X173751214Y-109712342D01*
X173751214Y-109712342D02*
X173703595Y-109807580D01*
X173703595Y-109807580D02*
X173655976Y-109855200D01*
X173655976Y-109855200D02*
X173560738Y-109902819D01*
X173560738Y-109902819D02*
X173322643Y-109902819D01*
X173322643Y-109902819D02*
X173227405Y-109855200D01*
X173227405Y-109855200D02*
X173179786Y-109807580D01*
X160099580Y-95451666D02*
X160147200Y-95499285D01*
X160147200Y-95499285D02*
X160194819Y-95642142D01*
X160194819Y-95642142D02*
X160194819Y-95737380D01*
X160194819Y-95737380D02*
X160147200Y-95880237D01*
X160147200Y-95880237D02*
X160051961Y-95975475D01*
X160051961Y-95975475D02*
X159956723Y-96023094D01*
X159956723Y-96023094D02*
X159766247Y-96070713D01*
X159766247Y-96070713D02*
X159623390Y-96070713D01*
X159623390Y-96070713D02*
X159432914Y-96023094D01*
X159432914Y-96023094D02*
X159337676Y-95975475D01*
X159337676Y-95975475D02*
X159242438Y-95880237D01*
X159242438Y-95880237D02*
X159194819Y-95737380D01*
X159194819Y-95737380D02*
X159194819Y-95642142D01*
X159194819Y-95642142D02*
X159242438Y-95499285D01*
X159242438Y-95499285D02*
X159290057Y-95451666D01*
X159528152Y-94594523D02*
X160194819Y-94594523D01*
X159147200Y-94832618D02*
X159861485Y-95070713D01*
X159861485Y-95070713D02*
X159861485Y-94451666D01*
X150658333Y-108909580D02*
X150610714Y-108957200D01*
X150610714Y-108957200D02*
X150467857Y-109004819D01*
X150467857Y-109004819D02*
X150372619Y-109004819D01*
X150372619Y-109004819D02*
X150229762Y-108957200D01*
X150229762Y-108957200D02*
X150134524Y-108861961D01*
X150134524Y-108861961D02*
X150086905Y-108766723D01*
X150086905Y-108766723D02*
X150039286Y-108576247D01*
X150039286Y-108576247D02*
X150039286Y-108433390D01*
X150039286Y-108433390D02*
X150086905Y-108242914D01*
X150086905Y-108242914D02*
X150134524Y-108147676D01*
X150134524Y-108147676D02*
X150229762Y-108052438D01*
X150229762Y-108052438D02*
X150372619Y-108004819D01*
X150372619Y-108004819D02*
X150467857Y-108004819D01*
X150467857Y-108004819D02*
X150610714Y-108052438D01*
X150610714Y-108052438D02*
X150658333Y-108100057D01*
X151039286Y-108100057D02*
X151086905Y-108052438D01*
X151086905Y-108052438D02*
X151182143Y-108004819D01*
X151182143Y-108004819D02*
X151420238Y-108004819D01*
X151420238Y-108004819D02*
X151515476Y-108052438D01*
X151515476Y-108052438D02*
X151563095Y-108100057D01*
X151563095Y-108100057D02*
X151610714Y-108195295D01*
X151610714Y-108195295D02*
X151610714Y-108290533D01*
X151610714Y-108290533D02*
X151563095Y-108433390D01*
X151563095Y-108433390D02*
X150991667Y-109004819D01*
X150991667Y-109004819D02*
X151610714Y-109004819D01*
D15*
%TO.C,R18*%
X148600936Y-92473000D02*
X149055064Y-92473000D01*
X148600936Y-91003000D02*
X149055064Y-91003000D01*
%TO.C,R12*%
X143925500Y-100247564D02*
X143925500Y-99793436D01*
X145395500Y-100247564D02*
X145395500Y-99793436D01*
%TO.C,R8*%
X141555000Y-102740436D02*
X141555000Y-103194564D01*
X143025000Y-102740436D02*
X143025000Y-103194564D01*
%TO.C,R4*%
X142784564Y-105975000D02*
X142330436Y-105975000D01*
X142784564Y-107445000D02*
X142330436Y-107445000D01*
%TO.C,R14*%
X145190500Y-89470436D02*
X145190500Y-89924564D01*
X146660500Y-89470436D02*
X146660500Y-89924564D01*
D12*
%TO.C,U1*%
X145320500Y-97508000D02*
G75*
G02*
X145120500Y-97508000I-100000J0D01*
G01*
X145120500Y-97508000D02*
G75*
G02*
X145320500Y-97508000I100000J0D01*
G01*
D16*
X157660500Y-106258000D02*
X156870500Y-106258000D01*
X157660500Y-96258000D02*
X156870500Y-96258000D01*
X147660500Y-106258000D02*
X148450500Y-106258000D01*
X147660500Y-96258000D02*
X148450500Y-96258000D01*
X157660500Y-106258000D02*
X157660500Y-105468000D01*
X157660500Y-96258000D02*
X157660500Y-97048000D01*
X147660500Y-106258000D02*
X147660500Y-105468000D01*
X147660500Y-96258000D02*
X147660500Y-97048000D01*
%TO.C,U2*%
X165100000Y-108100000D02*
X182900000Y-108100000D01*
X182900000Y-108100000D02*
X182900000Y-106570000D01*
X165100000Y-106570000D02*
X165100000Y-108100000D01*
X169500000Y-85676000D02*
X178495000Y-85676000D01*
D12*
X163871000Y-89709000D02*
G75*
G02*
X163671000Y-89709000I-100000J0D01*
G01*
X163671000Y-89709000D02*
G75*
G02*
X163871000Y-89709000I100000J0D01*
G01*
D16*
X165100000Y-88600000D02*
X165100000Y-87100000D01*
X165100000Y-87100000D02*
X169500000Y-87100000D01*
X169500000Y-87100000D02*
X169500000Y-85700000D01*
X178500000Y-85700000D02*
X178500000Y-87100000D01*
X178500000Y-87100000D02*
X182900000Y-87100000D01*
X182900000Y-87100000D02*
X182900000Y-88600000D01*
D15*
%TO.C,SW1*%
X184420000Y-117400000D02*
X180280000Y-117400000D01*
X184420000Y-117100000D02*
X184420000Y-117400000D01*
X184420000Y-114260000D02*
X184420000Y-114560000D01*
X180280000Y-117400000D02*
X180280000Y-117100000D01*
X180280000Y-114560000D02*
X180280000Y-114260000D01*
X180280000Y-114260000D02*
X184420000Y-114260000D01*
%TO.C,R2*%
X141150936Y-89893000D02*
X141605064Y-89893000D01*
X141150936Y-91363000D02*
X141605064Y-91363000D01*
%TO.C,R3*%
X152455436Y-92205000D02*
X152909564Y-92205000D01*
X152455436Y-93675000D02*
X152909564Y-93675000D01*
%TO.C,R21*%
X136125436Y-97705000D02*
X136579564Y-97705000D01*
X136125436Y-99175000D02*
X136579564Y-99175000D01*
%TO.C,R20*%
X143960936Y-92783000D02*
X144415064Y-92783000D01*
X143960936Y-94253000D02*
X144415064Y-94253000D01*
%TO.C,R19*%
X136125436Y-100445000D02*
X136579564Y-100445000D01*
X136125436Y-101915000D02*
X136579564Y-101915000D01*
%TO.C,R17*%
X136125436Y-102625000D02*
X136579564Y-102625000D01*
X136125436Y-104095000D02*
X136579564Y-104095000D01*
%TO.C,R16*%
X142715000Y-96075436D02*
X142715000Y-96529564D01*
X141245000Y-96075436D02*
X141245000Y-96529564D01*
%TO.C,R15*%
X136579564Y-107215000D02*
X136125436Y-107215000D01*
X136579564Y-105745000D02*
X136125436Y-105745000D01*
%TO.C,R13*%
X136125436Y-107865000D02*
X136579564Y-107865000D01*
X136125436Y-109335000D02*
X136579564Y-109335000D01*
%TO.C,R11*%
X136125436Y-110495000D02*
X136579564Y-110495000D01*
X136125436Y-111965000D02*
X136579564Y-111965000D01*
%TO.C,R10*%
X136125436Y-95255000D02*
X136579564Y-95255000D01*
X136125436Y-96725000D02*
X136579564Y-96725000D01*
%TO.C,R9*%
X136125436Y-113115000D02*
X136579564Y-113115000D01*
X136125436Y-114585000D02*
X136579564Y-114585000D01*
%TO.C,R7*%
X136125436Y-115465000D02*
X136579564Y-115465000D01*
X136125436Y-116935000D02*
X136579564Y-116935000D01*
%TO.C,R6*%
X186090436Y-94015000D02*
X186544564Y-94015000D01*
X186090436Y-95485000D02*
X186544564Y-95485000D01*
%TO.C,R5*%
X162115500Y-99495064D02*
X162115500Y-99040936D01*
X163585500Y-99495064D02*
X163585500Y-99040936D01*
%TO.C,R1*%
X163085500Y-103960936D02*
X163085500Y-104415064D01*
X161615500Y-103960936D02*
X161615500Y-104415064D01*
%TO.C,J1*%
X129380000Y-117390000D02*
X128110000Y-117390000D01*
X129380000Y-116120000D02*
X129380000Y-117390000D01*
X127032642Y-114010000D02*
X126720000Y-114010000D01*
X127032642Y-113150000D02*
X126720000Y-113150000D01*
X127032642Y-111470000D02*
X126720000Y-111470000D01*
X127032642Y-110610000D02*
X126720000Y-110610000D01*
X127032642Y-108930000D02*
X126720000Y-108930000D01*
X127032642Y-108070000D02*
X126720000Y-108070000D01*
X127032642Y-106390000D02*
X126720000Y-106390000D01*
X127032642Y-105530000D02*
X126720000Y-105530000D01*
X127032642Y-103850000D02*
X126720000Y-103850000D01*
X127032642Y-102990000D02*
X126720000Y-102990000D01*
X127032642Y-101310000D02*
X126720000Y-101310000D01*
X127032642Y-100450000D02*
X126720000Y-100450000D01*
X127032642Y-98770000D02*
X126720000Y-98770000D01*
X127032642Y-97910000D02*
X126720000Y-97910000D01*
X127032642Y-96230000D02*
X126720000Y-96230000D01*
X127032642Y-95370000D02*
X126720000Y-95370000D01*
X127032642Y-93690000D02*
X126720000Y-93690000D01*
X127032642Y-92830000D02*
X126720000Y-92830000D01*
X127032642Y-91150000D02*
X126720000Y-91150000D01*
X127032642Y-90290000D02*
X126720000Y-90290000D01*
X127032642Y-88610000D02*
X126720000Y-88610000D01*
X127032642Y-87750000D02*
X126720000Y-87750000D01*
X126950000Y-116550000D02*
X126720000Y-116550000D01*
X126950000Y-115690000D02*
X126720000Y-115690000D01*
X126720000Y-114850000D02*
X123960000Y-114850000D01*
X126720000Y-112310000D02*
X123960000Y-112310000D01*
X126720000Y-109770000D02*
X123960000Y-109770000D01*
X126720000Y-107230000D02*
X123960000Y-107230000D01*
X126720000Y-104690000D02*
X123960000Y-104690000D01*
X126720000Y-102150000D02*
X123960000Y-102150000D01*
X126720000Y-99610000D02*
X123960000Y-99610000D01*
X126720000Y-97070000D02*
X123960000Y-97070000D01*
X126720000Y-94530000D02*
X123960000Y-94530000D01*
X126720000Y-91990000D02*
X123960000Y-91990000D01*
X126720000Y-89450000D02*
X123960000Y-89450000D01*
X123960000Y-114010000D02*
X117960000Y-114010000D01*
X123960000Y-111470000D02*
X117960000Y-111470000D01*
X123960000Y-108930000D02*
X117960000Y-108930000D01*
X123960000Y-106390000D02*
X117960000Y-106390000D01*
X123960000Y-103850000D02*
X117960000Y-103850000D01*
X123960000Y-101310000D02*
X117960000Y-101310000D01*
X123960000Y-98770000D02*
X117960000Y-98770000D01*
X123960000Y-96230000D02*
X117960000Y-96230000D01*
X123960000Y-93690000D02*
X117960000Y-93690000D01*
X123960000Y-91150000D02*
X117960000Y-91150000D01*
X123960000Y-88610000D02*
X117960000Y-88610000D01*
X117960000Y-114010000D02*
X117960000Y-113150000D01*
X117960000Y-113150000D02*
X123960000Y-113150000D01*
X117960000Y-111470000D02*
X117960000Y-110610000D01*
X117960000Y-110610000D02*
X123960000Y-110610000D01*
X117960000Y-108930000D02*
X117960000Y-108070000D01*
X117960000Y-108070000D02*
X123960000Y-108070000D01*
X117960000Y-106390000D02*
X117960000Y-105530000D01*
X117960000Y-105530000D02*
X123960000Y-105530000D01*
X117960000Y-103850000D02*
X117960000Y-102990000D01*
X117960000Y-102990000D02*
X123960000Y-102990000D01*
X117960000Y-101310000D02*
X117960000Y-100450000D01*
X117960000Y-100450000D02*
X123960000Y-100450000D01*
X117960000Y-98770000D02*
X117960000Y-97910000D01*
X117960000Y-97910000D02*
X123960000Y-97910000D01*
X117960000Y-96230000D02*
X117960000Y-95370000D01*
X117960000Y-95370000D02*
X123960000Y-95370000D01*
X117960000Y-93690000D02*
X117960000Y-92830000D01*
X117960000Y-92830000D02*
X123960000Y-92830000D01*
X117960000Y-91150000D02*
X117960000Y-90290000D01*
X117960000Y-90290000D02*
X123960000Y-90290000D01*
X117960000Y-88610000D02*
X117960000Y-87750000D01*
X117960000Y-87750000D02*
X123960000Y-87750000D01*
X126720000Y-117500000D02*
X123960000Y-117500000D01*
X123960000Y-86800000D01*
X126720000Y-86800000D01*
X126720000Y-117500000D01*
X123960000Y-116550000D02*
X117960000Y-116550000D01*
X117960000Y-115690000D01*
X123960000Y-115690000D01*
X123960000Y-116550000D01*
G36*
X123960000Y-116550000D02*
G01*
X117960000Y-116550000D01*
X117960000Y-115690000D01*
X123960000Y-115690000D01*
X123960000Y-116550000D01*
G37*
%TO.C,FB1*%
X185235500Y-102832564D02*
X185235500Y-102378436D01*
X186705500Y-102832564D02*
X186705500Y-102378436D01*
%TO.C,D1*%
X159398000Y-89658000D02*
X159398000Y-91578000D01*
X159398000Y-91578000D02*
X162083000Y-91578000D01*
X162083000Y-89658000D02*
X159398000Y-89658000D01*
%TO.C,D2*%
X184465500Y-89378000D02*
X184465500Y-91298000D01*
X184465500Y-91298000D02*
X187150500Y-91298000D01*
X187150500Y-89378000D02*
X184465500Y-89378000D01*
%TO.C,C7*%
X158524420Y-92790000D02*
X158805580Y-92790000D01*
X158524420Y-93810000D02*
X158805580Y-93810000D01*
%TO.C,C12*%
X143200000Y-112006252D02*
X143200000Y-110583748D01*
X145020000Y-112006252D02*
X145020000Y-110583748D01*
%TO.C,C10*%
X154973748Y-89600000D02*
X156396252Y-89600000D01*
X154973748Y-91420000D02*
X156396252Y-91420000D01*
%TO.C,C11*%
X159543748Y-114210000D02*
X160966252Y-114210000D01*
X159543748Y-116030000D02*
X160966252Y-116030000D01*
%TO.C,C13*%
X160353748Y-108850000D02*
X161776252Y-108850000D01*
X160353748Y-110670000D02*
X161776252Y-110670000D01*
%TO.C,C8*%
X154204420Y-115570000D02*
X154485580Y-115570000D01*
X154204420Y-116590000D02*
X154485580Y-116590000D01*
%TO.C,C9*%
X154284420Y-111820000D02*
X154565580Y-111820000D01*
X154284420Y-112840000D02*
X154565580Y-112840000D01*
%TO.C,C1*%
X148253748Y-113410000D02*
X149676252Y-113410000D01*
X148253748Y-115230000D02*
X149676252Y-115230000D01*
%TO.C,C3*%
X185840000Y-99321252D02*
X185840000Y-97898748D01*
X187660000Y-99321252D02*
X187660000Y-97898748D01*
%TO.C,C6*%
X184824920Y-110098000D02*
X185106080Y-110098000D01*
X184824920Y-111118000D02*
X185106080Y-111118000D01*
%TO.C,C5*%
X172824920Y-110368000D02*
X173106080Y-110368000D01*
X172824920Y-111388000D02*
X173106080Y-111388000D01*
%TO.C,C4*%
X160660000Y-95425580D02*
X160660000Y-95144420D01*
X161680000Y-95425580D02*
X161680000Y-95144420D01*
%TO.C,C2*%
X150684420Y-109470000D02*
X150965580Y-109470000D01*
X150684420Y-110490000D02*
X150965580Y-110490000D01*
D17*
%TO.C,G1*%
G36*
X176529782Y-96185143D02*
G01*
X176708573Y-96186395D01*
X176838210Y-96189194D01*
X176926149Y-96194122D01*
X176979841Y-96201760D01*
X177006741Y-96212692D01*
X177014302Y-96227499D01*
X177011949Y-96240908D01*
X176954657Y-96453992D01*
X176896009Y-96722531D01*
X176837123Y-97037967D01*
X176779123Y-97391743D01*
X176723128Y-97775300D01*
X176670261Y-98180082D01*
X176621640Y-98597531D01*
X176578389Y-99019088D01*
X176541627Y-99436197D01*
X176512476Y-99840299D01*
X176492897Y-100203346D01*
X176470549Y-100714523D01*
X176678511Y-100506561D01*
X176915821Y-100305004D01*
X177174513Y-100156366D01*
X177461082Y-100058342D01*
X177782022Y-100008629D01*
X178097919Y-100003010D01*
X178308925Y-100016773D01*
X178472340Y-100045153D01*
X178604033Y-100093985D01*
X178719869Y-100169106D01*
X178832809Y-100273355D01*
X178964687Y-100439989D01*
X179062063Y-100636104D01*
X179126697Y-100868488D01*
X179160350Y-101143933D01*
X179164783Y-101469229D01*
X179162209Y-101543513D01*
X179116351Y-101988307D01*
X179016557Y-102455839D01*
X178865410Y-102938693D01*
X178665493Y-103429455D01*
X178419392Y-103920710D01*
X178207909Y-104282049D01*
X178065889Y-104510109D01*
X177337200Y-104511416D01*
X177128864Y-104511195D01*
X176943754Y-104509860D01*
X176790859Y-104507569D01*
X176679171Y-104504482D01*
X176617680Y-104500758D01*
X176608512Y-104498529D01*
X176624935Y-104467605D01*
X176669473Y-104394591D01*
X176735025Y-104290912D01*
X176802597Y-104186234D01*
X176916943Y-103998682D01*
X177044667Y-103769246D01*
X177178341Y-103513107D01*
X177310537Y-103245444D01*
X177433829Y-102981438D01*
X177540789Y-102736269D01*
X177623988Y-102525116D01*
X177645875Y-102462787D01*
X177743454Y-102136922D01*
X177800316Y-101859480D01*
X177816501Y-101629457D01*
X177792048Y-101445855D01*
X177726999Y-101307670D01*
X177693708Y-101268906D01*
X177638643Y-101218541D01*
X177587246Y-101191636D01*
X177518375Y-101182637D01*
X177410889Y-101185988D01*
X177384157Y-101187575D01*
X177149112Y-101227095D01*
X176950041Y-101316834D01*
X176782007Y-101460108D01*
X176640074Y-101660233D01*
X176616606Y-101703138D01*
X176571814Y-101796578D01*
X176545679Y-101881090D01*
X176533759Y-101979705D01*
X176531613Y-102115455D01*
X176531884Y-102142484D01*
X176547031Y-102389205D01*
X176586307Y-102684826D01*
X176648352Y-103019478D01*
X176661195Y-103080142D01*
X176680336Y-103168998D01*
X176123932Y-103160218D01*
X175567528Y-103151437D01*
X175511675Y-102927728D01*
X175453847Y-102670372D01*
X175405284Y-102395669D01*
X175365486Y-102097130D01*
X175333952Y-101768263D01*
X175310180Y-101402579D01*
X175293669Y-100993588D01*
X175283919Y-100534798D01*
X175280427Y-100019720D01*
X175280416Y-99932396D01*
X175283659Y-99391281D01*
X175293128Y-98902371D01*
X175309598Y-98454043D01*
X175333845Y-98034674D01*
X175366645Y-97632642D01*
X175408772Y-97236322D01*
X175461003Y-96834092D01*
X175508574Y-96513165D01*
X175559550Y-96184855D01*
X176294386Y-96184855D01*
X176529782Y-96185143D01*
G37*
G36*
X169815628Y-100004464D02*
G01*
X169765832Y-100157309D01*
X169718159Y-100317315D01*
X169681914Y-100453054D01*
X169678244Y-100468496D01*
X169631785Y-100668278D01*
X169780993Y-100519046D01*
X170043363Y-100301084D01*
X170339880Y-100136067D01*
X170462334Y-100087373D01*
X170556901Y-100056872D01*
X170649377Y-100036027D01*
X170755488Y-100023060D01*
X170890961Y-100016191D01*
X171071522Y-100013641D01*
X171115321Y-100013491D01*
X171294256Y-100013612D01*
X171422963Y-100016317D01*
X171515273Y-100023694D01*
X171585017Y-100037830D01*
X171646027Y-100060813D01*
X171712134Y-100094732D01*
X171734260Y-100106927D01*
X171927184Y-100247828D01*
X172081116Y-100436809D01*
X172139975Y-100540971D01*
X172178187Y-100614992D01*
X172202906Y-100659590D01*
X172205755Y-100663753D01*
X172230882Y-100647780D01*
X172289721Y-100595931D01*
X172371205Y-100518139D01*
X172402059Y-100487587D01*
X172640763Y-100289851D01*
X172910294Y-100144144D01*
X173213803Y-100049376D01*
X173554439Y-100004455D01*
X173805864Y-100001730D01*
X173965936Y-100008114D01*
X174079699Y-100017877D01*
X174164900Y-100034733D01*
X174239289Y-100062396D01*
X174320617Y-100104578D01*
X174334363Y-100112303D01*
X174523585Y-100255819D01*
X174676633Y-100451871D01*
X174789993Y-100691550D01*
X174836731Y-100872278D01*
X174865884Y-101099041D01*
X174877155Y-101356192D01*
X174870249Y-101628085D01*
X174844871Y-101899072D01*
X174816178Y-102078696D01*
X174737217Y-102418894D01*
X174628448Y-102782603D01*
X174498791Y-103142302D01*
X174382808Y-103415687D01*
X174261388Y-103679937D01*
X173545164Y-103679937D01*
X173338703Y-103679445D01*
X173155546Y-103678068D01*
X173004762Y-103675952D01*
X172895418Y-103673242D01*
X172836584Y-103670085D01*
X172828940Y-103668404D01*
X172842081Y-103637043D01*
X172878268Y-103558371D01*
X172932652Y-103442745D01*
X173000382Y-103300521D01*
X173035728Y-103226849D01*
X173208160Y-102845556D01*
X173343735Y-102496574D01*
X173441942Y-102182595D01*
X173502274Y-101906315D01*
X173524220Y-101670426D01*
X173507271Y-101477622D01*
X173450919Y-101330597D01*
X173405206Y-101272459D01*
X173291960Y-101201972D01*
X173147530Y-101175790D01*
X172984245Y-101191204D01*
X172814432Y-101245507D01*
X172650421Y-101335989D01*
X172504541Y-101459943D01*
X172492399Y-101473003D01*
X172403630Y-101582450D01*
X172335605Y-101698637D01*
X172281761Y-101837256D01*
X172235533Y-102013999D01*
X172206558Y-102156227D01*
X172120002Y-102523365D01*
X171996274Y-102916650D01*
X171841988Y-103315472D01*
X171812620Y-103383657D01*
X171668984Y-103711967D01*
X170937163Y-103711967D01*
X170205342Y-103711967D01*
X170394368Y-103335611D01*
X170571024Y-102962272D01*
X170714342Y-102613472D01*
X170823219Y-102293500D01*
X170896552Y-102006643D01*
X170933235Y-101757190D01*
X170932166Y-101549428D01*
X170894493Y-101392930D01*
X170826235Y-101280214D01*
X170728705Y-101212770D01*
X170590357Y-101184028D01*
X170523642Y-101181889D01*
X170305940Y-101212925D01*
X170106132Y-101301456D01*
X169931481Y-101441805D01*
X169789250Y-101628293D01*
X169695561Y-101829192D01*
X169648366Y-101996911D01*
X169627537Y-102168109D01*
X169633220Y-102357505D01*
X169665565Y-102579822D01*
X169704972Y-102766490D01*
X169737420Y-102909302D01*
X169763687Y-103028849D01*
X169780840Y-103111512D01*
X169786065Y-103142845D01*
X169755774Y-103150938D01*
X169671850Y-103157912D01*
X169544717Y-103163292D01*
X169384801Y-103166606D01*
X169244125Y-103167452D01*
X168702185Y-103167452D01*
X168652928Y-103015309D01*
X168605426Y-102854945D01*
X168551578Y-102651043D01*
X168496098Y-102423164D01*
X168443697Y-102190868D01*
X168399089Y-101973716D01*
X168388633Y-101918272D01*
X168360199Y-101711652D01*
X168340625Y-101460079D01*
X168329919Y-101180544D01*
X168328088Y-100890037D01*
X168335142Y-100605547D01*
X168351089Y-100344066D01*
X168375937Y-100122582D01*
X168387702Y-100052509D01*
X168446715Y-99740214D01*
X169176635Y-99740214D01*
X169906555Y-99740214D01*
X169815628Y-100004464D01*
G37*
%TO.C,G4*%
G36*
X175317443Y-114504057D02*
G01*
X175334333Y-114535634D01*
X175348160Y-114573179D01*
X175344251Y-114603117D01*
X175316753Y-114637983D01*
X175263746Y-114686827D01*
X175207763Y-114734343D01*
X175165391Y-114766342D01*
X175149072Y-114774963D01*
X175132495Y-114755757D01*
X175106013Y-114706279D01*
X175085029Y-114659727D01*
X175036343Y-114544491D01*
X175097616Y-114520797D01*
X175166858Y-114499291D01*
X175232246Y-114484841D01*
X175286374Y-114481938D01*
X175317443Y-114504057D01*
G37*
G36*
X169273567Y-114316879D02*
G01*
X169280565Y-114374565D01*
X169280997Y-114460077D01*
X169274671Y-114564719D01*
X169267640Y-114632330D01*
X169255623Y-114704813D01*
X169234360Y-114741691D01*
X169192593Y-114750514D01*
X169119064Y-114738833D01*
X169111269Y-114737195D01*
X169044761Y-114723615D01*
X169003807Y-114711263D01*
X168988044Y-114692349D01*
X168997105Y-114659083D01*
X169030628Y-114603674D01*
X169088246Y-114518332D01*
X169100193Y-114500610D01*
X169158201Y-114417220D01*
X169208522Y-114350178D01*
X169245034Y-114307322D01*
X169260195Y-114295718D01*
X169273567Y-114316879D01*
G37*
G36*
X175432487Y-114893469D02*
G01*
X175481116Y-114912730D01*
X175485231Y-114916454D01*
X175506521Y-114962597D01*
X175511376Y-115025394D01*
X175498217Y-115078340D01*
X175495151Y-115083049D01*
X175455697Y-115120929D01*
X175397661Y-115159729D01*
X175333668Y-115193183D01*
X175276340Y-115215024D01*
X175238299Y-115218985D01*
X175231256Y-115214067D01*
X175220492Y-115182016D01*
X175207234Y-115125812D01*
X175205510Y-115117281D01*
X175191477Y-115051088D01*
X175178936Y-114999221D01*
X175178321Y-114997009D01*
X175188476Y-114960717D01*
X175231614Y-114928898D01*
X175295091Y-114904871D01*
X175366264Y-114891955D01*
X175432487Y-114893469D01*
G37*
G36*
X168092037Y-112935452D02*
G01*
X168426809Y-112962067D01*
X168772708Y-113015215D01*
X169133311Y-113095811D01*
X169512191Y-113204769D01*
X169912924Y-113343004D01*
X170339084Y-113511432D01*
X170788627Y-113708398D01*
X170939884Y-113775324D01*
X171102514Y-113843560D01*
X171262253Y-113907362D01*
X171404837Y-113960988D01*
X171484674Y-113988694D01*
X171935144Y-114113462D01*
X172401617Y-114196910D01*
X172881323Y-114239324D01*
X173371493Y-114240986D01*
X173869354Y-114202179D01*
X174372136Y-114123188D01*
X174877069Y-114004296D01*
X175381381Y-113845786D01*
X175882303Y-113647942D01*
X176185842Y-113507660D01*
X176309842Y-113446521D01*
X176428107Y-113387155D01*
X176530729Y-113334612D01*
X176607798Y-113293941D01*
X176636539Y-113277981D01*
X176699114Y-113246402D01*
X176745834Y-113231083D01*
X176762056Y-113232672D01*
X176756870Y-113256926D01*
X176733045Y-113315682D01*
X176693290Y-113403101D01*
X176640314Y-113513342D01*
X176576826Y-113640568D01*
X176533866Y-113724465D01*
X176464501Y-113859230D01*
X176402740Y-113980326D01*
X176351507Y-114081934D01*
X176313723Y-114158229D01*
X176292311Y-114203392D01*
X176288538Y-114213155D01*
X176310318Y-114217089D01*
X176371495Y-114220601D01*
X176465826Y-114223528D01*
X176587066Y-114225710D01*
X176728971Y-114226986D01*
X176834900Y-114227254D01*
X176995821Y-114228110D01*
X177137106Y-114230532D01*
X177253021Y-114234303D01*
X177337831Y-114239207D01*
X177385804Y-114245025D01*
X177394355Y-114248439D01*
X177382220Y-114271009D01*
X177336588Y-114320308D01*
X177259515Y-114394445D01*
X177153057Y-114491527D01*
X177019270Y-114609663D01*
X176860212Y-114746962D01*
X176756372Y-114835321D01*
X176587303Y-114973217D01*
X176388749Y-115126376D01*
X176169628Y-115288550D01*
X175938858Y-115453489D01*
X175705357Y-115614944D01*
X175478043Y-115766664D01*
X175265834Y-115902401D01*
X175077647Y-116015905D01*
X175044782Y-116034760D01*
X174638486Y-116250340D01*
X174243558Y-116429335D01*
X173862477Y-116570829D01*
X173497723Y-116673909D01*
X173151778Y-116737658D01*
X173132373Y-116740126D01*
X173011122Y-116749921D01*
X172853175Y-116754671D01*
X172667175Y-116754610D01*
X172461763Y-116749972D01*
X172245581Y-116740990D01*
X172027269Y-116727899D01*
X171815469Y-116710930D01*
X171724297Y-116702062D01*
X171455203Y-116671116D01*
X171192914Y-116634066D01*
X170930678Y-116589442D01*
X170661740Y-116535773D01*
X170379350Y-116471588D01*
X170076753Y-116395418D01*
X169747197Y-116305791D01*
X169383928Y-116201237D01*
X169271017Y-116167828D01*
X168869677Y-116049779D01*
X168507888Y-115946373D01*
X168337052Y-115899423D01*
X170541326Y-115899423D01*
X170553961Y-115937896D01*
X170583502Y-115961808D01*
X170646377Y-115971296D01*
X170719224Y-115943819D01*
X170795857Y-115885100D01*
X170870090Y-115800861D01*
X170935741Y-115696824D01*
X170981434Y-115593627D01*
X171010485Y-115524948D01*
X171038744Y-115491170D01*
X171073007Y-115482420D01*
X171094698Y-115485414D01*
X171111695Y-115499163D01*
X171126604Y-115530821D01*
X171142029Y-115587541D01*
X171160577Y-115676474D01*
X171178997Y-115773391D01*
X171205625Y-115906525D01*
X171229192Y-116001633D01*
X171251936Y-116066025D01*
X171276096Y-116107010D01*
X171283833Y-116115709D01*
X171350468Y-116158369D01*
X171420264Y-116161772D01*
X171481062Y-116125393D01*
X171482113Y-116124245D01*
X171519096Y-116062488D01*
X171532348Y-115980979D01*
X171521927Y-115873367D01*
X171487893Y-115733297D01*
X171485798Y-115726097D01*
X171453903Y-115624302D01*
X171424445Y-115540404D01*
X172319439Y-115540404D01*
X172332215Y-115709369D01*
X172363445Y-115864373D01*
X172408872Y-115983925D01*
X172488317Y-116095430D01*
X172590509Y-116171919D01*
X172708245Y-116210416D01*
X172834323Y-116207949D01*
X172903808Y-116188357D01*
X172989324Y-116140856D01*
X173047998Y-116077653D01*
X173070716Y-116008699D01*
X173070748Y-116006124D01*
X173061554Y-115947276D01*
X173029563Y-115916733D01*
X172968163Y-115911364D01*
X172894762Y-115922813D01*
X172796135Y-115934101D01*
X172721758Y-115917046D01*
X172661772Y-115866274D01*
X172606316Y-115776412D01*
X172598933Y-115761592D01*
X172562255Y-115673479D01*
X172543434Y-115586984D01*
X172537577Y-115479237D01*
X172537546Y-115474629D01*
X172545800Y-115338911D01*
X172573801Y-115239456D01*
X172623780Y-115170377D01*
X172663644Y-115141951D01*
X172708150Y-115121953D01*
X172746954Y-115124073D01*
X172801846Y-115149632D01*
X172803297Y-115150412D01*
X172879832Y-115178270D01*
X172931541Y-115170034D01*
X172955068Y-115129886D01*
X172947056Y-115062011D01*
X172922024Y-115002428D01*
X172897378Y-114971084D01*
X173187442Y-114971084D01*
X173189236Y-115048925D01*
X173198851Y-115154969D01*
X173216280Y-115295872D01*
X173228427Y-115385117D01*
X173246181Y-115516435D01*
X173263052Y-115647162D01*
X173277224Y-115762857D01*
X173286884Y-115849076D01*
X173287453Y-115854730D01*
X173297491Y-115931020D01*
X173314100Y-115986382D01*
X173343033Y-116022257D01*
X173390043Y-116040087D01*
X173460879Y-116041313D01*
X173561296Y-116027376D01*
X173697044Y-115999716D01*
X173786395Y-115979733D01*
X173921110Y-115942585D01*
X174012488Y-115901565D01*
X174062760Y-115855390D01*
X174074881Y-115813763D01*
X174054426Y-115781175D01*
X173998180Y-115763676D01*
X173913819Y-115762435D01*
X173823607Y-115775474D01*
X173732088Y-115790779D01*
X173641463Y-115800326D01*
X173601784Y-115801917D01*
X173507984Y-115801917D01*
X173495062Y-115647874D01*
X173472783Y-115411398D01*
X173448989Y-115217892D01*
X173423105Y-115064694D01*
X173394559Y-114949143D01*
X173362774Y-114868575D01*
X173346813Y-114846942D01*
X173922017Y-114846942D01*
X173923255Y-114856668D01*
X173940582Y-114949124D01*
X173969015Y-115064839D01*
X174004778Y-115191473D01*
X174044095Y-115316685D01*
X174083188Y-115428136D01*
X174118281Y-115513483D01*
X174133135Y-115542490D01*
X174208734Y-115632271D01*
X174309868Y-115695923D01*
X174424348Y-115729281D01*
X174539984Y-115728180D01*
X174611936Y-115706135D01*
X174684464Y-115648644D01*
X174736154Y-115554259D01*
X174766167Y-115427113D01*
X174773662Y-115271339D01*
X174757802Y-115091070D01*
X174748476Y-115033459D01*
X174712001Y-114858274D01*
X174672169Y-114726489D01*
X174627941Y-114635921D01*
X174578274Y-114584387D01*
X174527279Y-114569572D01*
X174484055Y-114581844D01*
X174458984Y-114621329D01*
X174451559Y-114692033D01*
X174461273Y-114797963D01*
X174482912Y-114920114D01*
X174510386Y-115080125D01*
X174526239Y-115225349D01*
X174530128Y-115348006D01*
X174521713Y-115440314D01*
X174507681Y-115483921D01*
X174466367Y-115518656D01*
X174406374Y-115526857D01*
X174355326Y-115509798D01*
X174328314Y-115479780D01*
X174299099Y-115420579D01*
X174266224Y-115328148D01*
X174228230Y-115198439D01*
X174188584Y-115047002D01*
X174150658Y-114905858D01*
X174117201Y-114804403D01*
X174085502Y-114737250D01*
X174052849Y-114699015D01*
X174016532Y-114684312D01*
X174005675Y-114683678D01*
X173951464Y-114702411D01*
X173923296Y-114757424D01*
X173922017Y-114846942D01*
X173346813Y-114846942D01*
X173327179Y-114820330D01*
X173314646Y-114811136D01*
X173278639Y-114800407D01*
X173244417Y-114822700D01*
X173229067Y-114840250D01*
X173207349Y-114873400D01*
X173193477Y-114914793D01*
X173187442Y-114971084D01*
X172897378Y-114971084D01*
X172859335Y-114922703D01*
X172777967Y-114878775D01*
X172685850Y-114869356D01*
X172590918Y-114893163D01*
X172501101Y-114948909D01*
X172424332Y-115035309D01*
X172394112Y-115087977D01*
X172350160Y-115215886D01*
X172325345Y-115371302D01*
X172319439Y-115540404D01*
X171424445Y-115540404D01*
X171420309Y-115528626D01*
X171390821Y-115455281D01*
X171382752Y-115438293D01*
X171338639Y-115351826D01*
X171409032Y-115285901D01*
X171485316Y-115206175D01*
X171557335Y-115116407D01*
X171618161Y-115026873D01*
X171660868Y-114947851D01*
X171678530Y-114889617D01*
X171678654Y-114885842D01*
X171665832Y-114824405D01*
X171627613Y-114800514D01*
X171564367Y-114814044D01*
X171476466Y-114864867D01*
X171364282Y-114952858D01*
X171292037Y-115017352D01*
X171224101Y-115077591D01*
X171172624Y-115118246D01*
X171143526Y-115134976D01*
X171140148Y-115128692D01*
X171149011Y-115087009D01*
X171158238Y-115012100D01*
X171166468Y-114916349D01*
X171170337Y-114854455D01*
X171175392Y-114749909D01*
X171175875Y-114679826D01*
X171169957Y-114633110D01*
X171155812Y-114598664D01*
X171131609Y-114565391D01*
X171120512Y-114552074D01*
X171084548Y-114519746D01*
X174852472Y-114519746D01*
X174859637Y-114568047D01*
X174876645Y-114633771D01*
X174893590Y-114694621D01*
X174919140Y-114785107D01*
X174950378Y-114895027D01*
X174984385Y-115014179D01*
X175018242Y-115132360D01*
X175049032Y-115239368D01*
X175073835Y-115325002D01*
X175089733Y-115379059D01*
X175091663Y-115385430D01*
X175120926Y-115408350D01*
X175183381Y-115411649D01*
X175271272Y-115395873D01*
X175364680Y-115366204D01*
X175468980Y-115315107D01*
X175563770Y-115247024D01*
X175638237Y-115171406D01*
X175681570Y-115097705D01*
X175685032Y-115086167D01*
X175687581Y-115000279D01*
X175661705Y-114904659D01*
X175614563Y-114813503D01*
X175553316Y-114741007D01*
X175492009Y-114703434D01*
X175472358Y-114686534D01*
X175483388Y-114650139D01*
X175486523Y-114644151D01*
X175510367Y-114562064D01*
X175510470Y-114465325D01*
X175488396Y-114375092D01*
X175463333Y-114330503D01*
X175429508Y-114293700D01*
X175393164Y-114276882D01*
X175337405Y-114274761D01*
X175294790Y-114277738D01*
X175199682Y-114296339D01*
X175092795Y-114333463D01*
X174990378Y-114381943D01*
X174908681Y-114434612D01*
X174880488Y-114460489D01*
X174859317Y-114488642D01*
X174852472Y-114519746D01*
X171084548Y-114519746D01*
X171060894Y-114498484D01*
X171004622Y-114478291D01*
X171003926Y-114478287D01*
X170958377Y-114487912D01*
X170923281Y-114520288D01*
X170896611Y-114580667D01*
X170876342Y-114674304D01*
X170860449Y-114806449D01*
X170855513Y-114863168D01*
X170831693Y-115072182D01*
X170794007Y-115253851D01*
X170737606Y-115425572D01*
X170657640Y-115604744D01*
X170637814Y-115644134D01*
X170582161Y-115758932D01*
X170550362Y-115841898D01*
X170541326Y-115899423D01*
X168337052Y-115899423D01*
X168182227Y-115856873D01*
X167889273Y-115780541D01*
X167625605Y-115716640D01*
X167387799Y-115664432D01*
X167172435Y-115623180D01*
X166976089Y-115592145D01*
X166795341Y-115570591D01*
X166626767Y-115557780D01*
X166466947Y-115552974D01*
X166418367Y-115552997D01*
X166290269Y-115555972D01*
X166168138Y-115562394D01*
X166060905Y-115571437D01*
X165977503Y-115582274D01*
X165926866Y-115594077D01*
X165917247Y-115599383D01*
X165902252Y-115634730D01*
X165885189Y-115708916D01*
X165866874Y-115815228D01*
X165848121Y-115946954D01*
X165829744Y-116097380D01*
X165812558Y-116259795D01*
X165797377Y-116427485D01*
X165785016Y-116593738D01*
X165776289Y-116751842D01*
X165775682Y-116766113D01*
X165760826Y-117125547D01*
X165593235Y-117125547D01*
X165425645Y-117125547D01*
X165425645Y-117039286D01*
X165429360Y-116963814D01*
X165439675Y-116853090D01*
X165455345Y-116716826D01*
X165475122Y-116564733D01*
X165497760Y-116406522D01*
X165522014Y-116251904D01*
X165540498Y-116144235D01*
X165626772Y-115728153D01*
X165736641Y-115313756D01*
X165872389Y-114894452D01*
X165901280Y-114818519D01*
X167049695Y-114818519D01*
X167054024Y-114903912D01*
X167083288Y-114956810D01*
X167137684Y-114979251D01*
X167157484Y-114980354D01*
X167248432Y-114957969D01*
X167338594Y-114890630D01*
X167428288Y-114778060D01*
X167472271Y-114706117D01*
X167517085Y-114626496D01*
X167552751Y-114561812D01*
X167573557Y-114522475D01*
X167576345Y-114516431D01*
X167598048Y-114517601D01*
X167650270Y-114531708D01*
X167721210Y-114554591D01*
X167799069Y-114582093D01*
X167872045Y-114610055D01*
X167928339Y-114634316D01*
X167955546Y-114650079D01*
X167954485Y-114674325D01*
X167945138Y-114733321D01*
X167929188Y-114817275D01*
X167915137Y-114884992D01*
X167891365Y-115008039D01*
X167881085Y-115094734D01*
X167883635Y-115152119D01*
X167888388Y-115169215D01*
X167925988Y-115229941D01*
X167979201Y-115250018D01*
X168047889Y-115231067D01*
X168460865Y-115231067D01*
X168474765Y-115304225D01*
X168512716Y-115342006D01*
X168569094Y-115343712D01*
X168638274Y-115308644D01*
X168693158Y-115259914D01*
X168746849Y-115198872D01*
X168789967Y-115141400D01*
X168802893Y-115119987D01*
X168821790Y-115090237D01*
X168847579Y-115075769D01*
X168893133Y-115073495D01*
X168969196Y-115080103D01*
X169043589Y-115089123D01*
X169097343Y-115097976D01*
X169116743Y-115103738D01*
X169115188Y-115128421D01*
X169102573Y-115185000D01*
X169081540Y-115261834D01*
X169078655Y-115271599D01*
X169048622Y-115380320D01*
X169034640Y-115455318D01*
X169036077Y-115505350D01*
X169052298Y-115539177D01*
X169058780Y-115546320D01*
X169114177Y-115572117D01*
X169184621Y-115559178D01*
X169263335Y-115508856D01*
X169268419Y-115504462D01*
X169305045Y-115468477D01*
X169332749Y-115428394D01*
X169356050Y-115373826D01*
X169379464Y-115294390D01*
X169391747Y-115244361D01*
X169693547Y-115244361D01*
X169707408Y-115428516D01*
X169749212Y-115580814D01*
X169818041Y-115699421D01*
X169912977Y-115782504D01*
X169978475Y-115813282D01*
X170080215Y-115841080D01*
X170160528Y-115841193D01*
X170234505Y-115813312D01*
X170244042Y-115807852D01*
X170308023Y-115747322D01*
X170331793Y-115668317D01*
X170328439Y-115628066D01*
X170302414Y-115595555D01*
X170235877Y-115569865D01*
X170208963Y-115563503D01*
X170116075Y-115533144D01*
X170053988Y-115484481D01*
X170017927Y-115410206D01*
X170003119Y-115303010D01*
X170002087Y-115246747D01*
X170022678Y-115055791D01*
X170079128Y-114862959D01*
X170166119Y-114686072D01*
X170172316Y-114676163D01*
X170235946Y-114594452D01*
X170297646Y-114556691D01*
X170361699Y-114561613D01*
X170424831Y-114601432D01*
X170489915Y-114647405D01*
X170539369Y-114657625D01*
X170583930Y-114633596D01*
X170593017Y-114624995D01*
X170624792Y-114563846D01*
X170626040Y-114485781D01*
X170600622Y-114403895D01*
X170552397Y-114331284D01*
X170492699Y-114284693D01*
X170402577Y-114257533D01*
X170293594Y-114252118D01*
X170186954Y-114268331D01*
X170136503Y-114286653D01*
X170030799Y-114359649D01*
X169933439Y-114470366D01*
X169847969Y-114611138D01*
X169777937Y-114774298D01*
X169726887Y-114952176D01*
X169698367Y-115137107D01*
X169693547Y-115244361D01*
X169391747Y-115244361D01*
X169404930Y-115190670D01*
X169459153Y-114933293D01*
X169493179Y-114703106D01*
X169508699Y-114487247D01*
X169510096Y-114391057D01*
X169501991Y-114211038D01*
X169478343Y-114072498D01*
X169438493Y-113973766D01*
X169381780Y-113913172D01*
X169311885Y-113889433D01*
X169237498Y-113901033D01*
X169163794Y-113952314D01*
X169088686Y-114045232D01*
X169019316Y-114163868D01*
X168981291Y-114235540D01*
X168926186Y-114338021D01*
X168858961Y-114462152D01*
X168784579Y-114598776D01*
X168708001Y-114738734D01*
X168696662Y-114759393D01*
X168626803Y-114888526D01*
X168565165Y-115006106D01*
X168515001Y-115105623D01*
X168479568Y-115180564D01*
X168462121Y-115224418D01*
X168460865Y-115231067D01*
X168047889Y-115231067D01*
X168051343Y-115230114D01*
X168088780Y-115209570D01*
X168147975Y-115164798D01*
X168193282Y-115116079D01*
X168195575Y-115112665D01*
X168215067Y-115070595D01*
X168244325Y-114992246D01*
X168280916Y-114885320D01*
X168322404Y-114757519D01*
X168366357Y-114616547D01*
X168410340Y-114470106D01*
X168451919Y-114325898D01*
X168488660Y-114191626D01*
X168498314Y-114154669D01*
X168530407Y-114017230D01*
X168545270Y-113914813D01*
X168542545Y-113840034D01*
X168521871Y-113785506D01*
X168482891Y-113743842D01*
X168478168Y-113740244D01*
X168434228Y-113711349D01*
X168399105Y-113706643D01*
X168350615Y-113724790D01*
X168336038Y-113731673D01*
X168298218Y-113754262D01*
X168264316Y-113787690D01*
X168228713Y-113840038D01*
X168185791Y-113919385D01*
X168138659Y-114015549D01*
X168092536Y-114111485D01*
X168053975Y-114191046D01*
X168027003Y-114245967D01*
X168015648Y-114267985D01*
X168015641Y-114267994D01*
X167993052Y-114264661D01*
X167941791Y-114248461D01*
X167875176Y-114224414D01*
X167806529Y-114197539D01*
X167749167Y-114172855D01*
X167716412Y-114155382D01*
X167716044Y-114155097D01*
X167701569Y-114122030D01*
X167707755Y-114057084D01*
X167711533Y-114039222D01*
X167721055Y-113938980D01*
X167711018Y-113828643D01*
X167684881Y-113720695D01*
X167646101Y-113627617D01*
X167598138Y-113561893D01*
X167574485Y-113544570D01*
X167497477Y-113520017D01*
X167432713Y-113536415D01*
X167379124Y-113594810D01*
X167335642Y-113696247D01*
X167308227Y-113805068D01*
X167223951Y-114170703D01*
X167121974Y-114520739D01*
X167115055Y-114542097D01*
X167070105Y-114698593D01*
X167049695Y-114818519D01*
X165901280Y-114818519D01*
X166036299Y-114463649D01*
X166230654Y-114014755D01*
X166406086Y-113645313D01*
X166493926Y-113468340D01*
X166565346Y-113329157D01*
X166622906Y-113224044D01*
X166669167Y-113149283D01*
X166706689Y-113101155D01*
X166738032Y-113075941D01*
X166765757Y-113069922D01*
X166792423Y-113079379D01*
X166794725Y-113080778D01*
X166829395Y-113093181D01*
X166877581Y-113089308D01*
X166951978Y-113067765D01*
X166970312Y-113061495D01*
X167113067Y-113016512D01*
X167252932Y-112983232D01*
X167402177Y-112959695D01*
X167573068Y-112943938D01*
X167764818Y-112934454D01*
X168092037Y-112935452D01*
G37*
%TD*%
M02*
