%TF.GenerationSoftware,KiCad,Pcbnew,9.0.8*%
%TF.CreationDate,2026-03-19T21:35:27-03:00*%
%TF.ProjectId,EEGFrontier,45454746-726f-46e7-9469-65722e6b6963,rev?*%
%TF.SameCoordinates,Original*%
%TF.FileFunction,Paste,Top*%
%TF.FilePolarity,Positive*%
%FSLAX46Y46*%
G04 Gerber Fmt 4.6, Leading zero omitted, Abs format (unit mm)*
G04 Created by KiCad (PCBNEW 9.0.8) date 2026-03-19 21:35:27*
%MOMM*%
%LPD*%
G01*
G04 APERTURE LIST*
G04 Aperture macros list*
%AMRoundRect*
0 Rectangle with rounded corners*
0 $1 Rounding radius*
0 $2 $3 $4 $5 $6 $7 $8 $9 X,Y pos of 4 corners*
0 Add a 4 corners polygon primitive as box body*
4,1,4,$2,$3,$4,$5,$6,$7,$8,$9,$2,$3,0*
0 Add four circle primitives for the rounded corners*
1,1,$1+$1,$2,$3*
1,1,$1+$1,$4,$5*
1,1,$1+$1,$6,$7*
1,1,$1+$1,$8,$9*
0 Add four rect primitives between the rounded corners*
20,1,$1+$1,$2,$3,$4,$5,0*
20,1,$1+$1,$4,$5,$6,$7,0*
20,1,$1+$1,$6,$7,$8,$9,0*
20,1,$1+$1,$8,$9,$2,$3,0*%
G04 Aperture macros list end*
%ADD10RoundRect,0.250000X-0.262500X-0.450000X0.262500X-0.450000X0.262500X0.450000X-0.262500X0.450000X0*%
%ADD11RoundRect,0.250000X0.450000X-0.262500X0.450000X0.262500X-0.450000X0.262500X-0.450000X-0.262500X0*%
%ADD12RoundRect,0.250000X-0.450000X0.262500X-0.450000X-0.262500X0.450000X-0.262500X0.450000X0.262500X0*%
%ADD13RoundRect,0.250000X0.262500X0.450000X-0.262500X0.450000X-0.262500X-0.450000X0.262500X-0.450000X0*%
%ADD14RoundRect,0.035000X-0.105000X-0.745000X0.105000X-0.745000X0.105000X0.745000X-0.105000X0.745000X0*%
%ADD15RoundRect,0.035000X-0.745000X-0.105000X0.745000X-0.105000X0.745000X0.105000X-0.745000X0.105000X0*%
%ADD16RoundRect,0.500000X-0.875000X-0.500000X0.875000X-0.500000X0.875000X0.500000X-0.875000X0.500000X0*%
%ADD17RoundRect,0.200000X0.200000X0.800000X-0.200000X0.800000X-0.200000X-0.800000X0.200000X-0.800000X0*%
%ADD18RoundRect,0.243750X-0.243750X-0.456250X0.243750X-0.456250X0.243750X0.456250X-0.243750X0.456250X0*%
%ADD19RoundRect,0.225000X-0.225000X-0.250000X0.225000X-0.250000X0.225000X0.250000X-0.225000X0.250000X0*%
%ADD20RoundRect,0.250000X0.650000X-0.325000X0.650000X0.325000X-0.650000X0.325000X-0.650000X-0.325000X0*%
%ADD21RoundRect,0.250000X-0.325000X-0.650000X0.325000X-0.650000X0.325000X0.650000X-0.325000X0.650000X0*%
%ADD22RoundRect,0.225000X0.250000X-0.225000X0.250000X0.225000X-0.250000X0.225000X-0.250000X-0.225000X0*%
G04 APERTURE END LIST*
D10*
%TO.C,R18*%
X149740500Y-91738000D03*
X147915500Y-91738000D03*
%TD*%
D11*
%TO.C,R12*%
X144660500Y-100933000D03*
X144660500Y-99108000D03*
%TD*%
D12*
%TO.C,R8*%
X142290000Y-103880000D03*
X142290000Y-102055000D03*
%TD*%
D13*
%TO.C,R4*%
X141645000Y-106710000D03*
X143470000Y-106710000D03*
%TD*%
D12*
%TO.C,R14*%
X145925500Y-90610000D03*
X145925500Y-88785000D03*
%TD*%
D14*
%TO.C,U1*%
X148910500Y-106938000D03*
X149410500Y-106938000D03*
X149910500Y-106938000D03*
X150410500Y-106938000D03*
X150910500Y-106938000D03*
X151410500Y-106938000D03*
X151910500Y-106938000D03*
X152410500Y-106938000D03*
X152910500Y-106938000D03*
X153410500Y-106938000D03*
X153910500Y-106938000D03*
X154410500Y-106938000D03*
X154910500Y-106938000D03*
X155410500Y-106938000D03*
X155910500Y-106938000D03*
X156410500Y-106938000D03*
X156410500Y-95578000D03*
X155910500Y-95578000D03*
X155410500Y-95578000D03*
X154910500Y-95578000D03*
X154410500Y-95578000D03*
X153910500Y-95578000D03*
X153410500Y-95578000D03*
X152910500Y-95578000D03*
X152410500Y-95578000D03*
X151910500Y-95578000D03*
X151410500Y-95578000D03*
X150910500Y-95578000D03*
X150410500Y-95578000D03*
X149910500Y-95578000D03*
X149410500Y-95578000D03*
X148910500Y-95578000D03*
D15*
X146980500Y-97508000D03*
X146980500Y-98008000D03*
X146980500Y-98508000D03*
X146980500Y-99008000D03*
X146980500Y-99508000D03*
X146980500Y-100008000D03*
X146980500Y-100508000D03*
X146980500Y-101008000D03*
X146980500Y-101508000D03*
X146980500Y-102008000D03*
X146980500Y-102508000D03*
X146980500Y-103008000D03*
X146980500Y-103508000D03*
X146980500Y-104008000D03*
X146980500Y-104508000D03*
X146980500Y-105008000D03*
X158340500Y-105008000D03*
X158340500Y-104508000D03*
X158340500Y-104008000D03*
X158340500Y-103508000D03*
X158340500Y-103008000D03*
X158340500Y-102508000D03*
X158340500Y-102008000D03*
X158340500Y-101508000D03*
X158340500Y-101008000D03*
X158340500Y-100508000D03*
X158340500Y-100008000D03*
X158340500Y-99508000D03*
X158340500Y-99008000D03*
X158340500Y-98508000D03*
X158340500Y-98008000D03*
X158340500Y-97508000D03*
%TD*%
D16*
%TO.C,U2*%
X165900000Y-105220000D03*
X165900000Y-102680000D03*
X165900000Y-100140000D03*
X165900000Y-97600000D03*
X165900000Y-95060000D03*
X165900000Y-92520000D03*
X165900000Y-89980000D03*
X182100000Y-105220000D03*
X182100000Y-102680000D03*
X182100000Y-100140000D03*
X182100000Y-97600000D03*
X182100000Y-95060000D03*
X182100000Y-92520000D03*
X182100000Y-89980000D03*
%TD*%
D17*
%TO.C,SW1*%
X184450000Y-115830000D03*
X180250000Y-115830000D03*
%TD*%
D10*
%TO.C,R2*%
X140465500Y-90628000D03*
X142290500Y-90628000D03*
%TD*%
%TO.C,R3*%
X151770000Y-92940000D03*
X153595000Y-92940000D03*
%TD*%
%TO.C,R21*%
X135440000Y-98440000D03*
X137265000Y-98440000D03*
%TD*%
%TO.C,R20*%
X143275500Y-93518000D03*
X145100500Y-93518000D03*
%TD*%
%TO.C,R19*%
X135440000Y-101180000D03*
X137265000Y-101180000D03*
%TD*%
%TO.C,R17*%
X135440000Y-103360000D03*
X137265000Y-103360000D03*
%TD*%
D12*
%TO.C,R16*%
X141980000Y-95390000D03*
X141980000Y-97215000D03*
%TD*%
D13*
%TO.C,R15*%
X137265000Y-106480000D03*
X135440000Y-106480000D03*
%TD*%
D10*
%TO.C,R13*%
X135440000Y-108600000D03*
X137265000Y-108600000D03*
%TD*%
%TO.C,R11*%
X135440000Y-111230000D03*
X137265000Y-111230000D03*
%TD*%
%TO.C,R10*%
X135440000Y-95990000D03*
X137265000Y-95990000D03*
%TD*%
%TO.C,R9*%
X135440000Y-113850000D03*
X137265000Y-113850000D03*
%TD*%
%TO.C,R7*%
X135440000Y-116200000D03*
X137265000Y-116200000D03*
%TD*%
%TO.C,R6*%
X185405000Y-94750000D03*
X187230000Y-94750000D03*
%TD*%
D11*
%TO.C,R5*%
X162850500Y-100180500D03*
X162850500Y-98355500D03*
%TD*%
D12*
%TO.C,R1*%
X162350500Y-103275500D03*
X162350500Y-105100500D03*
%TD*%
D11*
%TO.C,FB1*%
X185970500Y-103518000D03*
X185970500Y-101693000D03*
%TD*%
D18*
%TO.C,D1*%
X160145500Y-90618000D03*
X162020500Y-90618000D03*
%TD*%
%TO.C,D2*%
X185213000Y-90338000D03*
X187088000Y-90338000D03*
%TD*%
D19*
%TO.C,C7*%
X157890000Y-93300000D03*
X159440000Y-93300000D03*
%TD*%
D20*
%TO.C,C12*%
X144110000Y-112770000D03*
X144110000Y-109820000D03*
%TD*%
D21*
%TO.C,C10*%
X154210000Y-90510000D03*
X157160000Y-90510000D03*
%TD*%
%TO.C,C11*%
X158780000Y-115120000D03*
X161730000Y-115120000D03*
%TD*%
%TO.C,C13*%
X159590000Y-109760000D03*
X162540000Y-109760000D03*
%TD*%
D19*
%TO.C,C8*%
X153570000Y-116080000D03*
X155120000Y-116080000D03*
%TD*%
%TO.C,C9*%
X153650000Y-112330000D03*
X155200000Y-112330000D03*
%TD*%
D21*
%TO.C,C1*%
X147490000Y-114320000D03*
X150440000Y-114320000D03*
%TD*%
D20*
%TO.C,C3*%
X186750000Y-100085000D03*
X186750000Y-97135000D03*
%TD*%
D19*
%TO.C,C6*%
X184190500Y-110608000D03*
X185740500Y-110608000D03*
%TD*%
%TO.C,C5*%
X172190500Y-110878000D03*
X173740500Y-110878000D03*
%TD*%
D22*
%TO.C,C4*%
X161170000Y-96060000D03*
X161170000Y-94510000D03*
%TD*%
D19*
%TO.C,C2*%
X150050000Y-109980000D03*
X151600000Y-109980000D03*
%TD*%
M02*
