%TF.GenerationSoftware,KiCad,Pcbnew,9.0.3*%
%TF.CreationDate,2026-02-26T20:24:34-03:00*%
%TF.ProjectId,EEGFrontier,45454746-726f-46e7-9469-65722e6b6963,rev?*%
%TF.SameCoordinates,Original*%
%TF.FileFunction,Legend,Bot*%
%TF.FilePolarity,Positive*%
%FSLAX46Y46*%
G04 Gerber Fmt 4.6, Leading zero omitted, Abs format (unit mm)*
G04 Created by KiCad (PCBNEW 9.0.3) date 2026-02-26 20:24:34*
%MOMM*%
%LPD*%
G01*
G04 APERTURE LIST*
%ADD10C,0.000000*%
G04 APERTURE END LIST*
D10*
%TO.C,G\u002A\u002A\u002A*%
G36*
X130799609Y-78516666D02*
G01*
X130798985Y-78597326D01*
X130754368Y-79322294D01*
X130715616Y-79525611D01*
X130651067Y-79864277D01*
X130641653Y-79913666D01*
X130592725Y-80070196D01*
X130434671Y-80490908D01*
X130301887Y-80802666D01*
X130220076Y-80994745D01*
X130076782Y-81306012D01*
X129968386Y-81541471D01*
X129699048Y-82090849D01*
X129431510Y-82602643D01*
X129185217Y-83036616D01*
X128979617Y-83352531D01*
X128923760Y-83427635D01*
X128578893Y-83857408D01*
X128209602Y-84269576D01*
X127846004Y-84633674D01*
X127518213Y-84919237D01*
X127256346Y-85095802D01*
X127102531Y-85166365D01*
X126700242Y-85266285D01*
X126370263Y-85226154D01*
X126129381Y-85062167D01*
X125994383Y-84790521D01*
X125989377Y-84643066D01*
X126102624Y-84643066D01*
X126237801Y-84974827D01*
X126361459Y-85095828D01*
X126615920Y-85169368D01*
X126933605Y-85112943D01*
X127298695Y-84934999D01*
X127695373Y-84643979D01*
X128107820Y-84248326D01*
X128520217Y-83756485D01*
X128596968Y-83654679D01*
X128927787Y-83197056D01*
X129158812Y-82836866D01*
X129303194Y-82551991D01*
X129374082Y-82320313D01*
X129419450Y-82137997D01*
X129496698Y-81938134D01*
X129539972Y-81801334D01*
X129569572Y-81563818D01*
X129573933Y-81306012D01*
X129552525Y-81090411D01*
X129504818Y-80979509D01*
X129465418Y-80983085D01*
X129338579Y-81076583D01*
X129176480Y-81253028D01*
X129088200Y-81355073D01*
X128825277Y-81615366D01*
X128550496Y-81844282D01*
X128452328Y-81916690D01*
X128171203Y-82124189D01*
X127832274Y-82374481D01*
X127488624Y-82628373D01*
X127067475Y-82965368D01*
X126610424Y-83418637D01*
X126293934Y-83855594D01*
X126123001Y-84266863D01*
X126102624Y-84643066D01*
X125989377Y-84643066D01*
X125982055Y-84427411D01*
X126109184Y-83989032D01*
X126131257Y-83940406D01*
X126389151Y-83537942D01*
X126796950Y-83090582D01*
X127345590Y-82607271D01*
X128026008Y-82096957D01*
X128658286Y-81591189D01*
X129190365Y-81002344D01*
X129308844Y-80802666D01*
X129492667Y-80802666D01*
X129535000Y-80845000D01*
X129577334Y-80802666D01*
X129535000Y-80760333D01*
X129492667Y-80802666D01*
X129308844Y-80802666D01*
X129578297Y-80348547D01*
X129746630Y-79862085D01*
X130437303Y-79862085D01*
X130457514Y-79975402D01*
X130486416Y-79974091D01*
X130501983Y-79864277D01*
X130488425Y-79781054D01*
X130481846Y-79786666D01*
X130450830Y-79813125D01*
X130437303Y-79862085D01*
X129746630Y-79862085D01*
X129772728Y-79786666D01*
X129916000Y-79786666D01*
X129958334Y-79829000D01*
X130000667Y-79786666D01*
X129958334Y-79744333D01*
X129916000Y-79786666D01*
X129772728Y-79786666D01*
X129834200Y-79609019D01*
X129846473Y-79532666D01*
X130000667Y-79532666D01*
X130043000Y-79575000D01*
X130085334Y-79532666D01*
X130076087Y-79523419D01*
X130521970Y-79523419D01*
X130523619Y-79532666D01*
X130542181Y-79636736D01*
X130571083Y-79635425D01*
X130586650Y-79525611D01*
X130573092Y-79442388D01*
X130535497Y-79474458D01*
X130521970Y-79523419D01*
X130076087Y-79523419D01*
X130043000Y-79490333D01*
X130000667Y-79532666D01*
X129846473Y-79532666D01*
X129970189Y-78762985D01*
X129974747Y-78705738D01*
X129969786Y-78191262D01*
X129885636Y-77736703D01*
X129731758Y-77375933D01*
X129517616Y-77142823D01*
X129423878Y-77085625D01*
X129395082Y-77077333D01*
X129662000Y-77077333D01*
X129704334Y-77119666D01*
X129746667Y-77077333D01*
X129704334Y-77035000D01*
X129662000Y-77077333D01*
X129395082Y-77077333D01*
X129303182Y-77050870D01*
X129158787Y-77087637D01*
X128929017Y-77202142D01*
X128780439Y-77286432D01*
X128586236Y-77422753D01*
X128408182Y-77591540D01*
X128235473Y-77810804D01*
X128057304Y-78098556D01*
X127862873Y-78472807D01*
X127641374Y-78951568D01*
X127382005Y-79552851D01*
X127073960Y-80294666D01*
X127028817Y-80403704D01*
X126819908Y-80890153D01*
X126603546Y-81369322D01*
X126402801Y-81791080D01*
X126240742Y-82105297D01*
X125940029Y-82574381D01*
X125539957Y-83072809D01*
X125095275Y-83530589D01*
X124643340Y-83909499D01*
X124221509Y-84171317D01*
X124218647Y-84172699D01*
X124033281Y-84258319D01*
X123902232Y-84327224D01*
X123829301Y-84403050D01*
X123818287Y-84509437D01*
X123872990Y-84670020D01*
X123997212Y-84908439D01*
X124194751Y-85248331D01*
X124469407Y-85713333D01*
X124620441Y-85979072D01*
X124852456Y-86416314D01*
X125057996Y-86835724D01*
X125205397Y-87174439D01*
X125225675Y-87225756D01*
X125359353Y-87528519D01*
X125487387Y-87767261D01*
X125584554Y-87894106D01*
X125650647Y-87956775D01*
X125805788Y-88144567D01*
X125993722Y-88401409D01*
X126187247Y-88686642D01*
X126359160Y-88959610D01*
X126482256Y-89179657D01*
X126529334Y-89306126D01*
X126498864Y-89413797D01*
X126389212Y-89580166D01*
X126335036Y-89629510D01*
X126082347Y-89723199D01*
X125753341Y-89699905D01*
X125383069Y-89560319D01*
X125361986Y-89549603D01*
X125085928Y-89442196D01*
X124775600Y-89365395D01*
X124479394Y-89325905D01*
X124245702Y-89330432D01*
X124122916Y-89385683D01*
X124104872Y-89404322D01*
X123955138Y-89459004D01*
X123726489Y-89481000D01*
X123718800Y-89480974D01*
X123374092Y-89415158D01*
X123139160Y-89244175D01*
X123028546Y-88999724D01*
X123056794Y-88713502D01*
X123238445Y-88417209D01*
X123341446Y-88244285D01*
X123396667Y-87998509D01*
X123447855Y-87778801D01*
X123619590Y-87521917D01*
X123698997Y-87436137D01*
X123786945Y-87300180D01*
X123797447Y-87146426D01*
X123745157Y-86902601D01*
X123744189Y-86898795D01*
X123647671Y-86627501D01*
X123490344Y-86289546D01*
X123305776Y-85957163D01*
X123266935Y-85893146D01*
X123118380Y-85635936D01*
X123021706Y-85447844D01*
X122996266Y-85365845D01*
X123026023Y-85389773D01*
X123127581Y-85528617D01*
X123280991Y-85764400D01*
X123466724Y-86067973D01*
X123699735Y-86486982D01*
X123857480Y-86860067D01*
X123906820Y-87147534D01*
X123850935Y-87370177D01*
X123693000Y-87548793D01*
X123663765Y-87574458D01*
X123550447Y-87738116D01*
X123482636Y-87936449D01*
X123465941Y-88122012D01*
X123505971Y-88247361D01*
X123608334Y-88265048D01*
X123673273Y-88251739D01*
X123735334Y-88298323D01*
X123691439Y-88350044D01*
X123540601Y-88380333D01*
X123323561Y-88428542D01*
X123186290Y-88598210D01*
X123142667Y-88902287D01*
X123142893Y-88929245D01*
X123183761Y-89175358D01*
X123306434Y-89308687D01*
X123561251Y-89384497D01*
X123864531Y-89378194D01*
X124111012Y-89283694D01*
X124172988Y-89247725D01*
X124376089Y-89209612D01*
X124690540Y-89238316D01*
X124844391Y-89259083D01*
X125068767Y-89274442D01*
X125187679Y-89261291D01*
X125213147Y-89251719D01*
X125259334Y-89310990D01*
X125267034Y-89336443D01*
X125379144Y-89434389D01*
X125579620Y-89536855D01*
X125810186Y-89617588D01*
X126012567Y-89650333D01*
X126206072Y-89590220D01*
X126373468Y-89447999D01*
X126444667Y-89282639D01*
X126421386Y-89218249D01*
X126317124Y-89038687D01*
X126154380Y-88792493D01*
X125961007Y-88518750D01*
X125764860Y-88256538D01*
X125593793Y-88044939D01*
X125475658Y-87923034D01*
X125441253Y-87883294D01*
X125336890Y-87704101D01*
X125203724Y-87427312D01*
X125062191Y-87093904D01*
X125029102Y-87012886D01*
X124825688Y-86560667D01*
X124584329Y-86077327D01*
X124350374Y-85654571D01*
X124200237Y-85402568D01*
X123946324Y-84975466D01*
X123760482Y-84650807D01*
X123632297Y-84398341D01*
X123551359Y-84187819D01*
X123507257Y-83988989D01*
X123489577Y-83771602D01*
X123487909Y-83505407D01*
X123491842Y-83160154D01*
X123492638Y-82794334D01*
X123480404Y-82310687D01*
X123445489Y-81928200D01*
X123381094Y-81604912D01*
X123291265Y-81331833D01*
X123429467Y-81331833D01*
X123530654Y-81702883D01*
X123612901Y-82147279D01*
X123641226Y-82600904D01*
X123624011Y-83141746D01*
X123612121Y-83369980D01*
X123602403Y-83712221D01*
X123605252Y-83972212D01*
X123620813Y-84106656D01*
X123624509Y-84115921D01*
X123709823Y-84212188D01*
X123863348Y-84203189D01*
X124116334Y-84087731D01*
X124583988Y-83799679D01*
X125046558Y-83424207D01*
X125473346Y-82967141D01*
X125876681Y-82411330D01*
X126268892Y-81739623D01*
X126662308Y-80934870D01*
X127069257Y-79979920D01*
X127116814Y-79862426D01*
X127305356Y-79403438D01*
X127487712Y-78969040D01*
X127645136Y-78603504D01*
X127758885Y-78351103D01*
X127867789Y-78143008D01*
X128232796Y-77641088D01*
X128677509Y-77249523D01*
X129171730Y-76997248D01*
X129634206Y-76840047D01*
X129895274Y-77033063D01*
X129933177Y-77062535D01*
X129946978Y-77077333D01*
X130078638Y-77218501D01*
X130111779Y-77342206D01*
X130102496Y-77397871D01*
X130165262Y-77458333D01*
X130175684Y-77459561D01*
X130275944Y-77553861D01*
X130390925Y-77771406D01*
X130503625Y-78074163D01*
X130597041Y-78424101D01*
X130604419Y-78457742D01*
X130637470Y-78584727D01*
X130654071Y-78580243D01*
X130656291Y-78431771D01*
X130646199Y-78126795D01*
X130644479Y-78088118D01*
X130560728Y-77468241D01*
X130377393Y-76982271D01*
X130095806Y-76631900D01*
X129717300Y-76418821D01*
X129243206Y-76344726D01*
X129203338Y-76344727D01*
X128825824Y-76381158D01*
X128471173Y-76492922D01*
X128123726Y-76693080D01*
X127767828Y-76994690D01*
X127387821Y-77410814D01*
X126968047Y-77954510D01*
X126492850Y-78638839D01*
X126380497Y-78805264D01*
X126007217Y-79337626D01*
X125667492Y-79790844D01*
X125378574Y-80142544D01*
X125157719Y-80370349D01*
X124994906Y-80504340D01*
X124618044Y-80766674D01*
X124231734Y-80982838D01*
X123880273Y-81129585D01*
X123607958Y-81183666D01*
X123564430Y-81184518D01*
X123434407Y-81221216D01*
X123429467Y-81331833D01*
X123291265Y-81331833D01*
X123280419Y-81298861D01*
X123136666Y-80968083D01*
X122923065Y-80602372D01*
X122613763Y-80195160D01*
X122255386Y-79802601D01*
X121889630Y-79470246D01*
X121558194Y-79243650D01*
X121468101Y-79194244D01*
X121331675Y-79106989D01*
X121311534Y-79070741D01*
X121337732Y-79053791D01*
X121303511Y-78961166D01*
X121285897Y-78937427D01*
X121192066Y-78766854D01*
X121154049Y-78620879D01*
X121188813Y-78559000D01*
X121249876Y-78611236D01*
X121314313Y-78768850D01*
X121382753Y-78895822D01*
X121566036Y-79099812D01*
X121819765Y-79313192D01*
X122227255Y-79651738D01*
X122711842Y-80163573D01*
X123086831Y-80695378D01*
X123133277Y-80771694D01*
X123268959Y-80957863D01*
X123372700Y-81051479D01*
X123522471Y-81061142D01*
X123795809Y-80997446D01*
X124130095Y-80867213D01*
X124482923Y-80687426D01*
X124811888Y-80475069D01*
X124899827Y-80409002D01*
X125122526Y-80224712D01*
X125333159Y-80017184D01*
X125551637Y-79762071D01*
X125797868Y-79435021D01*
X126091763Y-79011686D01*
X126453232Y-78467716D01*
X126590228Y-78267582D01*
X126913872Y-77836394D01*
X127261594Y-77415206D01*
X127578534Y-77072059D01*
X127581525Y-77069088D01*
X127901456Y-76765225D01*
X128158799Y-76560398D01*
X128398689Y-76423552D01*
X128666261Y-76323631D01*
X129066614Y-76233767D01*
X129543896Y-76243170D01*
X129951930Y-76405801D01*
X130296533Y-76724322D01*
X130583520Y-77201397D01*
X130639035Y-77324747D01*
X130723643Y-77556516D01*
X130772742Y-77796727D01*
X130795132Y-78098927D01*
X130798699Y-78431771D01*
X130799609Y-78516666D01*
G37*
G36*
X123961112Y-88408555D02*
G01*
X123974357Y-88434021D01*
X123904667Y-88465000D01*
X123859845Y-88458889D01*
X123848223Y-88408555D01*
X123860632Y-88398422D01*
X123961112Y-88408555D01*
G37*
G36*
X119738941Y-85320341D02*
G01*
X119823953Y-85544000D01*
X119915247Y-85766229D01*
X120091404Y-86115416D01*
X120286856Y-86441763D01*
X120397914Y-86612354D01*
X120539846Y-86867855D01*
X120586776Y-87055906D01*
X120544745Y-87220256D01*
X120419792Y-87404652D01*
X120323405Y-87516752D01*
X120207063Y-87591046D01*
X120039916Y-87608355D01*
X119763625Y-87584682D01*
X119706142Y-87578343D01*
X119508808Y-87562010D01*
X119347665Y-87572124D01*
X119188010Y-87623208D01*
X118995138Y-87729786D01*
X118734344Y-87906381D01*
X118370922Y-88167518D01*
X118213896Y-88278279D01*
X118033967Y-88382101D01*
X117854399Y-88435710D01*
X117618668Y-88453634D01*
X117270256Y-88450398D01*
X116581000Y-88435797D01*
X117300667Y-88386849D01*
X117649896Y-88359487D01*
X117897828Y-88319173D01*
X118097967Y-88243386D01*
X118310676Y-88109141D01*
X118596318Y-87893450D01*
X118700298Y-87814207D01*
X118956979Y-87627529D01*
X119153011Y-87497686D01*
X119252484Y-87449000D01*
X119260300Y-87447655D01*
X119311659Y-87356396D01*
X119332667Y-87165788D01*
X119361581Y-86963049D01*
X119523167Y-86721288D01*
X119650326Y-86615408D01*
X119663012Y-86617680D01*
X119565500Y-86736000D01*
X119517041Y-86801541D01*
X119432788Y-87056840D01*
X119488448Y-87292851D01*
X119663758Y-87466240D01*
X119938456Y-87533666D01*
X120024117Y-87525434D01*
X120261726Y-87425616D01*
X120444313Y-87250168D01*
X120515308Y-87046833D01*
X120514623Y-87031699D01*
X120453115Y-86839528D01*
X120328391Y-86673223D01*
X120191167Y-86602333D01*
X120155389Y-86594760D01*
X120094313Y-86496500D01*
X120077481Y-86422477D01*
X120000620Y-86224699D01*
X119882646Y-85974150D01*
X119806471Y-85808789D01*
X119710458Y-85538447D01*
X119674098Y-85339150D01*
X119674254Y-85330274D01*
X119691103Y-85251917D01*
X119738941Y-85320341D01*
G37*
G36*
X116463216Y-87295218D02*
G01*
X116452890Y-87324025D01*
X116284667Y-87379601D01*
X116026278Y-87471610D01*
X115835743Y-87606440D01*
X115777964Y-87776866D01*
X115779677Y-87816396D01*
X115866362Y-88031949D01*
X116094167Y-88162960D01*
X116216415Y-88185790D01*
X116272971Y-88122301D01*
X116284667Y-87929430D01*
X116317147Y-87702376D01*
X116432834Y-87580042D01*
X116447762Y-87574436D01*
X116531057Y-87557207D01*
X116475167Y-87630250D01*
X116408014Y-87748217D01*
X116369334Y-87957000D01*
X116393281Y-88121872D01*
X116475167Y-88291194D01*
X116492369Y-88310071D01*
X116528418Y-88374191D01*
X116424968Y-88350100D01*
X116292017Y-88307246D01*
X116062902Y-88243233D01*
X115943861Y-88195481D01*
X115759204Y-88000923D01*
X115692000Y-87710740D01*
X115733634Y-87592167D01*
X115896973Y-87438889D01*
X116132941Y-87326036D01*
X116386296Y-87287302D01*
X116463216Y-87295218D01*
G37*
G36*
X123820000Y-88041666D02*
G01*
X123813890Y-88086488D01*
X123763556Y-88098111D01*
X123753423Y-88085701D01*
X123763556Y-87985222D01*
X123789022Y-87971976D01*
X123820000Y-88041666D01*
G37*
G36*
X117300667Y-87660666D02*
G01*
X117258334Y-87703000D01*
X117216000Y-87660666D01*
X117258334Y-87618333D01*
X117300667Y-87660666D01*
G37*
G36*
X117046667Y-87576000D02*
G01*
X117004334Y-87618333D01*
X116962000Y-87576000D01*
X117004334Y-87533666D01*
X117046667Y-87576000D01*
G37*
G36*
X117154160Y-81057543D02*
G01*
X117164447Y-81230667D01*
X117153260Y-81533236D01*
X117149613Y-81596133D01*
X117145823Y-81985575D01*
X117190146Y-82302795D01*
X117293043Y-82629848D01*
X117313067Y-82681174D01*
X117590726Y-83220282D01*
X117977477Y-83759310D01*
X118430743Y-84238072D01*
X118756485Y-84533633D01*
X118769409Y-85345977D01*
X118782334Y-86158322D01*
X118174934Y-86761327D01*
X117567535Y-87364333D01*
X117074268Y-87351885D01*
X116581000Y-87339437D01*
X117054465Y-87288385D01*
X117360911Y-87235772D01*
X117632715Y-87122551D01*
X117921823Y-86914554D01*
X118074698Y-86776376D01*
X118340518Y-86485656D01*
X118542979Y-86203980D01*
X118609293Y-86088806D01*
X118695805Y-85908184D01*
X118731135Y-85738334D01*
X118723362Y-85519940D01*
X118680563Y-85193687D01*
X118635272Y-84908555D01*
X118576672Y-84683607D01*
X118481757Y-84495485D01*
X118323295Y-84291434D01*
X118074055Y-84018698D01*
X118018803Y-83959321D01*
X117707293Y-83603747D01*
X117484012Y-83294332D01*
X117313434Y-82975633D01*
X117160035Y-82592207D01*
X117145718Y-82549093D01*
X117084383Y-82257550D01*
X117049446Y-81903833D01*
X117042441Y-81545031D01*
X117064902Y-81238231D01*
X117118360Y-81040523D01*
X117123689Y-81032113D01*
X117154160Y-81057543D01*
G37*
G36*
X121946982Y-84056287D02*
G01*
X122027560Y-84104666D01*
X122090305Y-84142338D01*
X122157114Y-84189333D01*
X122277479Y-84274000D01*
X122379982Y-84346103D01*
X122495749Y-84465424D01*
X122582839Y-84555188D01*
X122750205Y-84818287D01*
X122844447Y-84998676D01*
X122926068Y-85181041D01*
X122934969Y-85243846D01*
X122872086Y-85175537D01*
X122738354Y-84964556D01*
X122729349Y-84949317D01*
X122644544Y-84819319D01*
X122551342Y-84737098D01*
X122409591Y-84688095D01*
X122179136Y-84657749D01*
X121819824Y-84631502D01*
X121752814Y-84626536D01*
X121315256Y-84575193D01*
X120874981Y-84497320D01*
X120518000Y-84407704D01*
X120231489Y-84320924D01*
X119998718Y-84257411D01*
X119876024Y-84232758D01*
X119839684Y-84256309D01*
X119764148Y-84400943D01*
X119695634Y-84633833D01*
X119606886Y-85036000D01*
X119647398Y-84570333D01*
X119664684Y-84316459D01*
X119647242Y-84151695D01*
X119572034Y-84047408D01*
X119418424Y-83947461D01*
X119147174Y-83754457D01*
X118814967Y-83453750D01*
X118491983Y-83107471D01*
X118221748Y-82762657D01*
X118047791Y-82466345D01*
X117941885Y-82157409D01*
X117853477Y-81565826D01*
X117879082Y-81017403D01*
X117984029Y-81017403D01*
X117994108Y-81395333D01*
X118018976Y-81782397D01*
X118090504Y-82201667D01*
X118226589Y-82546303D01*
X118450369Y-82869858D01*
X118784980Y-83225885D01*
X119037366Y-83462619D01*
X119460408Y-83794827D01*
X119892021Y-84036069D01*
X120391000Y-84222846D01*
X120611405Y-84284608D01*
X121010745Y-84374179D01*
X121364667Y-84430136D01*
X121593724Y-84453414D01*
X121705707Y-84459444D01*
X121668750Y-84440951D01*
X121644073Y-84434513D01*
X122149598Y-84434513D01*
X122150729Y-84459444D01*
X122150909Y-84463415D01*
X122260723Y-84478982D01*
X122343946Y-84465424D01*
X122311875Y-84427829D01*
X122262915Y-84414302D01*
X122149598Y-84434513D01*
X121644073Y-84434513D01*
X121493130Y-84395134D01*
X121425104Y-84376915D01*
X121203832Y-84300459D01*
X121155841Y-84274000D01*
X121957334Y-84274000D01*
X121999667Y-84316333D01*
X122042000Y-84274000D01*
X121999667Y-84231666D01*
X121957334Y-84274000D01*
X121155841Y-84274000D01*
X121074030Y-84228895D01*
X121054945Y-84214781D01*
X120970135Y-84189333D01*
X121788000Y-84189333D01*
X121830334Y-84231666D01*
X121872667Y-84189333D01*
X121830334Y-84147000D01*
X121788000Y-84189333D01*
X120970135Y-84189333D01*
X120894033Y-84166498D01*
X120660034Y-84147000D01*
X120465113Y-84139196D01*
X120391132Y-84104666D01*
X121618667Y-84104666D01*
X121661000Y-84147000D01*
X121703334Y-84104666D01*
X121661000Y-84062333D01*
X121618667Y-84104666D01*
X120391132Y-84104666D01*
X120389557Y-84103931D01*
X120428066Y-84026347D01*
X120431435Y-84020000D01*
X121449334Y-84020000D01*
X121491667Y-84062333D01*
X121534000Y-84020000D01*
X121491667Y-83977666D01*
X121449334Y-84020000D01*
X120431435Y-84020000D01*
X120501730Y-83887581D01*
X120559599Y-83666513D01*
X120582772Y-83493556D01*
X120596834Y-83395799D01*
X120623224Y-83396803D01*
X120728735Y-83468892D01*
X120790127Y-83543080D01*
X120800320Y-83661675D01*
X120785336Y-83695218D01*
X120833992Y-83695347D01*
X120901788Y-83686677D01*
X121026774Y-83766932D01*
X121095245Y-83835082D01*
X121205945Y-83893000D01*
X121209272Y-83869717D01*
X121124734Y-83763785D01*
X120957502Y-83601200D01*
X120943923Y-83588831D01*
X120602572Y-83194403D01*
X120327651Y-82692875D01*
X120114363Y-82070371D01*
X119957914Y-81313013D01*
X119853505Y-80406924D01*
X119843262Y-80289137D01*
X119794217Y-79906884D01*
X119727320Y-79653520D01*
X119634814Y-79496757D01*
X119580193Y-79443806D01*
X119331486Y-79330291D01*
X119045515Y-79357470D01*
X118746692Y-79513852D01*
X118459427Y-79787947D01*
X118208132Y-80168267D01*
X118123333Y-80335708D01*
X118038850Y-80543728D01*
X117995679Y-80752247D01*
X117984029Y-81017403D01*
X117879082Y-81017403D01*
X117882448Y-80945296D01*
X118029318Y-80355059D01*
X118134752Y-80088387D01*
X118296704Y-79746940D01*
X118440553Y-79526316D01*
X118553874Y-79448000D01*
X118587781Y-79441140D01*
X118747074Y-79384142D01*
X118972755Y-79288247D01*
X119091304Y-79235973D01*
X119270436Y-79176295D01*
X119398730Y-79188813D01*
X119545291Y-79271508D01*
X119725176Y-79433778D01*
X119876660Y-79745535D01*
X119925334Y-80178175D01*
X119927519Y-80258705D01*
X119953224Y-80425990D01*
X119998572Y-80471063D01*
X120018119Y-80484331D01*
X120055054Y-80620947D01*
X120089360Y-80873289D01*
X120115556Y-81206899D01*
X120155532Y-81648232D01*
X120293131Y-82303823D01*
X120526763Y-82856045D01*
X120866686Y-83333953D01*
X121031586Y-83510843D01*
X121197257Y-83664527D01*
X121293591Y-83723666D01*
X121305307Y-83725444D01*
X121438386Y-83780856D01*
X121666193Y-83898220D01*
X121882522Y-84020000D01*
X121946982Y-84056287D01*
G37*
G36*
X119078667Y-84358666D02*
G01*
X119036334Y-84401000D01*
X118994000Y-84358666D01*
X119036334Y-84316333D01*
X119078667Y-84358666D01*
G37*
G36*
X115620169Y-79518432D02*
G01*
X115509392Y-79655269D01*
X115289248Y-79907340D01*
X114960789Y-80272543D01*
X114861108Y-80384814D01*
X114570776Y-80762246D01*
X114416053Y-81075377D01*
X114390004Y-81343369D01*
X114485694Y-81585384D01*
X114598544Y-81711623D01*
X114730729Y-81776333D01*
X114753950Y-81774562D01*
X114871852Y-81694933D01*
X114912391Y-81555840D01*
X114847352Y-81438913D01*
X114842835Y-81436033D01*
X114782374Y-81330146D01*
X114822310Y-81129958D01*
X114904593Y-80887333D01*
X114969407Y-81183666D01*
X114970037Y-81186537D01*
X115058760Y-81469760D01*
X115166286Y-81629885D01*
X115277291Y-81644003D01*
X115309598Y-81640538D01*
X115300972Y-81729602D01*
X115305446Y-81817948D01*
X115405005Y-81862010D01*
X115552337Y-81835809D01*
X115688629Y-81738062D01*
X115732369Y-81652252D01*
X115741066Y-81482735D01*
X115685735Y-81338922D01*
X115583018Y-81291219D01*
X115574936Y-81292535D01*
X115483415Y-81241282D01*
X115459589Y-81088390D01*
X115501511Y-80883389D01*
X115607230Y-80675812D01*
X115634283Y-80638931D01*
X115769303Y-80484373D01*
X115863056Y-80421666D01*
X115873065Y-80425246D01*
X115846264Y-80501473D01*
X115730291Y-80645696D01*
X115680692Y-80700802D01*
X115548193Y-80899001D01*
X115552959Y-81058960D01*
X115692000Y-81226000D01*
X115787952Y-81329623D01*
X115855224Y-81533204D01*
X115773688Y-81781899D01*
X115679536Y-81879800D01*
X115476059Y-81944056D01*
X115260386Y-81917219D01*
X115108814Y-81797500D01*
X115107826Y-81795753D01*
X115020145Y-81699950D01*
X114918340Y-81755166D01*
X114892229Y-81779109D01*
X114706543Y-81855707D01*
X114530578Y-81795705D01*
X114389105Y-81626813D01*
X114306895Y-81376741D01*
X114308718Y-81073200D01*
X114316591Y-81033267D01*
X114384040Y-80858667D01*
X114521904Y-80649530D01*
X114749185Y-80380194D01*
X115084887Y-80024998D01*
X115285753Y-79820354D01*
X115509404Y-79598872D01*
X115620524Y-79498932D01*
X115620169Y-79518432D01*
G37*
G36*
X118650787Y-79237999D02*
G01*
X118555395Y-79269228D01*
X118488229Y-79276235D01*
X118331767Y-79386064D01*
X118126274Y-79585966D01*
X117898537Y-79846813D01*
X117675342Y-80139476D01*
X117483478Y-80434829D01*
X117377356Y-80611053D01*
X117261757Y-80779245D01*
X117222134Y-80800659D01*
X117263725Y-80676770D01*
X117391771Y-80409048D01*
X117483223Y-80263387D01*
X117686299Y-79998872D01*
X117952270Y-79689211D01*
X118247328Y-79375255D01*
X118304479Y-79316789D01*
X118414104Y-79194000D01*
X118570667Y-79194000D01*
X118613000Y-79236333D01*
X118655334Y-79194000D01*
X118613000Y-79151666D01*
X118570667Y-79194000D01*
X118414104Y-79194000D01*
X118738422Y-78830738D01*
X119061496Y-78386581D01*
X119263109Y-78000767D01*
X119332667Y-77689747D01*
X119332179Y-77651569D01*
X119304470Y-77478609D01*
X119219490Y-77398817D01*
X119056766Y-77413020D01*
X118795824Y-77522042D01*
X118416190Y-77726710D01*
X118389980Y-77741646D01*
X117720118Y-78190600D01*
X117174268Y-78709239D01*
X116711109Y-79336574D01*
X116462447Y-79733149D01*
X116664244Y-80030514D01*
X116718383Y-80113806D01*
X116807609Y-80303133D01*
X116836087Y-80514222D01*
X116817881Y-80819272D01*
X116790348Y-81032590D01*
X116739678Y-81278359D01*
X116686161Y-81416500D01*
X116599039Y-81486786D01*
X116386132Y-81526002D01*
X116157293Y-81463894D01*
X115980548Y-81310666D01*
X115902941Y-81177440D01*
X115892810Y-81048588D01*
X115985030Y-80880493D01*
X116072034Y-80692836D01*
X116082091Y-80541826D01*
X116070087Y-80483181D01*
X116117991Y-80421666D01*
X116163647Y-80425260D01*
X116196020Y-80464004D01*
X116213320Y-80582495D01*
X116227684Y-80825400D01*
X116231175Y-80980847D01*
X116206615Y-81033728D01*
X116136500Y-80957385D01*
X116095518Y-80903134D01*
X116041097Y-80868477D01*
X116030667Y-80991226D01*
X116043327Y-81161200D01*
X116135583Y-81369134D01*
X116319126Y-81437666D01*
X116430867Y-81427304D01*
X116593829Y-81333723D01*
X116681707Y-81123814D01*
X116708000Y-80774560D01*
X116670421Y-80377933D01*
X116533474Y-80032264D01*
X116358948Y-79749875D01*
X116590022Y-79355576D01*
X116648853Y-79258396D01*
X117139583Y-78613490D01*
X117741680Y-78052516D01*
X118411273Y-77617347D01*
X118474893Y-77583803D01*
X118795354Y-77397274D01*
X119004096Y-77242740D01*
X119078667Y-77136382D01*
X119079811Y-77102137D01*
X119109881Y-77064719D01*
X119199967Y-77166984D01*
X119219943Y-77193257D01*
X119325760Y-77278908D01*
X119428567Y-77225500D01*
X119458405Y-77199968D01*
X119675065Y-77125443D01*
X119925868Y-77155716D01*
X120132720Y-77284270D01*
X120265039Y-77394405D01*
X120463342Y-77484406D01*
X120554000Y-77502652D01*
X120592789Y-77520304D01*
X120467623Y-77531469D01*
X120315904Y-77498312D01*
X120137000Y-77373666D01*
X119986178Y-77265728D01*
X119753699Y-77204333D01*
X119728796Y-77204558D01*
X119590565Y-77230857D01*
X119515770Y-77333507D01*
X119466960Y-77558805D01*
X119463089Y-77581591D01*
X119387926Y-77865951D01*
X119264998Y-78191419D01*
X119112064Y-78524677D01*
X118946879Y-78832405D01*
X118787201Y-79081286D01*
X118689087Y-79194000D01*
X118650787Y-79237999D01*
G37*
G36*
X115086507Y-80643887D02*
G01*
X115060482Y-80754700D01*
X115020662Y-80810493D01*
X114963786Y-80833648D01*
X114985451Y-80714348D01*
X115017246Y-80652617D01*
X115075938Y-80624048D01*
X115086507Y-80643887D01*
G37*
G36*
X120179334Y-80294666D02*
G01*
X120137000Y-80337000D01*
X120094667Y-80294666D01*
X120137000Y-80252333D01*
X120179334Y-80294666D01*
G37*
G36*
X117427231Y-77375133D02*
G01*
X117411854Y-77423640D01*
X117283347Y-77522279D01*
X117167049Y-77621883D01*
X116963112Y-77837063D01*
X116715657Y-78125581D01*
X116455175Y-78453166D01*
X116226924Y-78747283D01*
X116023255Y-79001232D01*
X115877703Y-79173121D01*
X115812122Y-79236333D01*
X115803870Y-79235301D01*
X115797483Y-79208392D01*
X115838884Y-79129512D01*
X115941852Y-78978036D01*
X116120165Y-78733336D01*
X116387603Y-78374783D01*
X116674358Y-78009508D01*
X116987324Y-77661472D01*
X117237962Y-77446969D01*
X117417919Y-77374112D01*
X117427231Y-77375133D01*
G37*
G36*
X121064464Y-78988856D02*
G01*
X121068334Y-79067000D01*
X121051032Y-79089880D01*
X120931340Y-79151666D01*
X120902871Y-79145143D01*
X120899000Y-79067000D01*
X120916303Y-79044119D01*
X121035994Y-78982333D01*
X121064464Y-78988856D01*
G37*
G36*
X122712650Y-75987258D02*
G01*
X122778508Y-76143215D01*
X122994500Y-76302830D01*
X123087764Y-76351438D01*
X123173253Y-76418488D01*
X123107001Y-76440405D01*
X122981045Y-76414998D01*
X122795258Y-76307421D01*
X122753702Y-76271489D01*
X122667046Y-76233195D01*
X122587870Y-76300765D01*
X122476480Y-76497921D01*
X122349975Y-76707189D01*
X122144835Y-76999648D01*
X121918371Y-77289000D01*
X121714879Y-77549270D01*
X121515475Y-77836456D01*
X121383815Y-78063104D01*
X121346323Y-78138157D01*
X121258630Y-78278444D01*
X121211010Y-78300631D01*
X121213461Y-78208029D01*
X121307872Y-78004558D01*
X121511801Y-77701334D01*
X121830984Y-77289000D01*
X121864977Y-77246547D01*
X122135434Y-76887985D01*
X122352753Y-76563333D01*
X122497440Y-76303733D01*
X122550000Y-76140329D01*
X122516100Y-76115425D01*
X122380751Y-76128176D01*
X122273594Y-76139521D01*
X122164088Y-76095718D01*
X122162450Y-76092768D01*
X122207246Y-76040568D01*
X122368615Y-76019000D01*
X122556709Y-75988759D01*
X122663261Y-75913166D01*
X122692332Y-75887549D01*
X122712650Y-75987258D01*
G37*
G36*
X120991712Y-77183166D02*
G01*
X120870357Y-77316569D01*
X120801212Y-77373666D01*
X120779424Y-77369454D01*
X120802520Y-77304072D01*
X120962500Y-77153955D01*
X121153000Y-76992666D01*
X120991712Y-77183166D01*
G37*
G36*
X119056517Y-76130476D02*
G01*
X119059483Y-76227885D01*
X119036935Y-76355381D01*
X118993919Y-76415176D01*
X118990064Y-76414991D01*
X118894201Y-76469753D01*
X118711279Y-76606678D01*
X118477156Y-76799124D01*
X118474364Y-76801504D01*
X118211310Y-77012885D01*
X117970268Y-77184928D01*
X117803100Y-77280590D01*
X117716688Y-77314264D01*
X117570991Y-77360377D01*
X117561626Y-77335075D01*
X117691888Y-77233697D01*
X117965076Y-77051582D01*
X118128339Y-76936340D01*
X118448000Y-76673900D01*
X118725862Y-76405532D01*
X118893857Y-76227631D01*
X119009026Y-76126281D01*
X119056517Y-76130476D01*
G37*
G36*
X119065299Y-76781000D02*
G01*
X119053497Y-76897469D01*
X119022594Y-76886833D01*
X119011411Y-76848508D01*
X119022594Y-76675166D01*
X119051993Y-76660804D01*
X119065299Y-76781000D01*
G37*
G36*
X121316890Y-76721151D02*
G01*
X121274667Y-76800165D01*
X121211685Y-76825573D01*
X121202618Y-76784763D01*
X121269494Y-76673755D01*
X121280645Y-76662816D01*
X121342668Y-76622236D01*
X121316890Y-76721151D01*
G37*
G36*
X120087983Y-76646944D02*
G01*
X120081996Y-76732818D01*
X120043514Y-76758069D01*
X120026737Y-76728115D01*
X120036830Y-76595791D01*
X120067306Y-76556602D01*
X120087983Y-76646944D01*
G37*
G36*
X127003786Y-75292302D02*
G01*
X127226356Y-75441072D01*
X127394276Y-75672317D01*
X127460667Y-75934527D01*
X127424163Y-76114087D01*
X127281638Y-76353848D01*
X127076686Y-76538044D01*
X126858244Y-76611666D01*
X126804746Y-76605147D01*
X126600661Y-76541057D01*
X126356621Y-76430664D01*
X126009361Y-76249662D01*
X125613181Y-76427202D01*
X125476472Y-76486327D01*
X125222866Y-76585618D01*
X125047667Y-76640716D01*
X124928382Y-76664315D01*
X124759284Y-76673702D01*
X124606898Y-76619930D01*
X124394480Y-76484666D01*
X124349592Y-76455082D01*
X124062595Y-76312312D01*
X123833394Y-76277968D01*
X123693000Y-76357666D01*
X123625624Y-76406549D01*
X123455170Y-76435649D01*
X123357448Y-76429229D01*
X123347811Y-76405696D01*
X123491000Y-76347760D01*
X123655630Y-76250607D01*
X123802770Y-76079277D01*
X123865832Y-75980312D01*
X123898937Y-75997833D01*
X123906535Y-76036282D01*
X123984972Y-76103666D01*
X123997925Y-76105608D01*
X124122969Y-76175733D01*
X124293668Y-76315333D01*
X124418711Y-76407865D01*
X124752652Y-76518886D01*
X125127911Y-76502634D01*
X125494214Y-76357350D01*
X125523938Y-76339907D01*
X125768274Y-76232303D01*
X125981047Y-76188333D01*
X126038666Y-76186061D01*
X126163075Y-76128401D01*
X126202197Y-75955500D01*
X126210748Y-75812047D01*
X126223916Y-75793403D01*
X126251953Y-75934333D01*
X126278930Y-76032176D01*
X126416160Y-76271318D01*
X126611401Y-76454139D01*
X126813802Y-76527000D01*
X126915702Y-76510144D01*
X127134486Y-76379818D01*
X127306388Y-76168932D01*
X127376000Y-75935757D01*
X127353087Y-75753227D01*
X127201588Y-75502970D01*
X126910236Y-75347256D01*
X126780042Y-75305542D01*
X126741405Y-75275785D01*
X126850682Y-75264277D01*
X127003786Y-75292302D01*
G37*
G36*
X121364667Y-76484666D02*
G01*
X121322334Y-76527000D01*
X121280000Y-76484666D01*
X121322334Y-76442333D01*
X121364667Y-76484666D01*
G37*
G36*
X121413393Y-75793091D02*
G01*
X121380233Y-75939366D01*
X121351981Y-76174091D01*
X121339296Y-76400000D01*
X121304233Y-76169325D01*
X121304586Y-75984313D01*
X121365645Y-75788325D01*
X121406410Y-75725606D01*
X121442748Y-75686276D01*
X121413393Y-75793091D01*
G37*
G36*
X119953302Y-74845939D02*
G01*
X119886657Y-74935062D01*
X119732944Y-75082098D01*
X119686999Y-75124352D01*
X119462946Y-75373910D01*
X119289211Y-75629089D01*
X119288616Y-75630194D01*
X119172534Y-75817911D01*
X119100002Y-75890622D01*
X119091244Y-75842174D01*
X119166484Y-75666418D01*
X119179161Y-75643150D01*
X119304583Y-75462983D01*
X119482949Y-75250233D01*
X119675233Y-75046619D01*
X119842412Y-74893857D01*
X119945463Y-74833666D01*
X119953302Y-74845939D01*
G37*
G36*
X122719334Y-75680333D02*
G01*
X122713224Y-75725155D01*
X122662889Y-75736777D01*
X122652756Y-75724368D01*
X122662889Y-75623888D01*
X122688356Y-75610643D01*
X122719334Y-75680333D01*
G37*
G36*
X123475503Y-75120321D02*
G01*
X123673711Y-75245597D01*
X123836149Y-75420263D01*
X123901667Y-75589258D01*
X123901345Y-75597384D01*
X123867286Y-75632459D01*
X123781812Y-75511533D01*
X123641315Y-75343497D01*
X123424979Y-75197852D01*
X123341737Y-75160310D01*
X123270304Y-75108595D01*
X123348877Y-75091485D01*
X123475503Y-75120321D01*
G37*
G36*
X126256311Y-75365330D02*
G01*
X126336453Y-75373154D01*
X126450227Y-75412435D01*
X126426025Y-75490877D01*
X126332124Y-75554845D01*
X126200600Y-75493668D01*
X126117481Y-75431096D01*
X126030887Y-75368121D01*
X126029590Y-75367094D01*
X126087291Y-75358411D01*
X126256311Y-75365330D01*
G37*
G36*
X121610167Y-75401316D02*
G01*
X121524567Y-75515873D01*
X121457579Y-75547466D01*
X121468751Y-75484684D01*
X121569669Y-75360817D01*
X121655297Y-75280770D01*
X121682468Y-75274267D01*
X121610167Y-75401316D01*
G37*
G36*
X120264000Y-75468666D02*
G01*
X120221667Y-75511000D01*
X120179334Y-75468666D01*
X120221667Y-75426333D01*
X120264000Y-75468666D01*
G37*
G36*
X125540453Y-73102127D02*
G01*
X125818788Y-73226617D01*
X126036495Y-73440573D01*
X126157673Y-73708027D01*
X126146424Y-73993016D01*
X126096530Y-74090465D01*
X125943002Y-74292928D01*
X125736571Y-74509299D01*
X125386334Y-74837748D01*
X125662836Y-75089707D01*
X125744656Y-75169148D01*
X125841851Y-75291837D01*
X125832170Y-75338991D01*
X125816057Y-75336842D01*
X125671779Y-75266477D01*
X125488639Y-75128350D01*
X125368950Y-75012493D01*
X125303836Y-74884954D01*
X125343451Y-74750026D01*
X125386237Y-74640550D01*
X125368146Y-74576352D01*
X125361112Y-74574447D01*
X125411238Y-74533238D01*
X125570443Y-74456126D01*
X125782322Y-74336614D01*
X126001215Y-74097758D01*
X126072397Y-73823787D01*
X125991346Y-73543606D01*
X125753538Y-73286120D01*
X125495370Y-73172250D01*
X125202038Y-73204498D01*
X124918514Y-73396486D01*
X124822953Y-73542289D01*
X124759692Y-73767334D01*
X124761411Y-73980776D01*
X124836000Y-74114000D01*
X124859188Y-74132299D01*
X124917974Y-74267163D01*
X124881349Y-74290142D01*
X124786741Y-74198666D01*
X124692126Y-74088953D01*
X124618007Y-74095954D01*
X124505184Y-74231390D01*
X124361971Y-74360761D01*
X124103421Y-74453016D01*
X123894719Y-74479486D01*
X123646837Y-74531671D01*
X123600398Y-74544383D01*
X123509498Y-74556756D01*
X123564269Y-74504704D01*
X123576956Y-74496648D01*
X123756260Y-74424511D01*
X123996861Y-74366728D01*
X124163375Y-74312834D01*
X124408969Y-74147965D01*
X124593740Y-73928737D01*
X124666667Y-73705513D01*
X124689804Y-73598836D01*
X124823608Y-73390027D01*
X125029784Y-73204831D01*
X125254186Y-73099130D01*
X125540453Y-73102127D01*
G37*
G36*
X122153105Y-74895149D02*
G01*
X122042000Y-74995434D01*
X122036407Y-74999986D01*
X121865072Y-75119382D01*
X121745667Y-75169154D01*
X121737860Y-75168868D01*
X121735766Y-75129555D01*
X121859379Y-75036985D01*
X122084334Y-74909815D01*
X122124755Y-74890232D01*
X122153105Y-74895149D01*
G37*
G36*
X120885495Y-74257489D02*
G01*
X120845666Y-74323683D01*
X120750249Y-74526982D01*
X120645772Y-74787986D01*
X120614497Y-74871000D01*
X120531376Y-75060327D01*
X120475486Y-75111115D01*
X120431087Y-75041986D01*
X120412433Y-74930256D01*
X120496224Y-74846892D01*
X120578298Y-74775090D01*
X120573760Y-74583297D01*
X120561557Y-74507293D01*
X120590882Y-74353685D01*
X120748347Y-74247894D01*
X120838377Y-74208728D01*
X120918845Y-74191544D01*
X120885495Y-74257489D01*
G37*
G36*
X123904667Y-74960666D02*
G01*
X123862334Y-75003000D01*
X123820000Y-74960666D01*
X123862334Y-74918333D01*
X123904667Y-74960666D01*
G37*
G36*
X122780351Y-74439677D02*
G01*
X122790451Y-74643166D01*
X122790730Y-74650721D01*
X122787064Y-74875920D01*
X122741426Y-74978602D01*
X122634667Y-75003000D01*
X122535818Y-74979750D01*
X122465334Y-74880207D01*
X122440207Y-74797368D01*
X122317167Y-74671115D01*
X122245969Y-74617009D01*
X122264467Y-74582241D01*
X122332503Y-74600942D01*
X122465334Y-74706666D01*
X122473363Y-74716226D01*
X122604520Y-74822902D01*
X122691313Y-74771930D01*
X122742753Y-74558500D01*
X122749497Y-74505529D01*
X122768347Y-74396722D01*
X122780351Y-74439677D01*
G37*
G36*
X123365648Y-74584799D02*
G01*
X123327962Y-74641522D01*
X123185000Y-74749000D01*
X123151242Y-74771102D01*
X122980422Y-74874530D01*
X122888667Y-74915892D01*
X122887050Y-74893743D01*
X122973266Y-74813829D01*
X123114482Y-74710454D01*
X123258802Y-74620814D01*
X123354334Y-74582107D01*
X123365648Y-74584799D01*
G37*
G36*
X121491888Y-74582578D02*
G01*
X121482688Y-74637267D01*
X121364667Y-74749000D01*
X121282199Y-74812154D01*
X121144606Y-74903496D01*
X121128981Y-74882444D01*
X121237667Y-74749000D01*
X121362477Y-74637382D01*
X121483623Y-74581549D01*
X121491888Y-74582578D01*
G37*
G36*
X120235778Y-74861888D02*
G01*
X120249024Y-74887355D01*
X120179334Y-74918333D01*
X120134512Y-74912223D01*
X120122889Y-74861888D01*
X120135299Y-74851755D01*
X120235778Y-74861888D01*
G37*
G36*
X121012632Y-74579666D02*
G01*
X121000830Y-74696136D01*
X120969927Y-74685500D01*
X120958745Y-74647175D01*
X120969927Y-74473833D01*
X120999327Y-74459471D01*
X121012632Y-74579666D01*
G37*
G36*
X118458244Y-72738432D02*
G01*
X118531129Y-72911144D01*
X118539133Y-72932426D01*
X118677402Y-73229755D01*
X118840896Y-73501791D01*
X118878431Y-73560443D01*
X119004191Y-73847107D01*
X119076900Y-74154314D01*
X119093151Y-74282075D01*
X119141530Y-74462108D01*
X119244809Y-74555358D01*
X119448011Y-74618088D01*
X119559613Y-74642301D01*
X119798143Y-74648034D01*
X120019511Y-74558526D01*
X120048482Y-74542502D01*
X120201596Y-74482694D01*
X120264000Y-74503934D01*
X120276672Y-74537330D01*
X120369834Y-74529909D01*
X120426110Y-74505222D01*
X120391000Y-74560076D01*
X120290553Y-74625937D01*
X120094667Y-74692016D01*
X119899876Y-74714640D01*
X119587996Y-74706769D01*
X119303978Y-74658116D01*
X119117680Y-74576910D01*
X119102250Y-74561645D01*
X119025286Y-74393687D01*
X118994000Y-74157384D01*
X118957026Y-73901587D01*
X118822415Y-73622366D01*
X118688842Y-73421864D01*
X118546839Y-73147241D01*
X118443457Y-72884919D01*
X118407300Y-72698552D01*
X118413324Y-72681200D01*
X118458244Y-72738432D01*
G37*
G36*
X121817365Y-73883189D02*
G01*
X121820254Y-73891804D01*
X121891737Y-74075091D01*
X121991957Y-74304500D01*
X122020389Y-74366624D01*
X122075782Y-74515663D01*
X122038041Y-74568330D01*
X121889747Y-74569845D01*
X121866452Y-74568705D01*
X121755992Y-74551126D01*
X121812687Y-74520625D01*
X121851962Y-74504349D01*
X121918531Y-74382807D01*
X121878944Y-74196767D01*
X121739691Y-73993134D01*
X121683841Y-73940856D01*
X121619300Y-73931692D01*
X121567148Y-74037166D01*
X121506446Y-74283333D01*
X121498670Y-74313766D01*
X121473657Y-74326903D01*
X121459155Y-74180478D01*
X121461853Y-74104979D01*
X121519121Y-73918739D01*
X121621532Y-73799718D01*
X121732981Y-73777880D01*
X121817365Y-73883189D01*
G37*
G36*
X125127936Y-74378028D02*
G01*
X125192921Y-74407348D01*
X125259334Y-74461725D01*
X125235868Y-74493267D01*
X125138823Y-74481488D01*
X125048267Y-74411303D01*
X125040537Y-74372110D01*
X125127936Y-74378028D01*
G37*
G36*
X122643765Y-73020296D02*
G01*
X122573693Y-73138176D01*
X122430176Y-73303711D01*
X122412559Y-73318887D01*
X122356891Y-73403359D01*
X122386185Y-73519692D01*
X122510220Y-73718569D01*
X122563846Y-73800395D01*
X122674940Y-73994464D01*
X122719017Y-74112487D01*
X122714400Y-74124833D01*
X122655043Y-74075179D01*
X122549199Y-73920656D01*
X122355590Y-73671595D01*
X122169316Y-73582978D01*
X121977422Y-73649425D01*
X121944848Y-73670184D01*
X121962312Y-73639319D01*
X122084334Y-73521849D01*
X122106436Y-73501479D01*
X122333558Y-73279599D01*
X122533310Y-73066785D01*
X122622548Y-72968730D01*
X122676424Y-72931030D01*
X122643765Y-73020296D01*
G37*
G36*
X120856667Y-73521333D02*
G01*
X120814334Y-73563666D01*
X120772000Y-73521333D01*
X120814334Y-73479000D01*
X120856667Y-73521333D01*
G37*
G36*
X120312052Y-72980450D02*
G01*
X120267886Y-73086000D01*
X120165982Y-73270948D01*
X120120820Y-73344027D01*
X120011212Y-73490860D01*
X119947935Y-73529823D01*
X119951075Y-73488316D01*
X120017651Y-73351689D01*
X120125314Y-73180061D01*
X120235399Y-73033231D01*
X120309244Y-72971000D01*
X120312052Y-72980450D01*
G37*
G36*
X120828445Y-73337888D02*
G01*
X120841691Y-73363355D01*
X120772000Y-73394333D01*
X120727178Y-73388223D01*
X120715556Y-73337888D01*
X120727965Y-73327755D01*
X120828445Y-73337888D01*
G37*
G36*
X120914961Y-72805480D02*
G01*
X120940685Y-73012422D01*
X120884889Y-73168555D01*
X120737331Y-73233673D01*
X120584736Y-73169319D01*
X120491638Y-72992166D01*
X120481355Y-72841068D01*
X120520496Y-72717000D01*
X120687334Y-72717000D01*
X120690779Y-72740206D01*
X120776997Y-72801666D01*
X120807621Y-72795018D01*
X120814334Y-72717000D01*
X120796956Y-72691662D01*
X120724670Y-72632333D01*
X120716221Y-72634534D01*
X120687334Y-72717000D01*
X120520496Y-72717000D01*
X120538610Y-72659584D01*
X120658458Y-72577110D01*
X120810085Y-72628806D01*
X120820196Y-72637767D01*
X120864966Y-72717000D01*
X120914961Y-72805480D01*
G37*
G36*
X122788739Y-71965966D02*
G01*
X122831720Y-72097459D01*
X122870566Y-72345051D01*
X122855332Y-72584292D01*
X122813515Y-72730495D01*
X122781221Y-72801583D01*
X122772336Y-72753084D01*
X122762875Y-72576361D01*
X122757609Y-72314750D01*
X122757380Y-72094034D01*
X122765749Y-71959573D01*
X122788739Y-71965966D01*
G37*
G36*
X118844927Y-69911114D02*
G01*
X118802918Y-69948732D01*
X118722874Y-70043255D01*
X118691735Y-70160969D01*
X118703583Y-70349624D01*
X118752501Y-70656972D01*
X118791987Y-70922029D01*
X118807925Y-71215721D01*
X118779544Y-71515169D01*
X118703783Y-71898318D01*
X118681344Y-71996968D01*
X118611284Y-72278574D01*
X118554776Y-72467654D01*
X118522376Y-72527597D01*
X118519784Y-72521650D01*
X118525777Y-72403060D01*
X118561153Y-72170163D01*
X118619585Y-71866016D01*
X118633645Y-71797248D01*
X118695976Y-71404184D01*
X118703952Y-71073728D01*
X118660584Y-70721802D01*
X118658136Y-70707748D01*
X118602701Y-70378123D01*
X118582426Y-70172587D01*
X118604406Y-70049627D01*
X118675733Y-69967729D01*
X118803500Y-69885379D01*
X119036334Y-69743616D01*
X118844927Y-69911114D01*
G37*
G36*
X120941334Y-72336000D02*
G01*
X120899000Y-72378333D01*
X120856667Y-72336000D01*
X120899000Y-72293666D01*
X120941334Y-72336000D01*
G37*
G36*
X122259692Y-71049895D02*
G01*
X122359387Y-71168945D01*
X122485383Y-71356280D01*
X122609554Y-71574000D01*
X122627215Y-71608627D01*
X122691694Y-71749543D01*
X122692617Y-71783459D01*
X122619440Y-71696459D01*
X122494137Y-71519196D01*
X122361123Y-71314148D01*
X122255914Y-71136409D01*
X122214027Y-71041073D01*
X122214429Y-71037030D01*
X122259692Y-71049895D01*
G37*
G36*
X122007233Y-70304000D02*
G01*
X122059200Y-70485544D01*
X122133877Y-70725400D01*
X122151337Y-70781200D01*
X122174446Y-70904826D01*
X122125894Y-70887426D01*
X122110400Y-70867823D01*
X122044580Y-70702386D01*
X121999250Y-70466026D01*
X121990715Y-70379120D01*
X121987805Y-70269339D01*
X122007233Y-70304000D01*
G37*
G36*
X120856667Y-70896666D02*
G01*
X120814334Y-70939000D01*
X120772000Y-70896666D01*
X120814334Y-70854333D01*
X120856667Y-70896666D01*
G37*
G36*
X119444870Y-70071896D02*
G01*
X119625064Y-70310455D01*
X119870918Y-70450379D01*
X120136130Y-70431330D01*
X120311009Y-70376283D01*
X120460012Y-70352774D01*
X120474867Y-70357049D01*
X120427515Y-70400333D01*
X120264000Y-70473333D01*
X120220333Y-70489933D01*
X120016724Y-70561500D01*
X119897654Y-70593892D01*
X119835731Y-70572766D01*
X119688241Y-70457676D01*
X119523331Y-70288042D01*
X119389605Y-70115831D01*
X119335667Y-69993012D01*
X119367737Y-69968962D01*
X119444870Y-70071896D01*
G37*
G36*
X121024704Y-70228759D02*
G01*
X121020625Y-70299431D01*
X120961453Y-70373884D01*
X120793167Y-70359964D01*
X120694419Y-70337797D01*
X120636650Y-70307102D01*
X120729667Y-70277244D01*
X120832452Y-70242279D01*
X120961204Y-70146038D01*
X121002776Y-70121583D01*
X121024704Y-70228759D01*
G37*
G36*
X122119983Y-69958277D02*
G01*
X122113996Y-70044151D01*
X122075514Y-70069402D01*
X122058737Y-70039448D01*
X122068830Y-69907125D01*
X122099306Y-69867935D01*
X122119983Y-69958277D01*
G37*
G36*
X121276675Y-69517466D02*
G01*
X121216500Y-69555739D01*
X121143755Y-69641365D01*
X121100846Y-69824222D01*
X121099454Y-69851927D01*
X121082036Y-69958270D01*
X121051352Y-69896887D01*
X121036098Y-69739301D01*
X121091561Y-69569590D01*
X121213843Y-69506350D01*
X121276675Y-69517466D01*
G37*
G36*
X119210560Y-69672809D02*
G01*
X119290334Y-69753666D01*
X119306104Y-69783643D01*
X119300327Y-69838333D01*
X119285441Y-69834523D01*
X119205667Y-69753666D01*
X119189897Y-69723690D01*
X119195674Y-69669000D01*
X119210560Y-69672809D01*
G37*
G36*
X121744906Y-69447656D02*
G01*
X121789589Y-69448848D01*
X122029552Y-69469267D01*
X122150705Y-69522738D01*
X122197013Y-69626666D01*
X122207873Y-69694769D01*
X122196872Y-69746010D01*
X122113107Y-69652152D01*
X122088857Y-69627156D01*
X121907098Y-69530228D01*
X121661000Y-69473143D01*
X121581229Y-69464587D01*
X121475326Y-69449532D01*
X121528138Y-69444420D01*
X121744906Y-69447656D01*
G37*
G36*
X157326667Y-91901667D02*
G01*
X154363333Y-91901667D01*
X151400000Y-91901667D01*
X151400000Y-88938333D01*
X151400000Y-86821667D01*
X152246667Y-86821667D01*
X152246667Y-88938333D01*
X152246667Y-91055000D01*
X154363333Y-91055000D01*
X156480000Y-91055000D01*
X156480000Y-88938333D01*
X156480000Y-86821667D01*
X154363333Y-86821667D01*
X152246667Y-86821667D01*
X151400000Y-86821667D01*
X151400000Y-85975000D01*
X154363333Y-85975000D01*
X157326667Y-85975000D01*
X157326667Y-88938333D01*
X157326667Y-91901667D01*
G37*
G36*
X134043333Y-90208333D02*
G01*
X134466667Y-90208333D01*
X134466667Y-91055000D01*
X134466667Y-91901667D01*
X133620000Y-91901667D01*
X132773333Y-91901667D01*
X132773333Y-91478333D01*
X132773333Y-91055000D01*
X133196667Y-91055000D01*
X133620000Y-91055000D01*
X133620000Y-90631667D01*
X133620000Y-90208333D01*
X134043333Y-90208333D01*
G37*
G36*
X141240000Y-86821667D02*
G01*
X140816667Y-86821667D01*
X140393333Y-86821667D01*
X140393333Y-88091667D01*
X140393333Y-89361667D01*
X139970000Y-89361667D01*
X139546667Y-89361667D01*
X139546667Y-88938333D01*
X139546667Y-88515000D01*
X138700000Y-88515000D01*
X137853333Y-88515000D01*
X137853333Y-89361667D01*
X137853333Y-90208333D01*
X137430000Y-90208333D01*
X137006667Y-90208333D01*
X137006667Y-90631667D01*
X137006667Y-91055000D01*
X137430000Y-91055000D01*
X137853333Y-91055000D01*
X137853333Y-91478333D01*
X137853333Y-91901667D01*
X137006667Y-91901667D01*
X136160000Y-91901667D01*
X136160000Y-91055000D01*
X136160000Y-90208333D01*
X135736667Y-90208333D01*
X135313333Y-90208333D01*
X135313333Y-89785000D01*
X135313333Y-89361667D01*
X134466667Y-89361667D01*
X133620000Y-89361667D01*
X133620000Y-89785000D01*
X133620000Y-90208333D01*
X133196667Y-90208333D01*
X132773333Y-90208333D01*
X132773333Y-87668333D01*
X132773333Y-86821667D01*
X133620000Y-86821667D01*
X133620000Y-87245000D01*
X133620000Y-87668333D01*
X134043333Y-87668333D01*
X134466667Y-87668333D01*
X134466667Y-88091667D01*
X134466667Y-88515000D01*
X134890000Y-88515000D01*
X135313333Y-88515000D01*
X135313333Y-88938333D01*
X135313333Y-89361667D01*
X135736667Y-89361667D01*
X136160000Y-89361667D01*
X136160000Y-88515000D01*
X136160000Y-87668333D01*
X135736667Y-87668333D01*
X135313333Y-87668333D01*
X135313333Y-86821667D01*
X135313333Y-85975000D01*
X134890000Y-85975000D01*
X134466667Y-85975000D01*
X134466667Y-86398333D01*
X134466667Y-86821667D01*
X134043333Y-86821667D01*
X133620000Y-86821667D01*
X132773333Y-86821667D01*
X132773333Y-85128333D01*
X134043333Y-85128333D01*
X135313333Y-85128333D01*
X135313333Y-85551667D01*
X135313333Y-85975000D01*
X135736667Y-85975000D01*
X136160000Y-85975000D01*
X136160000Y-85128333D01*
X137006667Y-85128333D01*
X137006667Y-86398333D01*
X137006667Y-87668333D01*
X138276667Y-87668333D01*
X139546667Y-87668333D01*
X139546667Y-86398333D01*
X139546667Y-85128333D01*
X138276667Y-85128333D01*
X137006667Y-85128333D01*
X136160000Y-85128333D01*
X136160000Y-84281667D01*
X135736667Y-84281667D01*
X135313333Y-84281667D01*
X135313333Y-83858333D01*
X135313333Y-83435000D01*
X135736667Y-83435000D01*
X136160000Y-83435000D01*
X136160000Y-83011667D01*
X137853333Y-83011667D01*
X137853333Y-83435000D01*
X138276667Y-83435000D01*
X138700000Y-83435000D01*
X138700000Y-83011667D01*
X138700000Y-82588333D01*
X138276667Y-82588333D01*
X137853333Y-82588333D01*
X137853333Y-83011667D01*
X136160000Y-83011667D01*
X136160000Y-82588333D01*
X137006667Y-82588333D01*
X137853333Y-82588333D01*
X137853333Y-82165000D01*
X137853333Y-81741667D01*
X137430000Y-81741667D01*
X137006667Y-81741667D01*
X137006667Y-81318333D01*
X137006667Y-80895000D01*
X137430000Y-80895000D01*
X137853333Y-80895000D01*
X137853333Y-79201667D01*
X137853333Y-77508333D01*
X138700000Y-77508333D01*
X139546667Y-77508333D01*
X139546667Y-77931667D01*
X139546667Y-78355000D01*
X140393333Y-78355000D01*
X141240000Y-78355000D01*
X141240000Y-78778333D01*
X141240000Y-79201667D01*
X139970000Y-79201667D01*
X138700000Y-79201667D01*
X138700000Y-79625000D01*
X138700000Y-80048333D01*
X139546667Y-80048333D01*
X140393333Y-80048333D01*
X140393333Y-80471667D01*
X140393333Y-80895000D01*
X140816667Y-80895000D01*
X141240000Y-80895000D01*
X141240000Y-81318333D01*
X141240000Y-81741667D01*
X140393333Y-81741667D01*
X139546667Y-81741667D01*
X139546667Y-81318333D01*
X139546667Y-80895000D01*
X139123333Y-80895000D01*
X138700000Y-80895000D01*
X138700000Y-81318333D01*
X138700000Y-81741667D01*
X139123333Y-81741667D01*
X139546667Y-81741667D01*
X139546667Y-82588333D01*
X139546667Y-83435000D01*
X140393333Y-83435000D01*
X141240000Y-83435000D01*
X141240000Y-83858333D01*
X141240000Y-84281667D01*
X141663333Y-84281667D01*
X142086667Y-84281667D01*
X142086667Y-83435000D01*
X142086667Y-82588333D01*
X142510000Y-82588333D01*
X142933333Y-82588333D01*
X142933333Y-82165000D01*
X142933333Y-81741667D01*
X143356667Y-81741667D01*
X143780000Y-81741667D01*
X143780000Y-83435000D01*
X143780000Y-85128333D01*
X144203333Y-85128333D01*
X144626667Y-85128333D01*
X144626667Y-83858333D01*
X144626667Y-82588333D01*
X145050000Y-82588333D01*
X145473333Y-82588333D01*
X145473333Y-83011667D01*
X145473333Y-83435000D01*
X146743333Y-83435000D01*
X148013333Y-83435000D01*
X148013333Y-83011667D01*
X148013333Y-82588333D01*
X146743333Y-82588333D01*
X145473333Y-82588333D01*
X145473333Y-82165000D01*
X145473333Y-81741667D01*
X145896667Y-81741667D01*
X146320000Y-81741667D01*
X146320000Y-81318333D01*
X146320000Y-80895000D01*
X146743333Y-80895000D01*
X147166667Y-80895000D01*
X147166667Y-81318333D01*
X147166667Y-81741667D01*
X148013333Y-81741667D01*
X148860000Y-81741667D01*
X148860000Y-83435000D01*
X148860000Y-85128333D01*
X148013333Y-85128333D01*
X147166667Y-85128333D01*
X147166667Y-84705000D01*
X147166667Y-84281667D01*
X146320000Y-84281667D01*
X145473333Y-84281667D01*
X145473333Y-85128333D01*
X145473333Y-85975000D01*
X144203333Y-85975000D01*
X142933333Y-85975000D01*
X142933333Y-85551667D01*
X142933333Y-85128333D01*
X142086667Y-85128333D01*
X141240000Y-85128333D01*
X141240000Y-85975000D01*
X141240000Y-86398333D01*
X141240000Y-86821667D01*
G37*
G36*
X149706667Y-86821667D02*
G01*
X149706667Y-87668333D01*
X149283333Y-87668333D01*
X148860000Y-87668333D01*
X148860000Y-88091667D01*
X148860000Y-88515000D01*
X149283333Y-88515000D01*
X149706667Y-88515000D01*
X149706667Y-88091667D01*
X149706667Y-87668333D01*
X150130000Y-87668333D01*
X150553333Y-87668333D01*
X150553333Y-88091667D01*
X150553333Y-88515000D01*
X150130000Y-88515000D01*
X149706667Y-88515000D01*
X149706667Y-88938333D01*
X149706667Y-89361667D01*
X149283333Y-89361667D01*
X148860000Y-89361667D01*
X148860000Y-90208333D01*
X148860000Y-91055000D01*
X148436667Y-91055000D01*
X148013333Y-91055000D01*
X148013333Y-91478333D01*
X148013333Y-91901667D01*
X147166667Y-91901667D01*
X146320000Y-91901667D01*
X146320000Y-91478333D01*
X146320000Y-91055000D01*
X145050000Y-91055000D01*
X143780000Y-91055000D01*
X143780000Y-91478333D01*
X143780000Y-91901667D01*
X143356667Y-91901667D01*
X142933333Y-91901667D01*
X142933333Y-91478333D01*
X142933333Y-91055000D01*
X142086667Y-91055000D01*
X141240000Y-91055000D01*
X141240000Y-91478333D01*
X141240000Y-91901667D01*
X139970000Y-91901667D01*
X138700000Y-91901667D01*
X138700000Y-91055000D01*
X138700000Y-90208333D01*
X139546667Y-90208333D01*
X140393333Y-90208333D01*
X140393333Y-89785000D01*
X140393333Y-89361667D01*
X140816667Y-89361667D01*
X141240000Y-89361667D01*
X141240000Y-89785000D01*
X141240000Y-90208333D01*
X142933333Y-90208333D01*
X144626667Y-90208333D01*
X144626667Y-89785000D01*
X144626667Y-89361667D01*
X145050000Y-89361667D01*
X145473333Y-89361667D01*
X145473333Y-89785000D01*
X145473333Y-90208333D01*
X146320000Y-90208333D01*
X147166667Y-90208333D01*
X147166667Y-90631667D01*
X147166667Y-91055000D01*
X147590000Y-91055000D01*
X148013333Y-91055000D01*
X148013333Y-89785000D01*
X148013333Y-88515000D01*
X147590000Y-88515000D01*
X147166667Y-88515000D01*
X147166667Y-87668333D01*
X147166667Y-86821667D01*
X147590000Y-86821667D01*
X148013333Y-86821667D01*
X148013333Y-87245000D01*
X148013333Y-87668333D01*
X148436667Y-87668333D01*
X148860000Y-87668333D01*
X148860000Y-86821667D01*
X148860000Y-85975000D01*
X149283333Y-85975000D01*
X149706667Y-85975000D01*
X149706667Y-86821667D01*
G37*
G36*
X149706667Y-91055000D02*
G01*
X150553333Y-91055000D01*
X150553333Y-91478333D01*
X150553333Y-91901667D01*
X149706667Y-91901667D01*
X148860000Y-91901667D01*
X148860000Y-91478333D01*
X148860000Y-91055000D01*
X149706667Y-91055000D01*
G37*
G36*
X150130000Y-89361667D02*
G01*
X150553333Y-89361667D01*
X150553333Y-89785000D01*
X150553333Y-90208333D01*
X150130000Y-90208333D01*
X149706667Y-90208333D01*
X149706667Y-89785000D01*
X149706667Y-89361667D01*
X150130000Y-89361667D01*
G37*
G36*
X154786667Y-80048333D02*
G01*
X154786667Y-80895000D01*
X153940000Y-80895000D01*
X153093333Y-80895000D01*
X153093333Y-80471667D01*
X153093333Y-80048333D01*
X152246667Y-80048333D01*
X151400000Y-80048333D01*
X151400000Y-80471667D01*
X151400000Y-80895000D01*
X152246667Y-80895000D01*
X153093333Y-80895000D01*
X153093333Y-81318333D01*
X153093333Y-81741667D01*
X153516667Y-81741667D01*
X153940000Y-81741667D01*
X153940000Y-82165000D01*
X153940000Y-82588333D01*
X153516667Y-82588333D01*
X153093333Y-82588333D01*
X153093333Y-83011667D01*
X153093333Y-83435000D01*
X153940000Y-83435000D01*
X154786667Y-83435000D01*
X154786667Y-83011667D01*
X154786667Y-82588333D01*
X155210000Y-82588333D01*
X155633333Y-82588333D01*
X155633333Y-83011667D01*
X155633333Y-83435000D01*
X156056667Y-83435000D01*
X156480000Y-83435000D01*
X156480000Y-83011667D01*
X156480000Y-82588333D01*
X156903333Y-82588333D01*
X157326667Y-82588333D01*
X157326667Y-83011667D01*
X157326667Y-83435000D01*
X156903333Y-83435000D01*
X156480000Y-83435000D01*
X156480000Y-83858333D01*
X156480000Y-84281667D01*
X156056667Y-84281667D01*
X155633333Y-84281667D01*
X155633333Y-83858333D01*
X155633333Y-83435000D01*
X155210000Y-83435000D01*
X154786667Y-83435000D01*
X154786667Y-83858333D01*
X154786667Y-84281667D01*
X154363333Y-84281667D01*
X153940000Y-84281667D01*
X153940000Y-84705000D01*
X153940000Y-85128333D01*
X153516667Y-85128333D01*
X153093333Y-85128333D01*
X153093333Y-84281667D01*
X153093333Y-83435000D01*
X151823333Y-83435000D01*
X150553333Y-83435000D01*
X150553333Y-83858333D01*
X150553333Y-84281667D01*
X151400000Y-84281667D01*
X152246667Y-84281667D01*
X152246667Y-84705000D01*
X152246667Y-85128333D01*
X151400000Y-85128333D01*
X150553333Y-85128333D01*
X150553333Y-85551667D01*
X150553333Y-85975000D01*
X150130000Y-85975000D01*
X149706667Y-85975000D01*
X149706667Y-84281667D01*
X149706667Y-82588333D01*
X150976667Y-82588333D01*
X152246667Y-82588333D01*
X152246667Y-82165000D01*
X152246667Y-81741667D01*
X150976667Y-81741667D01*
X149706667Y-81741667D01*
X149706667Y-80895000D01*
X149706667Y-80048333D01*
X150130000Y-80048333D01*
X150553333Y-80048333D01*
X150553333Y-79625000D01*
X150553333Y-79201667D01*
X152670000Y-79201667D01*
X154786667Y-79201667D01*
X154786667Y-80048333D01*
G37*
G36*
X156903333Y-84281667D02*
G01*
X157326667Y-84281667D01*
X157326667Y-84705000D01*
X157326667Y-85128333D01*
X156903333Y-85128333D01*
X156480000Y-85128333D01*
X156480000Y-84705000D01*
X156480000Y-84281667D01*
X156903333Y-84281667D01*
G37*
G36*
X136160000Y-82588333D02*
G01*
X135313333Y-82588333D01*
X134466667Y-82588333D01*
X134466667Y-83435000D01*
X134466667Y-84281667D01*
X134043333Y-84281667D01*
X133620000Y-84281667D01*
X133620000Y-83858333D01*
X133620000Y-83435000D01*
X133196667Y-83435000D01*
X132773333Y-83435000D01*
X132773333Y-82165000D01*
X132773333Y-81741667D01*
X133620000Y-81741667D01*
X133620000Y-82165000D01*
X133620000Y-82588333D01*
X134043333Y-82588333D01*
X134466667Y-82588333D01*
X134466667Y-82165000D01*
X134466667Y-81741667D01*
X134043333Y-81741667D01*
X133620000Y-81741667D01*
X132773333Y-81741667D01*
X132773333Y-80895000D01*
X133196667Y-80895000D01*
X133620000Y-80895000D01*
X133620000Y-80471667D01*
X133620000Y-80048333D01*
X133196667Y-80048333D01*
X132773333Y-80048333D01*
X132773333Y-78778333D01*
X132773333Y-77508333D01*
X133196667Y-77508333D01*
X133620000Y-77508333D01*
X133620000Y-77085000D01*
X133620000Y-76661667D01*
X133196667Y-76661667D01*
X132773333Y-76661667D01*
X132773333Y-75815000D01*
X132773333Y-74968333D01*
X133196667Y-74968333D01*
X133620000Y-74968333D01*
X133620000Y-75391667D01*
X133620000Y-75815000D01*
X134466667Y-75815000D01*
X135313333Y-75815000D01*
X135313333Y-75391667D01*
X135313333Y-74968333D01*
X135736667Y-74968333D01*
X136160000Y-74968333D01*
X136160000Y-75391667D01*
X136160000Y-75815000D01*
X135736667Y-75815000D01*
X135313333Y-75815000D01*
X135313333Y-76238333D01*
X135313333Y-76661667D01*
X134890000Y-76661667D01*
X134466667Y-76661667D01*
X134466667Y-77508333D01*
X134466667Y-78355000D01*
X134043333Y-78355000D01*
X133620000Y-78355000D01*
X133620000Y-78778333D01*
X133620000Y-79201667D01*
X134043333Y-79201667D01*
X134466667Y-79201667D01*
X134466667Y-80471667D01*
X134466667Y-81741667D01*
X134890000Y-81741667D01*
X135313333Y-81741667D01*
X135313333Y-79625000D01*
X135313333Y-77508333D01*
X135736667Y-77508333D01*
X136160000Y-77508333D01*
X136160000Y-78355000D01*
X136160000Y-79201667D01*
X136583333Y-79201667D01*
X137006667Y-79201667D01*
X137006667Y-79625000D01*
X137006667Y-80048333D01*
X136583333Y-80048333D01*
X136160000Y-80048333D01*
X136160000Y-81318333D01*
X136160000Y-82165000D01*
X136160000Y-82588333D01*
G37*
G36*
X156056667Y-79201667D02*
G01*
X156480000Y-79201667D01*
X156480000Y-79625000D01*
X156480000Y-80048333D01*
X156903333Y-80048333D01*
X157326667Y-80048333D01*
X157326667Y-80471667D01*
X157326667Y-80895000D01*
X156903333Y-80895000D01*
X156480000Y-80895000D01*
X156480000Y-81741667D01*
X156480000Y-82588333D01*
X156056667Y-82588333D01*
X155633333Y-82588333D01*
X155633333Y-80895000D01*
X155633333Y-79201667D01*
X156056667Y-79201667D01*
G37*
G36*
X147166667Y-74121667D02*
G01*
X146743333Y-74121667D01*
X146320000Y-74121667D01*
X146320000Y-74545000D01*
X146320000Y-74968333D01*
X148436667Y-74968333D01*
X150553333Y-74968333D01*
X150553333Y-75391667D01*
X150553333Y-75815000D01*
X151823333Y-75815000D01*
X153093333Y-75815000D01*
X153940000Y-75815000D01*
X153940000Y-76238333D01*
X153940000Y-76661667D01*
X154786667Y-76661667D01*
X155633333Y-76661667D01*
X155633333Y-75815000D01*
X155633333Y-74968333D01*
X155210000Y-74968333D01*
X154786667Y-74968333D01*
X154786667Y-75391667D01*
X154786667Y-75815000D01*
X154363333Y-75815000D01*
X153940000Y-75815000D01*
X153093333Y-75815000D01*
X153093333Y-74968333D01*
X153093333Y-74121667D01*
X153516667Y-74121667D01*
X153940000Y-74121667D01*
X153940000Y-74545000D01*
X153940000Y-74968333D01*
X154363333Y-74968333D01*
X154786667Y-74968333D01*
X154786667Y-74545000D01*
X154786667Y-74121667D01*
X155210000Y-74121667D01*
X155633333Y-74121667D01*
X155633333Y-74545000D01*
X155633333Y-74968333D01*
X156056667Y-74968333D01*
X156480000Y-74968333D01*
X156480000Y-74545000D01*
X156480000Y-74121667D01*
X156903333Y-74121667D01*
X157326667Y-74121667D01*
X157326667Y-74545000D01*
X157326667Y-74968333D01*
X156903333Y-74968333D01*
X156480000Y-74968333D01*
X156480000Y-75815000D01*
X156480000Y-76661667D01*
X156056667Y-76661667D01*
X155633333Y-76661667D01*
X155633333Y-77931667D01*
X155633333Y-79201667D01*
X155210000Y-79201667D01*
X154786667Y-79201667D01*
X154786667Y-78355000D01*
X154786667Y-77508333D01*
X154363333Y-77508333D01*
X153940000Y-77508333D01*
X153940000Y-77931667D01*
X153940000Y-78355000D01*
X153516667Y-78355000D01*
X153093333Y-78355000D01*
X153093333Y-77508333D01*
X153093333Y-76661667D01*
X151823333Y-76661667D01*
X150553333Y-76661667D01*
X150553333Y-77085000D01*
X150553333Y-77508333D01*
X151400000Y-77508333D01*
X152246667Y-77508333D01*
X152246667Y-77931667D01*
X152246667Y-78355000D01*
X150976667Y-78355000D01*
X149706667Y-78355000D01*
X149706667Y-78778333D01*
X149706667Y-79201667D01*
X149283333Y-79201667D01*
X148860000Y-79201667D01*
X148860000Y-78778333D01*
X148860000Y-78355000D01*
X148436667Y-78355000D01*
X148013333Y-78355000D01*
X148013333Y-77931667D01*
X148013333Y-77508333D01*
X148860000Y-77508333D01*
X149706667Y-77508333D01*
X149706667Y-76661667D01*
X149706667Y-75815000D01*
X149283333Y-75815000D01*
X148860000Y-75815000D01*
X148860000Y-76238333D01*
X148860000Y-76661667D01*
X148436667Y-76661667D01*
X148013333Y-76661667D01*
X148013333Y-76238333D01*
X148013333Y-75815000D01*
X147166667Y-75815000D01*
X146320000Y-75815000D01*
X146320000Y-76661667D01*
X146320000Y-77508333D01*
X145896667Y-77508333D01*
X145473333Y-77508333D01*
X145473333Y-77085000D01*
X145473333Y-76661667D01*
X145050000Y-76661667D01*
X144626667Y-76661667D01*
X144626667Y-75815000D01*
X144626667Y-74968333D01*
X144203333Y-74968333D01*
X143780000Y-74968333D01*
X143780000Y-75391667D01*
X143780000Y-75815000D01*
X143356667Y-75815000D01*
X142933333Y-75815000D01*
X142933333Y-74968333D01*
X142933333Y-74545000D01*
X144626667Y-74545000D01*
X144626667Y-74968333D01*
X145050000Y-74968333D01*
X145473333Y-74968333D01*
X145473333Y-74545000D01*
X145473333Y-74121667D01*
X145050000Y-74121667D01*
X144626667Y-74121667D01*
X144626667Y-74545000D01*
X142933333Y-74545000D01*
X142933333Y-74121667D01*
X142086667Y-74121667D01*
X141240000Y-74121667D01*
X141240000Y-74545000D01*
X141240000Y-74968333D01*
X140816667Y-74968333D01*
X140393333Y-74968333D01*
X140393333Y-75815000D01*
X140393333Y-76661667D01*
X140816667Y-76661667D01*
X141240000Y-76661667D01*
X141240000Y-77085000D01*
X141240000Y-77508333D01*
X140393333Y-77508333D01*
X139546667Y-77508333D01*
X139546667Y-77085000D01*
X139546667Y-76661667D01*
X138700000Y-76661667D01*
X137853333Y-76661667D01*
X137853333Y-77085000D01*
X137853333Y-77508333D01*
X137006667Y-77508333D01*
X136160000Y-77508333D01*
X136160000Y-76661667D01*
X136160000Y-75815000D01*
X136583333Y-75815000D01*
X137006667Y-75815000D01*
X137006667Y-76238333D01*
X137006667Y-76661667D01*
X137430000Y-76661667D01*
X137853333Y-76661667D01*
X137853333Y-75815000D01*
X137853333Y-74968333D01*
X138276667Y-74968333D01*
X138700000Y-74968333D01*
X138700000Y-75391667D01*
X138700000Y-75815000D01*
X139123333Y-75815000D01*
X139546667Y-75815000D01*
X139546667Y-74968333D01*
X139546667Y-74121667D01*
X139970000Y-74121667D01*
X140393333Y-74121667D01*
X140393333Y-73698333D01*
X140393333Y-73275000D01*
X139970000Y-73275000D01*
X139546667Y-73275000D01*
X139546667Y-72851667D01*
X139546667Y-72428333D01*
X139970000Y-72428333D01*
X140393333Y-72428333D01*
X140393333Y-72851667D01*
X140393333Y-73275000D01*
X140816667Y-73275000D01*
X141240000Y-73275000D01*
X141240000Y-72851667D01*
X141240000Y-72428333D01*
X141663333Y-72428333D01*
X142086667Y-72428333D01*
X142086667Y-72851667D01*
X142086667Y-73275000D01*
X142510000Y-73275000D01*
X142933333Y-73275000D01*
X142933333Y-72851667D01*
X142933333Y-72428333D01*
X143356667Y-72428333D01*
X143780000Y-72428333D01*
X143780000Y-73275000D01*
X143780000Y-74121667D01*
X144203333Y-74121667D01*
X144626667Y-74121667D01*
X144626667Y-73275000D01*
X144626667Y-72428333D01*
X145473333Y-72428333D01*
X145473333Y-72851667D01*
X145473333Y-73275000D01*
X145896667Y-73275000D01*
X146320000Y-73275000D01*
X146320000Y-72851667D01*
X146320000Y-72428333D01*
X145896667Y-72428333D01*
X145473333Y-72428333D01*
X144626667Y-72428333D01*
X144203333Y-72428333D01*
X143780000Y-72428333D01*
X143780000Y-71581667D01*
X143780000Y-70735000D01*
X143356667Y-70735000D01*
X142933333Y-70735000D01*
X142933333Y-70311667D01*
X142933333Y-69888333D01*
X144203333Y-69888333D01*
X145473333Y-69888333D01*
X145473333Y-70735000D01*
X145473333Y-71581667D01*
X145896667Y-71581667D01*
X146320000Y-71581667D01*
X146320000Y-70735000D01*
X146320000Y-69888333D01*
X146743333Y-69888333D01*
X147166667Y-69888333D01*
X147166667Y-70311667D01*
X147166667Y-70735000D01*
X147590000Y-70735000D01*
X148013333Y-70735000D01*
X148013333Y-69888333D01*
X148013333Y-69041667D01*
X147590000Y-69041667D01*
X147166667Y-69041667D01*
X147166667Y-68618333D01*
X147166667Y-68195000D01*
X146743333Y-68195000D01*
X146320000Y-68195000D01*
X146320000Y-68618333D01*
X146320000Y-69041667D01*
X145896667Y-69041667D01*
X145473333Y-69041667D01*
X145473333Y-68618333D01*
X145473333Y-68195000D01*
X145050000Y-68195000D01*
X144626667Y-68195000D01*
X144626667Y-68618333D01*
X144626667Y-69041667D01*
X144203333Y-69041667D01*
X143780000Y-69041667D01*
X143780000Y-68195000D01*
X143780000Y-67348333D01*
X145896667Y-67348333D01*
X148013333Y-67348333D01*
X148013333Y-67771667D01*
X148013333Y-68195000D01*
X149283333Y-68195000D01*
X150553333Y-68195000D01*
X150553333Y-68618333D01*
X150553333Y-69041667D01*
X150130000Y-69041667D01*
X149706667Y-69041667D01*
X149706667Y-69888333D01*
X149706667Y-70735000D01*
X149283333Y-70735000D01*
X148860000Y-70735000D01*
X148860000Y-71158333D01*
X148860000Y-71581667D01*
X149283333Y-71581667D01*
X149706667Y-71581667D01*
X149706667Y-71158333D01*
X149706667Y-70735000D01*
X150130000Y-70735000D01*
X150553333Y-70735000D01*
X150553333Y-71158333D01*
X150553333Y-71581667D01*
X150130000Y-71581667D01*
X149706667Y-71581667D01*
X149706667Y-72005000D01*
X149706667Y-72428333D01*
X149283333Y-72428333D01*
X148860000Y-72428333D01*
X148860000Y-72005000D01*
X148860000Y-71581667D01*
X148013333Y-71581667D01*
X147166667Y-71581667D01*
X147166667Y-72851667D01*
X147166667Y-74121667D01*
G37*
G36*
X156903333Y-76661667D02*
G01*
X157326667Y-76661667D01*
X157326667Y-77085000D01*
X157326667Y-77508333D01*
X156903333Y-77508333D01*
X156480000Y-77508333D01*
X156480000Y-77085000D01*
X156480000Y-76661667D01*
X156903333Y-76661667D01*
G37*
G36*
X150130000Y-72428333D02*
G01*
X150553333Y-72428333D01*
X150553333Y-72851667D01*
X150553333Y-73275000D01*
X150130000Y-73275000D01*
X149706667Y-73275000D01*
X149706667Y-72851667D01*
X149706667Y-72428333D01*
X150130000Y-72428333D01*
G37*
G36*
X142086667Y-70311667D02*
G01*
X142086667Y-70735000D01*
X141663333Y-70735000D01*
X141240000Y-70735000D01*
X141240000Y-71581667D01*
X141240000Y-72428333D01*
X140816667Y-72428333D01*
X140393333Y-72428333D01*
X140393333Y-71158333D01*
X140393333Y-69888333D01*
X141240000Y-69888333D01*
X142086667Y-69888333D01*
X142086667Y-70311667D01*
G37*
G36*
X137006667Y-74545000D02*
G01*
X137006667Y-74968333D01*
X136583333Y-74968333D01*
X136160000Y-74968333D01*
X136160000Y-74545000D01*
X136160000Y-74121667D01*
X136583333Y-74121667D01*
X137006667Y-74121667D01*
X137006667Y-74545000D01*
G37*
G36*
X134466667Y-74545000D02*
G01*
X134466667Y-74968333D01*
X134043333Y-74968333D01*
X133620000Y-74968333D01*
X133620000Y-74545000D01*
X133620000Y-74121667D01*
X134043333Y-74121667D01*
X134466667Y-74121667D01*
X134466667Y-74545000D01*
G37*
G36*
X148860000Y-72851667D02*
G01*
X148860000Y-73275000D01*
X148436667Y-73275000D01*
X148013333Y-73275000D01*
X148013333Y-72851667D01*
X148013333Y-72428333D01*
X148436667Y-72428333D01*
X148860000Y-72428333D01*
X148860000Y-72851667D01*
G37*
G36*
X152246667Y-74545000D02*
G01*
X152246667Y-74968333D01*
X151823333Y-74968333D01*
X151400000Y-74968333D01*
X151400000Y-74545000D01*
X151400000Y-74121667D01*
X151823333Y-74121667D01*
X152246667Y-74121667D01*
X152246667Y-74545000D01*
G37*
G36*
X157326667Y-73275000D02*
G01*
X154363333Y-73275000D01*
X151400000Y-73275000D01*
X151400000Y-70311667D01*
X151400000Y-68195000D01*
X152246667Y-68195000D01*
X152246667Y-70311667D01*
X152246667Y-72428333D01*
X154363333Y-72428333D01*
X156480000Y-72428333D01*
X156480000Y-70311667D01*
X156480000Y-68195000D01*
X154363333Y-68195000D01*
X152246667Y-68195000D01*
X151400000Y-68195000D01*
X151400000Y-67348333D01*
X154363333Y-67348333D01*
X157326667Y-67348333D01*
X157326667Y-70311667D01*
X157326667Y-73275000D01*
G37*
G36*
X138700000Y-73275000D02*
G01*
X135736667Y-73275000D01*
X132773333Y-73275000D01*
X132773333Y-70311667D01*
X132773333Y-68195000D01*
X133620000Y-68195000D01*
X133620000Y-70311667D01*
X133620000Y-72428333D01*
X135736667Y-72428333D01*
X137853333Y-72428333D01*
X137853333Y-70311667D01*
X137853333Y-68195000D01*
X135736667Y-68195000D01*
X133620000Y-68195000D01*
X132773333Y-68195000D01*
X132773333Y-67348333D01*
X135736667Y-67348333D01*
X138700000Y-67348333D01*
X138700000Y-70311667D01*
X138700000Y-73275000D01*
G37*
G36*
X141240000Y-67771667D02*
G01*
X141240000Y-68195000D01*
X142086667Y-68195000D01*
X142933333Y-68195000D01*
X142933333Y-68618333D01*
X142933333Y-69041667D01*
X141240000Y-69041667D01*
X139546667Y-69041667D01*
X139546667Y-68618333D01*
X139546667Y-68195000D01*
X139970000Y-68195000D01*
X140393333Y-68195000D01*
X140393333Y-67771667D01*
X140393333Y-67348333D01*
X140816667Y-67348333D01*
X141240000Y-67348333D01*
X141240000Y-67771667D01*
G37*
G36*
X155633333Y-88938333D02*
G01*
X155633333Y-90208333D01*
X154363333Y-90208333D01*
X153093333Y-90208333D01*
X153093333Y-88938333D01*
X153093333Y-87668333D01*
X154363333Y-87668333D01*
X155633333Y-87668333D01*
X155633333Y-88938333D01*
G37*
G36*
X146320000Y-88938333D02*
G01*
X146320000Y-89361667D01*
X145896667Y-89361667D01*
X145473333Y-89361667D01*
X145473333Y-88938333D01*
X145473333Y-88515000D01*
X145896667Y-88515000D01*
X146320000Y-88515000D01*
X146320000Y-88938333D01*
G37*
G36*
X142933333Y-86398333D02*
G01*
X142933333Y-86821667D01*
X143356667Y-86821667D01*
X143780000Y-86821667D01*
X143780000Y-87668333D01*
X143780000Y-88515000D01*
X144203333Y-88515000D01*
X144626667Y-88515000D01*
X144626667Y-88938333D01*
X144626667Y-89361667D01*
X143356667Y-89361667D01*
X142086667Y-89361667D01*
X142086667Y-88938333D01*
X142086667Y-88515000D01*
X142510000Y-88515000D01*
X142933333Y-88515000D01*
X142933333Y-88091667D01*
X142933333Y-87668333D01*
X142086667Y-87668333D01*
X141240000Y-87668333D01*
X141240000Y-87245000D01*
X141240000Y-86821667D01*
X141663333Y-86821667D01*
X142086667Y-86821667D01*
X142086667Y-86398333D01*
X142086667Y-85975000D01*
X142510000Y-85975000D01*
X142933333Y-85975000D01*
X142933333Y-86398333D01*
G37*
G36*
X146320000Y-86398333D02*
G01*
X146320000Y-86821667D01*
X145896667Y-86821667D01*
X145473333Y-86821667D01*
X145473333Y-86398333D01*
X145473333Y-85975000D01*
X145896667Y-85975000D01*
X146320000Y-85975000D01*
X146320000Y-86398333D01*
G37*
G36*
X142933333Y-80895000D02*
G01*
X142933333Y-81741667D01*
X142510000Y-81741667D01*
X142086667Y-81741667D01*
X142086667Y-81318333D01*
X142086667Y-80895000D01*
X141663333Y-80895000D01*
X141240000Y-80895000D01*
X141240000Y-80471667D01*
X141240000Y-80048333D01*
X142086667Y-80048333D01*
X142933333Y-80048333D01*
X142933333Y-80895000D01*
G37*
G36*
X142933333Y-76661667D02*
G01*
X143780000Y-76661667D01*
X143780000Y-77085000D01*
X143780000Y-77508333D01*
X144626667Y-77508333D01*
X145473333Y-77508333D01*
X145473333Y-77931667D01*
X145473333Y-78355000D01*
X144626667Y-78355000D01*
X143780000Y-78355000D01*
X143780000Y-79201667D01*
X143780000Y-80048333D01*
X143356667Y-80048333D01*
X142933333Y-80048333D01*
X142933333Y-79625000D01*
X142933333Y-79201667D01*
X142510000Y-79201667D01*
X142086667Y-79201667D01*
X142086667Y-77931667D01*
X142086667Y-76661667D01*
X142933333Y-76661667D01*
G37*
G36*
X142086667Y-76238333D02*
G01*
X142086667Y-76661667D01*
X141663333Y-76661667D01*
X141240000Y-76661667D01*
X141240000Y-76238333D01*
X141240000Y-75815000D01*
X141663333Y-75815000D01*
X142086667Y-75815000D01*
X142086667Y-76238333D01*
G37*
G36*
X147590000Y-79201667D02*
G01*
X148013333Y-79201667D01*
X148013333Y-79625000D01*
X148013333Y-80048333D01*
X147590000Y-80048333D01*
X147166667Y-80048333D01*
X147166667Y-79625000D01*
X147166667Y-79201667D01*
X147590000Y-79201667D01*
G37*
G36*
X147166667Y-78778333D02*
G01*
X147166667Y-79201667D01*
X146743333Y-79201667D01*
X146320000Y-79201667D01*
X146320000Y-78778333D01*
X146320000Y-78355000D01*
X146743333Y-78355000D01*
X147166667Y-78355000D01*
X147166667Y-78778333D01*
G37*
G36*
X146320000Y-79625000D02*
G01*
X146320000Y-80048333D01*
X145896667Y-80048333D01*
X145473333Y-80048333D01*
X145473333Y-79625000D01*
X145473333Y-79201667D01*
X145896667Y-79201667D01*
X146320000Y-79201667D01*
X146320000Y-79625000D01*
G37*
G36*
X148013333Y-77085000D02*
G01*
X148013333Y-77508333D01*
X147590000Y-77508333D01*
X147166667Y-77508333D01*
X147166667Y-77085000D01*
X147166667Y-76661667D01*
X147590000Y-76661667D01*
X148013333Y-76661667D01*
X148013333Y-77085000D01*
G37*
G36*
X138700000Y-86398333D02*
G01*
X138700000Y-86821667D01*
X138276667Y-86821667D01*
X137853333Y-86821667D01*
X137853333Y-86398333D01*
X137853333Y-85975000D01*
X138276667Y-85975000D01*
X138700000Y-85975000D01*
X138700000Y-86398333D01*
G37*
G36*
X155633333Y-70311667D02*
G01*
X155633333Y-71581667D01*
X154363333Y-71581667D01*
X153093333Y-71581667D01*
X153093333Y-70311667D01*
X153093333Y-69041667D01*
X154363333Y-69041667D01*
X155633333Y-69041667D01*
X155633333Y-70311667D01*
G37*
G36*
X137006667Y-70311667D02*
G01*
X137006667Y-71581667D01*
X135736667Y-71581667D01*
X134466667Y-71581667D01*
X134466667Y-70311667D01*
X134466667Y-69041667D01*
X135736667Y-69041667D01*
X137006667Y-69041667D01*
X137006667Y-70311667D01*
G37*
%TD*%
M02*
