%TF.GenerationSoftware,KiCad,Pcbnew,9.0.3*%
%TF.CreationDate,2026-02-26T20:24:34-03:00*%
%TF.ProjectId,EEGFrontier,45454746-726f-46e7-9469-65722e6b6963,rev?*%
%TF.SameCoordinates,Original*%
%TF.FileFunction,Copper,L1,Top*%
%TF.FilePolarity,Positive*%
%FSLAX46Y46*%
G04 Gerber Fmt 4.6, Leading zero omitted, Abs format (unit mm)*
G04 Created by KiCad (PCBNEW 9.0.3) date 2026-02-26 20:24:34*
%MOMM*%
%LPD*%
G01*
G04 APERTURE LIST*
G04 Aperture macros list*
%AMRoundRect*
0 Rectangle with rounded corners*
0 $1 Rounding radius*
0 $2 $3 $4 $5 $6 $7 $8 $9 X,Y pos of 4 corners*
0 Add a 4 corners polygon primitive as box body*
4,1,4,$2,$3,$4,$5,$6,$7,$8,$9,$2,$3,0*
0 Add four circle primitives for the rounded corners*
1,1,$1+$1,$2,$3*
1,1,$1+$1,$4,$5*
1,1,$1+$1,$6,$7*
1,1,$1+$1,$8,$9*
0 Add four rect primitives between the rounded corners*
20,1,$1+$1,$2,$3,$4,$5,0*
20,1,$1+$1,$4,$5,$6,$7,0*
20,1,$1+$1,$6,$7,$8,$9,0*
20,1,$1+$1,$8,$9,$2,$3,0*%
G04 Aperture macros list end*
%TA.AperFunction,ComponentPad*%
%ADD10R,1.700000X1.700000*%
%TD*%
%TA.AperFunction,ComponentPad*%
%ADD11C,1.700000*%
%TD*%
%TA.AperFunction,SMDPad,CuDef*%
%ADD12RoundRect,0.225000X0.250000X-0.225000X0.250000X0.225000X-0.250000X0.225000X-0.250000X-0.225000X0*%
%TD*%
%TA.AperFunction,SMDPad,CuDef*%
%ADD13RoundRect,0.035000X-0.105000X-0.745000X0.105000X-0.745000X0.105000X0.745000X-0.105000X0.745000X0*%
%TD*%
%TA.AperFunction,SMDPad,CuDef*%
%ADD14RoundRect,0.035000X-0.745000X-0.105000X0.745000X-0.105000X0.745000X0.105000X-0.745000X0.105000X0*%
%TD*%
%TA.AperFunction,SMDPad,CuDef*%
%ADD15RoundRect,0.500000X-0.875000X-0.500000X0.875000X-0.500000X0.875000X0.500000X-0.875000X0.500000X0*%
%TD*%
%TA.AperFunction,SMDPad,CuDef*%
%ADD16RoundRect,0.200000X0.200000X0.800000X-0.200000X0.800000X-0.200000X-0.800000X0.200000X-0.800000X0*%
%TD*%
%TA.AperFunction,SMDPad,CuDef*%
%ADD17RoundRect,0.250000X0.262500X0.450000X-0.262500X0.450000X-0.262500X-0.450000X0.262500X-0.450000X0*%
%TD*%
%TA.AperFunction,SMDPad,CuDef*%
%ADD18RoundRect,0.250000X-0.262500X-0.450000X0.262500X-0.450000X0.262500X0.450000X-0.262500X0.450000X0*%
%TD*%
%TA.AperFunction,SMDPad,CuDef*%
%ADD19RoundRect,0.250000X-0.450000X0.262500X-0.450000X-0.262500X0.450000X-0.262500X0.450000X0.262500X0*%
%TD*%
%TA.AperFunction,SMDPad,CuDef*%
%ADD20RoundRect,0.243750X-0.243750X-0.456250X0.243750X-0.456250X0.243750X0.456250X-0.243750X0.456250X0*%
%TD*%
%TA.AperFunction,SMDPad,CuDef*%
%ADD21RoundRect,0.250000X-0.325000X-0.650000X0.325000X-0.650000X0.325000X0.650000X-0.325000X0.650000X0*%
%TD*%
%TA.AperFunction,SMDPad,CuDef*%
%ADD22RoundRect,0.250000X0.325000X0.650000X-0.325000X0.650000X-0.325000X-0.650000X0.325000X-0.650000X0*%
%TD*%
%TA.AperFunction,SMDPad,CuDef*%
%ADD23RoundRect,0.225000X-0.225000X-0.250000X0.225000X-0.250000X0.225000X0.250000X-0.225000X0.250000X0*%
%TD*%
%TA.AperFunction,SMDPad,CuDef*%
%ADD24RoundRect,0.250000X0.650000X-0.325000X0.650000X0.325000X-0.650000X0.325000X-0.650000X-0.325000X0*%
%TD*%
%TA.AperFunction,SMDPad,CuDef*%
%ADD25RoundRect,0.225000X-0.250000X0.225000X-0.250000X-0.225000X0.250000X-0.225000X0.250000X0.225000X0*%
%TD*%
%TA.AperFunction,SMDPad,CuDef*%
%ADD26RoundRect,0.225000X0.225000X0.250000X-0.225000X0.250000X-0.225000X-0.250000X0.225000X-0.250000X0*%
%TD*%
%TA.AperFunction,ViaPad*%
%ADD27C,0.600000*%
%TD*%
%TA.AperFunction,Conductor*%
%ADD28C,0.200000*%
%TD*%
G04 APERTURE END LIST*
D10*
%TO.P,J1,1,Pin_1*%
%TO.N,EEG_CH1*%
X110100000Y-87335000D03*
D11*
%TO.P,J1,2,Pin_2*%
%TO.N,EEG_CH2*%
X110100000Y-84795000D03*
%TO.P,J1,3,Pin_3*%
%TO.N,EEG_CH3*%
X110100000Y-82255000D03*
%TO.P,J1,4,Pin_4*%
%TO.N,EEG_CH4*%
X110100000Y-79715000D03*
%TO.P,J1,5,Pin_5*%
%TO.N,EEG_REF*%
X110100000Y-77175000D03*
%TO.P,J1,6,Pin_6*%
%TO.N,EEG_BIAS*%
X110100000Y-74635000D03*
%TO.P,J1,7,Pin_7*%
%TO.N,GND*%
X110100000Y-72095000D03*
%TO.P,J1,8,Pin_8*%
%TO.N,unconnected-(J1-Pin_8-Pad8)*%
X110100000Y-69555000D03*
%TD*%
D12*
%TO.P,C1,1*%
%TO.N,3V3_A*%
X120150000Y-95275000D03*
%TO.P,C1,2*%
%TO.N,GND*%
X120150000Y-93725000D03*
%TD*%
D13*
%TO.P,U2,17,SRB1*%
%TO.N,unconnected-(U2-SRB1-Pad17)*%
X123877500Y-90780000D03*
%TO.P,U2,18,SRB2*%
%TO.N,unconnected-(U2-SRB2-Pad18)*%
X124377500Y-90780000D03*
%TO.P,U2,19,AVDD@1*%
%TO.N,3V3_A*%
X124877500Y-90780000D03*
%TO.P,U2,20,AVSS@1*%
%TO.N,GND*%
X125377500Y-90780000D03*
%TO.P,U2,21,AVDD@1*%
%TO.N,3V3_A*%
X125877500Y-90780000D03*
%TO.P,U2,22,AVDD@1*%
X126377500Y-90780000D03*
%TO.P,U2,23,AVSS@1*%
%TO.N,GND*%
X126877500Y-90780000D03*
%TO.P,U2,24,VREFP*%
%TO.N,Net-(U2-VREFP)*%
X127377500Y-90780000D03*
%TO.P,U2,25,VREFN*%
%TO.N,GND*%
X127877500Y-90780000D03*
%TO.P,U2,26,VCAP4*%
%TO.N,Net-(U2-VCAP4)*%
X128377500Y-90780000D03*
%TO.P,U2,27*%
%TO.N,N/C*%
X128877500Y-90780000D03*
%TO.P,U2,28,VCAP1*%
%TO.N,Net-(U2-VCAP1)*%
X129377500Y-90780000D03*
%TO.P,U2,29*%
%TO.N,N/C*%
X129877500Y-90780000D03*
%TO.P,U2,30,VCAP2*%
%TO.N,Net-(U2-VCAP2)*%
X130377500Y-90780000D03*
%TO.P,U2,31,RESV1*%
%TO.N,SPI_SCK*%
X130877500Y-90780000D03*
%TO.P,U2,32,AVSS@1*%
%TO.N,GND*%
X131377500Y-90780000D03*
%TO.P,U2,49,DGND*%
X131377500Y-79420000D03*
%TO.P,U2,50,DVDD*%
%TO.N,3V3_D*%
X130877500Y-79420000D03*
%TO.P,U2,51,DGND*%
%TO.N,GND*%
X130377500Y-79420000D03*
%TO.P,U2,52,CLKSEL*%
X129877500Y-79420000D03*
%TO.P,U2,53,AVSS1*%
X129377500Y-79420000D03*
%TO.P,U2,54,AVDD1*%
%TO.N,3V3_A*%
X128877500Y-79420000D03*
%TO.P,U2,55,VCAP3*%
%TO.N,Net-(U2-VCAP3)*%
X128377500Y-79420000D03*
%TO.P,U2,56,AVDD@1*%
%TO.N,3V3_A*%
X127877500Y-79420000D03*
%TO.P,U2,57,AVSS@1*%
%TO.N,GND*%
X127377500Y-79420000D03*
%TO.P,U2,58,AVSS@2*%
X126877500Y-79420000D03*
%TO.P,U2,59,AVDD@2*%
%TO.N,3V3_A*%
X126377500Y-79420000D03*
%TO.P,U2,60,BIASREF*%
%TO.N,unconnected-(U2-BIASREF-Pad60)*%
X125877500Y-79420000D03*
%TO.P,U2,61,BIASINV*%
%TO.N,EEG_REF*%
X125377500Y-79420000D03*
%TO.P,U2,62,BIASIN*%
%TO.N,EEG_BIAS*%
X124877500Y-79420000D03*
%TO.P,U2,63,BIASOUT*%
X124377500Y-79420000D03*
%TO.P,U2,64,RESERVED*%
%TO.N,unconnected-(U2-RESERVED-Pad64)*%
X123877500Y-79420000D03*
D14*
%TO.P,U2,1,IN8N*%
%TO.N,unconnected-(U2-IN8N-Pad1)*%
X121947500Y-81350000D03*
%TO.P,U2,2,IN8P*%
%TO.N,unconnected-(U2-IN8P-Pad2)*%
X121947500Y-81850000D03*
%TO.P,U2,3,IN7N*%
%TO.N,unconnected-(U2-IN7N-Pad3)*%
X121947500Y-82350000D03*
%TO.P,U2,4,IN7P*%
%TO.N,unconnected-(U2-IN7P-Pad4)*%
X121947500Y-82850000D03*
%TO.P,U2,5,IN6N*%
%TO.N,unconnected-(U2-IN6N-Pad5)*%
X121947500Y-83350000D03*
%TO.P,U2,6,IN6P*%
%TO.N,unconnected-(U2-IN6P-Pad6)*%
X121947500Y-83850000D03*
%TO.P,U2,7,IN5N*%
%TO.N,unconnected-(U2-IN5N-Pad7)*%
X121947500Y-84350000D03*
%TO.P,U2,8,IN5P*%
%TO.N,unconnected-(U2-IN5P-Pad8)*%
X121947500Y-84850000D03*
%TO.P,U2,9,IN4N*%
%TO.N,Net-(U2-IN4N)*%
X121947500Y-85350000D03*
%TO.P,U2,10,IN4P*%
%TO.N,Net-(U2-IN4P)*%
X121947500Y-85850000D03*
%TO.P,U2,11,IN3N*%
%TO.N,Net-(U2-IN3N)*%
X121947500Y-86350000D03*
%TO.P,U2,12,IN3P*%
%TO.N,Net-(U2-IN3P)*%
X121947500Y-86850000D03*
%TO.P,U2,13,IN2N*%
%TO.N,Net-(U2-IN2N)*%
X121947500Y-87350000D03*
%TO.P,U2,14,IN2P*%
%TO.N,Net-(U2-IN2P)*%
X121947500Y-87850000D03*
%TO.P,U2,15,IN1N*%
%TO.N,Net-(U2-IN1N)*%
X121947500Y-88350000D03*
%TO.P,U2,16,IN1P*%
%TO.N,Net-(U2-IN1P)*%
X121947500Y-88850000D03*
%TO.P,U2,33,DGND*%
%TO.N,GND*%
X133307500Y-88850000D03*
%TO.P,U2,34,DIN*%
%TO.N,SPI_MOSI*%
X133307500Y-88350000D03*
%TO.P,U2,35,~{PWDN}*%
%TO.N,Net-(U2-~{PWDN})*%
X133307500Y-87850000D03*
%TO.P,U2,36,~{RESET}*%
%TO.N,EEG_RESET*%
X133307500Y-87350000D03*
%TO.P,U2,37,CLK*%
%TO.N,unconnected-(U2-CLK-Pad37)*%
X133307500Y-86850000D03*
%TO.P,U2,38,START*%
%TO.N,EEG_START*%
X133307500Y-86350000D03*
%TO.P,U2,39,~{CS}*%
%TO.N,SPI_CS*%
X133307500Y-85850000D03*
%TO.P,U2,40,SCLK*%
%TO.N,unconnected-(U2-SCLK-Pad40)*%
X133307500Y-85350000D03*
%TO.P,U2,41,DAISY_IN*%
%TO.N,unconnected-(U2-DAISY_IN-Pad41)*%
X133307500Y-84850000D03*
%TO.P,U2,42,GPIO1*%
%TO.N,unconnected-(U2-GPIO1-Pad42)*%
X133307500Y-84350000D03*
%TO.P,U2,43,DOUT*%
%TO.N,SPI_MISO*%
X133307500Y-83850000D03*
%TO.P,U2,44,GPIO2*%
%TO.N,unconnected-(U2-GPIO2-Pad44)*%
X133307500Y-83350000D03*
%TO.P,U2,45,GPIO3*%
%TO.N,unconnected-(U2-GPIO3-Pad45)*%
X133307500Y-82850000D03*
%TO.P,U2,46,GPIO4*%
%TO.N,unconnected-(U2-GPIO4-Pad46)*%
X133307500Y-82350000D03*
%TO.P,U2,47,~{DRDY}*%
%TO.N,EEG_DRDY*%
X133307500Y-81850000D03*
%TO.P,U2,48,DVDD*%
%TO.N,3V3_D*%
X133307500Y-81350000D03*
%TD*%
D15*
%TO.P,U1,7,P0//TX/D6*%
%TO.N,LED_STREAM*%
X138750000Y-80720000D03*
%TO.P,U1,6,P7/SCL/D5*%
%TO.N,BTN_START*%
X138750000Y-78180000D03*
%TO.P,U1,5,P6/SDA/D4*%
%TO.N,unconnected-(U1-P6{slash}SDA{slash}D4-Pad5)*%
X138750000Y-75640000D03*
%TO.P,U1,4,P29/A3/D3*%
%TO.N,unconnected-(U1-P29{slash}A3{slash}D3-Pad4)*%
X138750000Y-73100000D03*
%TO.P,U1,3,P28/A2/D2*%
%TO.N,EEG_DRDY*%
X138750000Y-70560000D03*
%TO.P,U1,2,P27/A1/D1*%
%TO.N,EEG_START*%
X138750000Y-68020000D03*
%TO.P,U1,1,P26/A0/D0*%
%TO.N,EEG_RESET*%
X138750000Y-65480000D03*
%TO.P,U1,8,D7/CSB/P1/RX*%
%TO.N,SPI_CS*%
X154950000Y-80720000D03*
%TO.P,U1,9,D8/SCK/P2*%
%TO.N,SPI_SCK*%
X154950000Y-78180000D03*
%TO.P,U1,10,D9/MISO/P4*%
%TO.N,SPI_MISO*%
X154950000Y-75640000D03*
%TO.P,U1,11,D10/MOSI/P3*%
%TO.N,SPI_MOSI*%
X154950000Y-73100000D03*
%TO.P,U1,12,3V3*%
%TO.N,3V3_D*%
X154950000Y-70560000D03*
%TO.P,U1,13,GND*%
%TO.N,GND*%
X154950000Y-68020000D03*
%TO.P,U1,14,5V*%
%TO.N,VBUS*%
X154950000Y-65480000D03*
%TD*%
D16*
%TO.P,SW1,1,1*%
%TO.N,BTN_START*%
X129900000Y-68650000D03*
%TO.P,SW1,2,2*%
%TO.N,GND*%
X125700000Y-68650000D03*
%TD*%
D17*
%TO.P,R11,1*%
%TO.N,EEG_CH4*%
X116975000Y-69800000D03*
%TO.P,R11,2*%
%TO.N,Net-(U2-IN4P)*%
X115150000Y-69800000D03*
%TD*%
%TO.P,R10,1*%
%TO.N,EEG_REF*%
X116975000Y-72750000D03*
%TO.P,R10,2*%
%TO.N,Net-(U2-IN4N)*%
X115150000Y-72750000D03*
%TD*%
%TO.P,R9,1*%
%TO.N,EEG_CH3*%
X116975000Y-75700000D03*
%TO.P,R9,2*%
%TO.N,Net-(U2-IN3P)*%
X115150000Y-75700000D03*
%TD*%
%TO.P,R8,1*%
%TO.N,EEG_REF*%
X116975000Y-78650000D03*
%TO.P,R8,2*%
%TO.N,Net-(U2-IN3N)*%
X115150000Y-78650000D03*
%TD*%
%TO.P,R7,1*%
%TO.N,EEG_CH2*%
X116975000Y-81600000D03*
%TO.P,R7,2*%
%TO.N,Net-(U2-IN2P)*%
X115150000Y-81600000D03*
%TD*%
%TO.P,R6,1*%
%TO.N,EEG_REF*%
X117087500Y-84575000D03*
%TO.P,R6,2*%
%TO.N,Net-(U2-IN2N)*%
X115262500Y-84575000D03*
%TD*%
%TO.P,R5,1*%
%TO.N,EEG_CH1*%
X117087500Y-87525000D03*
%TO.P,R5,2*%
%TO.N,Net-(U2-IN1P)*%
X115262500Y-87525000D03*
%TD*%
%TO.P,R4,1*%
%TO.N,EEG_REF*%
X117087500Y-90475000D03*
%TO.P,R4,2*%
%TO.N,Net-(U2-IN1N)*%
X115262500Y-90475000D03*
%TD*%
D18*
%TO.P,R3,1*%
%TO.N,3V3_D*%
X158837500Y-71500000D03*
%TO.P,R3,2*%
%TO.N,Net-(D1-A)*%
X160662500Y-71500000D03*
%TD*%
%TO.P,R2,1*%
%TO.N,LED_STREAM*%
X129650000Y-74575000D03*
%TO.P,R2,2*%
%TO.N,Net-(D2-A)*%
X131475000Y-74575000D03*
%TD*%
D19*
%TO.P,R1,1*%
%TO.N,3V3_D*%
X141400000Y-86925000D03*
%TO.P,R1,2*%
%TO.N,Net-(U2-~{PWDN})*%
X141400000Y-88750000D03*
%TD*%
D20*
%TO.P,D2,1,K*%
%TO.N,GND*%
X132450000Y-65300000D03*
%TO.P,D2,2,A*%
%TO.N,Net-(D2-A)*%
X134325000Y-65300000D03*
%TD*%
%TO.P,D1,1,K*%
%TO.N,GND*%
X158800000Y-64875000D03*
%TO.P,D1,2,A*%
%TO.N,Net-(D1-A)*%
X160675000Y-64875000D03*
%TD*%
D21*
%TO.P,C12,1*%
%TO.N,Net-(U2-VCAP4)*%
X130000000Y-98625000D03*
%TO.P,C12,2*%
%TO.N,GND*%
X132950000Y-98625000D03*
%TD*%
D22*
%TO.P,C11,1*%
%TO.N,Net-(U2-VCAP3)*%
X126250000Y-74150000D03*
%TO.P,C11,2*%
%TO.N,GND*%
X123300000Y-74150000D03*
%TD*%
D21*
%TO.P,C10,1*%
%TO.N,Net-(U2-VCAP1)*%
X143662500Y-97855000D03*
%TO.P,C10,2*%
%TO.N,GND*%
X146612500Y-97855000D03*
%TD*%
%TO.P,C9,1*%
%TO.N,Net-(U2-VCAP2)*%
X143662500Y-94505000D03*
%TO.P,C9,2*%
%TO.N,GND*%
X146612500Y-94505000D03*
%TD*%
D23*
%TO.P,C8,1*%
%TO.N,Net-(U2-VREFP)*%
X125900000Y-98125000D03*
%TO.P,C8,2*%
%TO.N,GND*%
X127450000Y-98125000D03*
%TD*%
%TO.P,C7,1*%
%TO.N,Net-(U2-VREFP)*%
X131700000Y-94700000D03*
%TO.P,C7,2*%
%TO.N,GND*%
X133250000Y-94700000D03*
%TD*%
D21*
%TO.P,C6,1*%
%TO.N,3V3_A*%
X143662500Y-91155000D03*
%TO.P,C6,2*%
%TO.N,GND*%
X146612500Y-91155000D03*
%TD*%
D24*
%TO.P,C5,1*%
%TO.N,3V3_D*%
X122450000Y-100775000D03*
%TO.P,C5,2*%
%TO.N,GND*%
X122450000Y-97825000D03*
%TD*%
D25*
%TO.P,C4,1*%
%TO.N,GND*%
X150925000Y-90225000D03*
%TO.P,C4,2*%
%TO.N,3V3_A*%
X150925000Y-91775000D03*
%TD*%
D26*
%TO.P,C3,1*%
%TO.N,GND*%
X150950000Y-87075000D03*
%TO.P,C3,2*%
%TO.N,3V3_A*%
X149400000Y-87075000D03*
%TD*%
D12*
%TO.P,C2,1*%
%TO.N,3V3_D*%
X117250000Y-99975000D03*
%TO.P,C2,2*%
%TO.N,GND*%
X117250000Y-98425000D03*
%TD*%
D27*
%TO.N,3V3_A*%
X129800000Y-87400000D03*
X134530058Y-89594942D03*
%TO.N,GND*%
X127777500Y-77575000D03*
X129975000Y-77475000D03*
%TO.N,Net-(U2-VCAP2)*%
X130450000Y-89250000D03*
X133503188Y-89596812D03*
%TO.N,3V3_D*%
X140450000Y-83975000D03*
X136350000Y-81421000D03*
%TO.N,SPI_CS*%
X135750000Y-85575000D03*
X153050000Y-85625000D03*
%TO.N,Net-(U2-VCAP4)*%
X129000000Y-88900000D03*
X129850000Y-95300000D03*
%TO.N,3V3_D*%
X124275000Y-100775000D03*
X129975000Y-83025000D03*
%TO.N,SPI_MISO*%
X135575000Y-83925000D03*
X146775000Y-79675000D03*
%TO.N,GND*%
X157525000Y-68125000D03*
X148925000Y-88850000D03*
%TO.N,BTN_START*%
X136825000Y-78825000D03*
X130875000Y-71600000D03*
%TO.N,Net-(U2-IN4N)*%
X115850000Y-73900000D03*
X119225000Y-81509000D03*
%TO.N,EEG_REF*%
X118049265Y-80200735D03*
X118350000Y-82825000D03*
%TO.N,Net-(U2-IN2P)*%
X120025000Y-87925000D03*
X113400000Y-83725000D03*
%TO.N,Net-(U2-IN3N)*%
X114275000Y-79975000D03*
X117175000Y-80175000D03*
%TO.N,Net-(U2-IN4P)*%
X120550000Y-85875000D03*
X119375000Y-73075000D03*
%TO.N,Net-(U2-IN3P)*%
X113550000Y-76500000D03*
X119500000Y-86625000D03*
%TD*%
D28*
%TO.N,SPI_SCK*%
X131132354Y-89699000D02*
X130877500Y-89953854D01*
X131622646Y-89699000D02*
X131132354Y-89699000D01*
X141823646Y-99900000D02*
X131622646Y-89699000D01*
X147875000Y-99900000D02*
X141823646Y-99900000D01*
X152102000Y-95673000D02*
X147875000Y-99900000D01*
X130877500Y-89953854D02*
X130877500Y-90780000D01*
X152102000Y-81028000D02*
X152102000Y-95673000D01*
X154950000Y-78180000D02*
X152102000Y-81028000D01*
%TO.N,EEG_CH4*%
X108640000Y-79715000D02*
X110100000Y-79715000D01*
X107601000Y-78676000D02*
X108640000Y-79715000D01*
X107601000Y-74149000D02*
X107601000Y-78676000D01*
X108266000Y-73484000D02*
X107601000Y-74149000D01*
X112825000Y-70997760D02*
X110338760Y-73484000D01*
X113650000Y-67375000D02*
X112825000Y-68200000D01*
X110338760Y-73484000D02*
X108266000Y-73484000D01*
X115900000Y-67375000D02*
X113650000Y-67375000D01*
X117075000Y-68550000D02*
X115900000Y-67375000D01*
X112825000Y-68200000D02*
X112825000Y-70997760D01*
X117075000Y-69700000D02*
X117075000Y-68550000D01*
X116975000Y-69800000D02*
X117075000Y-69700000D01*
%TO.N,GND*%
X123250000Y-66200000D02*
X125700000Y-68650000D01*
X107601000Y-69596000D02*
X107601000Y-67599000D01*
X109000000Y-66200000D02*
X123250000Y-66200000D01*
X110100000Y-72095000D02*
X107601000Y-69596000D01*
X107601000Y-67599000D02*
X109000000Y-66200000D01*
X126674000Y-98901000D02*
X127450000Y-98125000D01*
X123526000Y-98901000D02*
X126674000Y-98901000D01*
X122450000Y-97825000D02*
X123526000Y-98901000D01*
%TO.N,3V3_A*%
X129127500Y-87400000D02*
X128877500Y-87150000D01*
X129800000Y-87400000D02*
X129127500Y-87400000D01*
X128877500Y-87150000D02*
X128877500Y-79420000D01*
X136090116Y-91155000D02*
X134530058Y-89594942D01*
X143662500Y-91155000D02*
X136090116Y-91155000D01*
%TO.N,GND*%
X130600000Y-78100000D02*
X130600000Y-78339000D01*
X130600000Y-78339000D02*
X131122646Y-78339000D01*
X129975000Y-77475000D02*
X130600000Y-78100000D01*
X127377500Y-77975000D02*
X127777500Y-77575000D01*
X127377500Y-79420000D02*
X127377500Y-77975000D01*
%TO.N,3V3_A*%
X128132354Y-80501000D02*
X127877500Y-80246146D01*
X128622646Y-80501000D02*
X128132354Y-80501000D01*
X128877500Y-80246146D02*
X128622646Y-80501000D01*
X127877500Y-80246146D02*
X127877500Y-79420000D01*
X128877500Y-79420000D02*
X128877500Y-80246146D01*
%TO.N,GND*%
X131122646Y-78339000D02*
X131377500Y-78593854D01*
X130458500Y-78339000D02*
X130600000Y-78339000D01*
X129377500Y-79420000D02*
X130458500Y-78339000D01*
X131377500Y-78593854D02*
X131377500Y-79420000D01*
X127377500Y-80364146D02*
X127377500Y-79420000D01*
X126877500Y-80199999D02*
X127178501Y-80501000D01*
X127178501Y-80501000D02*
X127240646Y-80501000D01*
X127240646Y-80501000D02*
X127377500Y-80364146D01*
X126877500Y-79420000D02*
X126877500Y-80199999D01*
%TO.N,3V3_A*%
X128877500Y-87205400D02*
X128877500Y-87150000D01*
X126377500Y-89705400D02*
X128877500Y-87205400D01*
X126377500Y-90780000D02*
X126377500Y-89705400D01*
%TO.N,Net-(U2-VREFP)*%
X127377500Y-94052500D02*
X128675000Y-95350000D01*
X128675000Y-95350000D02*
X125900000Y-98125000D01*
X127377500Y-90780000D02*
X127377500Y-94052500D01*
%TO.N,Net-(U2-VCAP2)*%
X130377500Y-89322500D02*
X130377500Y-90780000D01*
X130450000Y-89250000D02*
X130377500Y-89322500D01*
X138411376Y-94505000D02*
X133503188Y-89596812D01*
X143662500Y-94505000D02*
X138411376Y-94505000D01*
%TO.N,Net-(U2-VCAP1)*%
X129377500Y-89372443D02*
X129377500Y-90780000D01*
X129601000Y-89148943D02*
X129377500Y-89372443D01*
X129601000Y-88651057D02*
X129601000Y-89148943D01*
X129774000Y-88476000D02*
X129599971Y-88650029D01*
X129599971Y-88650029D02*
X129601000Y-88651057D01*
X130966746Y-88476000D02*
X129774000Y-88476000D01*
X140345746Y-97855000D02*
X130966746Y-88476000D01*
X143662500Y-97855000D02*
X140345746Y-97855000D01*
%TO.N,3V3_D*%
X140450000Y-83975000D02*
X141175000Y-83975000D01*
X141400000Y-83750000D02*
X141400000Y-86925000D01*
X136279000Y-81350000D02*
X136350000Y-81421000D01*
X133307500Y-81350000D02*
X136279000Y-81350000D01*
X141175000Y-83975000D02*
X141400000Y-83750000D01*
%TO.N,SPI_CS*%
X135475000Y-85850000D02*
X133307500Y-85850000D01*
X154950000Y-83725000D02*
X153050000Y-85625000D01*
X154950000Y-80720000D02*
X154950000Y-83725000D01*
X135750000Y-85575000D02*
X135475000Y-85850000D01*
%TO.N,Net-(U2-VCAP4)*%
X129000000Y-88900000D02*
X128377500Y-89522500D01*
X128377500Y-89522500D02*
X128377500Y-90780000D01*
X130000000Y-95450000D02*
X129850000Y-95300000D01*
X130000000Y-95900000D02*
X130000000Y-95450000D01*
%TO.N,3V3_D*%
X124275000Y-100775000D02*
X122450000Y-100775000D01*
X131903177Y-81271823D02*
X130150000Y-83025000D01*
X131903177Y-81271823D02*
X131981354Y-81350000D01*
X130150000Y-83025000D02*
X129975000Y-83025000D01*
%TO.N,GND*%
X132641423Y-89516077D02*
X132641423Y-89583577D01*
X133307500Y-88850000D02*
X132641423Y-89516077D01*
X132641423Y-89583577D02*
X131132846Y-88075000D01*
X132474000Y-93924000D02*
X133250000Y-94700000D01*
X127936500Y-91665146D02*
X130195354Y-93924000D01*
X127936500Y-88713500D02*
X127936500Y-91665146D01*
X128575000Y-88075000D02*
X127936500Y-88713500D01*
X131132846Y-88075000D02*
X128575000Y-88075000D01*
X144463500Y-96654000D02*
X139711846Y-96654000D01*
X139711846Y-96654000D02*
X132641423Y-89583577D01*
X130195354Y-93924000D02*
X132474000Y-93924000D01*
X146612500Y-94505000D02*
X144463500Y-96654000D01*
%TO.N,Net-(U2-VCAP4)*%
X130000000Y-98625000D02*
X130000000Y-95900000D01*
%TO.N,GND*%
X146612500Y-94505000D02*
X146612500Y-91155000D01*
%TO.N,SPI_MOSI*%
X134133646Y-88350000D02*
X133307500Y-88350000D01*
X135347146Y-89563500D02*
X134133646Y-88350000D01*
X143569336Y-89563500D02*
X135347146Y-89563500D01*
X150126000Y-83006836D02*
X143569336Y-89563500D01*
X150126000Y-80383164D02*
X150126000Y-83006836D01*
X150066836Y-80324000D02*
X150126000Y-80383164D01*
X146300000Y-80324000D02*
X150066836Y-80324000D01*
X146174000Y-80198000D02*
X146300000Y-80324000D01*
X146174000Y-79426057D02*
X146174000Y-80198000D01*
X152500057Y-73100000D02*
X146174000Y-79426057D01*
X154950000Y-73100000D02*
X152500057Y-73100000D01*
%TO.N,SPI_MISO*%
X135575000Y-83925000D02*
X135500000Y-83850000D01*
X150810000Y-75640000D02*
X146775000Y-79675000D01*
X135500000Y-83850000D02*
X133307500Y-83850000D01*
X154950000Y-75640000D02*
X150810000Y-75640000D01*
%TO.N,EEG_RESET*%
X135769258Y-87350000D02*
X133307500Y-87350000D01*
X141228000Y-81891258D02*
X135769258Y-87350000D01*
X141228000Y-67958000D02*
X141228000Y-81891258D01*
X138750000Y-65480000D02*
X141228000Y-67958000D01*
%TO.N,EEG_START*%
X140827000Y-81725158D02*
X136202158Y-86350000D01*
X140827000Y-70097000D02*
X140827000Y-81725158D01*
X136202158Y-86350000D02*
X133307500Y-86350000D01*
X138750000Y-68020000D02*
X140827000Y-70097000D01*
%TO.N,EEG_DRDY*%
X134304646Y-82021000D02*
X134133646Y-81850000D01*
X134133646Y-81850000D02*
X133307500Y-81850000D01*
X139964058Y-82021000D02*
X134304646Y-82021000D01*
X140426000Y-81559058D02*
X139964058Y-82021000D01*
X140426000Y-72236000D02*
X140426000Y-81559058D01*
X138750000Y-70560000D02*
X140426000Y-72236000D01*
%TO.N,GND*%
X132950000Y-95000000D02*
X133250000Y-94700000D01*
X132950000Y-98625000D02*
X132950000Y-95000000D01*
%TO.N,Net-(U2-VREFP)*%
X129325000Y-94700000D02*
X128675000Y-95350000D01*
X131700000Y-94700000D02*
X129325000Y-94700000D01*
%TO.N,3V3_A*%
X147742500Y-87075000D02*
X149400000Y-87075000D01*
X143662500Y-91155000D02*
X147742500Y-87075000D01*
%TO.N,Net-(U2-~{PWDN})*%
X140500000Y-87850000D02*
X133307500Y-87850000D01*
X141400000Y-88750000D02*
X140500000Y-87850000D01*
%TO.N,3V3_D*%
X141400000Y-82735000D02*
X141400000Y-83750000D01*
X153575000Y-70560000D02*
X141400000Y-82735000D01*
X154950000Y-70560000D02*
X153575000Y-70560000D01*
%TO.N,GND*%
X157420000Y-68020000D02*
X154950000Y-68020000D01*
X157525000Y-68125000D02*
X157420000Y-68020000D01*
X149175000Y-88850000D02*
X148925000Y-88850000D01*
X150950000Y-87075000D02*
X149175000Y-88850000D01*
%TO.N,3V3_A*%
X150176000Y-86299000D02*
X149400000Y-87075000D01*
X151399110Y-86299000D02*
X150176000Y-86299000D01*
X151701000Y-90999000D02*
X151701000Y-86600890D01*
X151701000Y-86600890D02*
X151399110Y-86299000D01*
X150925000Y-91775000D02*
X151701000Y-90999000D01*
%TO.N,BTN_START*%
X137470000Y-78180000D02*
X138750000Y-78180000D01*
X136825000Y-78825000D02*
X137470000Y-78180000D01*
X129900000Y-70625000D02*
X130875000Y-71600000D01*
X129900000Y-68650000D02*
X129900000Y-70625000D01*
%TO.N,LED_STREAM*%
X135795000Y-80720000D02*
X138750000Y-80720000D01*
X129650000Y-74575000D02*
X135795000Y-80720000D01*
%TO.N,GND*%
X129877500Y-79420000D02*
X130377500Y-79420000D01*
X129377500Y-79420000D02*
X129877500Y-79420000D01*
X129375000Y-79422500D02*
X129377500Y-79420000D01*
X129375000Y-85743646D02*
X129375000Y-79422500D01*
X132481354Y-88850000D02*
X129375000Y-85743646D01*
X133307500Y-88850000D02*
X132481354Y-88850000D01*
%TO.N,3V3_D*%
X131981354Y-81350000D02*
X133307500Y-81350000D01*
X130877500Y-80246146D02*
X131903177Y-81271823D01*
X130877500Y-79420000D02*
X130877500Y-80246146D01*
%TO.N,Net-(U2-VCAP3)*%
X128377500Y-76277500D02*
X126250000Y-74150000D01*
X128377500Y-79420000D02*
X128377500Y-76277500D01*
%TO.N,GND*%
X126877500Y-77727500D02*
X123300000Y-74150000D01*
X126877500Y-79420000D02*
X126877500Y-77727500D01*
X121474890Y-97825000D02*
X122450000Y-97825000D01*
X119374000Y-95724110D02*
X121474890Y-97825000D01*
X119374000Y-94501000D02*
X119374000Y-95724110D01*
X120150000Y-93725000D02*
X119374000Y-94501000D01*
%TO.N,3V3_A*%
X121208646Y-95275000D02*
X120150000Y-95275000D01*
X124877500Y-91606146D02*
X121208646Y-95275000D01*
X124877500Y-90780000D02*
X124877500Y-91606146D01*
X126377500Y-90345001D02*
X126377500Y-90780000D01*
X125731499Y-89699000D02*
X126377500Y-90345001D01*
X125132354Y-89699000D02*
X125731499Y-89699000D01*
X124877500Y-89953854D02*
X125132354Y-89699000D01*
X124877500Y-90780000D02*
X124877500Y-89953854D01*
%TO.N,GND*%
X127132354Y-89699000D02*
X127622646Y-89699000D01*
X126877500Y-89953854D02*
X127132354Y-89699000D01*
X127622646Y-89699000D02*
X127877500Y-89953854D01*
X127877500Y-89953854D02*
X127877500Y-90780000D01*
X126877500Y-90780000D02*
X126877500Y-89953854D01*
X131377500Y-91606146D02*
X131377500Y-90780000D01*
X131122646Y-91861000D02*
X131377500Y-91606146D01*
X128132354Y-91861000D02*
X131122646Y-91861000D01*
X127877500Y-91606146D02*
X128132354Y-91861000D01*
X127877500Y-90780000D02*
X127877500Y-91606146D01*
X126622646Y-91861000D02*
X126877500Y-91606146D01*
X126877500Y-91606146D02*
X126877500Y-90780000D01*
X125632354Y-91861000D02*
X126622646Y-91861000D01*
X125377500Y-91606146D02*
X125632354Y-91861000D01*
X125377500Y-90780000D02*
X125377500Y-91606146D01*
%TO.N,3V3_A*%
X124877500Y-89916000D02*
X124877500Y-90780000D01*
X125094500Y-89699000D02*
X124877500Y-89916000D01*
X125622646Y-89699000D02*
X125094500Y-89699000D01*
X125877500Y-89953854D02*
X125622646Y-89699000D01*
X125877500Y-90780000D02*
X125877500Y-89953854D01*
X125877500Y-90780000D02*
X126377500Y-90780000D01*
X126377500Y-79420000D02*
X126377500Y-90780000D01*
%TO.N,EEG_REF*%
X117901000Y-73676000D02*
X121064840Y-73676000D01*
X121064840Y-73676000D02*
X125377500Y-77988660D01*
X116975000Y-72750000D02*
X117901000Y-73676000D01*
X125377500Y-77988660D02*
X125377500Y-79420000D01*
%TO.N,Net-(U2-IN4N)*%
X115850000Y-73900000D02*
X115850000Y-73450000D01*
X119225000Y-83453646D02*
X119225000Y-81509000D01*
X121121354Y-85350000D02*
X119225000Y-83453646D01*
X115850000Y-73450000D02*
X115150000Y-72750000D01*
X121947500Y-85350000D02*
X121121354Y-85350000D01*
%TO.N,EEG_REF*%
X118186030Y-80337500D02*
X118662500Y-80337500D01*
X118049265Y-80200735D02*
X118186030Y-80337500D01*
X118662500Y-80337500D02*
X118826000Y-80501000D01*
X118350000Y-83312500D02*
X118350000Y-82825000D01*
X117087500Y-84575000D02*
X118350000Y-83312500D01*
%TO.N,Net-(U2-IN2N)*%
X116637160Y-85576000D02*
X116263500Y-85576000D01*
X121921500Y-87324000D02*
X118385160Y-87324000D01*
X121947500Y-87350000D02*
X121921500Y-87324000D01*
X118385160Y-87324000D02*
X116637160Y-85576000D01*
X116263500Y-85576000D02*
X115262500Y-84575000D01*
%TO.N,Net-(U2-IN2P)*%
X120100000Y-87850000D02*
X120025000Y-87925000D01*
X121947500Y-87850000D02*
X120100000Y-87850000D01*
X115150000Y-81975000D02*
X113400000Y-83725000D01*
X115150000Y-81600000D02*
X115150000Y-81975000D01*
%TO.N,Net-(U2-IN3N)*%
X114275000Y-79975000D02*
X114275000Y-79525000D01*
X114275000Y-79525000D02*
X115150000Y-78650000D01*
X117909000Y-80909000D02*
X117175000Y-80175000D01*
X123028500Y-81104854D02*
X122832646Y-80909000D01*
X122832646Y-80909000D02*
X117909000Y-80909000D01*
X123028500Y-86095146D02*
X123028500Y-81104854D01*
X121947500Y-86350000D02*
X122773646Y-86350000D01*
X122773646Y-86350000D02*
X123028500Y-86095146D01*
%TO.N,Net-(U2-IN4P)*%
X120550000Y-85875000D02*
X121922500Y-85875000D01*
X121922500Y-85875000D02*
X121947500Y-85850000D01*
X118049000Y-71749000D02*
X119375000Y-73075000D01*
X117099000Y-71749000D02*
X118049000Y-71749000D01*
X115150000Y-69800000D02*
X117099000Y-71749000D01*
%TO.N,Net-(U2-IN3P)*%
X119725000Y-86850000D02*
X121947500Y-86850000D01*
X119500000Y-86625000D02*
X119725000Y-86850000D01*
X113575000Y-76500000D02*
X113550000Y-76500000D01*
X114400000Y-76500000D02*
X113575000Y-76500000D01*
X115150000Y-75750000D02*
X114400000Y-76500000D01*
X115150000Y-75700000D02*
X115150000Y-75750000D01*
%TO.N,EEG_BIAS*%
X124377500Y-79420000D02*
X124877500Y-79420000D01*
X124877500Y-79093854D02*
X124877500Y-79420000D01*
X120418646Y-74635000D02*
X124877500Y-79093854D01*
X110100000Y-74635000D02*
X120418646Y-74635000D01*
%TO.N,EEG_REF*%
X125377500Y-80246146D02*
X125377500Y-79420000D01*
X125122646Y-80501000D02*
X125377500Y-80246146D01*
X118826000Y-80501000D02*
X125122646Y-80501000D01*
X116975000Y-78650000D02*
X118662500Y-80337500D01*
X110507760Y-83475000D02*
X108949000Y-83475000D01*
X115026000Y-80599000D02*
X113383760Y-80599000D01*
X116975000Y-78650000D02*
X115026000Y-80599000D01*
X108949000Y-83475000D02*
X108949000Y-81778240D01*
X113383760Y-80599000D02*
X110507760Y-83475000D01*
%TO.N,EEG_CH3*%
X115600340Y-76701000D02*
X115974000Y-76701000D01*
X110100000Y-82201340D02*
X115600340Y-76701000D01*
X110100000Y-82255000D02*
X110100000Y-82201340D01*
X115974000Y-76701000D02*
X116975000Y-75700000D01*
%TO.N,EEG_CH2*%
X113453660Y-84795000D02*
X116648660Y-81600000D01*
X116648660Y-81600000D02*
X116975000Y-81600000D01*
X110100000Y-84795000D02*
X113453660Y-84795000D01*
%TO.N,EEG_REF*%
X111251000Y-78326000D02*
X110100000Y-77175000D01*
X111251000Y-80191760D02*
X111251000Y-78326000D01*
X110576760Y-80866000D02*
X111251000Y-80191760D01*
X109861240Y-80866000D02*
X110576760Y-80866000D01*
X108949000Y-81778240D02*
X109861240Y-80866000D01*
X108949000Y-88486000D02*
X108949000Y-83475000D01*
X111939000Y-91476000D02*
X108949000Y-88486000D01*
X116086500Y-91476000D02*
X111939000Y-91476000D01*
X117087500Y-90475000D02*
X116086500Y-91476000D01*
%TO.N,Net-(U2-IN1N)*%
X122649646Y-89474000D02*
X123028500Y-89095146D01*
X116263500Y-89474000D02*
X122649646Y-89474000D01*
X123028500Y-89095146D02*
X123028500Y-88604854D01*
X115262500Y-90475000D02*
X116263500Y-89474000D01*
X123028500Y-88604854D02*
X122773646Y-88350000D01*
X122773646Y-88350000D02*
X121947500Y-88350000D01*
%TO.N,Net-(U2-IN1P)*%
X116587500Y-88850000D02*
X121947500Y-88850000D01*
X115262500Y-87525000D02*
X116587500Y-88850000D01*
%TO.N,EEG_CH1*%
X110911000Y-86524000D02*
X116086500Y-86524000D01*
X116086500Y-86524000D02*
X117087500Y-87525000D01*
X110100000Y-87335000D02*
X110911000Y-86524000D01*
%TO.N,GND*%
X123300000Y-71050000D02*
X125700000Y-68650000D01*
X123300000Y-74150000D02*
X123300000Y-71050000D01*
%TO.N,Net-(D2-A)*%
X131475000Y-68150000D02*
X134325000Y-65300000D01*
X131475000Y-74575000D02*
X131475000Y-68150000D01*
%TO.N,GND*%
X129050000Y-65300000D02*
X125700000Y-68650000D01*
X132450000Y-65300000D02*
X129050000Y-65300000D01*
X129151000Y-99826000D02*
X131749000Y-99826000D01*
X127450000Y-98125000D02*
X129151000Y-99826000D01*
X131749000Y-99826000D02*
X132950000Y-98625000D01*
X121850000Y-98425000D02*
X122450000Y-97825000D01*
X117250000Y-98425000D02*
X121850000Y-98425000D01*
%TO.N,3V3_D*%
X121650000Y-99975000D02*
X122450000Y-100775000D01*
X117250000Y-99975000D02*
X121650000Y-99975000D01*
%TO.N,GND*%
X146612500Y-97855000D02*
X146612500Y-94505000D01*
X147542500Y-90225000D02*
X150925000Y-90225000D01*
X146612500Y-91155000D02*
X147542500Y-90225000D01*
X150925000Y-87100000D02*
X150950000Y-87075000D01*
X150925000Y-90225000D02*
X150925000Y-87100000D01*
%TO.N,3V3_D*%
X157897500Y-70560000D02*
X158837500Y-71500000D01*
X154950000Y-70560000D02*
X157897500Y-70560000D01*
%TO.N,GND*%
X155655000Y-68020000D02*
X154950000Y-68020000D01*
X158800000Y-64875000D02*
X155655000Y-68020000D01*
%TO.N,Net-(D1-A)*%
X160675000Y-64875000D02*
X160675000Y-71487500D01*
X160675000Y-71487500D02*
X160662500Y-71500000D01*
%TD*%
%TA.AperFunction,Conductor*%
%TO.N,GND*%
G36*
X161467539Y-61532685D02*
G01*
X161513294Y-61585489D01*
X161524500Y-61637000D01*
X161524500Y-64030635D01*
X161504815Y-64097674D01*
X161452011Y-64143429D01*
X161382853Y-64153373D01*
X161319297Y-64124348D01*
X161301233Y-64104946D01*
X161271831Y-64065669D01*
X161158646Y-63980940D01*
X161158056Y-63980498D01*
X161158054Y-63980497D01*
X161024891Y-63930829D01*
X161024889Y-63930828D01*
X161024887Y-63930828D01*
X160966029Y-63924500D01*
X160383982Y-63924500D01*
X160383973Y-63924501D01*
X160325108Y-63930828D01*
X160191945Y-63980497D01*
X160078169Y-64065669D01*
X159992998Y-64179443D01*
X159943328Y-64312612D01*
X159937000Y-64371462D01*
X159937000Y-65378517D01*
X159937001Y-65378526D01*
X159943328Y-65437391D01*
X159963307Y-65490954D01*
X159992997Y-65570554D01*
X160078169Y-65684331D01*
X160191353Y-65769059D01*
X160191945Y-65769502D01*
X160191948Y-65769504D01*
X160243833Y-65788856D01*
X160299767Y-65830727D01*
X160324184Y-65896191D01*
X160324500Y-65905038D01*
X160324500Y-70457884D01*
X160304815Y-70524923D01*
X160252011Y-70570678D01*
X160243834Y-70574066D01*
X160157669Y-70606203D01*
X160157664Y-70606206D01*
X160042455Y-70692452D01*
X160042452Y-70692455D01*
X159956206Y-70807664D01*
X159956202Y-70807671D01*
X159905908Y-70942517D01*
X159900266Y-70995000D01*
X159899501Y-71002123D01*
X159899500Y-71002135D01*
X159899500Y-71997870D01*
X159899501Y-71997876D01*
X159905908Y-72057483D01*
X159956202Y-72192328D01*
X159956206Y-72192335D01*
X160042452Y-72307544D01*
X160042455Y-72307547D01*
X160157664Y-72393793D01*
X160157671Y-72393797D01*
X160179684Y-72402007D01*
X160292517Y-72444091D01*
X160352127Y-72450500D01*
X160972872Y-72450499D01*
X161032483Y-72444091D01*
X161167331Y-72393796D01*
X161282546Y-72307546D01*
X161301233Y-72282582D01*
X161357166Y-72240711D01*
X161426858Y-72235727D01*
X161488181Y-72269212D01*
X161521666Y-72330535D01*
X161524500Y-72356893D01*
X161524500Y-101913000D01*
X161504815Y-101980039D01*
X161452011Y-102025794D01*
X161400500Y-102037000D01*
X107624500Y-102037000D01*
X107557461Y-102017315D01*
X107511706Y-101964511D01*
X107500500Y-101913000D01*
X107500500Y-99704498D01*
X116524500Y-99704498D01*
X116524500Y-100245481D01*
X116524501Y-100245490D01*
X116530587Y-100302114D01*
X116566348Y-100397989D01*
X116578372Y-100430226D01*
X116660313Y-100539687D01*
X116769774Y-100621628D01*
X116897886Y-100669412D01*
X116954515Y-100675500D01*
X117545484Y-100675499D01*
X117602114Y-100669412D01*
X117730226Y-100621628D01*
X117839687Y-100539687D01*
X117921628Y-100430226D01*
X117930602Y-100406163D01*
X117972473Y-100350233D01*
X118037937Y-100325816D01*
X118046783Y-100325500D01*
X121175500Y-100325500D01*
X121242539Y-100345185D01*
X121288294Y-100397989D01*
X121299500Y-100449500D01*
X121299500Y-101147870D01*
X121299501Y-101147876D01*
X121305908Y-101207483D01*
X121356202Y-101342328D01*
X121356206Y-101342335D01*
X121442452Y-101457544D01*
X121442455Y-101457547D01*
X121557664Y-101543793D01*
X121557671Y-101543797D01*
X121692517Y-101594091D01*
X121692516Y-101594091D01*
X121699444Y-101594835D01*
X121752127Y-101600500D01*
X123147872Y-101600499D01*
X123207483Y-101594091D01*
X123342331Y-101543796D01*
X123457546Y-101457546D01*
X123543796Y-101342331D01*
X123591097Y-101215511D01*
X123594582Y-101206167D01*
X123607851Y-101188440D01*
X123617051Y-101168297D01*
X123628381Y-101161015D01*
X123636453Y-101150233D01*
X123657201Y-101142494D01*
X123675829Y-101130523D01*
X123697745Y-101127371D01*
X123701917Y-101125816D01*
X123710764Y-101125500D01*
X123795614Y-101125500D01*
X123862653Y-101145185D01*
X123883295Y-101161819D01*
X123936985Y-101215509D01*
X123936986Y-101215510D01*
X123936988Y-101215511D01*
X124062511Y-101287982D01*
X124062512Y-101287982D01*
X124062515Y-101287984D01*
X124202525Y-101325500D01*
X124202528Y-101325500D01*
X124347472Y-101325500D01*
X124347475Y-101325500D01*
X124487485Y-101287984D01*
X124613015Y-101215509D01*
X124715509Y-101113015D01*
X124787984Y-100987485D01*
X124825500Y-100847475D01*
X124825500Y-100702525D01*
X124787984Y-100562515D01*
X124774804Y-100539687D01*
X124715511Y-100436988D01*
X124715506Y-100436982D01*
X124613017Y-100334493D01*
X124613011Y-100334488D01*
X124487488Y-100262017D01*
X124487489Y-100262017D01*
X124476006Y-100258940D01*
X124347475Y-100224500D01*
X124202525Y-100224500D01*
X124073993Y-100258940D01*
X124062511Y-100262017D01*
X123936988Y-100334488D01*
X123936982Y-100334493D01*
X123883295Y-100388181D01*
X123856367Y-100402884D01*
X123830549Y-100419477D01*
X123824348Y-100420368D01*
X123821972Y-100421666D01*
X123795614Y-100424500D01*
X123710764Y-100424500D01*
X123643725Y-100404815D01*
X123597970Y-100352011D01*
X123594582Y-100343833D01*
X123543797Y-100207671D01*
X123543793Y-100207664D01*
X123457547Y-100092455D01*
X123457544Y-100092452D01*
X123342335Y-100006206D01*
X123342328Y-100006202D01*
X123207482Y-99955908D01*
X123207483Y-99955908D01*
X123147883Y-99949501D01*
X123147881Y-99949500D01*
X123147873Y-99949500D01*
X123147865Y-99949500D01*
X122171544Y-99949500D01*
X122104505Y-99929815D01*
X122083863Y-99913181D01*
X121865213Y-99694531D01*
X121865208Y-99694527D01*
X121785290Y-99648387D01*
X121785285Y-99648385D01*
X121783415Y-99647884D01*
X121783415Y-99647883D01*
X121712938Y-99629000D01*
X121696144Y-99624500D01*
X121696143Y-99624500D01*
X118046783Y-99624500D01*
X117979744Y-99604815D01*
X117933989Y-99552011D01*
X117930610Y-99543857D01*
X117921628Y-99519774D01*
X117839687Y-99410313D01*
X117730226Y-99328372D01*
X117715405Y-99322844D01*
X117696826Y-99315914D01*
X117640893Y-99274042D01*
X117616477Y-99208577D01*
X117631330Y-99140304D01*
X117680736Y-99090900D01*
X117696830Y-99083550D01*
X117729983Y-99071185D01*
X117729984Y-99071184D01*
X117839329Y-98989329D01*
X117921184Y-98879984D01*
X117921185Y-98879983D01*
X117968916Y-98752010D01*
X117974999Y-98695428D01*
X117975000Y-98695427D01*
X117975000Y-98550000D01*
X116525001Y-98550000D01*
X116525001Y-98695439D01*
X116531081Y-98752007D01*
X116578813Y-98879981D01*
X116578815Y-98879984D01*
X116660670Y-98989329D01*
X116770015Y-99071184D01*
X116770020Y-99071187D01*
X116803170Y-99083551D01*
X116859104Y-99125421D01*
X116883522Y-99190885D01*
X116868671Y-99259158D01*
X116819266Y-99308564D01*
X116803174Y-99315914D01*
X116769772Y-99328372D01*
X116660313Y-99410313D01*
X116578373Y-99519771D01*
X116530587Y-99647889D01*
X116524500Y-99704498D01*
X107500500Y-99704498D01*
X107500500Y-98154571D01*
X116525000Y-98154571D01*
X116525000Y-98300000D01*
X117125000Y-98300000D01*
X117375000Y-98300000D01*
X117974999Y-98300000D01*
X117974999Y-98197844D01*
X121300000Y-98197844D01*
X121306401Y-98257372D01*
X121306403Y-98257379D01*
X121356645Y-98392086D01*
X121356649Y-98392093D01*
X121442809Y-98507187D01*
X121442812Y-98507190D01*
X121557906Y-98593350D01*
X121557913Y-98593354D01*
X121692620Y-98643596D01*
X121692627Y-98643598D01*
X121752155Y-98649999D01*
X121752172Y-98650000D01*
X122325000Y-98650000D01*
X122575000Y-98650000D01*
X123147828Y-98650000D01*
X123147844Y-98649999D01*
X123207372Y-98643598D01*
X123207379Y-98643596D01*
X123342086Y-98593354D01*
X123342093Y-98593350D01*
X123457187Y-98507190D01*
X123457190Y-98507187D01*
X123543350Y-98392093D01*
X123543354Y-98392086D01*
X123593596Y-98257379D01*
X123593598Y-98257372D01*
X123599999Y-98197844D01*
X123600000Y-98197827D01*
X123600000Y-97950000D01*
X122575000Y-97950000D01*
X122575000Y-98650000D01*
X122325000Y-98650000D01*
X122325000Y-97950000D01*
X121300000Y-97950000D01*
X121300000Y-98197844D01*
X117974999Y-98197844D01*
X117974999Y-98154566D01*
X117974998Y-98154560D01*
X117968918Y-98097992D01*
X117921186Y-97970018D01*
X117921183Y-97970013D01*
X117839329Y-97860670D01*
X117729984Y-97778815D01*
X117729983Y-97778814D01*
X117602010Y-97731083D01*
X117545428Y-97725000D01*
X117375000Y-97725000D01*
X117375000Y-98300000D01*
X117125000Y-98300000D01*
X117125000Y-97725000D01*
X116954566Y-97725000D01*
X116954559Y-97725001D01*
X116897992Y-97731081D01*
X116770018Y-97778813D01*
X116770015Y-97778815D01*
X116660670Y-97860670D01*
X116578815Y-97970015D01*
X116578814Y-97970016D01*
X116531083Y-98097989D01*
X116525000Y-98154571D01*
X107500500Y-98154571D01*
X107500500Y-97452155D01*
X121300000Y-97452155D01*
X121300000Y-97700000D01*
X122325000Y-97700000D01*
X122575000Y-97700000D01*
X123600000Y-97700000D01*
X123600000Y-97452172D01*
X123599999Y-97452155D01*
X123593598Y-97392627D01*
X123593596Y-97392620D01*
X123543354Y-97257913D01*
X123543350Y-97257906D01*
X123457190Y-97142812D01*
X123457187Y-97142809D01*
X123342093Y-97056649D01*
X123342086Y-97056645D01*
X123207379Y-97006403D01*
X123207372Y-97006401D01*
X123147844Y-97000000D01*
X122575000Y-97000000D01*
X122575000Y-97700000D01*
X122325000Y-97700000D01*
X122325000Y-97000000D01*
X121752155Y-97000000D01*
X121692627Y-97006401D01*
X121692620Y-97006403D01*
X121557913Y-97056645D01*
X121557906Y-97056649D01*
X121442812Y-97142809D01*
X121442809Y-97142812D01*
X121356649Y-97257906D01*
X121356645Y-97257913D01*
X121306403Y-97392620D01*
X121306401Y-97392627D01*
X121300000Y-97452155D01*
X107500500Y-97452155D01*
X107500500Y-93454571D01*
X119425000Y-93454571D01*
X119425000Y-93600000D01*
X120025000Y-93600000D01*
X120275000Y-93600000D01*
X120874999Y-93600000D01*
X120874999Y-93454566D01*
X120874998Y-93454560D01*
X120868918Y-93397992D01*
X120821186Y-93270018D01*
X120821184Y-93270015D01*
X120739329Y-93160670D01*
X120629984Y-93078815D01*
X120629983Y-93078814D01*
X120502010Y-93031083D01*
X120445428Y-93025000D01*
X120275000Y-93025000D01*
X120275000Y-93600000D01*
X120025000Y-93600000D01*
X120025000Y-93025000D01*
X119854566Y-93025000D01*
X119854559Y-93025001D01*
X119797992Y-93031081D01*
X119670018Y-93078813D01*
X119670015Y-93078815D01*
X119560670Y-93160670D01*
X119478815Y-93270015D01*
X119478814Y-93270016D01*
X119431083Y-93397989D01*
X119425000Y-93454571D01*
X107500500Y-93454571D01*
X107500500Y-79370544D01*
X107520185Y-79303505D01*
X107572989Y-79257750D01*
X107642147Y-79247806D01*
X107705703Y-79276831D01*
X107712181Y-79282863D01*
X108424788Y-79995470D01*
X108480659Y-80027727D01*
X108504712Y-80041614D01*
X108593856Y-80065500D01*
X108967481Y-80065500D01*
X109034520Y-80085185D01*
X109077966Y-80133205D01*
X109158768Y-80291788D01*
X109260586Y-80431928D01*
X109383072Y-80554414D01*
X109435938Y-80592824D01*
X109478604Y-80648152D01*
X109484583Y-80717766D01*
X109451978Y-80779561D01*
X109450734Y-80780822D01*
X108668532Y-81563025D01*
X108668528Y-81563031D01*
X108626278Y-81636208D01*
X108626279Y-81636209D01*
X108622385Y-81642954D01*
X108601343Y-81721485D01*
X108598500Y-81732096D01*
X108598500Y-83428856D01*
X108598500Y-88532144D01*
X108605619Y-88558712D01*
X108619700Y-88611263D01*
X108619709Y-88611294D01*
X108622386Y-88621290D01*
X108668527Y-88701208D01*
X108668529Y-88701211D01*
X108668530Y-88701212D01*
X111723788Y-91756470D01*
X111723789Y-91756471D01*
X111723791Y-91756472D01*
X111752535Y-91773067D01*
X111803712Y-91802614D01*
X111892856Y-91826500D01*
X111892857Y-91826500D01*
X111892858Y-91826500D01*
X116132642Y-91826500D01*
X116132644Y-91826500D01*
X116221788Y-91802614D01*
X116301712Y-91756470D01*
X116605182Y-91452998D01*
X116666505Y-91419514D01*
X116709627Y-91419898D01*
X116709804Y-91418261D01*
X116717513Y-91419089D01*
X116717517Y-91419091D01*
X116777127Y-91425500D01*
X117397872Y-91425499D01*
X117457483Y-91419091D01*
X117592331Y-91368796D01*
X117707546Y-91282546D01*
X117793796Y-91167331D01*
X117844091Y-91032483D01*
X117850500Y-90972873D01*
X117850499Y-89977128D01*
X117850498Y-89977116D01*
X117850498Y-89977112D01*
X117848847Y-89961756D01*
X117861252Y-89892996D01*
X117908862Y-89841859D01*
X117972136Y-89824500D01*
X122695788Y-89824500D01*
X122695790Y-89824500D01*
X122784934Y-89800614D01*
X122785131Y-89800500D01*
X122864858Y-89754470D01*
X123308969Y-89310359D01*
X123355114Y-89230434D01*
X123362235Y-89203857D01*
X123364437Y-89195641D01*
X123365159Y-89192942D01*
X123379000Y-89141290D01*
X123379000Y-88558710D01*
X123355114Y-88469566D01*
X123337829Y-88439628D01*
X123337829Y-88439627D01*
X123308972Y-88389645D01*
X123308968Y-88389640D01*
X123013985Y-88094656D01*
X122980500Y-88033333D01*
X122977873Y-87999810D01*
X122977998Y-87997638D01*
X122978000Y-87997623D01*
X122977999Y-87702378D01*
X122976332Y-87688000D01*
X122975231Y-87678506D01*
X122975229Y-87678499D01*
X122962683Y-87650086D01*
X122953611Y-87580808D01*
X122962680Y-87549918D01*
X122975230Y-87521498D01*
X122978000Y-87497623D01*
X122977999Y-87202378D01*
X122976600Y-87190314D01*
X122975231Y-87178506D01*
X122975229Y-87178499D01*
X122962683Y-87150086D01*
X122953611Y-87080808D01*
X122962680Y-87049918D01*
X122975230Y-87021498D01*
X122978000Y-86997623D01*
X122977999Y-86702378D01*
X122977998Y-86702375D01*
X122977872Y-86700186D01*
X122977999Y-86699638D01*
X122977999Y-86698797D01*
X122978194Y-86698797D01*
X122993652Y-86632122D01*
X123013980Y-86605347D01*
X123308970Y-86310358D01*
X123355114Y-86230434D01*
X123358257Y-86218704D01*
X123359782Y-86213013D01*
X123359782Y-86213010D01*
X123362632Y-86202375D01*
X123379000Y-86141290D01*
X123379000Y-81058710D01*
X123365303Y-81007592D01*
X123366966Y-80937743D01*
X123406129Y-80879881D01*
X123470357Y-80852377D01*
X123485078Y-80851500D01*
X125168788Y-80851500D01*
X125168790Y-80851500D01*
X125257934Y-80827614D01*
X125283613Y-80812788D01*
X125337858Y-80781470D01*
X125632844Y-80486483D01*
X125659859Y-80471732D01*
X125685805Y-80455125D01*
X125691445Y-80454484D01*
X125694165Y-80453000D01*
X125720749Y-80450166D01*
X125727098Y-80450177D01*
X125729877Y-80450500D01*
X125903227Y-80450499D01*
X125936660Y-80460382D01*
X125970039Y-80470183D01*
X125970116Y-80470272D01*
X125970230Y-80470306D01*
X125993048Y-80496736D01*
X126015794Y-80522987D01*
X126015822Y-80523116D01*
X126015888Y-80523193D01*
X126015980Y-80523843D01*
X126027000Y-80574499D01*
X126027000Y-89253715D01*
X126007315Y-89320754D01*
X125954511Y-89366509D01*
X125885353Y-89376453D01*
X125870904Y-89373489D01*
X125858055Y-89370045D01*
X125858055Y-89370046D01*
X125817848Y-89359273D01*
X125777643Y-89348500D01*
X125668790Y-89348500D01*
X125048356Y-89348500D01*
X124967948Y-89370044D01*
X124967949Y-89370045D01*
X124959208Y-89372387D01*
X124959206Y-89372388D01*
X124879294Y-89418526D01*
X124879285Y-89418533D01*
X124597025Y-89700792D01*
X124596867Y-89700999D01*
X124596689Y-89701128D01*
X124591283Y-89706535D01*
X124590439Y-89705691D01*
X124540434Y-89742195D01*
X124498501Y-89749500D01*
X124229884Y-89749500D01*
X124229861Y-89749502D01*
X124206004Y-89752269D01*
X124206003Y-89752269D01*
X124177585Y-89764817D01*
X124108306Y-89773888D01*
X124077414Y-89764817D01*
X124048998Y-89752270D01*
X124025123Y-89749500D01*
X123729884Y-89749500D01*
X123729861Y-89749502D01*
X123706004Y-89752269D01*
X123706001Y-89752269D01*
X123608364Y-89795380D01*
X123608356Y-89795386D01*
X123532886Y-89870856D01*
X123532881Y-89870863D01*
X123489770Y-89968499D01*
X123487000Y-89992375D01*
X123487000Y-91567615D01*
X123487002Y-91567638D01*
X123489769Y-91591495D01*
X123489769Y-91591498D01*
X123532880Y-91689135D01*
X123532883Y-91689139D01*
X123532884Y-91689141D01*
X123608359Y-91764616D01*
X123608362Y-91764617D01*
X123608363Y-91764618D01*
X123705999Y-91807729D01*
X123706000Y-91807729D01*
X123706002Y-91807730D01*
X123729877Y-91810500D01*
X123878101Y-91810499D01*
X123945140Y-91830183D01*
X123990895Y-91882987D01*
X124000839Y-91952145D01*
X123971814Y-92015701D01*
X123965782Y-92022180D01*
X121099783Y-94888181D01*
X121072855Y-94902884D01*
X121047037Y-94919477D01*
X121040836Y-94920368D01*
X121038460Y-94921666D01*
X121012102Y-94924500D01*
X120946783Y-94924500D01*
X120879744Y-94904815D01*
X120833989Y-94852011D01*
X120830610Y-94843857D01*
X120821628Y-94819774D01*
X120739687Y-94710313D01*
X120630226Y-94628372D01*
X120596826Y-94615914D01*
X120540893Y-94574042D01*
X120516477Y-94508577D01*
X120531330Y-94440304D01*
X120580736Y-94390900D01*
X120596830Y-94383550D01*
X120629983Y-94371185D01*
X120629984Y-94371184D01*
X120739329Y-94289329D01*
X120821184Y-94179984D01*
X120821185Y-94179983D01*
X120868916Y-94052010D01*
X120874999Y-93995428D01*
X120875000Y-93995427D01*
X120875000Y-93850000D01*
X119425001Y-93850000D01*
X119425001Y-93995439D01*
X119431081Y-94052007D01*
X119478813Y-94179981D01*
X119478815Y-94179984D01*
X119560670Y-94289329D01*
X119670015Y-94371184D01*
X119670020Y-94371187D01*
X119703170Y-94383551D01*
X119759104Y-94425421D01*
X119783522Y-94490885D01*
X119768671Y-94559158D01*
X119719266Y-94608564D01*
X119703174Y-94615914D01*
X119669772Y-94628372D01*
X119560313Y-94710313D01*
X119478373Y-94819771D01*
X119430587Y-94947889D01*
X119424500Y-95004498D01*
X119424500Y-95545481D01*
X119424501Y-95545490D01*
X119430587Y-95602114D01*
X119478372Y-95730226D01*
X119560313Y-95839687D01*
X119669774Y-95921628D01*
X119797886Y-95969412D01*
X119854515Y-95975500D01*
X120445484Y-95975499D01*
X120502114Y-95969412D01*
X120630226Y-95921628D01*
X120739687Y-95839687D01*
X120821628Y-95730226D01*
X120830602Y-95706163D01*
X120872473Y-95650233D01*
X120937937Y-95625816D01*
X120946783Y-95625500D01*
X121254788Y-95625500D01*
X121254790Y-95625500D01*
X121343934Y-95601614D01*
X121348815Y-95598796D01*
X121423858Y-95555470D01*
X125133320Y-91846007D01*
X125194641Y-91812524D01*
X125226363Y-91810037D01*
X125226363Y-91810000D01*
X125226839Y-91810000D01*
X125228153Y-91809897D01*
X125229935Y-91810000D01*
X125252500Y-91810000D01*
X125252500Y-91646485D01*
X125255059Y-91637769D01*
X125253771Y-91628777D01*
X125263051Y-91596432D01*
X125264055Y-91594157D01*
X125269896Y-91587239D01*
X125272185Y-91579446D01*
X125288173Y-91565592D01*
X125309126Y-91540775D01*
X125321045Y-91537108D01*
X125324989Y-91533691D01*
X125349383Y-91528390D01*
X125375907Y-91520231D01*
X125443193Y-91539053D01*
X125489623Y-91591265D01*
X125490917Y-91594097D01*
X125491918Y-91596362D01*
X125502500Y-91646486D01*
X125502500Y-91810000D01*
X125525054Y-91810000D01*
X125525059Y-91809999D01*
X125548879Y-91807236D01*
X125576794Y-91794910D01*
X125646073Y-91785838D01*
X125676965Y-91794908D01*
X125706002Y-91807730D01*
X125729877Y-91810500D01*
X126025122Y-91810499D01*
X126031240Y-91809789D01*
X126048993Y-91807731D01*
X126048994Y-91807730D01*
X126048998Y-91807730D01*
X126060589Y-91802612D01*
X126077412Y-91795184D01*
X126146690Y-91786111D01*
X126177585Y-91795182D01*
X126206002Y-91807730D01*
X126229877Y-91810500D01*
X126525122Y-91810499D01*
X126529425Y-91810000D01*
X126548994Y-91807731D01*
X126548995Y-91807730D01*
X126548998Y-91807730D01*
X126578031Y-91794910D01*
X126647305Y-91785838D01*
X126678206Y-91794911D01*
X126706117Y-91807235D01*
X126706115Y-91807235D01*
X126729940Y-91809999D01*
X126729946Y-91810000D01*
X126752500Y-91810000D01*
X126752500Y-91646485D01*
X126755059Y-91637769D01*
X126753771Y-91628777D01*
X126763051Y-91596432D01*
X126764055Y-91594157D01*
X126769896Y-91587239D01*
X126772185Y-91579446D01*
X126788173Y-91565592D01*
X126809126Y-91540775D01*
X126821045Y-91537108D01*
X126824989Y-91533691D01*
X126849383Y-91528390D01*
X126875907Y-91520231D01*
X126943193Y-91539053D01*
X126989623Y-91591265D01*
X126990917Y-91594097D01*
X126991918Y-91596362D01*
X127002500Y-91646486D01*
X127002500Y-91819825D01*
X127024166Y-91859504D01*
X127027000Y-91885862D01*
X127027000Y-94098644D01*
X127041967Y-94154500D01*
X127041966Y-94154500D01*
X127041967Y-94154502D01*
X127050884Y-94187784D01*
X127050885Y-94187786D01*
X127097027Y-94267708D01*
X127097031Y-94267713D01*
X128091636Y-95262318D01*
X128125121Y-95323641D01*
X128120137Y-95393333D01*
X128091636Y-95437680D01*
X126166135Y-97363181D01*
X126104812Y-97396666D01*
X126078454Y-97399500D01*
X125629518Y-97399500D01*
X125629509Y-97399501D01*
X125572885Y-97405587D01*
X125444773Y-97453372D01*
X125335313Y-97535313D01*
X125253373Y-97644771D01*
X125205587Y-97772889D01*
X125199500Y-97829498D01*
X125199500Y-98420481D01*
X125199501Y-98420490D01*
X125205587Y-98477114D01*
X125240915Y-98571828D01*
X125253372Y-98605226D01*
X125335313Y-98714687D01*
X125423177Y-98780461D01*
X125444183Y-98796186D01*
X125444774Y-98796628D01*
X125572886Y-98844412D01*
X125629515Y-98850500D01*
X126170484Y-98850499D01*
X126227114Y-98844412D01*
X126355226Y-98796628D01*
X126464687Y-98714687D01*
X126546628Y-98605226D01*
X126559085Y-98571825D01*
X126600955Y-98515894D01*
X126666419Y-98491477D01*
X126734692Y-98506328D01*
X126784098Y-98555733D01*
X126791448Y-98571827D01*
X126803814Y-98604983D01*
X126803815Y-98604984D01*
X126885670Y-98714329D01*
X126995015Y-98796184D01*
X126995016Y-98796185D01*
X127122991Y-98843917D01*
X127122994Y-98843918D01*
X127179555Y-98849999D01*
X127324999Y-98849999D01*
X127575000Y-98849999D01*
X127720433Y-98849999D01*
X127720439Y-98849998D01*
X127777007Y-98843918D01*
X127904981Y-98796186D01*
X127904984Y-98796184D01*
X128014329Y-98714329D01*
X128096184Y-98604984D01*
X128096185Y-98604983D01*
X128143916Y-98477010D01*
X128149999Y-98420428D01*
X128150000Y-98420427D01*
X128150000Y-98250000D01*
X127575000Y-98250000D01*
X127575000Y-98849999D01*
X127324999Y-98849999D01*
X127325000Y-98849998D01*
X127325000Y-98000000D01*
X127575000Y-98000000D01*
X128149999Y-98000000D01*
X128149999Y-97829566D01*
X128149998Y-97829560D01*
X128143918Y-97772992D01*
X128096186Y-97645018D01*
X128096184Y-97645015D01*
X128014329Y-97535670D01*
X127904984Y-97453815D01*
X127904983Y-97453814D01*
X127777010Y-97406083D01*
X127720428Y-97400000D01*
X127575000Y-97400000D01*
X127575000Y-98000000D01*
X127325000Y-98000000D01*
X127325000Y-97399999D01*
X127310522Y-97385522D01*
X127277036Y-97324199D01*
X127282020Y-97254508D01*
X127310518Y-97210162D01*
X128955470Y-95565212D01*
X129115662Y-95405019D01*
X129176983Y-95371536D01*
X129246674Y-95376520D01*
X129302608Y-95418391D01*
X129323114Y-95460605D01*
X129327362Y-95476456D01*
X129337017Y-95512488D01*
X129409488Y-95638011D01*
X129409490Y-95638013D01*
X129409491Y-95638015D01*
X129511985Y-95740509D01*
X129587499Y-95784107D01*
X129635715Y-95834673D01*
X129649500Y-95891494D01*
X129649500Y-97364235D01*
X129629815Y-97431274D01*
X129577011Y-97477029D01*
X129568834Y-97480417D01*
X129432669Y-97531203D01*
X129432664Y-97531206D01*
X129317455Y-97617452D01*
X129317452Y-97617455D01*
X129231206Y-97732664D01*
X129231202Y-97732671D01*
X129180908Y-97867517D01*
X129174501Y-97927116D01*
X129174501Y-97927123D01*
X129174500Y-97927135D01*
X129174500Y-99322870D01*
X129174501Y-99322876D01*
X129180908Y-99382483D01*
X129231202Y-99517328D01*
X129231206Y-99517335D01*
X129317452Y-99632544D01*
X129317455Y-99632547D01*
X129432664Y-99718793D01*
X129432671Y-99718797D01*
X129477618Y-99735561D01*
X129567517Y-99769091D01*
X129627127Y-99775500D01*
X130372872Y-99775499D01*
X130432483Y-99769091D01*
X130567331Y-99718796D01*
X130682546Y-99632546D01*
X130768796Y-99517331D01*
X130819091Y-99382483D01*
X130825500Y-99322873D01*
X130825500Y-99322844D01*
X132125000Y-99322844D01*
X132131401Y-99382372D01*
X132131403Y-99382379D01*
X132181645Y-99517086D01*
X132181649Y-99517093D01*
X132267809Y-99632187D01*
X132267812Y-99632190D01*
X132382906Y-99718350D01*
X132382913Y-99718354D01*
X132517620Y-99768596D01*
X132517627Y-99768598D01*
X132577155Y-99774999D01*
X132577172Y-99775000D01*
X132825000Y-99775000D01*
X133075000Y-99775000D01*
X133322828Y-99775000D01*
X133322844Y-99774999D01*
X133382372Y-99768598D01*
X133382379Y-99768596D01*
X133517086Y-99718354D01*
X133517093Y-99718350D01*
X133632187Y-99632190D01*
X133632190Y-99632187D01*
X133718350Y-99517093D01*
X133718354Y-99517086D01*
X133768596Y-99382379D01*
X133768598Y-99382372D01*
X133774999Y-99322844D01*
X133775000Y-99322827D01*
X133775000Y-98750000D01*
X133075000Y-98750000D01*
X133075000Y-99775000D01*
X132825000Y-99775000D01*
X132825000Y-98750000D01*
X132125000Y-98750000D01*
X132125000Y-99322844D01*
X130825500Y-99322844D01*
X130825499Y-98612483D01*
X130825499Y-97927155D01*
X132125000Y-97927155D01*
X132125000Y-98500000D01*
X132825000Y-98500000D01*
X133075000Y-98500000D01*
X133775000Y-98500000D01*
X133775000Y-97927172D01*
X133774999Y-97927155D01*
X133768598Y-97867627D01*
X133768596Y-97867620D01*
X133718354Y-97732913D01*
X133718350Y-97732906D01*
X133632190Y-97617812D01*
X133632187Y-97617809D01*
X133517093Y-97531649D01*
X133517086Y-97531645D01*
X133382379Y-97481403D01*
X133382372Y-97481401D01*
X133322844Y-97475000D01*
X133075000Y-97475000D01*
X133075000Y-98500000D01*
X132825000Y-98500000D01*
X132825000Y-97475000D01*
X132577155Y-97475000D01*
X132517627Y-97481401D01*
X132517620Y-97481403D01*
X132382913Y-97531645D01*
X132382906Y-97531649D01*
X132267812Y-97617809D01*
X132267809Y-97617812D01*
X132181649Y-97732906D01*
X132181645Y-97732913D01*
X132131403Y-97867620D01*
X132131401Y-97867627D01*
X132125000Y-97927155D01*
X130825499Y-97927155D01*
X130825499Y-97927129D01*
X130825498Y-97927123D01*
X130825497Y-97927116D01*
X130819091Y-97867517D01*
X130816537Y-97860670D01*
X130768797Y-97732671D01*
X130768793Y-97732664D01*
X130682547Y-97617455D01*
X130682544Y-97617452D01*
X130567335Y-97531206D01*
X130567330Y-97531203D01*
X130431166Y-97480417D01*
X130375233Y-97438545D01*
X130350816Y-97373081D01*
X130350500Y-97364235D01*
X130350500Y-95567288D01*
X130359941Y-95519831D01*
X130362982Y-95512488D01*
X130362981Y-95512488D01*
X130362984Y-95512485D01*
X130400500Y-95372475D01*
X130400500Y-95227525D01*
X130394891Y-95206592D01*
X130396554Y-95136743D01*
X130435717Y-95078881D01*
X130499945Y-95051377D01*
X130514666Y-95050500D01*
X130918892Y-95050500D01*
X130985931Y-95070185D01*
X131031686Y-95122989D01*
X131035073Y-95131166D01*
X131053371Y-95180225D01*
X131070318Y-95202864D01*
X131135313Y-95289687D01*
X131215882Y-95350000D01*
X131244183Y-95371186D01*
X131244774Y-95371628D01*
X131372886Y-95419412D01*
X131429515Y-95425500D01*
X131970484Y-95425499D01*
X132027114Y-95419412D01*
X132155226Y-95371628D01*
X132264687Y-95289687D01*
X132346628Y-95180226D01*
X132359085Y-95146825D01*
X132400955Y-95090894D01*
X132466419Y-95066477D01*
X132534692Y-95081328D01*
X132584098Y-95130733D01*
X132591448Y-95146827D01*
X132603814Y-95179983D01*
X132603815Y-95179984D01*
X132685670Y-95289329D01*
X132795015Y-95371184D01*
X132795016Y-95371185D01*
X132922991Y-95418917D01*
X132922994Y-95418918D01*
X132979555Y-95424999D01*
X133124999Y-95424999D01*
X133375000Y-95424999D01*
X133520433Y-95424999D01*
X133520439Y-95424998D01*
X133577007Y-95418918D01*
X133704981Y-95371186D01*
X133704984Y-95371184D01*
X133814329Y-95289329D01*
X133896184Y-95179984D01*
X133896185Y-95179983D01*
X133943916Y-95052010D01*
X133949999Y-94995428D01*
X133950000Y-94995427D01*
X133950000Y-94825000D01*
X133375000Y-94825000D01*
X133375000Y-95424999D01*
X133124999Y-95424999D01*
X133125000Y-95424998D01*
X133125000Y-94575000D01*
X133375000Y-94575000D01*
X133949999Y-94575000D01*
X133949999Y-94404566D01*
X133949998Y-94404560D01*
X133943918Y-94347992D01*
X133896186Y-94220018D01*
X133896184Y-94220015D01*
X133814329Y-94110670D01*
X133704984Y-94028815D01*
X133704983Y-94028814D01*
X133577010Y-93981083D01*
X133520428Y-93975000D01*
X133375000Y-93975000D01*
X133375000Y-94575000D01*
X133125000Y-94575000D01*
X133125000Y-93975000D01*
X132979566Y-93975000D01*
X132979559Y-93975001D01*
X132922992Y-93981081D01*
X132795018Y-94028813D01*
X132795015Y-94028815D01*
X132685670Y-94110670D01*
X132603815Y-94220015D01*
X132603811Y-94220023D01*
X132591447Y-94253172D01*
X132549576Y-94309106D01*
X132484111Y-94333522D01*
X132415838Y-94318670D01*
X132366433Y-94269264D01*
X132359089Y-94253183D01*
X132346628Y-94219774D01*
X132264687Y-94110313D01*
X132155818Y-94028815D01*
X132155228Y-94028373D01*
X132155226Y-94028372D01*
X132027114Y-93980588D01*
X132027112Y-93980587D01*
X132027110Y-93980587D01*
X131970493Y-93974500D01*
X131429518Y-93974500D01*
X131429509Y-93974501D01*
X131372885Y-93980587D01*
X131244773Y-94028372D01*
X131135313Y-94110313D01*
X131053371Y-94219774D01*
X131035073Y-94268834D01*
X130993202Y-94324768D01*
X130927737Y-94349184D01*
X130918892Y-94349500D01*
X129278856Y-94349500D01*
X129189712Y-94373386D01*
X129189709Y-94373387D01*
X129109791Y-94419527D01*
X129109786Y-94419531D01*
X128762681Y-94766637D01*
X128701358Y-94800122D01*
X128631666Y-94795138D01*
X128587319Y-94766637D01*
X127764319Y-93943637D01*
X127730834Y-93882314D01*
X127728000Y-93855956D01*
X127728000Y-91885862D01*
X127728644Y-91873237D01*
X127753144Y-91633860D01*
X127757315Y-91623641D01*
X127763052Y-91596430D01*
X127764055Y-91594157D01*
X127774311Y-91582010D01*
X127779552Y-91569173D01*
X127793292Y-91559528D01*
X127809126Y-91540775D01*
X127828503Y-91534813D01*
X127836741Y-91529032D01*
X127848913Y-91528535D01*
X127875907Y-91520231D01*
X127898374Y-91526515D01*
X127906552Y-91526182D01*
X127915098Y-91531194D01*
X127943193Y-91539053D01*
X127959206Y-91557061D01*
X127966822Y-91561527D01*
X127971654Y-91571058D01*
X127989623Y-91591265D01*
X127990917Y-91594097D01*
X127991918Y-91596362D01*
X127997223Y-91621494D01*
X127998416Y-91623846D01*
X127998582Y-91627931D01*
X128002500Y-91646486D01*
X128002500Y-91810000D01*
X128025054Y-91810000D01*
X128025059Y-91809999D01*
X128048879Y-91807236D01*
X128076794Y-91794910D01*
X128146073Y-91785838D01*
X128176965Y-91794908D01*
X128206002Y-91807730D01*
X128229877Y-91810500D01*
X128525122Y-91810499D01*
X128531240Y-91809789D01*
X128548993Y-91807731D01*
X128548994Y-91807730D01*
X128548998Y-91807730D01*
X128560589Y-91802612D01*
X128577412Y-91795184D01*
X128646690Y-91786111D01*
X128677585Y-91795182D01*
X128706002Y-91807730D01*
X128729877Y-91810500D01*
X129025122Y-91810499D01*
X129031240Y-91809789D01*
X129048993Y-91807731D01*
X129048994Y-91807730D01*
X129048998Y-91807730D01*
X129060589Y-91802612D01*
X129077412Y-91795184D01*
X129146690Y-91786111D01*
X129177585Y-91795182D01*
X129206002Y-91807730D01*
X129229877Y-91810500D01*
X129525122Y-91810499D01*
X129531240Y-91809789D01*
X129548993Y-91807731D01*
X129548994Y-91807730D01*
X129548998Y-91807730D01*
X129560589Y-91802612D01*
X129577412Y-91795184D01*
X129646690Y-91786111D01*
X129677585Y-91795182D01*
X129706002Y-91807730D01*
X129729877Y-91810500D01*
X130025122Y-91810499D01*
X130031240Y-91809789D01*
X130048993Y-91807731D01*
X130048994Y-91807730D01*
X130048998Y-91807730D01*
X130060589Y-91802612D01*
X130077412Y-91795184D01*
X130146690Y-91786111D01*
X130177585Y-91795182D01*
X130206002Y-91807730D01*
X130229877Y-91810500D01*
X130525122Y-91810499D01*
X130531240Y-91809789D01*
X130548993Y-91807731D01*
X130548994Y-91807730D01*
X130548998Y-91807730D01*
X130560589Y-91802612D01*
X130577412Y-91795184D01*
X130646690Y-91786111D01*
X130677585Y-91795182D01*
X130706002Y-91807730D01*
X130729877Y-91810500D01*
X131025122Y-91810499D01*
X131029425Y-91810000D01*
X131048994Y-91807731D01*
X131048995Y-91807730D01*
X131048998Y-91807730D01*
X131078031Y-91794910D01*
X131147305Y-91785838D01*
X131178206Y-91794911D01*
X131206117Y-91807235D01*
X131206115Y-91807235D01*
X131229940Y-91809999D01*
X131229946Y-91810000D01*
X131252500Y-91810000D01*
X131252500Y-91646485D01*
X131254548Y-91636771D01*
X131253549Y-91630390D01*
X131263064Y-91596403D01*
X131263082Y-91596362D01*
X131265064Y-91591871D01*
X131310148Y-91538495D01*
X131376933Y-91517965D01*
X131444216Y-91536801D01*
X131490635Y-91589023D01*
X131502500Y-91641955D01*
X131502500Y-91810000D01*
X131525054Y-91810000D01*
X131525059Y-91809999D01*
X131548881Y-91807235D01*
X131548883Y-91807235D01*
X131646349Y-91764198D01*
X131646356Y-91764194D01*
X131721694Y-91688856D01*
X131721698Y-91688849D01*
X131764735Y-91591383D01*
X131764735Y-91591381D01*
X131767499Y-91567559D01*
X131767500Y-91567553D01*
X131767500Y-90905000D01*
X131501500Y-90905000D01*
X131492814Y-90902449D01*
X131483853Y-90903738D01*
X131459812Y-90892759D01*
X131434461Y-90885315D01*
X131428533Y-90878474D01*
X131420297Y-90874713D01*
X131406007Y-90852478D01*
X131388706Y-90832511D01*
X131386418Y-90821996D01*
X131382523Y-90815935D01*
X131377500Y-90781000D01*
X131377500Y-90779000D01*
X131397185Y-90711961D01*
X131449989Y-90666206D01*
X131501500Y-90655000D01*
X131767500Y-90655000D01*
X131767500Y-90638898D01*
X131787185Y-90571859D01*
X131839989Y-90526104D01*
X131909147Y-90516160D01*
X131972703Y-90545185D01*
X131979181Y-90551217D01*
X141608434Y-100180470D01*
X141688358Y-100226614D01*
X141777502Y-100250500D01*
X141777503Y-100250500D01*
X141777504Y-100250500D01*
X147921142Y-100250500D01*
X147921144Y-100250500D01*
X148010288Y-100226614D01*
X148090212Y-100180470D01*
X152382470Y-95888212D01*
X152428614Y-95808288D01*
X152449465Y-95730470D01*
X152449465Y-95730469D01*
X152449466Y-95730469D01*
X152449466Y-95730464D01*
X152452500Y-95719144D01*
X152452500Y-86105386D01*
X152472185Y-86038347D01*
X152524989Y-85992592D01*
X152594147Y-85982648D01*
X152657703Y-86011673D01*
X152664181Y-86017705D01*
X152711985Y-86065509D01*
X152711986Y-86065510D01*
X152711988Y-86065511D01*
X152837511Y-86137982D01*
X152837512Y-86137982D01*
X152837515Y-86137984D01*
X152977525Y-86175500D01*
X152977528Y-86175500D01*
X153122472Y-86175500D01*
X153122475Y-86175500D01*
X153262485Y-86137984D01*
X153388015Y-86065509D01*
X153490509Y-85963015D01*
X153562984Y-85837485D01*
X153600500Y-85697475D01*
X153600500Y-85621544D01*
X153620185Y-85554505D01*
X153636819Y-85533863D01*
X154379727Y-84790955D01*
X155230470Y-83940212D01*
X155276614Y-83860288D01*
X155300500Y-83771144D01*
X155300500Y-83678856D01*
X155300500Y-82094499D01*
X155320185Y-82027460D01*
X155372989Y-81981705D01*
X155424500Y-81970499D01*
X155875002Y-81970499D01*
X155875008Y-81970499D01*
X155977797Y-81959999D01*
X156144334Y-81904814D01*
X156293656Y-81812712D01*
X156417712Y-81688656D01*
X156509814Y-81539334D01*
X156564999Y-81372797D01*
X156575500Y-81270009D01*
X156575499Y-80169992D01*
X156575290Y-80167950D01*
X156564999Y-80067203D01*
X156564998Y-80067200D01*
X156557155Y-80043531D01*
X156509814Y-79900666D01*
X156417712Y-79751344D01*
X156293656Y-79627288D01*
X156293655Y-79627287D01*
X156223252Y-79583863D01*
X156177330Y-79555538D01*
X156130606Y-79503591D01*
X156119383Y-79434629D01*
X156147226Y-79370547D01*
X156177329Y-79344462D01*
X156293656Y-79272712D01*
X156417712Y-79148656D01*
X156509814Y-78999334D01*
X156564999Y-78832797D01*
X156575500Y-78730009D01*
X156575499Y-77629992D01*
X156575194Y-77627011D01*
X156564999Y-77527203D01*
X156564998Y-77527200D01*
X156533684Y-77432701D01*
X156509814Y-77360666D01*
X156417712Y-77211344D01*
X156293656Y-77087288D01*
X156293655Y-77087287D01*
X156196908Y-77027614D01*
X156177330Y-77015538D01*
X156130606Y-76963591D01*
X156119383Y-76894629D01*
X156147226Y-76830547D01*
X156177329Y-76804462D01*
X156293656Y-76732712D01*
X156417712Y-76608656D01*
X156509814Y-76459334D01*
X156564999Y-76292797D01*
X156575500Y-76190009D01*
X156575499Y-75089992D01*
X156573749Y-75072864D01*
X156564999Y-74987203D01*
X156564998Y-74987200D01*
X156538548Y-74907379D01*
X156509814Y-74820666D01*
X156417712Y-74671344D01*
X156293656Y-74547288D01*
X156293655Y-74547287D01*
X156237339Y-74512551D01*
X156177330Y-74475538D01*
X156130606Y-74423591D01*
X156119383Y-74354629D01*
X156147226Y-74290547D01*
X156177329Y-74264462D01*
X156293656Y-74192712D01*
X156417712Y-74068656D01*
X156509814Y-73919334D01*
X156564999Y-73752797D01*
X156575500Y-73650009D01*
X156575499Y-72549992D01*
X156564999Y-72447203D01*
X156509814Y-72280666D01*
X156417712Y-72131344D01*
X156293656Y-72007288D01*
X156293655Y-72007287D01*
X156188544Y-71942455D01*
X156177330Y-71935538D01*
X156130606Y-71883591D01*
X156119383Y-71814629D01*
X156147226Y-71750547D01*
X156177329Y-71724462D01*
X156293656Y-71652712D01*
X156417712Y-71528656D01*
X156509814Y-71379334D01*
X156564999Y-71212797D01*
X156575500Y-71110009D01*
X156575500Y-71034500D01*
X156595185Y-70967461D01*
X156647989Y-70921706D01*
X156699500Y-70910500D01*
X157700956Y-70910500D01*
X157767995Y-70930185D01*
X157788637Y-70946819D01*
X158038181Y-71196363D01*
X158071666Y-71257686D01*
X158074500Y-71284044D01*
X158074500Y-71997870D01*
X158074501Y-71997876D01*
X158080908Y-72057483D01*
X158131202Y-72192328D01*
X158131206Y-72192335D01*
X158217452Y-72307544D01*
X158217455Y-72307547D01*
X158332664Y-72393793D01*
X158332671Y-72393797D01*
X158354684Y-72402007D01*
X158467517Y-72444091D01*
X158527127Y-72450500D01*
X159147872Y-72450499D01*
X159207483Y-72444091D01*
X159342331Y-72393796D01*
X159457546Y-72307546D01*
X159543796Y-72192331D01*
X159594091Y-72057483D01*
X159600500Y-71997873D01*
X159600499Y-71002128D01*
X159595299Y-70953757D01*
X159594091Y-70942516D01*
X159543797Y-70807671D01*
X159543793Y-70807664D01*
X159457547Y-70692455D01*
X159457544Y-70692452D01*
X159342335Y-70606206D01*
X159342328Y-70606202D01*
X159207486Y-70555910D01*
X159207485Y-70555909D01*
X159207483Y-70555909D01*
X159147873Y-70549500D01*
X159147863Y-70549500D01*
X158527129Y-70549500D01*
X158527123Y-70549501D01*
X158459804Y-70556738D01*
X158459548Y-70554364D01*
X158401595Y-70551250D01*
X158355182Y-70522000D01*
X158112713Y-70279531D01*
X158112708Y-70279527D01*
X158032786Y-70233385D01*
X158032788Y-70233385D01*
X158028694Y-70232289D01*
X158028691Y-70232287D01*
X158028691Y-70232288D01*
X157986167Y-70220894D01*
X157943644Y-70209500D01*
X157943643Y-70209500D01*
X156699499Y-70209500D01*
X156632460Y-70189815D01*
X156586705Y-70137011D01*
X156575499Y-70085500D01*
X156575499Y-70009998D01*
X156575498Y-70009981D01*
X156564999Y-69907203D01*
X156564998Y-69907200D01*
X156533684Y-69812701D01*
X156509814Y-69740666D01*
X156417712Y-69591344D01*
X156293656Y-69467288D01*
X156176854Y-69395244D01*
X156130131Y-69343297D01*
X156118908Y-69274334D01*
X156146752Y-69210252D01*
X156176856Y-69184167D01*
X156293343Y-69112317D01*
X156417315Y-68988345D01*
X156509356Y-68839124D01*
X156509358Y-68839119D01*
X156564505Y-68672697D01*
X156564506Y-68672690D01*
X156574999Y-68569986D01*
X156575000Y-68569973D01*
X156575000Y-68145000D01*
X153325001Y-68145000D01*
X153325001Y-68569986D01*
X153335494Y-68672697D01*
X153390641Y-68839119D01*
X153390643Y-68839124D01*
X153482684Y-68988345D01*
X153606654Y-69112315D01*
X153723144Y-69184167D01*
X153769868Y-69236115D01*
X153781091Y-69305078D01*
X153753247Y-69369160D01*
X153723144Y-69395244D01*
X153606347Y-69467285D01*
X153606343Y-69467288D01*
X153482289Y-69591342D01*
X153390187Y-69740663D01*
X153390185Y-69740668D01*
X153379753Y-69772150D01*
X153335001Y-69907203D01*
X153335001Y-69907204D01*
X153335000Y-69907204D01*
X153324500Y-70009983D01*
X153324500Y-70263455D01*
X153304815Y-70330494D01*
X153288181Y-70351136D01*
X141790181Y-81849136D01*
X141728858Y-81882621D01*
X141659166Y-81877637D01*
X141603233Y-81835765D01*
X141578816Y-81770301D01*
X141578500Y-81761455D01*
X141578500Y-69373000D01*
X141598185Y-69305961D01*
X141650989Y-69260206D01*
X141702500Y-69249000D01*
X143421000Y-69249000D01*
X150279000Y-69249000D01*
X152057000Y-69249000D01*
X152057000Y-66582000D01*
X150279000Y-66582000D01*
X150279000Y-69249000D01*
X143421000Y-69249000D01*
X143421000Y-67725000D01*
X144310000Y-67725000D01*
X149390000Y-67725000D01*
X149390000Y-65185000D01*
X150279000Y-65185000D01*
X152057000Y-65185000D01*
X152057000Y-64929983D01*
X153324500Y-64929983D01*
X153324500Y-66030001D01*
X153324501Y-66030019D01*
X153335000Y-66132796D01*
X153335001Y-66132799D01*
X153374004Y-66250500D01*
X153390186Y-66299334D01*
X153482288Y-66448656D01*
X153606344Y-66572712D01*
X153723144Y-66644754D01*
X153769868Y-66696702D01*
X153781091Y-66765665D01*
X153753247Y-66829747D01*
X153723144Y-66855831D01*
X153606659Y-66927680D01*
X153606655Y-66927683D01*
X153482684Y-67051654D01*
X153390643Y-67200875D01*
X153390641Y-67200880D01*
X153335494Y-67367302D01*
X153335493Y-67367309D01*
X153325000Y-67470013D01*
X153325000Y-67895000D01*
X156574999Y-67895000D01*
X156574999Y-67470028D01*
X156574998Y-67470013D01*
X156564505Y-67367302D01*
X156509358Y-67200880D01*
X156509356Y-67200875D01*
X156417315Y-67051654D01*
X156293344Y-66927683D01*
X156293340Y-66927680D01*
X156176855Y-66855831D01*
X156130130Y-66803883D01*
X156118909Y-66734921D01*
X156146752Y-66670839D01*
X156176854Y-66644755D01*
X156293656Y-66572712D01*
X156417712Y-66448656D01*
X156509814Y-66299334D01*
X156564999Y-66132797D01*
X156575500Y-66030009D01*
X156575499Y-65378463D01*
X158062500Y-65378463D01*
X158068824Y-65437288D01*
X158118438Y-65570309D01*
X158118440Y-65570312D01*
X158203526Y-65683973D01*
X158317187Y-65769059D01*
X158317190Y-65769061D01*
X158450212Y-65818675D01*
X158450211Y-65818675D01*
X158509036Y-65824999D01*
X158509038Y-65825000D01*
X158675000Y-65825000D01*
X158925000Y-65825000D01*
X159090962Y-65825000D01*
X159090963Y-65824999D01*
X159149788Y-65818675D01*
X159282809Y-65769061D01*
X159282812Y-65769059D01*
X159396473Y-65683973D01*
X159481559Y-65570312D01*
X159481561Y-65570309D01*
X159531175Y-65437288D01*
X159537499Y-65378463D01*
X159537500Y-65378462D01*
X159537500Y-65000000D01*
X158925000Y-65000000D01*
X158925000Y-65825000D01*
X158675000Y-65825000D01*
X158675000Y-65000000D01*
X158062500Y-65000000D01*
X158062500Y-65378463D01*
X156575499Y-65378463D01*
X156575499Y-64929992D01*
X156564999Y-64827203D01*
X156509814Y-64660666D01*
X156417712Y-64511344D01*
X156293656Y-64387288D01*
X156268118Y-64371536D01*
X158062500Y-64371536D01*
X158062500Y-64750000D01*
X158675000Y-64750000D01*
X158925000Y-64750000D01*
X159537500Y-64750000D01*
X159537500Y-64371538D01*
X159537499Y-64371536D01*
X159531175Y-64312711D01*
X159481561Y-64179690D01*
X159481559Y-64179687D01*
X159396473Y-64066026D01*
X159282812Y-63980940D01*
X159282809Y-63980938D01*
X159149787Y-63931324D01*
X159149788Y-63931324D01*
X159090963Y-63925000D01*
X158925000Y-63925000D01*
X158925000Y-64750000D01*
X158675000Y-64750000D01*
X158675000Y-63925000D01*
X158509036Y-63925000D01*
X158450211Y-63931324D01*
X158317190Y-63980938D01*
X158317187Y-63980940D01*
X158203526Y-64066026D01*
X158118440Y-64179687D01*
X158118438Y-64179690D01*
X158068824Y-64312711D01*
X158062500Y-64371536D01*
X156268118Y-64371536D01*
X156172586Y-64312612D01*
X156144336Y-64295187D01*
X156144331Y-64295185D01*
X156142862Y-64294698D01*
X155977797Y-64240001D01*
X155977795Y-64240000D01*
X155875010Y-64229500D01*
X154024998Y-64229500D01*
X154024981Y-64229501D01*
X153922203Y-64240000D01*
X153922200Y-64240001D01*
X153755668Y-64295185D01*
X153755663Y-64295187D01*
X153606342Y-64387289D01*
X153482289Y-64511342D01*
X153390187Y-64660663D01*
X153390186Y-64660666D01*
X153335001Y-64827203D01*
X153335001Y-64827204D01*
X153335000Y-64827204D01*
X153324500Y-64929983D01*
X152057000Y-64929983D01*
X152057000Y-62518000D01*
X150279000Y-62518000D01*
X150279000Y-65185000D01*
X149390000Y-65185000D01*
X149390000Y-63280000D01*
X144310000Y-63280000D01*
X144310000Y-67725000D01*
X143421000Y-67725000D01*
X143421000Y-66582000D01*
X141643000Y-66582000D01*
X141643000Y-67577956D01*
X141623315Y-67644995D01*
X141570511Y-67690750D01*
X141501353Y-67700694D01*
X141437797Y-67671669D01*
X141431319Y-67665637D01*
X140285753Y-66520071D01*
X140252268Y-66458748D01*
X140257252Y-66389056D01*
X140267890Y-66367303D01*
X140309814Y-66299334D01*
X140364999Y-66132797D01*
X140375500Y-66030009D01*
X140375499Y-65185000D01*
X141643000Y-65185000D01*
X143421000Y-65185000D01*
X143421000Y-62518000D01*
X141643000Y-62518000D01*
X141643000Y-65185000D01*
X140375499Y-65185000D01*
X140375499Y-64929992D01*
X140364999Y-64827203D01*
X140309814Y-64660666D01*
X140217712Y-64511344D01*
X140093656Y-64387288D01*
X139972586Y-64312612D01*
X139944336Y-64295187D01*
X139944331Y-64295185D01*
X139942862Y-64294698D01*
X139777797Y-64240001D01*
X139777795Y-64240000D01*
X139675010Y-64229500D01*
X137824998Y-64229500D01*
X137824981Y-64229501D01*
X137722203Y-64240000D01*
X137722200Y-64240001D01*
X137555668Y-64295185D01*
X137555663Y-64295187D01*
X137406342Y-64387289D01*
X137282289Y-64511342D01*
X137190187Y-64660663D01*
X137190186Y-64660666D01*
X137135001Y-64827203D01*
X137135001Y-64827204D01*
X137135000Y-64827204D01*
X137124500Y-64929983D01*
X137124500Y-66030001D01*
X137124501Y-66030019D01*
X137135000Y-66132796D01*
X137135001Y-66132799D01*
X137174004Y-66250500D01*
X137190186Y-66299334D01*
X137282288Y-66448656D01*
X137406344Y-66572712D01*
X137522669Y-66644461D01*
X137569393Y-66696409D01*
X137580616Y-66765372D01*
X137552772Y-66829454D01*
X137522670Y-66855537D01*
X137448674Y-66901178D01*
X137406342Y-66927289D01*
X137282289Y-67051342D01*
X137190187Y-67200663D01*
X137190185Y-67200668D01*
X137190115Y-67200880D01*
X137135001Y-67367203D01*
X137135001Y-67367204D01*
X137135000Y-67367204D01*
X137124500Y-67469983D01*
X137124500Y-68570001D01*
X137124501Y-68570019D01*
X137135000Y-68672796D01*
X137135001Y-68672799D01*
X137190185Y-68839331D01*
X137190187Y-68839336D01*
X137199308Y-68854124D01*
X137282288Y-68988656D01*
X137406344Y-69112712D01*
X137522669Y-69184461D01*
X137569393Y-69236409D01*
X137580616Y-69305372D01*
X137552772Y-69369454D01*
X137522670Y-69395537D01*
X137450363Y-69440137D01*
X137406342Y-69467289D01*
X137282289Y-69591342D01*
X137190187Y-69740663D01*
X137190185Y-69740668D01*
X137179753Y-69772150D01*
X137135001Y-69907203D01*
X137135001Y-69907204D01*
X137135000Y-69907204D01*
X137124500Y-70009983D01*
X137124500Y-71110001D01*
X137124501Y-71110019D01*
X137135000Y-71212796D01*
X137135001Y-71212799D01*
X137190185Y-71379331D01*
X137190187Y-71379336D01*
X137216741Y-71422387D01*
X137282288Y-71528656D01*
X137406344Y-71652712D01*
X137522669Y-71724461D01*
X137569393Y-71776409D01*
X137580616Y-71845372D01*
X137552772Y-71909454D01*
X137522670Y-71935537D01*
X137511456Y-71942455D01*
X137406342Y-72007289D01*
X137282289Y-72131342D01*
X137190187Y-72280663D01*
X137190185Y-72280668D01*
X137173661Y-72330535D01*
X137135001Y-72447203D01*
X137135001Y-72447204D01*
X137135000Y-72447204D01*
X137124500Y-72549983D01*
X137124500Y-73650001D01*
X137124501Y-73650019D01*
X137135000Y-73752796D01*
X137135001Y-73752799D01*
X137190185Y-73919331D01*
X137190187Y-73919336D01*
X137213093Y-73956472D01*
X137282288Y-74068656D01*
X137406344Y-74192712D01*
X137522669Y-74264461D01*
X137569393Y-74316409D01*
X137580616Y-74385372D01*
X137552772Y-74449454D01*
X137522670Y-74475537D01*
X137456848Y-74516137D01*
X137406342Y-74547289D01*
X137282289Y-74671342D01*
X137190187Y-74820663D01*
X137190185Y-74820668D01*
X137181180Y-74847844D01*
X137135001Y-74987203D01*
X137135001Y-74987204D01*
X137135000Y-74987204D01*
X137124500Y-75089983D01*
X137124500Y-76190001D01*
X137124501Y-76190019D01*
X137135000Y-76292796D01*
X137135001Y-76292799D01*
X137190185Y-76459331D01*
X137190187Y-76459336D01*
X137219922Y-76507544D01*
X137282288Y-76608656D01*
X137406344Y-76732712D01*
X137522669Y-76804461D01*
X137569393Y-76856409D01*
X137580616Y-76925372D01*
X137552772Y-76989454D01*
X137522670Y-77015537D01*
X137503092Y-77027614D01*
X137406342Y-77087289D01*
X137282289Y-77211342D01*
X137190187Y-77360663D01*
X137190186Y-77360666D01*
X137135001Y-77527203D01*
X137135001Y-77527204D01*
X137135000Y-77527204D01*
X137124500Y-77629983D01*
X137124500Y-77978455D01*
X137115855Y-78007895D01*
X137109332Y-78037882D01*
X137105577Y-78042897D01*
X137104815Y-78045494D01*
X137088181Y-78066136D01*
X136916137Y-78238181D01*
X136854814Y-78271666D01*
X136828456Y-78274500D01*
X136752525Y-78274500D01*
X136623993Y-78308940D01*
X136612511Y-78312017D01*
X136486988Y-78384488D01*
X136486982Y-78384493D01*
X136384493Y-78486982D01*
X136384488Y-78486988D01*
X136312017Y-78612511D01*
X136312016Y-78612515D01*
X136274500Y-78752525D01*
X136274500Y-78897475D01*
X136310851Y-79033136D01*
X136312017Y-79037488D01*
X136384488Y-79163011D01*
X136384490Y-79163013D01*
X136384491Y-79163015D01*
X136486985Y-79265509D01*
X136486986Y-79265510D01*
X136486988Y-79265511D01*
X136612511Y-79337982D01*
X136612512Y-79337982D01*
X136612515Y-79337984D01*
X136752525Y-79375500D01*
X136752528Y-79375500D01*
X136897472Y-79375500D01*
X136897475Y-79375500D01*
X137037485Y-79337984D01*
X137163015Y-79265509D01*
X137193397Y-79235126D01*
X137254717Y-79201642D01*
X137324409Y-79206626D01*
X137353574Y-79222209D01*
X137361689Y-79228057D01*
X137406344Y-79272712D01*
X137526455Y-79346797D01*
X137530069Y-79349401D01*
X137548883Y-79373606D01*
X137569393Y-79396409D01*
X137570130Y-79400941D01*
X137572948Y-79404566D01*
X137575689Y-79435098D01*
X137580616Y-79465372D01*
X137578785Y-79469584D01*
X137579196Y-79474155D01*
X137564993Y-79501325D01*
X137552772Y-79529454D01*
X137548237Y-79533383D01*
X137546830Y-79536076D01*
X137541864Y-79538905D01*
X137522670Y-79555537D01*
X137459455Y-79594529D01*
X137406342Y-79627289D01*
X137282289Y-79751342D01*
X137190187Y-79900663D01*
X137190185Y-79900668D01*
X137162349Y-79984670D01*
X137135001Y-80067203D01*
X137135001Y-80067204D01*
X137135000Y-80067204D01*
X137124500Y-80169983D01*
X137124500Y-80245500D01*
X137104815Y-80312539D01*
X137052011Y-80358294D01*
X137000500Y-80369500D01*
X135991543Y-80369500D01*
X135924504Y-80349815D01*
X135903862Y-80333181D01*
X131307862Y-75737180D01*
X131274377Y-75675857D01*
X131279361Y-75606165D01*
X131321233Y-75550232D01*
X131386697Y-75525815D01*
X131395525Y-75525499D01*
X131785372Y-75525499D01*
X131844983Y-75519091D01*
X131979831Y-75468796D01*
X132095046Y-75382546D01*
X132181296Y-75267331D01*
X132231591Y-75132483D01*
X132238000Y-75072873D01*
X132237999Y-74077128D01*
X132231591Y-74017517D01*
X132226032Y-74002613D01*
X132181297Y-73882671D01*
X132181293Y-73882664D01*
X132095047Y-73767455D01*
X132095044Y-73767452D01*
X131979835Y-73681206D01*
X131979828Y-73681202D01*
X131906167Y-73653729D01*
X131850233Y-73611858D01*
X131825816Y-73546394D01*
X131825500Y-73537547D01*
X131825500Y-68346543D01*
X131845185Y-68279504D01*
X131861814Y-68258867D01*
X133846947Y-66273733D01*
X133908268Y-66240250D01*
X133967070Y-66244455D01*
X133967559Y-66242387D01*
X133975109Y-66244171D01*
X134033979Y-66250500D01*
X134616020Y-66250499D01*
X134674891Y-66244171D01*
X134808054Y-66194503D01*
X134921831Y-66109331D01*
X135007003Y-65995554D01*
X135056671Y-65862391D01*
X135061371Y-65818675D01*
X135062999Y-65803537D01*
X135062999Y-65803530D01*
X135063000Y-65803521D01*
X135062999Y-64796480D01*
X135056671Y-64737609D01*
X135007003Y-64604446D01*
X134921831Y-64490669D01*
X134808646Y-64405940D01*
X134808056Y-64405498D01*
X134808054Y-64405497D01*
X134674891Y-64355829D01*
X134674889Y-64355828D01*
X134674887Y-64355828D01*
X134616029Y-64349500D01*
X134033982Y-64349500D01*
X134033973Y-64349501D01*
X133975108Y-64355828D01*
X133841945Y-64405497D01*
X133728169Y-64490669D01*
X133642998Y-64604443D01*
X133593328Y-64737612D01*
X133587000Y-64796462D01*
X133587000Y-65490954D01*
X133578355Y-65520394D01*
X133571832Y-65550381D01*
X133568077Y-65555396D01*
X133567315Y-65557993D01*
X133550691Y-65578622D01*
X133550681Y-65578635D01*
X133399181Y-65730135D01*
X133337858Y-65763620D01*
X133268166Y-65758636D01*
X133212233Y-65716764D01*
X133187816Y-65651300D01*
X133187500Y-65642454D01*
X133187500Y-65425000D01*
X132575000Y-65425000D01*
X132575000Y-66250000D01*
X132579955Y-66250000D01*
X132646994Y-66269685D01*
X132692749Y-66322489D01*
X132702693Y-66391647D01*
X132673668Y-66455203D01*
X132667636Y-66461681D01*
X131194531Y-67934786D01*
X131194527Y-67934791D01*
X131148387Y-68014709D01*
X131148386Y-68014712D01*
X131124500Y-68103856D01*
X131124500Y-70935334D01*
X131104815Y-71002373D01*
X131052011Y-71048128D01*
X130991071Y-71058975D01*
X130979559Y-71058097D01*
X130947475Y-71049500D01*
X130866823Y-71049500D01*
X130862115Y-71049141D01*
X130833673Y-71038379D01*
X130804505Y-71029815D01*
X130798723Y-71025156D01*
X130796767Y-71024416D01*
X130795226Y-71022338D01*
X130783863Y-71013181D01*
X130286819Y-70516137D01*
X130253334Y-70454814D01*
X130250500Y-70428456D01*
X130250500Y-69960480D01*
X130270185Y-69893441D01*
X130306628Y-69859968D01*
X130305405Y-69858311D01*
X130312882Y-69852793D01*
X130422150Y-69772150D01*
X130502793Y-69662882D01*
X130527826Y-69591342D01*
X130547646Y-69534701D01*
X130547646Y-69534699D01*
X130550500Y-69504269D01*
X130550500Y-67795730D01*
X130547646Y-67765300D01*
X130547646Y-67765298D01*
X130505549Y-67644995D01*
X130502793Y-67637118D01*
X130422150Y-67527850D01*
X130312882Y-67447207D01*
X130312880Y-67447206D01*
X130184700Y-67402353D01*
X130154270Y-67399500D01*
X130154266Y-67399500D01*
X129645734Y-67399500D01*
X129645730Y-67399500D01*
X129615300Y-67402353D01*
X129615298Y-67402353D01*
X129487119Y-67447206D01*
X129487117Y-67447207D01*
X129377850Y-67527850D01*
X129297207Y-67637117D01*
X129297206Y-67637119D01*
X129252353Y-67765298D01*
X129252353Y-67765300D01*
X129249500Y-67795730D01*
X129249500Y-69504269D01*
X129252353Y-69534699D01*
X129252353Y-69534701D01*
X129297124Y-69662645D01*
X129297207Y-69662882D01*
X129377850Y-69772150D01*
X129487118Y-69852793D01*
X129494595Y-69858311D01*
X129493137Y-69860285D01*
X129533515Y-69899580D01*
X129549500Y-69960480D01*
X129549500Y-70671143D01*
X129569045Y-70744089D01*
X129573385Y-70760284D01*
X129573387Y-70760290D01*
X129619527Y-70840208D01*
X129619531Y-70840213D01*
X130288181Y-71508863D01*
X130321666Y-71570186D01*
X130324500Y-71596544D01*
X130324500Y-71672475D01*
X130358818Y-71800550D01*
X130362017Y-71812488D01*
X130434488Y-71938011D01*
X130434490Y-71938013D01*
X130434491Y-71938015D01*
X130536985Y-72040509D01*
X130536986Y-72040510D01*
X130536988Y-72040511D01*
X130662511Y-72112982D01*
X130662512Y-72112982D01*
X130662515Y-72112984D01*
X130802525Y-72150500D01*
X130802528Y-72150500D01*
X130947472Y-72150500D01*
X130947475Y-72150500D01*
X130968407Y-72144891D01*
X131038253Y-72146552D01*
X131096117Y-72185713D01*
X131123623Y-72249940D01*
X131124500Y-72264665D01*
X131124500Y-73537547D01*
X131104815Y-73604586D01*
X131052011Y-73650341D01*
X131043833Y-73653729D01*
X130970171Y-73681202D01*
X130970164Y-73681206D01*
X130854955Y-73767452D01*
X130854952Y-73767455D01*
X130768706Y-73882664D01*
X130768702Y-73882671D01*
X130718408Y-74017517D01*
X130712001Y-74077116D01*
X130712001Y-74077123D01*
X130712000Y-74077135D01*
X130712000Y-74841956D01*
X130705761Y-74863201D01*
X130704182Y-74885290D01*
X130696109Y-74896073D01*
X130692315Y-74908995D01*
X130675581Y-74923494D01*
X130662310Y-74941223D01*
X130649689Y-74945930D01*
X130639511Y-74954750D01*
X130617593Y-74957901D01*
X130596846Y-74965640D01*
X130583685Y-74962777D01*
X130570353Y-74964694D01*
X130550209Y-74955494D01*
X130528573Y-74950788D01*
X130510847Y-74937519D01*
X130506797Y-74935669D01*
X130500319Y-74929637D01*
X130449318Y-74878636D01*
X130415833Y-74817313D01*
X130412999Y-74790955D01*
X130412999Y-74077129D01*
X130412998Y-74077123D01*
X130412997Y-74077116D01*
X130406591Y-74017517D01*
X130401032Y-74002613D01*
X130356297Y-73882671D01*
X130356293Y-73882664D01*
X130270047Y-73767455D01*
X130270044Y-73767452D01*
X130154835Y-73681206D01*
X130154828Y-73681202D01*
X130019986Y-73630910D01*
X130019985Y-73630909D01*
X130019983Y-73630909D01*
X129960373Y-73624500D01*
X129960363Y-73624500D01*
X129339629Y-73624500D01*
X129339623Y-73624501D01*
X129280016Y-73630908D01*
X129145171Y-73681202D01*
X129145164Y-73681206D01*
X129029955Y-73767452D01*
X129029952Y-73767455D01*
X128943706Y-73882664D01*
X128943702Y-73882671D01*
X128893408Y-74017517D01*
X128887001Y-74077116D01*
X128887001Y-74077123D01*
X128887000Y-74077135D01*
X128887000Y-75072870D01*
X128887001Y-75072876D01*
X128893408Y-75132483D01*
X128943702Y-75267328D01*
X128943706Y-75267335D01*
X129029952Y-75382544D01*
X129029955Y-75382547D01*
X129145164Y-75468793D01*
X129145171Y-75468797D01*
X129190118Y-75485561D01*
X129280017Y-75519091D01*
X129339627Y-75525500D01*
X129960372Y-75525499D01*
X130019983Y-75519091D01*
X130019982Y-75519091D01*
X130027696Y-75518262D01*
X130027951Y-75520642D01*
X130085867Y-75523735D01*
X130132317Y-75552999D01*
X132774191Y-78194873D01*
X135367138Y-80787819D01*
X135400623Y-80849142D01*
X135395639Y-80918834D01*
X135353767Y-80974767D01*
X135288303Y-80999184D01*
X135279457Y-80999500D01*
X134229473Y-80999500D01*
X134179386Y-80988934D01*
X134118999Y-80962270D01*
X134119001Y-80962270D01*
X134095123Y-80959500D01*
X132519884Y-80959500D01*
X132519861Y-80959502D01*
X132496004Y-80962269D01*
X132496002Y-80962270D01*
X132435613Y-80988934D01*
X132425898Y-80990983D01*
X132420463Y-80994477D01*
X132385528Y-80999500D01*
X132177897Y-80999500D01*
X132110858Y-80979815D01*
X132090216Y-80963181D01*
X131676474Y-80549439D01*
X131642989Y-80488116D01*
X131647973Y-80418424D01*
X131676474Y-80374077D01*
X131721694Y-80328856D01*
X131721698Y-80328849D01*
X131764735Y-80231383D01*
X131764735Y-80231381D01*
X131767499Y-80207559D01*
X131767500Y-80207553D01*
X131767500Y-79545000D01*
X131391999Y-79545000D01*
X131324960Y-79525315D01*
X131279205Y-79472511D01*
X131267999Y-79421000D01*
X131267999Y-79359861D01*
X131287684Y-79292822D01*
X131340488Y-79247067D01*
X131409646Y-79237123D01*
X131473202Y-79266148D01*
X131479680Y-79272180D01*
X131502500Y-79295000D01*
X131767500Y-79295000D01*
X131767500Y-78632446D01*
X131767499Y-78632440D01*
X131764735Y-78608618D01*
X131764735Y-78608616D01*
X131721698Y-78511150D01*
X131721694Y-78511143D01*
X131646356Y-78435805D01*
X131646349Y-78435801D01*
X131548882Y-78392764D01*
X131525059Y-78390000D01*
X131502500Y-78390000D01*
X131502500Y-78558043D01*
X131499727Y-78567483D01*
X131501005Y-78577239D01*
X131490047Y-78600452D01*
X131482815Y-78625082D01*
X131475379Y-78631525D01*
X131471179Y-78640423D01*
X131449409Y-78654028D01*
X131430011Y-78670837D01*
X131420273Y-78672237D01*
X131411929Y-78677452D01*
X131386261Y-78677127D01*
X131360853Y-78680781D01*
X131351902Y-78676693D01*
X131342065Y-78676569D01*
X131320650Y-78662421D01*
X131297297Y-78651756D01*
X131290422Y-78642450D01*
X131283769Y-78638055D01*
X131265064Y-78608125D01*
X131263064Y-78603595D01*
X131252500Y-78553513D01*
X131252500Y-78390000D01*
X131229940Y-78390000D01*
X131206117Y-78392764D01*
X131206116Y-78392764D01*
X131178200Y-78405090D01*
X131108921Y-78414159D01*
X131078031Y-78405089D01*
X131048999Y-78392270D01*
X131025123Y-78389500D01*
X130729884Y-78389500D01*
X130729861Y-78389502D01*
X130706004Y-78392269D01*
X130706003Y-78392269D01*
X130676967Y-78405090D01*
X130607689Y-78414161D01*
X130576796Y-78405089D01*
X130548885Y-78392765D01*
X130548881Y-78392764D01*
X130525059Y-78390000D01*
X130502500Y-78390000D01*
X130502500Y-78553512D01*
X130500451Y-78563225D01*
X130501451Y-78569607D01*
X130491936Y-78603594D01*
X130489936Y-78608124D01*
X130444852Y-78661502D01*
X130378067Y-78682032D01*
X130310784Y-78663196D01*
X130264365Y-78610974D01*
X130252500Y-78558042D01*
X130252500Y-78390000D01*
X130229940Y-78390000D01*
X130206118Y-78392764D01*
X130206116Y-78392764D01*
X130177587Y-78405362D01*
X130108308Y-78414434D01*
X130077413Y-78405362D01*
X130048882Y-78392764D01*
X130025059Y-78390000D01*
X130002500Y-78390000D01*
X130002500Y-79295000D01*
X130252499Y-79295000D01*
X130275318Y-79272181D01*
X130294754Y-79261567D01*
X130311489Y-79247067D01*
X130324819Y-79245150D01*
X130336641Y-79238695D01*
X130358728Y-79240274D01*
X130380647Y-79237123D01*
X130392898Y-79242718D01*
X130406333Y-79243679D01*
X130424059Y-79256948D01*
X130444203Y-79266148D01*
X130451485Y-79277479D01*
X130462266Y-79285550D01*
X130470004Y-79306295D01*
X130481977Y-79324926D01*
X130485128Y-79346843D01*
X130486684Y-79351014D01*
X130487000Y-79359861D01*
X130487000Y-79480138D01*
X130467315Y-79547177D01*
X130414511Y-79592932D01*
X130345353Y-79602876D01*
X130281797Y-79573851D01*
X130275319Y-79567819D01*
X130252500Y-79545000D01*
X130002500Y-79545000D01*
X130002500Y-80450000D01*
X130025054Y-80450000D01*
X130025059Y-80449999D01*
X130048878Y-80447236D01*
X130077412Y-80434637D01*
X130146690Y-80425565D01*
X130177588Y-80434637D01*
X130206121Y-80447236D01*
X130229940Y-80449999D01*
X130229946Y-80450000D01*
X130252500Y-80450000D01*
X130252500Y-80281956D01*
X130255272Y-80272515D01*
X130253995Y-80262760D01*
X130264952Y-80239546D01*
X130272185Y-80214917D01*
X130279620Y-80208473D01*
X130283821Y-80199576D01*
X130305590Y-80185970D01*
X130324989Y-80169162D01*
X130334726Y-80167761D01*
X130343071Y-80162547D01*
X130368738Y-80162871D01*
X130394147Y-80159218D01*
X130403097Y-80163305D01*
X130412935Y-80163430D01*
X130434349Y-80177577D01*
X130457703Y-80188243D01*
X130464577Y-80197548D01*
X130471231Y-80201944D01*
X130489936Y-80231874D01*
X130491936Y-80236404D01*
X130502500Y-80286486D01*
X130502500Y-80450000D01*
X130525060Y-80450000D01*
X130526842Y-80449897D01*
X130527286Y-80450000D01*
X130528637Y-80450000D01*
X130528637Y-80450313D01*
X130594906Y-80465679D01*
X130621680Y-80486009D01*
X131319813Y-81184141D01*
X131353298Y-81245464D01*
X131348314Y-81315155D01*
X131319813Y-81359503D01*
X130222189Y-82457127D01*
X130160866Y-82490612D01*
X130102415Y-82489221D01*
X130094059Y-82486982D01*
X130047475Y-82474500D01*
X129902525Y-82474500D01*
X129778436Y-82507750D01*
X129762511Y-82512017D01*
X129636988Y-82584488D01*
X129636982Y-82584493D01*
X129534493Y-82686982D01*
X129534491Y-82686985D01*
X129459387Y-82817068D01*
X129408819Y-82865283D01*
X129340212Y-82878505D01*
X129275348Y-82852537D01*
X129234820Y-82795623D01*
X129228000Y-82755067D01*
X129228000Y-80525862D01*
X129228644Y-80513237D01*
X129253144Y-80273860D01*
X129257321Y-80263627D01*
X129263064Y-80236403D01*
X129265064Y-80231873D01*
X129275169Y-80219908D01*
X129279552Y-80209173D01*
X129291058Y-80201096D01*
X129310148Y-80178495D01*
X129333475Y-80171323D01*
X129336741Y-80169032D01*
X129341573Y-80168834D01*
X129376933Y-80157965D01*
X129406318Y-80166191D01*
X129406552Y-80166182D01*
X129406796Y-80166325D01*
X129444216Y-80176801D01*
X129465511Y-80200758D01*
X129466822Y-80201527D01*
X129467655Y-80203170D01*
X129490635Y-80229023D01*
X129502500Y-80281955D01*
X129502500Y-80450000D01*
X129525054Y-80450000D01*
X129525059Y-80449999D01*
X129548878Y-80447236D01*
X129577412Y-80434637D01*
X129646690Y-80425565D01*
X129677588Y-80434637D01*
X129706121Y-80447236D01*
X129729940Y-80449999D01*
X129729946Y-80450000D01*
X129752500Y-80450000D01*
X129752500Y-79545000D01*
X129502499Y-79545000D01*
X129479679Y-79567820D01*
X129460243Y-79578432D01*
X129443510Y-79592932D01*
X129430177Y-79594848D01*
X129418356Y-79601304D01*
X129396271Y-79599724D01*
X129374352Y-79602876D01*
X129362098Y-79597279D01*
X129348664Y-79596319D01*
X129330938Y-79583049D01*
X129310796Y-79573851D01*
X129303514Y-79562520D01*
X129292731Y-79554448D01*
X129284992Y-79533700D01*
X129273022Y-79515073D01*
X129269870Y-79493153D01*
X129268315Y-79488983D01*
X129267999Y-79480153D01*
X129267999Y-79359859D01*
X129287684Y-79292822D01*
X129340488Y-79247067D01*
X129409646Y-79237123D01*
X129473202Y-79266148D01*
X129479680Y-79272180D01*
X129502500Y-79295000D01*
X129752500Y-79295000D01*
X129752500Y-78390000D01*
X129729940Y-78390000D01*
X129706118Y-78392764D01*
X129706116Y-78392764D01*
X129677587Y-78405362D01*
X129608308Y-78414434D01*
X129577413Y-78405362D01*
X129548882Y-78392764D01*
X129525059Y-78390000D01*
X129502500Y-78390000D01*
X129502500Y-78558043D01*
X129499727Y-78567483D01*
X129501005Y-78577239D01*
X129490047Y-78600452D01*
X129482815Y-78625082D01*
X129475379Y-78631525D01*
X129471179Y-78640423D01*
X129449409Y-78654028D01*
X129430011Y-78670837D01*
X129420273Y-78672237D01*
X129411929Y-78677452D01*
X129386261Y-78677127D01*
X129360853Y-78680781D01*
X129351902Y-78676693D01*
X129342065Y-78676569D01*
X129320650Y-78662421D01*
X129297297Y-78651756D01*
X129290422Y-78642450D01*
X129283769Y-78638055D01*
X129265064Y-78608125D01*
X129263064Y-78603595D01*
X129252500Y-78553513D01*
X129252500Y-78390000D01*
X129229940Y-78390000D01*
X129206117Y-78392764D01*
X129206116Y-78392764D01*
X129178200Y-78405090D01*
X129108921Y-78414159D01*
X129078031Y-78405089D01*
X129048999Y-78392270D01*
X129025124Y-78389500D01*
X128852000Y-78389500D01*
X128784961Y-78369815D01*
X128739206Y-78317011D01*
X128728000Y-78265500D01*
X128728000Y-76231358D01*
X128728000Y-76231356D01*
X128704114Y-76142212D01*
X128704111Y-76142206D01*
X128657973Y-76062294D01*
X128657970Y-76062291D01*
X128657969Y-76062288D01*
X128592712Y-75997031D01*
X127111818Y-74516137D01*
X127078333Y-74454814D01*
X127075499Y-74428456D01*
X127075499Y-73452129D01*
X127075498Y-73452123D01*
X127075497Y-73452116D01*
X127069091Y-73392517D01*
X127053004Y-73349386D01*
X127018797Y-73257671D01*
X127018793Y-73257664D01*
X126932547Y-73142455D01*
X126932544Y-73142452D01*
X126817335Y-73056206D01*
X126817328Y-73056202D01*
X126682486Y-73005910D01*
X126682485Y-73005909D01*
X126682483Y-73005909D01*
X126622873Y-72999500D01*
X126622863Y-72999500D01*
X125877129Y-72999500D01*
X125877123Y-72999501D01*
X125817516Y-73005908D01*
X125682671Y-73056202D01*
X125682664Y-73056206D01*
X125567455Y-73142452D01*
X125567452Y-73142455D01*
X125481206Y-73257664D01*
X125481202Y-73257671D01*
X125430908Y-73392517D01*
X125424675Y-73450500D01*
X125424501Y-73452123D01*
X125424500Y-73452135D01*
X125424500Y-74847870D01*
X125424501Y-74847876D01*
X125430908Y-74907483D01*
X125481202Y-75042328D01*
X125481206Y-75042335D01*
X125567452Y-75157544D01*
X125567455Y-75157547D01*
X125682664Y-75243793D01*
X125682671Y-75243797D01*
X125721548Y-75258297D01*
X125817517Y-75294091D01*
X125877127Y-75300500D01*
X126622872Y-75300499D01*
X126682483Y-75294091D01*
X126765086Y-75263281D01*
X126834776Y-75258297D01*
X126896097Y-75291779D01*
X126896100Y-75291781D01*
X126896100Y-75291782D01*
X127990681Y-76386362D01*
X128024166Y-76447685D01*
X128027000Y-76474043D01*
X128027000Y-78265500D01*
X128007315Y-78332539D01*
X127954511Y-78378294D01*
X127903001Y-78389500D01*
X127729885Y-78389500D01*
X127729861Y-78389502D01*
X127706004Y-78392269D01*
X127706003Y-78392269D01*
X127676967Y-78405090D01*
X127607689Y-78414161D01*
X127576796Y-78405089D01*
X127548885Y-78392765D01*
X127548881Y-78392764D01*
X127525059Y-78390000D01*
X127502500Y-78390000D01*
X127502500Y-78553512D01*
X127500451Y-78563225D01*
X127501451Y-78569607D01*
X127491936Y-78603594D01*
X127489936Y-78608124D01*
X127444852Y-78661502D01*
X127378067Y-78682032D01*
X127310784Y-78663196D01*
X127264365Y-78610974D01*
X127252500Y-78558042D01*
X127252500Y-78390000D01*
X127229940Y-78390000D01*
X127206118Y-78392764D01*
X127206116Y-78392764D01*
X127177587Y-78405362D01*
X127108308Y-78414434D01*
X127077413Y-78405362D01*
X127048882Y-78392764D01*
X127025059Y-78390000D01*
X127002500Y-78390000D01*
X127002500Y-78558043D01*
X126999727Y-78567483D01*
X127001005Y-78577239D01*
X126990047Y-78600452D01*
X126982815Y-78625082D01*
X126975379Y-78631525D01*
X126971179Y-78640423D01*
X126949409Y-78654028D01*
X126930011Y-78670837D01*
X126920273Y-78672237D01*
X126911929Y-78677452D01*
X126886261Y-78677127D01*
X126860853Y-78680781D01*
X126851902Y-78676693D01*
X126842065Y-78676569D01*
X126820650Y-78662421D01*
X126797297Y-78651756D01*
X126790422Y-78642450D01*
X126783769Y-78638055D01*
X126765064Y-78608125D01*
X126763064Y-78603595D01*
X126752500Y-78553513D01*
X126752500Y-78390000D01*
X126729940Y-78390000D01*
X126706117Y-78392764D01*
X126706116Y-78392764D01*
X126678200Y-78405090D01*
X126608921Y-78414159D01*
X126578031Y-78405089D01*
X126548999Y-78392270D01*
X126525123Y-78389500D01*
X126229884Y-78389500D01*
X126229861Y-78389502D01*
X126206004Y-78392269D01*
X126206003Y-78392269D01*
X126177585Y-78404817D01*
X126108306Y-78413888D01*
X126077414Y-78404817D01*
X126072862Y-78402807D01*
X126048998Y-78392270D01*
X126029433Y-78390000D01*
X126025124Y-78389500D01*
X125852000Y-78389500D01*
X125784961Y-78369815D01*
X125739206Y-78317011D01*
X125728000Y-78265500D01*
X125728000Y-77942518D01*
X125728000Y-77942516D01*
X125704114Y-77853372D01*
X125697811Y-77842455D01*
X125657973Y-77773454D01*
X125657970Y-77773451D01*
X125657969Y-77773448D01*
X125592712Y-77708191D01*
X124507307Y-76622786D01*
X123396203Y-75511681D01*
X123362718Y-75450358D01*
X123367702Y-75380666D01*
X123409574Y-75324733D01*
X123475038Y-75300316D01*
X123483884Y-75300000D01*
X123672828Y-75300000D01*
X123672844Y-75299999D01*
X123732372Y-75293598D01*
X123732379Y-75293596D01*
X123867086Y-75243354D01*
X123867093Y-75243350D01*
X123982187Y-75157190D01*
X123982190Y-75157187D01*
X124068350Y-75042093D01*
X124068354Y-75042086D01*
X124118596Y-74907379D01*
X124118598Y-74907372D01*
X124124999Y-74847844D01*
X124125000Y-74847827D01*
X124125000Y-74275000D01*
X122475000Y-74275000D01*
X122475000Y-74291116D01*
X122455315Y-74358155D01*
X122402511Y-74403910D01*
X122333353Y-74413854D01*
X122269797Y-74384829D01*
X122263319Y-74378797D01*
X121336677Y-73452155D01*
X122475000Y-73452155D01*
X122475000Y-74025000D01*
X123175000Y-74025000D01*
X123425000Y-74025000D01*
X124125000Y-74025000D01*
X124125000Y-73452172D01*
X124124999Y-73452155D01*
X124118598Y-73392627D01*
X124118596Y-73392620D01*
X124068354Y-73257913D01*
X124068350Y-73257906D01*
X123982190Y-73142812D01*
X123982187Y-73142809D01*
X123867093Y-73056649D01*
X123867086Y-73056645D01*
X123732379Y-73006403D01*
X123732372Y-73006401D01*
X123672844Y-73000000D01*
X123425000Y-73000000D01*
X123425000Y-74025000D01*
X123175000Y-74025000D01*
X123175000Y-73000000D01*
X122927155Y-73000000D01*
X122867627Y-73006401D01*
X122867620Y-73006403D01*
X122732913Y-73056645D01*
X122732906Y-73056649D01*
X122617812Y-73142809D01*
X122617809Y-73142812D01*
X122531649Y-73257906D01*
X122531645Y-73257913D01*
X122481403Y-73392620D01*
X122481401Y-73392627D01*
X122475000Y-73452155D01*
X121336677Y-73452155D01*
X121280053Y-73395531D01*
X121280048Y-73395527D01*
X121200130Y-73349387D01*
X121200129Y-73349386D01*
X121200128Y-73349386D01*
X121110984Y-73325500D01*
X121110983Y-73325500D01*
X120039398Y-73325500D01*
X119972359Y-73305815D01*
X119926604Y-73253011D01*
X119916660Y-73183853D01*
X119919623Y-73169407D01*
X119925500Y-73147475D01*
X119925500Y-73002525D01*
X119887984Y-72862515D01*
X119840415Y-72780124D01*
X119815511Y-72736988D01*
X119815506Y-72736982D01*
X119713017Y-72634493D01*
X119713011Y-72634488D01*
X119587488Y-72562017D01*
X119587489Y-72562017D01*
X119576006Y-72558940D01*
X119447475Y-72524500D01*
X119447472Y-72524500D01*
X119371544Y-72524500D01*
X119304505Y-72504815D01*
X119283863Y-72488181D01*
X118264213Y-71468531D01*
X118264208Y-71468527D01*
X118184290Y-71422387D01*
X118184289Y-71422386D01*
X118184288Y-71422386D01*
X118095144Y-71398500D01*
X118095143Y-71398500D01*
X117295543Y-71398500D01*
X117228504Y-71378815D01*
X117207862Y-71362181D01*
X116807862Y-70962180D01*
X116774377Y-70900857D01*
X116779361Y-70831165D01*
X116821233Y-70775232D01*
X116886697Y-70750815D01*
X116895525Y-70750499D01*
X117285372Y-70750499D01*
X117344983Y-70744091D01*
X117479831Y-70693796D01*
X117595046Y-70607546D01*
X117681296Y-70492331D01*
X117731591Y-70357483D01*
X117738000Y-70297873D01*
X117737999Y-69504196D01*
X125050001Y-69504196D01*
X125052851Y-69534606D01*
X125097653Y-69662645D01*
X125178207Y-69771792D01*
X125287354Y-69852346D01*
X125415397Y-69897149D01*
X125445778Y-69899998D01*
X125445806Y-69899999D01*
X125574999Y-69899999D01*
X125825000Y-69899999D01*
X125954196Y-69899999D01*
X125984606Y-69897148D01*
X126112645Y-69852346D01*
X126221792Y-69771792D01*
X126302346Y-69662645D01*
X126347149Y-69534604D01*
X126347149Y-69534600D01*
X126350000Y-69504206D01*
X126350000Y-68775000D01*
X125825000Y-68775000D01*
X125825000Y-69899999D01*
X125574999Y-69899999D01*
X125575000Y-69899998D01*
X125575000Y-68775000D01*
X125050001Y-68775000D01*
X125050001Y-69504196D01*
X117737999Y-69504196D01*
X117737999Y-69302128D01*
X117731591Y-69242517D01*
X117729203Y-69236115D01*
X117681297Y-69107671D01*
X117681293Y-69107664D01*
X117629623Y-69038643D01*
X117595046Y-68992454D01*
X117479831Y-68906204D01*
X117479828Y-68906202D01*
X117475189Y-68902730D01*
X117472451Y-68899073D01*
X117468297Y-68897176D01*
X117451706Y-68871361D01*
X117433318Y-68846796D01*
X117432302Y-68841166D01*
X117430523Y-68838398D01*
X117425500Y-68803463D01*
X117425500Y-68503858D01*
X117425500Y-68503856D01*
X117401614Y-68414712D01*
X117355470Y-68334788D01*
X116816475Y-67795793D01*
X125050000Y-67795793D01*
X125050000Y-68525000D01*
X125575000Y-68525000D01*
X125825000Y-68525000D01*
X126349999Y-68525000D01*
X126349999Y-67795803D01*
X126347148Y-67765393D01*
X126302346Y-67637354D01*
X126221792Y-67528207D01*
X126112645Y-67447653D01*
X125984602Y-67402850D01*
X125954207Y-67400000D01*
X125825000Y-67400000D01*
X125825000Y-68525000D01*
X125575000Y-68525000D01*
X125575000Y-67400000D01*
X125445804Y-67400000D01*
X125415393Y-67402851D01*
X125287354Y-67447653D01*
X125178207Y-67528207D01*
X125097653Y-67637354D01*
X125052850Y-67765395D01*
X125052850Y-67765399D01*
X125050000Y-67795793D01*
X116816475Y-67795793D01*
X116115212Y-67094530D01*
X116115211Y-67094529D01*
X116115208Y-67094527D01*
X116035290Y-67048387D01*
X116035289Y-67048386D01*
X116035288Y-67048386D01*
X115946144Y-67024500D01*
X113603856Y-67024500D01*
X113514712Y-67048386D01*
X113514709Y-67048387D01*
X113434791Y-67094527D01*
X113434786Y-67094531D01*
X112544531Y-67984786D01*
X112544527Y-67984791D01*
X112498387Y-68064709D01*
X112498386Y-68064712D01*
X112474500Y-68153856D01*
X112474500Y-70801216D01*
X112454815Y-70868255D01*
X112438181Y-70888897D01*
X111388306Y-71938771D01*
X111326983Y-71972256D01*
X111257291Y-71967272D01*
X111201358Y-71925400D01*
X111178152Y-71870487D01*
X111172914Y-71837415D01*
X111119408Y-71672742D01*
X111040805Y-71518478D01*
X110961901Y-71409874D01*
X110530729Y-71841045D01*
X110500099Y-71787993D01*
X110407007Y-71694901D01*
X110353952Y-71664270D01*
X110785124Y-71233097D01*
X110676521Y-71154194D01*
X110522257Y-71075591D01*
X110357584Y-71022085D01*
X110186571Y-70995000D01*
X110013429Y-70995000D01*
X109842415Y-71022085D01*
X109677742Y-71075591D01*
X109523476Y-71154195D01*
X109523474Y-71154196D01*
X109414874Y-71233096D01*
X109414874Y-71233097D01*
X109846047Y-71664270D01*
X109792993Y-71694901D01*
X109699901Y-71787993D01*
X109669270Y-71841047D01*
X109238097Y-71409874D01*
X109238096Y-71409874D01*
X109159196Y-71518474D01*
X109159195Y-71518476D01*
X109080591Y-71672742D01*
X109027085Y-71837415D01*
X109000000Y-72008428D01*
X109000000Y-72181571D01*
X109027085Y-72352584D01*
X109080591Y-72517257D01*
X109159194Y-72671521D01*
X109238097Y-72780124D01*
X109669269Y-72348952D01*
X109699901Y-72402007D01*
X109792993Y-72495099D01*
X109846045Y-72525729D01*
X109414874Y-72956901D01*
X109418249Y-72999770D01*
X109403885Y-73068147D01*
X109354835Y-73117904D01*
X109294631Y-73133500D01*
X108219856Y-73133500D01*
X108130712Y-73157386D01*
X108130709Y-73157387D01*
X108050791Y-73203527D01*
X108050786Y-73203531D01*
X107712181Y-73542137D01*
X107650858Y-73575622D01*
X107581166Y-73570638D01*
X107525233Y-73528766D01*
X107500816Y-73463302D01*
X107500500Y-73454456D01*
X107500500Y-69468389D01*
X108999500Y-69468389D01*
X108999500Y-69641611D01*
X109002869Y-69662880D01*
X109020118Y-69771792D01*
X109026598Y-69812701D01*
X109080127Y-69977445D01*
X109158768Y-70131788D01*
X109260586Y-70271928D01*
X109383072Y-70394414D01*
X109523212Y-70496232D01*
X109677555Y-70574873D01*
X109842299Y-70628402D01*
X110013389Y-70655500D01*
X110013390Y-70655500D01*
X110186610Y-70655500D01*
X110186611Y-70655500D01*
X110357701Y-70628402D01*
X110522445Y-70574873D01*
X110676788Y-70496232D01*
X110816928Y-70394414D01*
X110939414Y-70271928D01*
X111041232Y-70131788D01*
X111119873Y-69977445D01*
X111173402Y-69812701D01*
X111200500Y-69641611D01*
X111200500Y-69468389D01*
X111173402Y-69297299D01*
X111119873Y-69132555D01*
X111041232Y-68978212D01*
X110939414Y-68838072D01*
X110816928Y-68715586D01*
X110676788Y-68613768D01*
X110522445Y-68535127D01*
X110357701Y-68481598D01*
X110357699Y-68481597D01*
X110357698Y-68481597D01*
X110226271Y-68460781D01*
X110186611Y-68454500D01*
X110013389Y-68454500D01*
X109973728Y-68460781D01*
X109842302Y-68481597D01*
X109677552Y-68535128D01*
X109523211Y-68613768D01*
X109479618Y-68645441D01*
X109383072Y-68715586D01*
X109383070Y-68715588D01*
X109383069Y-68715588D01*
X109260588Y-68838069D01*
X109260588Y-68838070D01*
X109260586Y-68838072D01*
X109217644Y-68897176D01*
X109158768Y-68978211D01*
X109080128Y-69132552D01*
X109026597Y-69297302D01*
X109014608Y-69373000D01*
X108999500Y-69468389D01*
X107500500Y-69468389D01*
X107500500Y-65803463D01*
X131712500Y-65803463D01*
X131718824Y-65862288D01*
X131768438Y-65995309D01*
X131768440Y-65995312D01*
X131853526Y-66108973D01*
X131967187Y-66194059D01*
X131967190Y-66194061D01*
X132100212Y-66243675D01*
X132100211Y-66243675D01*
X132159036Y-66249999D01*
X132159038Y-66250000D01*
X132325000Y-66250000D01*
X132325000Y-65425000D01*
X131712500Y-65425000D01*
X131712500Y-65803463D01*
X107500500Y-65803463D01*
X107500500Y-64796536D01*
X131712500Y-64796536D01*
X131712500Y-65175000D01*
X132325000Y-65175000D01*
X132575000Y-65175000D01*
X133187500Y-65175000D01*
X133187500Y-64796538D01*
X133187499Y-64796536D01*
X133181175Y-64737711D01*
X133131561Y-64604690D01*
X133131559Y-64604687D01*
X133046473Y-64491026D01*
X132932812Y-64405940D01*
X132932809Y-64405938D01*
X132799787Y-64356324D01*
X132799788Y-64356324D01*
X132740963Y-64350000D01*
X132575000Y-64350000D01*
X132575000Y-65175000D01*
X132325000Y-65175000D01*
X132325000Y-64350000D01*
X132159036Y-64350000D01*
X132100211Y-64356324D01*
X131967190Y-64405938D01*
X131967187Y-64405940D01*
X131853526Y-64491026D01*
X131768440Y-64604687D01*
X131768438Y-64604690D01*
X131718824Y-64737711D01*
X131712500Y-64796536D01*
X107500500Y-64796536D01*
X107500500Y-61637000D01*
X107520185Y-61569961D01*
X107572989Y-61524206D01*
X107624500Y-61513000D01*
X161400500Y-61513000D01*
X161467539Y-61532685D01*
G37*
%TD.AperFunction*%
%TA.AperFunction,Conductor*%
G36*
X151018039Y-87094685D02*
G01*
X151063794Y-87147489D01*
X151075000Y-87199000D01*
X151075000Y-87799999D01*
X151223756Y-87799999D01*
X151223756Y-87800949D01*
X151287863Y-87816100D01*
X151336377Y-87866380D01*
X151350500Y-87923852D01*
X151350500Y-89401147D01*
X151330815Y-89468186D01*
X151278011Y-89513941D01*
X151223758Y-89524230D01*
X151223758Y-89525000D01*
X151050000Y-89525000D01*
X151050000Y-90101000D01*
X151047449Y-90109685D01*
X151048738Y-90118647D01*
X151037759Y-90142687D01*
X151030315Y-90168039D01*
X151023474Y-90173966D01*
X151019713Y-90182203D01*
X150997478Y-90196492D01*
X150977511Y-90213794D01*
X150966996Y-90216081D01*
X150960935Y-90219977D01*
X150926000Y-90225000D01*
X150925000Y-90225000D01*
X150925000Y-90226000D01*
X150905315Y-90293039D01*
X150852511Y-90338794D01*
X150801000Y-90350000D01*
X150200001Y-90350000D01*
X150200001Y-90495439D01*
X150206081Y-90552007D01*
X150253813Y-90679981D01*
X150253815Y-90679984D01*
X150335670Y-90789329D01*
X150445015Y-90871184D01*
X150445020Y-90871187D01*
X150478170Y-90883551D01*
X150534104Y-90925421D01*
X150558522Y-90990885D01*
X150543671Y-91059158D01*
X150494266Y-91108564D01*
X150478174Y-91115914D01*
X150444772Y-91128372D01*
X150335313Y-91210313D01*
X150253373Y-91319771D01*
X150205587Y-91447889D01*
X150199500Y-91504498D01*
X150199500Y-92045481D01*
X150199501Y-92045490D01*
X150205587Y-92102114D01*
X150253372Y-92230226D01*
X150335313Y-92339687D01*
X150444774Y-92421628D01*
X150572886Y-92469412D01*
X150629515Y-92475500D01*
X151220484Y-92475499D01*
X151277114Y-92469412D01*
X151405226Y-92421628D01*
X151514687Y-92339687D01*
X151528233Y-92321590D01*
X151584165Y-92279720D01*
X151653857Y-92274734D01*
X151715180Y-92308219D01*
X151748666Y-92369541D01*
X151751500Y-92395901D01*
X151751500Y-95476456D01*
X151731815Y-95543495D01*
X151715181Y-95564137D01*
X147766137Y-99513181D01*
X147704814Y-99546666D01*
X147678456Y-99549500D01*
X142020190Y-99549500D01*
X141953151Y-99529815D01*
X141932509Y-99513181D01*
X140836509Y-98417181D01*
X140803024Y-98355858D01*
X140808008Y-98286166D01*
X140849880Y-98230233D01*
X140915344Y-98205816D01*
X140924190Y-98205500D01*
X142713001Y-98205500D01*
X142780040Y-98225185D01*
X142825795Y-98277989D01*
X142837001Y-98329500D01*
X142837001Y-98552876D01*
X142843408Y-98612483D01*
X142893702Y-98747328D01*
X142893706Y-98747335D01*
X142979952Y-98862544D01*
X142979955Y-98862547D01*
X143095164Y-98948793D01*
X143095171Y-98948797D01*
X143140118Y-98965561D01*
X143230017Y-98999091D01*
X143289627Y-99005500D01*
X144035372Y-99005499D01*
X144094983Y-98999091D01*
X144229831Y-98948796D01*
X144345046Y-98862546D01*
X144431296Y-98747331D01*
X144481591Y-98612483D01*
X144488000Y-98552873D01*
X144488000Y-98552844D01*
X145787500Y-98552844D01*
X145793901Y-98612372D01*
X145793903Y-98612379D01*
X145844145Y-98747086D01*
X145844149Y-98747093D01*
X145930309Y-98862187D01*
X145930312Y-98862190D01*
X146045406Y-98948350D01*
X146045413Y-98948354D01*
X146180120Y-98998596D01*
X146180127Y-98998598D01*
X146239655Y-99004999D01*
X146239672Y-99005000D01*
X146487500Y-99005000D01*
X146737500Y-99005000D01*
X146985328Y-99005000D01*
X146985344Y-99004999D01*
X147044872Y-98998598D01*
X147044879Y-98998596D01*
X147179586Y-98948354D01*
X147179593Y-98948350D01*
X147294687Y-98862190D01*
X147294690Y-98862187D01*
X147380850Y-98747093D01*
X147380854Y-98747086D01*
X147431096Y-98612379D01*
X147431098Y-98612372D01*
X147437499Y-98552844D01*
X147437500Y-98552827D01*
X147437500Y-97980000D01*
X146737500Y-97980000D01*
X146737500Y-99005000D01*
X146487500Y-99005000D01*
X146487500Y-97980000D01*
X145787500Y-97980000D01*
X145787500Y-98552844D01*
X144488000Y-98552844D01*
X144487999Y-97829566D01*
X144487999Y-97157155D01*
X145787500Y-97157155D01*
X145787500Y-97730000D01*
X146487500Y-97730000D01*
X146737500Y-97730000D01*
X147437500Y-97730000D01*
X147437500Y-97157172D01*
X147437499Y-97157155D01*
X147431098Y-97097627D01*
X147431096Y-97097620D01*
X147380854Y-96962913D01*
X147380850Y-96962906D01*
X147294690Y-96847812D01*
X147294687Y-96847809D01*
X147179593Y-96761649D01*
X147179586Y-96761645D01*
X147044879Y-96711403D01*
X147044872Y-96711401D01*
X146985344Y-96705000D01*
X146737500Y-96705000D01*
X146737500Y-97730000D01*
X146487500Y-97730000D01*
X146487500Y-96705000D01*
X146239655Y-96705000D01*
X146180127Y-96711401D01*
X146180120Y-96711403D01*
X146045413Y-96761645D01*
X146045406Y-96761649D01*
X145930312Y-96847809D01*
X145930309Y-96847812D01*
X145844149Y-96962906D01*
X145844145Y-96962913D01*
X145793903Y-97097620D01*
X145793901Y-97097627D01*
X145787500Y-97157155D01*
X144487999Y-97157155D01*
X144487999Y-97157129D01*
X144487998Y-97157123D01*
X144487997Y-97157116D01*
X144481591Y-97097517D01*
X144466348Y-97056649D01*
X144431297Y-96962671D01*
X144431293Y-96962664D01*
X144345047Y-96847455D01*
X144345044Y-96847452D01*
X144229835Y-96761206D01*
X144229828Y-96761202D01*
X144094986Y-96710910D01*
X144094985Y-96710909D01*
X144094983Y-96710909D01*
X144035373Y-96704500D01*
X144035363Y-96704500D01*
X143289629Y-96704500D01*
X143289623Y-96704501D01*
X143230016Y-96710908D01*
X143095171Y-96761202D01*
X143095164Y-96761206D01*
X142979955Y-96847452D01*
X142979952Y-96847455D01*
X142893706Y-96962664D01*
X142893702Y-96962671D01*
X142843408Y-97097517D01*
X142838539Y-97142809D01*
X142837001Y-97157123D01*
X142837000Y-97157135D01*
X142837000Y-97380500D01*
X142817315Y-97447539D01*
X142764511Y-97493294D01*
X142713000Y-97504500D01*
X140542290Y-97504500D01*
X140475251Y-97484815D01*
X140454609Y-97468181D01*
X133345421Y-90358993D01*
X133334808Y-90339556D01*
X133320308Y-90322823D01*
X133318391Y-90309491D01*
X133311936Y-90297670D01*
X133313515Y-90275583D01*
X133310364Y-90253665D01*
X133315959Y-90241413D01*
X133316920Y-90227978D01*
X133330190Y-90210251D01*
X133339389Y-90190109D01*
X133350720Y-90182826D01*
X133358792Y-90172045D01*
X133379537Y-90164307D01*
X133398167Y-90152335D01*
X133420085Y-90149183D01*
X133424256Y-90147628D01*
X133433102Y-90147312D01*
X133506644Y-90147312D01*
X133573683Y-90166997D01*
X133594325Y-90183631D01*
X138196164Y-94785470D01*
X138196165Y-94785471D01*
X138196167Y-94785472D01*
X138221542Y-94800122D01*
X138276088Y-94831614D01*
X138365232Y-94855500D01*
X142713001Y-94855500D01*
X142780040Y-94875185D01*
X142825795Y-94927989D01*
X142837001Y-94979500D01*
X142837001Y-95202876D01*
X142843408Y-95262483D01*
X142893702Y-95397328D01*
X142893706Y-95397335D01*
X142979952Y-95512544D01*
X142979955Y-95512547D01*
X143095164Y-95598793D01*
X143095171Y-95598797D01*
X143140118Y-95615561D01*
X143230017Y-95649091D01*
X143289627Y-95655500D01*
X144035372Y-95655499D01*
X144094983Y-95649091D01*
X144229831Y-95598796D01*
X144345046Y-95512546D01*
X144431296Y-95397331D01*
X144481591Y-95262483D01*
X144488000Y-95202873D01*
X144488000Y-95202844D01*
X145787500Y-95202844D01*
X145793901Y-95262372D01*
X145793903Y-95262379D01*
X145844145Y-95397086D01*
X145844149Y-95397093D01*
X145930309Y-95512187D01*
X145930312Y-95512190D01*
X146045406Y-95598350D01*
X146045413Y-95598354D01*
X146180120Y-95648596D01*
X146180127Y-95648598D01*
X146239655Y-95654999D01*
X146239672Y-95655000D01*
X146487500Y-95655000D01*
X146737500Y-95655000D01*
X146985328Y-95655000D01*
X146985344Y-95654999D01*
X147044872Y-95648598D01*
X147044879Y-95648596D01*
X147179586Y-95598354D01*
X147179593Y-95598350D01*
X147294687Y-95512190D01*
X147294690Y-95512187D01*
X147380850Y-95397093D01*
X147380854Y-95397086D01*
X147431096Y-95262379D01*
X147431098Y-95262372D01*
X147437499Y-95202844D01*
X147437500Y-95202827D01*
X147437500Y-94630000D01*
X146737500Y-94630000D01*
X146737500Y-95655000D01*
X146487500Y-95655000D01*
X146487500Y-94630000D01*
X145787500Y-94630000D01*
X145787500Y-95202844D01*
X144488000Y-95202844D01*
X144487999Y-94490885D01*
X144487999Y-93807155D01*
X145787500Y-93807155D01*
X145787500Y-94380000D01*
X146487500Y-94380000D01*
X146737500Y-94380000D01*
X147437500Y-94380000D01*
X147437500Y-93807172D01*
X147437499Y-93807155D01*
X147431098Y-93747627D01*
X147431096Y-93747620D01*
X147380854Y-93612913D01*
X147380850Y-93612906D01*
X147294690Y-93497812D01*
X147294687Y-93497809D01*
X147179593Y-93411649D01*
X147179586Y-93411645D01*
X147044879Y-93361403D01*
X147044872Y-93361401D01*
X146985344Y-93355000D01*
X146737500Y-93355000D01*
X146737500Y-94380000D01*
X146487500Y-94380000D01*
X146487500Y-93355000D01*
X146239655Y-93355000D01*
X146180127Y-93361401D01*
X146180120Y-93361403D01*
X146045413Y-93411645D01*
X146045406Y-93411649D01*
X145930312Y-93497809D01*
X145930309Y-93497812D01*
X145844149Y-93612906D01*
X145844145Y-93612913D01*
X145793903Y-93747620D01*
X145793901Y-93747627D01*
X145787500Y-93807155D01*
X144487999Y-93807155D01*
X144487999Y-93807129D01*
X144487998Y-93807123D01*
X144487997Y-93807116D01*
X144481591Y-93747517D01*
X144431384Y-93612906D01*
X144431297Y-93612671D01*
X144431293Y-93612664D01*
X144345047Y-93497455D01*
X144345044Y-93497452D01*
X144229835Y-93411206D01*
X144229828Y-93411202D01*
X144094986Y-93360910D01*
X144094985Y-93360909D01*
X144094983Y-93360909D01*
X144035373Y-93354500D01*
X144035363Y-93354500D01*
X143289629Y-93354500D01*
X143289623Y-93354501D01*
X143230016Y-93360908D01*
X143095171Y-93411202D01*
X143095164Y-93411206D01*
X142979955Y-93497452D01*
X142979952Y-93497455D01*
X142893706Y-93612664D01*
X142893702Y-93612671D01*
X142843408Y-93747517D01*
X142837001Y-93807116D01*
X142837001Y-93807123D01*
X142837000Y-93807135D01*
X142837000Y-94030500D01*
X142817315Y-94097539D01*
X142764511Y-94143294D01*
X142713000Y-94154500D01*
X138607920Y-94154500D01*
X138540881Y-94134815D01*
X138520239Y-94118181D01*
X136119239Y-91717181D01*
X136085754Y-91655858D01*
X136090738Y-91586166D01*
X136132610Y-91530233D01*
X136198074Y-91505816D01*
X136206920Y-91505500D01*
X142713001Y-91505500D01*
X142780040Y-91525185D01*
X142825795Y-91577989D01*
X142837001Y-91629500D01*
X142837001Y-91852876D01*
X142843408Y-91912483D01*
X142893702Y-92047328D01*
X142893706Y-92047335D01*
X142979952Y-92162544D01*
X142979955Y-92162547D01*
X143095164Y-92248793D01*
X143095171Y-92248797D01*
X143140118Y-92265561D01*
X143230017Y-92299091D01*
X143289627Y-92305500D01*
X144035372Y-92305499D01*
X144094983Y-92299091D01*
X144229831Y-92248796D01*
X144345046Y-92162546D01*
X144431296Y-92047331D01*
X144481591Y-91912483D01*
X144488000Y-91852873D01*
X144488000Y-91852844D01*
X145787500Y-91852844D01*
X145793901Y-91912372D01*
X145793903Y-91912379D01*
X145844145Y-92047086D01*
X145844149Y-92047093D01*
X145930309Y-92162187D01*
X145930312Y-92162190D01*
X146045406Y-92248350D01*
X146045413Y-92248354D01*
X146180120Y-92298596D01*
X146180127Y-92298598D01*
X146239655Y-92304999D01*
X146239672Y-92305000D01*
X146487500Y-92305000D01*
X146737500Y-92305000D01*
X146985328Y-92305000D01*
X146985344Y-92304999D01*
X147044872Y-92298598D01*
X147044879Y-92298596D01*
X147179586Y-92248354D01*
X147179593Y-92248350D01*
X147294687Y-92162190D01*
X147294690Y-92162187D01*
X147380850Y-92047093D01*
X147380854Y-92047086D01*
X147431096Y-91912379D01*
X147431098Y-91912372D01*
X147437499Y-91852844D01*
X147437500Y-91852827D01*
X147437500Y-91280000D01*
X146737500Y-91280000D01*
X146737500Y-92305000D01*
X146487500Y-92305000D01*
X146487500Y-91280000D01*
X145787500Y-91280000D01*
X145787500Y-91852844D01*
X144488000Y-91852844D01*
X144487999Y-90876542D01*
X144507684Y-90809504D01*
X144524313Y-90788867D01*
X144856025Y-90457155D01*
X145787500Y-90457155D01*
X145787500Y-91030000D01*
X146487500Y-91030000D01*
X146737500Y-91030000D01*
X147437500Y-91030000D01*
X147437500Y-90457172D01*
X147437499Y-90457155D01*
X147431098Y-90397627D01*
X147431096Y-90397620D01*
X147380854Y-90262913D01*
X147380850Y-90262906D01*
X147294690Y-90147812D01*
X147294687Y-90147809D01*
X147179593Y-90061649D01*
X147179586Y-90061645D01*
X147044879Y-90011403D01*
X147044872Y-90011401D01*
X146985344Y-90005000D01*
X146737500Y-90005000D01*
X146737500Y-91030000D01*
X146487500Y-91030000D01*
X146487500Y-90005000D01*
X146239655Y-90005000D01*
X146180127Y-90011401D01*
X146180120Y-90011403D01*
X146045413Y-90061645D01*
X146045406Y-90061649D01*
X145930312Y-90147809D01*
X145930309Y-90147812D01*
X145844149Y-90262906D01*
X145844145Y-90262913D01*
X145793903Y-90397620D01*
X145793901Y-90397627D01*
X145787500Y-90457155D01*
X144856025Y-90457155D01*
X145358609Y-89954571D01*
X150200000Y-89954571D01*
X150200000Y-90100000D01*
X150800000Y-90100000D01*
X150800000Y-89525000D01*
X150629566Y-89525000D01*
X150629559Y-89525001D01*
X150572992Y-89531081D01*
X150445018Y-89578813D01*
X150445015Y-89578815D01*
X150335670Y-89660670D01*
X150253815Y-89770015D01*
X150253814Y-89770016D01*
X150206083Y-89897989D01*
X150200000Y-89954571D01*
X145358609Y-89954571D01*
X147851362Y-87461819D01*
X147912685Y-87428334D01*
X147939043Y-87425500D01*
X148618892Y-87425500D01*
X148685931Y-87445185D01*
X148731686Y-87497989D01*
X148735073Y-87506166D01*
X148753371Y-87555225D01*
X148772522Y-87580808D01*
X148835313Y-87664687D01*
X148944774Y-87746628D01*
X149072886Y-87794412D01*
X149129515Y-87800500D01*
X149670484Y-87800499D01*
X149727114Y-87794412D01*
X149855226Y-87746628D01*
X149964687Y-87664687D01*
X150046628Y-87555226D01*
X150059085Y-87521825D01*
X150100955Y-87465894D01*
X150166419Y-87441477D01*
X150234692Y-87456328D01*
X150284098Y-87505733D01*
X150291448Y-87521827D01*
X150303814Y-87554983D01*
X150303815Y-87554984D01*
X150385670Y-87664329D01*
X150495015Y-87746184D01*
X150495016Y-87746185D01*
X150622991Y-87793917D01*
X150622994Y-87793918D01*
X150679555Y-87799999D01*
X150824999Y-87799999D01*
X150825000Y-87799998D01*
X150825000Y-87199000D01*
X150827550Y-87190314D01*
X150826262Y-87181353D01*
X150837240Y-87157312D01*
X150844685Y-87131961D01*
X150851525Y-87126033D01*
X150855287Y-87117797D01*
X150877521Y-87103507D01*
X150897489Y-87086206D01*
X150908003Y-87083918D01*
X150914065Y-87080023D01*
X150949000Y-87075000D01*
X150951000Y-87075000D01*
X151018039Y-87094685D01*
G37*
%TD.AperFunction*%
%TA.AperFunction,Conductor*%
G36*
X128967034Y-87714060D02*
G01*
X128985699Y-87722855D01*
X128992204Y-87726611D01*
X128992208Y-87726611D01*
X128992212Y-87726614D01*
X129081356Y-87750500D01*
X129320614Y-87750500D01*
X129387653Y-87770185D01*
X129408295Y-87786819D01*
X129461985Y-87840509D01*
X129461986Y-87840510D01*
X129461988Y-87840511D01*
X129587511Y-87912982D01*
X129587512Y-87912982D01*
X129587515Y-87912984D01*
X129612989Y-87919809D01*
X129672648Y-87956174D01*
X129703177Y-88019022D01*
X129694882Y-88088397D01*
X129650397Y-88142275D01*
X129642894Y-88146971D01*
X129558791Y-88195527D01*
X129558790Y-88195528D01*
X129390340Y-88363977D01*
X129390252Y-88364064D01*
X129384666Y-88369637D01*
X129384622Y-88369664D01*
X129378536Y-88375756D01*
X129377934Y-88376358D01*
X129377932Y-88376358D01*
X129377810Y-88376481D01*
X129347195Y-88393157D01*
X129316624Y-88409867D01*
X129316534Y-88409860D01*
X129316453Y-88409905D01*
X129281321Y-88407356D01*
X129246931Y-88404911D01*
X129246807Y-88404852D01*
X129246767Y-88404850D01*
X129246708Y-88404806D01*
X129228222Y-88396102D01*
X129212485Y-88387016D01*
X129072475Y-88349500D01*
X128927525Y-88349500D01*
X128798993Y-88383940D01*
X128787511Y-88387017D01*
X128661988Y-88459488D01*
X128661982Y-88459493D01*
X128559493Y-88561982D01*
X128559488Y-88561988D01*
X128487017Y-88687511D01*
X128487016Y-88687515D01*
X128449500Y-88827525D01*
X128449500Y-88827527D01*
X128449500Y-88903456D01*
X128429815Y-88970495D01*
X128413181Y-88991137D01*
X128097031Y-89307286D01*
X128097029Y-89307289D01*
X128094027Y-89312489D01*
X128073237Y-89348500D01*
X128064199Y-89364154D01*
X128064197Y-89364157D01*
X128050886Y-89387209D01*
X128027000Y-89476356D01*
X128027000Y-89674138D01*
X128026356Y-89686763D01*
X128001856Y-89926137D01*
X127997673Y-89936380D01*
X127991926Y-89963618D01*
X127990925Y-89965884D01*
X127980678Y-89978010D01*
X127975447Y-89990824D01*
X127961694Y-90000477D01*
X127945830Y-90019252D01*
X127926476Y-90025196D01*
X127918259Y-90030965D01*
X127906079Y-90031462D01*
X127879040Y-90039768D01*
X127856603Y-90033482D01*
X127848448Y-90033815D01*
X127839901Y-90028802D01*
X127811761Y-90020919D01*
X127795772Y-90002923D01*
X127788178Y-89998470D01*
X127783344Y-89988935D01*
X127765354Y-89968687D01*
X127764070Y-89965876D01*
X127763241Y-89963998D01*
X127763045Y-89963553D01*
X127757758Y-89938468D01*
X127756584Y-89936151D01*
X127756418Y-89932110D01*
X127752500Y-89913513D01*
X127752500Y-89750000D01*
X127729940Y-89750000D01*
X127706117Y-89752764D01*
X127706116Y-89752764D01*
X127678200Y-89765090D01*
X127608921Y-89774159D01*
X127578031Y-89765089D01*
X127548999Y-89752270D01*
X127525123Y-89749500D01*
X127229884Y-89749500D01*
X127229861Y-89749502D01*
X127206004Y-89752269D01*
X127206003Y-89752269D01*
X127176967Y-89765090D01*
X127143814Y-89769430D01*
X127110784Y-89774606D01*
X127108714Y-89774026D01*
X127107689Y-89774161D01*
X127076797Y-89765090D01*
X127059736Y-89757557D01*
X127006359Y-89712471D01*
X126985831Y-89645685D01*
X127004669Y-89578403D01*
X127022136Y-89556445D01*
X128836021Y-87742559D01*
X128897342Y-87709076D01*
X128967034Y-87714060D01*
G37*
%TD.AperFunction*%
%TA.AperFunction,Conductor*%
G36*
X132934316Y-89259685D02*
G01*
X132980071Y-89312489D01*
X132990015Y-89381647D01*
X132987055Y-89396078D01*
X132952688Y-89524337D01*
X132952688Y-89524339D01*
X132952688Y-89666898D01*
X132933003Y-89733937D01*
X132880199Y-89779692D01*
X132811041Y-89789636D01*
X132747485Y-89760611D01*
X132741007Y-89754579D01*
X132438109Y-89451681D01*
X132404624Y-89390358D01*
X132409608Y-89320666D01*
X132451480Y-89264733D01*
X132516944Y-89240316D01*
X132525790Y-89240000D01*
X132867277Y-89240000D01*
X132934316Y-89259685D01*
G37*
%TD.AperFunction*%
%TA.AperFunction,Conductor*%
G36*
X132220039Y-81720185D02*
G01*
X132265794Y-81772989D01*
X132277000Y-81824499D01*
X132277000Y-81997614D01*
X132277002Y-81997638D01*
X132279768Y-82021494D01*
X132279770Y-82021498D01*
X132292317Y-82049914D01*
X132301388Y-82119191D01*
X132292317Y-82150084D01*
X132279770Y-82178499D01*
X132279770Y-82178501D01*
X132277000Y-82202375D01*
X132277000Y-82497615D01*
X132277002Y-82497638D01*
X132279768Y-82521494D01*
X132279770Y-82521498D01*
X132292317Y-82549914D01*
X132301388Y-82619191D01*
X132292317Y-82650084D01*
X132279770Y-82678499D01*
X132279770Y-82678501D01*
X132277000Y-82702375D01*
X132277000Y-82997615D01*
X132277002Y-82997638D01*
X132279768Y-83021494D01*
X132279770Y-83021498D01*
X132292317Y-83049914D01*
X132301388Y-83119191D01*
X132292317Y-83150084D01*
X132279770Y-83178499D01*
X132279770Y-83178501D01*
X132277000Y-83202375D01*
X132277000Y-83497615D01*
X132277002Y-83497638D01*
X132279768Y-83521494D01*
X132279770Y-83521498D01*
X132292317Y-83549914D01*
X132301388Y-83619191D01*
X132292317Y-83650084D01*
X132279770Y-83678499D01*
X132279770Y-83678501D01*
X132277000Y-83702375D01*
X132277000Y-83997615D01*
X132277002Y-83997638D01*
X132279768Y-84021494D01*
X132279770Y-84021498D01*
X132292317Y-84049914D01*
X132301388Y-84119191D01*
X132292317Y-84150084D01*
X132279770Y-84178499D01*
X132279770Y-84178501D01*
X132277000Y-84202375D01*
X132277000Y-84497615D01*
X132277002Y-84497638D01*
X132279768Y-84521494D01*
X132279770Y-84521498D01*
X132292317Y-84549914D01*
X132301388Y-84619191D01*
X132292317Y-84650084D01*
X132279770Y-84678499D01*
X132279770Y-84678501D01*
X132277000Y-84702375D01*
X132277000Y-84997615D01*
X132277002Y-84997638D01*
X132279768Y-85021494D01*
X132283470Y-85029878D01*
X132292317Y-85049914D01*
X132301388Y-85119191D01*
X132292317Y-85150084D01*
X132279770Y-85178499D01*
X132279770Y-85178501D01*
X132277000Y-85202375D01*
X132277000Y-85497615D01*
X132277002Y-85497638D01*
X132279768Y-85521494D01*
X132281537Y-85525500D01*
X132292317Y-85549914D01*
X132301388Y-85619191D01*
X132292317Y-85650084D01*
X132279770Y-85678499D01*
X132279770Y-85678501D01*
X132277000Y-85702375D01*
X132277000Y-85997615D01*
X132277002Y-85997638D01*
X132279768Y-86021494D01*
X132279770Y-86021498D01*
X132292317Y-86049914D01*
X132301388Y-86119191D01*
X132292317Y-86150084D01*
X132279770Y-86178499D01*
X132279770Y-86178501D01*
X132277000Y-86202375D01*
X132277000Y-86497615D01*
X132277002Y-86497638D01*
X132279768Y-86521494D01*
X132279770Y-86521498D01*
X132292317Y-86549914D01*
X132301388Y-86619191D01*
X132292317Y-86650084D01*
X132279770Y-86678499D01*
X132279770Y-86678501D01*
X132277000Y-86702375D01*
X132277000Y-86997615D01*
X132277002Y-86997638D01*
X132279768Y-87021494D01*
X132279770Y-87021498D01*
X132292317Y-87049914D01*
X132301388Y-87119191D01*
X132292317Y-87150084D01*
X132279770Y-87178499D01*
X132279770Y-87178501D01*
X132277000Y-87202375D01*
X132277000Y-87497615D01*
X132277002Y-87497638D01*
X132279768Y-87521494D01*
X132283470Y-87529878D01*
X132292317Y-87549914D01*
X132301388Y-87619191D01*
X132292317Y-87650084D01*
X132279770Y-87678499D01*
X132279770Y-87678501D01*
X132277000Y-87702375D01*
X132277000Y-87997615D01*
X132277002Y-87997638D01*
X132279768Y-88021494D01*
X132280377Y-88022873D01*
X132292317Y-88049914D01*
X132301388Y-88119191D01*
X132292317Y-88150084D01*
X132279770Y-88178499D01*
X132279770Y-88178501D01*
X132277000Y-88202375D01*
X132277000Y-88497615D01*
X132277002Y-88497638D01*
X132279769Y-88521495D01*
X132292589Y-88550529D01*
X132301661Y-88619807D01*
X132292590Y-88650700D01*
X132280265Y-88678614D01*
X132280264Y-88678617D01*
X132277500Y-88702440D01*
X132277500Y-88725000D01*
X132441015Y-88725000D01*
X132450733Y-88727050D01*
X132457120Y-88726050D01*
X132491106Y-88735568D01*
X132495635Y-88737568D01*
X132549010Y-88782656D01*
X132569534Y-88849443D01*
X132550693Y-88916725D01*
X132498467Y-88963139D01*
X132445544Y-88975000D01*
X132277500Y-88975000D01*
X132277500Y-88991710D01*
X132257815Y-89058749D01*
X132205011Y-89104504D01*
X132135853Y-89114448D01*
X132072297Y-89085423D01*
X132065819Y-89079391D01*
X131181959Y-88195531D01*
X131181954Y-88195527D01*
X131102036Y-88149387D01*
X131102035Y-88149386D01*
X131102034Y-88149386D01*
X131012890Y-88125500D01*
X130107171Y-88125500D01*
X130040132Y-88105815D01*
X129994377Y-88053011D01*
X129984433Y-87983853D01*
X130013458Y-87920297D01*
X130045171Y-87894113D01*
X130105996Y-87858995D01*
X130138015Y-87840509D01*
X130240509Y-87738015D01*
X130312984Y-87612485D01*
X130350500Y-87472475D01*
X130350500Y-87327525D01*
X130312984Y-87187515D01*
X130309426Y-87181353D01*
X130240511Y-87061988D01*
X130240506Y-87061982D01*
X130138017Y-86959493D01*
X130138011Y-86959488D01*
X130012488Y-86887017D01*
X130012489Y-86887017D01*
X130001006Y-86883940D01*
X129872475Y-86849500D01*
X129727525Y-86849500D01*
X129598993Y-86883940D01*
X129587511Y-86887017D01*
X129461988Y-86959488D01*
X129461982Y-86959493D01*
X129439681Y-86981795D01*
X129378358Y-87015280D01*
X129308666Y-87010296D01*
X129252733Y-86968424D01*
X129228316Y-86902960D01*
X129228000Y-86894114D01*
X129228000Y-83294932D01*
X129247685Y-83227893D01*
X129300489Y-83182138D01*
X129369647Y-83172194D01*
X129433203Y-83201219D01*
X129459387Y-83232932D01*
X129462015Y-83237483D01*
X129462016Y-83237485D01*
X129534491Y-83363015D01*
X129636985Y-83465509D01*
X129636986Y-83465510D01*
X129636988Y-83465511D01*
X129762511Y-83537982D01*
X129762512Y-83537982D01*
X129762515Y-83537984D01*
X129902525Y-83575500D01*
X129902528Y-83575500D01*
X130047472Y-83575500D01*
X130047475Y-83575500D01*
X130187485Y-83537984D01*
X130313015Y-83465509D01*
X130415509Y-83363015D01*
X130487984Y-83237485D01*
X130497391Y-83202377D01*
X130499438Y-83194738D01*
X130531530Y-83139150D01*
X131933863Y-81736819D01*
X131960790Y-81722115D01*
X131986609Y-81705523D01*
X131992809Y-81704631D01*
X131995186Y-81703334D01*
X132021544Y-81700500D01*
X132153000Y-81700500D01*
X132220039Y-81720185D01*
G37*
%TD.AperFunction*%
%TA.AperFunction,Conductor*%
G36*
X126906318Y-80166191D02*
G01*
X126906552Y-80166182D01*
X126906796Y-80166325D01*
X126944216Y-80176801D01*
X126965511Y-80200758D01*
X126966822Y-80201527D01*
X126967655Y-80203170D01*
X126990635Y-80229023D01*
X127002500Y-80281955D01*
X127002500Y-80450000D01*
X127025054Y-80450000D01*
X127025059Y-80449999D01*
X127048878Y-80447236D01*
X127077412Y-80434637D01*
X127146690Y-80425565D01*
X127177588Y-80434637D01*
X127206121Y-80447236D01*
X127229940Y-80449999D01*
X127229946Y-80450000D01*
X127252500Y-80450000D01*
X127252500Y-80281956D01*
X127255272Y-80272515D01*
X127253995Y-80262760D01*
X127264952Y-80239546D01*
X127272185Y-80214917D01*
X127279620Y-80208473D01*
X127283821Y-80199576D01*
X127305590Y-80185970D01*
X127324989Y-80169162D01*
X127334726Y-80167761D01*
X127343071Y-80162547D01*
X127368738Y-80162871D01*
X127394147Y-80159218D01*
X127403097Y-80163305D01*
X127412935Y-80163430D01*
X127434349Y-80177577D01*
X127457703Y-80188243D01*
X127464577Y-80197548D01*
X127471231Y-80201944D01*
X127489936Y-80231874D01*
X127491936Y-80236404D01*
X127502500Y-80286486D01*
X127502500Y-80450000D01*
X127525060Y-80450000D01*
X127526842Y-80449897D01*
X127527286Y-80450000D01*
X127528637Y-80450000D01*
X127528637Y-80450313D01*
X127594906Y-80465679D01*
X127621680Y-80486009D01*
X127782309Y-80646637D01*
X127917142Y-80781470D01*
X127917143Y-80781471D01*
X127917145Y-80781472D01*
X127971384Y-80812786D01*
X127971386Y-80812788D01*
X127971387Y-80812788D01*
X127997066Y-80827614D01*
X128086210Y-80851500D01*
X128403000Y-80851500D01*
X128470039Y-80871185D01*
X128515794Y-80923989D01*
X128527000Y-80975500D01*
X128527000Y-87008856D01*
X128507315Y-87075895D01*
X128490681Y-87096537D01*
X126939681Y-88647537D01*
X126878358Y-88681022D01*
X126808666Y-88676038D01*
X126752733Y-88634166D01*
X126728316Y-88568702D01*
X126728000Y-88559856D01*
X126728000Y-80525862D01*
X126728644Y-80513237D01*
X126753144Y-80273860D01*
X126757321Y-80263627D01*
X126763064Y-80236403D01*
X126765064Y-80231873D01*
X126775169Y-80219908D01*
X126779552Y-80209173D01*
X126791058Y-80201096D01*
X126810148Y-80178495D01*
X126833475Y-80171323D01*
X126836741Y-80169032D01*
X126841573Y-80168834D01*
X126876933Y-80157965D01*
X126906318Y-80166191D01*
G37*
%TD.AperFunction*%
%TD*%
M02*
