%TF.GenerationSoftware,KiCad,Pcbnew,10.0.0*%
%TF.CreationDate,2026-04-30T20:18:04-03:00*%
%TF.ProjectId,EEGFrontier,45454746-726f-46e7-9469-65722e6b6963,rev?*%
%TF.SameCoordinates,Original*%
%TF.FileFunction,Copper,L1,Top*%
%TF.FilePolarity,Positive*%
%FSLAX46Y46*%
G04 Gerber Fmt 4.6, Leading zero omitted, Abs format (unit mm)*
G04 Created by KiCad (PCBNEW 10.0.0) date 2026-04-30 20:18:04*
%MOMM*%
%LPD*%
G01*
G04 APERTURE LIST*
G04 Aperture macros list*
%AMRoundRect*
0 Rectangle with rounded corners*
0 $1 Rounding radius*
0 $2 $3 $4 $5 $6 $7 $8 $9 X,Y pos of 4 corners*
0 Add a 4 corners polygon primitive as box body*
4,1,4,$2,$3,$4,$5,$6,$7,$8,$9,$2,$3,0*
0 Add four circle primitives for the rounded corners*
1,1,$1+$1,$2,$3*
1,1,$1+$1,$4,$5*
1,1,$1+$1,$6,$7*
1,1,$1+$1,$8,$9*
0 Add four rect primitives between the rounded corners*
20,1,$1+$1,$2,$3,$4,$5,0*
20,1,$1+$1,$4,$5,$6,$7,0*
20,1,$1+$1,$6,$7,$8,$9,0*
20,1,$1+$1,$8,$9,$2,$3,0*%
G04 Aperture macros list end*
%TA.AperFunction,SMDPad,CuDef*%
%ADD10RoundRect,0.250000X-0.450000X0.262500X-0.450000X-0.262500X0.450000X-0.262500X0.450000X0.262500X0*%
%TD*%
%TA.AperFunction,SMDPad,CuDef*%
%ADD11RoundRect,0.250000X0.262500X0.450000X-0.262500X0.450000X-0.262500X-0.450000X0.262500X-0.450000X0*%
%TD*%
%TA.AperFunction,SMDPad,CuDef*%
%ADD12RoundRect,0.250000X-0.325000X-0.650000X0.325000X-0.650000X0.325000X0.650000X-0.325000X0.650000X0*%
%TD*%
%TA.AperFunction,SMDPad,CuDef*%
%ADD13RoundRect,0.250000X-0.262500X-0.450000X0.262500X-0.450000X0.262500X0.450000X-0.262500X0.450000X0*%
%TD*%
%TA.AperFunction,SMDPad,CuDef*%
%ADD14RoundRect,0.200000X0.200000X0.800000X-0.200000X0.800000X-0.200000X-0.800000X0.200000X-0.800000X0*%
%TD*%
%TA.AperFunction,SMDPad,CuDef*%
%ADD15RoundRect,0.035000X-0.745000X-0.105000X0.745000X-0.105000X0.745000X0.105000X-0.745000X0.105000X0*%
%TD*%
%TA.AperFunction,SMDPad,CuDef*%
%ADD16RoundRect,0.035000X-0.105000X-0.745000X0.105000X-0.745000X0.105000X0.745000X-0.105000X0.745000X0*%
%TD*%
%TA.AperFunction,SMDPad,CuDef*%
%ADD17RoundRect,0.225000X-0.250000X0.225000X-0.250000X-0.225000X0.250000X-0.225000X0.250000X0.225000X0*%
%TD*%
%TA.AperFunction,SMDPad,CuDef*%
%ADD18RoundRect,0.250000X0.650000X-0.325000X0.650000X0.325000X-0.650000X0.325000X-0.650000X-0.325000X0*%
%TD*%
%TA.AperFunction,SMDPad,CuDef*%
%ADD19RoundRect,0.225000X-0.225000X-0.250000X0.225000X-0.250000X0.225000X0.250000X-0.225000X0.250000X0*%
%TD*%
%TA.AperFunction,SMDPad,CuDef*%
%ADD20RoundRect,0.250000X0.325000X0.650000X-0.325000X0.650000X-0.325000X-0.650000X0.325000X-0.650000X0*%
%TD*%
%TA.AperFunction,SMDPad,CuDef*%
%ADD21RoundRect,0.243750X-0.243750X-0.456250X0.243750X-0.456250X0.243750X0.456250X-0.243750X0.456250X0*%
%TD*%
%TA.AperFunction,SMDPad,CuDef*%
%ADD22RoundRect,0.225000X0.250000X-0.225000X0.250000X0.225000X-0.250000X0.225000X-0.250000X-0.225000X0*%
%TD*%
%TA.AperFunction,SMDPad,CuDef*%
%ADD23RoundRect,0.500000X-0.875000X-0.500000X0.875000X-0.500000X0.875000X0.500000X-0.875000X0.500000X0*%
%TD*%
%TA.AperFunction,ComponentPad*%
%ADD24R,1.700000X1.700000*%
%TD*%
%TA.AperFunction,ComponentPad*%
%ADD25C,1.700000*%
%TD*%
%TA.AperFunction,SMDPad,CuDef*%
%ADD26RoundRect,0.225000X0.225000X0.250000X-0.225000X0.250000X-0.225000X-0.250000X0.225000X-0.250000X0*%
%TD*%
%TA.AperFunction,ViaPad*%
%ADD27C,0.600000*%
%TD*%
%TA.AperFunction,Conductor*%
%ADD28C,0.200000*%
%TD*%
G04 APERTURE END LIST*
D10*
%TO.P,R1,1*%
%TO.N,3V3_D*%
X141400000Y-86925000D03*
%TO.P,R1,2*%
%TO.N,Net-(U2-~{PWDN})*%
X141400000Y-88750000D03*
%TD*%
D11*
%TO.P,R10,1*%
%TO.N,EEG_REF*%
X116975000Y-72750000D03*
%TO.P,R10,2*%
%TO.N,Net-(U2-IN4N)*%
X115150000Y-72750000D03*
%TD*%
D12*
%TO.P,C6,1*%
%TO.N,3V3_D*%
X143662500Y-91155000D03*
%TO.P,C6,2*%
%TO.N,GND*%
X146612500Y-91155000D03*
%TD*%
D11*
%TO.P,R4,1*%
%TO.N,EEG_REF*%
X117087500Y-90475000D03*
%TO.P,R4,2*%
%TO.N,Net-(U2-IN1N)*%
X115262500Y-90475000D03*
%TD*%
D13*
%TO.P,R3,1*%
%TO.N,3V3_D*%
X158837500Y-71500000D03*
%TO.P,R3,2*%
%TO.N,Net-(D1-A)*%
X160662500Y-71500000D03*
%TD*%
D14*
%TO.P,SW1,1,1_1*%
%TO.N,BTN_START*%
X129900000Y-68650000D03*
%TO.P,SW1,2,2_2*%
%TO.N,GND*%
X125700000Y-68650000D03*
%TD*%
D13*
%TO.P,R2,1*%
%TO.N,LED_STREAM*%
X129650000Y-74575000D03*
%TO.P,R2,2*%
%TO.N,Net-(D2-A)*%
X131475000Y-74575000D03*
%TD*%
D11*
%TO.P,R7,1*%
%TO.N,EEG_CH2*%
X116975000Y-81600000D03*
%TO.P,R7,2*%
%TO.N,Net-(U2-IN2P)*%
X115150000Y-81600000D03*
%TD*%
D15*
%TO.P,U2,1,IN8N_1*%
%TO.N,unconnected-(U2-IN8N-Pad1)*%
X121947500Y-81350000D03*
%TO.P,U2,2,IN8P_2*%
%TO.N,unconnected-(U2-IN8P-Pad2)*%
X121947500Y-81850000D03*
%TO.P,U2,3,IN7N_3*%
%TO.N,unconnected-(U2-IN7N-Pad3)*%
X121947500Y-82350000D03*
%TO.P,U2,4,IN7P_4*%
%TO.N,unconnected-(U2-IN7P-Pad4)*%
X121947500Y-82850000D03*
%TO.P,U2,5,IN6N_5*%
%TO.N,unconnected-(U2-IN6N-Pad5)*%
X121947500Y-83350000D03*
%TO.P,U2,6,IN6P_6*%
%TO.N,unconnected-(U2-IN6P-Pad6)*%
X121947500Y-83850000D03*
%TO.P,U2,7,IN5N_7*%
%TO.N,unconnected-(U2-IN5N-Pad7)*%
X121947500Y-84350000D03*
%TO.P,U2,8,IN5P_8*%
%TO.N,unconnected-(U2-IN5P-Pad8)*%
X121947500Y-84850000D03*
%TO.P,U2,9,IN4N_9*%
%TO.N,Net-(U2-IN4N)*%
X121947500Y-85350000D03*
%TO.P,U2,10,IN4P_10*%
%TO.N,Net-(U2-IN4P)*%
X121947500Y-85850000D03*
%TO.P,U2,11,IN3N_11*%
%TO.N,Net-(U2-IN3N)*%
X121947500Y-86350000D03*
%TO.P,U2,12,IN3P_12*%
%TO.N,Net-(U2-IN3P)*%
X121947500Y-86850000D03*
%TO.P,U2,13,IN2N_13*%
%TO.N,Net-(U2-IN2N)*%
X121947500Y-87350000D03*
%TO.P,U2,14,IN2P_14*%
%TO.N,Net-(U2-IN2P)*%
X121947500Y-87850000D03*
%TO.P,U2,15,IN1N_15*%
%TO.N,Net-(U2-IN1N)*%
X121947500Y-88350000D03*
%TO.P,U2,16,IN1P_16*%
%TO.N,Net-(U2-IN1P)*%
X121947500Y-88850000D03*
D16*
%TO.P,U2,17,SRB1_17*%
%TO.N,unconnected-(U2-SRB1-Pad17)*%
X123877500Y-90780000D03*
%TO.P,U2,18,SRB2_18*%
%TO.N,unconnected-(U2-SRB2-Pad18)*%
X124377500Y-90780000D03*
%TO.P,U2,19,AVDD@1_19*%
%TO.N,3V3_D*%
X124877500Y-90780000D03*
%TO.P,U2,20,AVSS@1_20*%
%TO.N,GND*%
X125377500Y-90780000D03*
%TO.P,U2,21,AVDD@1_21*%
%TO.N,3V3_D*%
X125877500Y-90780000D03*
%TO.P,U2,22,AVDD@1_22*%
X126377500Y-90780000D03*
%TO.P,U2,23,AVSS@1_23*%
%TO.N,GND*%
X126877500Y-90780000D03*
%TO.P,U2,24,VREFP_24*%
%TO.N,Net-(U2-VREFP)*%
X127377500Y-90780000D03*
%TO.P,U2,25,VREFN_25*%
%TO.N,GND*%
X127877500Y-90780000D03*
%TO.P,U2,26,VCAP4_26*%
%TO.N,Net-(U2-VCAP4)*%
X128377500Y-90780000D03*
%TO.P,U2,27*%
%TO.N,N/C*%
X128877500Y-90780000D03*
%TO.P,U2,28,VCAP1_28*%
%TO.N,Net-(U2-VCAP1)*%
X129377500Y-90780000D03*
%TO.P,U2,29*%
%TO.N,N/C*%
X129877500Y-90780000D03*
%TO.P,U2,30,VCAP2_30*%
%TO.N,Net-(U2-VCAP2)*%
X130377500Y-90780000D03*
%TO.P,U2,31,RESV1_31*%
%TO.N,SPI_SCK*%
X130877500Y-90780000D03*
%TO.P,U2,32,AVSS@1_32*%
%TO.N,GND*%
X131377500Y-90780000D03*
D15*
%TO.P,U2,33,DGND_33*%
X133307500Y-88850000D03*
%TO.P,U2,34,DIN_34*%
%TO.N,SPI_MOSI*%
X133307500Y-88350000D03*
%TO.P,U2,35,~{PWDN}_35*%
%TO.N,Net-(U2-~{PWDN})*%
X133307500Y-87850000D03*
%TO.P,U2,36,~{RESET}_36*%
%TO.N,EEG_RESET*%
X133307500Y-87350000D03*
%TO.P,U2,37,CLK_37*%
%TO.N,unconnected-(U2-CLK-Pad37)*%
X133307500Y-86850000D03*
%TO.P,U2,38,START_38*%
%TO.N,EEG_START*%
X133307500Y-86350000D03*
%TO.P,U2,39,~{CS}_39*%
%TO.N,SPI_CS*%
X133307500Y-85850000D03*
%TO.P,U2,40,SCLK_40*%
%TO.N,unconnected-(U2-SCLK-Pad40)*%
X133307500Y-85350000D03*
%TO.P,U2,41,DAISY_IN_41*%
%TO.N,unconnected-(U2-DAISY_IN-Pad41)*%
X133307500Y-84850000D03*
%TO.P,U2,42,GPIO1_42*%
%TO.N,unconnected-(U2-GPIO1-Pad42)*%
X133307500Y-84350000D03*
%TO.P,U2,43,DOUT_43*%
%TO.N,SPI_MISO*%
X133307500Y-83850000D03*
%TO.P,U2,44,GPIO2_44*%
%TO.N,unconnected-(U2-GPIO2-Pad44)*%
X133307500Y-83350000D03*
%TO.P,U2,45,GPIO3_45*%
%TO.N,unconnected-(U2-GPIO3-Pad45)*%
X133307500Y-82850000D03*
%TO.P,U2,46,GPIO4_46*%
%TO.N,unconnected-(U2-GPIO4-Pad46)*%
X133307500Y-82350000D03*
%TO.P,U2,47,~{DRDY}_47*%
%TO.N,EEG_DRDY*%
X133307500Y-81850000D03*
%TO.P,U2,48,DVDD_48*%
%TO.N,3V3_D*%
X133307500Y-81350000D03*
D16*
%TO.P,U2,49,DGND_49*%
%TO.N,GND*%
X131377500Y-79420000D03*
%TO.P,U2,50,DVDD_50*%
%TO.N,3V3_D*%
X130877500Y-79420000D03*
%TO.P,U2,51,DGND_51*%
%TO.N,GND*%
X130377500Y-79420000D03*
%TO.P,U2,52,CLKSEL_52*%
X129877500Y-79420000D03*
%TO.P,U2,53,AVSS1_53*%
X129377500Y-79420000D03*
%TO.P,U2,54,AVDD1_54*%
%TO.N,3V3_D*%
X128877500Y-79420000D03*
%TO.P,U2,55,VCAP3_55*%
%TO.N,Net-(U2-VCAP3)*%
X128377500Y-79420000D03*
%TO.P,U2,56,AVDD@1_56*%
%TO.N,3V3_D*%
X127877500Y-79420000D03*
%TO.P,U2,57,AVSS@1_57*%
%TO.N,GND*%
X127377500Y-79420000D03*
%TO.P,U2,58,AVSS@2_58*%
X126877500Y-79420000D03*
%TO.P,U2,59,AVDD@2_59*%
%TO.N,3V3_D*%
X126377500Y-79420000D03*
%TO.P,U2,60,BIASREF_60*%
%TO.N,unconnected-(U2-BIASREF-Pad60)*%
X125877500Y-79420000D03*
%TO.P,U2,61,BIASINV_61*%
%TO.N,EEG_REF*%
X125377500Y-79420000D03*
%TO.P,U2,62,BIASIN_62*%
%TO.N,EEG_BIAS*%
X124877500Y-79420000D03*
%TO.P,U2,63,BIASOUT_63*%
X124377500Y-79420000D03*
%TO.P,U2,64,RESERVED_64*%
%TO.N,unconnected-(U2-RESERVED-Pad64)*%
X123877500Y-79420000D03*
%TD*%
D11*
%TO.P,R8,1*%
%TO.N,EEG_REF*%
X116975000Y-78650000D03*
%TO.P,R8,2*%
%TO.N,Net-(U2-IN3N)*%
X115150000Y-78650000D03*
%TD*%
D17*
%TO.P,C4,1*%
%TO.N,GND*%
X150925000Y-90225000D03*
%TO.P,C4,2*%
%TO.N,3V3_D*%
X150925000Y-91775000D03*
%TD*%
D18*
%TO.P,C5,1*%
%TO.N,3V3_D*%
X122450000Y-100775000D03*
%TO.P,C5,2*%
%TO.N,GND*%
X122450000Y-97825000D03*
%TD*%
D11*
%TO.P,R9,1*%
%TO.N,EEG_CH3*%
X116975000Y-75700000D03*
%TO.P,R9,2*%
%TO.N,Net-(U2-IN3P)*%
X115150000Y-75700000D03*
%TD*%
D19*
%TO.P,C8,1*%
%TO.N,Net-(U2-VREFP)*%
X125900000Y-98125000D03*
%TO.P,C8,2*%
%TO.N,GND*%
X127450000Y-98125000D03*
%TD*%
D20*
%TO.P,C11,1*%
%TO.N,Net-(U2-VCAP3)*%
X126250000Y-74150000D03*
%TO.P,C11,2*%
%TO.N,GND*%
X123300000Y-74150000D03*
%TD*%
D12*
%TO.P,C10,1*%
%TO.N,Net-(U2-VCAP1)*%
X143662500Y-97855000D03*
%TO.P,C10,2*%
%TO.N,GND*%
X146612500Y-97855000D03*
%TD*%
D21*
%TO.P,D1,1,K_1*%
%TO.N,GND*%
X158800000Y-64875000D03*
%TO.P,D1,2,A_2*%
%TO.N,Net-(D1-A)*%
X160675000Y-64875000D03*
%TD*%
D11*
%TO.P,R6,1*%
%TO.N,EEG_REF*%
X117087500Y-84575000D03*
%TO.P,R6,2*%
%TO.N,Net-(U2-IN2N)*%
X115262500Y-84575000D03*
%TD*%
D22*
%TO.P,C2,1*%
%TO.N,3V3_D*%
X117250000Y-99975000D03*
%TO.P,C2,2*%
%TO.N,GND*%
X117250000Y-98425000D03*
%TD*%
D23*
%TO.P,U1,1,P26/A0/D0_1*%
%TO.N,EEG_RESET*%
X138750000Y-65480000D03*
%TO.P,U1,2,P27/A1/D1_2*%
%TO.N,EEG_START*%
X138750000Y-68020000D03*
%TO.P,U1,3,P28/A2/D2_3*%
%TO.N,EEG_DRDY*%
X138750000Y-70560000D03*
%TO.P,U1,4,P29/A3/D3_4*%
%TO.N,unconnected-(U1-P29{slash}A3{slash}D3-Pad4)*%
X138750000Y-73100000D03*
%TO.P,U1,5,P6/SDA/D4_5*%
%TO.N,unconnected-(U1-P6{slash}SDA{slash}D4-Pad5)*%
X138750000Y-75640000D03*
%TO.P,U1,6,P7/SCL/D5_6*%
%TO.N,BTN_START*%
X138750000Y-78180000D03*
%TO.P,U1,7,P0//TX/D6_7*%
%TO.N,LED_STREAM*%
X138750000Y-80720000D03*
%TO.P,U1,8,D7/CSB/P1/RX_8*%
%TO.N,SPI_CS*%
X154950000Y-80720000D03*
%TO.P,U1,9,D8/SCK/P2_9*%
%TO.N,SPI_SCK*%
X154950000Y-78180000D03*
%TO.P,U1,10,D9/MISO/P4_10*%
%TO.N,SPI_MISO*%
X154950000Y-75640000D03*
%TO.P,U1,11,D10/MOSI/P3_11*%
%TO.N,SPI_MOSI*%
X154950000Y-73100000D03*
%TO.P,U1,12,3V3_12*%
%TO.N,3V3_D*%
X154950000Y-70560000D03*
%TO.P,U1,13,GND_13*%
%TO.N,GND*%
X154950000Y-68020000D03*
%TO.P,U1,14,5V_14*%
%TO.N,VBUS*%
X154950000Y-65480000D03*
%TD*%
D19*
%TO.P,C7,1*%
%TO.N,Net-(U2-VREFP)*%
X131700000Y-94700000D03*
%TO.P,C7,2*%
%TO.N,GND*%
X133250000Y-94700000D03*
%TD*%
D12*
%TO.P,C9,1*%
%TO.N,Net-(U2-VCAP2)*%
X143662500Y-94505000D03*
%TO.P,C9,2*%
%TO.N,GND*%
X146612500Y-94505000D03*
%TD*%
D24*
%TO.P,J1,1,Pin_1_1*%
%TO.N,EEG_CH1*%
X110100000Y-87335000D03*
D25*
%TO.P,J1,2,Pin_2_2*%
%TO.N,EEG_CH2*%
X110100000Y-84795000D03*
%TO.P,J1,3,Pin_3_3*%
%TO.N,EEG_CH3*%
X110100000Y-82255000D03*
%TO.P,J1,4,Pin_4_4*%
%TO.N,EEG_CH4*%
X110100000Y-79715000D03*
%TO.P,J1,5,Pin_5_5*%
%TO.N,EEG_REF*%
X110100000Y-77175000D03*
%TO.P,J1,6,Pin_6_6*%
%TO.N,EEG_BIAS*%
X110100000Y-74635000D03*
%TO.P,J1,7,Pin_7_7*%
%TO.N,GND*%
X110100000Y-72095000D03*
%TO.P,J1,8,Pin_8_8*%
%TO.N,unconnected-(J1-Pin_8-Pad8)*%
X110100000Y-69555000D03*
%TD*%
D21*
%TO.P,D2,1,K_1*%
%TO.N,GND*%
X132450000Y-65300000D03*
%TO.P,D2,2,A_2*%
%TO.N,Net-(D2-A)*%
X134325000Y-65300000D03*
%TD*%
D26*
%TO.P,C3,1*%
%TO.N,GND*%
X150950000Y-87075000D03*
%TO.P,C3,2*%
%TO.N,3V3_D*%
X149400000Y-87075000D03*
%TD*%
D11*
%TO.P,R5,1*%
%TO.N,EEG_CH1*%
X117087500Y-87525000D03*
%TO.P,R5,2*%
%TO.N,Net-(U2-IN1P)*%
X115262500Y-87525000D03*
%TD*%
D12*
%TO.P,C12,1*%
%TO.N,Net-(U2-VCAP4)*%
X130000000Y-98625000D03*
%TO.P,C12,2*%
%TO.N,GND*%
X132950000Y-98625000D03*
%TD*%
D22*
%TO.P,C1,1*%
%TO.N,3V3_D*%
X120150000Y-95275000D03*
%TO.P,C1,2*%
%TO.N,GND*%
X120150000Y-93725000D03*
%TD*%
D11*
%TO.P,R11,1*%
%TO.N,EEG_CH4*%
X116975000Y-69800000D03*
%TO.P,R11,2*%
%TO.N,Net-(U2-IN4P)*%
X115150000Y-69800000D03*
%TD*%
D27*
%TO.N,GND*%
X126700000Y-77900000D03*
X127200000Y-77600000D03*
X132100000Y-89055600D03*
X133000000Y-91100000D03*
X128400000Y-92700000D03*
X125200000Y-92800000D03*
X126400000Y-92800000D03*
%TO.N,EEG_START*%
X136669600Y-68215600D03*
X134888600Y-86474800D03*
%TO.N,EEG_RESET*%
X136669600Y-65383000D03*
X135406600Y-87255400D03*
%TO.N,SPI_SCK*%
X141568900Y-90236000D03*
X146856800Y-78059200D03*
%TO.N,SPI_MOSI*%
X141172100Y-74324200D03*
X135603500Y-89202800D03*
%TO.N,Net-(U2-IN4P)*%
X119386100Y-73805100D03*
X120194500Y-85970900D03*
%TO.N,Net-(U2-IN4N)*%
X119210500Y-85413200D03*
X113674900Y-73684500D03*
%TO.N,Net-(U2-IN3P)*%
X118181400Y-84132600D03*
X117232000Y-77135000D03*
%TO.N,Net-(U2-IN3N)*%
X119979700Y-90089200D03*
X116968900Y-80250400D03*
%TO.N,Net-(U2-IN2P)*%
X118247000Y-87362800D03*
X116145200Y-80360900D03*
%TO.N,EEG_CH3*%
X118007500Y-75274700D03*
%TO.N,EEG_CH4*%
X118007500Y-70103700D03*
%TO.N,EEG_REF*%
X108408300Y-89450700D03*
%TD*%
%TO.N,GND*%
D28*
X126877500Y-78077500D02*
X126700000Y-77900000D01*
X126877500Y-79420000D02*
X126877500Y-78077500D01*
X127377500Y-77777500D02*
X127200000Y-77600000D01*
X127377500Y-79420000D02*
X127377500Y-77777500D01*
X132305600Y-88850000D02*
X132100000Y-89055600D01*
X133307500Y-88850000D02*
X132305600Y-88850000D01*
X132680000Y-90780000D02*
X133000000Y-91100000D01*
X131377500Y-90780000D02*
X132680000Y-90780000D01*
X127877500Y-92177500D02*
X128400000Y-92700000D01*
X127877500Y-90780000D02*
X127877500Y-92177500D01*
X125377500Y-92622500D02*
X125200000Y-92800000D01*
X125377500Y-90780000D02*
X125377500Y-92622500D01*
X126877500Y-92322500D02*
X126400000Y-92800000D01*
X126877500Y-90780000D02*
X126877500Y-92322500D01*
%TO.N,SPI_MISO*%
X140215200Y-83850000D02*
X133307500Y-83850000D01*
X148425200Y-75640000D02*
X140215200Y-83850000D01*
X154950000Y-75640000D02*
X148425200Y-75640000D01*
%TO.N,EEG_START*%
X136865200Y-68020000D02*
X136669600Y-68215600D01*
X138750000Y-68020000D02*
X136865200Y-68020000D01*
X134763800Y-86350000D02*
X133307500Y-86350000D01*
X134888600Y-86474800D02*
X134763800Y-86350000D01*
%TO.N,EEG_RESET*%
X136766600Y-65480000D02*
X136669600Y-65383000D01*
X138750000Y-65480000D02*
X136766600Y-65480000D01*
X135312000Y-87350000D02*
X133307500Y-87350000D01*
X135406600Y-87255400D02*
X135312000Y-87350000D01*
%TO.N,EEG_DRDY*%
X137301200Y-81850000D02*
X133307500Y-81850000D01*
X137531900Y-82080700D02*
X137301200Y-81850000D01*
X139903600Y-82080700D02*
X137531900Y-82080700D01*
X140464900Y-81519400D02*
X139903600Y-82080700D01*
X140464900Y-72274900D02*
X140464900Y-81519400D01*
X138750000Y-70560000D02*
X140464900Y-72274900D01*
%TO.N,SPI_SCK*%
X139904300Y-91900600D02*
X141568900Y-90236000D01*
X131170600Y-91900600D02*
X139904300Y-91900600D01*
X130877500Y-91607500D02*
X131170600Y-91900600D01*
X130877500Y-90780000D02*
X130877500Y-91607500D01*
X154829200Y-78059200D02*
X154950000Y-78180000D01*
X146856800Y-78059200D02*
X154829200Y-78059200D01*
%TO.N,SPI_MOSI*%
X142396300Y-73100000D02*
X141172100Y-74324200D01*
X154950000Y-73100000D02*
X142396300Y-73100000D01*
X134986600Y-89202800D02*
X135603500Y-89202800D01*
X134133800Y-88350000D02*
X134986600Y-89202800D01*
X133307500Y-88350000D02*
X134133800Y-88350000D01*
%TO.N,SPI_CS*%
X149820000Y-85850000D02*
X154950000Y-80720000D01*
X133307500Y-85850000D02*
X149820000Y-85850000D01*
%TO.N,BTN_START*%
X129900000Y-69330000D02*
X138750000Y-78180000D01*
X129900000Y-68650000D02*
X129900000Y-69330000D01*
%TO.N,Net-(U2-IN4P)*%
X116484000Y-73805100D02*
X119386100Y-73805100D01*
X116062500Y-73383600D02*
X116484000Y-73805100D01*
X116062500Y-70712500D02*
X116062500Y-73383600D01*
X115150000Y-69800000D02*
X116062500Y-70712500D01*
X120315400Y-85850000D02*
X121947500Y-85850000D01*
X120194500Y-85970900D02*
X120315400Y-85850000D01*
%TO.N,Net-(U2-IN4N)*%
X119273700Y-85350000D02*
X119210500Y-85413200D01*
X121947500Y-85350000D02*
X119273700Y-85350000D01*
X114215500Y-73684500D02*
X115150000Y-72750000D01*
X113674900Y-73684500D02*
X114215500Y-73684500D01*
%TO.N,Net-(U2-IN3P)*%
X116585000Y-77135000D02*
X115150000Y-75700000D01*
X117232000Y-77135000D02*
X116585000Y-77135000D01*
X118181400Y-85299600D02*
X118181400Y-84132600D01*
X119731800Y-86850000D02*
X118181400Y-85299600D01*
X121947500Y-86850000D02*
X119731800Y-86850000D01*
%TO.N,Net-(U2-IN3N)*%
X122691700Y-90089200D02*
X119979700Y-90089200D01*
X123522100Y-89258800D02*
X122691700Y-90089200D01*
X123522100Y-86998900D02*
X123522100Y-89258800D01*
X122873200Y-86350000D02*
X123522100Y-86998900D01*
X121947500Y-86350000D02*
X122873200Y-86350000D01*
X115368500Y-78650000D02*
X116968900Y-80250400D01*
X115150000Y-78650000D02*
X115368500Y-78650000D01*
%TO.N,Net-(U2-IN2P)*%
X118734200Y-87850000D02*
X118247000Y-87362800D01*
X121947500Y-87850000D02*
X118734200Y-87850000D01*
X115150000Y-81356100D02*
X115150000Y-81600000D01*
X116145200Y-80360900D02*
X115150000Y-81356100D01*
%TO.N,Net-(U2-IN2N)*%
X116458400Y-85770900D02*
X115262500Y-84575000D01*
X117506000Y-85770900D02*
X116458400Y-85770900D01*
X119085100Y-87350000D02*
X117506000Y-85770900D01*
X121947500Y-87350000D02*
X119085100Y-87350000D01*
%TO.N,Net-(U2-IN1P)*%
X116587500Y-88850000D02*
X115262500Y-87525000D01*
X121947500Y-88850000D02*
X116587500Y-88850000D01*
%TO.N,Net-(U2-IN1N)*%
X116375500Y-89362000D02*
X115262500Y-90475000D01*
X122781700Y-89362000D02*
X116375500Y-89362000D01*
X123062600Y-89081100D02*
X122781700Y-89362000D01*
X123062600Y-88612800D02*
X123062600Y-89081100D01*
X122799800Y-88350000D02*
X123062600Y-88612800D01*
X121947500Y-88350000D02*
X122799800Y-88350000D01*
%TO.N,LED_STREAM*%
X135795000Y-80720000D02*
X129650000Y-74575000D01*
X138750000Y-80720000D02*
X135795000Y-80720000D01*
%TO.N,Net-(U2-~{PWDN})*%
X134382400Y-87850000D02*
X133307500Y-87850000D01*
X135133500Y-88601100D02*
X134382400Y-87850000D01*
X141251100Y-88601100D02*
X135133500Y-88601100D01*
X141400000Y-88750000D02*
X141251100Y-88601100D01*
%TO.N,EEG_BIAS*%
X124377500Y-79420000D02*
X124877500Y-79420000D01*
X124377500Y-78582900D02*
X124377500Y-79420000D01*
X120429600Y-74635000D02*
X124377500Y-78582900D01*
X110100000Y-74635000D02*
X120429600Y-74635000D01*
%TO.N,EEG_CH3*%
X117400300Y-75274700D02*
X116975000Y-75700000D01*
X118007500Y-75274700D02*
X117400300Y-75274700D01*
%TO.N,EEG_CH4*%
X117278700Y-70103700D02*
X116975000Y-69800000D01*
X118007500Y-70103700D02*
X117278700Y-70103700D01*
%TO.N,EEG_REF*%
X115500000Y-77175000D02*
X116975000Y-78650000D01*
X110100000Y-77175000D02*
X115500000Y-77175000D01*
X125377500Y-78515700D02*
X125377500Y-79420000D01*
X119611800Y-72750000D02*
X125377500Y-78515700D01*
X116975000Y-72750000D02*
X119611800Y-72750000D01*
X125184400Y-80505600D02*
X118625100Y-80505600D01*
X125377500Y-80312500D02*
X125184400Y-80505600D01*
X125377500Y-79420000D02*
X125377500Y-80312500D01*
X118625100Y-80300100D02*
X116975000Y-78650000D01*
X118625100Y-80505600D02*
X118625100Y-80300100D01*
X116067600Y-91494900D02*
X117087500Y-90475000D01*
X110452500Y-91494900D02*
X116067600Y-91494900D01*
X108408300Y-89450700D02*
X110452500Y-91494900D01*
X117087500Y-84373300D02*
X117087500Y-84575000D01*
X118625100Y-82835700D02*
X117087500Y-84373300D01*
X118625100Y-80505600D02*
X118625100Y-82835700D01*
%TO.N,EEG_CH1*%
X110100000Y-87335000D02*
X111251700Y-87335000D01*
X116065300Y-86502800D02*
X117087500Y-87525000D01*
X112083900Y-86502800D02*
X116065300Y-86502800D01*
X111251700Y-87335000D02*
X112083900Y-86502800D01*
%TO.N,EEG_CH2*%
X115002700Y-83572300D02*
X116975000Y-81600000D01*
X111322700Y-83572300D02*
X115002700Y-83572300D01*
X110100000Y-84795000D02*
X111322700Y-83572300D01*
%TO.N,Net-(D2-A)*%
X129193600Y-72293600D02*
X131475000Y-74575000D01*
X129193600Y-67605400D02*
X129193600Y-72293600D01*
X130463900Y-66335100D02*
X129193600Y-67605400D01*
X133289900Y-66335100D02*
X130463900Y-66335100D01*
X134325000Y-65300000D02*
X133289900Y-66335100D01*
%TO.N,Net-(D1-A)*%
X160662500Y-64887500D02*
X160662500Y-71500000D01*
X160675000Y-64875000D02*
X160662500Y-64887500D01*
%TO.N,Net-(U2-VCAP4)*%
X128377500Y-91640400D02*
X128377500Y-90780000D01*
X130659500Y-93922400D02*
X128377500Y-91640400D01*
X132143500Y-93922400D02*
X130659500Y-93922400D01*
X132475000Y-94253900D02*
X132143500Y-93922400D01*
X132475000Y-96150000D02*
X132475000Y-94253900D01*
X130000000Y-98625000D02*
X132475000Y-96150000D01*
%TO.N,Net-(U2-VCAP3)*%
X128377500Y-76277500D02*
X128377500Y-79420000D01*
X126250000Y-74150000D02*
X128377500Y-76277500D01*
%TO.N,Net-(U2-VCAP1)*%
X129377500Y-91622500D02*
X129377500Y-90780000D01*
X131275700Y-93520700D02*
X129377500Y-91622500D01*
X139328200Y-93520700D02*
X131275700Y-93520700D01*
X143662500Y-97855000D02*
X139328200Y-93520700D01*
%TO.N,Net-(U2-VCAP2)*%
X141926100Y-92768600D02*
X143662500Y-94505000D01*
X131469300Y-92768600D02*
X141926100Y-92768600D01*
X130377500Y-91676800D02*
X131469300Y-92768600D01*
X130377500Y-90780000D02*
X130377500Y-91676800D01*
%TO.N,Net-(U2-VREFP)*%
X127377500Y-92752500D02*
X129325000Y-94700000D01*
X127377500Y-90780000D02*
X127377500Y-92752500D01*
X131700000Y-94700000D02*
X129325000Y-94700000D01*
X129325000Y-94700000D02*
X125900000Y-98125000D01*
%TO.N,3V3_D*%
X150331600Y-92368400D02*
X150925000Y-91775000D01*
X144875900Y-92368400D02*
X150331600Y-92368400D01*
X143662500Y-91155000D02*
X144875900Y-92368400D01*
X125877500Y-90780000D02*
X126377500Y-90780000D01*
X126377500Y-80277500D02*
X126377500Y-79420000D01*
X126615900Y-80515900D02*
X126377500Y-80277500D01*
X127877500Y-80515900D02*
X126615900Y-80515900D01*
X152456100Y-84018900D02*
X149400000Y-87075000D01*
X154174400Y-84018900D02*
X152456100Y-84018900D01*
X156651700Y-81541600D02*
X154174400Y-84018900D01*
X156651700Y-71500000D02*
X156651700Y-81541600D01*
X155890000Y-71500000D02*
X156651700Y-71500000D01*
X154950000Y-70560000D02*
X155890000Y-71500000D01*
X156651700Y-71500000D02*
X158837500Y-71500000D01*
X120150000Y-95275000D02*
X120150000Y-99975000D01*
X117250000Y-99975000D02*
X120150000Y-99975000D01*
X121650000Y-99975000D02*
X122450000Y-100775000D01*
X120150000Y-99975000D02*
X121650000Y-99975000D01*
X124877500Y-91618300D02*
X124877500Y-90780000D01*
X121220800Y-95275000D02*
X124877500Y-91618300D01*
X120150000Y-95275000D02*
X121220800Y-95275000D01*
X141400000Y-86925000D02*
X144646300Y-90171200D01*
X147742500Y-87075000D02*
X144646300Y-90171200D01*
X149400000Y-87075000D02*
X147742500Y-87075000D01*
X144646300Y-90171200D02*
X143662500Y-91155000D01*
X124877500Y-89953700D02*
X124877500Y-90780000D01*
X125133000Y-89698200D02*
X124877500Y-89953700D01*
X125629500Y-89698200D02*
X125133000Y-89698200D01*
X125877500Y-89946200D02*
X125629500Y-89698200D01*
X125877500Y-90780000D02*
X125877500Y-89946200D01*
X126168100Y-89655600D02*
X125877500Y-89946200D01*
X131482900Y-89655600D02*
X126168100Y-89655600D01*
X131482900Y-81350000D02*
X133307500Y-81350000D01*
X131482900Y-81350000D02*
X131482900Y-89655600D01*
X130648800Y-80515800D02*
X131482900Y-81350000D01*
X130877500Y-80287100D02*
X130648800Y-80515800D01*
X130877500Y-79420000D02*
X130877500Y-80287100D01*
X130648700Y-80515900D02*
X128877500Y-80515900D01*
X130648800Y-80515800D02*
X130648700Y-80515900D01*
X128877500Y-79420000D02*
X128877500Y-80515900D01*
X128877500Y-80515900D02*
X127877500Y-80515900D01*
X127877500Y-79420000D02*
X127877500Y-80515900D01*
X135205500Y-89655600D02*
X131482900Y-89655600D01*
X135354400Y-89804500D02*
X135205500Y-89655600D01*
X135852700Y-89804500D02*
X135354400Y-89804500D01*
X136001600Y-89655600D02*
X135852700Y-89804500D01*
X141298500Y-89655600D02*
X136001600Y-89655600D01*
X141319800Y-89634300D02*
X141298500Y-89655600D01*
X142141800Y-89634300D02*
X141319800Y-89634300D01*
X143662500Y-91155000D02*
X142141800Y-89634300D01*
%TD*%
%TA.AperFunction,Conductor*%
%TO.N,GND*%
G36*
X127937573Y-91546207D02*
G01*
X127986682Y-91595907D01*
X127998818Y-91629049D01*
X127999822Y-91633801D01*
X128002500Y-91659434D01*
X128002500Y-91806162D01*
X128030152Y-91815589D01*
X128055688Y-91827698D01*
X128079208Y-91842345D01*
X128101340Y-91859922D01*
X130366630Y-94125211D01*
X130387779Y-94153461D01*
X130393200Y-94163388D01*
X130408054Y-94231661D01*
X130383640Y-94297126D01*
X130327708Y-94338999D01*
X130327704Y-94339001D01*
X130320516Y-94341682D01*
X130277182Y-94349500D01*
X129539374Y-94349500D01*
X129504438Y-94344477D01*
X129479196Y-94337065D01*
X129426451Y-94305769D01*
X127776926Y-92656244D01*
X127755774Y-92627988D01*
X127743167Y-92604899D01*
X127728000Y-92545474D01*
X127728000Y-91903690D01*
X127731843Y-91873057D01*
X127732391Y-91870905D01*
X127735901Y-91858953D01*
X127736852Y-91853407D01*
X127738070Y-91848632D01*
X127747075Y-91833444D01*
X127745438Y-91832867D01*
X127752500Y-91812846D01*
X127752500Y-91659411D01*
X127759695Y-91634906D01*
X127761576Y-91610654D01*
X127770130Y-91599367D01*
X127772185Y-91592372D01*
X127781648Y-91584171D01*
X127803781Y-91554972D01*
X127823811Y-91547637D01*
X127824989Y-91546617D01*
X127828797Y-91545811D01*
X127869390Y-91530947D01*
X127937573Y-91546207D01*
G37*
%TD.AperFunction*%
%TA.AperFunction,Conductor*%
G36*
X135026061Y-90011122D02*
G01*
X135038397Y-90014744D01*
X135041880Y-90015501D01*
X135103199Y-90048980D01*
X135103203Y-90048984D01*
X135111761Y-90064655D01*
X135130391Y-90078262D01*
X135132742Y-90080022D01*
X135139183Y-90084964D01*
X135139188Y-90084969D01*
X135151127Y-90091862D01*
X135218301Y-90130646D01*
X135219082Y-90131106D01*
X135219112Y-90131114D01*
X135308256Y-90155000D01*
X135308258Y-90155000D01*
X135898842Y-90155000D01*
X135898844Y-90155000D01*
X135987988Y-90131114D01*
X135999442Y-90124501D01*
X136067912Y-90084970D01*
X136108829Y-90044051D01*
X136116683Y-90038337D01*
X136127803Y-90034360D01*
X136144692Y-90023536D01*
X136144626Y-90023391D01*
X136145638Y-90022930D01*
X136146611Y-90022307D01*
X136148727Y-90021524D01*
X136149205Y-90021262D01*
X136149424Y-90021206D01*
X136152828Y-90019658D01*
X136153105Y-90020267D01*
X136208624Y-90006100D01*
X140881152Y-90006100D01*
X140916084Y-90011121D01*
X140929403Y-90015032D01*
X140988181Y-90052806D01*
X141017206Y-90116360D01*
X141018640Y-90126332D01*
X141018841Y-90160178D01*
X141018400Y-90163525D01*
X141018400Y-90221626D01*
X141013376Y-90256563D01*
X141005964Y-90281804D01*
X140974669Y-90334548D01*
X139808044Y-91501173D01*
X139779793Y-91522322D01*
X139756705Y-91534930D01*
X139697275Y-91550100D01*
X131909330Y-91550100D01*
X131874389Y-91545075D01*
X131859390Y-91540670D01*
X131800644Y-91502927D01*
X131799457Y-91501558D01*
X131771977Y-91446683D01*
X131770332Y-91439121D01*
X131767500Y-91412768D01*
X131767500Y-90905000D01*
X131519330Y-90905000D01*
X131476599Y-90895927D01*
X131470161Y-90895467D01*
X131468106Y-90893929D01*
X131464452Y-90892304D01*
X131464822Y-90891470D01*
X131414230Y-90853592D01*
X131389818Y-90788126D01*
X131404675Y-90719854D01*
X131454084Y-90670452D01*
X131487154Y-90658121D01*
X131488483Y-90657832D01*
X131514832Y-90655000D01*
X131767500Y-90655000D01*
X131767500Y-90147929D01*
X131772523Y-90112993D01*
X131776927Y-90097995D01*
X131814672Y-90039244D01*
X131816041Y-90038057D01*
X131870920Y-90010577D01*
X131878479Y-90008933D01*
X131904832Y-90006100D01*
X134991128Y-90006100D01*
X135026061Y-90011122D01*
G37*
%TD.AperFunction*%
%TA.AperFunction,Conductor*%
G36*
X132170106Y-81705523D02*
G01*
X132185104Y-81709927D01*
X132243855Y-81747672D01*
X132245042Y-81749041D01*
X132264909Y-81792507D01*
X132268364Y-81791412D01*
X132271196Y-81800340D01*
X132272582Y-81809294D01*
X132274087Y-81812587D01*
X132273608Y-81815923D01*
X132277000Y-81837832D01*
X132277000Y-81997614D01*
X132277002Y-81997638D01*
X132279528Y-82019425D01*
X132279769Y-82021499D01*
X132279901Y-82021944D01*
X132280972Y-82024220D01*
X132285119Y-82033614D01*
X132294631Y-82067591D01*
X132297925Y-82092744D01*
X132288410Y-82158930D01*
X132279769Y-82178499D01*
X132279199Y-82181202D01*
X132278944Y-82185620D01*
X132277001Y-82202369D01*
X132277000Y-82202375D01*
X132277000Y-82497615D01*
X132277002Y-82497638D01*
X132279768Y-82521494D01*
X132279769Y-82521500D01*
X132279901Y-82521944D01*
X132280972Y-82524220D01*
X132285119Y-82533614D01*
X132294631Y-82567591D01*
X132297925Y-82592744D01*
X132288410Y-82658930D01*
X132279769Y-82678499D01*
X132279199Y-82681202D01*
X132278944Y-82685620D01*
X132277000Y-82702372D01*
X132277000Y-82997624D01*
X132279769Y-83021500D01*
X132279901Y-83021944D01*
X132280972Y-83024220D01*
X132285119Y-83033614D01*
X132294631Y-83067591D01*
X132297925Y-83092744D01*
X132288410Y-83158930D01*
X132279769Y-83178499D01*
X132279199Y-83181202D01*
X132278944Y-83185620D01*
X132277000Y-83202372D01*
X132277000Y-83497624D01*
X132277002Y-83497638D01*
X132279252Y-83517047D01*
X132279769Y-83521500D01*
X132279901Y-83521944D01*
X132280972Y-83524220D01*
X132285119Y-83533614D01*
X132294631Y-83567591D01*
X132297925Y-83592744D01*
X132288410Y-83658930D01*
X132279769Y-83678499D01*
X132279199Y-83681202D01*
X132278944Y-83685620D01*
X132277000Y-83702372D01*
X132277000Y-83997624D01*
X132279769Y-84021500D01*
X132279901Y-84021944D01*
X132280972Y-84024220D01*
X132285119Y-84033614D01*
X132294631Y-84067591D01*
X132297925Y-84092744D01*
X132288410Y-84158930D01*
X132279769Y-84178499D01*
X132279199Y-84181202D01*
X132278944Y-84185620D01*
X132277218Y-84200500D01*
X132277000Y-84202375D01*
X132277000Y-84497615D01*
X132277002Y-84497638D01*
X132279768Y-84521494D01*
X132279769Y-84521500D01*
X132279901Y-84521944D01*
X132280970Y-84524216D01*
X132281478Y-84525367D01*
X132285119Y-84533614D01*
X132294631Y-84567591D01*
X132297925Y-84592744D01*
X132288410Y-84658930D01*
X132279769Y-84678499D01*
X132279199Y-84681202D01*
X132278944Y-84685620D01*
X132277001Y-84702368D01*
X132277000Y-84702375D01*
X132277000Y-84997615D01*
X132277001Y-84997623D01*
X132277000Y-84997623D01*
X132279769Y-85021500D01*
X132279901Y-85021944D01*
X132280972Y-85024220D01*
X132285119Y-85033614D01*
X132294631Y-85067591D01*
X132297925Y-85092744D01*
X132288410Y-85158930D01*
X132279769Y-85178499D01*
X132279199Y-85181202D01*
X132278944Y-85185620D01*
X132277000Y-85202372D01*
X132277000Y-85497628D01*
X132279768Y-85521494D01*
X132279769Y-85521499D01*
X132281536Y-85525499D01*
X132281540Y-85525508D01*
X132285117Y-85533610D01*
X132294631Y-85567591D01*
X132297925Y-85592744D01*
X132288410Y-85658930D01*
X132279769Y-85678499D01*
X132279199Y-85681202D01*
X132278944Y-85685620D01*
X132277000Y-85702372D01*
X132277000Y-85997627D01*
X132279022Y-86015059D01*
X132279768Y-86021494D01*
X132283470Y-86029878D01*
X132283478Y-86029895D01*
X132285123Y-86033622D01*
X132294631Y-86067591D01*
X132297925Y-86092744D01*
X132288410Y-86158930D01*
X132279769Y-86178499D01*
X132279199Y-86181202D01*
X132278944Y-86185620D01*
X132277000Y-86202372D01*
X132277000Y-86497624D01*
X132279769Y-86521500D01*
X132279901Y-86521944D01*
X132280972Y-86524220D01*
X132285119Y-86533614D01*
X132294631Y-86567591D01*
X132297925Y-86592744D01*
X132288410Y-86658930D01*
X132279769Y-86678499D01*
X132279199Y-86681202D01*
X132278944Y-86685620D01*
X132277000Y-86702372D01*
X132277000Y-86997624D01*
X132279769Y-87021500D01*
X132279901Y-87021944D01*
X132280972Y-87024220D01*
X132285119Y-87033614D01*
X132294631Y-87067591D01*
X132297925Y-87092744D01*
X132288410Y-87158930D01*
X132279769Y-87178499D01*
X132279199Y-87181202D01*
X132278944Y-87185620D01*
X132277000Y-87202372D01*
X132277000Y-87497627D01*
X132278151Y-87507547D01*
X132279768Y-87521494D01*
X132283470Y-87529878D01*
X132283478Y-87529895D01*
X132285123Y-87533622D01*
X132294631Y-87567591D01*
X132297925Y-87592744D01*
X132288410Y-87658930D01*
X132279769Y-87678499D01*
X132279199Y-87681202D01*
X132278944Y-87685620D01*
X132277000Y-87702372D01*
X132277000Y-87997625D01*
X132277001Y-87997628D01*
X132277002Y-87997638D01*
X132279768Y-88021494D01*
X132280377Y-88022873D01*
X132280383Y-88022886D01*
X132285118Y-88033611D01*
X132294631Y-88067591D01*
X132297925Y-88092744D01*
X132288410Y-88158930D01*
X132279769Y-88178499D01*
X132279199Y-88181202D01*
X132278944Y-88185620D01*
X132277000Y-88202372D01*
X132277000Y-88497619D01*
X132277003Y-88497651D01*
X132277768Y-88504249D01*
X132277769Y-88504253D01*
X132279769Y-88521495D01*
X132279769Y-88521497D01*
X132279770Y-88521498D01*
X132288199Y-88540589D01*
X132291318Y-88551453D01*
X132291293Y-88555409D01*
X132295081Y-88569561D01*
X132298198Y-88593360D01*
X132288683Y-88659549D01*
X132280265Y-88678613D01*
X132280262Y-88678626D01*
X132277501Y-88702423D01*
X132277500Y-88702439D01*
X132277500Y-88702440D01*
X132277500Y-88725000D01*
X132428077Y-88725000D01*
X132458953Y-88732730D01*
X132477177Y-88733914D01*
X132484098Y-88739024D01*
X132486503Y-88739627D01*
X132490247Y-88741627D01*
X132489504Y-88743017D01*
X132533382Y-88775419D01*
X132558226Y-88840723D01*
X132543820Y-88909092D01*
X132494738Y-88958818D01*
X132461750Y-88971367D01*
X132458962Y-88971992D01*
X132431821Y-88975000D01*
X132277500Y-88975000D01*
X132277500Y-88997559D01*
X132280264Y-89021381D01*
X132280264Y-89021383D01*
X132311671Y-89092512D01*
X132313062Y-89096316D01*
X132313093Y-89096798D01*
X132314498Y-89100469D01*
X132327620Y-89140735D01*
X132329676Y-89210575D01*
X132293647Y-89270439D01*
X132237877Y-89299917D01*
X132229539Y-89301861D01*
X132201384Y-89305100D01*
X131975230Y-89305100D01*
X131940289Y-89300075D01*
X131925290Y-89295670D01*
X131866544Y-89257927D01*
X131865357Y-89256558D01*
X131837877Y-89201683D01*
X131836232Y-89194121D01*
X131833400Y-89167768D01*
X131833400Y-81842329D01*
X131838423Y-81807393D01*
X131841145Y-81798125D01*
X131842827Y-81792394D01*
X131880572Y-81733644D01*
X131881941Y-81732457D01*
X131936820Y-81704977D01*
X131944379Y-81703333D01*
X131970732Y-81700500D01*
X132135170Y-81700500D01*
X132170106Y-81705523D01*
G37*
%TD.AperFunction*%
%TA.AperFunction,Conductor*%
G36*
X161417606Y-61518023D02*
G01*
X161432604Y-61522427D01*
X161491355Y-61560172D01*
X161492542Y-61561541D01*
X161520018Y-61616402D01*
X161521663Y-61623960D01*
X161524500Y-61650331D01*
X161524500Y-64012805D01*
X161519476Y-64047743D01*
X161516289Y-64058596D01*
X161478514Y-64117373D01*
X161414957Y-64146396D01*
X161345819Y-64136460D01*
X161342720Y-64135045D01*
X161294952Y-64096555D01*
X161271834Y-64065673D01*
X161271829Y-64065667D01*
X161171373Y-63990467D01*
X161171372Y-63990466D01*
X161158646Y-63980940D01*
X161158056Y-63980498D01*
X161158054Y-63980497D01*
X161029351Y-63932492D01*
X161027559Y-63931761D01*
X161027125Y-63931415D01*
X161026825Y-63931284D01*
X161022938Y-63930367D01*
X161018274Y-63930117D01*
X161000608Y-63928217D01*
X160966029Y-63924500D01*
X160966019Y-63924500D01*
X160383982Y-63924500D01*
X160383956Y-63924501D01*
X160383667Y-63924533D01*
X160325105Y-63930828D01*
X160191947Y-63980495D01*
X160191944Y-63980497D01*
X160078169Y-64065669D01*
X159992999Y-64179440D01*
X159992998Y-64179443D01*
X159943328Y-64312612D01*
X159943327Y-64312615D01*
X159943326Y-64312619D01*
X159937000Y-64371453D01*
X159937000Y-65378517D01*
X159937001Y-65378526D01*
X159937000Y-65378528D01*
X159937190Y-65381952D01*
X159936387Y-65381996D01*
X159931450Y-65409931D01*
X159941544Y-65429843D01*
X159943326Y-65437388D01*
X159982464Y-65542314D01*
X159982464Y-65542315D01*
X159992997Y-65570555D01*
X160011654Y-65595477D01*
X160078169Y-65684331D01*
X160191946Y-65769503D01*
X160214634Y-65777965D01*
X160245597Y-65794871D01*
X160258121Y-65804246D01*
X160299990Y-65860175D01*
X160299991Y-65860179D01*
X160304182Y-65871416D01*
X160312000Y-65914748D01*
X160312000Y-70444717D01*
X160306975Y-70479661D01*
X160302570Y-70494659D01*
X160264798Y-70553428D01*
X160255734Y-70561282D01*
X160217865Y-70583751D01*
X160157669Y-70606202D01*
X160157668Y-70606203D01*
X160157665Y-70606205D01*
X160042456Y-70692450D01*
X160042450Y-70692456D01*
X159956205Y-70807665D01*
X159956203Y-70807668D01*
X159905907Y-70942516D01*
X159901843Y-70980324D01*
X159900266Y-70995000D01*
X159900266Y-70995004D01*
X159900265Y-70995003D01*
X159899500Y-71002122D01*
X159899500Y-71997876D01*
X159899659Y-71999806D01*
X159899885Y-72001454D01*
X159905907Y-72057482D01*
X159913705Y-72078388D01*
X159956202Y-72192328D01*
X159956206Y-72192335D01*
X159988691Y-72235729D01*
X160042450Y-72307542D01*
X160042456Y-72307548D01*
X160068454Y-72327010D01*
X160157664Y-72393793D01*
X160157671Y-72393797D01*
X160172956Y-72399498D01*
X160172961Y-72399501D01*
X160172962Y-72399500D01*
X160292517Y-72444091D01*
X160352127Y-72450500D01*
X160972872Y-72450499D01*
X161032483Y-72444091D01*
X161167331Y-72393796D01*
X161282546Y-72307546D01*
X161290547Y-72296858D01*
X161315501Y-72271901D01*
X161319093Y-72269212D01*
X161324555Y-72265123D01*
X161390016Y-72240703D01*
X161458290Y-72255552D01*
X161507697Y-72304953D01*
X161509333Y-72307948D01*
X161524500Y-72367374D01*
X161524500Y-101895170D01*
X161519475Y-101930114D01*
X161515070Y-101945112D01*
X161477327Y-102003855D01*
X161475958Y-102005042D01*
X161421097Y-102032518D01*
X161413539Y-102034163D01*
X161387168Y-102037000D01*
X107642330Y-102037000D01*
X107607389Y-102031975D01*
X107592390Y-102027570D01*
X107533644Y-101989827D01*
X107532457Y-101988458D01*
X107504977Y-101933583D01*
X107503332Y-101926021D01*
X107500500Y-101899668D01*
X107500500Y-98154554D01*
X116525000Y-98154554D01*
X116525000Y-98154571D01*
X116525000Y-98300000D01*
X117125000Y-98300000D01*
X117375000Y-98300000D01*
X117974999Y-98300000D01*
X117974999Y-98154559D01*
X117974839Y-98152630D01*
X117974613Y-98150978D01*
X117968918Y-98097993D01*
X117968915Y-98097985D01*
X117921186Y-97970018D01*
X117921184Y-97970015D01*
X117839329Y-97860670D01*
X117737080Y-97784127D01*
X117733722Y-97781217D01*
X117729984Y-97778815D01*
X117729983Y-97778814D01*
X117632952Y-97742623D01*
X117602013Y-97731084D01*
X117602011Y-97731083D01*
X117602010Y-97731083D01*
X117602009Y-97731082D01*
X117602006Y-97731082D01*
X117545444Y-97725000D01*
X117545428Y-97725000D01*
X117375000Y-97725000D01*
X117375000Y-98300000D01*
X117125000Y-98300000D01*
X117125000Y-97725000D01*
X116954568Y-97725000D01*
X116954566Y-97725000D01*
X116954564Y-97725000D01*
X116953859Y-97725050D01*
X116952415Y-97725231D01*
X116897992Y-97731080D01*
X116795940Y-97769144D01*
X116770018Y-97778813D01*
X116770017Y-97778813D01*
X116770016Y-97778814D01*
X116660669Y-97860670D01*
X116584126Y-97962919D01*
X116581218Y-97966274D01*
X116578814Y-97970016D01*
X116531084Y-98097985D01*
X116531082Y-98097992D01*
X116525000Y-98154554D01*
X107500500Y-98154554D01*
X107500500Y-93454554D01*
X119425000Y-93454554D01*
X119425000Y-93454571D01*
X119425000Y-93600000D01*
X120025000Y-93600000D01*
X120275000Y-93600000D01*
X120874999Y-93600000D01*
X120874999Y-93454559D01*
X120874839Y-93452630D01*
X120874613Y-93450978D01*
X120870386Y-93411648D01*
X120868918Y-93397992D01*
X120821186Y-93270018D01*
X120821184Y-93270015D01*
X120739329Y-93160670D01*
X120637080Y-93084127D01*
X120633722Y-93081217D01*
X120629984Y-93078815D01*
X120629983Y-93078814D01*
X120502010Y-93031083D01*
X120502009Y-93031082D01*
X120502006Y-93031082D01*
X120445444Y-93025000D01*
X120445428Y-93025000D01*
X120275000Y-93025000D01*
X120275000Y-93600000D01*
X120025000Y-93600000D01*
X120025000Y-93025000D01*
X119854568Y-93025000D01*
X119854566Y-93025000D01*
X119854564Y-93025000D01*
X119853859Y-93025050D01*
X119852415Y-93025231D01*
X119797992Y-93031080D01*
X119695940Y-93069144D01*
X119670018Y-93078813D01*
X119670017Y-93078813D01*
X119670016Y-93078814D01*
X119560669Y-93160670D01*
X119484126Y-93262919D01*
X119481218Y-93266274D01*
X119478814Y-93270016D01*
X119431084Y-93397985D01*
X119431082Y-93397992D01*
X119425000Y-93454554D01*
X107500500Y-93454554D01*
X107500500Y-89378225D01*
X107857800Y-89378225D01*
X107857800Y-89523175D01*
X107875128Y-89587842D01*
X107880490Y-89607853D01*
X107895318Y-89663192D01*
X107965931Y-89785495D01*
X107967789Y-89788713D01*
X108070285Y-89891209D01*
X108070974Y-89891705D01*
X108073478Y-89893053D01*
X108192369Y-89961695D01*
X108195387Y-89963569D01*
X108195814Y-89963683D01*
X108195815Y-89963684D01*
X108335825Y-90001200D01*
X108393926Y-90001200D01*
X108428858Y-90006221D01*
X108454102Y-90013634D01*
X108506848Y-90044930D01*
X108929393Y-90467474D01*
X109338463Y-90876544D01*
X110172031Y-91710112D01*
X110237288Y-91775369D01*
X110237291Y-91775370D01*
X110237294Y-91775373D01*
X110237319Y-91775387D01*
X110238860Y-91776340D01*
X110238892Y-91776359D01*
X110245536Y-91780466D01*
X110248151Y-91781641D01*
X110317206Y-91821511D01*
X110317207Y-91821511D01*
X110317212Y-91821514D01*
X110406356Y-91845400D01*
X110406358Y-91845400D01*
X116113742Y-91845400D01*
X116113744Y-91845400D01*
X116202888Y-91821514D01*
X116219214Y-91812088D01*
X116282812Y-91775370D01*
X116592578Y-91465601D01*
X116620833Y-91444452D01*
X116638214Y-91434962D01*
X116698739Y-91419801D01*
X116709627Y-91419898D01*
X116709627Y-91419897D01*
X116720320Y-91419993D01*
X116732472Y-91420699D01*
X116737040Y-91421190D01*
X116777127Y-91425500D01*
X117397872Y-91425499D01*
X117457483Y-91419091D01*
X117592331Y-91368796D01*
X117707546Y-91282546D01*
X117793796Y-91167331D01*
X117844091Y-91032483D01*
X117850500Y-90972873D01*
X117850499Y-89977128D01*
X117844091Y-89917517D01*
X117836264Y-89896533D01*
X117828764Y-89862050D01*
X117828198Y-89854140D01*
X117827774Y-89848205D01*
X117842626Y-89779933D01*
X117892030Y-89730529D01*
X117894070Y-89729415D01*
X117897285Y-89727661D01*
X117956699Y-89712500D01*
X119331327Y-89712500D01*
X119366259Y-89717521D01*
X119379578Y-89721432D01*
X119438356Y-89759206D01*
X119467381Y-89822759D01*
X119468223Y-89828614D01*
X119465081Y-89879022D01*
X119457038Y-89908386D01*
X119455340Y-89919165D01*
X119429200Y-90016723D01*
X119429200Y-90016725D01*
X119429200Y-90161675D01*
X119463804Y-90290818D01*
X119464245Y-90292462D01*
X119466717Y-90301687D01*
X119466719Y-90301692D01*
X119537331Y-90423995D01*
X119539189Y-90427213D01*
X119641685Y-90529709D01*
X119642374Y-90530205D01*
X119644878Y-90531553D01*
X119763769Y-90600195D01*
X119766787Y-90602069D01*
X119767214Y-90602183D01*
X119767215Y-90602184D01*
X119907225Y-90639700D01*
X119907228Y-90639700D01*
X120052172Y-90639700D01*
X120052175Y-90639700D01*
X120192185Y-90602184D01*
X120317715Y-90529709D01*
X120358799Y-90488624D01*
X120387050Y-90467475D01*
X120410142Y-90454867D01*
X120469567Y-90439700D01*
X122737842Y-90439700D01*
X122737844Y-90439700D01*
X122826988Y-90415814D01*
X122858679Y-90397517D01*
X122906912Y-90369670D01*
X123262716Y-90013864D01*
X123290964Y-89992718D01*
X123300893Y-89987296D01*
X123369165Y-89972445D01*
X123434629Y-89996862D01*
X123476499Y-90052790D01*
X123479113Y-90059799D01*
X123479180Y-90059977D01*
X123487000Y-90103316D01*
X123487000Y-91567619D01*
X123487003Y-91567651D01*
X123487114Y-91568606D01*
X123489769Y-91591495D01*
X123489769Y-91591498D01*
X123532880Y-91689135D01*
X123532883Y-91689139D01*
X123532884Y-91689141D01*
X123608359Y-91764616D01*
X123608361Y-91764616D01*
X123609629Y-91765401D01*
X123613688Y-91766969D01*
X123681225Y-91796790D01*
X123703297Y-91806536D01*
X123706964Y-91808155D01*
X123707384Y-91808223D01*
X123713111Y-91808554D01*
X123729877Y-91810500D01*
X123872427Y-91810499D01*
X123907349Y-91815518D01*
X123918207Y-91818706D01*
X123976985Y-91856475D01*
X124006015Y-91920028D01*
X123996076Y-91989187D01*
X123996074Y-91989192D01*
X123992888Y-91996169D01*
X123967773Y-92032342D01*
X121124544Y-94875573D01*
X121096293Y-94896722D01*
X121073205Y-94909330D01*
X121013775Y-94924500D01*
X120964613Y-94924500D01*
X120929672Y-94919475D01*
X120914673Y-94915070D01*
X120855906Y-94877304D01*
X120852279Y-94873119D01*
X120848049Y-94868238D01*
X120825577Y-94830363D01*
X120821628Y-94819774D01*
X120806886Y-94800081D01*
X120739688Y-94710314D01*
X120724574Y-94699000D01*
X120630226Y-94628372D01*
X120630225Y-94628371D01*
X120613529Y-94622144D01*
X120582553Y-94605229D01*
X120573499Y-94598451D01*
X120531628Y-94542516D01*
X120526645Y-94472825D01*
X120560128Y-94411506D01*
X120563812Y-94407822D01*
X120608155Y-94379326D01*
X120629983Y-94371185D01*
X120629984Y-94371184D01*
X120630002Y-94371170D01*
X120633726Y-94368777D01*
X120637081Y-94365871D01*
X120660963Y-94347993D01*
X120739329Y-94289329D01*
X120821184Y-94179984D01*
X120821185Y-94179983D01*
X120868916Y-94052010D01*
X120874596Y-93999173D01*
X120875000Y-93998006D01*
X120875000Y-93850000D01*
X119425001Y-93850000D01*
X119425001Y-93995445D01*
X119431080Y-94052006D01*
X119438220Y-94071148D01*
X119478813Y-94179981D01*
X119478815Y-94179984D01*
X119560670Y-94289329D01*
X119670015Y-94371184D01*
X119670020Y-94371187D01*
X119686461Y-94377319D01*
X119717438Y-94394232D01*
X119726493Y-94401010D01*
X119768366Y-94456942D01*
X119773353Y-94526634D01*
X119739879Y-94587949D01*
X119736202Y-94591627D01*
X119691842Y-94620140D01*
X119669774Y-94628370D01*
X119669767Y-94628374D01*
X119560315Y-94710311D01*
X119560314Y-94710312D01*
X119560313Y-94710313D01*
X119559645Y-94711206D01*
X119478374Y-94819768D01*
X119478373Y-94819771D01*
X119449672Y-94896722D01*
X119430587Y-94947890D01*
X119430585Y-94947896D01*
X119424500Y-95004489D01*
X119424500Y-95004498D01*
X119424500Y-95545481D01*
X119424501Y-95545490D01*
X119430587Y-95602114D01*
X119450500Y-95655500D01*
X119464070Y-95691881D01*
X119478372Y-95730227D01*
X119539712Y-95812168D01*
X119560313Y-95839687D01*
X119669774Y-95921628D01*
X119669773Y-95921628D01*
X119712847Y-95937694D01*
X119722653Y-95943585D01*
X119725094Y-95946236D01*
X119733102Y-95950609D01*
X119745617Y-95959977D01*
X119787490Y-96015909D01*
X119791682Y-96027149D01*
X119799500Y-96070480D01*
X119799500Y-99482670D01*
X119794475Y-99517612D01*
X119793456Y-99521082D01*
X119790070Y-99532612D01*
X119752327Y-99591355D01*
X119750958Y-99592542D01*
X119696097Y-99620018D01*
X119688539Y-99621663D01*
X119662168Y-99624500D01*
X118064613Y-99624500D01*
X118029672Y-99619475D01*
X118014673Y-99615070D01*
X117955906Y-99577304D01*
X117952279Y-99573119D01*
X117948049Y-99568238D01*
X117925577Y-99530363D01*
X117921628Y-99519774D01*
X117920011Y-99517614D01*
X117839688Y-99410314D01*
X117802368Y-99382377D01*
X117730226Y-99328372D01*
X117725084Y-99326454D01*
X117715401Y-99322842D01*
X117715402Y-99322838D01*
X117715382Y-99322835D01*
X117713509Y-99322136D01*
X117682553Y-99305229D01*
X117673499Y-99298451D01*
X117631628Y-99242516D01*
X117626645Y-99172825D01*
X117660128Y-99111506D01*
X117663812Y-99107822D01*
X117708155Y-99079326D01*
X117729983Y-99071185D01*
X117729984Y-99071184D01*
X117730002Y-99071170D01*
X117733726Y-99068777D01*
X117737081Y-99065871D01*
X117839329Y-98989329D01*
X117921184Y-98879984D01*
X117921185Y-98879983D01*
X117968916Y-98752010D01*
X117974596Y-98699173D01*
X117975000Y-98698006D01*
X117975000Y-98550000D01*
X116525001Y-98550000D01*
X116525001Y-98695445D01*
X116531080Y-98752006D01*
X116547559Y-98796186D01*
X116578813Y-98879981D01*
X116578815Y-98879984D01*
X116660670Y-98989329D01*
X116770015Y-99071184D01*
X116770020Y-99071187D01*
X116786461Y-99077319D01*
X116817438Y-99094232D01*
X116826493Y-99101010D01*
X116868366Y-99156942D01*
X116873353Y-99226634D01*
X116839879Y-99287949D01*
X116836202Y-99291627D01*
X116791842Y-99320140D01*
X116769774Y-99328370D01*
X116769767Y-99328374D01*
X116660315Y-99410311D01*
X116660314Y-99410312D01*
X116660313Y-99410313D01*
X116636753Y-99441785D01*
X116578374Y-99519768D01*
X116569389Y-99543857D01*
X116530590Y-99647883D01*
X116530587Y-99647890D01*
X116530585Y-99647896D01*
X116524500Y-99704489D01*
X116524500Y-99704498D01*
X116524500Y-100245481D01*
X116524501Y-100245490D01*
X116530587Y-100302114D01*
X116566348Y-100397989D01*
X116568400Y-100403491D01*
X116568401Y-100403494D01*
X116578372Y-100430227D01*
X116619342Y-100484956D01*
X116660313Y-100539687D01*
X116769774Y-100621628D01*
X116897886Y-100669412D01*
X116954515Y-100675500D01*
X117545484Y-100675499D01*
X117602114Y-100669412D01*
X117730226Y-100621628D01*
X117839687Y-100539687D01*
X117921628Y-100430226D01*
X117924371Y-100422870D01*
X117941286Y-100391890D01*
X117950658Y-100379371D01*
X118006587Y-100337509D01*
X118017827Y-100333317D01*
X118061158Y-100325500D01*
X121157670Y-100325500D01*
X121192606Y-100330523D01*
X121207604Y-100334927D01*
X121266355Y-100372672D01*
X121267542Y-100374041D01*
X121295018Y-100428902D01*
X121296663Y-100436460D01*
X121299500Y-100462831D01*
X121299500Y-101147876D01*
X121299659Y-101149806D01*
X121299885Y-101151454D01*
X121305907Y-101207482D01*
X121333690Y-101281971D01*
X121356202Y-101342328D01*
X121356203Y-101342330D01*
X121356204Y-101342332D01*
X121356205Y-101342333D01*
X121442450Y-101457542D01*
X121442452Y-101457544D01*
X121442455Y-101457547D01*
X121557664Y-101543793D01*
X121557671Y-101543797D01*
X121692517Y-101594091D01*
X121692516Y-101594091D01*
X121699444Y-101594835D01*
X121752127Y-101600500D01*
X123147872Y-101600499D01*
X123207483Y-101594091D01*
X123342331Y-101543796D01*
X123457546Y-101457546D01*
X123543796Y-101342331D01*
X123594091Y-101207483D01*
X123600500Y-101147873D01*
X123600499Y-100402128D01*
X123594091Y-100342517D01*
X123557902Y-100245490D01*
X123543797Y-100207671D01*
X123543793Y-100207664D01*
X123457547Y-100092455D01*
X123457544Y-100092452D01*
X123457542Y-100092450D01*
X123399616Y-100049086D01*
X123342335Y-100006206D01*
X123342332Y-100006204D01*
X123342330Y-100006203D01*
X123342328Y-100006202D01*
X123207482Y-99955908D01*
X123207483Y-99955908D01*
X123147883Y-99949501D01*
X123147881Y-99949500D01*
X123147873Y-99949500D01*
X123147865Y-99949500D01*
X123146841Y-99949500D01*
X122189374Y-99949500D01*
X122154438Y-99944477D01*
X122129196Y-99937065D01*
X122076451Y-99905769D01*
X121865221Y-99694538D01*
X121865214Y-99694532D01*
X121865208Y-99694527D01*
X121865207Y-99694526D01*
X121813950Y-99664933D01*
X121813947Y-99664932D01*
X121785290Y-99648387D01*
X121785285Y-99648385D01*
X121783415Y-99647884D01*
X121783415Y-99647883D01*
X121712938Y-99629000D01*
X121708358Y-99627772D01*
X121708353Y-99627771D01*
X121704057Y-99626620D01*
X121696144Y-99624500D01*
X121696143Y-99624500D01*
X121696141Y-99624500D01*
X120642330Y-99624500D01*
X120607389Y-99619475D01*
X120592390Y-99615070D01*
X120533644Y-99577327D01*
X120532457Y-99575958D01*
X120504977Y-99521083D01*
X120503332Y-99513521D01*
X120500500Y-99487168D01*
X120500500Y-98197852D01*
X121300000Y-98197852D01*
X121306400Y-98257370D01*
X121306401Y-98257372D01*
X121306403Y-98257379D01*
X121356645Y-98392086D01*
X121356649Y-98392093D01*
X121377907Y-98420490D01*
X121442807Y-98507185D01*
X121442809Y-98507187D01*
X121442812Y-98507190D01*
X121557906Y-98593350D01*
X121557913Y-98593354D01*
X121692620Y-98643596D01*
X121692627Y-98643598D01*
X121699468Y-98644333D01*
X121752138Y-98649998D01*
X121752155Y-98649999D01*
X121752172Y-98650000D01*
X122325000Y-98650000D01*
X122575000Y-98650000D01*
X123147828Y-98650000D01*
X123147836Y-98650000D01*
X123147847Y-98649999D01*
X123183560Y-98646158D01*
X123207372Y-98643598D01*
X123207379Y-98643596D01*
X123342086Y-98593354D01*
X123342093Y-98593350D01*
X123457187Y-98507190D01*
X123457190Y-98507187D01*
X123543350Y-98392093D01*
X123543354Y-98392086D01*
X123593596Y-98257379D01*
X123593598Y-98257372D01*
X123595069Y-98243689D01*
X123599998Y-98197860D01*
X123600000Y-98197827D01*
X123600000Y-97950000D01*
X122575000Y-97950000D01*
X122575000Y-98650000D01*
X122325000Y-98650000D01*
X122325000Y-97950000D01*
X121300000Y-97950000D01*
X121300000Y-98197852D01*
X120500500Y-98197852D01*
X120500500Y-97452146D01*
X121300000Y-97452146D01*
X121300000Y-97452155D01*
X121300000Y-97700000D01*
X122325000Y-97700000D01*
X122575000Y-97700000D01*
X123600000Y-97700000D01*
X123600000Y-97452172D01*
X123599999Y-97452155D01*
X123599998Y-97452146D01*
X123599998Y-97452138D01*
X123594333Y-97399468D01*
X123593598Y-97392627D01*
X123593596Y-97392620D01*
X123543354Y-97257913D01*
X123543350Y-97257906D01*
X123457190Y-97142812D01*
X123457187Y-97142809D01*
X123457185Y-97142807D01*
X123342089Y-97056646D01*
X123207377Y-97006402D01*
X123207370Y-97006400D01*
X123147852Y-97000000D01*
X123147844Y-97000000D01*
X122575000Y-97000000D01*
X122575000Y-97700000D01*
X122325000Y-97700000D01*
X122325000Y-97000000D01*
X121752146Y-97000000D01*
X121692628Y-97006400D01*
X121692621Y-97006402D01*
X121557909Y-97056646D01*
X121442813Y-97142807D01*
X121442807Y-97142813D01*
X121356648Y-97257907D01*
X121356646Y-97257910D01*
X121306402Y-97392621D01*
X121306400Y-97392628D01*
X121300000Y-97452146D01*
X120500500Y-97452146D01*
X120500500Y-96073937D01*
X120505523Y-96039001D01*
X120509927Y-96024003D01*
X120547695Y-95965232D01*
X120553759Y-95959977D01*
X120556761Y-95957374D01*
X120594625Y-95934906D01*
X120603039Y-95931768D01*
X120630226Y-95921628D01*
X120739687Y-95839687D01*
X120821628Y-95730226D01*
X120824371Y-95722870D01*
X120841286Y-95691890D01*
X120850658Y-95679371D01*
X120906587Y-95637509D01*
X120917827Y-95633317D01*
X120961158Y-95625500D01*
X121266942Y-95625500D01*
X121266944Y-95625500D01*
X121356088Y-95601614D01*
X121360969Y-95598796D01*
X121436012Y-95555470D01*
X124192839Y-92798643D01*
X125132559Y-91858923D01*
X125160809Y-91837775D01*
X125181119Y-91826685D01*
X125183901Y-91825167D01*
X125243326Y-91810000D01*
X125252500Y-91810000D01*
X125252500Y-91664310D01*
X125261776Y-91617253D01*
X125262185Y-91616253D01*
X125262338Y-91614290D01*
X125263762Y-91612410D01*
X125263776Y-91612377D01*
X125263784Y-91612380D01*
X125304538Y-91558604D01*
X125370146Y-91534574D01*
X125438330Y-91549828D01*
X125487443Y-91599524D01*
X125499582Y-91632665D01*
X125499820Y-91633791D01*
X125502500Y-91659434D01*
X125502500Y-91810000D01*
X125523196Y-91810000D01*
X125525054Y-91810000D01*
X125525059Y-91809999D01*
X125548879Y-91807236D01*
X125569800Y-91797998D01*
X125579648Y-91795462D01*
X125583740Y-91795599D01*
X125594468Y-91792595D01*
X125619632Y-91789300D01*
X125685819Y-91798817D01*
X125706002Y-91807730D01*
X125729877Y-91810500D01*
X126025122Y-91810499D01*
X126031240Y-91809789D01*
X126041902Y-91808553D01*
X126041905Y-91808553D01*
X126047616Y-91808223D01*
X126048232Y-91808123D01*
X126050911Y-91806885D01*
X126061110Y-91802382D01*
X126095088Y-91792869D01*
X126097188Y-91792594D01*
X126120247Y-91789574D01*
X126186437Y-91799090D01*
X126206002Y-91807730D01*
X126229877Y-91810500D01*
X126525122Y-91810499D01*
X126526397Y-91810351D01*
X126529428Y-91810000D01*
X126529429Y-91809999D01*
X126541897Y-91808553D01*
X126547619Y-91808223D01*
X126548232Y-91808123D01*
X126550872Y-91806902D01*
X126551705Y-91806534D01*
X126616090Y-91796790D01*
X126706116Y-91807234D01*
X126706117Y-91807235D01*
X126706115Y-91807235D01*
X126726896Y-91809645D01*
X126728642Y-91809892D01*
X126729940Y-91810000D01*
X126729946Y-91810000D01*
X126752500Y-91810000D01*
X126752500Y-91664310D01*
X126761776Y-91617253D01*
X126762185Y-91616253D01*
X126762338Y-91614290D01*
X126763762Y-91612410D01*
X126763776Y-91612377D01*
X126763784Y-91612380D01*
X126804538Y-91558604D01*
X126870146Y-91534574D01*
X126938330Y-91549828D01*
X126987443Y-91599524D01*
X126999582Y-91632665D01*
X126999820Y-91633791D01*
X127002500Y-91659434D01*
X127002500Y-91819825D01*
X127011833Y-91836917D01*
X127027000Y-91896343D01*
X127027000Y-92798642D01*
X127050882Y-92887773D01*
X127050887Y-92887790D01*
X127050889Y-92887795D01*
X127097026Y-92967707D01*
X127097027Y-92967708D01*
X127097032Y-92967714D01*
X127097038Y-92967721D01*
X128729028Y-94599710D01*
X128750180Y-94627966D01*
X128757672Y-94641687D01*
X128772524Y-94709947D01*
X128772395Y-94711753D01*
X128753027Y-94769956D01*
X128748846Y-94776462D01*
X128732210Y-94797105D01*
X126178742Y-97350573D01*
X126150491Y-97371722D01*
X126127403Y-97384330D01*
X126067973Y-97399500D01*
X125629518Y-97399500D01*
X125629495Y-97399501D01*
X125629173Y-97399537D01*
X125572882Y-97405587D01*
X125444775Y-97453370D01*
X125444772Y-97453372D01*
X125335313Y-97535313D01*
X125253374Y-97644768D01*
X125253373Y-97644771D01*
X125220498Y-97732913D01*
X125205587Y-97772890D01*
X125205585Y-97772896D01*
X125199500Y-97829489D01*
X125199500Y-97829498D01*
X125199500Y-98420481D01*
X125199501Y-98420490D01*
X125205587Y-98477114D01*
X125240915Y-98571828D01*
X125242979Y-98577362D01*
X125242981Y-98577369D01*
X125253372Y-98605227D01*
X125286888Y-98649999D01*
X125335313Y-98714687D01*
X125385165Y-98752006D01*
X125423176Y-98780460D01*
X125423177Y-98780462D01*
X125444162Y-98796171D01*
X125444163Y-98796171D01*
X125444183Y-98796186D01*
X125444774Y-98796628D01*
X125572886Y-98844412D01*
X125629515Y-98850500D01*
X126170484Y-98850499D01*
X126227114Y-98844412D01*
X126355226Y-98796628D01*
X126464687Y-98714687D01*
X126546628Y-98605226D01*
X126551057Y-98593352D01*
X126552853Y-98588535D01*
X126569771Y-98557549D01*
X126576549Y-98548495D01*
X126632484Y-98506627D01*
X126702175Y-98501645D01*
X126763494Y-98535129D01*
X126767172Y-98538807D01*
X126795673Y-98583155D01*
X126799407Y-98593167D01*
X126803814Y-98604984D01*
X126806215Y-98608719D01*
X126809127Y-98612080D01*
X126885670Y-98714329D01*
X126987922Y-98790874D01*
X126991275Y-98793780D01*
X126995008Y-98796179D01*
X126995015Y-98796184D01*
X126995016Y-98796185D01*
X127097067Y-98834248D01*
X127122993Y-98843918D01*
X127127245Y-98844375D01*
X127179555Y-98849999D01*
X127324999Y-98849999D01*
X127575000Y-98849999D01*
X127720433Y-98849999D01*
X127720439Y-98849999D01*
X127722366Y-98849839D01*
X127724016Y-98849613D01*
X127777007Y-98843918D01*
X127904981Y-98796186D01*
X127904984Y-98796184D01*
X128014329Y-98714329D01*
X128096184Y-98604984D01*
X128096185Y-98604983D01*
X128143916Y-98477010D01*
X128149596Y-98424173D01*
X128150000Y-98423006D01*
X128150000Y-98250000D01*
X127575000Y-98250000D01*
X127575000Y-98849999D01*
X127324999Y-98849999D01*
X127325000Y-98849998D01*
X127325000Y-98000000D01*
X127575000Y-98000000D01*
X128149999Y-98000000D01*
X128149999Y-97829559D01*
X128149839Y-97827630D01*
X128149613Y-97825978D01*
X128143918Y-97772993D01*
X128143880Y-97772890D01*
X128096186Y-97645018D01*
X128096184Y-97645015D01*
X128014329Y-97535670D01*
X127912080Y-97459127D01*
X127908722Y-97456217D01*
X127904984Y-97453815D01*
X127904983Y-97453814D01*
X127777010Y-97406083D01*
X127777009Y-97406082D01*
X127777006Y-97406082D01*
X127720444Y-97400000D01*
X127720428Y-97400000D01*
X127575000Y-97400000D01*
X127575000Y-98000000D01*
X127325000Y-98000000D01*
X127325000Y-97399999D01*
X127323125Y-97398124D01*
X127301977Y-97369874D01*
X127294484Y-97356153D01*
X127279632Y-97287897D01*
X127279761Y-97286090D01*
X127299127Y-97227887D01*
X127303317Y-97221366D01*
X127319941Y-97200738D01*
X129421258Y-95099423D01*
X129449508Y-95078275D01*
X129472600Y-95065667D01*
X129532025Y-95050500D01*
X130901062Y-95050500D01*
X130935998Y-95055523D01*
X130950996Y-95059927D01*
X131009769Y-95097696D01*
X131017623Y-95106759D01*
X131040096Y-95144634D01*
X131053369Y-95180221D01*
X131053370Y-95180222D01*
X131053371Y-95180225D01*
X131070318Y-95202864D01*
X131114951Y-95262486D01*
X131135314Y-95289688D01*
X131223176Y-95355460D01*
X131223177Y-95355462D01*
X131244162Y-95371171D01*
X131244163Y-95371171D01*
X131244183Y-95371186D01*
X131244774Y-95371628D01*
X131372886Y-95419412D01*
X131429515Y-95425500D01*
X131970484Y-95425499D01*
X131970485Y-95425498D01*
X131973807Y-95425321D01*
X131973830Y-95425759D01*
X132004792Y-95426862D01*
X132019172Y-95429457D01*
X132081650Y-95460733D01*
X132116732Y-95518675D01*
X132120080Y-95530877D01*
X132124500Y-95563688D01*
X132124500Y-95935625D01*
X132119476Y-95970562D01*
X132112064Y-95995803D01*
X132080769Y-96048547D01*
X130658707Y-97470608D01*
X130630451Y-97491760D01*
X130616730Y-97499252D01*
X130548459Y-97514103D01*
X130532869Y-97512988D01*
X130498383Y-97505486D01*
X130432493Y-97480911D01*
X130432486Y-97480909D01*
X130432483Y-97480908D01*
X130427357Y-97480277D01*
X130425871Y-97480198D01*
X130372883Y-97474501D01*
X130372881Y-97474500D01*
X130372873Y-97474500D01*
X130372865Y-97474500D01*
X129627123Y-97474500D01*
X129625192Y-97474659D01*
X129623545Y-97474885D01*
X129574121Y-97480198D01*
X129567516Y-97480908D01*
X129442340Y-97527596D01*
X129432666Y-97531204D01*
X129432665Y-97531205D01*
X129317456Y-97617450D01*
X129317450Y-97617456D01*
X129231205Y-97732665D01*
X129231203Y-97732668D01*
X129180907Y-97867516D01*
X129174501Y-97927116D01*
X129174500Y-97927139D01*
X129174500Y-99322876D01*
X129174659Y-99324806D01*
X129174885Y-99326454D01*
X129180907Y-99382482D01*
X129191287Y-99410311D01*
X129231202Y-99517328D01*
X129231206Y-99517335D01*
X129257165Y-99552011D01*
X129317450Y-99632542D01*
X129317452Y-99632544D01*
X129317455Y-99632547D01*
X129432664Y-99718793D01*
X129432671Y-99718797D01*
X129477618Y-99735561D01*
X129567517Y-99769091D01*
X129627127Y-99775500D01*
X130372872Y-99775499D01*
X130432483Y-99769091D01*
X130567331Y-99718796D01*
X130682546Y-99632546D01*
X130768796Y-99517331D01*
X130819091Y-99382483D01*
X130825500Y-99322873D01*
X130825500Y-99322844D01*
X132125000Y-99322844D01*
X132125595Y-99328374D01*
X132131400Y-99382370D01*
X132131402Y-99382377D01*
X132141822Y-99410314D01*
X132181645Y-99517086D01*
X132181649Y-99517093D01*
X132193267Y-99532612D01*
X132267807Y-99632185D01*
X132267813Y-99632191D01*
X132289448Y-99648387D01*
X132382906Y-99718350D01*
X132382913Y-99718354D01*
X132517620Y-99768596D01*
X132517627Y-99768598D01*
X132522212Y-99769091D01*
X132577138Y-99774998D01*
X132577155Y-99774999D01*
X132577172Y-99775000D01*
X132825000Y-99775000D01*
X133075000Y-99775000D01*
X133322828Y-99775000D01*
X133322836Y-99775000D01*
X133322847Y-99774999D01*
X133358560Y-99771158D01*
X133382372Y-99768598D01*
X133382379Y-99768596D01*
X133517086Y-99718354D01*
X133517093Y-99718350D01*
X133632187Y-99632190D01*
X133632190Y-99632187D01*
X133718350Y-99517093D01*
X133718354Y-99517086D01*
X133768596Y-99382379D01*
X133768598Y-99382372D01*
X133770069Y-99368689D01*
X133774998Y-99322860D01*
X133775000Y-99322827D01*
X133775000Y-98750000D01*
X133075000Y-98750000D01*
X133075000Y-99775000D01*
X132825000Y-99775000D01*
X132825000Y-98750000D01*
X132125000Y-98750000D01*
X132125000Y-99322844D01*
X130825500Y-99322844D01*
X130825499Y-98364370D01*
X130830522Y-98329437D01*
X130837933Y-98304197D01*
X130869227Y-98251452D01*
X131193534Y-97927146D01*
X132125000Y-97927146D01*
X132125000Y-97927155D01*
X132125000Y-98500000D01*
X132825000Y-98500000D01*
X133075000Y-98500000D01*
X133775000Y-98500000D01*
X133775000Y-97927172D01*
X133774999Y-97927155D01*
X133774998Y-97927146D01*
X133774998Y-97927138D01*
X133768598Y-97867628D01*
X133768596Y-97867621D01*
X133768596Y-97867620D01*
X133718354Y-97732913D01*
X133718350Y-97732906D01*
X133632190Y-97617812D01*
X133632187Y-97617809D01*
X133632185Y-97617807D01*
X133521987Y-97535313D01*
X133517093Y-97531649D01*
X133517088Y-97531646D01*
X133517089Y-97531646D01*
X133382377Y-97481402D01*
X133382370Y-97481400D01*
X133322852Y-97475000D01*
X133322844Y-97475000D01*
X133075000Y-97475000D01*
X133075000Y-98500000D01*
X132825000Y-98500000D01*
X132825000Y-97475000D01*
X132577146Y-97475000D01*
X132517628Y-97481400D01*
X132517621Y-97481402D01*
X132382910Y-97531646D01*
X132382907Y-97531648D01*
X132267813Y-97617807D01*
X132267807Y-97617813D01*
X132181648Y-97732907D01*
X132181646Y-97732910D01*
X132131402Y-97867621D01*
X132131400Y-97867628D01*
X132125000Y-97927146D01*
X131193534Y-97927146D01*
X132755470Y-96365212D01*
X132801614Y-96285288D01*
X132825500Y-96196143D01*
X132825500Y-96103856D01*
X132825500Y-95564311D01*
X132830522Y-95529379D01*
X132833665Y-95518675D01*
X132834638Y-95515358D01*
X132872411Y-95456581D01*
X132933776Y-95427889D01*
X132946277Y-95425863D01*
X132976224Y-95425065D01*
X132976238Y-95424821D01*
X132979282Y-95424983D01*
X132979394Y-95424981D01*
X132979561Y-95424999D01*
X133124999Y-95424999D01*
X133125000Y-95424998D01*
X133125000Y-94841829D01*
X133127757Y-94822652D01*
X133371369Y-94822652D01*
X133375000Y-94835018D01*
X133375000Y-95424999D01*
X133520433Y-95424999D01*
X133520439Y-95424999D01*
X133522366Y-95424839D01*
X133524016Y-95424613D01*
X133577007Y-95418918D01*
X133704981Y-95371186D01*
X133704984Y-95371184D01*
X133814329Y-95289329D01*
X133896184Y-95179984D01*
X133896185Y-95179983D01*
X133943916Y-95052010D01*
X133949596Y-94999173D01*
X133950000Y-94998006D01*
X133950000Y-94825000D01*
X133379363Y-94825000D01*
X133371369Y-94822652D01*
X133127757Y-94822652D01*
X133130022Y-94806895D01*
X133132023Y-94800079D01*
X133169799Y-94741304D01*
X133233355Y-94712280D01*
X133261363Y-94716307D01*
X133256625Y-94683353D01*
X133285650Y-94619797D01*
X133298065Y-94607370D01*
X133298475Y-94607014D01*
X133353420Y-94579477D01*
X133360979Y-94577833D01*
X133387332Y-94575000D01*
X133949999Y-94575000D01*
X133949999Y-94404559D01*
X133949839Y-94402630D01*
X133949613Y-94400978D01*
X133943918Y-94347993D01*
X133941564Y-94341682D01*
X133896186Y-94220018D01*
X133896184Y-94220015D01*
X133814330Y-94110671D01*
X133814329Y-94110670D01*
X133814323Y-94110665D01*
X133806954Y-94105148D01*
X133782005Y-94080201D01*
X133780393Y-94078048D01*
X133775226Y-94071146D01*
X133750806Y-94005685D01*
X133765653Y-93937411D01*
X133815052Y-93888003D01*
X133818063Y-93886359D01*
X133877475Y-93871200D01*
X139113826Y-93871200D01*
X139148758Y-93876221D01*
X139174002Y-93883634D01*
X139226748Y-93914930D01*
X142788073Y-97476255D01*
X142809223Y-97504507D01*
X142821831Y-97527596D01*
X142837000Y-97587025D01*
X142837000Y-98552876D01*
X142837159Y-98554806D01*
X142837385Y-98556454D01*
X142843407Y-98612482D01*
X142857401Y-98650000D01*
X142893702Y-98747328D01*
X142893706Y-98747335D01*
X142897206Y-98752010D01*
X142979950Y-98862542D01*
X142979952Y-98862544D01*
X142979955Y-98862547D01*
X143095164Y-98948793D01*
X143095171Y-98948797D01*
X143140118Y-98965561D01*
X143230017Y-98999091D01*
X143289627Y-99005500D01*
X144035372Y-99005499D01*
X144094983Y-98999091D01*
X144229831Y-98948796D01*
X144345046Y-98862546D01*
X144431296Y-98747331D01*
X144481591Y-98612483D01*
X144488000Y-98552873D01*
X144488000Y-98552852D01*
X145787500Y-98552852D01*
X145793900Y-98612370D01*
X145793902Y-98612377D01*
X145819024Y-98679732D01*
X145844145Y-98747086D01*
X145844149Y-98747093D01*
X145869129Y-98780462D01*
X145930307Y-98862185D01*
X145930313Y-98862191D01*
X145959247Y-98883850D01*
X146045406Y-98948350D01*
X146045413Y-98948354D01*
X146180120Y-98998596D01*
X146180127Y-98998598D01*
X146184712Y-98999091D01*
X146239638Y-99004998D01*
X146239655Y-99004999D01*
X146239672Y-99005000D01*
X146487500Y-99005000D01*
X146737500Y-99005000D01*
X146985328Y-99005000D01*
X146985336Y-99005000D01*
X146985347Y-99004999D01*
X147021060Y-99001158D01*
X147044872Y-98998598D01*
X147044879Y-98998596D01*
X147179586Y-98948354D01*
X147179593Y-98948350D01*
X147294687Y-98862190D01*
X147294690Y-98862187D01*
X147380850Y-98747093D01*
X147380854Y-98747086D01*
X147431096Y-98612379D01*
X147431098Y-98612372D01*
X147433143Y-98593352D01*
X147437498Y-98552860D01*
X147437500Y-98552827D01*
X147437500Y-97980000D01*
X146737500Y-97980000D01*
X146737500Y-99005000D01*
X146487500Y-99005000D01*
X146487500Y-97980000D01*
X145787500Y-97980000D01*
X145787500Y-98552852D01*
X144488000Y-98552852D01*
X144487999Y-97836170D01*
X144487999Y-97157146D01*
X145787500Y-97157146D01*
X145787500Y-97157155D01*
X145787500Y-97730000D01*
X146487500Y-97730000D01*
X146737500Y-97730000D01*
X147437500Y-97730000D01*
X147437500Y-97157172D01*
X147437499Y-97157155D01*
X147437498Y-97157146D01*
X147437498Y-97157138D01*
X147431098Y-97097628D01*
X147431096Y-97097621D01*
X147431096Y-97097620D01*
X147380854Y-96962913D01*
X147380850Y-96962906D01*
X147294690Y-96847812D01*
X147294687Y-96847809D01*
X147294685Y-96847807D01*
X147236817Y-96804487D01*
X147179593Y-96761649D01*
X147179588Y-96761646D01*
X147179589Y-96761646D01*
X147044877Y-96711402D01*
X147044870Y-96711400D01*
X146985352Y-96705000D01*
X146985344Y-96705000D01*
X146737500Y-96705000D01*
X146737500Y-97730000D01*
X146487500Y-97730000D01*
X146487500Y-96705000D01*
X146239646Y-96705000D01*
X146180128Y-96711400D01*
X146180121Y-96711402D01*
X146045410Y-96761646D01*
X146045407Y-96761648D01*
X145930313Y-96847807D01*
X145930307Y-96847813D01*
X145844148Y-96962907D01*
X145844146Y-96962910D01*
X145793902Y-97097621D01*
X145793900Y-97097628D01*
X145787500Y-97157146D01*
X144487999Y-97157146D01*
X144487999Y-97157129D01*
X144487998Y-97157123D01*
X144486459Y-97142809D01*
X144481591Y-97097517D01*
X144466348Y-97056649D01*
X144431297Y-96962671D01*
X144431293Y-96962664D01*
X144345315Y-96847813D01*
X144345048Y-96847456D01*
X144345042Y-96847450D01*
X144287116Y-96804086D01*
X144229835Y-96761206D01*
X144229831Y-96761204D01*
X144229827Y-96761201D01*
X144229825Y-96761200D01*
X144105154Y-96714702D01*
X144105151Y-96714701D01*
X144094986Y-96710910D01*
X144094985Y-96710909D01*
X144094983Y-96710909D01*
X144081521Y-96709461D01*
X144081514Y-96709460D01*
X144035383Y-96704501D01*
X144035381Y-96704500D01*
X144035373Y-96704500D01*
X144035365Y-96704500D01*
X143292357Y-96704500D01*
X143289629Y-96704500D01*
X143289623Y-96704501D01*
X143230016Y-96710908D01*
X143157501Y-96737954D01*
X143150641Y-96739657D01*
X143145877Y-96739454D01*
X143129629Y-96742989D01*
X143114038Y-96744104D01*
X143045765Y-96729252D01*
X143045765Y-96729251D01*
X143032043Y-96721758D01*
X143003790Y-96700608D01*
X139646570Y-93343388D01*
X139625421Y-93315138D01*
X139619999Y-93305208D01*
X139605146Y-93236938D01*
X139629560Y-93171473D01*
X139685490Y-93129601D01*
X139689369Y-93128154D01*
X139692705Y-93126911D01*
X139736019Y-93119100D01*
X141711726Y-93119100D01*
X141746658Y-93124121D01*
X141771902Y-93131534D01*
X141824648Y-93162830D01*
X142788073Y-94126254D01*
X142809223Y-94154506D01*
X142821831Y-94177595D01*
X142837000Y-94237024D01*
X142837000Y-95202876D01*
X142837159Y-95204806D01*
X142837385Y-95206454D01*
X142843407Y-95262482D01*
X142871190Y-95336971D01*
X142893702Y-95397328D01*
X142893706Y-95397335D01*
X142915063Y-95425864D01*
X142979950Y-95512542D01*
X142979956Y-95512548D01*
X142988141Y-95518675D01*
X143095164Y-95598793D01*
X143095171Y-95598797D01*
X143140118Y-95615561D01*
X143230017Y-95649091D01*
X143289627Y-95655500D01*
X144035372Y-95655499D01*
X144094983Y-95649091D01*
X144229831Y-95598796D01*
X144345046Y-95512546D01*
X144431296Y-95397331D01*
X144481591Y-95262483D01*
X144488000Y-95202873D01*
X144488000Y-95202852D01*
X145787500Y-95202852D01*
X145793900Y-95262370D01*
X145793902Y-95262377D01*
X145819024Y-95329732D01*
X145844145Y-95397086D01*
X145844149Y-95397093D01*
X145864920Y-95424839D01*
X145930307Y-95512185D01*
X145930313Y-95512191D01*
X145938975Y-95518675D01*
X146045406Y-95598350D01*
X146045413Y-95598354D01*
X146180120Y-95648596D01*
X146180127Y-95648598D01*
X146184712Y-95649091D01*
X146239638Y-95654998D01*
X146239655Y-95654999D01*
X146239672Y-95655000D01*
X146487500Y-95655000D01*
X146737500Y-95655000D01*
X146985328Y-95655000D01*
X146985336Y-95655000D01*
X146985347Y-95654999D01*
X147021060Y-95651158D01*
X147044872Y-95648598D01*
X147044879Y-95648596D01*
X147179586Y-95598354D01*
X147179593Y-95598350D01*
X147294687Y-95512190D01*
X147294690Y-95512187D01*
X147380850Y-95397093D01*
X147380854Y-95397086D01*
X147431096Y-95262379D01*
X147431098Y-95262372D01*
X147437111Y-95206454D01*
X147437498Y-95202860D01*
X147437500Y-95202827D01*
X147437500Y-94630000D01*
X146737500Y-94630000D01*
X146737500Y-95655000D01*
X146487500Y-95655000D01*
X146487500Y-94630000D01*
X145787500Y-94630000D01*
X145787500Y-95202852D01*
X144488000Y-95202852D01*
X144487999Y-94490885D01*
X144487999Y-93807146D01*
X145787500Y-93807146D01*
X145787500Y-93807155D01*
X145787500Y-94380000D01*
X146487500Y-94380000D01*
X146737500Y-94380000D01*
X147437500Y-94380000D01*
X147437500Y-93807172D01*
X147437499Y-93807155D01*
X147437498Y-93807146D01*
X147437498Y-93807138D01*
X147431098Y-93747628D01*
X147431096Y-93747621D01*
X147431057Y-93747516D01*
X147380854Y-93612913D01*
X147380850Y-93612906D01*
X147294690Y-93497812D01*
X147294687Y-93497809D01*
X147294685Y-93497807D01*
X147232129Y-93450978D01*
X147179593Y-93411649D01*
X147179588Y-93411646D01*
X147179589Y-93411646D01*
X147044877Y-93361402D01*
X147044870Y-93361400D01*
X146985352Y-93355000D01*
X146985344Y-93355000D01*
X146737500Y-93355000D01*
X146737500Y-94380000D01*
X146487500Y-94380000D01*
X146487500Y-93355000D01*
X146239646Y-93355000D01*
X146180128Y-93361400D01*
X146180121Y-93361402D01*
X146045410Y-93411646D01*
X146045407Y-93411648D01*
X145930313Y-93497807D01*
X145930307Y-93497813D01*
X145844148Y-93612907D01*
X145844146Y-93612910D01*
X145793902Y-93747621D01*
X145793900Y-93747628D01*
X145787500Y-93807146D01*
X144487999Y-93807146D01*
X144487999Y-93807129D01*
X144487998Y-93807123D01*
X144481591Y-93747516D01*
X144431297Y-93612671D01*
X144431293Y-93612664D01*
X144345315Y-93497813D01*
X144345048Y-93497456D01*
X144345042Y-93497450D01*
X144282963Y-93450978D01*
X144229835Y-93411206D01*
X144229831Y-93411204D01*
X144229827Y-93411201D01*
X144229825Y-93411200D01*
X144105154Y-93364702D01*
X144105151Y-93364701D01*
X144094986Y-93360910D01*
X144094985Y-93360909D01*
X144094983Y-93360909D01*
X144081521Y-93359461D01*
X144081514Y-93359460D01*
X144035383Y-93354501D01*
X144035381Y-93354500D01*
X144035373Y-93354500D01*
X144035365Y-93354500D01*
X143292357Y-93354500D01*
X143289629Y-93354500D01*
X143289623Y-93354501D01*
X143230016Y-93360908D01*
X143157501Y-93387954D01*
X143150641Y-93389657D01*
X143145877Y-93389454D01*
X143129629Y-93392989D01*
X143114038Y-93394104D01*
X143045765Y-93379252D01*
X143045765Y-93379251D01*
X143032043Y-93371758D01*
X143003790Y-93350608D01*
X142141321Y-92488138D01*
X142141314Y-92488132D01*
X142141308Y-92488127D01*
X142141303Y-92488123D01*
X142082566Y-92454212D01*
X142082561Y-92454209D01*
X142061390Y-92441987D01*
X142061389Y-92441986D01*
X142061388Y-92441986D01*
X141972244Y-92418100D01*
X141972243Y-92418100D01*
X140189569Y-92418100D01*
X140153782Y-92408419D01*
X140135440Y-92407117D01*
X140127773Y-92401383D01*
X140127057Y-92401190D01*
X140118190Y-92396014D01*
X140118920Y-92394763D01*
X140079485Y-92365273D01*
X140055035Y-92299821D01*
X140065898Y-92239453D01*
X140066157Y-92238885D01*
X140100019Y-92194737D01*
X140101763Y-92193297D01*
X140118710Y-92181532D01*
X140119512Y-92181070D01*
X141465158Y-90835423D01*
X141493408Y-90814275D01*
X141516500Y-90801667D01*
X141575925Y-90786500D01*
X141641372Y-90786500D01*
X141641375Y-90786500D01*
X141781385Y-90748984D01*
X141906915Y-90676509D01*
X142009409Y-90574015D01*
X142081884Y-90448485D01*
X142101651Y-90374708D01*
X142115541Y-90342270D01*
X142122768Y-90330413D01*
X142174465Y-90283418D01*
X142243358Y-90271830D01*
X142244979Y-90272024D01*
X142299769Y-90292460D01*
X142303931Y-90295277D01*
X142322094Y-90310276D01*
X142788073Y-90776255D01*
X142809223Y-90804507D01*
X142821831Y-90827596D01*
X142837000Y-90887025D01*
X142837000Y-91852876D01*
X142837159Y-91854806D01*
X142837385Y-91856454D01*
X142843407Y-91912482D01*
X142855689Y-91945411D01*
X142893702Y-92047328D01*
X142893706Y-92047335D01*
X142934712Y-92102112D01*
X142979950Y-92162542D01*
X142979952Y-92162544D01*
X142979955Y-92162547D01*
X143095164Y-92248793D01*
X143095171Y-92248797D01*
X143099343Y-92250353D01*
X143101337Y-92251097D01*
X143101339Y-92251097D01*
X143101346Y-92251100D01*
X143230017Y-92299091D01*
X143289627Y-92305500D01*
X144035372Y-92305499D01*
X144094983Y-92299091D01*
X144160883Y-92274510D01*
X144195367Y-92267009D01*
X144210960Y-92265894D01*
X144279228Y-92280744D01*
X144292948Y-92288235D01*
X144321206Y-92309388D01*
X144660688Y-92648870D01*
X144740612Y-92695014D01*
X144829756Y-92718900D01*
X144829757Y-92718900D01*
X144829758Y-92718900D01*
X150377742Y-92718900D01*
X150377744Y-92718900D01*
X150466888Y-92695014D01*
X150546812Y-92648870D01*
X150671257Y-92524422D01*
X150699510Y-92503273D01*
X150722599Y-92490666D01*
X150782024Y-92475499D01*
X151220481Y-92475499D01*
X151220484Y-92475499D01*
X151277114Y-92469412D01*
X151405226Y-92421628D01*
X151514687Y-92339687D01*
X151596628Y-92230226D01*
X151644412Y-92102114D01*
X151646687Y-92080944D01*
X151650499Y-92045501D01*
X151650499Y-92045494D01*
X151650500Y-92045485D01*
X151650499Y-91504516D01*
X151644412Y-91447886D01*
X151639030Y-91433459D01*
X151639030Y-91433454D01*
X151639029Y-91433455D01*
X151614913Y-91368796D01*
X151614913Y-91368795D01*
X151596629Y-91319776D01*
X151596627Y-91319773D01*
X151596626Y-91319771D01*
X151514687Y-91210313D01*
X151405226Y-91128372D01*
X151401663Y-91127043D01*
X151395422Y-91124715D01*
X151388525Y-91122142D01*
X151357559Y-91105233D01*
X151348504Y-91098455D01*
X151306631Y-91042523D01*
X151301644Y-90972831D01*
X151335125Y-90911509D01*
X151338812Y-90907822D01*
X151383155Y-90879326D01*
X151404983Y-90871185D01*
X151404984Y-90871184D01*
X151405002Y-90871170D01*
X151408726Y-90868777D01*
X151412081Y-90865871D01*
X151420672Y-90859440D01*
X151514329Y-90789329D01*
X151596184Y-90679984D01*
X151596185Y-90679983D01*
X151643916Y-90552010D01*
X151649596Y-90499173D01*
X151650000Y-90498006D01*
X151650000Y-90350000D01*
X150200001Y-90350000D01*
X150200001Y-90495445D01*
X150206080Y-90552006D01*
X150214290Y-90574017D01*
X150253813Y-90679981D01*
X150253815Y-90679984D01*
X150335670Y-90789329D01*
X150445015Y-90871184D01*
X150445020Y-90871187D01*
X150459383Y-90876544D01*
X150461461Y-90877319D01*
X150492438Y-90894232D01*
X150501493Y-90901010D01*
X150543366Y-90956942D01*
X150548353Y-91026634D01*
X150514879Y-91087949D01*
X150511202Y-91091627D01*
X150466842Y-91120140D01*
X150444774Y-91128370D01*
X150444767Y-91128374D01*
X150335315Y-91210311D01*
X150335314Y-91210312D01*
X150335313Y-91210313D01*
X150311753Y-91241785D01*
X150253374Y-91319768D01*
X150253373Y-91319771D01*
X150206038Y-91446682D01*
X150205587Y-91447890D01*
X150205585Y-91447896D01*
X150199500Y-91504489D01*
X150199500Y-91876070D01*
X150194475Y-91911012D01*
X150194020Y-91912564D01*
X150190070Y-91926012D01*
X150152327Y-91984755D01*
X150150958Y-91985942D01*
X150096097Y-92013418D01*
X150088539Y-92015063D01*
X150062168Y-92017900D01*
X147575629Y-92017900D01*
X147540694Y-92012877D01*
X147526673Y-92008760D01*
X147467895Y-91970985D01*
X147439206Y-91909625D01*
X147437180Y-91897125D01*
X147436296Y-91864031D01*
X147436845Y-91858926D01*
X147437499Y-91852844D01*
X147437500Y-91852827D01*
X147437500Y-91280000D01*
X145787500Y-91280000D01*
X145787500Y-91852844D01*
X145787891Y-91856475D01*
X145788584Y-91862923D01*
X145787325Y-91898188D01*
X145784747Y-91912483D01*
X145784732Y-91912564D01*
X145753459Y-91975045D01*
X145695512Y-92010132D01*
X145683310Y-92013480D01*
X145650499Y-92017900D01*
X145090274Y-92017900D01*
X145055338Y-92012877D01*
X145030096Y-92005465D01*
X144977351Y-91974169D01*
X144536925Y-91533743D01*
X144515773Y-91505487D01*
X144503166Y-91482398D01*
X144487999Y-91422973D01*
X144487999Y-90894373D01*
X144493021Y-90859440D01*
X144493404Y-90858136D01*
X144500433Y-90834195D01*
X144531726Y-90781454D01*
X144673481Y-90639700D01*
X144856035Y-90457146D01*
X145787500Y-90457146D01*
X145787500Y-90457155D01*
X145787500Y-91030000D01*
X146487500Y-91030000D01*
X146737500Y-91030000D01*
X147437500Y-91030000D01*
X147437500Y-90457172D01*
X147437499Y-90457155D01*
X147437498Y-90457146D01*
X147437498Y-90457138D01*
X147431098Y-90397628D01*
X147431096Y-90397621D01*
X147431061Y-90397527D01*
X147380854Y-90262913D01*
X147380850Y-90262906D01*
X147312323Y-90171366D01*
X147294691Y-90147813D01*
X147294689Y-90147811D01*
X147294683Y-90147806D01*
X147180496Y-90062324D01*
X147180494Y-90062323D01*
X147179591Y-90061647D01*
X147179588Y-90061646D01*
X147134770Y-90044930D01*
X147044877Y-90011402D01*
X147044870Y-90011400D01*
X146985352Y-90005000D01*
X146985344Y-90005000D01*
X146737500Y-90005000D01*
X146737500Y-91030000D01*
X146487500Y-91030000D01*
X146487500Y-90005000D01*
X146239646Y-90005000D01*
X146180128Y-90011400D01*
X146180121Y-90011402D01*
X146045410Y-90061646D01*
X146045407Y-90061648D01*
X145930313Y-90147807D01*
X145930307Y-90147813D01*
X145844148Y-90262907D01*
X145844146Y-90262910D01*
X145793902Y-90397621D01*
X145793900Y-90397628D01*
X145787500Y-90457146D01*
X144856035Y-90457146D01*
X144861510Y-90451671D01*
X144861517Y-90451667D01*
X144915665Y-90397517D01*
X145358628Y-89954554D01*
X150200000Y-89954554D01*
X150200000Y-89954571D01*
X150200000Y-90100000D01*
X150800000Y-90100000D01*
X151050000Y-90100000D01*
X151649999Y-90100000D01*
X151649999Y-89954559D01*
X151649839Y-89952630D01*
X151649613Y-89950978D01*
X151643918Y-89897993D01*
X151641573Y-89891705D01*
X151596186Y-89770018D01*
X151596184Y-89770015D01*
X151514329Y-89660670D01*
X151412080Y-89584127D01*
X151408722Y-89581217D01*
X151404984Y-89578815D01*
X151404983Y-89578814D01*
X151305843Y-89541837D01*
X151277013Y-89531084D01*
X151277011Y-89531083D01*
X151277010Y-89531083D01*
X151277009Y-89531082D01*
X151277006Y-89531082D01*
X151220444Y-89525000D01*
X151220428Y-89525000D01*
X151050000Y-89525000D01*
X151050000Y-90100000D01*
X150800000Y-90100000D01*
X150800000Y-89525000D01*
X150629568Y-89525000D01*
X150629566Y-89525000D01*
X150629564Y-89525000D01*
X150628859Y-89525050D01*
X150627415Y-89525231D01*
X150572992Y-89531080D01*
X150485175Y-89563835D01*
X150445018Y-89578813D01*
X150445017Y-89578813D01*
X150445016Y-89578814D01*
X150335669Y-89660670D01*
X150259126Y-89762919D01*
X150256218Y-89766274D01*
X150253814Y-89770016D01*
X150206084Y-89897985D01*
X150206082Y-89897992D01*
X150200000Y-89954554D01*
X145358628Y-89954554D01*
X147838758Y-87474423D01*
X147867008Y-87453275D01*
X147887318Y-87442185D01*
X147890100Y-87440667D01*
X147949525Y-87425500D01*
X148601062Y-87425500D01*
X148635998Y-87430523D01*
X148650996Y-87434927D01*
X148709769Y-87472696D01*
X148717623Y-87481759D01*
X148740096Y-87519634D01*
X148753369Y-87555222D01*
X148753370Y-87555225D01*
X148773972Y-87582745D01*
X148835311Y-87664685D01*
X148835313Y-87664687D01*
X148919754Y-87727898D01*
X148923176Y-87730460D01*
X148923177Y-87730462D01*
X148944162Y-87746171D01*
X148944163Y-87746171D01*
X148944183Y-87746186D01*
X148944774Y-87746628D01*
X149072886Y-87794412D01*
X149129515Y-87800500D01*
X149670484Y-87800499D01*
X149727114Y-87794412D01*
X149855226Y-87746628D01*
X149964687Y-87664687D01*
X150046628Y-87555226D01*
X150052853Y-87538535D01*
X150069771Y-87507549D01*
X150076549Y-87498495D01*
X150132484Y-87456627D01*
X150202175Y-87451645D01*
X150263494Y-87485129D01*
X150267172Y-87488807D01*
X150295673Y-87533155D01*
X150299407Y-87543167D01*
X150303814Y-87554984D01*
X150306215Y-87558719D01*
X150309127Y-87562080D01*
X150385670Y-87664329D01*
X150487922Y-87740874D01*
X150491275Y-87743780D01*
X150495008Y-87746179D01*
X150495015Y-87746184D01*
X150495016Y-87746185D01*
X150588804Y-87781166D01*
X150622993Y-87793918D01*
X150627245Y-87794375D01*
X150679555Y-87799999D01*
X150824999Y-87799999D01*
X151075000Y-87799999D01*
X151220433Y-87799999D01*
X151220439Y-87799999D01*
X151222366Y-87799839D01*
X151224016Y-87799613D01*
X151277007Y-87793918D01*
X151404981Y-87746186D01*
X151404984Y-87746184D01*
X151514329Y-87664329D01*
X151596184Y-87554984D01*
X151596185Y-87554983D01*
X151643916Y-87427010D01*
X151649596Y-87374173D01*
X151650000Y-87373006D01*
X151650000Y-87200000D01*
X151075000Y-87200000D01*
X151075000Y-87799999D01*
X150824999Y-87799999D01*
X150825000Y-87799998D01*
X150825000Y-86950000D01*
X151075000Y-86950000D01*
X151649999Y-86950000D01*
X151649999Y-86779559D01*
X151649839Y-86777630D01*
X151649613Y-86775978D01*
X151643918Y-86722993D01*
X151643636Y-86722237D01*
X151596186Y-86595018D01*
X151596184Y-86595015D01*
X151514329Y-86485670D01*
X151412080Y-86409127D01*
X151408722Y-86406217D01*
X151404984Y-86403815D01*
X151404983Y-86403814D01*
X151282268Y-86358044D01*
X151277013Y-86356084D01*
X151277011Y-86356083D01*
X151277010Y-86356083D01*
X151277009Y-86356082D01*
X151277006Y-86356082D01*
X151220444Y-86350000D01*
X151220428Y-86350000D01*
X151075000Y-86350000D01*
X151075000Y-86950000D01*
X150825000Y-86950000D01*
X150825000Y-86349999D01*
X150823125Y-86348124D01*
X150801977Y-86319874D01*
X150794484Y-86306153D01*
X150779632Y-86237897D01*
X150779761Y-86236090D01*
X150799127Y-86177887D01*
X150803317Y-86171366D01*
X150819941Y-86150738D01*
X152552358Y-84418323D01*
X152580608Y-84397175D01*
X152603700Y-84384567D01*
X152663125Y-84369400D01*
X154220541Y-84369400D01*
X154220542Y-84369400D01*
X154220544Y-84369400D01*
X154309688Y-84345514D01*
X154310075Y-84345290D01*
X154310423Y-84345090D01*
X154310432Y-84345085D01*
X154386406Y-84301220D01*
X154391910Y-84298259D01*
X154395037Y-84296237D01*
X154420108Y-84281762D01*
X154440226Y-84248755D01*
X156932169Y-81756812D01*
X156953316Y-81720185D01*
X156976327Y-81680328D01*
X156978197Y-81677318D01*
X156978310Y-81676894D01*
X156978312Y-81676892D01*
X156978312Y-81676891D01*
X156978314Y-81676888D01*
X156984262Y-81654688D01*
X157002200Y-81587744D01*
X157002200Y-71992329D01*
X157007223Y-71957393D01*
X157011610Y-71942455D01*
X157011627Y-71942394D01*
X157049372Y-71883644D01*
X157050741Y-71882457D01*
X157105620Y-71854977D01*
X157113179Y-71853333D01*
X157139532Y-71850500D01*
X157932671Y-71850500D01*
X157967607Y-71855523D01*
X157982605Y-71859927D01*
X158041356Y-71897672D01*
X158042543Y-71899041D01*
X158070019Y-71953902D01*
X158071664Y-71961460D01*
X158074501Y-71987831D01*
X158074501Y-71997882D01*
X158080907Y-72057481D01*
X158082930Y-72062904D01*
X158131202Y-72192328D01*
X158131206Y-72192335D01*
X158163691Y-72235729D01*
X158217450Y-72307542D01*
X158217456Y-72307548D01*
X158243454Y-72327010D01*
X158332664Y-72393793D01*
X158332671Y-72393797D01*
X158347956Y-72399498D01*
X158347961Y-72399501D01*
X158347962Y-72399500D01*
X158467517Y-72444091D01*
X158527127Y-72450500D01*
X159147872Y-72450499D01*
X159207483Y-72444091D01*
X159342331Y-72393796D01*
X159457546Y-72307546D01*
X159543796Y-72192331D01*
X159594091Y-72057483D01*
X159600500Y-71997873D01*
X159600499Y-71002128D01*
X159594091Y-70942517D01*
X159594090Y-70942513D01*
X159581619Y-70909077D01*
X159581612Y-70909061D01*
X159581606Y-70909044D01*
X159543797Y-70807671D01*
X159543793Y-70807664D01*
X159458757Y-70694071D01*
X159457548Y-70692456D01*
X159457542Y-70692450D01*
X159367809Y-70625276D01*
X159342335Y-70606206D01*
X159342330Y-70606203D01*
X159342327Y-70606201D01*
X159342325Y-70606200D01*
X159217654Y-70559702D01*
X159217651Y-70559701D01*
X159207486Y-70555910D01*
X159207485Y-70555909D01*
X159207483Y-70555909D01*
X159194021Y-70554461D01*
X159194014Y-70554460D01*
X159147883Y-70549501D01*
X159147881Y-70549500D01*
X159147873Y-70549500D01*
X159147865Y-70549500D01*
X158527123Y-70549500D01*
X158525192Y-70549659D01*
X158523545Y-70549885D01*
X158467516Y-70555908D01*
X158332677Y-70606200D01*
X158332666Y-70606204D01*
X158332665Y-70606205D01*
X158217456Y-70692450D01*
X158217450Y-70692456D01*
X158131205Y-70807665D01*
X158131203Y-70807668D01*
X158080907Y-70942516D01*
X158076843Y-70980324D01*
X158075266Y-70995000D01*
X158075266Y-70995004D01*
X158075265Y-70995003D01*
X158074500Y-71002122D01*
X158074500Y-71007670D01*
X158069475Y-71042614D01*
X158065070Y-71057612D01*
X158027327Y-71116355D01*
X158025958Y-71117542D01*
X157971097Y-71145018D01*
X157963539Y-71146663D01*
X157937168Y-71149500D01*
X156717330Y-71149500D01*
X156682389Y-71144475D01*
X156667390Y-71140070D01*
X156608644Y-71102327D01*
X156607457Y-71100958D01*
X156579981Y-71046097D01*
X156579223Y-71042614D01*
X156578335Y-71038533D01*
X156575499Y-71012177D01*
X156575499Y-70009998D01*
X156575498Y-70009980D01*
X156564999Y-69907203D01*
X156564998Y-69907200D01*
X156533684Y-69812701D01*
X156509814Y-69740666D01*
X156417712Y-69591344D01*
X156293656Y-69467288D01*
X156293655Y-69467287D01*
X156192026Y-69404601D01*
X156164936Y-69381993D01*
X156158812Y-69375185D01*
X156155654Y-69371674D01*
X156125455Y-69308671D01*
X156134111Y-69239343D01*
X156135523Y-69236093D01*
X156168040Y-69191805D01*
X156169285Y-69190726D01*
X156185372Y-69178913D01*
X156293343Y-69112317D01*
X156417315Y-68988345D01*
X156509356Y-68839124D01*
X156509358Y-68839119D01*
X156564505Y-68672697D01*
X156564506Y-68672690D01*
X156574999Y-68569986D01*
X156575000Y-68569973D01*
X156575000Y-68145000D01*
X153325001Y-68145000D01*
X153325001Y-68569995D01*
X153335493Y-68672694D01*
X153335493Y-68672695D01*
X153335494Y-68672697D01*
X153390641Y-68839119D01*
X153390643Y-68839124D01*
X153476434Y-68978212D01*
X153482685Y-68988346D01*
X153606654Y-69112315D01*
X153707971Y-69174809D01*
X153735061Y-69197417D01*
X153738479Y-69201216D01*
X153744343Y-69207736D01*
X153774543Y-69270739D01*
X153765886Y-69340070D01*
X153765872Y-69340103D01*
X153764466Y-69343337D01*
X153731971Y-69387593D01*
X153730739Y-69388661D01*
X153714614Y-69400504D01*
X153626991Y-69454551D01*
X153606347Y-69467285D01*
X153606342Y-69467288D01*
X153606340Y-69467290D01*
X153482288Y-69591343D01*
X153390186Y-69740665D01*
X153390177Y-69740691D01*
X153379872Y-69771791D01*
X153379871Y-69771793D01*
X153345298Y-69876123D01*
X153336852Y-69889066D01*
X153335365Y-69903630D01*
X153334542Y-69909881D01*
X153334359Y-69913476D01*
X153324500Y-70009973D01*
X153324500Y-70009980D01*
X153324500Y-70009983D01*
X153324500Y-71110001D01*
X153324500Y-71110009D01*
X153324503Y-71110045D01*
X153335000Y-71212795D01*
X153335000Y-71212796D01*
X153335001Y-71212799D01*
X153390185Y-71379331D01*
X153390186Y-71379334D01*
X153482288Y-71528656D01*
X153606344Y-71652712D01*
X153707495Y-71715101D01*
X153734588Y-71737713D01*
X153743719Y-71747865D01*
X153743870Y-71748032D01*
X153774069Y-71811038D01*
X153765409Y-71880369D01*
X153765397Y-71880397D01*
X153763991Y-71883631D01*
X153731508Y-71927877D01*
X153730274Y-71928947D01*
X153714165Y-71940783D01*
X153711553Y-71942395D01*
X153711456Y-71942455D01*
X153621594Y-71997882D01*
X153606339Y-72007291D01*
X153482290Y-72131340D01*
X153444671Y-72192331D01*
X153395592Y-72271901D01*
X153390186Y-72280665D01*
X153390177Y-72280691D01*
X153374829Y-72327010D01*
X153374828Y-72327013D01*
X153345298Y-72416124D01*
X153336852Y-72429067D01*
X153335365Y-72443630D01*
X153334542Y-72449881D01*
X153334359Y-72453476D01*
X153324500Y-72549973D01*
X153324500Y-72607670D01*
X153319475Y-72642614D01*
X153315070Y-72657612D01*
X153277327Y-72716355D01*
X153275958Y-72717542D01*
X153221097Y-72745018D01*
X153213539Y-72746663D01*
X153187168Y-72749500D01*
X142350156Y-72749500D01*
X142267766Y-72771575D01*
X142267751Y-72771580D01*
X142261012Y-72773386D01*
X142261011Y-72773386D01*
X142261009Y-72773387D01*
X142261006Y-72773388D01*
X142258206Y-72775004D01*
X142258202Y-72775006D01*
X142181104Y-72819519D01*
X142181086Y-72819531D01*
X141275844Y-73724773D01*
X141247593Y-73745922D01*
X141224505Y-73758530D01*
X141165075Y-73773700D01*
X141099623Y-73773700D01*
X140984392Y-73804575D01*
X140937002Y-73807853D01*
X140931346Y-73807149D01*
X140930616Y-73807059D01*
X140930615Y-73807058D01*
X140927583Y-73806682D01*
X140863484Y-73778877D01*
X140828888Y-73732431D01*
X140825407Y-73724300D01*
X140815400Y-73675498D01*
X140815400Y-72228758D01*
X140815400Y-72228756D01*
X140791514Y-72139612D01*
X140756166Y-72078388D01*
X140745370Y-72059688D01*
X140745368Y-72059686D01*
X140745367Y-72059684D01*
X140745366Y-72059683D01*
X140298359Y-71612677D01*
X140277208Y-71584422D01*
X140269716Y-71570701D01*
X140254864Y-71502442D01*
X140255445Y-71494316D01*
X140273590Y-71438061D01*
X140309814Y-71379334D01*
X140364999Y-71212797D01*
X140375500Y-71110009D01*
X140375499Y-70009992D01*
X140372174Y-69977447D01*
X140364999Y-69907203D01*
X140364998Y-69907200D01*
X140333684Y-69812701D01*
X140309814Y-69740666D01*
X140217712Y-69591344D01*
X140093656Y-69467288D01*
X140093655Y-69467287D01*
X140037339Y-69432551D01*
X140037338Y-69432550D01*
X140021812Y-69422974D01*
X139992500Y-69404894D01*
X139965401Y-69382276D01*
X139961719Y-69378182D01*
X139956120Y-69371956D01*
X139925928Y-69308946D01*
X139933415Y-69249000D01*
X141643000Y-69249000D01*
X143421000Y-69249000D01*
X150279000Y-69249000D01*
X152057000Y-69249000D01*
X152057000Y-66582000D01*
X150279000Y-66582000D01*
X150279000Y-69249000D01*
X143421000Y-69249000D01*
X143421000Y-67725000D01*
X144310000Y-67725000D01*
X149390000Y-67725000D01*
X149390000Y-65185000D01*
X150279000Y-65185000D01*
X152057000Y-65185000D01*
X152057000Y-64929983D01*
X153324500Y-64929983D01*
X153324500Y-66030001D01*
X153324501Y-66030019D01*
X153324517Y-66030176D01*
X153324517Y-66030182D01*
X153329593Y-66079866D01*
X153335000Y-66132796D01*
X153335001Y-66132799D01*
X153374004Y-66250500D01*
X153374003Y-66250500D01*
X153390182Y-66299325D01*
X153390185Y-66299331D01*
X153390186Y-66299334D01*
X153482288Y-66448656D01*
X153606344Y-66572712D01*
X153707970Y-66635394D01*
X153735063Y-66658006D01*
X153744345Y-66668325D01*
X153774544Y-66731331D01*
X153765884Y-66800662D01*
X153765872Y-66800690D01*
X153764466Y-66803924D01*
X153731951Y-66848198D01*
X153730715Y-66849269D01*
X153714610Y-66861094D01*
X153606667Y-66927674D01*
X153606653Y-66927684D01*
X153482998Y-67051340D01*
X153482684Y-67051654D01*
X153390643Y-67200875D01*
X153390641Y-67200880D01*
X153385917Y-67215136D01*
X153335494Y-67367299D01*
X153335493Y-67367304D01*
X153325000Y-67470007D01*
X153325000Y-67470010D01*
X153325000Y-67470013D01*
X153325000Y-67895000D01*
X156574999Y-67895000D01*
X156574999Y-67470028D01*
X156574998Y-67470013D01*
X156564505Y-67367302D01*
X156509358Y-67200880D01*
X156509356Y-67200875D01*
X156417315Y-67051654D01*
X156293344Y-66927683D01*
X156293340Y-66927680D01*
X156293333Y-66927675D01*
X156293322Y-66927668D01*
X156192029Y-66865190D01*
X156164934Y-66842578D01*
X156164661Y-66842274D01*
X156155651Y-66832257D01*
X156125455Y-66769253D01*
X156134109Y-66699936D01*
X156135519Y-66696691D01*
X156168032Y-66652398D01*
X156169272Y-66651324D01*
X156185371Y-66639501D01*
X156293656Y-66572712D01*
X156417712Y-66448656D01*
X156509814Y-66299334D01*
X156564999Y-66132797D01*
X156575500Y-66030009D01*
X156575499Y-65378479D01*
X158062500Y-65378479D01*
X158068823Y-65437284D01*
X158068824Y-65437288D01*
X158118438Y-65570309D01*
X158118440Y-65570312D01*
X158203526Y-65683973D01*
X158317187Y-65769059D01*
X158317190Y-65769061D01*
X158317191Y-65769061D01*
X158317192Y-65769062D01*
X158318380Y-65769505D01*
X158450212Y-65818675D01*
X158450211Y-65818675D01*
X158509036Y-65824999D01*
X158509038Y-65825000D01*
X158675000Y-65825000D01*
X158925000Y-65825000D01*
X159090962Y-65825000D01*
X159101218Y-65825000D01*
X159108684Y-65823093D01*
X159149788Y-65818675D01*
X159282809Y-65769061D01*
X159282812Y-65769059D01*
X159396473Y-65683973D01*
X159481559Y-65570312D01*
X159481561Y-65570309D01*
X159531175Y-65437288D01*
X159535593Y-65396184D01*
X159537500Y-65388718D01*
X159537500Y-65000000D01*
X158925000Y-65000000D01*
X158925000Y-65825000D01*
X158675000Y-65825000D01*
X158675000Y-65000000D01*
X158062500Y-65000000D01*
X158062500Y-65378479D01*
X156575499Y-65378479D01*
X156575499Y-64929992D01*
X156569372Y-64870017D01*
X156568508Y-64861567D01*
X156565000Y-64827207D01*
X156564999Y-64827206D01*
X156564999Y-64827203D01*
X156564998Y-64827200D01*
X156509814Y-64660666D01*
X156417712Y-64511344D01*
X156293656Y-64387288D01*
X156293655Y-64387287D01*
X156268091Y-64371519D01*
X158062500Y-64371519D01*
X158062500Y-64371536D01*
X158062500Y-64750000D01*
X158675000Y-64750000D01*
X158925000Y-64750000D01*
X159537500Y-64750000D01*
X159537500Y-64368681D01*
X159536672Y-64363849D01*
X159531175Y-64312711D01*
X159481561Y-64179690D01*
X159481559Y-64179687D01*
X159396473Y-64066026D01*
X159282812Y-63980940D01*
X159282809Y-63980938D01*
X159282807Y-63980937D01*
X159235153Y-63963163D01*
X159199803Y-63936700D01*
X159090965Y-63925000D01*
X159090963Y-63925000D01*
X158925000Y-63925000D01*
X158925000Y-64750000D01*
X158675000Y-64750000D01*
X158675000Y-63925000D01*
X158509019Y-63925000D01*
X158450214Y-63931323D01*
X158450210Y-63931324D01*
X158317187Y-63980939D01*
X158203526Y-64066026D01*
X158118439Y-64179687D01*
X158068824Y-64312710D01*
X158068823Y-64312714D01*
X158062500Y-64371519D01*
X156268091Y-64371519D01*
X156175668Y-64314513D01*
X156172586Y-64312612D01*
X156144336Y-64295187D01*
X156144331Y-64295185D01*
X156142862Y-64294698D01*
X156132587Y-64291293D01*
X156132585Y-64291292D01*
X155986265Y-64242807D01*
X155983445Y-64241641D01*
X155977792Y-64239999D01*
X155875019Y-64229500D01*
X155875010Y-64229500D01*
X154024998Y-64229500D01*
X154024981Y-64229501D01*
X154010959Y-64230933D01*
X153922198Y-64240000D01*
X153922193Y-64240001D01*
X153922032Y-64240056D01*
X153755667Y-64295185D01*
X153755665Y-64295186D01*
X153755663Y-64295187D01*
X153724331Y-64314513D01*
X153606340Y-64387290D01*
X153482290Y-64511340D01*
X153390187Y-64660662D01*
X153390185Y-64660668D01*
X153364657Y-64737708D01*
X153345300Y-64796123D01*
X153336852Y-64809069D01*
X153335365Y-64823630D01*
X153334954Y-64826749D01*
X153334945Y-64827738D01*
X153324500Y-64929983D01*
X152057000Y-64929983D01*
X152057000Y-62518000D01*
X150279000Y-62518000D01*
X150279000Y-65185000D01*
X149390000Y-65185000D01*
X149390000Y-63280000D01*
X144310000Y-63280000D01*
X144310000Y-67725000D01*
X143421000Y-67725000D01*
X143421000Y-66582000D01*
X141643000Y-66582000D01*
X141643000Y-69249000D01*
X139933415Y-69249000D01*
X139934584Y-69239643D01*
X139935989Y-69236409D01*
X139935990Y-69236405D01*
X139968538Y-69192079D01*
X139969776Y-69191006D01*
X139985852Y-69179204D01*
X140093656Y-69112712D01*
X140217712Y-68988656D01*
X140309814Y-68839334D01*
X140364999Y-68672797D01*
X140375500Y-68570009D01*
X140375499Y-67469992D01*
X140373171Y-67447207D01*
X140364999Y-67367203D01*
X140364998Y-67367200D01*
X140349093Y-67319202D01*
X140309814Y-67200666D01*
X140217712Y-67051344D01*
X140093656Y-66927288D01*
X140093655Y-66927287D01*
X140037339Y-66892551D01*
X140037338Y-66892550D01*
X140023013Y-66883715D01*
X139992500Y-66864894D01*
X139965401Y-66842276D01*
X139961719Y-66838182D01*
X139956120Y-66831956D01*
X139925928Y-66768946D01*
X139934584Y-66699643D01*
X139935990Y-66696405D01*
X139968538Y-66652079D01*
X139969776Y-66651006D01*
X139985852Y-66639204D01*
X140093656Y-66572712D01*
X140217712Y-66448656D01*
X140309814Y-66299334D01*
X140364999Y-66132797D01*
X140375500Y-66030009D01*
X140375499Y-65185000D01*
X141643000Y-65185000D01*
X143421000Y-65185000D01*
X143421000Y-62518000D01*
X141643000Y-62518000D01*
X141643000Y-65185000D01*
X140375499Y-65185000D01*
X140375499Y-64929992D01*
X140369372Y-64870017D01*
X140364999Y-64827203D01*
X140364998Y-64827200D01*
X140309814Y-64660666D01*
X140217712Y-64511344D01*
X140093656Y-64387288D01*
X140093655Y-64387287D01*
X139975668Y-64314513D01*
X139972586Y-64312612D01*
X139944336Y-64295187D01*
X139944331Y-64295185D01*
X139942862Y-64294698D01*
X139932587Y-64291293D01*
X139932585Y-64291292D01*
X139786265Y-64242807D01*
X139783445Y-64241641D01*
X139777792Y-64239999D01*
X139675019Y-64229500D01*
X139675010Y-64229500D01*
X137824998Y-64229500D01*
X137824981Y-64229501D01*
X137810959Y-64230933D01*
X137722198Y-64240000D01*
X137722193Y-64240001D01*
X137722032Y-64240056D01*
X137555667Y-64295185D01*
X137555665Y-64295186D01*
X137555663Y-64295187D01*
X137524331Y-64314513D01*
X137406340Y-64387290D01*
X137282290Y-64511340D01*
X137282289Y-64511342D01*
X137224712Y-64604690D01*
X137190185Y-64660667D01*
X137190182Y-64660675D01*
X137137712Y-64819021D01*
X137129026Y-64839099D01*
X137127708Y-64841531D01*
X137078459Y-64891093D01*
X137010233Y-64906160D01*
X136987259Y-64897674D01*
X136987128Y-64898163D01*
X136870607Y-64866939D01*
X136870607Y-64866940D01*
X136806340Y-64849720D01*
X136742075Y-64832500D01*
X136742074Y-64832500D01*
X136597125Y-64832500D01*
X136468594Y-64866939D01*
X136468593Y-64866940D01*
X136463537Y-64868295D01*
X136457110Y-64870017D01*
X136331591Y-64942485D01*
X136331584Y-64942490D01*
X136331568Y-64942505D01*
X136229105Y-65044968D01*
X136229090Y-65044984D01*
X136229085Y-65044992D01*
X136156617Y-65170509D01*
X136156589Y-65170578D01*
X136156348Y-65171511D01*
X136119100Y-65310525D01*
X136119100Y-65455474D01*
X136156613Y-65595477D01*
X136156616Y-65595485D01*
X136156617Y-65595488D01*
X136175151Y-65627589D01*
X136227231Y-65717795D01*
X136229089Y-65721013D01*
X136331585Y-65823509D01*
X136332274Y-65824005D01*
X136334778Y-65825353D01*
X136453669Y-65893995D01*
X136456687Y-65895869D01*
X136457114Y-65895983D01*
X136457115Y-65895984D01*
X136597125Y-65933500D01*
X136597128Y-65933500D01*
X136742072Y-65933500D01*
X136742075Y-65933500D01*
X136882085Y-65895984D01*
X136923064Y-65872323D01*
X136955823Y-65859208D01*
X136969313Y-65855936D01*
X137039103Y-65859260D01*
X137095989Y-65899752D01*
X137096996Y-65901033D01*
X137121310Y-65954246D01*
X137122259Y-65959169D01*
X137124501Y-65982640D01*
X137124501Y-66030026D01*
X137130180Y-66085619D01*
X137135000Y-66132796D01*
X137135001Y-66132799D01*
X137174004Y-66250500D01*
X137174003Y-66250500D01*
X137190182Y-66299325D01*
X137190185Y-66299331D01*
X137190186Y-66299334D01*
X137282288Y-66448656D01*
X137406344Y-66572712D01*
X137507495Y-66635101D01*
X137534588Y-66657713D01*
X137543870Y-66668032D01*
X137574069Y-66731038D01*
X137565409Y-66800369D01*
X137565397Y-66800397D01*
X137563991Y-66803631D01*
X137531490Y-66847892D01*
X137530259Y-66848959D01*
X137514141Y-66860796D01*
X137456512Y-66896343D01*
X137448674Y-66901178D01*
X137414357Y-66922345D01*
X137406340Y-66927290D01*
X137282290Y-67051340D01*
X137190185Y-67200666D01*
X137190183Y-67200671D01*
X137190165Y-67200728D01*
X137190116Y-67200879D01*
X137190115Y-67200881D01*
X137145299Y-67336123D01*
X137136852Y-67349067D01*
X137135365Y-67363630D01*
X137134542Y-67369881D01*
X137134359Y-67373476D01*
X137124500Y-67469973D01*
X137124500Y-67527670D01*
X137119475Y-67562614D01*
X137115070Y-67577612D01*
X137077320Y-67636361D01*
X137075509Y-67637931D01*
X137021717Y-67665165D01*
X137018014Y-67666005D01*
X137017327Y-67666161D01*
X137016154Y-67666427D01*
X136988721Y-67669500D01*
X136819056Y-67669500D01*
X136819055Y-67669500D01*
X136815287Y-67669996D01*
X136789446Y-67670678D01*
X136778624Y-67669831D01*
X136775646Y-67669014D01*
X136768164Y-67669014D01*
X136763342Y-67668637D01*
X136759744Y-67667268D01*
X136750151Y-67666005D01*
X136750131Y-67666161D01*
X136742078Y-67665100D01*
X136742076Y-67665100D01*
X136742075Y-67665100D01*
X136742073Y-67665100D01*
X136597125Y-67665100D01*
X136468594Y-67699539D01*
X136468593Y-67699540D01*
X136460938Y-67701591D01*
X136457110Y-67702617D01*
X136331591Y-67775085D01*
X136331584Y-67775090D01*
X136331568Y-67775105D01*
X136229105Y-67877568D01*
X136229090Y-67877584D01*
X136229085Y-67877592D01*
X136156617Y-68003109D01*
X136156589Y-68003178D01*
X136156348Y-68004111D01*
X136119100Y-68143125D01*
X136119100Y-68288074D01*
X136156613Y-68428077D01*
X136156616Y-68428085D01*
X136156617Y-68428088D01*
X136186194Y-68479317D01*
X136227231Y-68550395D01*
X136229089Y-68553613D01*
X136331585Y-68656109D01*
X136332274Y-68656605D01*
X136334778Y-68657953D01*
X136453669Y-68726595D01*
X136456687Y-68728469D01*
X136457114Y-68728583D01*
X136457115Y-68728584D01*
X136597125Y-68766100D01*
X136597128Y-68766100D01*
X136742072Y-68766100D01*
X136742075Y-68766100D01*
X136882085Y-68728584D01*
X136962641Y-68682073D01*
X136995407Y-68668957D01*
X137000680Y-68667678D01*
X137008895Y-68665686D01*
X137078685Y-68669014D01*
X137135594Y-68709541D01*
X137142199Y-68717940D01*
X137162434Y-68755586D01*
X137190186Y-68839334D01*
X137282288Y-68988656D01*
X137406344Y-69112712D01*
X137507495Y-69175101D01*
X137534588Y-69197713D01*
X137543870Y-69208032D01*
X137574069Y-69271038D01*
X137565409Y-69340369D01*
X137565397Y-69340397D01*
X137563991Y-69343631D01*
X137531539Y-69387850D01*
X137530307Y-69388919D01*
X137514138Y-69400799D01*
X137461195Y-69433456D01*
X137445997Y-69442829D01*
X137406342Y-69467288D01*
X137282290Y-69591340D01*
X137190186Y-69740665D01*
X137190177Y-69740691D01*
X137179872Y-69771791D01*
X137179871Y-69771793D01*
X137145298Y-69876123D01*
X137136852Y-69889066D01*
X137135365Y-69903630D01*
X137134542Y-69909881D01*
X137134359Y-69913476D01*
X137124500Y-70009973D01*
X137124500Y-70009980D01*
X137124500Y-70009983D01*
X137124500Y-71110001D01*
X137124500Y-71110009D01*
X137124503Y-71110045D01*
X137135000Y-71212795D01*
X137135000Y-71212796D01*
X137135001Y-71212799D01*
X137190185Y-71379331D01*
X137190186Y-71379334D01*
X137282288Y-71528656D01*
X137406344Y-71652712D01*
X137507495Y-71715101D01*
X137534588Y-71737713D01*
X137543719Y-71747865D01*
X137543870Y-71748032D01*
X137574069Y-71811038D01*
X137565409Y-71880369D01*
X137565397Y-71880397D01*
X137563991Y-71883631D01*
X137531508Y-71927877D01*
X137530274Y-71928947D01*
X137514165Y-71940783D01*
X137511553Y-71942395D01*
X137511456Y-71942455D01*
X137421594Y-71997882D01*
X137406339Y-72007291D01*
X137282290Y-72131340D01*
X137244671Y-72192331D01*
X137195592Y-72271901D01*
X137190186Y-72280665D01*
X137190177Y-72280691D01*
X137174829Y-72327010D01*
X137174828Y-72327013D01*
X137145298Y-72416124D01*
X137136852Y-72429067D01*
X137135365Y-72443630D01*
X137134542Y-72449881D01*
X137134359Y-72453476D01*
X137124500Y-72549973D01*
X137124500Y-73649998D01*
X137124503Y-73650045D01*
X137129911Y-73702979D01*
X137135000Y-73752796D01*
X137135001Y-73752799D01*
X137136385Y-73756975D01*
X137176346Y-73877571D01*
X137190184Y-73919331D01*
X137190186Y-73919334D01*
X137282288Y-74068656D01*
X137406344Y-74192712D01*
X137507495Y-74255101D01*
X137534588Y-74277713D01*
X137543870Y-74288032D01*
X137574069Y-74351038D01*
X137565409Y-74420369D01*
X137565397Y-74420397D01*
X137563991Y-74423631D01*
X137531496Y-74467887D01*
X137530264Y-74468955D01*
X137514140Y-74480797D01*
X137456851Y-74516135D01*
X137456848Y-74516137D01*
X137406342Y-74547289D01*
X137406339Y-74547291D01*
X137282290Y-74671340D01*
X137282289Y-74671342D01*
X137191734Y-74818156D01*
X137190186Y-74820665D01*
X137190180Y-74820681D01*
X137183813Y-74839898D01*
X137181180Y-74847844D01*
X137180530Y-74849806D01*
X137145299Y-74956123D01*
X137136852Y-74969067D01*
X137135365Y-74983630D01*
X137134542Y-74989881D01*
X137134359Y-74993476D01*
X137124500Y-75089973D01*
X137124500Y-75741626D01*
X137119476Y-75776564D01*
X137116289Y-75787417D01*
X137078514Y-75846194D01*
X137014957Y-75875217D01*
X136945807Y-75865276D01*
X136938829Y-75862089D01*
X136902657Y-75836975D01*
X130599426Y-69533744D01*
X130578274Y-69505488D01*
X130565667Y-69482399D01*
X130550500Y-69422974D01*
X130550500Y-67795728D01*
X130550268Y-67793258D01*
X130547646Y-67765300D01*
X130547646Y-67765298D01*
X130510203Y-67658294D01*
X130502793Y-67637118D01*
X130422150Y-67527850D01*
X130312882Y-67447207D01*
X130312880Y-67447206D01*
X130312877Y-67447205D01*
X130180684Y-67400947D01*
X130167274Y-67396841D01*
X130152515Y-67390960D01*
X130097524Y-67347858D01*
X130074565Y-67281868D01*
X130090247Y-67215141D01*
X130095537Y-67205704D01*
X130116012Y-67178668D01*
X130560158Y-66734523D01*
X130588408Y-66713375D01*
X130611500Y-66700767D01*
X130670925Y-66685600D01*
X133336042Y-66685600D01*
X133336044Y-66685600D01*
X133425188Y-66661714D01*
X133505112Y-66615570D01*
X133834345Y-66286334D01*
X133862596Y-66265188D01*
X133876316Y-66257697D01*
X133944583Y-66242847D01*
X133954396Y-66243548D01*
X133967070Y-66244455D01*
X133967070Y-66244454D01*
X133996762Y-66246578D01*
X134001153Y-66246970D01*
X134033979Y-66250500D01*
X134616020Y-66250499D01*
X134674891Y-66244171D01*
X134808054Y-66194503D01*
X134921831Y-66109331D01*
X135007003Y-65995554D01*
X135056671Y-65862391D01*
X135060100Y-65830500D01*
X135062999Y-65803537D01*
X135062999Y-65803530D01*
X135063000Y-65803521D01*
X135062999Y-64796480D01*
X135056672Y-64737619D01*
X135056671Y-64737608D01*
X135028011Y-64660770D01*
X135007003Y-64604446D01*
X134921831Y-64490669D01*
X134921829Y-64490668D01*
X134921829Y-64490667D01*
X134821373Y-64415467D01*
X134821372Y-64415466D01*
X134808646Y-64405940D01*
X134808056Y-64405498D01*
X134808054Y-64405497D01*
X134679351Y-64357492D01*
X134677559Y-64356761D01*
X134677125Y-64356415D01*
X134676825Y-64356284D01*
X134672938Y-64355367D01*
X134668274Y-64355117D01*
X134650608Y-64353217D01*
X134616029Y-64349500D01*
X134616019Y-64349500D01*
X134033982Y-64349500D01*
X134033956Y-64349501D01*
X134033667Y-64349533D01*
X133975105Y-64355828D01*
X133841947Y-64405495D01*
X133841944Y-64405497D01*
X133728169Y-64490669D01*
X133642999Y-64604440D01*
X133642998Y-64604443D01*
X133593330Y-64737608D01*
X133593328Y-64737613D01*
X133593326Y-64737619D01*
X133587000Y-64796453D01*
X133587000Y-65473125D01*
X133581976Y-65508062D01*
X133574564Y-65533303D01*
X133543269Y-65586047D01*
X133411788Y-65717528D01*
X133383538Y-65738677D01*
X133373611Y-65744098D01*
X133305338Y-65758952D01*
X133239873Y-65734538D01*
X133198000Y-65678606D01*
X133195313Y-65671400D01*
X133187500Y-65628080D01*
X133187500Y-65425000D01*
X131712500Y-65425000D01*
X131712500Y-65803457D01*
X131712501Y-65803482D01*
X131715311Y-65829619D01*
X131714052Y-65864884D01*
X131711458Y-65879265D01*
X131680185Y-65941745D01*
X131622236Y-65976834D01*
X131615390Y-65978712D01*
X131610035Y-65980181D01*
X131577228Y-65984600D01*
X130417756Y-65984600D01*
X130328611Y-66008486D01*
X130328610Y-66008486D01*
X130328608Y-66008487D01*
X130328605Y-66008488D01*
X130248697Y-66054624D01*
X130248683Y-66054633D01*
X130248678Y-66054637D01*
X128913136Y-67390179D01*
X128913132Y-67390184D01*
X128913126Y-67390193D01*
X128913124Y-67390195D01*
X128880211Y-67447205D01*
X128880210Y-67447207D01*
X128879232Y-67448901D01*
X128866987Y-67470109D01*
X128866983Y-67470119D01*
X128843100Y-67559256D01*
X128843100Y-72339747D01*
X128847694Y-72356893D01*
X128847695Y-72356893D01*
X128865821Y-72424543D01*
X128865846Y-72424635D01*
X128866986Y-72428889D01*
X128913127Y-72508808D01*
X128913129Y-72508811D01*
X128913130Y-72508812D01*
X128913132Y-72508814D01*
X128913138Y-72508821D01*
X129804529Y-73400211D01*
X129825678Y-73428461D01*
X129831099Y-73438388D01*
X129845953Y-73506661D01*
X129821539Y-73572126D01*
X129765607Y-73613999D01*
X129765603Y-73614001D01*
X129758415Y-73616682D01*
X129715081Y-73624500D01*
X129339623Y-73624500D01*
X129337692Y-73624659D01*
X129336045Y-73624885D01*
X129280016Y-73630908D01*
X129145177Y-73681200D01*
X129145166Y-73681204D01*
X129145165Y-73681205D01*
X129029956Y-73767450D01*
X129029950Y-73767456D01*
X128943705Y-73882665D01*
X128943703Y-73882668D01*
X128893409Y-74017513D01*
X128893407Y-74017519D01*
X128887625Y-74071301D01*
X128887626Y-74071302D01*
X128887000Y-74077130D01*
X128887000Y-75072876D01*
X128887159Y-75074806D01*
X128887385Y-75076454D01*
X128893407Y-75132482D01*
X128918045Y-75198539D01*
X128943702Y-75267328D01*
X128943706Y-75267335D01*
X128979393Y-75315006D01*
X129029950Y-75382542D01*
X129029952Y-75382544D01*
X129029955Y-75382547D01*
X129145164Y-75468793D01*
X129145171Y-75468797D01*
X129190118Y-75485561D01*
X129280017Y-75519091D01*
X129339627Y-75525500D01*
X129960372Y-75525499D01*
X130003082Y-75520907D01*
X130022942Y-75520374D01*
X130027950Y-75520641D01*
X130027951Y-75520642D01*
X130053668Y-75522015D01*
X130113148Y-75540922D01*
X130120562Y-75545593D01*
X130142143Y-75562825D01*
X132827721Y-78248402D01*
X135514531Y-80935212D01*
X135579788Y-81000469D01*
X135579791Y-81000470D01*
X135579794Y-81000473D01*
X135579819Y-81000487D01*
X135581360Y-81001440D01*
X135581392Y-81001459D01*
X135588036Y-81005566D01*
X135590651Y-81006741D01*
X135659706Y-81046611D01*
X135659707Y-81046611D01*
X135659712Y-81046614D01*
X135748856Y-81070500D01*
X136982671Y-81070500D01*
X137017607Y-81075523D01*
X137032605Y-81079927D01*
X137091360Y-81117676D01*
X137093752Y-81120435D01*
X137120442Y-81171923D01*
X137120882Y-81173704D01*
X137124501Y-81203444D01*
X137124501Y-81270000D01*
X137124502Y-81270023D01*
X137132420Y-81347548D01*
X137129807Y-81388373D01*
X137126989Y-81400428D01*
X137092561Y-81461226D01*
X137038737Y-81491869D01*
X137026591Y-81495167D01*
X136994098Y-81499500D01*
X134479830Y-81499500D01*
X134444889Y-81494475D01*
X134429890Y-81490070D01*
X134371144Y-81452327D01*
X134369957Y-81450958D01*
X134342480Y-81396094D01*
X134340834Y-81388530D01*
X134337999Y-81362175D01*
X134337999Y-81202385D01*
X134337999Y-81202384D01*
X134337999Y-81202378D01*
X134335230Y-81178502D01*
X134335229Y-81178499D01*
X134292119Y-81080864D01*
X134292117Y-81080861D01*
X134292116Y-81080859D01*
X134216641Y-81005384D01*
X134216638Y-81005383D01*
X134216636Y-81005381D01*
X134209088Y-81002048D01*
X134209087Y-81002047D01*
X134197672Y-80997007D01*
X134162523Y-80967318D01*
X134095131Y-80959500D01*
X134095123Y-80959500D01*
X132519884Y-80959500D01*
X132519879Y-80959500D01*
X132519834Y-80959504D01*
X132496007Y-80962268D01*
X132496004Y-80962269D01*
X132476381Y-80970933D01*
X132476380Y-80970933D01*
X132447446Y-80983708D01*
X132422961Y-80991602D01*
X132398187Y-80996829D01*
X132372588Y-80999500D01*
X131697291Y-80999500D01*
X131662354Y-80994476D01*
X131637113Y-80987064D01*
X131584363Y-80955764D01*
X131334832Y-80706202D01*
X131265850Y-80637211D01*
X131244704Y-80608961D01*
X131240124Y-80600573D01*
X131237212Y-80595239D01*
X131222363Y-80526973D01*
X131222496Y-80525109D01*
X131241864Y-80466964D01*
X131252500Y-80450417D01*
X131252500Y-80299420D01*
X131260233Y-80268560D01*
X131261424Y-80250295D01*
X131266548Y-80243359D01*
X131267153Y-80240946D01*
X131269153Y-80237206D01*
X131270544Y-80237950D01*
X131302942Y-80194099D01*
X131368252Y-80169270D01*
X131436617Y-80183692D01*
X131486332Y-80232785D01*
X131498872Y-80265772D01*
X131499498Y-80268564D01*
X131502500Y-80295680D01*
X131502500Y-80450000D01*
X131525054Y-80450000D01*
X131525059Y-80450000D01*
X131528629Y-80449646D01*
X131530091Y-80449415D01*
X131539862Y-80448281D01*
X131541772Y-80448060D01*
X131546179Y-80447805D01*
X131548881Y-80447235D01*
X131548883Y-80447235D01*
X131646349Y-80404198D01*
X131646356Y-80404194D01*
X131721694Y-80328856D01*
X131721698Y-80328849D01*
X131764735Y-80231383D01*
X131764735Y-80231381D01*
X131765305Y-80228677D01*
X131765561Y-80224265D01*
X131767144Y-80210617D01*
X131767392Y-80208862D01*
X131767500Y-80207559D01*
X131767500Y-79545000D01*
X131502499Y-79545000D01*
X131492286Y-79555213D01*
X131464032Y-79576363D01*
X131454104Y-79581784D01*
X131385831Y-79596635D01*
X131320367Y-79572218D01*
X131278498Y-79516287D01*
X131275811Y-79509081D01*
X131267999Y-79465765D01*
X131267999Y-79377690D01*
X131273020Y-79342763D01*
X131276206Y-79331910D01*
X131313976Y-79273129D01*
X131377530Y-79244100D01*
X131446685Y-79254038D01*
X131453671Y-79257228D01*
X131489841Y-79282341D01*
X131502500Y-79295000D01*
X131767500Y-79295000D01*
X131767500Y-78632439D01*
X131767392Y-78631137D01*
X131767144Y-78629381D01*
X131765561Y-78615733D01*
X131765305Y-78611322D01*
X131764735Y-78608617D01*
X131764685Y-78608504D01*
X131721698Y-78511150D01*
X131721697Y-78511147D01*
X131721692Y-78511141D01*
X131646357Y-78435806D01*
X131646352Y-78435802D01*
X131646349Y-78435801D01*
X131642370Y-78434044D01*
X131548882Y-78392764D01*
X131540941Y-78391842D01*
X131525061Y-78390000D01*
X131525059Y-78390000D01*
X131502500Y-78390000D01*
X131502500Y-78540213D01*
X131494943Y-78565947D01*
X131493192Y-78588408D01*
X131485289Y-78598823D01*
X131482815Y-78607252D01*
X131471374Y-78617164D01*
X131450962Y-78644071D01*
X131432555Y-78650801D01*
X131430011Y-78653007D01*
X131405364Y-78660745D01*
X131385343Y-78668067D01*
X131317167Y-78652777D01*
X131268079Y-78603056D01*
X131255958Y-78569909D01*
X131255167Y-78566157D01*
X131252500Y-78540577D01*
X131252500Y-78390000D01*
X131229940Y-78390000D01*
X131229938Y-78390000D01*
X131223397Y-78390759D01*
X131223396Y-78390759D01*
X131206117Y-78392764D01*
X131206116Y-78392764D01*
X131186815Y-78401285D01*
X131178715Y-78403617D01*
X131174133Y-78403592D01*
X131160517Y-78407404D01*
X131135359Y-78410697D01*
X131069180Y-78401180D01*
X131049004Y-78392271D01*
X131048999Y-78392270D01*
X131025124Y-78389500D01*
X131025123Y-78389500D01*
X130729884Y-78389500D01*
X130729879Y-78389500D01*
X130729847Y-78389503D01*
X130723466Y-78390243D01*
X130723461Y-78390244D01*
X130706004Y-78392269D01*
X130706003Y-78392269D01*
X130685743Y-78401214D01*
X130677821Y-78403519D01*
X130673207Y-78403507D01*
X130659290Y-78407404D01*
X130634131Y-78410698D01*
X130567946Y-78401181D01*
X130548888Y-78392766D01*
X130548878Y-78392763D01*
X130525059Y-78390000D01*
X130502500Y-78390000D01*
X130502500Y-78540576D01*
X130494758Y-78571469D01*
X130493561Y-78589741D01*
X130488446Y-78596659D01*
X130487847Y-78599050D01*
X130485847Y-78602790D01*
X130484461Y-78602048D01*
X130452023Y-78645923D01*
X130386705Y-78670729D01*
X130318345Y-78656284D01*
X130268646Y-78607174D01*
X130256118Y-78574186D01*
X130255492Y-78571393D01*
X130252500Y-78544316D01*
X130252500Y-78390000D01*
X130229940Y-78390000D01*
X130229938Y-78390000D01*
X130225846Y-78390474D01*
X130206118Y-78392764D01*
X130206116Y-78392764D01*
X130186284Y-78401521D01*
X130178285Y-78403837D01*
X130173683Y-78403819D01*
X130159906Y-78407677D01*
X130134752Y-78410971D01*
X130068565Y-78401455D01*
X130048882Y-78392764D01*
X130040941Y-78391842D01*
X130025061Y-78390000D01*
X130025059Y-78390000D01*
X130002500Y-78390000D01*
X130002500Y-79295000D01*
X130252497Y-79295000D01*
X130252499Y-79295000D01*
X130262717Y-79284781D01*
X130290959Y-79263639D01*
X130300895Y-79258214D01*
X130369165Y-79243363D01*
X130434629Y-79267780D01*
X130476497Y-79323703D01*
X130479178Y-79330892D01*
X130487000Y-79374233D01*
X130487000Y-79403173D01*
X130481978Y-79438106D01*
X130477575Y-79453102D01*
X130439801Y-79511881D01*
X130439790Y-79511890D01*
X130438421Y-79513076D01*
X130383603Y-79540518D01*
X130381512Y-79540973D01*
X130376038Y-79542163D01*
X130349671Y-79545000D01*
X129519330Y-79545000D01*
X129484394Y-79539977D01*
X129478567Y-79538266D01*
X129419790Y-79500491D01*
X129390765Y-79436935D01*
X129400709Y-79367777D01*
X129446464Y-79314973D01*
X129487154Y-79298121D01*
X129488483Y-79297832D01*
X129514832Y-79295000D01*
X129752500Y-79295000D01*
X129752500Y-78390000D01*
X129729940Y-78390000D01*
X129729938Y-78390000D01*
X129725846Y-78390474D01*
X129706118Y-78392764D01*
X129706116Y-78392764D01*
X129686284Y-78401521D01*
X129678285Y-78403837D01*
X129673683Y-78403819D01*
X129659906Y-78407677D01*
X129634752Y-78410971D01*
X129568565Y-78401455D01*
X129548882Y-78392764D01*
X129540941Y-78391842D01*
X129525061Y-78390000D01*
X129525059Y-78390000D01*
X129502500Y-78390000D01*
X129502500Y-78540213D01*
X129494943Y-78565947D01*
X129493192Y-78588408D01*
X129485289Y-78598823D01*
X129482815Y-78607252D01*
X129471374Y-78617164D01*
X129450962Y-78644071D01*
X129432555Y-78650801D01*
X129430011Y-78653007D01*
X129405364Y-78660745D01*
X129385343Y-78668067D01*
X129317167Y-78652777D01*
X129268079Y-78603056D01*
X129255958Y-78569909D01*
X129255167Y-78566157D01*
X129252500Y-78540577D01*
X129252500Y-78390000D01*
X129229940Y-78390000D01*
X129229938Y-78390000D01*
X129223397Y-78390759D01*
X129223396Y-78390759D01*
X129206117Y-78392764D01*
X129206116Y-78392764D01*
X129186815Y-78401285D01*
X129178715Y-78403617D01*
X129174134Y-78403592D01*
X129160518Y-78407404D01*
X129135361Y-78410697D01*
X129069181Y-78401180D01*
X129049004Y-78392271D01*
X129049002Y-78392270D01*
X129025125Y-78389500D01*
X129025124Y-78389500D01*
X128869830Y-78389500D01*
X128834889Y-78384475D01*
X128819890Y-78380070D01*
X128761144Y-78342327D01*
X128759957Y-78340958D01*
X128732477Y-78286083D01*
X128730832Y-78278521D01*
X128728000Y-78252168D01*
X128728000Y-76231358D01*
X128728000Y-76231356D01*
X128704114Y-76142212D01*
X128704111Y-76142206D01*
X128657973Y-76062294D01*
X128657970Y-76062291D01*
X128657969Y-76062288D01*
X128592712Y-75997031D01*
X127124425Y-74528744D01*
X127103273Y-74500488D01*
X127090666Y-74477399D01*
X127075499Y-74417974D01*
X127075499Y-73452122D01*
X127075459Y-73451648D01*
X127075418Y-73451384D01*
X127069091Y-73392517D01*
X127068872Y-73391931D01*
X127064408Y-73379963D01*
X127064408Y-73379960D01*
X127018798Y-73257673D01*
X127018797Y-73257671D01*
X127018795Y-73257668D01*
X127018793Y-73257664D01*
X126932815Y-73142813D01*
X126932548Y-73142456D01*
X126932542Y-73142450D01*
X126874616Y-73099086D01*
X126817335Y-73056206D01*
X126817331Y-73056204D01*
X126817327Y-73056201D01*
X126817325Y-73056200D01*
X126692654Y-73009702D01*
X126692651Y-73009701D01*
X126682486Y-73005910D01*
X126682485Y-73005909D01*
X126682483Y-73005909D01*
X126669021Y-73004461D01*
X126669014Y-73004460D01*
X126622883Y-72999501D01*
X126622881Y-72999500D01*
X126622873Y-72999500D01*
X126622865Y-72999500D01*
X125877123Y-72999500D01*
X125875192Y-72999659D01*
X125873545Y-72999885D01*
X125817516Y-73005908D01*
X125682677Y-73056200D01*
X125682666Y-73056204D01*
X125682665Y-73056205D01*
X125567456Y-73142450D01*
X125567450Y-73142456D01*
X125481205Y-73257665D01*
X125481203Y-73257668D01*
X125430907Y-73392516D01*
X125424673Y-73450517D01*
X125424672Y-73450516D01*
X125424500Y-73452120D01*
X125424500Y-74847876D01*
X125424659Y-74849806D01*
X125424885Y-74851454D01*
X125430907Y-74907482D01*
X125449644Y-74957717D01*
X125481202Y-75042328D01*
X125481206Y-75042335D01*
X125505514Y-75074806D01*
X125567450Y-75157542D01*
X125567452Y-75157544D01*
X125567455Y-75157547D01*
X125682664Y-75243793D01*
X125682671Y-75243797D01*
X125721548Y-75258297D01*
X125817517Y-75294091D01*
X125877127Y-75300500D01*
X126622872Y-75300499D01*
X126682483Y-75294091D01*
X126748383Y-75269510D01*
X126782867Y-75262009D01*
X126798460Y-75260894D01*
X126866728Y-75275744D01*
X126880448Y-75283235D01*
X126908706Y-75304388D01*
X127978073Y-76373754D01*
X127999223Y-76402006D01*
X128011831Y-76425095D01*
X128027000Y-76484524D01*
X128027000Y-78247670D01*
X128021975Y-78282614D01*
X128017570Y-78297612D01*
X127979827Y-78356355D01*
X127978458Y-78357542D01*
X127923597Y-78385018D01*
X127916039Y-78386663D01*
X127889668Y-78389500D01*
X127729885Y-78389500D01*
X127729861Y-78389502D01*
X127729859Y-78389502D01*
X127729848Y-78389503D01*
X127723472Y-78390243D01*
X127706004Y-78392269D01*
X127706003Y-78392269D01*
X127685737Y-78401217D01*
X127677820Y-78403520D01*
X127673204Y-78403508D01*
X127659290Y-78407404D01*
X127634131Y-78410698D01*
X127567946Y-78401181D01*
X127548888Y-78392766D01*
X127548878Y-78392763D01*
X127525059Y-78390000D01*
X127502500Y-78390000D01*
X127502500Y-78540576D01*
X127494758Y-78571469D01*
X127493561Y-78589741D01*
X127488446Y-78596659D01*
X127487847Y-78599050D01*
X127485847Y-78602790D01*
X127484461Y-78602048D01*
X127452023Y-78645923D01*
X127386705Y-78670729D01*
X127318345Y-78656284D01*
X127268646Y-78607174D01*
X127256118Y-78574186D01*
X127255492Y-78571393D01*
X127252500Y-78544316D01*
X127252500Y-78390000D01*
X127229940Y-78390000D01*
X127229938Y-78390000D01*
X127225846Y-78390474D01*
X127206118Y-78392764D01*
X127206116Y-78392764D01*
X127186284Y-78401521D01*
X127178285Y-78403837D01*
X127173683Y-78403819D01*
X127159906Y-78407677D01*
X127134752Y-78410971D01*
X127068565Y-78401455D01*
X127048882Y-78392764D01*
X127040941Y-78391842D01*
X127025061Y-78390000D01*
X127025059Y-78390000D01*
X127002500Y-78390000D01*
X127002500Y-78540213D01*
X126994943Y-78565947D01*
X126993192Y-78588408D01*
X126985289Y-78598823D01*
X126982815Y-78607252D01*
X126971374Y-78617164D01*
X126950962Y-78644071D01*
X126932555Y-78650801D01*
X126930011Y-78653007D01*
X126905364Y-78660745D01*
X126885343Y-78668067D01*
X126817167Y-78652777D01*
X126768079Y-78603056D01*
X126755958Y-78569909D01*
X126755167Y-78566157D01*
X126752500Y-78540577D01*
X126752500Y-78390000D01*
X126729940Y-78390000D01*
X126729938Y-78390000D01*
X126723397Y-78390759D01*
X126723396Y-78390759D01*
X126706117Y-78392764D01*
X126706116Y-78392764D01*
X126686815Y-78401285D01*
X126678715Y-78403617D01*
X126674133Y-78403592D01*
X126660517Y-78407404D01*
X126635359Y-78410697D01*
X126569180Y-78401180D01*
X126549004Y-78392271D01*
X126548999Y-78392270D01*
X126525124Y-78389500D01*
X126525123Y-78389500D01*
X126229884Y-78389500D01*
X126229879Y-78389500D01*
X126229847Y-78389503D01*
X126223373Y-78390254D01*
X126223370Y-78390254D01*
X126206004Y-78392269D01*
X126206003Y-78392269D01*
X126186270Y-78400981D01*
X126178250Y-78403301D01*
X126173653Y-78403281D01*
X126159906Y-78407131D01*
X126134748Y-78410425D01*
X126068564Y-78400908D01*
X126049004Y-78392271D01*
X126048999Y-78392270D01*
X126029433Y-78390000D01*
X126029430Y-78389998D01*
X126025135Y-78389501D01*
X126025130Y-78389500D01*
X126025124Y-78389500D01*
X126025116Y-78389500D01*
X125798782Y-78389500D01*
X125763842Y-78384476D01*
X125762786Y-78384166D01*
X125758962Y-78383043D01*
X125745788Y-78379174D01*
X125690988Y-78345771D01*
X125683799Y-78338232D01*
X125666151Y-78314657D01*
X125657978Y-78300500D01*
X125657973Y-78300493D01*
X125657972Y-78300491D01*
X125657968Y-78300486D01*
X125657964Y-78300482D01*
X125657960Y-78300477D01*
X122881770Y-75524288D01*
X122860621Y-75496038D01*
X122855199Y-75486108D01*
X122840346Y-75417838D01*
X122864760Y-75352373D01*
X122920690Y-75310501D01*
X122924569Y-75309054D01*
X122927905Y-75307811D01*
X122971219Y-75300000D01*
X123175000Y-75300000D01*
X123425000Y-75300000D01*
X123672828Y-75300000D01*
X123672836Y-75300000D01*
X123672847Y-75299999D01*
X123708560Y-75296158D01*
X123732372Y-75293598D01*
X123732379Y-75293596D01*
X123867086Y-75243354D01*
X123867093Y-75243350D01*
X123982187Y-75157190D01*
X123982190Y-75157187D01*
X124068350Y-75042093D01*
X124068354Y-75042086D01*
X124118596Y-74907379D01*
X124118598Y-74907372D01*
X124122111Y-74874700D01*
X124124998Y-74847860D01*
X124125000Y-74847826D01*
X124125000Y-74275000D01*
X123425000Y-74275000D01*
X123425000Y-75300000D01*
X123175000Y-75300000D01*
X123175000Y-74275000D01*
X122475000Y-74275000D01*
X122475000Y-74800326D01*
X122469976Y-74835264D01*
X122466789Y-74846117D01*
X122429014Y-74904894D01*
X122365457Y-74933917D01*
X122296307Y-74923976D01*
X122289329Y-74920789D01*
X122253157Y-74895675D01*
X120893998Y-73536515D01*
X120809629Y-73452146D01*
X122475000Y-73452146D01*
X122475000Y-73452155D01*
X122475000Y-74025000D01*
X123175000Y-74025000D01*
X123425000Y-74025000D01*
X124125000Y-74025000D01*
X124125000Y-73452172D01*
X124124999Y-73452155D01*
X124124998Y-73452146D01*
X124124998Y-73452138D01*
X124118598Y-73392628D01*
X124118596Y-73392621D01*
X124118596Y-73392620D01*
X124068354Y-73257913D01*
X124068350Y-73257906D01*
X124003677Y-73171515D01*
X123982191Y-73142813D01*
X123982185Y-73142807D01*
X123872969Y-73061048D01*
X123867093Y-73056649D01*
X123867086Y-73056645D01*
X123799732Y-73031524D01*
X123732377Y-73006402D01*
X123732370Y-73006400D01*
X123672852Y-73000000D01*
X123672844Y-73000000D01*
X123425000Y-73000000D01*
X123425000Y-74025000D01*
X123175000Y-74025000D01*
X123175000Y-73000000D01*
X122927146Y-73000000D01*
X122867628Y-73006400D01*
X122867621Y-73006402D01*
X122732910Y-73056646D01*
X122732907Y-73056648D01*
X122617813Y-73142807D01*
X122617807Y-73142813D01*
X122531648Y-73257907D01*
X122531646Y-73257910D01*
X122481402Y-73392621D01*
X122481400Y-73392628D01*
X122475000Y-73452146D01*
X120809629Y-73452146D01*
X119827021Y-72469538D01*
X119827014Y-72469532D01*
X119827008Y-72469527D01*
X119827003Y-72469523D01*
X119768266Y-72435612D01*
X119768261Y-72435609D01*
X119747090Y-72423387D01*
X119747089Y-72423386D01*
X119747088Y-72423386D01*
X119657944Y-72399500D01*
X119657943Y-72399500D01*
X117879829Y-72399500D01*
X117844888Y-72394475D01*
X117829889Y-72390070D01*
X117771143Y-72352327D01*
X117769956Y-72350958D01*
X117742476Y-72296083D01*
X117740831Y-72288521D01*
X117737999Y-72262168D01*
X117737999Y-72252122D01*
X117737839Y-72250197D01*
X117737612Y-72248538D01*
X117736235Y-72235729D01*
X117731591Y-72192517D01*
X117728689Y-72184737D01*
X117727508Y-72181571D01*
X117681298Y-72057673D01*
X117681297Y-72057671D01*
X117681295Y-72057668D01*
X117681293Y-72057664D01*
X117595047Y-71942455D01*
X117595044Y-71942452D01*
X117595042Y-71942450D01*
X117516470Y-71883631D01*
X117479835Y-71856206D01*
X117479831Y-71856204D01*
X117479827Y-71856201D01*
X117479825Y-71856200D01*
X117355154Y-71809702D01*
X117355151Y-71809701D01*
X117344986Y-71805910D01*
X117344985Y-71805909D01*
X117344983Y-71805909D01*
X117331521Y-71804461D01*
X117331514Y-71804460D01*
X117285383Y-71799501D01*
X117285381Y-71799500D01*
X117285373Y-71799500D01*
X117285365Y-71799500D01*
X116664726Y-71799500D01*
X116664629Y-71799500D01*
X116664623Y-71799501D01*
X116605014Y-71805909D01*
X116586121Y-71812955D01*
X116574623Y-71814924D01*
X116571137Y-71814517D01*
X116562548Y-71816386D01*
X116548708Y-71817376D01*
X116480435Y-71802525D01*
X116431030Y-71753121D01*
X116430899Y-71752881D01*
X116428161Y-71747865D01*
X116413000Y-71688451D01*
X116413000Y-70868895D01*
X116418022Y-70833962D01*
X116421933Y-70820643D01*
X116459706Y-70761866D01*
X116523255Y-70732841D01*
X116529169Y-70731991D01*
X116590155Y-70738547D01*
X116605017Y-70744091D01*
X116664627Y-70750500D01*
X117285372Y-70750499D01*
X117344983Y-70744091D01*
X117479831Y-70693796D01*
X117588213Y-70612660D01*
X117603083Y-70603104D01*
X117624524Y-70591394D01*
X117692791Y-70576537D01*
X117701643Y-70577169D01*
X117754801Y-70593467D01*
X117791562Y-70614691D01*
X117794586Y-70616569D01*
X117795014Y-70616683D01*
X117795015Y-70616684D01*
X117935025Y-70654200D01*
X117935028Y-70654200D01*
X118079972Y-70654200D01*
X118079975Y-70654200D01*
X118219985Y-70616684D01*
X118345515Y-70544209D01*
X118448009Y-70441715D01*
X118520484Y-70316185D01*
X118558000Y-70176175D01*
X118558000Y-70031225D01*
X118520484Y-69891215D01*
X118514142Y-69880231D01*
X118509812Y-69872730D01*
X118509811Y-69872729D01*
X118448016Y-69765696D01*
X118448008Y-69765684D01*
X118447993Y-69765668D01*
X118345530Y-69663205D01*
X118345514Y-69663190D01*
X118345506Y-69663185D01*
X118291743Y-69632145D01*
X118263308Y-69602324D01*
X118208507Y-69587639D01*
X118208507Y-69587640D01*
X118120908Y-69564168D01*
X118079975Y-69553200D01*
X118079974Y-69553200D01*
X117935023Y-69553200D01*
X117911308Y-69559554D01*
X117876270Y-69563743D01*
X117862397Y-69563413D01*
X117795845Y-69542140D01*
X117764513Y-69504194D01*
X125050001Y-69504194D01*
X125052850Y-69534603D01*
X125097652Y-69662644D01*
X125098055Y-69663190D01*
X125178207Y-69771792D01*
X125287354Y-69852346D01*
X125415397Y-69897149D01*
X125445766Y-69899997D01*
X125445768Y-69899997D01*
X125445778Y-69899998D01*
X125445806Y-69899999D01*
X125574999Y-69899999D01*
X125825000Y-69899999D01*
X125954190Y-69899999D01*
X125954196Y-69899999D01*
X125984606Y-69897148D01*
X126112645Y-69852346D01*
X126221792Y-69771792D01*
X126302346Y-69662645D01*
X126347149Y-69534604D01*
X126347149Y-69534600D01*
X126347523Y-69532398D01*
X126347691Y-69528822D01*
X126349999Y-69504216D01*
X126350000Y-69504197D01*
X126350000Y-68775000D01*
X125825000Y-68775000D01*
X125825000Y-69899999D01*
X125574999Y-69899999D01*
X125575000Y-69899998D01*
X125575000Y-68775000D01*
X125050001Y-68775000D01*
X125050001Y-69504194D01*
X117764513Y-69504194D01*
X117751359Y-69488263D01*
X117751355Y-69488255D01*
X117748008Y-69480438D01*
X117737999Y-69431631D01*
X117737999Y-69302152D01*
X117737999Y-69302129D01*
X117737998Y-69302123D01*
X117737997Y-69302116D01*
X117731591Y-69242517D01*
X117729203Y-69236115D01*
X117681297Y-69107671D01*
X117681293Y-69107664D01*
X117595047Y-68992455D01*
X117595044Y-68992452D01*
X117595042Y-68992450D01*
X117537116Y-68949086D01*
X117479835Y-68906206D01*
X117479831Y-68906204D01*
X117479827Y-68906201D01*
X117479825Y-68906200D01*
X117355154Y-68859702D01*
X117355151Y-68859701D01*
X117344986Y-68855910D01*
X117344985Y-68855909D01*
X117344983Y-68855909D01*
X117331521Y-68854461D01*
X117331514Y-68854460D01*
X117285383Y-68849501D01*
X117285381Y-68849500D01*
X117285373Y-68849500D01*
X117285365Y-68849500D01*
X116664623Y-68849500D01*
X116662692Y-68849659D01*
X116661045Y-68849885D01*
X116605072Y-68855902D01*
X116605016Y-68855908D01*
X116470177Y-68906200D01*
X116470166Y-68906204D01*
X116470165Y-68906205D01*
X116354956Y-68992450D01*
X116354950Y-68992456D01*
X116268705Y-69107665D01*
X116268703Y-69107668D01*
X116218407Y-69242516D01*
X116215400Y-69270500D01*
X116212001Y-69302118D01*
X116212000Y-69302139D01*
X116212000Y-70049126D01*
X116206976Y-70084064D01*
X116203789Y-70094917D01*
X116166014Y-70153694D01*
X116102457Y-70182717D01*
X116033307Y-70172776D01*
X116026329Y-70169589D01*
X115990157Y-70144475D01*
X115961925Y-70116243D01*
X115940773Y-70087987D01*
X115928166Y-70064898D01*
X115912999Y-70005473D01*
X115912999Y-69302152D01*
X115912999Y-69302129D01*
X115912998Y-69302123D01*
X115912997Y-69302116D01*
X115906591Y-69242517D01*
X115904203Y-69236115D01*
X115856297Y-69107671D01*
X115856293Y-69107664D01*
X115770047Y-68992455D01*
X115770044Y-68992452D01*
X115770042Y-68992450D01*
X115712116Y-68949086D01*
X115654835Y-68906206D01*
X115654831Y-68906204D01*
X115654827Y-68906201D01*
X115654825Y-68906200D01*
X115530154Y-68859702D01*
X115530151Y-68859701D01*
X115519986Y-68855910D01*
X115519985Y-68855909D01*
X115519983Y-68855909D01*
X115506521Y-68854461D01*
X115506514Y-68854460D01*
X115460383Y-68849501D01*
X115460381Y-68849500D01*
X115460373Y-68849500D01*
X115460365Y-68849500D01*
X114839623Y-68849500D01*
X114837692Y-68849659D01*
X114836045Y-68849885D01*
X114780072Y-68855902D01*
X114780016Y-68855908D01*
X114645177Y-68906200D01*
X114645166Y-68906204D01*
X114645165Y-68906205D01*
X114529956Y-68992450D01*
X114529950Y-68992456D01*
X114443705Y-69107665D01*
X114443703Y-69107668D01*
X114393407Y-69242516D01*
X114390400Y-69270500D01*
X114387001Y-69302118D01*
X114387000Y-69302139D01*
X114387000Y-70297876D01*
X114387159Y-70299806D01*
X114387385Y-70301454D01*
X114393407Y-70357482D01*
X114407181Y-70394411D01*
X114443702Y-70492328D01*
X114443706Y-70492335D01*
X114451500Y-70502746D01*
X114529950Y-70607542D01*
X114529956Y-70607548D01*
X114539498Y-70614691D01*
X114645164Y-70693793D01*
X114645169Y-70693796D01*
X114645171Y-70693797D01*
X114645173Y-70693798D01*
X114659781Y-70699246D01*
X114689000Y-70710144D01*
X114689002Y-70710145D01*
X114689003Y-70710145D01*
X114780017Y-70744091D01*
X114839627Y-70750500D01*
X115460372Y-70750499D01*
X115503082Y-70745907D01*
X115522942Y-70745374D01*
X115527950Y-70745641D01*
X115527951Y-70745642D01*
X115553668Y-70747015D01*
X115613148Y-70765922D01*
X115620562Y-70770593D01*
X115642143Y-70787825D01*
X115663073Y-70808755D01*
X115684223Y-70837007D01*
X115696831Y-70860096D01*
X115712000Y-70919525D01*
X115712000Y-71681103D01*
X115706975Y-71716044D01*
X115703064Y-71729361D01*
X115665287Y-71788137D01*
X115601729Y-71817159D01*
X115601724Y-71817160D01*
X115595815Y-71818009D01*
X115534851Y-71811452D01*
X115520007Y-71805916D01*
X115519990Y-71805910D01*
X115519988Y-71805910D01*
X115519984Y-71805909D01*
X115519981Y-71805908D01*
X115519983Y-71805908D01*
X115514857Y-71805277D01*
X115513371Y-71805198D01*
X115460383Y-71799501D01*
X115460381Y-71799500D01*
X115460373Y-71799500D01*
X115460365Y-71799500D01*
X114839623Y-71799500D01*
X114837692Y-71799659D01*
X114836045Y-71799885D01*
X114786621Y-71805198D01*
X114780016Y-71805908D01*
X114645177Y-71856200D01*
X114645166Y-71856204D01*
X114645165Y-71856205D01*
X114529956Y-71942450D01*
X114529950Y-71942456D01*
X114443705Y-72057665D01*
X114443703Y-72057668D01*
X114393407Y-72192516D01*
X114388763Y-72235729D01*
X114387000Y-72252130D01*
X114387000Y-72948125D01*
X114381976Y-72983062D01*
X114374564Y-73008303D01*
X114343269Y-73061048D01*
X114185825Y-73218491D01*
X114157569Y-73239642D01*
X114143848Y-73247134D01*
X114075580Y-73261985D01*
X114069496Y-73261550D01*
X114018268Y-73246344D01*
X113988024Y-73229596D01*
X113986096Y-73228506D01*
X113959143Y-73212945D01*
X113930708Y-73183124D01*
X113887381Y-73171515D01*
X113873942Y-73167914D01*
X113873941Y-73167913D01*
X113778910Y-73142450D01*
X113747375Y-73134000D01*
X113747374Y-73134000D01*
X113602425Y-73134000D01*
X113475857Y-73167914D01*
X113475856Y-73167914D01*
X113462413Y-73171515D01*
X113462412Y-73171516D01*
X113336892Y-73243985D01*
X113336884Y-73243990D01*
X113336868Y-73244005D01*
X113234405Y-73346468D01*
X113234390Y-73346484D01*
X113234385Y-73346492D01*
X113161917Y-73472009D01*
X113161889Y-73472078D01*
X113161648Y-73473011D01*
X113125193Y-73609066D01*
X113124400Y-73612025D01*
X113124400Y-73756975D01*
X113129533Y-73776131D01*
X113156714Y-73877573D01*
X113161916Y-73896987D01*
X113161918Y-73896991D01*
X113234385Y-74022506D01*
X113234390Y-74022514D01*
X113234405Y-74022530D01*
X113272087Y-74060211D01*
X113293239Y-74088466D01*
X113298659Y-74098392D01*
X113313511Y-74166665D01*
X113289094Y-74232129D01*
X113233161Y-74274001D01*
X113225973Y-74276682D01*
X113182639Y-74284500D01*
X111250349Y-74284500D01*
X111215412Y-74279476D01*
X111199032Y-74274666D01*
X111142014Y-74238879D01*
X111133084Y-74229008D01*
X111114554Y-74202114D01*
X111068493Y-74111715D01*
X111061705Y-74098392D01*
X111041232Y-74058212D01*
X110939414Y-73918072D01*
X110816928Y-73795586D01*
X110676788Y-73693768D01*
X110665974Y-73688258D01*
X110522449Y-73615128D01*
X110371215Y-73565988D01*
X110371203Y-73565985D01*
X110357701Y-73561598D01*
X110357699Y-73561597D01*
X110357698Y-73561597D01*
X110343312Y-73559318D01*
X110343306Y-73559317D01*
X110245547Y-73543834D01*
X110226271Y-73540781D01*
X110210407Y-73538268D01*
X110186614Y-73534500D01*
X110186611Y-73534500D01*
X110013389Y-73534500D01*
X110013388Y-73534500D01*
X109973726Y-73540781D01*
X109973725Y-73540780D01*
X109842304Y-73561596D01*
X109677549Y-73615129D01*
X109523211Y-73693767D01*
X109469730Y-73732625D01*
X109469729Y-73732625D01*
X109394942Y-73786961D01*
X109387563Y-73791093D01*
X109256093Y-73922563D01*
X109251963Y-73929939D01*
X109226513Y-73964969D01*
X109226512Y-73964970D01*
X109175632Y-74035000D01*
X109158768Y-74058211D01*
X109158766Y-74058213D01*
X109158764Y-74058218D01*
X109080129Y-74212549D01*
X109026596Y-74377305D01*
X108999500Y-74548383D01*
X108999500Y-74721614D01*
X109010483Y-74790955D01*
X109019490Y-74847827D01*
X109026598Y-74892701D01*
X109080127Y-75057445D01*
X109158768Y-75211788D01*
X109260586Y-75351928D01*
X109383072Y-75474414D01*
X109523212Y-75576232D01*
X109677555Y-75654873D01*
X109842299Y-75708402D01*
X110013389Y-75735500D01*
X110013390Y-75735500D01*
X110186610Y-75735500D01*
X110186611Y-75735500D01*
X110357701Y-75708402D01*
X110522445Y-75654873D01*
X110676788Y-75576232D01*
X110816928Y-75474414D01*
X110939414Y-75351928D01*
X111041232Y-75211788D01*
X111112011Y-75072876D01*
X111113939Y-75069091D01*
X111134273Y-75040246D01*
X111145995Y-75027834D01*
X111203768Y-74993277D01*
X111216619Y-74989800D01*
X111248993Y-74985500D01*
X114255966Y-74985500D01*
X114290898Y-74990521D01*
X114304217Y-74994432D01*
X114362995Y-75032206D01*
X114392021Y-75095761D01*
X114392021Y-75095762D01*
X114393529Y-75106250D01*
X114393099Y-75138584D01*
X114393823Y-75138662D01*
X114393408Y-75142514D01*
X114393408Y-75142518D01*
X114389098Y-75182614D01*
X114387000Y-75202126D01*
X114387000Y-76197876D01*
X114387159Y-76199806D01*
X114387385Y-76201454D01*
X114393407Y-76257482D01*
X114417182Y-76321224D01*
X114443702Y-76392328D01*
X114443706Y-76392335D01*
X114529952Y-76507544D01*
X114529955Y-76507547D01*
X114631035Y-76583216D01*
X114654573Y-76606316D01*
X114666249Y-76621317D01*
X114675972Y-76629150D01*
X114698049Y-76695440D01*
X114680782Y-76763143D01*
X114629654Y-76810763D01*
X114596168Y-76821915D01*
X114592785Y-76822526D01*
X114570746Y-76824500D01*
X111250349Y-76824500D01*
X111215412Y-76819476D01*
X111199032Y-76814666D01*
X111142019Y-76778884D01*
X111133088Y-76769013D01*
X111114555Y-76742117D01*
X111064608Y-76644091D01*
X111041232Y-76598212D01*
X111041229Y-76598208D01*
X111041229Y-76598207D01*
X110997424Y-76537916D01*
X110939414Y-76458072D01*
X110816928Y-76335586D01*
X110676788Y-76233768D01*
X110613368Y-76201454D01*
X110522449Y-76155128D01*
X110371227Y-76105992D01*
X110371216Y-76105989D01*
X110357701Y-76101598D01*
X110357699Y-76101597D01*
X110357698Y-76101597D01*
X110343296Y-76099316D01*
X110343292Y-76099315D01*
X110219758Y-76079750D01*
X110186611Y-76074500D01*
X110186610Y-76074500D01*
X110013390Y-76074500D01*
X110013389Y-76074500D01*
X109980242Y-76079750D01*
X109980241Y-76079750D01*
X109842302Y-76101596D01*
X109842301Y-76101596D01*
X109677547Y-76155129D01*
X109523218Y-76233764D01*
X109523205Y-76233772D01*
X109457109Y-76281794D01*
X109402837Y-76321224D01*
X109402830Y-76321230D01*
X109383072Y-76335586D01*
X109383070Y-76335588D01*
X109383069Y-76335588D01*
X109260588Y-76458069D01*
X109260588Y-76458070D01*
X109260586Y-76458072D01*
X109246232Y-76477827D01*
X109246224Y-76477836D01*
X109216859Y-76518255D01*
X109216859Y-76518256D01*
X109158768Y-76598210D01*
X109080129Y-76752549D01*
X109080128Y-76752551D01*
X109080128Y-76752552D01*
X109026599Y-76917298D01*
X109026598Y-76917300D01*
X109026596Y-76917305D01*
X108999500Y-77088383D01*
X108999500Y-77261614D01*
X109023867Y-77415464D01*
X109026597Y-77432698D01*
X109026598Y-77432701D01*
X109080127Y-77597445D01*
X109158768Y-77751788D01*
X109260586Y-77891928D01*
X109383072Y-78014414D01*
X109523212Y-78116232D01*
X109677555Y-78194873D01*
X109842299Y-78248402D01*
X110013389Y-78275500D01*
X110013390Y-78275500D01*
X110186610Y-78275500D01*
X110186611Y-78275500D01*
X110357701Y-78248402D01*
X110522445Y-78194873D01*
X110676788Y-78116232D01*
X110816928Y-78014414D01*
X110939414Y-77891928D01*
X111041232Y-77751788D01*
X111113940Y-77609089D01*
X111134272Y-77580246D01*
X111145999Y-77567830D01*
X111203768Y-77533277D01*
X111216619Y-77529800D01*
X111248993Y-77525500D01*
X114564014Y-77525500D01*
X114598946Y-77530521D01*
X114609713Y-77533683D01*
X114668492Y-77571457D01*
X114697518Y-77635012D01*
X114687575Y-77704171D01*
X114652584Y-77749214D01*
X114629194Y-77768062D01*
X114625702Y-77770775D01*
X114529958Y-77842448D01*
X114529950Y-77842456D01*
X114443705Y-77957665D01*
X114443703Y-77957668D01*
X114393407Y-78092517D01*
X114390859Y-78116231D01*
X114387000Y-78152133D01*
X114387000Y-79147876D01*
X114387159Y-79149806D01*
X114387385Y-79151454D01*
X114393407Y-79207482D01*
X114412330Y-79258215D01*
X114443702Y-79342328D01*
X114443706Y-79342335D01*
X114450912Y-79351961D01*
X114529950Y-79457542D01*
X114529952Y-79457544D01*
X114529955Y-79457547D01*
X114645164Y-79543793D01*
X114645171Y-79543797D01*
X114690118Y-79560561D01*
X114780017Y-79594091D01*
X114839627Y-79600500D01*
X115460372Y-79600499D01*
X115519983Y-79594091D01*
X115644889Y-79547503D01*
X115679364Y-79540005D01*
X115694965Y-79538889D01*
X115763227Y-79553741D01*
X115776948Y-79561233D01*
X115805204Y-79582385D01*
X115893339Y-79670520D01*
X115914490Y-79698773D01*
X115921142Y-79710955D01*
X115935994Y-79779228D01*
X115911578Y-79844693D01*
X115911575Y-79844697D01*
X115906479Y-79851504D01*
X115869216Y-79884576D01*
X115807185Y-79920390D01*
X115807182Y-79920392D01*
X115807176Y-79920397D01*
X115704705Y-80022868D01*
X115704690Y-80022884D01*
X115704685Y-80022892D01*
X115632717Y-80147542D01*
X115632716Y-80147546D01*
X115632217Y-80148411D01*
X115632216Y-80148415D01*
X115594700Y-80288425D01*
X115594700Y-80288427D01*
X115594700Y-80357655D01*
X115592719Y-80368604D01*
X115591045Y-80371943D01*
X115589676Y-80381466D01*
X115582264Y-80406705D01*
X115550970Y-80459445D01*
X115471659Y-80538758D01*
X115409844Y-80600573D01*
X115381592Y-80621723D01*
X115358503Y-80634331D01*
X115299074Y-80649500D01*
X114839623Y-80649500D01*
X114837692Y-80649659D01*
X114836045Y-80649885D01*
X114780016Y-80655908D01*
X114699553Y-80685919D01*
X114645166Y-80706204D01*
X114645165Y-80706205D01*
X114529956Y-80792450D01*
X114529950Y-80792456D01*
X114443705Y-80907665D01*
X114443703Y-80907668D01*
X114393407Y-81042516D01*
X114387000Y-81102127D01*
X114387000Y-82097876D01*
X114387159Y-82099806D01*
X114387385Y-82101454D01*
X114393407Y-82157482D01*
X114416794Y-82220185D01*
X114443702Y-82292328D01*
X114443706Y-82292335D01*
X114481130Y-82342327D01*
X114529950Y-82407542D01*
X114529952Y-82407544D01*
X114529955Y-82407547D01*
X114645164Y-82493793D01*
X114645171Y-82493797D01*
X114690118Y-82510561D01*
X114780017Y-82544091D01*
X114839627Y-82550500D01*
X115211629Y-82550499D01*
X115246552Y-82555518D01*
X115257408Y-82558706D01*
X115316186Y-82596475D01*
X115345216Y-82660028D01*
X115335277Y-82729187D01*
X115335272Y-82729199D01*
X115332085Y-82736177D01*
X115306973Y-82772343D01*
X114906444Y-83172873D01*
X114878193Y-83194022D01*
X114855105Y-83206630D01*
X114795675Y-83221800D01*
X111276556Y-83221800D01*
X111187425Y-83245682D01*
X111187408Y-83245687D01*
X111187403Y-83245689D01*
X111107491Y-83291826D01*
X111107490Y-83291827D01*
X111107484Y-83291832D01*
X111107477Y-83291838D01*
X110665576Y-83733739D01*
X110637320Y-83754891D01*
X110622337Y-83763072D01*
X110556726Y-83778085D01*
X110551506Y-83777824D01*
X110543428Y-83777420D01*
X110511303Y-83771506D01*
X110357698Y-83721597D01*
X110226271Y-83700781D01*
X110210407Y-83698268D01*
X110186614Y-83694500D01*
X110186611Y-83694500D01*
X110013389Y-83694500D01*
X110013388Y-83694500D01*
X109973726Y-83700781D01*
X109973725Y-83700780D01*
X109842304Y-83721596D01*
X109677549Y-83775129D01*
X109523210Y-83853768D01*
X109443256Y-83911859D01*
X109443255Y-83911859D01*
X109394941Y-83946961D01*
X109387564Y-83951092D01*
X109256093Y-84082563D01*
X109251962Y-84089940D01*
X109230712Y-84119189D01*
X109230711Y-84119191D01*
X109158768Y-84218210D01*
X109080129Y-84372549D01*
X109026596Y-84537305D01*
X108999500Y-84708383D01*
X108999500Y-84881614D01*
X109009008Y-84941644D01*
X109017871Y-84997608D01*
X109017874Y-84997623D01*
X109026156Y-85049914D01*
X109026598Y-85052701D01*
X109080127Y-85217445D01*
X109158768Y-85371788D01*
X109260586Y-85511928D01*
X109383072Y-85634414D01*
X109523212Y-85736232D01*
X109677555Y-85814873D01*
X109842299Y-85868402D01*
X110013389Y-85895500D01*
X110013390Y-85895500D01*
X110186610Y-85895500D01*
X110186611Y-85895500D01*
X110357701Y-85868402D01*
X110522445Y-85814873D01*
X110676788Y-85736232D01*
X110816928Y-85634414D01*
X110939414Y-85511928D01*
X111041232Y-85371788D01*
X111119873Y-85217445D01*
X111173402Y-85052701D01*
X111200500Y-84881611D01*
X111200500Y-84708389D01*
X111173402Y-84537299D01*
X111123907Y-84384972D01*
X111117891Y-84350204D01*
X111117404Y-84333141D01*
X111133813Y-84267869D01*
X111140446Y-84256318D01*
X111160291Y-84230389D01*
X111418958Y-83971721D01*
X111447214Y-83950571D01*
X111470303Y-83937965D01*
X111529724Y-83922800D01*
X114360216Y-83922800D01*
X114395151Y-83927823D01*
X114409172Y-83931940D01*
X114467950Y-83969715D01*
X114496640Y-84031082D01*
X114498632Y-84043375D01*
X114498920Y-84072678D01*
X114499812Y-84072742D01*
X114499500Y-84077131D01*
X114499500Y-85072876D01*
X114499659Y-85074806D01*
X114499885Y-85076454D01*
X114505907Y-85132482D01*
X114523073Y-85178506D01*
X114556202Y-85267328D01*
X114556203Y-85267330D01*
X114556204Y-85267332D01*
X114556205Y-85267333D01*
X114642450Y-85382542D01*
X114642452Y-85382544D01*
X114642455Y-85382547D01*
X114757664Y-85468793D01*
X114757671Y-85468797D01*
X114757674Y-85468798D01*
X114787211Y-85479815D01*
X114787212Y-85479815D01*
X114892517Y-85519091D01*
X114952127Y-85525500D01*
X115572872Y-85525499D01*
X115615582Y-85520907D01*
X115635442Y-85520374D01*
X115640450Y-85520641D01*
X115640451Y-85520642D01*
X115666168Y-85522015D01*
X115725648Y-85540922D01*
X115733062Y-85545593D01*
X115754643Y-85562825D01*
X116119829Y-85928011D01*
X116140978Y-85956261D01*
X116146399Y-85966188D01*
X116161253Y-86034461D01*
X116136839Y-86099926D01*
X116080907Y-86141799D01*
X116080903Y-86141801D01*
X116073715Y-86144482D01*
X116030381Y-86152300D01*
X112037756Y-86152300D01*
X111948625Y-86176182D01*
X111948608Y-86176187D01*
X111948603Y-86176189D01*
X111868691Y-86222326D01*
X111868689Y-86222328D01*
X111868682Y-86222334D01*
X111424788Y-86666229D01*
X111396538Y-86687378D01*
X111386611Y-86692799D01*
X111318338Y-86707653D01*
X111252873Y-86683239D01*
X111211000Y-86627307D01*
X111208313Y-86620101D01*
X111200500Y-86576781D01*
X111200500Y-86460139D01*
X111200064Y-86458134D01*
X111185972Y-86387289D01*
X111185967Y-86387266D01*
X111185966Y-86387260D01*
X111185701Y-86386864D01*
X111165475Y-86356593D01*
X111165474Y-86356591D01*
X111130604Y-86304402D01*
X111130600Y-86304398D01*
X111075235Y-86267405D01*
X111047740Y-86249033D01*
X111047737Y-86249032D01*
X111047735Y-86249032D01*
X111047725Y-86249030D01*
X111047709Y-86249026D01*
X110974680Y-86234500D01*
X110974677Y-86234500D01*
X110974674Y-86234500D01*
X109225326Y-86234500D01*
X109225323Y-86234500D01*
X109225319Y-86234500D01*
X109152285Y-86249027D01*
X109152262Y-86249032D01*
X109152258Y-86249033D01*
X109069399Y-86304399D01*
X109014033Y-86387258D01*
X109014032Y-86387266D01*
X109014028Y-86387281D01*
X108999500Y-86460318D01*
X108999500Y-86460321D01*
X108999500Y-88209678D01*
X108999500Y-88209680D01*
X108999499Y-88209680D01*
X109012093Y-88272989D01*
X109014032Y-88282735D01*
X109014033Y-88282739D01*
X109014034Y-88282740D01*
X109069399Y-88365601D01*
X109149008Y-88418793D01*
X109152260Y-88420966D01*
X109152264Y-88420967D01*
X109217681Y-88433979D01*
X109220415Y-88434703D01*
X109225323Y-88435500D01*
X110974676Y-88435500D01*
X110978796Y-88435500D01*
X110986648Y-88433117D01*
X111047740Y-88420966D01*
X111130601Y-88365601D01*
X111185966Y-88282740D01*
X111200500Y-88209674D01*
X111200500Y-87824560D01*
X111205523Y-87789624D01*
X111207227Y-87783823D01*
X111209927Y-87774625D01*
X111247690Y-87715859D01*
X111248910Y-87714800D01*
X111254393Y-87710050D01*
X111303507Y-87683982D01*
X111386988Y-87661614D01*
X111396885Y-87655900D01*
X111396886Y-87655900D01*
X111466905Y-87615474D01*
X111466904Y-87615474D01*
X111466912Y-87615470D01*
X112180158Y-86902223D01*
X112208408Y-86881075D01*
X112231500Y-86868467D01*
X112290925Y-86853300D01*
X114362313Y-86853300D01*
X114397241Y-86858320D01*
X114411265Y-86862438D01*
X114470043Y-86900209D01*
X114498735Y-86961574D01*
X114500759Y-86974060D01*
X114501646Y-87007159D01*
X114499500Y-87027110D01*
X114499500Y-88022870D01*
X114499659Y-88024806D01*
X114499885Y-88026454D01*
X114505907Y-88082482D01*
X114531122Y-88150084D01*
X114556202Y-88217328D01*
X114556206Y-88217335D01*
X114597869Y-88272989D01*
X114642450Y-88332542D01*
X114642452Y-88332544D01*
X114642455Y-88332547D01*
X114757664Y-88418793D01*
X114757671Y-88418797D01*
X114757673Y-88418798D01*
X114802451Y-88435499D01*
X114802452Y-88435499D01*
X114892517Y-88469091D01*
X114952127Y-88475500D01*
X115572872Y-88475499D01*
X115615582Y-88470907D01*
X115635442Y-88470374D01*
X115640450Y-88470641D01*
X115640451Y-88470642D01*
X115666168Y-88472015D01*
X115725648Y-88490922D01*
X115733062Y-88495593D01*
X115754643Y-88512825D01*
X116141528Y-88899710D01*
X116162680Y-88927966D01*
X116170172Y-88941687D01*
X116185024Y-89009947D01*
X116184895Y-89011753D01*
X116165527Y-89069956D01*
X116161346Y-89076462D01*
X116144710Y-89097105D01*
X115757423Y-89484392D01*
X115729171Y-89505542D01*
X115711785Y-89515036D01*
X115651257Y-89530200D01*
X115629708Y-89530009D01*
X115617559Y-89529304D01*
X115573318Y-89524547D01*
X115573253Y-89524521D01*
X115572885Y-89524500D01*
X115572882Y-89524501D01*
X115572873Y-89524500D01*
X115572863Y-89524500D01*
X114952129Y-89524500D01*
X114952123Y-89524500D01*
X114950192Y-89524659D01*
X114948545Y-89524885D01*
X114896451Y-89530485D01*
X114892516Y-89530908D01*
X114764077Y-89578813D01*
X114757666Y-89581204D01*
X114757665Y-89581205D01*
X114642456Y-89667450D01*
X114642450Y-89667456D01*
X114556205Y-89782665D01*
X114556203Y-89782668D01*
X114505907Y-89917516D01*
X114502311Y-89950978D01*
X114500958Y-89963569D01*
X114500945Y-89963686D01*
X114499501Y-89977116D01*
X114499500Y-89977132D01*
X114499500Y-90972869D01*
X114499501Y-90972894D01*
X114499527Y-90973126D01*
X114501279Y-90989424D01*
X114500018Y-91024697D01*
X114497424Y-91039072D01*
X114466147Y-91101551D01*
X114408211Y-91136631D01*
X114396011Y-91139979D01*
X114363195Y-91144400D01*
X110666873Y-91144400D01*
X110631937Y-91139377D01*
X110606695Y-91131965D01*
X110553950Y-91100669D01*
X109007726Y-89554444D01*
X108986574Y-89526188D01*
X108973967Y-89503099D01*
X108958800Y-89443674D01*
X108958800Y-89378227D01*
X108958800Y-89378225D01*
X108921284Y-89238215D01*
X108898965Y-89199558D01*
X108848811Y-89112688D01*
X108848806Y-89112682D01*
X108848793Y-89112668D01*
X108746330Y-89010205D01*
X108746314Y-89010190D01*
X108746306Y-89010185D01*
X108692543Y-88979145D01*
X108664108Y-88949324D01*
X108609307Y-88934639D01*
X108609307Y-88934640D01*
X108542447Y-88916725D01*
X108480775Y-88900200D01*
X108480774Y-88900200D01*
X108335825Y-88900200D01*
X108207294Y-88934639D01*
X108207293Y-88934640D01*
X108199638Y-88936691D01*
X108195810Y-88937717D01*
X108070291Y-89010185D01*
X108070284Y-89010190D01*
X108070268Y-89010205D01*
X107967805Y-89112668D01*
X107967790Y-89112684D01*
X107967785Y-89112692D01*
X107895317Y-89238209D01*
X107895289Y-89238278D01*
X107895048Y-89239211D01*
X107860711Y-89367361D01*
X107857800Y-89378225D01*
X107500500Y-89378225D01*
X107500500Y-82168383D01*
X108999500Y-82168383D01*
X108999500Y-82341614D01*
X109024208Y-82497617D01*
X109024211Y-82497638D01*
X109026598Y-82512701D01*
X109080127Y-82677445D01*
X109158768Y-82831788D01*
X109260586Y-82971928D01*
X109383072Y-83094414D01*
X109523212Y-83196232D01*
X109677555Y-83274873D01*
X109842299Y-83328402D01*
X110013389Y-83355500D01*
X110013390Y-83355500D01*
X110186610Y-83355500D01*
X110186611Y-83355500D01*
X110357701Y-83328402D01*
X110522445Y-83274873D01*
X110676788Y-83196232D01*
X110816928Y-83094414D01*
X110939414Y-82971928D01*
X111041232Y-82831788D01*
X111119873Y-82677445D01*
X111173402Y-82512701D01*
X111200500Y-82341611D01*
X111200500Y-82168389D01*
X111173402Y-81997299D01*
X111119873Y-81832555D01*
X111041232Y-81678212D01*
X110939414Y-81538072D01*
X110816928Y-81415586D01*
X110676788Y-81313768D01*
X110522449Y-81235128D01*
X110371215Y-81185988D01*
X110371203Y-81185985D01*
X110357701Y-81181598D01*
X110357699Y-81181597D01*
X110357698Y-81181597D01*
X110343312Y-81179318D01*
X110343306Y-81179317D01*
X110253188Y-81165044D01*
X110226271Y-81160781D01*
X110208528Y-81157971D01*
X110186614Y-81154500D01*
X110186611Y-81154500D01*
X110013389Y-81154500D01*
X110013388Y-81154500D01*
X109973726Y-81160781D01*
X109973725Y-81160780D01*
X109842304Y-81181596D01*
X109677549Y-81235129D01*
X109523210Y-81313768D01*
X109476756Y-81347519D01*
X109447784Y-81368570D01*
X109394943Y-81406961D01*
X109387562Y-81411094D01*
X109256093Y-81542563D01*
X109251964Y-81549937D01*
X109239139Y-81567591D01*
X109224499Y-81587742D01*
X109197796Y-81624495D01*
X109158768Y-81678210D01*
X109080129Y-81832549D01*
X109026596Y-81997305D01*
X108999500Y-82168383D01*
X107500500Y-82168383D01*
X107500500Y-79628389D01*
X108999500Y-79628389D01*
X108999500Y-79801611D01*
X108999647Y-79802539D01*
X108999647Y-79802540D01*
X109001485Y-79814144D01*
X109001485Y-79814145D01*
X109018312Y-79920389D01*
X109024157Y-79957294D01*
X109026598Y-79972701D01*
X109080127Y-80137445D01*
X109080128Y-80137447D01*
X109096701Y-80169973D01*
X109158768Y-80291788D01*
X109260586Y-80431928D01*
X109383072Y-80554414D01*
X109523212Y-80656232D01*
X109677555Y-80734873D01*
X109842299Y-80788402D01*
X110013389Y-80815500D01*
X110013390Y-80815500D01*
X110186610Y-80815500D01*
X110186611Y-80815500D01*
X110357701Y-80788402D01*
X110522445Y-80734873D01*
X110676788Y-80656232D01*
X110816928Y-80554414D01*
X110939414Y-80431928D01*
X111041232Y-80291788D01*
X111119873Y-80137445D01*
X111173402Y-79972701D01*
X111200500Y-79801611D01*
X111200500Y-79628389D01*
X111173402Y-79457299D01*
X111119873Y-79292555D01*
X111041232Y-79138212D01*
X110939414Y-78998072D01*
X110816928Y-78875586D01*
X110676788Y-78773768D01*
X110625711Y-78747743D01*
X110522449Y-78695128D01*
X110371215Y-78645988D01*
X110371203Y-78645985D01*
X110357701Y-78641598D01*
X110357699Y-78641597D01*
X110357698Y-78641597D01*
X110343312Y-78639318D01*
X110343306Y-78639317D01*
X110253188Y-78625044D01*
X110226271Y-78620781D01*
X110210407Y-78618268D01*
X110186614Y-78614500D01*
X110186611Y-78614500D01*
X110013389Y-78614500D01*
X110013388Y-78614500D01*
X109973726Y-78620781D01*
X109973725Y-78620780D01*
X109842304Y-78641596D01*
X109677549Y-78695129D01*
X109523210Y-78773768D01*
X109485605Y-78801091D01*
X109457936Y-78821194D01*
X109396328Y-78865955D01*
X109394942Y-78866962D01*
X109387562Y-78871094D01*
X109256092Y-79002564D01*
X109251961Y-79009941D01*
X109158770Y-79138207D01*
X109080101Y-79292604D01*
X109079630Y-79293546D01*
X109078547Y-79297416D01*
X109063956Y-79342325D01*
X109063955Y-79342327D01*
X109026596Y-79457304D01*
X109026595Y-79457306D01*
X109006881Y-79581784D01*
X109003917Y-79600499D01*
X108999500Y-79628389D01*
X107500500Y-79628389D01*
X107500500Y-72008423D01*
X109000000Y-72008423D01*
X109000000Y-72181575D01*
X109027084Y-72352584D01*
X109051878Y-72428888D01*
X109080591Y-72517257D01*
X109080592Y-72517258D01*
X109080593Y-72517263D01*
X109159190Y-72671514D01*
X109159194Y-72671521D01*
X109238097Y-72780124D01*
X109570378Y-72447842D01*
X109631699Y-72414359D01*
X109701390Y-72419343D01*
X109745738Y-72447844D01*
X109747153Y-72449259D01*
X109780638Y-72510582D01*
X109775654Y-72580274D01*
X109747153Y-72624621D01*
X109414874Y-72956900D01*
X109414874Y-72956901D01*
X109523478Y-73035805D01*
X109523484Y-73035808D01*
X109677735Y-73114405D01*
X109677739Y-73114406D01*
X109677742Y-73114408D01*
X109842415Y-73167914D01*
X110013429Y-73195000D01*
X110186570Y-73195000D01*
X110186571Y-73195000D01*
X110357584Y-73167914D01*
X110522257Y-73114408D01*
X110676528Y-73035801D01*
X110680392Y-73032994D01*
X110785118Y-72956907D01*
X110785120Y-72956904D01*
X110785124Y-72956902D01*
X110785125Y-72956901D01*
X110452845Y-72624621D01*
X110419361Y-72563299D01*
X110424345Y-72493607D01*
X110452846Y-72449260D01*
X110454260Y-72447846D01*
X110515583Y-72414361D01*
X110585275Y-72419345D01*
X110629622Y-72447846D01*
X110961901Y-72780125D01*
X110961902Y-72780124D01*
X110961904Y-72780120D01*
X110961907Y-72780118D01*
X111040799Y-72671531D01*
X111040804Y-72671522D01*
X111119405Y-72517263D01*
X111119407Y-72517258D01*
X111119408Y-72517257D01*
X111172914Y-72352584D01*
X111200000Y-72181571D01*
X111200000Y-72008428D01*
X111172914Y-71837415D01*
X111119408Y-71672742D01*
X111119406Y-71672739D01*
X111119405Y-71672735D01*
X111045991Y-71528656D01*
X111040805Y-71518478D01*
X110961901Y-71409874D01*
X110961900Y-71409874D01*
X110629621Y-71742153D01*
X110568298Y-71775638D01*
X110498606Y-71770654D01*
X110454259Y-71742153D01*
X110452844Y-71740738D01*
X110419359Y-71679415D01*
X110424343Y-71609723D01*
X110452840Y-71565380D01*
X110785124Y-71233097D01*
X110785121Y-71233095D01*
X110676521Y-71154194D01*
X110676514Y-71154190D01*
X110522263Y-71075593D01*
X110522259Y-71075592D01*
X110522257Y-71075591D01*
X110431485Y-71046097D01*
X110357584Y-71022084D01*
X110186575Y-70995000D01*
X110186571Y-70995000D01*
X110013429Y-70995000D01*
X110013425Y-70995000D01*
X109842416Y-71022084D01*
X109842410Y-71022086D01*
X109768514Y-71046097D01*
X109677742Y-71075591D01*
X109677740Y-71075591D01*
X109677740Y-71075592D01*
X109523899Y-71153979D01*
X109523499Y-71154180D01*
X109523472Y-71154196D01*
X109414874Y-71233095D01*
X109414873Y-71233096D01*
X109747154Y-71565377D01*
X109780639Y-71626700D01*
X109775655Y-71696392D01*
X109747154Y-71740739D01*
X109745739Y-71742154D01*
X109684416Y-71775639D01*
X109614724Y-71770655D01*
X109570377Y-71742154D01*
X109238097Y-71409874D01*
X109238096Y-71409874D01*
X109159196Y-71518472D01*
X109159180Y-71518499D01*
X109158979Y-71518899D01*
X109125593Y-71584422D01*
X109080591Y-71672742D01*
X109075487Y-71688451D01*
X109027084Y-71837414D01*
X109000000Y-72008423D01*
X107500500Y-72008423D01*
X107500500Y-69468389D01*
X108999500Y-69468389D01*
X108999500Y-69641611D01*
X109002918Y-69663191D01*
X109004223Y-69671436D01*
X109004224Y-69671441D01*
X109026595Y-69812692D01*
X109026596Y-69812693D01*
X109026597Y-69812697D01*
X109080128Y-69977447D01*
X109107529Y-70031225D01*
X109158766Y-70131786D01*
X109175369Y-70154637D01*
X109260586Y-70271928D01*
X109383072Y-70394414D01*
X109523212Y-70496232D01*
X109677555Y-70574873D01*
X109842299Y-70628402D01*
X110013389Y-70655500D01*
X110013390Y-70655500D01*
X110186610Y-70655500D01*
X110186611Y-70655500D01*
X110357701Y-70628402D01*
X110522445Y-70574873D01*
X110676788Y-70496232D01*
X110816928Y-70394414D01*
X110939414Y-70271928D01*
X111041232Y-70131788D01*
X111119873Y-69977445D01*
X111173402Y-69812701D01*
X111200500Y-69641611D01*
X111200500Y-69468389D01*
X111173402Y-69297299D01*
X111119873Y-69132555D01*
X111041232Y-68978212D01*
X110939414Y-68838072D01*
X110816928Y-68715586D01*
X110676788Y-68613768D01*
X110522449Y-68535128D01*
X110371215Y-68485988D01*
X110371203Y-68485985D01*
X110357701Y-68481598D01*
X110357699Y-68481597D01*
X110357698Y-68481597D01*
X110343312Y-68479318D01*
X110343306Y-68479317D01*
X110253188Y-68465044D01*
X110226271Y-68460781D01*
X110210407Y-68458268D01*
X110186614Y-68454500D01*
X110186611Y-68454500D01*
X110013389Y-68454500D01*
X110013388Y-68454500D01*
X109973726Y-68460781D01*
X109973725Y-68460780D01*
X109842304Y-68481596D01*
X109677549Y-68535129D01*
X109523210Y-68613768D01*
X109487322Y-68639843D01*
X109464939Y-68656106D01*
X109394942Y-68706962D01*
X109387562Y-68711094D01*
X109256095Y-68842561D01*
X109251966Y-68849936D01*
X109248680Y-68854460D01*
X109247627Y-68855909D01*
X109158768Y-68978211D01*
X109158765Y-68978215D01*
X109158764Y-68978218D01*
X109080129Y-69132547D01*
X109026598Y-69297297D01*
X109026596Y-69297303D01*
X109014261Y-69375185D01*
X109014262Y-69375186D01*
X108999500Y-69468389D01*
X107500500Y-69468389D01*
X107500500Y-67795793D01*
X125050000Y-67795793D01*
X125050000Y-68525000D01*
X125575000Y-68525000D01*
X125825000Y-68525000D01*
X126349999Y-68525000D01*
X126349999Y-67795803D01*
X126347148Y-67765393D01*
X126347115Y-67765300D01*
X126302346Y-67637354D01*
X126247185Y-67562614D01*
X126221792Y-67528207D01*
X126112645Y-67447653D01*
X126112644Y-67447652D01*
X125984599Y-67402849D01*
X125984601Y-67402849D01*
X125954211Y-67400000D01*
X125954207Y-67400000D01*
X125825000Y-67400000D01*
X125825000Y-68525000D01*
X125575000Y-68525000D01*
X125575000Y-67400000D01*
X125445810Y-67400000D01*
X125445804Y-67400000D01*
X125419737Y-67402443D01*
X125415392Y-67402851D01*
X125415391Y-67402851D01*
X125287354Y-67447652D01*
X125178207Y-67528207D01*
X125097652Y-67637354D01*
X125052849Y-67765396D01*
X125052829Y-67765513D01*
X125052828Y-67765627D01*
X125050000Y-67795793D01*
X107500500Y-67795793D01*
X107500500Y-64796519D01*
X131712500Y-64796519D01*
X131712500Y-64796536D01*
X131712500Y-65175000D01*
X132325000Y-65175000D01*
X132575000Y-65175000D01*
X133187500Y-65175000D01*
X133187500Y-64793681D01*
X133186672Y-64788849D01*
X133181175Y-64737711D01*
X133131561Y-64604690D01*
X133131559Y-64604687D01*
X133046473Y-64491026D01*
X132932812Y-64405940D01*
X132932809Y-64405938D01*
X132932807Y-64405937D01*
X132885153Y-64388163D01*
X132849803Y-64361700D01*
X132740965Y-64350000D01*
X132740963Y-64350000D01*
X132575000Y-64350000D01*
X132575000Y-65175000D01*
X132325000Y-65175000D01*
X132325000Y-64350000D01*
X132159019Y-64350000D01*
X132100214Y-64356323D01*
X132100210Y-64356324D01*
X131967187Y-64405939D01*
X131853526Y-64491026D01*
X131768439Y-64604687D01*
X131718824Y-64737710D01*
X131718823Y-64737714D01*
X131712500Y-64796519D01*
X107500500Y-64796519D01*
X107500500Y-61654829D01*
X107505523Y-61619893D01*
X107509927Y-61604895D01*
X107547672Y-61546144D01*
X107549041Y-61544957D01*
X107603920Y-61517477D01*
X107611479Y-61515833D01*
X107637832Y-61513000D01*
X161382670Y-61513000D01*
X161417606Y-61518023D01*
G37*
%TD.AperFunction*%
%TD*%
M02*
